<?xml version="1.0" standalone="no"?>
<!DOCTYPE svg PUBLIC "-//W3C//DTD SVG 1.1//EN" "http://www.w3.org/Graphics/SVG/1.1/DTD/svg11.dtd" >
<svg xmlns="http://www.w3.org/2000/svg">
<metadata></metadata>
<defs>
<font id="questa_grandeblack_italic" horiz-adv-x="1024" >
<font-face units-per-em="2048" ascent="1536" descent="-512" />
<missing-glyph horiz-adv-x="407" />
<glyph unicode="&#xfb01;" horiz-adv-x="1263" d="M-106 -129l-5 -16q-44 3 -70.5 -27.5t-34 -68t-7.5 -83.5q0 -57 35 -94t86 -37q86 0 126 98.5t72 354.5q12 96 25 237t20.5 234.5t18.5 249t12 172.5h-154l2 31h154q8 170 73 298t190.5 202.5t297.5 74.5q153 0 249.5 -52.5t96.5 -141.5q0 -93 -94 -141t-244 -27l5 16 q44 -3 70.5 27t34 67t7.5 82q0 59 -31.5 101t-85.5 42q-99 0 -147.5 -108t-65.5 -373l-4 -67h617q0 -114 -53.5 -405.5t-53.5 -354.5q0 -43 7.5 -63.5t27.5 -20.5q38 0 73 64.5t50 162.5l31 -6q-52 -307 -273 -307q-270 0 -270 219q0 64 47 317t47 363h-252 q-41 -548 -86 -787q-12 -67 -27 -124t-38 -118t-51.5 -110t-69 -93.5t-89.5 -74.5t-113.5 -47.5t-139.5 -17.5q-140 0 -230 53.5t-90 142.5q0 87 82.5 131.5t221.5 24.5z" />
<glyph unicode="&#xfb02;" horiz-adv-x="1284" d="M-106 -129l-5 -16q-44 3 -70.5 -27.5t-34 -68t-7.5 -83.5q0 -57 35 -94t86 -37q86 0 125.5 99t70.5 354q43 357 76 893h-152l2 31h152l4 41q27 259 165.5 396.5t385.5 137.5q55 0 113.5 -6.5t89.5 -13.5l31 -7h282q0 -106 -45 -399t-90 -568t-45 -337q0 -57 7 -72.5 t30 -15.5q31 0 68.5 67t48.5 158l30 -4q-49 -307 -274 -307q-130 0 -198 56t-68 161q0 74 86 582.5t88 644.5q-42 30 -131 30q-70 0 -112.5 -41.5t-69.5 -145.5t-38 -290l-4 -67h172l-2 -31h-172q-34 -494 -88 -787q-18 -96 -40.5 -173t-64 -157t-96 -133.5t-138 -87.5 t-187.5 -34q-140 0 -230 53.5t-90 142.5q0 87 81.5 131.5t222.5 24.5z" />
<glyph unicode="&#xfb03;" horiz-adv-x="1892" d="M-106 -129l-5 -16q-40 4 -66 -20t-36 -61.5t-10 -86.5q0 -72 37.5 -107t89.5 -35q78 0 119 99t73 364q23 191 51 532.5t29 350.5h-158l2 31h158q22 190 50 275q66 203 242 246q51 13 112 13q237 0 237 -182q0 -26 -4.5 -48t-8.5 -31l-5 -9l-33 6q20 29 20 80 q0 53 -26.5 91t-81.5 38q-32 0 -55.5 -13.5t-38.5 -42t-24 -59.5t-14 -79.5t-7.5 -87.5t-6 -98.5t-6.5 -98.5h277q13 276 159.5 425.5t399.5 149.5q157 0 251.5 -52t94.5 -142q0 -93 -94 -141t-244 -27l4 16q33 -2 57 13.5t35 44t16 57.5t5 61q0 61 -29.5 102t-87.5 41 q-99 0 -147.5 -108t-65.5 -373l-4 -67h617q0 -115 -53.5 -406t-53.5 -354q0 -54 9 -69t34 -15q29 0 65.5 67t49.5 158l30 -4q-52 -307 -274 -307q-133 0 -200.5 55.5t-67.5 163.5q0 64 47 317t47 363h-252q-6 -129 -33 -385.5t-51 -409.5q-91 -563 -453 -563 q-107 0 -150.5 44.5t-43.5 111.5q0 34 10 62.5t20 40.5l9 11l28 -14q-4 -3 -10 -10t-16 -32.5t-10 -55.5q0 -62 35.5 -90.5t78.5 -28.5q67 0 100.5 93t57.5 323q12 117 78 903h-275q-30 -459 -90 -776q-19 -99 -41 -176.5t-63.5 -159.5t-95.5 -136t-138 -89t-190 -35 q-140 0 -230 54t-90 144q0 85 82.5 129.5t221.5 24.5z" />
<glyph unicode="&#xfb04;" horiz-adv-x="1912" d="M-106 -129l-5 -16q-40 4 -66 -20t-36 -61.5t-10 -86.5q0 -72 37.5 -107t89.5 -35q78 0 119 99t73 364q23 191 51 532.5t29 350.5h-158l2 31h158q8 68 13 104.5t19 102t31 103t48 86t70 74.5t97 45t130 19q75 0 125.5 -18t72 -49t28.5 -57t7 -58q0 -26 -4.5 -48t-8.5 -31 l-5 -9l-33 6q20 29 20 80q0 53 -26.5 91t-81.5 38q-32 0 -55.5 -13.5t-38.5 -42t-24 -59.5t-14 -79.5t-7.5 -87.5t-6 -98.5t-6.5 -98.5h277q22 285 161 430t390 145q55 0 113 -6.5t89 -13.5l31 -7h283q0 -136 -90 -684t-90 -641q0 -40 7.5 -53.5t22.5 -13.5q37 0 73.5 64 t49.5 161l31 -4q-49 -307 -274 -307q-130 0 -198.5 56t-68.5 161q0 74 86 582.5t88 644.5q-42 30 -131 30q-70 0 -112.5 -41.5t-69 -145.5t-37.5 -290l-4 -67h180l-2 -31h-180q-6 -129 -33 -385.5t-51 -409.5q-91 -563 -453 -563q-107 0 -150.5 44.5t-43.5 111.5 q0 34 10 62.5t20 40.5l9 11l28 -14q-4 -3 -10 -10t-16 -32.5t-10 -55.5q0 -62 35.5 -90.5t78.5 -28.5q67 0 100.5 93t57.5 323q12 117 78 903h-275q-30 -459 -90 -776q-19 -99 -41 -176.5t-63.5 -159.5t-95.5 -136t-138 -89t-190 -35q-140 0 -230 54t-90 144 q0 85 82.5 129.5t221.5 24.5z" />
<glyph horiz-adv-x="0" />
<glyph horiz-adv-x="682" />
<glyph unicode=" "  horiz-adv-x="407" />
<glyph unicode="&#x09;" horiz-adv-x="407" />
<glyph unicode="&#xa0;" horiz-adv-x="407" />
<glyph unicode="!" horiz-adv-x="552" d="M39 168q0 75 53.5 126.5t128.5 51.5q76 0 127 -51.5t51 -126.5q0 -76 -51 -129t-127 -53q-75 0 -128.5 53.5t-53.5 128.5zM270 446h-30q6 40 6 74q0 117 -23.5 237t-47 219t-23.5 165q0 118 59 178.5t162 60.5q85 0 142.5 -49t57.5 -133q0 -60 -25.5 -123t-64 -125.5 t-80 -131t-79 -166.5t-54.5 -206z" />
<glyph unicode="&#x22;" horiz-adv-x="839" d="M242 852h-31q-29 126 -41.5 236.5t-5.5 207.5t48 154t114 57q67 0 108 -38t41 -111q0 -26 -5 -53.5t-19 -63.5t-24.5 -61t-37.5 -74t-41.5 -73.5t-52 -88.5t-53.5 -92zM664 852h-31q-29 126 -41.5 236.5t-5.5 207.5t48 154t114 57q67 0 108 -38t41 -111q0 -26 -5 -53.5 t-19 -63.5t-24.5 -61t-37.5 -74t-41.5 -73.5t-52 -88.5t-53.5 -92z" />
<glyph unicode="#" horiz-adv-x="1220" d="M231 -123l105 488h-301l6 30h301l76 355h-316l4 30h318l106 490h29l-104 -490h397l106 490h29l-104 -490h303l-6 -30h-303l-76 -355h319l-6 -30h-319l-105 -488h-31l105 488h-397l-105 -488h-31zM373 395h397l76 355h-397z" />
<glyph unicode="$" horiz-adv-x="985" d="M39 0h-27q3 3 11.5 36.5t27 129t37.5 227.5h31q-4 -28 -8 -53t-5 -32t-1.5 -17t-0.5 -29q0 -67 58.5 -131t156.5 -88l56 389q-56 26 -97 52.5t-79.5 65t-59 92t-20.5 118.5q0 75 22.5 135t57 98t83.5 66t93.5 41.5t95.5 21.5l25 168h30l-24 -164q58 4 78 4q15 0 43 -4 l24 164h31l-25 -168q88 -18 146 -57q74 2 123 57h30q-23 -45 -36.5 -104.5t-36.5 -226.5h-31q10 82 10 100q0 80 -59 132.5t-150 68.5l-53 -375q49 -21 86.5 -40.5t78 -50.5t66.5 -66t43 -84.5t17 -108.5q0 -137 -104 -241.5t-287 -123.5l-25 -174h-31l25 172h-39 q-42 0 -82 6l-25 -178h-30l26 184q-102 24 -168 90q-13 -3 -26.5 -12.5t-27 -23.5t-22 -24t-20 -25.5t-12.5 -16.5zM420 31h49l47 340q-16 7 -54.5 23.5t-58.5 25.5l-55 -383q34 -6 72 -6zM545 358l-45 -325q198 18 198 164q0 54 -39 91t-114 70zM567 729l51 367 q-32 4 -49 4q-37 0 -71 -6l-45 -318q38 -17 114 -47zM424 791l43 296q-77 -18 -118.5 -59.5t-41.5 -95.5q0 -46 30 -79t87 -62z" />
<glyph unicode="%" horiz-adv-x="1673" d="M418 0l848 1354h39l-850 -1354h-37zM942 297q0 132 93 223.5t225 91.5q134 0 226.5 -91.5t92.5 -223.5q0 -133 -92.5 -225t-226.5 -92q-132 0 -225 92t-93 225zM1260 10q120 0 203 83.5t83 203.5q0 119 -83 202t-203 83q-118 0 -201.5 -83t-83.5 -202q0 -120 83 -203.5 t202 -83.5zM125 1057q0 132 92.5 223.5t224.5 91.5q134 0 227 -91.5t93 -223.5q0 -133 -93 -225.5t-227 -92.5q-132 0 -224.5 92.5t-92.5 225.5zM442 770q120 0 203.5 83.5t83.5 203.5q0 119 -83.5 201.5t-203.5 82.5q-118 0 -201 -82.5t-83 -201.5q0 -120 82.5 -203.5 t201.5 -83.5z" />
<glyph unicode="&#x26;" horiz-adv-x="1435" d="M1073 242l12 -19q62 -95 92 -124t68 -29q44 0 73.5 42.5t29.5 96.5q0 16 -9 61l31 4q8 -36 8 -67q0 -99 -83 -160t-244 -61q-81 0 -140.5 18.5t-113.5 63.5q-141 -82 -328 -82q-218 0 -342.5 95.5t-124.5 256.5q0 282 399 422q-24 99 -24 186q0 194 123.5 308t355.5 114 q159 0 246.5 -52t87.5 -145q0 -84 -61.5 -138t-157.5 -54q-69 0 -110 31t-42 92l31 4q0 -33 13.5 -51.5t35.5 -18.5q40 0 66 46t26 110q0 69 -32.5 109t-92.5 40q-71 0 -111 -65.5t-40 -192.5q0 -121 34.5 -225t122.5 -268q114 -213 183 -322q149 149 149 291q0 93 -50 152 t-128 59q-51 0 -104 -22l-15 26q56 27 119 27q93 0 151 -67t58 -173q0 -80 -39 -156.5t-123 -162.5zM774 88q-42 42 -80 94q-109 143 -194 324q-66 146 -90 229q-80 -72 -80 -268q0 -181 88 -299.5t223 -118.5q63 0 133 39z" />
<glyph unicode="'" horiz-adv-x="417" d="M242 852h-31q-29 126 -41.5 236.5t-5.5 207.5t48 154t114 57q67 0 108 -38t41 -111q0 -26 -5 -53.5t-19 -63.5t-24.5 -61t-37.5 -74t-41.5 -73.5t-52 -88.5t-53.5 -92z" />
<glyph unicode="(" horiz-adv-x="589" d="M463 -453l-27 -20q-65 63 -129.5 148t-128.5 196.5t-103.5 248t-39.5 269.5q0 145 46 294.5t114.5 267.5t154 226.5t158 178t133.5 114.5l21 -22q-56 -59 -96 -117t-64 -104t-44 -118.5t-29.5 -120t-27.5 -150.5q-10 -62 -15 -96t-8.5 -60.5t-6 -56.5t-4 -46.5t-5 -71.5 t-6.5 -93q-3 -31 -8 -83q-18 -186 -18 -253q0 -23 -0.5 -67.5t-0.5 -63.5t1 -55.5t3.5 -54.5t7 -48.5t11 -49.5t16.5 -46t23.5 -48.5t31.5 -46.5t40 -51z" />
<glyph unicode=")" horiz-adv-x="589" d="M-72 -473l-20 22q90 93 141 189.5t69 166.5t47 229q3 17 5 26q24 166 28 198t19 209q23 297 23 353q0 21 0.5 67t0 63.5t-1.5 55.5t-3 54.5t-6.5 48.5t-11.5 49.5t-17 45t-23.5 49t-31.5 46.5t-40 51l29 20q65 -62 129.5 -147.5t128 -197t103 -248t39.5 -269.5 q0 -145 -45.5 -294.5t-114 -268t-154 -226.5t-158.5 -178t-135 -114z" />
<glyph unicode="*" horiz-adv-x="1103" d="M633 1061h-35q0 56 -18.5 106t-40 79.5t-40 66t-18.5 69.5q0 53 38 81t97 28q58 0 96 -27.5t38 -77.5q0 -31 -17.5 -66.5t-39 -65.5t-40.5 -82t-20 -111zM563 1042l-10 -32q-40 12 -88 12q-49 0 -118.5 -19.5t-96.5 -19.5q-55 0 -84 32.5t-29 80.5q0 63 34.5 109t80.5 46 q32 0 59 -16t50 -41.5t47.5 -53t65 -55t89.5 -43.5zM565 961l29 -21q-34 -45 -49.5 -96t-16 -88t-8.5 -77.5t-28 -66.5q-33 -41 -80 -41q-54 0 -105 47t-51 97q0 37 19.5 60t54 38t72.5 30t83.5 45t79.5 73zM682 1001l-10 33q56 18 101 56.5t68.5 72t58 60t75.5 26.5 q51 0 86 -49t35 -113q0 -43 -27.5 -73.5t-81.5 -30.5q-25 0 -91.5 16.5t-113.5 16.5q-44 0 -100 -15zM633 942l29 21q30 -42 73 -71t81 -44t73 -31t55.5 -41.5t20.5 -64.5q0 -51 -52 -96.5t-106 -45.5q-50 0 -78 41q-18 25 -24.5 64t-7 76.5t-16 90.5t-48.5 101z" />
<glyph unicode="+" horiz-adv-x="1105" d="M528 0v481h-444v31h444v473h31v-473h442v-31h-442v-481h-31z" />
<glyph unicode="," horiz-adv-x="524" d="M-59 -309l4 30q135 0 227 71.5t92 164.5q0 75 -66.5 123.5t-187.5 58.5q14 112 61 159.5t124 47.5q89 0 142.5 -55.5t53.5 -169.5q0 -179 -128.5 -304.5t-321.5 -125.5z" />
<glyph unicode="-" horiz-adv-x="714" d="M70 383l39 235h516l-39 -235h-516z" />
<glyph unicode="." horiz-adv-x="499" d="M16 168q0 75 53 126.5t130 51.5q75 0 126.5 -51.5t51.5 -126.5q0 -77 -51.5 -129.5t-126.5 -52.5q-77 0 -130 53t-53 129z" />
<glyph unicode="/" horiz-adv-x="790" d="M-88 -463l919 1929l29 -12l-919 -1929z" />
<glyph unicode="0" d="M57 412q0 194 76 331q68 120 187 188t274 68q184 0 270 -100.5t86 -298.5q0 -87 -16.5 -172t-53.5 -165.5t-90.5 -141.5t-132.5 -98t-174 -37q-184 0 -305 119t-121 307zM573 39q87 0 167.5 77.5t130 206.5t49.5 271q0 163 -60.5 256.5t-154.5 93.5q-74 0 -130.5 -62 t-93.5 -171q-63 -195 -63 -392q0 -148 39.5 -214t115.5 -66z" />
<glyph unicode="1" horiz-adv-x="862" d="M-8 0l4 31h215l121 852q-137 -25 -246 -25l4 31q100 0 255.5 27.5t261.5 55.5l106 27l-138 -968h209l-4 -31h-788z" />
<glyph unicode="2" horiz-adv-x="1009" d="M-51 0l4 31q28 16 90.5 50.5t92.5 52t75.5 44t80 49.5t64.5 47q84 65 141.5 147t57.5 169q0 83 -52.5 130.5t-142.5 47.5q-78 0 -137 -33.5t-59 -89.5q0 -39 16 -82l-28 -10q-25 73 -25 131q0 135 106 225t289 90q169 0 281 -76t112 -200q0 -52 -24 -99.5t-59 -83.5 t-98.5 -79.5t-116 -73.5t-140.5 -79.5t-145 -84.5h495l70 150l33 -4q-82 -152 -127 -310l-2 -12l-13 -47h-839z" />
<glyph unicode="3" horiz-adv-x="1013" d="M240 33l-2 -17q-55 5 -84 -43.5t-29 -109.5q0 -72 41.5 -119t114.5 -47q76 0 131.5 53t80.5 128.5t25 158.5q0 233 -242 280v31q46 6 115 25.5t119 46.5q106 63 106 178q0 34 -9.5 62.5t-30.5 55.5t-63 42.5t-101 15.5q-100 0 -159.5 -44.5t-59.5 -117.5q0 -20 10 -49 l-29 -10q-24 71 -24 131q0 135 112.5 225t304.5 90q169 0 278 -71.5t109 -198.5q0 -48 -17 -90t-50 -75t-72.5 -59.5t-93.5 -48.5t-104 -38.5t-113 -32.5q71 -8 131.5 -28.5t113.5 -57t83 -95.5t30 -136q0 -180 -156.5 -289t-398.5 -109q-179 0 -283 58.5t-104 146.5 q0 34 17.5 64t53.5 54.5t100 35.5t149 4z" />
<glyph unicode="4" horiz-adv-x="1138" d="M-51 80l4 33l842 874h157q-80 -445 -137 -876h51q12 1 22 6t20.5 17t19 24.5t22 38t23.5 46.5t29.5 60.5t35.5 71.5h33q-68 -197 -82 -295h-178q-28 -217 -43 -397h-352q11 180 41 397h-508zM-6 111h469q30 214 104 600z" />
<glyph unicode="5" horiz-adv-x="966" d="M289 33l-2 -17q-38 4 -64.5 -21t-37.5 -60t-11 -74q0 -77 35.5 -120.5t105.5 -43.5q64 0 116 44t79 111.5t27 139.5q0 68 -29 120t-73 82.5t-109 50t-121.5 27.5t-126.5 11l153 702h519q30 0 43 0.5t30 4t23 9t14 19t11.5 30.5t7.5 46h30q-10 -66 -17.5 -107.5t-18.5 -86 t-23.5 -70t-30.5 -49.5t-41.5 -36t-54 -19t-70.5 -7h-448l-31 -135q95 0 184.5 -14t178 -48.5t154 -86t106.5 -133.5t41 -185q0 -206 -146 -326.5t-373 -120.5q-159 0 -254.5 58t-95.5 145q0 77 79 125.5t241 34.5z" />
<glyph unicode="6" horiz-adv-x="1161" d="M557 561l-31 4q17 103 81 170.5t181 67.5q137 0 210 -93t73 -241q0 -209 -142 -346t-388 -137q-106 0 -188.5 28.5t-145 89t-96 162t-33.5 240.5q0 85 12 168.5t38.5 169.5t66.5 162t99 143t132.5 115t171 76t209.5 28q156 0 250 -49.5t94 -136.5q0 -85 -89 -135 t-245 -31l4 16q52 0 83.5 49.5t31.5 126.5q0 133 -102 133q-111 0 -205 -140t-145.5 -356.5t-51.5 -449.5q0 -85 8 -153.5t25 -120.5t45.5 -80.5t67.5 -28.5q85 0 141.5 119.5t56.5 290.5q0 248 -125 248q-76 0 -94 -109z" />
<glyph unicode="7" horiz-adv-x="921" d="M481 -262v-17q-3 -3 -8.5 -7.5t-24.5 -16t-40.5 -20.5t-56 -16t-70.5 -7q-32 0 -62.5 7.5t-61 24.5t-49 50.5t-18.5 79.5q0 38 17.5 84.5t41.5 90t73 106t88.5 109.5t113 125t121 126.5t137.5 139.5q45 46 68 69q-86 -13 -283 -13q-51 0 -193 4t-172 7l-30 -195l-33 2 q59 332 67 514q336 -12 478 -12q208 0 387 12v-108l-180 -211q-63 -64 -113 -121t-87.5 -103.5t-66 -93.5t-47.5 -80.5t-31.5 -76.5t-19.5 -69t-10 -70.5t-3.5 -68.5t-0.5 -74v-11q0 -123 69 -160z" />
<glyph unicode="8" d="M315 653q-153 132 -153 320q0 180 122.5 287.5t323.5 107.5q92 0 160 -23.5t105.5 -64t55 -87t17.5 -99.5q0 -179 -184 -297q170 -134 170 -342q0 -107 -39.5 -196t-108 -148t-160 -92t-194.5 -33q-169 0 -277 82t-108 223q0 119 74.5 209.5t195.5 152.5zM342 631 q-47 -23 -89.5 -53t-84.5 -72.5t-67 -98.5t-25 -118q0 -66 30 -119t80 -86t112.5 -50.5t131.5 -17.5q78 0 138 22t93 58.5t49.5 76t16.5 81.5q0 50 -23 93t-66 79t-87.5 65t-106.5 68.5t-102 71.5zM735 815q180 116 180 277q0 104 -74 174.5t-218 70.5q-124 0 -191 -52.5 t-67 -137.5q0 -47 21.5 -86t63 -70.5t83.5 -56t102 -58t100 -61.5z" />
<glyph unicode="9" horiz-adv-x="1140" d="M315 23l-4 -17q-47 0 -80.5 -44t-33.5 -122q0 -143 108 -143q106 0 198 133t144.5 344t52.5 440q0 359 -145 359q-87 0 -147 -109t-60 -289q0 -251 133 -251q35 0 58 24t34 84l31 -4q-14 -101 -79 -169.5t-183 -68.5q-137 0 -209 92t-72 240q0 210 138.5 343.5 t382.5 133.5q106 0 190 -28t148.5 -86.5t99.5 -156.5t35 -230q0 -116 -25 -229.5t-82.5 -222.5t-140 -192t-207 -133.5t-274.5 -50.5q-155 0 -247.5 50t-92.5 137q0 95 84.5 140.5t244.5 25.5z" />
<glyph unicode=":" horiz-adv-x="540" d="M33 168q0 75 53.5 126.5t128.5 51.5t126.5 -51.5t51.5 -126.5q0 -77 -51.5 -129.5t-126.5 -52.5t-128.5 53t-53.5 129zM117 756q0 76 53 128t129 52q75 0 126.5 -52t51.5 -128q0 -75 -51.5 -129t-126.5 -54t-128.5 54t-53.5 129z" />
<glyph unicode=";" horiz-adv-x="552" d="M117 756q0 76 53 128t129 52q75 0 126.5 -52t51.5 -128q0 -75 -51.5 -129t-126.5 -54t-128.5 54t-53.5 129zM-43 -309l4 30q135 0 227.5 71.5t92.5 164.5q0 75 -66.5 123.5t-187.5 58.5q14 112 60.5 159.5t123.5 47.5q89 0 143 -55.5t54 -169.5q0 -179 -129 -304.5 t-322 -125.5z" />
<glyph unicode="&#x3c;" horiz-adv-x="1105" d="M66 477v31l884 473l15 -29l-861 -460l859 -461l-13 -29z" />
<glyph unicode="=" horiz-adv-x="1105" d="M82 664v30h917v-30h-917zM82 297v31h917v-31h-917z" />
<glyph unicode="&#x3e;" horiz-adv-x="1105" d="M135 2l-12 29l856 461l-858 460l14 29l885 -473v-31z" />
<glyph unicode="?" horiz-adv-x="1107" d="M670 602l30 -4q-13 -73 -54 -110t-103 -37q-65 0 -108.5 37.5t-43.5 105.5q0 43 20 79.5t51.5 64t70.5 55t77.5 60.5t70 73t51.5 99.5t20 133.5q0 100 -39 148.5t-125 48.5q-114 0 -175 -76t-61 -197q0 -127 76 -127q33 0 58.5 23.5t31.5 62.5l31 -4q-20 -129 -197 -129 q-106 0 -162.5 49.5t-56.5 139.5q0 139 130 211.5t358 72.5q230 0 365.5 -75.5t135.5 -221.5q0 -74 -38.5 -129.5t-99.5 -88t-135 -57t-148 -44t-135 -41.5t-99.5 -56.5t-38.5 -82.5q0 -49 34.5 -77t82.5 -28q98 0 125 121zM287 168q0 75 53.5 126.5t130.5 51.5 q76 0 127 -50.5t51 -125.5q0 -77 -51.5 -130.5t-126.5 -53.5t-129.5 53.5t-54.5 128.5z" />
<glyph unicode="@" horiz-adv-x="1615" d="M891 -289l4 -28q-79 -11 -131 -11q-211 0 -374 87.5t-253 245t-90 360.5q0 173 67 332t179 274.5t266.5 184.5t321.5 69q292 0 474.5 -177t182.5 -458q0 -153 -61.5 -288.5t-169.5 -218.5t-236 -83q-88 0 -137 42.5t-49 115.5q0 17 4 49h-8q-44 -105 -97 -156t-145 -51 q-65 0 -121.5 20.5t-103.5 62.5t-74 115t-27 169q0 128 42 234t111 173.5t154 104t175 36.5q105 0 166.5 -37.5t99.5 -115.5q121 49 205 133h30q-7 -31 -13 -69t-13 -94.5t-10 -80.5l-76 -510q-10 -63 39 -63q24 0 59 23t74 69t73 105.5t56 143t22 171.5q0 268 -174 436 t-452 168q-162 0 -310.5 -66t-256.5 -177t-172 -264t-64 -320q0 -297 189.5 -480.5t500.5 -183.5q66 0 123 8zM700 47q52 0 100.5 74t80 181.5t50.5 223t19 203.5q0 72 -20 112t-74 40q-23 0 -40.5 -8.5t-37.5 -32.5t-38 -72t-35 -121q-66 -275 -66 -491q0 -57 14 -83 t47 -26z" />
<glyph unicode="A" horiz-adv-x="1312" d="M-117 0l4 31h41q47 0 83 27.5t69 93.5l618 1206h125l342 -1327h99l-4 -31h-633l4 31h147l-98 393h-426l-137 -268q-28 -56 -3 -90.5t95 -34.5h63l-4 -31h-385zM270 455h402l-133 520z" />
<glyph unicode="B" horiz-adv-x="1316" d="M-41 0l4 31h158l180 1292h-158l4 31h644q128 0 224.5 -24t151.5 -65t82 -90.5t27 -107.5q0 -168 -124 -259t-400 -112v-4q255 -6 366 -77t113 -222q1 -74 -28 -141.5t-87.5 -125t-161.5 -92t-237 -34.5h-758zM500 31h98q82 0 141 56t87 144t28 195q0 135 -52 193.5 t-173 58.5h-39zM594 709h49q62 0 110.5 24.5t78 63t48.5 91.5t26 105t7 109q0 122 -51 171.5t-137 49.5h-45z" />
<glyph unicode="C" horiz-adv-x="1230" d="M1120 389l31 -4q-7 -47 -26.5 -97.5t-58 -105.5t-89.5 -97.5t-128 -70.5t-167 -28q-183 0 -322 78t-212.5 213.5t-73.5 308.5q0 165 53 308.5t149 248.5t240 165t318 60q183 0 274 -88q48 -14 102.5 7.5t67.5 66.5h27q-76 -225 -86 -305l-17 -117h-31q13 88 13 106 q0 128 -86.5 212.5t-225.5 84.5q-56 0 -102.5 -17t-82 -46t-65.5 -76.5t-51.5 -98.5t-40 -122t-31.5 -138.5t-26 -154.5q-24 -171 -24 -295q0 -187 57 -279t192 -92q85 0 160.5 32.5t128.5 86t87.5 119.5t45.5 135z" />
<glyph unicode="D" horiz-adv-x="1515" d="M-41 0l4 31h158l180 1292h-156l5 31h585q166 0 293 -25.5t210.5 -70t136.5 -111.5t75.5 -144.5t22.5 -173.5q0 -146 -27 -268t-89 -227.5t-157 -178.5t-238 -114t-325 -41h-678zM496 31h127q81 0 148 28t115 76t85.5 116.5t60.5 144t38 164t20.5 171.5t5.5 172 q0 104 -15.5 179t-42 121t-69 73.5t-89.5 37t-110 9.5h-94z" />
<glyph unicode="E" horiz-adv-x="1247" d="M-41 0l4 31h158l182 1292h-162l4 31h1151q-67 -162 -114 -383h-31l20 151q6 52 -6 95.5t-53 74.5t-108 31h-320l-90 -639h289l24 180h33l-57 -409h-33l29 198h-289l-88 -622h348q186 0 287 375h30q-55 -187 -86 -406h-1122z" />
<glyph unicode="F" horiz-adv-x="1173" d="M-41 0l4 31h156l182 1292h-158l4 31h1121q-68 -162 -115 -383h-31l21 151q6 52 -6.5 95.5t-53.5 74.5t-108 31h-293l-90 -639h299l24 180h33l-57 -409h-33l29 198h-299l-88 -622h178l-4 -31h-715z" />
<glyph unicode="G" horiz-adv-x="1406" d="M922 289l34 239h-206l4 31h663l-4 -31h-117l-34 -227q-21 -139 -169 -227t-395 -88q-283 0 -454.5 168.5t-171.5 431.5q0 166 53.5 308.5t153 248t251.5 165.5t338 60q187 0 295 -86q47 -21 106.5 0.5t76.5 71.5h26q-76 -229 -86 -305l-16 -117h-31q12 82 12 106 q0 127 -98 212t-246 85q-53 0 -99 -12.5t-82.5 -37.5t-66.5 -57.5t-54.5 -79t-43.5 -95t-35 -112t-28.5 -123.5t-24.5 -136q-27 -169 -27 -285q0 -185 59 -285t197 -100q97 0 146.5 59.5t73.5 217.5z" />
<glyph unicode="H" horiz-adv-x="1662" d="M-43 0l4 31h160l180 1292h-158l4 31h695l-4 -31h-158l-88 -631h514l90 631h-158l4 31h695l-4 -31h-158l-182 -1292h157l-4 -31h-694l4 31h158l90 631h-516l-88 -631h155l-4 -31h-694z" />
<glyph unicode="I" horiz-adv-x="770" d="M-43 0l4 31h160l180 1292h-158l4 31h695l-4 -31h-158l-180 -1292h155l-4 -31h-694z" />
<glyph unicode="J" horiz-adv-x="751" d="M-250 -270l4 30q207 -7 288 90q52 64 76 214q4 24 17 120l160 1139h-158l4 31h697l-4 -31h-158l-146 -1030q-10 -72 -23.5 -128.5t-40.5 -118.5t-64 -107.5t-96 -88t-135.5 -68.5t-183 -40.5t-237.5 -11.5z" />
<glyph unicode="K" horiz-adv-x="1476" d="M-47 0l4 31h164l180 1292h-160l4 31h697l-4 -31h-160l-86 -612h72l614 516q26 22 35 44t-8 37t-62 15h-72l5 31h360l-4 -31h-14q-78 0 -162 -72l-398 -333l404 -887h90l-4 -31h-625l2 31h117l-274 649h-80l-90 -649h159l-4 -31h-700z" />
<glyph unicode="L" horiz-adv-x="1138" d="M-43 0l4 31h158l182 1292h-158l4 31h697l-4 -31h-158l-182 -1292h297q90 0 161 89t125 286h31q-55 -187 -86 -406h-1071z" />
<glyph unicode="M" horiz-adv-x="1806" d="M-59 0l4 31h61q123 0 139 119l164 1173h-159l4 31h526l205 -944l461 944h536l-4 -31h-160l-182 -1292h160l-4 -31h-693l5 31h157l170 1218l-608 -1249h-123l-272 1227l-152 -1077q-20 -119 105 -119h63l-4 -31h-399z" />
<glyph unicode="N" horiz-adv-x="1402" d="M-47 0l4 31h59q126 0 142 123l145 1030l-27 45q-16 28 -24 40t-23 27.5t-33.5 21t-43.5 5.5h-29l4 31h508l526 -893l105 739q8 61 -16 92t-89 31h-61l4 31h399l-4 -31h-63q-124 0 -140 -123l-170 -1200h-122l-676 1143l-140 -989q-8 -62 15 -92.5t88 -30.5h63l-4 -31 h-397z" />
<glyph unicode="O" horiz-adv-x="1505" d="M74 526q0 95 14 193q20 147 71.5 263t138 204t218.5 135t303 47q331 0 489 -131.5t158 -394.5q0 -126 -24 -243.5t-80 -230.5t-140.5 -196.5t-214.5 -134.5t-292 -51q-339 0 -490 138t-151 402zM674 12q73 0 132 34t99.5 90.5t72 143t50.5 176.5t35 206q27 233 27 325 q0 83 -11 145t-36 110.5t-70 73.5t-109 25t-115.5 -22t-90 -66.5t-67.5 -100.5t-50.5 -134.5t-36 -156.5t-27.5 -179q-3 -22 -10.5 -83t-10.5 -89t-6.5 -72t-3.5 -78q0 -81 11 -142t36.5 -109t71 -72.5t109.5 -24.5z" />
<glyph unicode="P" horiz-adv-x="1343" d="M-41 0l4 31h158l180 1292h-156l5 31h684q269 0 400.5 -87.5t131.5 -265.5q0 -205 -158 -325.5t-420 -120.5q-39 0 -81 6l4 29q28 -4 51 -4q61 0 113.5 63.5t84 172t31.5 233.5q0 156 -44.5 212t-145.5 56h-121l-180 -1292h178l-4 -31h-715z" />
<glyph unicode="Q" horiz-adv-x="1499" d="M279 -336l-31 4q8 38 30.5 72t48.5 58.5t71.5 52t80 45t94.5 45.5q84 39 141.5 73t111.5 82.5t89.5 105.5t67 139.5t53.5 187.5t41 247q21 159 21 234q0 166 -56.5 248.5t-189.5 82.5q-152 0 -239.5 -138t-137.5 -449q-49 -311 -49 -453q0 -111 33.5 -147.5t132.5 -42.5 l-4 -31q-96 5 -185 42t-162 102.5t-117 169t-44 229.5q0 155 50.5 291t143.5 237t232.5 159t308.5 58q330 0 492.5 -139t162.5 -383q0 -112 -26 -210.5t-76 -178.5t-112 -146.5t-146 -125t-164.5 -103t-181.5 -90.5q-30 -14 -102 -44t-99 -42q33 8 96 8q81 0 180.5 -26 t176.5 -57t162.5 -57t142.5 -26q52 0 76 35t30 117l31 -4q-5 -79 -21 -139.5t-49 -110t-89.5 -75.5t-135.5 -26q-82 0 -162.5 27t-144.5 65.5t-126 77t-129.5 65.5t-131.5 27q-149 0 -190 -143z" />
<glyph unicode="R" horiz-adv-x="1388" d="M-41 0l4 31h158l180 1292h-156l5 31h671q244 0 365 -74t121 -238q0 -168 -133.5 -258t-382.5 -104v-8q98 -13 169 -40t113 -66.5t64 -84.5t30 -102q6 -36 4 -76.5t-1.5 -82.5t3 -75.5t17 -55t41.5 -21.5q61 0 112 170l29 -7q-13 -41 -21.5 -65t-24.5 -55.5t-35.5 -49.5 t-48 -36t-68 -25.5t-89.5 -7.5q-168 0 -236 90t-71 262q-4 190 -15 240q-21 72 -71 75h-104l-88 -628h155l-4 -31h-692zM592 690h104q107 0 170.5 120t63.5 298q0 111 -31.5 163t-103.5 52h-115z" />
<glyph unicode="S" horiz-adv-x="1114" d="M47 0h-27q11 38 28.5 130.5t21.5 123.5l28 201h31q-20 -127 -20 -179q0 -116 110 -188t283 -72q140 0 219.5 50t79.5 143q0 47 -18.5 84.5t-57 66t-72.5 47.5t-91.5 45.5t-88.5 43.5q-48 26 -75 41.5t-67.5 42t-63 48.5t-50 55.5t-41 68t-23.5 81t-10 99.5q0 208 128 322 t343 114q177 0 304 -80q56 -11 102 10.5t59 55.5h27q-7 -21 -21.5 -65t-20 -60.5t-15 -48.5t-14 -50t-9.5 -42.5t-8 -47.5l-12 -104h-31q14 96 12 141q-5 122 -102 191t-267 69q-282 0 -282 -188q0 -51 17.5 -89.5t62.5 -72t79 -52t110 -53.5q23 -11 34 -16 q147 -69 198 -103q141 -93 173 -232q10 -46 10 -99q0 -206 -143.5 -326t-370.5 -120q-196 0 -328 86q-48 -1 -82 -21.5t-49 -50.5z" />
<glyph unicode="T" horiz-adv-x="1286" d="M221 0l4 31h158l182 1292h-153q-195 0 -262 -190l-56 -162h-31q56 184 74 383h1245q-17 -88 -31 -184t-19 -148l-5 -51h-31l9 121q7 95 -38 163t-141 68h-182l-182 -1292h160l-4 -31h-697z" />
<glyph unicode="U" horiz-adv-x="1445" d="M207 815l69 508h-157l4 31h694l-4 -31h-160l-94 -666q-29 -199 -31 -263v-36q0 -183 58 -259t196 -76q180 0 295.5 123.5t147.5 353.5l98 700q8 61 -15.5 92t-88.5 31h-62l4 31h398l-5 -31h-63q-65 0 -97 -31t-40 -92l-97 -694q-14 -97 -37 -173t-65 -143t-100.5 -110.5 t-144 -68.5t-195.5 -25q-260 0 -402.5 122t-142.5 351q0 86 37 356z" />
<glyph unicode="V" horiz-adv-x="1404" d="M584 -2l-387 1325h-146l4 31h697l-4 -31h-160l270 -973q195 340 250 449q123 241 152 401q22 123 -105 123h-61l4 31h381l-4 -31h-43q-65 0 -97 -30.5t-43 -92.5q-16 -85 -49 -176.5t-93 -209.5t-115.5 -218t-156.5 -280t-176 -318h-118z" />
<glyph unicode="W" horiz-adv-x="2160" d="M557 -4l-356 1327h-144l4 31h691l-4 -31h-158l239 -999l291 503l-131 496h-143l4 31h694l-4 -31h-164l240 -993q24 43 89.5 161.5t90.5 165t73 141t70.5 149t46.5 124.5t35 129q22 123 -104 123h-62l5 31h381l-5 -31h-43q-65 0 -96.5 -30.5t-42.5 -92.5 q-16 -85 -48.5 -175t-93.5 -211.5t-114 -217.5t-157.5 -282.5t-176.5 -317.5h-121l-213 792l-454 -792h-119z" />
<glyph unicode="X" horiz-adv-x="1366" d="M-41 0l4 31h66q45 0 77 25t87 96l344 444l-336 727h-142l4 31h701l-4 -31h-150l232 -500l299 389q38 47 20.5 79t-86.5 32h-51l4 31h379l-4 -31h-68q-45 0 -75 -24.5t-86 -96.5l-318 -409l354 -762h138l-5 -31h-694l4 31h146l-248 534l-328 -424q-38 -47 -20.5 -78.5 t86.5 -31.5h51l-4 -31h-377z" />
<glyph unicode="Y" horiz-adv-x="1423" d="M295 0l4 31h160l45 309q24 166 -7 333t-101.5 318.5t-188.5 331.5h-125l4 31h737l-4 -31h-176q219 -314 258 -723q52 156 151.5 317t211.5 291q23 27 29 52.5t-12.5 44t-63.5 18.5h-82l4 31h379l-5 -31h-40q-18 0 -36.5 -7t-30 -13t-33.5 -27.5t-30 -31t-38 -42.5 q-93 -104 -172 -219.5t-149.5 -273t-92.5 -306.5l-53 -372h159l-4 -31h-698z" />
<glyph unicode="Z" horiz-adv-x="1204" d="M-59 0l4 33l872 1290h-352q-49 0 -89 -18.5t-68 -47.5t-53 -77.5t-41.5 -95.5t-35.5 -115h-31q39 178 68 385h1042l-4 -33l-882 -1290h438q188 0 285 375h30q-55 -187 -86 -406h-1097z" />
<glyph unicode="[" horiz-adv-x="620" d="M23 -467l239 1937h457l-4 -30h-180l-232 -1876h180l-4 -31h-456z" />
<glyph unicode="\" horiz-adv-x="829" d="M610 -471l-442 1935l31 6l442 -1935z" />
<glyph unicode="]" horiz-adv-x="622" d="M-115 -467l4 31h179l231 1876h-178l4 30h457l-240 -1937h-457z" />
<glyph unicode="^" horiz-adv-x="997" d="M41 420l428 934h31l422 -934h-35l-404 889l-407 -889h-35z" />
<glyph unicode="_" horiz-adv-x="1208" d="M16 -31v31h1024v-31h-1024z" />
<glyph unicode="`" d="M618 1077l-26 -16q-30 54 -76 98.5t-88 73t-80 56t-61 60t-23 72.5q0 33 12.5 64t48 55.5t89.5 24.5q57 0 88 -32t41.5 -87.5t15 -115.5t18 -132t41.5 -121z" />
<glyph unicode="a" horiz-adv-x="1198" d="M651 236h-8q-56 -131 -124 -190.5t-175 -59.5q-147 0 -233 97.5t-86 272.5q0 120 43 228.5t115 185t169.5 121.5t202.5 45q66 0 120.5 -17.5t90.5 -47t58.5 -59.5t37.5 -64q130 77 232 188h30q-56 -173 -101.5 -401t-45.5 -357q0 -56 8.5 -77t30.5 -21q36 0 71.5 68.5 t42.5 154.5l31 -4q-7 -48 -17.5 -88t-32.5 -82t-52.5 -71t-79.5 -47.5t-111 -18.5q-115 0 -170 53t-55 127q0 40 8 64zM453 53q71 0 151 164q50 103 88.5 243.5t38.5 241.5q0 51 -7.5 90.5t-29.5 69t-57 29.5q-60 0 -121.5 -78.5t-104 -221.5t-42.5 -306q0 -232 84 -232z " />
<glyph unicode="b" horiz-adv-x="1175" d="M43 -14h-31q8 34 78 428q60 344 95.5 629.5t43.5 396.5h-118l2 30h467q-19 -237 -52.5 -465.5t-58.5 -318.5h8q70 122 147.5 186t186.5 64q62 0 116.5 -22t98.5 -64.5t70 -113.5t26 -161q0 -110 -38.5 -215.5t-105.5 -188.5t-166.5 -134t-213.5 -51q-70 0 -128 18.5 t-96 50.5t-60.5 61t-39.5 62q-135 -69 -231 -192zM504 31q56 0 105 62t79.5 158t48 205t17.5 208q0 196 -70 196t-172 -172q-52 -86 -85.5 -204.5t-33.5 -239.5q0 -117 32 -165t79 -48z" />
<glyph unicode="c" horiz-adv-x="948" d="M815 260l31 -4q-3 -36 -16 -71.5t-40.5 -72t-67 -64t-100.5 -45t-135 -17.5q-69 0 -133 14t-124 45.5t-104.5 78t-71.5 117t-27 156.5q0 78 21 153.5t67 146t111.5 123t162 84.5t211.5 32q61 0 115.5 -9t109.5 -30.5t88 -65.5t33 -106q0 -88 -60.5 -136t-144.5 -48 q-27 0 -50.5 5.5t-33.5 11.5l-10 5l4 17q47 -8 73 44.5t26 125.5q0 86 -32.5 122.5t-76.5 36.5q-60 0 -111.5 -68t-83 -170t-49.5 -212t-18 -203q0 -129 38 -182.5t118 -53.5q110 0 191 70.5t89 169.5z" />
<glyph unicode="d" horiz-adv-x="1222" d="M668 223h-9q-25 -59 -49.5 -99t-60 -73t-83.5 -49t-112 -16q-66 0 -123 21.5t-103.5 64t-73.5 115.5t-27 169q0 148 58.5 280.5t168 216t244.5 83.5q105 0 167 -45.5t83 -112.5q12 102 35 253t37 255t14 154h-121l2 30h473q0 -130 -91 -674.5t-91 -639.5q0 -76 34 -76 q37 0 72.5 64t48.5 159l31 -4q-46 -307 -291 -307q-44 0 -85 10.5t-76.5 31t-56.5 56.5t-21 82q0 24 6 51zM467 55q49 0 86.5 42t75.5 134q34 77 70 200.5t36 227.5q0 106 -37.5 156.5t-83.5 50.5q-87 0 -164 -166t-77 -436q0 -108 20 -158.5t74 -50.5z" />
<glyph unicode="e" horiz-adv-x="946" d="M813 260l31 -4q-3 -47 -25.5 -93t-63 -86.5t-107.5 -65.5t-150 -25q-72 0 -139 14t-128 45.5t-106.5 77t-72.5 113.5t-27 151q0 101 38.5 197t110.5 175.5t189.5 128t261.5 48.5q141 0 228 -48t87 -138q0 -35 -10.5 -64.5t-34 -52.5t-46.5 -40t-62 -33t-67 -26t-74.5 -25 t-70.5 -24q-125 -44 -190 -104q-8 -71 -8 -158q0 -105 42.5 -155t117.5 -50q100 0 185 71t91 171zM389 426q9 7 16.5 12t17 10.5t15.5 9t17.5 9.5t17 8.5t21.5 10t22 10.5q77 36 116.5 129.5t39.5 197.5q0 49 -15 67.5t-45 18.5q-70 0 -133 -141t-90 -342z" />
<glyph unicode="f" horiz-adv-x="704" d="M-106 -129l-5 -16q-35 3 -59.5 -15.5t-34.5 -49.5t-14 -55.5t-4 -47.5q0 -71 35.5 -106.5t89.5 -35.5q44 0 74.5 25t52.5 85t36.5 137.5t30.5 205.5q19 163 33.5 331t27.5 355.5t15 206.5h-154l2 31h154l4 41q26 250 154.5 392t361.5 142q144 0 237 -53.5t93 -143.5 q0 -91 -89.5 -138.5t-229.5 -26.5l4 16q35 -3 59.5 15.5t34.5 49.5t14 56t4 49q0 67 -28.5 108t-87.5 41q-86 0 -120.5 -104t-54.5 -377l-4 -67h213l-2 -31h-213q-38 -530 -88 -789q-13 -67 -27.5 -123t-37.5 -117.5t-51 -109.5t-68.5 -93t-88.5 -75t-112.5 -47.5 t-140.5 -17.5q-141 0 -230.5 53.5t-89.5 144.5q0 86 81.5 130t222.5 24z" />
<glyph unicode="g" horiz-adv-x="1054" d="M240 -147l-2 -17q-46 5 -80.5 -31.5t-34.5 -91.5q0 -46 25.5 -79t70.5 -51t97 -26t114 -8q171 0 272 50.5t101 138.5q0 19 -4.5 34t-17 27.5t-25 21.5t-40 17t-48.5 13t-64 11.5t-74.5 10t-89.5 10.5q-55 6 -88.5 11t-86.5 15.5t-86.5 22t-73 32t-62 46t-38 62 t-15.5 80.5q0 152 178 276q-82 62 -82 182q0 147 123 236.5t360 89.5q225 0 330 -88q64 48 64 137q0 53 -27.5 84t-71.5 31l-4 16q58 5 99.5 4.5t71 -11t47.5 -22t27.5 -28.5t13 -31t3.5 -29q0 -67 -57.5 -110t-144.5 -60q59 -65 59 -165q0 -152 -129 -233t-361 -81 q-192 0 -294 60q-72 -49 -72 -93q0 -12 5.5 -22.5t17.5 -18.5t25.5 -14.5t36.5 -12t43 -9.5t52 -8t57 -7t64.5 -7.5t67.5 -8.5q94 -12 157 -25t120 -36t88.5 -55.5t50 -81t18.5 -115.5q0 -377 -508 -377q-221 0 -357.5 59t-136.5 154q0 68 90.5 104t225.5 17zM502 377 q139 0 139 311q0 72 -7.5 119t-21.5 67.5t-26.5 27.5t-30.5 7q-131 0 -131 -325q0 -83 10 -130t25.5 -62t42.5 -15z" />
<glyph unicode="h" horiz-adv-x="1220" d="M389 0h-362q32 236 86.5 578t85 554t30.5 308h-118l2 30h487q-2 -208 -147 -1017h8q53 153 94 243q53 116 123.5 178t183.5 62q114 0 176 -62.5t62 -175.5q0 -86 -55.5 -281.5t-55.5 -269.5q0 -69 35 -69q36 0 71 64.5t50 160.5l31 -4q-10 -56 -23 -99t-35.5 -83.5 t-52.5 -67t-75 -42t-103 -15.5q-116 0 -185 56.5t-69 156.5q0 74 56 287t56 274q0 33 -9 46t-31 13q-25 0 -52 -28.5t-69 -114.5q-56 -114 -112.5 -302.5t-82.5 -379.5z" />
<glyph unicode="i" horiz-adv-x="645" d="M573 303l31 -4q-48 -307 -276 -307q-267 0 -267 219q0 64 48.5 317t48.5 363h-119l2 31h483q0 -114 -53 -407.5t-53 -364.5q0 -41 8.5 -56.5t28.5 -15.5q31 0 69 66.5t49 158.5zM375 1061q-76 0 -128 52.5t-52 129.5q0 74 52 126t128 52q75 0 126.5 -52t51.5 -126 q0 -77 -51.5 -129.5t-126.5 -52.5z" />
<glyph unicode="j" horiz-adv-x="583" d="M-303 -467l4 31q55 -10 86 -10q73 0 118.5 49t78 161t61.5 322l113 805h-119l2 31h481l-119 -848q-5 -41 -11.5 -75t-25 -94t-43 -107t-69.5 -101.5t-100.5 -90.5t-139.5 -60.5t-184 -24.5q-73 0 -133 12zM201 1243q0 74 53 126t129 52q73 0 125.5 -52.5t52.5 -125.5 q0 -76 -52 -129t-126 -53q-77 0 -129.5 52.5t-52.5 129.5z" />
<glyph unicode="k" horiz-adv-x="1171" d="M387 0h-360q32 228 87.5 583t85 565.5t29.5 291.5h-118l2 30h485q0 -51 -12 -156t-27 -204.5t-41 -274t-41 -278.5h72q74 132 158 229q72 80 131.5 115t140.5 35q83 0 134.5 -38t51.5 -103q0 -73 -46.5 -121.5t-114.5 -64t-144 -3.5l4 17q46 -2 75.5 39.5t29.5 132.5 q0 45 -18.5 69.5t-47.5 24.5q-60 0 -153 -99t-166 -233q67 -2 119 -14.5t86.5 -30t59.5 -46.5t39 -57t23 -68.5t12.5 -74.5t7.5 -81q2 -27 3 -40q2 -25 6 -39t11 -20t12 -7t16 -1q16 0 38 23t45 77t34 125l30 -4q-48 -307 -274 -307q-133 0 -201 77t-78 197q-3 28 -5.5 77 t-5 74.5t-8 54.5t-16 41.5t-26.5 12.5h-39q-77 -461 -86 -526z" />
<glyph unicode="l" horiz-adv-x="632" d="M565 303l31 -4q-49 -307 -274 -307q-131 0 -199 56t-68 161q0 73 87 585t87 646h-120l2 30h481q0 -106 -45.5 -399t-91 -568t-45.5 -337q0 -54 7 -71t29 -17q32 0 69 66t50 159z" />
<glyph unicode="m" horiz-adv-x="1792" d="M401 0h-362q73 434 96 602t23 289h-119l2 31h487q0 -140 -63 -469h8q36 112 92 243q47 112 116 176t177 64q106 0 164.5 -59.5t58.5 -165.5q0 -89 -57 -258h8q42 132 92 243q25 53 51.5 92.5t63 75t85.5 54t108 18.5q113 0 176 -62.5t63 -171.5q0 -92 -56 -287t-56 -259 q0 -44 8.5 -61t27.5 -17q34 0 71.5 66.5t49.5 158.5l31 -4q-51 -307 -272 -307q-134 0 -202.5 55.5t-68.5 159.5q0 71 55.5 284t55.5 275q0 59 -43 59q-54 0 -119 -145q-137 -303 -192 -680h-359q7 83 74 375.5t67 372.5q0 44 -7.5 60.5t-30.5 16.5q-51 0 -113 -147 q-142 -335 -191 -678z" />
<glyph unicode="n" horiz-adv-x="1232" d="M401 0h-362q73 434 96 602t23 289h-119l2 31h487q0 -140 -63 -469h8q53 153 94 243q53 116 123.5 178t183.5 62q114 0 176 -62.5t62 -175.5q0 -86 -55.5 -281.5t-55.5 -269.5q0 -69 35 -69q36 0 71 64.5t50 160.5l31 -4q-10 -56 -23 -99t-35.5 -83.5t-52.5 -67t-75 -42 t-103 -15.5q-116 0 -185 56.5t-69 156.5q0 74 56.5 286.5t56.5 274.5q0 33 -9.5 46t-31.5 13q-25 0 -52 -28.5t-69 -114.5q-56 -114 -112.5 -302.5t-82.5 -379.5z" />
<glyph unicode="o" horiz-adv-x="1128" d="M29 381q0 45 6 92q30 218 170 340.5t383 122.5q238 0 359.5 -104.5t121.5 -288.5q0 -265 -152.5 -411t-402.5 -146q-237 0 -361 104.5t-124 290.5zM483 12q59 0 94 40t60 132.5t53 278.5q23 165 23 272q0 94 -23 134t-76 40q-83 0 -125 -93.5t-81 -356.5 q-27 -197 -27 -275q0 -97 24 -134.5t78 -37.5z" />
<glyph unicode="p" horiz-adv-x="1193" d="M-137 -467l2 31h121q25 245 99.5 721.5t74.5 605.5h-121l2 31h487q0 -31 -16 -113t-20 -111h8q42 112 116.5 175t196.5 63q69 0 126 -21.5t102 -64.5t70.5 -116t25.5 -169q0 -110 -33 -213.5t-92.5 -185t-152.5 -131t-204 -49.5q-101 0 -159 43.5t-82 109.5 q-10 -77 -32 -216.5t-33.5 -228t-8.5 -130.5h121l-2 -31h-596zM545 55q91 0 168.5 165t77.5 433q0 111 -20 162t-71 51q-63 0 -117.5 -76.5t-86.5 -183t-50 -205t-18 -157.5q0 -81 35 -135t82 -54z" />
<glyph unicode="q" horiz-adv-x="1171" d="M922 -436h120l-2 -31h-469q20 226 50 429.5t53 273.5h-8q-69 -120 -147 -185t-187 -65q-130 0 -219.5 91.5t-89.5 266.5q0 149 64 283.5t185.5 221.5t272.5 87q57 0 106.5 -13.5t82.5 -33t61.5 -47t44 -50.5t28.5 -49q135 69 232 193h30l-77 -428q-58 -326 -90.5 -580 t-40.5 -364zM457 61q68 0 172 172q53 87 87 206t34 239q0 117 -32 165t-79 48q-56 0 -105 -62t-79.5 -158t-48 -205.5t-17.5 -209.5q0 -195 68 -195z" />
<glyph unicode="r" horiz-adv-x="993" d="M395 0h-362q82 514 103.5 665.5t21.5 225.5h-119l2 31h481q0 -59 -9 -121.5t-48 -282.5h8q17 59 29 96t31 86t36.5 79.5t44 63.5t56.5 51t70 30t87 12q88 0 139.5 -45t51.5 -129q0 -114 -89 -182t-231 -43l4 16q43 -2 67 52.5t24 154.5q0 59 -15 85.5t-49 26.5 q-117 0 -205 -282q-34 -105 -82 -330q-44 -203 -47 -260z" />
<glyph unicode="s" horiz-adv-x="942" d="M201 299l-4 -16q-41 -13 -41 -93q0 -174 247 -174q121 0 196 37t75 99q0 50 -51.5 74.5t-157.5 48.5t-170 53q-46 21 -77.5 42t-60 54t-43 81t-14.5 111q0 70 23 126t72.5 100.5t135.5 69t204 24.5q64 0 126.5 -7.5t122.5 -23.5t97 -47.5t37 -73.5q0 -57 -65 -86 t-169 -18l4 16q20 1 31.5 28.5t11.5 61.5q0 66 -48.5 92.5t-150.5 26.5q-125 0 -196.5 -31.5t-71.5 -91.5q0 -51 51.5 -76t158.5 -49t171 -53q93 -41 144 -105t51 -182q0 -156 -109.5 -243.5t-327.5 -87.5q-110 0 -203.5 21t-153.5 65t-60 102q0 48 38.5 80t87 42t89.5 3z " />
<glyph unicode="t" horiz-adv-x="714" d="M41 891l6 31q107 -2 186 20.5t137.5 74.5t99 116t83.5 163h31q-62 -229 -74 -374h233l-6 -31h-231q-15 -105 -34 -234t-30.5 -205t-22 -152.5t-15.5 -119.5t-5 -63q0 -78 60 -78t114 72t74 186l31 -4q-13 -67 -33 -118t-55.5 -96t-92.5 -69t-135 -24q-62 0 -112 15.5 t-92 50t-65 96t-23 145.5q0 81 90 598h-119z" />
<glyph unicode="u" horiz-adv-x="1236" d="M41 891l2 31h483q1 -107 -58.5 -407t-59.5 -357q0 -34 9 -48t29 -14q91 0 224 383q80 225 102 443h361q-79 -414 -99 -540.5t-20 -227.5q0 -45 9 -60.5t30 -15.5q32 0 67.5 66.5t48.5 160.5l31 -6q-12 -70 -29.5 -119.5t-49.5 -95t-85.5 -69t-128.5 -23.5 q-110 0 -179 53.5t-69 151.5q0 35 7 75t20.5 97.5t20.5 99.5h-9q-9 -23 -28.5 -76t-31 -83t-34 -78.5t-42 -78t-50 -65t-62.5 -55.5t-75.5 -33.5t-93.5 -13.5q-107 0 -164.5 64t-57.5 175q0 86 53 339.5t50 326.5h-121z" />
<glyph unicode="v" horiz-adv-x="997" d="M31 623l-31 6q11 57 22 97t33 82.5t51.5 68.5t76.5 42.5t108 16.5q33 0 64 -4.5t67.5 -18t62.5 -36.5t44 -63.5t18 -94.5q0 -56 -31 -234t-31 -249q0 -156 80 -156q51 0 119 65.5t135 194.5q96 184 96 289q0 55 -31.5 88t-90.5 33q-99 0 -119 -99l-17 4q0 65 7 113 t23.5 87.5t48.5 60t79 20.5q45 0 77 -18t48.5 -49t23.5 -63.5t7 -68.5q0 -82 -36 -196.5t-89 -216.5q-174 -338 -455 -338q-117 0 -190.5 57.5t-73.5 175.5q0 57 31.5 262.5t31.5 290.5q0 48 -7.5 65t-26.5 17q-43 0 -77.5 -70t-47.5 -161z" />
<glyph unicode="w" horiz-adv-x="1622" d="M31 623l-31 6q10 55 21 95t33 82.5t51 69t75.5 43.5t106.5 17q43 0 83.5 -8.5t83 -29.5t68 -65t25.5 -106q0 -70 -31 -260t-31 -289q0 -98 52 -98q35 0 73 41.5t61.5 86.5t45.5 99q39 96 80 256q36 234 69 359h346q-104 -416 -104 -684q0 -86 19.5 -122t58.5 -36 q53 0 122 65.5t136 194.5q96 184 96 289q0 55 -32 88t-91 33q-99 0 -119 -99l-16 4q0 65 7 113t23.5 87.5t48.5 60t79 20.5q36 0 64 -12.5t45 -32t27.5 -46.5t14.5 -53t4 -55q0 -82 -36 -196.5t-89 -216.5q-174 -338 -454 -338q-114 0 -184 53t-70 151q0 38 6 85t12 75l6 27 h-8q-28 -86 -60 -150.5t-78.5 -122t-112 -88t-146.5 -30.5q-112 0 -181 56t-69 165q0 74 32 278t32 283q0 51 -9 68.5t-32 17.5q-41 0 -75.5 -70t-47.5 -161z" />
<glyph unicode="x" horiz-adv-x="1175" d="M238 342l-5 -16q-40 -4 -68 -55t-28 -113q0 -54 17 -84.5t43 -30.5q97 0 225 299q-33 260 -74 367.5t-102 107.5q-54 0 -91.5 -56t-52.5 -138l-30 6q76 307 348 307q51 0 91.5 -9.5t69 -30.5t49 -45t36 -61.5t25 -70.5t20.5 -82q72 143 106 190q41 58 90.5 83.5 t116.5 25.5q78 0 129 -44t51 -118q0 -35 -15 -67t-47.5 -60.5t-92.5 -45t-140 -15.5l4 16q40 4 66.5 54.5t26.5 111.5q0 55 -17 88t-43 33q-94 0 -225 -301q48 -284 82 -384t96 -100q56 0 101 63.5t57 137.5l30 -6q-8 -54 -37 -107t-76 -98.5t-119 -73.5t-157 -28 q-54 0 -97.5 17.5t-71 44t-48.5 67t-32 78.5t-19 86q-62 -133 -104 -185q-83 -108 -207 -108q-77 0 -128.5 44t-51.5 116q0 36 16 69t50 61.5t94 44.5t139 15z" />
<glyph unicode="y" horiz-adv-x="1013" d="M133 -193l-4 -16q-43 1 -64.5 -33.5t-21.5 -85.5q0 -66 19.5 -97.5t68.5 -31.5q91 0 141 87t50 251q0 52 -3 105t-12.5 116.5t-15.5 102t-22.5 114.5t-21.5 99t-25.5 109.5t-22.5 95.5q-31 133 -45.5 172t-40.5 39q-53 0 -82 -211l-31 6q2 10 5 29q6 34 9 50.5t9.5 46 t13 44.5t17 37.5t23 34.5t30.5 26.5t39.5 21.5t49.5 12t62 5q127 0 187 -65t94 -199q35 -135 66.5 -312.5t31.5 -261.5q98 94 176 217q34 55 53.5 91t37.5 89t18 99q0 73 -39 113.5t-107 40.5q-108 0 -121 -97l-16 4q-18 136 27.5 208.5t134.5 72.5q43 0 76 -16.5t52.5 -41 t31.5 -58.5t16 -64.5t4 -63.5q0 -181 -143 -397q-84 -127 -203 -246q-19 -234 -159 -382t-355 -148q-116 0 -188 44.5t-72 117.5q0 151 272 126z" />
<glyph unicode="z" horiz-adv-x="950" d="M-55 -12l-29 14q52 79 142.5 167.5t151.5 137t186 143.5q20 15 30 23q42 34 180 139q-51 4 -180 30t-197 26q-31 0 -46 -1.5t-31 -9.5t-20 -24t-3 -44t10 -71l-35 -6q-13 72 -16 131t8 115t38 94t78 61t124 23q85 0 275.5 -28.5t277.5 -30.5q37 46 55 79l31 -12 q-29 -46 -71 -94t-85 -89.5t-110.5 -98.5t-123 -101t-147.5 -115l-157 -120q56 -5 190 -42.5t209 -37.5q92 0 134.5 33.5t62.5 130.5l30 -7q-18 -65 -32 -108.5t-32.5 -91.5t-36 -78t-41.5 -59t-52 -45t-63.5 -25.5t-78.5 -9.5q-105 0 -307 34t-270 37z" />
<glyph unicode="{" horiz-adv-x="684" d="M516 -332l31 -6q-32 -139 -219 -139q-126 0 -198.5 64.5t-72.5 189.5q0 55 16 122t34.5 123t34.5 138.5t16 163.5q0 180 -78 180h-80l2 31h80q71 0 110 84t39 219q0 48 -7 119t-7 108q0 183 98.5 296.5t251.5 113.5q88 0 135.5 -39.5t47.5 -108.5h-31q0 44 -24 71t-68 27 q-61 0 -97 -45t-36 -131q0 -61 29.5 -174.5t29.5 -181.5q0 -72 -25 -136.5t-72.5 -116t-124.5 -84t-175 -38.5q81 -4 141 -28t95.5 -65t52 -92t16.5 -114q0 -62 -15 -120.5t-37 -104.5t-44 -91t-37 -98t-15 -108q0 -62 21 -93.5t69 -31.5q89 0 113 96z" />
<glyph unicode="|" horiz-adv-x="387" d="M170 -467v1937h29v-1937h-29z" />
<glyph unicode="}" horiz-adv-x="686" d="M-82 -330h31q4 -98 94 -98q59 0 95 43.5t36 132.5q0 62 -29.5 179t-29.5 188q0 78 24.5 147t72 125t124.5 91.5t174 41.5q-155 7 -229 86t-74 205q0 71 23 139.5t50.5 115t50.5 110t23 124.5q0 125 -90 125q-89 0 -112 -96l-31 6q33 140 217 140q126 0 199 -66t73 -190 q0 -65 -25 -152t-50 -184.5t-25 -188.5q0 -159 78 -159h82l-2 -31h-82q-70 0 -110 -92t-40 -238q0 -52 7.5 -131t7.5 -117q0 -188 -98 -295.5t-249 -107.5q-91 0 -138.5 39t-47.5 108z" />
<glyph unicode="~" horiz-adv-x="1142" d="M106 422l-20 22q133 115 270 115q86 0 199 -67q2 -1 19 -10.5t20.5 -11.5t19 -10.5t21 -10.5t19.5 -8.5t21 -8.5t20 -6t22.5 -5.5t21.5 -3t23 -1.5q66 0 131.5 30t116.5 74l20 -22q-130 -113 -274 -113q-36 0 -75 11.5t-62.5 23.5t-63.5 35q-40 24 -65.5 36.5t-64.5 24.5 t-75 12q-122 0 -244 -106z" />
<glyph unicode="&#xa1;" horiz-adv-x="536" d="M475 752q0 -75 -53.5 -127t-128.5 -52q-76 0 -127 52t-51 127q0 76 51 129t127 53q75 0 128.5 -53.5t53.5 -128.5zM244 473h30q-6 -41 -6 -74q0 -117 23.5 -236.5t47 -218.5t23.5 -165q0 -118 -59 -179t-162 -61q-85 0 -142.5 49t-57.5 133q0 60 25.5 123t64 125.5 t80 131t79 166.5t54.5 206z" />
<glyph unicode="&#xa2;" d="M500 -172l22 158q-79 0 -147 15t-126.5 48t-99.5 83.5t-64.5 124.5t-23.5 167q0 51 9 106q33 220 189.5 332t399.5 115l23 160h31l-23 -160q133 -4 215 -61t82 -134q0 -186 -211 -186q-20 0 -38.5 3t-27.5 6l-8 3l3 17q8 -2 24 -2q34 0 57 56.5t23 119.5 q0 70 -33.5 106.5t-89.5 42.5l-127 -917q8 -2 25 -2q46 0 89.5 13t84 40.5t70 77t42.5 114.5l31 -4q-11 -57 -34.5 -103.5t-64 -86.5t-104 -64t-145.5 -28l-23 -160h-30zM528 37l127 913q-77 -2 -125.5 -103.5t-80.5 -336.5q-21 -159 -21 -262q0 -173 100 -211z" />
<glyph unicode="&#xa3;" horiz-adv-x="1280" d="M172 530l4 31h211l70 258q88 326 471 326q293 0 293 -184q0 -83 -55.5 -131t-143.5 -48q-51 0 -78 17l2 16q44 -19 78.5 37.5t34.5 132.5q0 72 -20 102.5t-60 30.5q-39 0 -62 -21t-45 -79t-53 -184l-69 -273h243l-4 -31h-248l-34 -141q-14 -57 -43.5 -110t-61.5 -87.5 t-62 -61t-50 -38.5l-19 -12q135 -62 244 -62q118 0 174.5 64t56.5 164q0 116 -72 116l-18 -2l2 17q42 10 103 10q35 0 61.5 -5t54.5 -19t43 -45t15 -78q0 -124 -103 -189t-272 -65q-151 0 -320 71q-41 -31 -125 -51t-168 -20q-155 0 -155 88q0 52 46.5 77t121.5 25 q57 0 119 -16q19 54 100 370h-207zM270 129q-57 16 -116 16q-129 0 -129 -69q0 -30 27 -45t67 -15q103 0 151 113z" />
<glyph unicode="&#xa5;" horiz-adv-x="1308" d="M285 0l4 31h117l30 217h-293l4 31h293l21 147h-293l4 31h293l12 80l-231 563h-109l4 30h574l-4 -30h-109l219 -531l275 416q31 47 21.5 81t-56.5 34h-80l4 30h336l-4 -30h-35q-46 0 -75.5 -23t-78.5 -98l-286 -434l-13 -88h281l-4 -31h-281l-20 -147h280l-4 -31h-280 l-31 -217h115l-4 -31h-596z" />
<glyph unicode="&#xa6;" horiz-adv-x="399" d="M166 535v874h31v-874h-31zM166 -553v875h31v-875h-31z" />
<glyph unicode="&#xa7;" horiz-adv-x="1075" d="M268 -102l-4 -17q-52 0 -77 -50.5t-25 -117.5q0 -85 64 -123.5t169 -38.5q177 0 288.5 101t111.5 285q0 100 -36 283t-72 375t-36 312q0 102 43 223l29 -2q-43 -133 -43 -229q0 -111 36 -298t72.5 -372.5t36.5 -291.5q0 -196 -116.5 -306t-337.5 -110q-116 0 -211.5 23.5 t-156 72t-60.5 113.5q0 40 17 72.5t53 58t101 36t154 1.5zM811 991l4 17q31 0 49.5 52t18.5 107q0 170 -156 170q-129 0 -184.5 -103.5t-55.5 -297.5q0 -138 24.5 -289t53.5 -258t53.5 -225.5t24.5 -200.5q0 -244 -201 -244q-40 0 -112 11q2 7 6.5 24t6.5 27t5 26.5 t4.5 34.5t1.5 39q0 84 -24 217.5t-53.5 253.5t-53.5 260.5t-24 235.5q0 240 129.5 380t390.5 140q189 0 286 -57t97 -152q0 -86 -68.5 -135.5t-222.5 -32.5z" />
<glyph unicode="&#xa8;" d="M637 1231q0 69 48.5 116.5t119.5 47.5q68 0 115 -47.5t47 -116.5q0 -70 -47 -118t-115 -48q-71 0 -119.5 48t-48.5 118zM283 1065q-69 0 -117.5 48t-48.5 118q0 69 48.5 116.5t117.5 47.5t116 -47.5t47 -116.5q0 -70 -47 -118t-116 -48z" />
<glyph unicode="&#xa9;" horiz-adv-x="1789" d="M76 584q0 167 65 319t175 262t262 175t319 65t319 -65t262 -175t175 -262t65 -319t-65 -319t-175 -262.5t-262 -175.5t-319 -65t-319 65t-262 175.5t-175 262.5t-65 319zM897 -209q161 0 307.5 63t252 169.5t168.5 253t63 307.5q0 214 -106 396.5t-288.5 289 t-396.5 106.5t-396.5 -106.5t-288.5 -289t-106 -396.5q0 -161 63 -307.5t168.5 -253t252 -169.5t307.5 -63zM1280 408h31q-6 -139 -112.5 -218t-252.5 -79q-119 0 -207 24t-154.5 78t-100 146.5t-33.5 224.5q0 243 123.5 360t379.5 117q174 0 274.5 -51.5t100.5 -151.5 q0 -180 -209 -180q-43 0 -80 14v17q45 -7 62.5 34t17.5 127q0 85 -43.5 124.5t-118.5 39.5q-77 0 -104 -94.5t-27 -325.5q0 -276 29.5 -371.5t126.5 -95.5q114 0 203.5 73.5t93.5 187.5z" />
<glyph unicode="&#xaa;" horiz-adv-x="942" d="M592 907h-4q-52 -114 -114 -162.5t-142 -48.5q-100 0 -158.5 65.5t-58.5 182.5q0 84 31.5 164t85 140.5t131 97t163.5 36.5q142 0 205 -100q39 18 76 45.5t55 54.5h31q-34 -148 -64 -331.5t-30 -243.5q0 -35 24 -35q52 0 101 158l28 -6q-37 -123 -84.5 -172.5 t-134.5 -49.5q-75 0 -113 35t-38 97q0 37 10 73zM408 756q53 0 107.5 83t87 194t32.5 198q0 119 -70 119q-53 0 -99.5 -69t-73.5 -180.5t-27 -234.5q0 -59 9 -84.5t34 -25.5z" />
<glyph unicode="&#xab;" horiz-adv-x="985" d="M414 39l-21 -23q-165 126 -252.5 236.5t-87.5 212.5q0 205 434 450l15 -28q-2 -2 -24 -16.5t-37 -26.5t-34.5 -37.5t-29.5 -54.5q-43 -252 -43 -488q0 -68 8.5 -105.5t21 -57t50.5 -62.5zM848 39l-21 -23q-165 126 -252.5 236.5t-87.5 212.5q0 206 435 450l14 -28 q-3 -2 -19 -12t-28 -19.5t-28 -24.5t-29 -35t-21 -44q-18 -91 -30.5 -228.5t-12.5 -259.5q0 -68 8.5 -105.5t21 -57t50.5 -62.5z" />
<glyph unicode="&#xac;" horiz-adv-x="1105" d="M61 897v31h967v-572h-31v541h-936z" />
<glyph unicode="&#xad;" horiz-adv-x="714" d="M70 383l39 235h516l-39 -235h-516z" />
<glyph unicode="&#xae;" horiz-adv-x="952" d="M311 834v30h66v387h-66v29h260q168 0 168 -117q0 -94 -139 -110v-6q52 -6 81 -27t36 -47t9 -51.5t9.5 -42.5t28.5 -17h27v-22q-19 -9 -70 -9q-44 0 -71.5 15.5t-37 38.5t-15 49.5t-7.5 49.5t-13.5 38.5t-33.5 15.5h-33v-174h74v-30h-273zM510 1069h25q30 0 49.5 25.5 t19.5 64.5q0 42 -23 66t-57 24h-14v-180zM137 1055q0 167 119.5 286t286.5 119t286 -119t119 -286t-119 -286.5t-286 -119.5t-286.5 119.5t-119.5 286.5zM543 678q155 0 265 111t110 266t-110 266t-265 111t-265 -111t-110 -266t110 -266t265 -111z" />
<glyph unicode="&#xaf;" d="M207 1159l33 221h645l-33 -221h-645z" />
<glyph unicode="&#xb0;" horiz-adv-x="681" d="M135 1178q0 120 85 204t204 84t204 -84t85 -204t-85 -204.5t-204 -84.5t-204 84.5t-85 204.5zM166 1178q0 -106 76 -182t182 -76t182 76t76 182t-76 182t-182 76t-182 -76t-76 -182z" />
<glyph unicode="&#xb1;" horiz-adv-x="1105" d="M516 236v452h-448v31h448v424h31v-424h438v-31h-438v-452h-31zM68 0v31h917v-31h-917z" />
<glyph unicode="&#xb2;" horiz-adv-x="831" d="M102 772l4 35q269 150 377 320q58 92 58 180q0 147 -162 147q-148 0 -148 -123q0 -19 7 -51l-31 -6q-10 42 -10 72q0 123 98 199.5t250 76.5q131 0 212 -59t81 -162q0 -50 -21.5 -96t-53 -80t-82 -72t-94 -64.5t-105 -64t-99.5 -63.5h397l23 102h31l-60 -291h-672z" />
<glyph unicode="&#xb3;" horiz-adv-x="776" d="M330 1061l-2 -17q-29 0 -48.5 -23t-26.5 -52t-7 -60q0 -55 25 -89t77 -34q72 0 108 65.5t36 154.5q0 80 -41 120.5t-142 49.5l4 28q112 11 162.5 43t50.5 96q0 53 -37.5 85t-117.5 32q-65 0 -100 -21.5t-35 -58.5q0 -16 10 -43l-29 -4q-12 30 -12 72q0 106 81.5 161.5 t217.5 55.5q82 0 148.5 -19t110.5 -63t44 -108q0 -22 -5.5 -41.5t-18.5 -35t-25.5 -28t-35 -23.5t-38.5 -18t-44.5 -15.5t-44 -12.5t-45.5 -12q-13 -3 -20 -5q107 -16 180.5 -75.5t73.5 -153.5q0 -80 -56 -139.5t-142 -88t-185 -28.5q-135 0 -216 51.5t-81 124.5 q0 64 58.5 106t167.5 23z" />
<glyph unicode="&#xb4;" d="M455 1063l-25 22q57 67 94.5 144t53 133t33.5 104.5t50 73.5t89 25t98 -43.5t41 -100.5q0 -43 -17 -72.5t-45.5 -45.5t-72 -36t-88.5 -40.5t-102.5 -63t-108.5 -100.5z" />
<glyph unicode="&#xb5;" horiz-adv-x="1357" d="M156 -481h-138q42 366 96.5 686t82.5 472t26 214h-121l2 31h484q1 -107 -59 -407t-60 -357q0 -33 9 -47.5t30 -14.5q92 0 218 368q4 11 5 15q82 228 103 443h360q-78 -408 -98.5 -537t-20.5 -217q0 -90 39 -90q33 0 68.5 66t48.5 161l31 -6q-10 -55 -22 -96.5t-34.5 -83 t-53 -68t-77.5 -43t-108 -16.5q-110 0 -178 53.5t-68 151.5q0 35 7 74.5t20 98t20 99.5h-8q-9 -22 -28.5 -75.5t-31 -83t-34 -79t-42 -78.5t-50.5 -65t-63 -55t-75.5 -33t-93.5 -14q-36 0 -94 16q-2 -18 -2 -57q0 -49 33.5 -135.5t33.5 -106.5q0 -101 -45 -142.5t-112 -41.5 z" />
<glyph unicode="&#xb6;" horiz-adv-x="1363" d="M575 -184l76 553h-139q-60 0 -118.5 18t-111 55.5t-93 89t-64 123.5t-23.5 154q0 112 43 213.5t114 174t166 115t196 42.5h802l-4 -31h-604l-209 -1507h-31zM461 -100l-4 -17q-64 5 -92.5 -46t-28.5 -124q0 -56 13 -91.5t40 -51.5t52.5 -20.5t64.5 -4.5q106 0 159 84.5 t87 280.5l174 1253h280l-153 -1112q-77 -532 -561 -532q-165 0 -270 57t-105 148t90.5 143t253.5 33z" />
<glyph unicode="&#xb7;" horiz-adv-x="514" d="M61 463q0 75 54 127.5t129 52.5t126.5 -52.5t51.5 -127.5t-51.5 -128.5t-126.5 -53.5t-129 53.5t-54 128.5z" />
<glyph unicode="&#xb8;" d="M301 -326l29 -4q-4 -10 -4 -26q0 -41 29 -62.5t67 -21.5q45 0 76.5 29t31.5 81q0 90 -127 105l95 235h32l-36 -98q86 -8 151.5 -60t65.5 -139q0 -88 -67 -140t-177 -52q-79 0 -125.5 32.5t-46.5 88.5q0 10 1.5 18t3.5 11z" />
<glyph unicode="&#xb9;" horiz-adv-x="708" d="M88 772l4 31h148l108 772h-145l4 31h469l-113 -803h142l-5 -31h-612z" />
<glyph unicode="&#xba;" horiz-adv-x="872" d="M119 981q0 190 107.5 295.5t297.5 105.5q188 0 274.5 -70.5t86.5 -205.5q0 -192 -109 -301t-289 -109q-64 0 -124 14t-117.5 44.5t-92 89t-34.5 137.5zM457 723q69 0 109 79t63 240q10 92 10 146q0 168 -94 168q-67 0 -107.5 -79.5t-64.5 -240.5q-13 -89 -13 -143 q0 -170 97 -170z" />
<glyph unicode="&#xbb;" horiz-adv-x="989" d="M471 16l-16 29q1 0 15.5 9t22.5 14.5t23.5 18.5t25.5 24.5t21 30t17 38.5q43 219 43 488q0 95 -14 130.5t-66 94.5l20 22q165 -126 253.5 -236.5t88.5 -211.5q0 -103 -110.5 -217.5t-323.5 -233.5zM37 16l-14 29q1 1 18 11.5t28 19.5t27.5 24.5t29.5 35.5t21 44 q43 252 43 488q0 67 -8 104.5t-21 58t-50 62.5l20 22q165 -126 252.5 -236.5t87.5 -211.5q0 -103 -110.5 -218t-323.5 -233z" />
<glyph unicode="&#xbc;" horiz-adv-x="1880" d="M362 0l1061 1354l27 -19l-1063 -1353zM899 242l4 30l596 600h209l-84 -600h162l-4 -30h-162l-33 -242h-325l32 242h-395zM948 272h350l58 410zM68 520l4 31h147l109 772h-146l4 31h469l-112 -803h141l-4 -31h-612z" />
<glyph unicode="&#xbd;" horiz-adv-x="1806" d="M362 0l1061 1354l27 -19l-1063 -1353zM55 520l4 31h148l108 772h-145l4 31h469l-113 -803h142l-4 -31h-613zM977 0l4 35q262 146 372 313q62 95 62 187q0 147 -162 147q-147 0 -147 -123q0 -24 6 -51l-31 -6q-10 42 -10 71q0 123 98 200t250 77q131 0 212 -59t81 -162 q0 -50 -21.5 -96t-53 -80.5t-82 -72.5t-94 -64t-105 -64t-99.5 -64h398l22 103h31l-59 -291h-672z" />
<glyph unicode="&#xbe;" horiz-adv-x="1873" d="M356 0l1061 1354l27 -19l-1063 -1353zM893 242l4 30l596 600h209l-84 -600h162l-4 -30h-162l-33 -242h-326l33 242h-395zM942 272h350l58 410zM311 821l-2 -16q-29 0 -48.5 -23t-26.5 -52t-7 -60q0 -55 25 -89t78 -34q72 0 107.5 65t35.5 154q0 80 -40.5 120.5 t-141.5 49.5l4 29q112 11 162.5 43t50.5 96q0 53 -38 85t-118 32q-65 0 -100 -21.5t-35 -58.5q0 -16 10 -43l-28 -4q-13 32 -13 71q0 106 81.5 161.5t217.5 55.5q82 0 148.5 -19t110.5 -63t44 -108q0 -35 -17.5 -64t-36 -45.5t-63.5 -34t-65 -23t-75 -19.5q-13 -3 -19 -5 q107 -16 180.5 -75.5t73.5 -153.5q0 -80 -56 -139.5t-142 -88t-185 -28.5q-135 0 -216 51.5t-81 124.5q0 64 58 106t167 23z" />
<glyph unicode="&#xbf;" horiz-adv-x="1093" d="M401 319l-30 5q13 73 54 110t103 37q65 0 108.5 -37.5t43.5 -105.5q0 -43 -20 -79.5t-51.5 -64t-70 -55t-77.5 -61t-70.5 -73t-51.5 -99.5t-20 -134q0 -100 39 -148t125 -48q114 0 175 75.5t61 196.5q0 127 -76 127q-33 0 -58.5 -23.5t-31.5 -62.5l-31 4q20 129 197 129 q106 0 162.5 -49t56.5 -139q0 -140 -129.5 -212.5t-357.5 -72.5q-230 0 -366 75.5t-136 221.5q0 74 38.5 129.5t99.5 88.5t135 57.5t148 44t135 41.5t99.5 56.5t38.5 82.5q0 49 -34 76.5t-83 27.5q-98 0 -125 -121zM784 754q0 -75 -53.5 -127t-130.5 -52q-76 0 -127 51 t-51 126q0 77 51.5 130.5t126.5 53.5t129.5 -53.5t54.5 -128.5z" />
<glyph unicode="&#xc0;" horiz-adv-x="1312" d="M-117 0l4 31h41q47 0 83 27.5t69 93.5l618 1206h125l342 -1327h99l-4 -31h-633l4 31h147l-98 393h-426l-137 -268q-28 -56 -3 -90.5t95 -34.5h63l-4 -31h-385zM270 455h402l-133 520zM975 1487l-19 -27q-59 42 -132 71.5t-127 44t-102 32t-73.5 48.5t-25.5 81 q0 48 38 85.5t89 37.5q42 0 74.5 -24t59 -65.5t52.5 -88t69.5 -101t96.5 -94.5z" />
<glyph unicode="&#xc1;" horiz-adv-x="1312" d="M-117 0l4 31h41q47 0 83 27.5t69 93.5l618 1206h125l342 -1327h99l-4 -31h-633l4 31h147l-98 393h-426l-137 -268q-28 -56 -3 -90.5t95 -34.5h63l-4 -31h-385zM270 455h402l-133 520zM625 1464l-19 27q64 43 117 99t85 101.5t61.5 86t62.5 63.5t74 23q46 0 84 -38t38 -87 q0 -52 -27 -82.5t-78.5 -46.5t-110.5 -29t-139.5 -42.5t-147.5 -74.5z" />
<glyph unicode="&#xc2;" horiz-adv-x="1312" d="M-117 0l4 31h41q47 0 83 27.5t69 93.5l618 1206h125l342 -1327h99l-4 -31h-633l4 31h147l-98 393h-426l-137 -268q-28 -56 -3 -90.5t95 -34.5h63l-4 -31h-385zM270 455h402l-133 520zM446 1450l324 373h119l219 -373h-258l-133 262l-230 -262h-41z" />
<glyph unicode="&#xc3;" horiz-adv-x="1312" d="M-117 0l4 31h41q47 0 83 27.5t69 93.5l618 1206h125l342 -1327h99l-4 -31h-633l4 31h147l-98 393h-426l-137 -268q-28 -56 -3 -90.5t95 -34.5h63l-4 -31h-385zM270 455h402l-133 520zM424 1501h-33q25 150 100.5 232t188.5 82q53 0 104 -19t84.5 -41.5t79 -41.5t88.5 -19 q59 0 103.5 29t58.5 92h33q-27 -149 -104 -231.5t-177 -82.5q-48 0 -98.5 19t-87 41.5t-86.5 41.5t-96 19q-56 0 -100 -28.5t-58 -92.5z" />
<glyph unicode="&#xc4;" horiz-adv-x="1312" d="M-117 0l4 31h41q47 0 83 27.5t69 93.5l618 1206h125l342 -1327h99l-4 -31h-633l4 31h147l-98 393h-426l-137 -268q-28 -56 -3 -90.5t95 -34.5h63l-4 -31h-385zM270 455h402l-133 520zM918 1673q0 68 48.5 115t118.5 47q67 0 114.5 -47.5t47.5 -114.5q0 -70 -47 -118 t-115 -48q-71 0 -119 48t-48 118zM528 1507q-69 0 -116 48t-47 118q0 68 47 115t116 47t116.5 -47t47.5 -115q0 -70 -47.5 -118t-116.5 -48z" />
<glyph unicode="&#xc5;" horiz-adv-x="1312" d="M-117 0l4 31h41q47 0 83 27.5t69 93.5l618 1206h125l342 -1327h99l-4 -31h-633l4 31h147l-98 393h-426l-137 -268q-28 -56 -3 -90.5t95 -34.5h63l-4 -31h-385zM270 455h402l-133 520zM793 1479q-77 0 -117.5 50t-40.5 116q0 64 39 109.5t117 45.5t118.5 -46t40.5 -109 q0 -66 -40.5 -116t-116.5 -50zM793 1509q59 0 90.5 40t31.5 91q0 52 -30 90.5t-94 38.5q-63 0 -92 -37t-29 -87q0 -55 31.5 -95.5t91.5 -40.5z" />
<glyph unicode="&#xc6;" horiz-adv-x="1851" d="M-129 0l4 31h39q44 0 73.5 25.5t73.5 93.5l764 1173h-141l4 31h1215q-70 -162 -117 -383h-29l21 151q6 51 -6.5 95t-54 75t-107.5 31h-322l-90 -639h291l24 180h33l-57 -409h-33l29 198h-291l-88 -622h350q186 0 287 375h29q-53 -187 -84 -406h-1106l4 31h141l68 485 h-459l-238 -366q-35 -57 -12 -88t94 -31h60l-4 -31h-365zM356 547h443l110 776h-47z" />
<glyph unicode="&#xc7;" horiz-adv-x="1230" d="M434 -326l29 -4q-4 -10 -4 -26q0 -41 29 -62.5t67 -21.5q45 0 77 29t32 81q0 90 -127 105l84 213q-251 19 -399 184t-148 414q0 165 53 308.5t149 248.5t240 165t318 60q183 0 274 -88q48 -14 102.5 7.5t67.5 66.5h27q-78 -225 -86 -305l-17 -117h-31q13 88 13 106 q0 128 -86.5 212.5t-225.5 84.5q-56 0 -102.5 -17t-82 -46t-65.5 -76.5t-51.5 -98.5t-40 -122t-31.5 -138.5t-26 -154.5q-24 -171 -24 -295q0 -187 57 -279t192 -92q85 0 160.5 32.5t128.5 86t87.5 119.5t45.5 135l31 -4q-7 -47 -26.5 -97.5t-58 -105.5t-89.5 -97.5 t-128 -70.5t-167 -28h-29l-26 -74q86 -8 151.5 -60t65.5 -139q0 -88 -67 -140t-177 -52q-79 0 -125.5 32.5t-46.5 88.5q0 10 1.5 18t2.5 11z" />
<glyph unicode="&#xc8;" horiz-adv-x="1247" d="M-41 0l4 31h158l182 1292h-162l4 31h1151q-67 -162 -114 -383h-31l20 151q6 52 -6 95.5t-53 74.5t-108 31h-320l-90 -639h289l24 180h33l-57 -409h-33l29 198h-289l-88 -622h348q186 0 287 375h30q-55 -187 -86 -406h-1122zM971 1487l-19 -27q-59 42 -132 71.5t-127 44 t-102 32t-73.5 48.5t-25.5 81q0 48 38 85.5t88 37.5q42 0 74.5 -24t59 -65.5t53 -88t70 -101t96.5 -94.5z" />
<glyph unicode="&#xc9;" horiz-adv-x="1247" d="M-41 0l4 31h158l182 1292h-162l4 31h1151q-67 -162 -114 -383h-31l20 151q6 52 -6 95.5t-53 74.5t-108 31h-320l-90 -639h289l24 180h33l-57 -409h-33l29 198h-289l-88 -622h348q186 0 287 375h30q-55 -187 -86 -406h-1122zM621 1464l-19 27q64 43 117 99t84.5 101.5 t61.5 86t62.5 63.5t73.5 23q46 0 84.5 -38t38.5 -87q0 -52 -27 -82.5t-78.5 -46.5t-110.5 -29t-139.5 -42.5t-147.5 -74.5z" />
<glyph unicode="&#xca;" horiz-adv-x="1247" d="M-41 0l4 31h158l182 1292h-162l4 31h1151q-67 -162 -114 -383h-31l20 151q6 52 -6 95.5t-53 74.5t-108 31h-320l-90 -639h289l24 180h33l-57 -409h-33l29 198h-289l-88 -622h348q186 0 287 375h30q-55 -187 -86 -406h-1122zM442 1450l324 373h119l219 -373h-258l-133 262 l-230 -262h-41z" />
<glyph unicode="&#xcb;" horiz-adv-x="1247" d="M-41 0l4 31h158l182 1292h-162l4 31h1151q-67 -162 -114 -383h-31l20 151q6 52 -6 95.5t-53 74.5t-108 31h-320l-90 -639h289l24 180h33l-57 -409h-33l29 198h-289l-88 -622h348q186 0 287 375h30q-55 -187 -86 -406h-1122zM913 1673q0 68 49 115t119 47 q67 0 114.5 -47.5t47.5 -114.5q0 -70 -47 -118t-115 -48q-71 0 -119.5 48t-48.5 118zM524 1507q-69 0 -116.5 48t-47.5 118q0 68 47.5 115t116.5 47t116.5 -47t47.5 -115q0 -70 -47.5 -118t-116.5 -48z" />
<glyph unicode="&#xcc;" horiz-adv-x="770" d="M-43 0l4 31h160l180 1292h-158l4 31h695l-4 -31h-158l-180 -1292h155l-4 -31h-694zM723 1487l-18 -27q-59 42 -132.5 71.5t-127.5 44t-102 32t-73.5 48.5t-25.5 81q0 48 38 85.5t89 37.5q42 0 74.5 -24t59 -65.5t52.5 -88t69.5 -101t96.5 -94.5z" />
<glyph unicode="&#xcd;" horiz-adv-x="770" d="M-43 0l4 31h160l180 1292h-158l4 31h695l-4 -31h-158l-180 -1292h155l-4 -31h-694zM373 1464l-19 27q64 43 117 99t85 101.5t61.5 86t62.5 63.5t74 23q46 0 84.5 -38t38.5 -87q0 -52 -27 -82.5t-79 -46.5t-110.5 -29t-139.5 -42.5t-148 -74.5z" />
<glyph unicode="&#xce;" horiz-adv-x="770" d="M-43 0l4 31h160l180 1292h-158l4 31h695l-4 -31h-158l-180 -1292h155l-4 -31h-694zM195 1450l323 373h119l219 -373h-258l-133 262l-229 -262h-41z" />
<glyph unicode="&#xcf;" horiz-adv-x="770" d="M-43 0l4 31h160l180 1292h-158l4 31h695l-4 -31h-158l-180 -1292h155l-4 -31h-694zM666 1673q0 68 49 115t119 47q67 0 114 -47t47 -115q0 -70 -46.5 -118t-114.5 -48q-71 0 -119.5 48t-48.5 118zM276 1507q-69 0 -116 48t-47 118q0 68 47 115t116 47t116.5 -47 t47.5 -115q0 -70 -47.5 -118t-116.5 -48z" />
<glyph unicode="&#xd0;" horiz-adv-x="1519" d="M-37 0l4 31h158l90 647h-184l6 31h182l86 614h-155l4 31h585q166 0 293 -25.5t210.5 -70t136.5 -111.5t75.5 -144.5t22.5 -173.5q0 -146 -27 -268t-89 -227.5t-157 -178.5t-238 -114t-325 -41h-678zM500 31h127q81 0 148 28t115 76t85.5 116.5t60.5 144t38 164 t20.5 171.5t5.5 172q0 104 -15.5 179t-42 121t-69 73.5t-89.5 37t-110 9.5h-94l-86 -614h258l-8 -31h-254z" />
<glyph unicode="&#xd1;" horiz-adv-x="1402" d="M-47 0l4 31h59q126 0 142 123l145 1030l-27 45q-16 28 -24 40t-23 27.5t-33.5 21t-43.5 5.5h-29l4 31h508l526 -893l105 739q8 61 -16 92t-89 31h-61l4 31h399l-4 -31h-63q-124 0 -140 -123l-170 -1200h-122l-676 1143l-140 -989q-8 -62 15 -92.5t88 -30.5h63l-4 -31 h-397zM512 1501h-33q25 150 100.5 232t188.5 82q53 0 104 -19t84.5 -41.5t79 -41.5t88.5 -19q59 0 103.5 29t58.5 92h33q-27 -149 -104 -231.5t-177 -82.5q-48 0 -98.5 19t-87 41.5t-86.5 41.5t-96 19q-56 0 -100 -28.5t-58 -92.5z" />
<glyph unicode="&#xd2;" horiz-adv-x="1505" d="M74 526q0 95 14 193q20 147 71.5 263t138 204t218.5 135t303 47q331 0 489 -131.5t158 -394.5q0 -126 -24 -243.5t-80 -230.5t-140.5 -196.5t-214.5 -134.5t-292 -51q-339 0 -490 138t-151 402zM674 12q73 0 132 34t99.5 90.5t72 143t50.5 176.5t35 206q27 233 27 325 q0 83 -11 145t-36 110.5t-70 73.5t-109 25t-115.5 -22t-90 -66.5t-67.5 -100.5t-50.5 -134.5t-36 -156.5t-27.5 -179q-3 -22 -10.5 -83t-10.5 -89t-6.5 -72t-3.5 -78q0 -81 11 -142t36.5 -109t71 -72.5t109.5 -24.5zM1075 1487l-18 -27q-59 42 -132.5 71.5t-127.5 44 t-102 32t-73.5 48.5t-25.5 81q0 48 38 85.5t89 37.5q42 0 74.5 -24t59 -65.5t52.5 -88t69.5 -101t96.5 -94.5z" />
<glyph unicode="&#xd3;" horiz-adv-x="1505" d="M74 526q0 95 14 193q20 147 71.5 263t138 204t218.5 135t303 47q331 0 489 -131.5t158 -394.5q0 -126 -24 -243.5t-80 -230.5t-140.5 -196.5t-214.5 -134.5t-292 -51q-339 0 -490 138t-151 402zM674 12q73 0 132 34t99.5 90.5t72 143t50.5 176.5t35 206q27 233 27 325 q0 83 -11 145t-36 110.5t-70 73.5t-109 25t-115.5 -22t-90 -66.5t-67.5 -100.5t-50.5 -134.5t-36 -156.5t-27.5 -179q-3 -22 -10.5 -83t-10.5 -89t-6.5 -72t-3.5 -78q0 -81 11 -142t36.5 -109t71 -72.5t109.5 -24.5zM725 1464l-18 27q64 43 117 99t84.5 101.5t61.5 86 t62.5 63.5t73.5 23q46 0 84.5 -38t38.5 -87q0 -52 -27 -82.5t-79 -46.5t-110.5 -29t-139.5 -42.5t-148 -74.5z" />
<glyph unicode="&#xd4;" horiz-adv-x="1505" d="M74 526q0 95 14 193q20 147 71.5 263t138 204t218.5 135t303 47q331 0 489 -131.5t158 -394.5q0 -126 -24 -243.5t-80 -230.5t-140.5 -196.5t-214.5 -134.5t-292 -51q-339 0 -490 138t-151 402zM674 12q73 0 132 34t99.5 90.5t72 143t50.5 176.5t35 206q27 233 27 325 q0 83 -11 145t-36 110.5t-70 73.5t-109 25t-115.5 -22t-90 -66.5t-67.5 -100.5t-50.5 -134.5t-36 -156.5t-27.5 -179q-3 -22 -10.5 -83t-10.5 -89t-6.5 -72t-3.5 -78q0 -81 11 -142t36.5 -109t71 -72.5t109.5 -24.5zM547 1450l323 373h119l219 -373h-258l-133 262l-229 -262 h-41z" />
<glyph unicode="&#xd5;" horiz-adv-x="1505" d="M74 526q0 95 14 193q20 147 71.5 263t138 204t218.5 135t303 47q331 0 489 -131.5t158 -394.5q0 -126 -24 -243.5t-80 -230.5t-140.5 -196.5t-214.5 -134.5t-292 -51q-339 0 -490 138t-151 402zM674 12q73 0 132 34t99.5 90.5t72 143t50.5 176.5t35 206q27 233 27 325 q0 83 -11 145t-36 110.5t-70 73.5t-109 25t-115.5 -22t-90 -66.5t-67.5 -100.5t-50.5 -134.5t-36 -156.5t-27.5 -179q-3 -22 -10.5 -83t-10.5 -89t-6.5 -72t-3.5 -78q0 -81 11 -142t36.5 -109t71 -72.5t109.5 -24.5zM524 1501h-32q25 150 100 232t188 82q53 0 104 -19 t85 -41.5t79.5 -41.5t88.5 -19q58 0 102.5 29t58.5 92h33q-27 -150 -103.5 -232t-176.5 -82q-48 0 -98.5 19t-87.5 41.5t-87 41.5t-96 19q-56 0 -100 -28.5t-58 -92.5z" />
<glyph unicode="&#xd6;" horiz-adv-x="1505" d="M74 526q0 95 14 193q20 147 71.5 263t138 204t218.5 135t303 47q331 0 489 -131.5t158 -394.5q0 -126 -24 -243.5t-80 -230.5t-140.5 -196.5t-214.5 -134.5t-292 -51q-339 0 -490 138t-151 402zM674 12q73 0 132 34t99.5 90.5t72 143t50.5 176.5t35 206q27 233 27 325 q0 83 -11 145t-36 110.5t-70 73.5t-109 25t-115.5 -22t-90 -66.5t-67.5 -100.5t-50.5 -134.5t-36 -156.5t-27.5 -179q-3 -22 -10.5 -83t-10.5 -89t-6.5 -72t-3.5 -78q0 -81 11 -142t36.5 -109t71 -72.5t109.5 -24.5zM1018 1673q0 68 49 115t119 47q68 0 115 -47.5t47 -114.5 q0 -70 -47 -118t-115 -48q-71 0 -119.5 48t-48.5 118zM629 1507q-69 0 -116.5 48t-47.5 118q0 68 47.5 115t116.5 47t116.5 -47t47.5 -115q0 -70 -47.5 -118t-116.5 -48z" />
<glyph unicode="&#xd7;" horiz-adv-x="1105" d="M55 25l463 462l-463 463l23 21l461 -463l465 465l20 -23l-463 -463l463 -462l-20 -23l-465 463l-461 -461z" />
<glyph unicode="&#xd8;" horiz-adv-x="1505" d="M340 -119l74 142q-179 54 -259.5 180.5t-80.5 322.5q0 95 14 193q20 147 71.5 263t138 204t218.5 135t303 47q150 0 285 -33l86 164l24 -16l-81 -156q333 -106 333 -485q0 -126 -24 -243.5t-80.5 -230.5t-140.5 -196.5t-215 -134.5t-293 -51q-153 0 -271 28l-77 -149z M477 143l572 1088q-51 112 -185 112q-76 0 -135.5 -34t-99.5 -90t-70.5 -144.5t-49 -179.5t-34.5 -213q-29 -242 -29 -322q0 -140 31 -217zM1063 1196l-569 -1085q55 -99 180 -99q73 0 132 34t99.5 90.5t72 143t50.5 176.5t35 206q27 233 27 325q0 123 -27 209z" />
<glyph unicode="&#xd9;" horiz-adv-x="1445" d="M207 815l69 508h-157l4 31h694l-4 -31h-160l-94 -666q-29 -199 -31 -263v-36q0 -183 58 -259t196 -76q180 0 295.5 123.5t147.5 353.5l98 700q8 61 -15.5 92t-88.5 31h-62l4 31h398l-5 -31h-63q-65 0 -97 -31t-40 -92l-97 -694q-14 -97 -37 -173t-65 -143t-100.5 -110.5 t-144 -68.5t-195.5 -25q-260 0 -402.5 122t-142.5 351q0 86 37 356zM1135 1487l-19 -27q-59 42 -132.5 71.5t-127.5 44t-102 32t-73.5 48.5t-25.5 81q0 48 38 85.5t89 37.5q42 0 74.5 -24t59 -65.5t53 -88t70 -101t96.5 -94.5z" />
<glyph unicode="&#xda;" horiz-adv-x="1445" d="M207 815l69 508h-157l4 31h694l-4 -31h-160l-94 -666q-29 -199 -31 -263v-36q0 -183 58 -259t196 -76q180 0 295.5 123.5t147.5 353.5l98 700q8 61 -15.5 92t-88.5 31h-62l4 31h398l-5 -31h-63q-65 0 -97 -31t-40 -92l-97 -694q-14 -97 -37 -173t-65 -143t-100.5 -110.5 t-144 -68.5t-195.5 -25q-260 0 -402.5 122t-142.5 351q0 86 37 356zM784 1464l-18 27q64 43 117 99t84.5 101.5t61.5 86t62.5 63.5t73.5 23q46 0 84.5 -38t38.5 -87q0 -52 -27 -82.5t-79 -46.5t-110.5 -29t-139.5 -42.5t-148 -74.5z" />
<glyph unicode="&#xdb;" horiz-adv-x="1445" d="M207 815l69 508h-157l4 31h694l-4 -31h-160l-94 -666q-29 -199 -31 -263v-36q0 -183 58 -259t196 -76q180 0 295.5 123.5t147.5 353.5l98 700q8 61 -15.5 92t-88.5 31h-62l4 31h398l-5 -31h-63q-65 0 -97 -31t-40 -92l-97 -694q-14 -97 -37 -173t-65 -143t-100.5 -110.5 t-144 -68.5t-195.5 -25q-260 0 -402.5 122t-142.5 351q0 86 37 356zM606 1450l324 373h119l219 -373h-258l-133 262l-230 -262h-41z" />
<glyph unicode="&#xdc;" horiz-adv-x="1445" d="M207 815l69 508h-157l4 31h694l-4 -31h-160l-94 -666q-29 -199 -31 -263v-36q0 -183 58 -259t196 -76q180 0 295.5 123.5t147.5 353.5l98 700q8 61 -15.5 92t-88.5 31h-62l4 31h398l-5 -31h-63q-65 0 -97 -31t-40 -92l-97 -694q-14 -97 -37 -173t-65 -143t-100.5 -110.5 t-144 -68.5t-195.5 -25q-260 0 -402.5 122t-142.5 351q0 86 37 356zM1077 1673q0 68 49 115t119 47q67 0 114.5 -47.5t47.5 -114.5q0 -70 -47 -118t-115 -48q-71 0 -119.5 48t-48.5 118zM688 1507q-69 0 -116.5 48t-47.5 118q0 68 47.5 115t116.5 47t116.5 -47t47.5 -115 q0 -70 -47.5 -118t-116.5 -48z" />
<glyph unicode="&#xdd;" horiz-adv-x="1423" d="M295 0l4 31h160l45 309q24 166 -7 333t-101.5 318.5t-188.5 331.5h-125l4 31h737l-4 -31h-176q219 -314 258 -723q52 156 151.5 317t211.5 291q23 27 29 52.5t-12.5 44t-63.5 18.5h-82l4 31h379l-5 -31h-40q-18 0 -36.5 -7t-30 -13t-33.5 -27.5t-30 -31t-38 -42.5 q-93 -104 -172 -219.5t-149.5 -273t-92.5 -306.5l-53 -372h159l-4 -31h-698zM764 1464l-19 27q64 43 117 99t85 101.5t61.5 86t62.5 63.5t74 23q46 0 84.5 -38t38.5 -87q0 -52 -27 -82.5t-79 -46.5t-110.5 -29t-139.5 -42.5t-148 -74.5z" />
<glyph unicode="&#xde;" horiz-adv-x="1325" d="M-43 0l4 31h160l180 1292h-158l4 31h695l-4 -31h-158l-39 -268h121q132 0 232 -19.5t160 -51.5t97 -79t50.5 -94t13.5 -104q0 -65 -18.5 -124t-61 -112t-105 -92t-156.5 -61.5t-210 -22.5q-33 0 -58 2.5t-34 4.5l-8 3l4 31q14 -4 39 -4q88 0 146 130.5t58 309.5 q0 44 -4 78.5t-15.5 68t-30 56t-49 36t-71.5 13.5h-104l-137 -993h155l-4 -31h-694z" />
<glyph unicode="&#xdf;" horiz-adv-x="1224" d="M-147 -129l-5 -16q-35 3 -59 -14.5t-34.5 -49t-14.5 -58.5t-4 -57q0 -57 35 -94t86 -37q86 0 126 98.5t72 354.5q23 192 52 574.5t30 390.5q27 255 171 394.5t417 139.5q179 0 267.5 -70.5t88.5 -179.5q0 -68 -21.5 -124.5t-52.5 -94.5t-62.5 -72t-53 -72.5t-21.5 -80.5 q0 -32 15.5 -60.5t40.5 -52t55 -48t60.5 -54.5t55.5 -65t40.5 -86.5t15.5 -112.5q0 -158 -95 -248t-245 -90q-239 0 -283 192l31 4q20 -69 67 -111t115 -42q58 0 92.5 44t34.5 105q0 44 -21.5 83t-54 67t-70.5 63t-70.5 70t-54 90t-21.5 121q0 72 26 127.5t68 90t92 62.5 t100.5 54t92.5 56t68 77t26 108q0 69 -40 118t-96.5 70t-119.5 21q-55 0 -95.5 -11t-78 -41t-63 -81.5t-43.5 -135t-26 -198.5q-37 -583 -92 -885q-18 -96 -40.5 -173t-64 -157t-96 -133.5t-138 -87.5t-187.5 -34q-142 0 -232 53.5t-90 142.5q0 40 15 71t50.5 56t93.5 31.5 t145 -2.5z" />
<glyph unicode="&#xe0;" horiz-adv-x="1200" d="M651 236h-8q-56 -131 -124 -190.5t-175 -59.5q-147 0 -233 97.5t-86 272.5q0 120 43 228.5t115 185t169.5 121.5t202.5 45q66 0 120.5 -17.5t90.5 -47t58.5 -59.5t37.5 -64q130 77 232 188h30q-56 -173 -101.5 -401t-45.5 -357q0 -56 8.5 -77t30.5 -21q36 0 71.5 68.5 t42.5 154.5l31 -4q-7 -48 -17.5 -88t-32.5 -82t-52.5 -71t-79.5 -47.5t-111 -18.5q-115 0 -170 53t-55 127q0 40 8 64zM453 53q71 0 151 164q50 103 88.5 243.5t38.5 241.5q0 51 -7.5 90.5t-29.5 69t-57 29.5q-60 0 -121.5 -78.5t-104 -221.5t-42.5 -306q0 -232 84 -232z M752 1077l-27 -16q-30 54 -76 98.5t-88 73t-80 56t-61 60t-23 72.5q0 33 12.5 64t48 55.5t89.5 24.5q57 0 88.5 -32t41.5 -87.5t14.5 -115.5t18.5 -132t42 -121z" />
<glyph unicode="&#xe1;" horiz-adv-x="1200" d="M651 236h-8q-56 -131 -124 -190.5t-175 -59.5q-147 0 -233 97.5t-86 272.5q0 120 43 228.5t115 185t169.5 121.5t202.5 45q66 0 120.5 -17.5t90.5 -47t58.5 -59.5t37.5 -64q130 77 232 188h30q-56 -173 -101.5 -401t-45.5 -357q0 -56 8.5 -77t30.5 -21q36 0 71.5 68.5 t42.5 154.5l31 -4q-7 -48 -17.5 -88t-32.5 -82t-52.5 -71t-79.5 -47.5t-111 -18.5q-115 0 -170 53t-55 127q0 40 8 64zM453 53q71 0 151 164q50 103 88.5 243.5t38.5 241.5q0 51 -7.5 90.5t-29.5 69t-57 29.5q-60 0 -121.5 -78.5t-104 -221.5t-42.5 -306q0 -232 84 -232z M588 1063l-25 22q57 67 94.5 144t53 133t33.5 104.5t50 73.5t89 25t98 -43.5t41 -100.5q0 -43 -17 -72.5t-45.5 -45.5t-72 -36t-88.5 -40.5t-102.5 -63t-108.5 -100.5z" />
<glyph unicode="&#xe2;" horiz-adv-x="1200" d="M651 236h-8q-56 -131 -124 -190.5t-175 -59.5q-147 0 -233 97.5t-86 272.5q0 120 43 228.5t115 185t169.5 121.5t202.5 45q66 0 120.5 -17.5t90.5 -47t58.5 -59.5t37.5 -64q130 77 232 188h30q-56 -173 -101.5 -401t-45.5 -357q0 -56 8.5 -77t30.5 -21q36 0 71.5 68.5 t42.5 154.5l31 -4q-7 -48 -17.5 -88t-32.5 -82t-52.5 -71t-79.5 -47.5t-111 -18.5q-115 0 -170 53t-55 127q0 40 8 64zM453 53q71 0 151 164q50 103 88.5 243.5t38.5 241.5q0 51 -7.5 90.5t-29.5 69t-57 29.5q-60 0 -121.5 -78.5t-104 -221.5t-42.5 -306q0 -232 84 -232z M352 1079l299 453h119l199 -453h-281l-108 287l-191 -287h-37z" />
<glyph unicode="&#xe3;" horiz-adv-x="1200" d="M651 236h-8q-56 -131 -124 -190.5t-175 -59.5q-147 0 -233 97.5t-86 272.5q0 120 43 228.5t115 185t169.5 121.5t202.5 45q66 0 120.5 -17.5t90.5 -47t58.5 -59.5t37.5 -64q130 77 232 188h30q-56 -173 -101.5 -401t-45.5 -357q0 -56 8.5 -77t30.5 -21q36 0 71.5 68.5 t42.5 154.5l31 -4q-7 -48 -17.5 -88t-32.5 -82t-52.5 -71t-79.5 -47.5t-111 -18.5q-115 0 -170 53t-55 127q0 40 8 64zM453 53q71 0 151 164q50 103 88.5 243.5t38.5 241.5q0 51 -7.5 90.5t-29.5 69t-57 29.5q-60 0 -121.5 -78.5t-104 -221.5t-42.5 -306q0 -232 84 -232z M315 1112h-32q23 150 94.5 232.5t175.5 82.5q47 0 91 -19t72.5 -42t67.5 -42t76 -19q52 0 92.5 29.5t51.5 92.5h32q-24 -152 -95 -233.5t-169 -81.5q-40 0 -83.5 19t-75.5 42.5t-75 42.5t-83 19q-49 0 -88.5 -29.5t-51.5 -93.5z" />
<glyph unicode="&#xe4;" horiz-adv-x="1200" d="M651 236h-8q-56 -131 -124 -190.5t-175 -59.5q-147 0 -233 97.5t-86 272.5q0 120 43 228.5t115 185t169.5 121.5t202.5 45q66 0 120.5 -17.5t90.5 -47t58.5 -59.5t37.5 -64q130 77 232 188h30q-56 -173 -101.5 -401t-45.5 -357q0 -56 8.5 -77t30.5 -21q36 0 71.5 68.5 t42.5 154.5l31 -4q-7 -48 -17.5 -88t-32.5 -82t-52.5 -71t-79.5 -47.5t-111 -18.5q-115 0 -170 53t-55 127q0 40 8 64zM453 53q71 0 151 164q50 103 88.5 243.5t38.5 241.5q0 51 -7.5 90.5t-29.5 69t-57 29.5q-60 0 -121.5 -78.5t-104 -221.5t-42.5 -306q0 -232 84 -232z M770 1231q0 69 48.5 116.5t119.5 47.5q68 0 115 -47.5t47 -116.5q0 -70 -47 -118t-115 -48q-71 0 -119.5 48t-48.5 118zM416 1065q-69 0 -117.5 48t-48.5 118q0 69 48.5 116.5t117.5 47.5t116.5 -47.5t47.5 -116.5q0 -70 -47.5 -118t-116.5 -48z" />
<glyph unicode="&#xe5;" horiz-adv-x="1200" d="M651 236h-8q-56 -131 -124 -190.5t-175 -59.5q-147 0 -233 97.5t-86 272.5q0 120 43 228.5t115 185t169.5 121.5t202.5 45q66 0 120.5 -17.5t90.5 -47t58.5 -59.5t37.5 -64q130 77 232 188h30q-56 -173 -101.5 -401t-45.5 -357q0 -56 8.5 -77t30.5 -21q36 0 71.5 68.5 t42.5 154.5l31 -4q-7 -48 -17.5 -88t-32.5 -82t-52.5 -71t-79.5 -47.5t-111 -18.5q-115 0 -170 53t-55 127q0 40 8 64zM453 53q71 0 151 164q50 103 88.5 243.5t38.5 241.5q0 51 -7.5 90.5t-29.5 69t-57 29.5q-60 0 -121.5 -78.5t-104 -221.5t-42.5 -306q0 -232 84 -232z M680 1106q-77 0 -117.5 50t-40.5 116q0 64 39 109.5t117 45.5t119 -46t41 -109q0 -65 -41 -115.5t-117 -50.5zM680 1137q59 0 91 40t32 91q0 52 -30 90.5t-95 38.5q-63 0 -92 -37.5t-29 -87.5q0 -55 31.5 -95t91.5 -40z" />
<glyph unicode="&#xe6;" horiz-adv-x="1527" d="M549 494h59l51 229q19 83 -18.5 134.5t-116.5 51.5q-80 0 -130 -51.5t-50 -136.5q0 -52 19.5 -83.5t52.5 -31.5q14 0 20 2l-2 -16q-66 -12 -131 -12q-87 0 -136.5 37.5t-49.5 101.5q0 96 108 156.5t277 60.5q109 0 180.5 -31t118.5 -98q162 129 403 129 q147 0 233.5 -47.5t86.5 -138.5q0 -90 -77.5 -157.5t-184.5 -98.5t-218 -31h-73q-19 -123 -19 -240q0 -205 158 -205q103 0 187.5 72t91.5 170l30 -4q-4 -48 -26.5 -94.5t-63 -86.5t-107 -64.5t-149.5 -24.5q-137 0 -252 50.5t-174 151.5q-59 -108 -144 -155t-214 -47 q-148 0 -230 55.5t-82 153.5q0 136 154 217.5t418 81.5zM602 463h-55q-108 0 -179 -81.5t-71 -223.5q0 -65 22.5 -94t71.5 -29q70 0 134.5 50.5t103.5 137.5q-31 73 -31 164q0 49 4 76zM975 494h74q66 0 112.5 48.5t66 118.5t19.5 152q0 53 -14 74.5t-45 21.5 q-66 0 -124.5 -118t-88.5 -297z" />
<glyph unicode="&#xe7;" horiz-adv-x="948" d="M242 -326l28 -4q-4 -10 -4 -26q0 -41 29 -62.5t67 -21.5q45 0 77 29t32 81q0 90 -127 105l84 213q-79 7 -148.5 34t-127.5 74.5t-91.5 125t-33.5 175.5q0 78 21 153.5t67 146t111.5 123t162 84.5t211.5 32q61 0 115.5 -9t109.5 -30.5t88 -65.5t33 -106q0 -88 -60.5 -136 t-144.5 -48q-27 0 -50.5 5.5t-33.5 11.5l-10 5l4 17q47 -8 73 44.5t26 125.5q0 86 -32.5 122.5t-76.5 36.5q-60 0 -111.5 -68t-83 -170t-49.5 -212t-18 -203q0 -129 38 -182.5t118 -53.5q110 0 191 70.5t89 169.5l31 -4q-3 -36 -16 -71.5t-40.5 -72t-67 -64t-100.5 -45 t-135 -17.5h-26l-27 -74q86 -8 151.5 -60t65.5 -139q0 -88 -66.5 -140t-176.5 -52q-79 0 -125.5 32.5t-46.5 88.5q0 10 1.5 18t2.5 11z" />
<glyph unicode="&#xe8;" horiz-adv-x="946" d="M813 260l31 -4q-3 -47 -25.5 -93t-63 -86.5t-107.5 -65.5t-150 -25q-72 0 -139 14t-128 45.5t-106.5 77t-72.5 113.5t-27 151q0 101 38.5 197t110.5 175.5t189.5 128t261.5 48.5q141 0 228 -48t87 -138q0 -35 -10.5 -64.5t-34 -52.5t-46.5 -40t-62 -33t-67 -26t-74.5 -25 t-70.5 -24q-125 -44 -190 -104q-8 -71 -8 -158q0 -105 42.5 -155t117.5 -50q100 0 185 71t91 171zM389 426q9 7 16.5 12t17 10.5t15.5 9t17.5 9.5t17 8.5t21.5 10t22 10.5q77 36 116.5 129.5t39.5 197.5q0 49 -15 67.5t-45 18.5q-70 0 -133 -141t-90 -342zM686 1077l-27 -16 q-30 54 -76 98.5t-87.5 73t-79.5 56t-61 60t-23 72.5q0 34 12.5 64.5t47.5 55t89 24.5q57 0 88.5 -32t41.5 -87.5t14.5 -115.5t18.5 -132t42 -121z" />
<glyph unicode="&#xe9;" horiz-adv-x="946" d="M813 260l31 -4q-3 -47 -25.5 -93t-63 -86.5t-107.5 -65.5t-150 -25q-72 0 -139 14t-128 45.5t-106.5 77t-72.5 113.5t-27 151q0 101 38.5 197t110.5 175.5t189.5 128t261.5 48.5q141 0 228 -48t87 -138q0 -35 -10.5 -64.5t-34 -52.5t-46.5 -40t-62 -33t-67 -26t-74.5 -25 t-70.5 -24q-125 -44 -190 -104q-8 -71 -8 -158q0 -105 42.5 -155t117.5 -50q100 0 185 71t91 171zM389 426q9 7 16.5 12t17 10.5t15.5 9t17.5 9.5t17 8.5t21.5 10t22 10.5q77 36 116.5 129.5t39.5 197.5q0 49 -15 67.5t-45 18.5q-70 0 -133 -141t-90 -342zM522 1063l-24 22 q57 67 94.5 144t53 133t33 104.5t49.5 73.5t89 25t98 -43.5t41 -100.5q0 -43 -17 -72.5t-45.5 -45.5t-72 -36t-88.5 -40.5t-102.5 -63t-108.5 -100.5z" />
<glyph unicode="&#xea;" horiz-adv-x="946" d="M813 260l31 -4q-3 -47 -25.5 -93t-63 -86.5t-107.5 -65.5t-150 -25q-72 0 -139 14t-128 45.5t-106.5 77t-72.5 113.5t-27 151q0 101 38.5 197t110.5 175.5t189.5 128t261.5 48.5q141 0 228 -48t87 -138q0 -35 -10.5 -64.5t-34 -52.5t-46.5 -40t-62 -33t-67 -26t-74.5 -25 t-70.5 -24q-125 -44 -190 -104q-8 -71 -8 -158q0 -105 42.5 -155t117.5 -50q100 0 185 71t91 171zM389 426q9 7 16.5 12t17 10.5t15.5 9t17.5 9.5t17 8.5t21.5 10t22 10.5q77 36 116.5 129.5t39.5 197.5q0 49 -15 67.5t-45 18.5q-70 0 -133 -141t-90 -342zM287 1079l299 453 h119l198 -453h-280l-109 287l-190 -287h-37z" />
<glyph unicode="&#xeb;" horiz-adv-x="946" d="M813 260l31 -4q-3 -47 -25.5 -93t-63 -86.5t-107.5 -65.5t-150 -25q-72 0 -139 14t-128 45.5t-106.5 77t-72.5 113.5t-27 151q0 101 38.5 197t110.5 175.5t189.5 128t261.5 48.5q141 0 228 -48t87 -138q0 -35 -10.5 -64.5t-34 -52.5t-46.5 -40t-62 -33t-67 -26t-74.5 -25 t-70.5 -24q-125 -44 -190 -104q-8 -71 -8 -158q0 -105 42.5 -155t117.5 -50q100 0 185 71t91 171zM389 426q9 7 16.5 12t17 10.5t15.5 9t17.5 9.5t17 8.5t21.5 10t22 10.5q77 36 116.5 129.5t39.5 197.5q0 49 -15 67.5t-45 18.5q-70 0 -133 -141t-90 -342zM705 1231 q0 69 48.5 116.5t118.5 47.5q68 0 115 -47.5t47 -116.5q0 -70 -47 -118t-115 -48q-71 0 -119 48t-48 118zM350 1065q-69 0 -117.5 48t-48.5 118q0 69 48.5 116.5t117.5 47.5t116.5 -47.5t47.5 -116.5q0 -70 -47.5 -118t-116.5 -48z" />
<glyph unicode="&#xec;" horiz-adv-x="645" d="M573 303l31 -4q-48 -307 -276 -307q-267 0 -267 219q0 64 48.5 317t48.5 363h-119l2 31h483q0 -114 -53 -407.5t-53 -364.5q0 -41 8.5 -56.5t28.5 -15.5q31 0 69 66.5t49 158.5zM453 1077l-27 -16q-30 54 -76 98.5t-88 73t-80 56t-61 60t-23 72.5q0 33 12.5 64t48 55.5 t89.5 24.5q57 0 88.5 -32t41.5 -87.5t14.5 -115.5t18.5 -132t42 -121z" />
<glyph unicode="&#xed;" horiz-adv-x="645" d="M573 303l31 -4q-48 -307 -276 -307q-267 0 -267 219q0 64 48.5 317t48.5 363h-119l2 31h483q0 -114 -53 -407.5t-53 -364.5q0 -41 8.5 -56.5t28.5 -15.5q31 0 69 66.5t49 158.5zM289 1063l-25 22q57 67 94.5 144t53 133t33.5 104.5t50 73.5t89 25t98 -43.5t41 -100.5 q0 -43 -17 -72.5t-45.5 -45.5t-72 -36t-88.5 -40.5t-102.5 -63t-108.5 -100.5z" />
<glyph unicode="&#xee;" horiz-adv-x="645" d="M573 303l31 -4q-48 -307 -276 -307q-267 0 -267 219q0 64 48.5 317t48.5 363h-119l2 31h483q0 -114 -53 -407.5t-53 -364.5q0 -41 8.5 -56.5t28.5 -15.5q31 0 69 66.5t49 158.5zM53 1079l299 453h119l199 -453h-281l-108 287l-191 -287h-37z" />
<glyph unicode="&#xef;" horiz-adv-x="645" d="M573 303l31 -4q-48 -307 -276 -307q-267 0 -267 219q0 64 48.5 317t48.5 363h-119l2 31h483q0 -114 -53 -407.5t-53 -364.5q0 -41 8.5 -56.5t28.5 -15.5q31 0 69 66.5t49 158.5zM471 1231q0 69 48.5 116.5t119.5 47.5q68 0 115 -47.5t47 -116.5q0 -70 -47 -118t-115 -48 q-71 0 -119.5 48t-48.5 118zM117 1065q-69 0 -117.5 48t-48.5 118q0 69 48.5 116.5t117.5 47.5t116.5 -47.5t47.5 -116.5q0 -70 -47.5 -118t-116.5 -48z" />
<glyph unicode="&#xf0;" horiz-adv-x="1132" d="M322 1020l-13 29l377 192q-36 88 -119.5 138t-236.5 59l6 30q309 -6 493 -155l199 102l14 -26l-188 -97q219 -201 219 -590q0 -331 -152.5 -523.5t-426.5 -192.5q-221 0 -343 115.5t-122 295.5q0 231 152.5 381t393.5 150q86 0 150 -39q4 228 -27 323zM477 12 q63 0 100.5 39t63.5 130.5t55 275.5q23 165 23 262q0 95 -25.5 136.5t-81.5 41.5q-87 0 -134 -93.5t-85 -348.5q-26 -190 -26 -275q0 -93 26.5 -130.5t83.5 -37.5z" />
<glyph unicode="&#xf1;" horiz-adv-x="1232" d="M401 0h-362q73 434 96 602t23 289h-119l2 31h487q0 -140 -63 -469h8q53 153 94 243q53 116 123.5 178t183.5 62q114 0 176 -62.5t62 -175.5q0 -86 -55.5 -281.5t-55.5 -269.5q0 -69 35 -69q36 0 71 64.5t50 160.5l31 -4q-10 -56 -23 -99t-35.5 -83.5t-52.5 -67t-75 -42 t-103 -15.5q-116 0 -185 56.5t-69 156.5q0 74 56.5 286.5t56.5 274.5q0 33 -9.5 46t-31.5 13q-25 0 -52 -28.5t-69 -114.5q-56 -114 -112.5 -302.5t-82.5 -379.5zM348 1112h-33q23 149 95 232t176 83q47 0 91 -19t72.5 -42t67.5 -42t76 -19q51 0 91.5 29.5t51.5 92.5h33 q-24 -152 -95 -233.5t-169 -81.5q-40 0 -84 19t-76 42.5t-75 42.5t-83 19q-49 0 -88 -29.5t-51 -93.5z" />
<glyph unicode="&#xf2;" horiz-adv-x="1128" d="M29 381q0 45 6 92q30 218 170 340.5t383 122.5q238 0 359.5 -104.5t121.5 -288.5q0 -265 -152.5 -411t-402.5 -146q-237 0 -361 104.5t-124 290.5zM483 12q59 0 94 40t60 132.5t53 278.5q23 165 23 272q0 94 -23 134t-76 40q-83 0 -125 -93.5t-81 -356.5 q-27 -197 -27 -275q0 -97 24 -134.5t78 -37.5zM727 1077l-27 -16q-30 54 -76 98.5t-87.5 73t-79.5 56t-61 60t-23 72.5q0 34 12.5 64.5t47.5 55t89 24.5q57 0 88.5 -32t41.5 -87.5t14.5 -115.5t18.5 -132t42 -121z" />
<glyph unicode="&#xf3;" horiz-adv-x="1128" d="M29 381q0 45 6 92q30 218 170 340.5t383 122.5q238 0 359.5 -104.5t121.5 -288.5q0 -265 -152.5 -411t-402.5 -146q-237 0 -361 104.5t-124 290.5zM483 12q59 0 94 40t60 132.5t53 278.5q23 165 23 272q0 94 -23 134t-76 40q-83 0 -125 -93.5t-81 -356.5 q-27 -197 -27 -275q0 -97 24 -134.5t78 -37.5zM563 1063l-24 22q57 67 94.5 144t53 133t33 104.5t49.5 73.5t89 25t98 -43.5t41 -100.5q0 -43 -17 -72.5t-45.5 -45.5t-72 -36t-88.5 -40.5t-102.5 -63t-108.5 -100.5z" />
<glyph unicode="&#xf4;" horiz-adv-x="1128" d="M29 381q0 45 6 92q30 218 170 340.5t383 122.5q238 0 359.5 -104.5t121.5 -288.5q0 -265 -152.5 -411t-402.5 -146q-237 0 -361 104.5t-124 290.5zM483 12q59 0 94 40t60 132.5t53 278.5q23 165 23 272q0 94 -23 134t-76 40q-83 0 -125 -93.5t-81 -356.5 q-27 -197 -27 -275q0 -97 24 -134.5t78 -37.5zM328 1079l299 453h118l199 -453h-280l-109 287l-190 -287h-37z" />
<glyph unicode="&#xf5;" horiz-adv-x="1128" d="M29 381q0 45 6 92q30 218 170 340.5t383 122.5q238 0 359.5 -104.5t121.5 -288.5q0 -265 -152.5 -411t-402.5 -146q-237 0 -361 104.5t-124 290.5zM483 12q59 0 94 40t60 132.5t53 278.5q23 165 23 272q0 94 -23 134t-76 40q-83 0 -125 -93.5t-81 -356.5 q-27 -197 -27 -275q0 -97 24 -134.5t78 -37.5zM291 1112h-33q23 150 94.5 232.5t175.5 82.5q47 0 91 -19t73 -42t68 -42t76 -19q51 0 91.5 29.5t51.5 92.5h33q-24 -152 -95 -233.5t-169 -81.5q-40 0 -84 19t-76 42.5t-75 42.5t-83 19q-49 0 -88 -29.5t-51 -93.5z" />
<glyph unicode="&#xf6;" horiz-adv-x="1128" d="M29 381q0 45 6 92q30 218 170 340.5t383 122.5q238 0 359.5 -104.5t121.5 -288.5q0 -265 -152.5 -411t-402.5 -146q-237 0 -361 104.5t-124 290.5zM483 12q59 0 94 40t60 132.5t53 278.5q23 165 23 272q0 94 -23 134t-76 40q-83 0 -125 -93.5t-81 -356.5 q-27 -197 -27 -275q0 -97 24 -134.5t78 -37.5zM745 1231q0 69 48.5 116.5t119.5 47.5q68 0 115 -47.5t47 -116.5q0 -70 -47 -118t-115 -48q-71 0 -119.5 48t-48.5 118zM391 1065q-69 0 -117.5 48t-48.5 118q0 69 48.5 116.5t117.5 47.5t116.5 -47.5t47.5 -116.5 q0 -70 -47.5 -118t-116.5 -48z" />
<glyph unicode="&#xf7;" horiz-adv-x="1105" d="M543 760q-51 0 -87 36t-36 87t36 87t87 36t87 -36t36 -87t-36 -87t-87 -36zM84 481v31h917v-31h-917zM420 102q0 51 36 87t87 36t87 -36t36 -87t-36 -86.5t-87 -35.5t-87 35.5t-36 86.5z" />
<glyph unicode="&#xf8;" horiz-adv-x="1132" d="M188 -121l84 146q-120 44 -181.5 136t-61.5 222q0 147 61 272q63 134 189 207.5t311 73.5q102 0 192 -23l92 162l29 -16l-90 -156q130 -40 195 -133.5t65 -226.5q0 -265 -152.5 -411t-402.5 -146q-122 0 -217 28l-86 -151zM717 735l-332 -577q3 -82 27 -114t75 -32 q59 0 94 40t60 132.5t53 278.5q23 165 23 272zM385 221l330 574q-7 61 -30.5 87.5t-66.5 26.5q-57 0 -93 -41t-62 -136t-51 -273q-25 -170 -27 -238z" />
<glyph unicode="&#xf9;" horiz-adv-x="1236" d="M41 891l2 31h483q1 -107 -58.5 -407t-59.5 -357q0 -34 9 -48t29 -14q91 0 224 383q80 225 102 443h361q-79 -414 -99 -540.5t-20 -227.5q0 -45 9 -60.5t30 -15.5q32 0 67.5 66.5t48.5 160.5l31 -6q-12 -70 -29.5 -119.5t-49.5 -95t-85.5 -69t-128.5 -23.5 q-110 0 -179 53.5t-69 151.5q0 35 7 75t20.5 97.5t20.5 99.5h-9q-9 -23 -28.5 -76t-31 -83t-34 -78.5t-42 -78t-50 -65t-62.5 -55.5t-75.5 -33.5t-93.5 -13.5q-107 0 -164.5 64t-57.5 175q0 86 53 339.5t50 326.5h-121zM741 1077l-26 -16q-30 54 -76 98.5t-88 73t-80 56 t-61 60t-23 72.5q0 33 12.5 64t48 55.5t89.5 24.5q57 0 88 -32t41.5 -87.5t15 -115.5t18 -132t41.5 -121z" />
<glyph unicode="&#xfa;" horiz-adv-x="1236" d="M41 891l2 31h483q1 -107 -58.5 -407t-59.5 -357q0 -34 9 -48t29 -14q91 0 224 383q80 225 102 443h361q-79 -414 -99 -540.5t-20 -227.5q0 -45 9 -60.5t30 -15.5q32 0 67.5 66.5t48.5 160.5l31 -6q-12 -70 -29.5 -119.5t-49.5 -95t-85.5 -69t-128.5 -23.5 q-110 0 -179 53.5t-69 151.5q0 35 7 75t20.5 97.5t20.5 99.5h-9q-9 -23 -28.5 -76t-31 -83t-34 -78.5t-42 -78t-50 -65t-62.5 -55.5t-75.5 -33.5t-93.5 -13.5q-107 0 -164.5 64t-57.5 175q0 86 53 339.5t50 326.5h-121zM578 1063l-25 22q57 67 94.5 144t53 133t33 104.5 t49.5 73.5t89 25t98.5 -43.5t41.5 -100.5q0 -43 -17 -72.5t-45.5 -45.5t-72 -36t-88.5 -40.5t-102.5 -63t-108.5 -100.5z" />
<glyph unicode="&#xfb;" horiz-adv-x="1236" d="M41 891l2 31h483q1 -107 -58.5 -407t-59.5 -357q0 -34 9 -48t29 -14q91 0 224 383q80 225 102 443h361q-79 -414 -99 -540.5t-20 -227.5q0 -45 9 -60.5t30 -15.5q32 0 67.5 66.5t48.5 160.5l31 -6q-12 -70 -29.5 -119.5t-49.5 -95t-85.5 -69t-128.5 -23.5 q-110 0 -179 53.5t-69 151.5q0 35 7 75t20.5 97.5t20.5 99.5h-9q-9 -23 -28.5 -76t-31 -83t-34 -78.5t-42 -78t-50 -65t-62.5 -55.5t-75.5 -33.5t-93.5 -13.5q-107 0 -164.5 64t-57.5 175q0 86 53 339.5t50 326.5h-121zM342 1079l299 453h119l198 -453h-280l-109 287 l-190 -287h-37z" />
<glyph unicode="&#xfc;" horiz-adv-x="1236" d="M41 891l2 31h483q1 -107 -58.5 -407t-59.5 -357q0 -34 9 -48t29 -14q91 0 224 383q80 225 102 443h361q-79 -414 -99 -540.5t-20 -227.5q0 -45 9 -60.5t30 -15.5q32 0 67.5 66.5t48.5 160.5l31 -6q-12 -70 -29.5 -119.5t-49.5 -95t-85.5 -69t-128.5 -23.5 q-110 0 -179 53.5t-69 151.5q0 35 7 75t20.5 97.5t20.5 99.5h-9q-9 -23 -28.5 -76t-31 -83t-34 -78.5t-42 -78t-50 -65t-62.5 -55.5t-75.5 -33.5t-93.5 -13.5q-107 0 -164.5 64t-57.5 175q0 86 53 339.5t50 326.5h-121zM760 1231q0 69 48.5 116.5t119.5 47.5q68 0 115 -47.5 t47 -116.5q0 -70 -47 -118t-115 -48q-71 0 -119.5 48t-48.5 118zM406 1065q-69 0 -117.5 48t-48.5 118q0 69 48.5 116.5t117.5 47.5t116 -47.5t47 -116.5q0 -70 -47 -118t-116 -48z" />
<glyph unicode="&#xfd;" horiz-adv-x="1013" d="M133 -193l-4 -16q-43 1 -64.5 -33.5t-21.5 -85.5q0 -66 19.5 -97.5t68.5 -31.5q91 0 141 87t50 251q0 52 -3 105t-12.5 116.5t-15.5 102t-22.5 114.5t-21.5 99t-25.5 109.5t-22.5 95.5q-31 133 -45.5 172t-40.5 39q-53 0 -82 -211l-31 6q2 10 5 29q6 34 9 50.5t9.5 46 t13 44.5t17 37.5t23 34.5t30.5 26.5t39.5 21.5t49.5 12t62 5q127 0 187 -65t94 -199q35 -135 66.5 -312.5t31.5 -261.5q98 94 176 217q34 55 53.5 91t37.5 89t18 99q0 73 -39 113.5t-107 40.5q-108 0 -121 -97l-16 4q-18 136 27.5 208.5t134.5 72.5q43 0 76 -16.5t52.5 -41 t31.5 -58.5t16 -64.5t4 -63.5q0 -181 -143 -397q-84 -127 -203 -246q-19 -234 -159 -382t-355 -148q-116 0 -188 44.5t-72 117.5q0 151 272 126zM514 1063l-25 22q57 67 94.5 144t53 133t33.5 104.5t50 73.5t89 25t98 -43.5t41 -100.5q0 -43 -17 -72.5t-45.5 -45.5t-72 -36 t-88.5 -40.5t-102.5 -63t-108.5 -100.5z" />
<glyph unicode="&#xfe;" horiz-adv-x="1175" d="M-150 -467l3 31h112q17 134 86 594t122.5 837.5t53.5 444.5h-143l4 30h481q-3 -75 -37 -348t-61 -426h8q90 240 309 240q148 0 239 -91t91 -278q0 -111 -32 -214.5t-91 -185.5t-152 -131.5t-206 -49.5q-191 0 -242 155q-10 -77 -32 -218t-33 -229t-8 -130h116l-2 -31 h-586zM535 55q28 0 59.5 24t63 74.5t57 120t41.5 169t16 212.5q0 112 -20 161.5t-72 49.5q-109 0 -193 -231q-34 -96 -55.5 -206t-21.5 -175q0 -93 34 -146t91 -53z" />
<glyph unicode="&#xff;" horiz-adv-x="1013" d="M133 -193l-4 -16q-43 1 -64.5 -33.5t-21.5 -85.5q0 -66 19.5 -97.5t68.5 -31.5q91 0 141 87t50 251q0 52 -3 105t-12.5 116.5t-15.5 102t-22.5 114.5t-21.5 99t-25.5 109.5t-22.5 95.5q-31 133 -45.5 172t-40.5 39q-53 0 -82 -211l-31 6q2 10 5 29q6 34 9 50.5t9.5 46 t13 44.5t17 37.5t23 34.5t30.5 26.5t39.5 21.5t49.5 12t62 5q127 0 187 -65t94 -199q35 -135 66.5 -312.5t31.5 -261.5q98 94 176 217q34 55 53.5 91t37.5 89t18 99q0 73 -39 113.5t-107 40.5q-108 0 -121 -97l-16 4q-18 136 27.5 208.5t134.5 72.5q43 0 76 -16.5t52.5 -41 t31.5 -58.5t16 -64.5t4 -63.5q0 -181 -143 -397q-84 -127 -203 -246q-19 -234 -159 -382t-355 -148q-116 0 -188 44.5t-72 117.5q0 151 272 126zM696 1231q0 69 48.5 116.5t119.5 47.5q68 0 115 -47.5t47 -116.5q0 -70 -47 -118t-115 -48q-71 0 -119.5 48t-48.5 118z M342 1065q-69 0 -117.5 48t-48.5 118q0 69 48.5 116.5t117.5 47.5t116.5 -47.5t47.5 -116.5q0 -70 -47.5 -118t-116.5 -48z" />
<glyph unicode="&#x152;" horiz-adv-x="1972" d="M1227 31h350q186 0 287 375h28q-53 -187 -84 -406h-948q-93 -14 -174 -14q-166 0 -285 36.5t-190 108t-104 169t-33 226.5q0 95 14 193q20 147 73 263t143 204t226 135t312 47q80 0 180 -14h1001q-69 -162 -116 -383h-29l20 151q10 82 -30.5 141.5t-136.5 59.5h-322 l-90 -639h291l24 180h33l-57 -409h-33l29 198h-291zM850 33l180 1288q-78 16 -174 16q-55 0 -100.5 -18t-80.5 -48t-63.5 -78t-48.5 -100.5t-37 -123t-28.5 -137t-22.5 -150.5q-29 -242 -29 -322q0 -165 54 -253.5t178 -88.5q75 0 172 15z" />
<glyph unicode="&#x153;" horiz-adv-x="1605" d="M1473 260l30 -4q-3 -48 -25 -94.5t-62.5 -86.5t-107 -64.5t-149.5 -24.5q-213 0 -303 151q-121 -151 -338 -151q-239 0 -364 105t-125 292q0 208 110 356q145 197 451 197q239 0 330 -156q129 156 366 156q141 0 227 -47.5t86 -138.5q0 -41 -17 -75t-39.5 -55.5 t-65.5 -43.5t-73.5 -33t-86.5 -29.5t-82 -28.5q-135 -53 -188 -104q-9 -76 -9 -158q0 -103 41.5 -154t104.5 -51q117 0 200 70.5t89 171.5zM487 12q59 0 94 40t59.5 132t53.5 279q23 165 23 272q0 94 -23 134t-76 40q-63 0 -100.5 -50t-66.5 -177q-66 -278 -66 -498 q0 -97 24 -134.5t78 -37.5zM1051 424q43 34 127 72q42 19 75 62.5t49.5 94t24.5 93.5t8 75t-6.5 52t-19.5 27t-18.5 8t-16.5 1q-48 0 -93.5 -67t-79 -177t-50.5 -241z" />
<glyph unicode="&#x178;" horiz-adv-x="1423" d="M295 0l4 31h160l45 309q24 166 -7 333t-101.5 318.5t-188.5 331.5h-125l4 31h737l-4 -31h-176q219 -314 258 -723q52 156 151.5 317t211.5 291q23 27 29 52.5t-12.5 44t-63.5 18.5h-82l4 31h379l-5 -31h-40q-18 0 -36.5 -7t-30 -13t-33.5 -27.5t-30 -31t-38 -42.5 q-93 -104 -172 -219.5t-149.5 -273t-92.5 -306.5l-53 -372h159l-4 -31h-698zM1057 1673q0 68 49 115t119 47q67 0 114 -47t47 -115q0 -70 -46.5 -118t-114.5 -48q-71 0 -119.5 48t-48.5 118zM668 1507q-69 0 -116.5 48t-47.5 118q0 68 47.5 115t116.5 47t116 -47t47 -115 q0 -70 -47 -118t-116 -48z" />
<glyph unicode="&#x2c6;" d="M219 1079l299 453h119l199 -453h-281l-109 287l-190 -287h-37z" />
<glyph unicode="&#x2dc;" d="M182 1112h-32q23 150 94.5 232.5t175.5 82.5q47 0 91 -19t72.5 -42t67.5 -42t76 -19q51 0 91.5 29.5t51.5 92.5h33q-24 -152 -95 -233.5t-169 -81.5q-40 0 -83.5 19t-75.5 42.5t-75 42.5t-83 19q-49 0 -88.5 -29.5t-51.5 -93.5z" />
<glyph unicode="&#x2000;" horiz-adv-x="932" />
<glyph unicode="&#x2001;" horiz-adv-x="1864" />
<glyph unicode="&#x2002;" horiz-adv-x="932" />
<glyph unicode="&#x2003;" horiz-adv-x="1864" />
<glyph unicode="&#x2004;" horiz-adv-x="621" />
<glyph unicode="&#x2005;" horiz-adv-x="466" />
<glyph unicode="&#x2006;" horiz-adv-x="310" />
<glyph unicode="&#x2007;" horiz-adv-x="310" />
<glyph unicode="&#x2008;" horiz-adv-x="233" />
<glyph unicode="&#x2009;" horiz-adv-x="372" />
<glyph unicode="&#x200a;" horiz-adv-x="103" />
<glyph unicode="&#x2010;" horiz-adv-x="714" d="M70 383l39 235h516l-39 -235h-516z" />
<glyph unicode="&#x2011;" horiz-adv-x="714" d="M70 383l39 235h516l-39 -235h-516z" />
<glyph unicode="&#x2012;" horiz-adv-x="714" d="M70 383l39 235h516l-39 -235h-516z" />
<glyph unicode="&#x2013;" horiz-adv-x="1255" d="M98 395v189h1024v-189h-1024z" />
<glyph unicode="&#x2014;" horiz-adv-x="2279" d="M98 395v189h2048v-189h-2048z" />
<glyph unicode="&#x2018;" horiz-adv-x="518" d="M575 1468l-4 -30q-135 0 -227 -71.5t-92 -164.5q0 -75 66.5 -123.5t187.5 -58.5q-14 -112 -60.5 -159.5t-123.5 -47.5q-89 0 -143 55.5t-54 169.5q0 179 128.5 304.5t321.5 125.5z" />
<glyph unicode="&#x2019;" horiz-adv-x="532" d="M121 817l4 31q135 0 227 71t92 164q0 75 -66.5 124t-187.5 59q14 112 61 159.5t124 47.5q89 0 142.5 -56t53.5 -170q0 -179 -128.5 -304.5t-321.5 -125.5z" />
<glyph unicode="&#x201a;" horiz-adv-x="524" d="M-59 -311l4 30q135 0 227 71.5t92 164.5q0 75 -66.5 123.5t-187.5 58.5q14 112 61 159.5t124 47.5q89 0 142.5 -55.5t53.5 -169.5q0 -179 -128.5 -304.5t-321.5 -125.5z" />
<glyph unicode="&#x201c;" horiz-adv-x="968" d="M575 1468l-4 -30q-135 0 -227 -71.5t-92 -164.5q0 -75 66.5 -123.5t187.5 -58.5q-14 -112 -60.5 -159.5t-123.5 -47.5q-89 0 -143 55.5t-54 169.5q0 179 128.5 304.5t321.5 125.5zM1026 1468l-4 -30q-135 0 -227.5 -71.5t-92.5 -164.5q0 -75 66.5 -123.5t187.5 -58.5 q-14 -112 -60.5 -159.5t-123.5 -47.5q-89 0 -143 55.5t-54 169.5q0 179 129 304.5t322 125.5z" />
<glyph unicode="&#x201d;" horiz-adv-x="987" d="M121 817l4 31q135 0 227 71t92 164q0 75 -66.5 124t-187.5 59q14 112 61 159.5t124 47.5q89 0 142.5 -56t53.5 -170q0 -179 -128.5 -304.5t-321.5 -125.5zM573 817l5 31q135 0 227 71t92 164q0 75 -66.5 124t-187.5 59q14 112 60.5 159.5t123.5 47.5q89 0 143 -56 t54 -170q0 -179 -129 -304.5t-322 -125.5z" />
<glyph unicode="&#x201e;" horiz-adv-x="974" d="M-59 -311l4 30q135 0 227 71.5t92 164.5q0 75 -66.5 123.5t-187.5 58.5q14 112 61 159.5t124 47.5q89 0 142.5 -55.5t53.5 -169.5q0 -179 -128.5 -304.5t-321.5 -125.5zM391 -311l4 30q135 0 227.5 71.5t92.5 164.5q0 75 -66.5 123.5t-187.5 58.5q14 112 60.5 159.5 t123.5 47.5q89 0 143 -55.5t54 -169.5q0 -179 -129 -304.5t-322 -125.5z" />
<glyph unicode="&#x2022;" horiz-adv-x="999" d="M487 113q-155 0 -268 113t-113 270q0 155 113 268t268 113q157 0 270 -113t113 -268q0 -157 -113 -270t-270 -113z" />
<glyph unicode="&#x2026;" horiz-adv-x="1554" d="M16 168q0 75 54 126.5t129 51.5t126.5 -51.5t51.5 -126.5q0 -77 -51.5 -129.5t-126.5 -52.5t-129 53t-54 129zM545 168q0 75 53.5 126.5t130.5 51.5q74 0 125 -51.5t51 -126.5q0 -76 -51 -129t-125 -53q-77 0 -130.5 53t-53.5 129zM1071 168q0 75 53.5 126.5t130.5 51.5 q74 0 126.5 -51.5t52.5 -126.5q0 -76 -52.5 -129t-126.5 -53q-77 0 -130.5 53t-53.5 129z" />
<glyph unicode="&#x202f;" horiz-adv-x="372" />
<glyph unicode="&#x2039;" horiz-adv-x="552" d="M414 39l-21 -23q-165 126 -252.5 236.5t-87.5 212.5q0 205 434 450l15 -28q-2 -2 -24 -16.5t-37 -26.5t-34.5 -37.5t-29.5 -54.5q-43 -252 -43 -488q0 -68 8.5 -105.5t21 -57t50.5 -62.5z" />
<glyph unicode="&#x203a;" horiz-adv-x="555" d="M37 16l-17 29q1 0 15.5 9t22.5 14.5t23.5 18.5t25.5 24.5t21 30t17 38.5q43 219 43 488q0 67 -8 104.5t-21 58t-50 62.5l20 22q165 -126 253.5 -236.5t88.5 -211.5q0 -103 -110.5 -217.5t-323.5 -233.5z" />
<glyph unicode="&#x205f;" horiz-adv-x="466" />
<glyph unicode="&#x20ac;" horiz-adv-x="1218" d="M49 469l4 31h142q3 74 18 147h-143l4 31h147q40 137 123 242q88 108 215.5 166.5t278.5 58.5q147 0 229 -90q37 5 59 22.5t48 52.5h26q-66 -188 -76 -266l-14 -102h-31q11 91 11 106q0 115 -64.5 179.5t-163.5 64.5q-79 0 -126.5 -44t-84.5 -161q-29 -95 -57 -229h364 l-4 -31h-364q-15 -92 -21 -147h365l-4 -31h-365q-8 -84 -8 -193q0 -78 16 -129t46 -74.5t60 -31.5t71 -8q58 0 109 24t86 62.5t58 85.5t31 96l31 -4q-3 -20 -9 -41.5t-19.5 -53t-32.5 -60t-50 -58t-69 -50.5t-93.5 -34.5t-119.5 -13.5q-214 0 -345 129.5t-132 353.5h-146z " />
<glyph unicode="&#x2122;" horiz-adv-x="1914" d="M911 723v31h29q34 0 49 15.5t15 47.5v506h-97v31h348l136 -322l131 322h333v-31h-96v-569h96v-31h-421v31h88v518l-228 -549h-30l-230 551v-457q0 -32 15 -47.5t49 -15.5h28v-31h-215zM307 723v31h101v569h-56q-58 0 -72 -9q-22 -13 -30 -82q-2 -25 -6 -77h-31v199h627 v-199h-31q-6 107 -16.5 137.5t-40.5 30.5h-107v-569h100v-31h-438z" />
<glyph unicode="&#x25fc;" horiz-adv-x="931" d="M0 932h932v-932h-932v932z" />
</font>
</defs>
</svg>
