<?xml version="1.0" standalone="no"?>
<!DOCTYPE svg PUBLIC "-//W3C//DTD SVG 1.1//EN" "http://www.w3.org/Graphics/SVG/1.1/DTD/svg11.dtd" >
<svg xmlns="http://www.w3.org/2000/svg">
<metadata></metadata>
<defs>
<font id="questa_grandemedium" horiz-adv-x="1105" >
<font-face units-per-em="2048" ascent="1536" descent="-512" />
<missing-glyph horiz-adv-x="454" />
<glyph unicode="&#xfb01;" horiz-adv-x="1181" d="M43 0v31h135v860h-135v31h135v120q0 218 117 336.5t340 118.5q163 0 257.5 -51.5t94.5 -136.5q0 -66 -46.5 -108t-127.5 -42q-48 0 -106 15v16q56 -10 82 25.5t26 105.5q0 66 -50 107.5t-136 41.5q-121 0 -171 -78.5t-50 -254.5v-215h606v-891h137v-31h-504v31h137v860 h-376v-860h157v-31h-522z" />
<glyph unicode="&#xfb02;" horiz-adv-x="1187" d="M43 0v31h135v860h-135v31h135v139q0 202 116 319t308 117q88 0 164 -27h256v-1439h135v-31h-500v31h136v1306q-3 53 -54.5 92t-122.5 39q-113 0 -160.5 -73t-47.5 -246v-227h231v-31h-231v-860h157v-31h-522z" />
<glyph unicode="&#xfb03;" horiz-adv-x="1816" d="M43 0v31h135v860h-135v31h135v139q0 182 101.5 288.5t285.5 106.5q115 0 190.5 -50.5t75.5 -133.5q0 -67 -41 -106.5t-120 -39.5q-66 0 -99 13v16q55 -10 87 29.5t32 99.5q0 65 -35 105.5t-92 40.5q-84 0 -119.5 -69t-35.5 -220v-219h411v98q0 227 117 352t340 125 q160 0 254 -51.5t94 -136.5q0 -66 -46.5 -108t-127.5 -42q-49 0 -107 15v16q56 -10 82.5 25.5t26.5 105.5q0 66 -48.5 107.5t-133.5 41.5q-122 0 -171.5 -87.5t-49.5 -290.5v-170h602v-891h135v-31h-500v31h135v860h-372v-860h157v-31h-522v31h135v860h-411v-860h157v-31 h-522z" />
<glyph unicode="&#xfb04;" horiz-adv-x="1828" d="M43 0v31h135v860h-135v31h135v139q0 182 99 288.5t278 106.5q115 0 192.5 -50.5t77.5 -133.5q0 -65 -45 -105.5t-125 -40.5q-52 0 -90 13v16q39 -7 65 12.5t35 49t9 67.5q0 65 -31.5 105.5t-83.5 40.5q-83 0 -117 -68.5t-34 -220.5v-219h411v139q0 202 115.5 319 t306.5 117q90 0 166 -27h256v-1439h135v-31h-502v31h138v1306q-3 53 -55 92t-122 39q-113 0 -160.5 -73t-47.5 -246v-227h229v-31h-229v-860h155v-31h-520v31h135v860h-411v-860h157v-31h-522z" />
<glyph horiz-adv-x="0" />
<glyph horiz-adv-x="682" />
<glyph unicode=" "  horiz-adv-x="454" />
<glyph unicode="&#x09;" horiz-adv-x="454" />
<glyph unicode="&#xa0;" horiz-adv-x="454" />
<glyph unicode="!" horiz-adv-x="493" d="M260 410h-31q0 142 -20 283.5t-43.5 232t-43.5 174.5t-20 125q0 76 41 116.5t105 40.5q62 0 102.5 -40.5t40.5 -116.5q0 -41 -20.5 -125.5t-45 -174.5t-45 -231.5t-20.5 -283.5zM111 127q0 55 40.5 96t96.5 41t96.5 -41t40.5 -96t-40.5 -96t-96.5 -41t-96.5 41t-40.5 96z " />
<glyph unicode="&#x22;" horiz-adv-x="731" d="M213 903h-29q-27 87 -60.5 243.5t-33.5 225.5q0 61 30.5 92t78.5 31q47 0 76.5 -31t29.5 -92q0 -69 -32.5 -226.5t-59.5 -242.5zM549 903h-29q-27 87 -60.5 243.5t-33.5 225.5q0 61 30.5 92t78.5 31q47 0 76.5 -31t29.5 -92q0 -69 -32.5 -226.5t-59.5 -242.5z" />
<glyph unicode="#" horiz-adv-x="1273" d="M258 -123l104 488h-301l7 30h301l75 355h-315l4 30h318l106 490h29l-105 -490h398l106 490h29l-105 -490h303l-6 -30h-303l-76 -355h320l-6 -30h-320l-104 -488h-31l105 488h-398l-104 -488h-31zM399 395h398l75 355h-397z" />
<glyph unicode="$" d="M207 0h-27q19 70 19 236v110h30v-49q0 -95 63.5 -169.5t172.5 -100.5v452q-64 24 -110.5 50t-89 66t-65 97t-22.5 129q0 76 24.5 136t67.5 96t91 57t104 29v151h31v-147q7 0 21.5 1t21.5 1q39 0 77 -6v151h31v-157q93 -19 154 -80q57 9 82 77h26q-26 -79 -26 -223v-123 h-31v64q0 88 -51.5 158t-153.5 96v-451q52 -18 91 -36.5t80 -47.5t67.5 -63t43.5 -82.5t17 -106.5q0 -126 -80.5 -213.5t-218.5 -109.5v-164h-31v160q-8 0 -24.5 -1t-24.5 -1q-37 0 -71 6v-164h-31v168q-99 21 -166 82q-69 -5 -92 -78zM647 416v-393q94 15 147.5 67.5 t53.5 134.5q0 69 -52 112.5t-149 78.5zM465 713v395q-88 -15 -139.5 -68.5t-51.5 -136.5q0 -69 49 -112t142 -78zM616 662v446q-37 6 -79 6q-7 0 -21 -1t-20 -1v-410q22 -8 63 -21.5t57 -18.5zM616 18v408q-1 0 -120 41v-444q40 -7 73 -7q31 0 47 2z" />
<glyph unicode="%" horiz-adv-x="1572" d="M352 0l848 1354h39l-850 -1354h-37zM877 297q0 132 92.5 223.5t224.5 91.5q134 0 226.5 -91.5t92.5 -223.5q0 -133 -92.5 -225t-226.5 -92q-132 0 -224.5 92t-92.5 225zM1194 10q120 0 203.5 83.5t83.5 203.5q0 119 -83.5 202t-203.5 83q-118 0 -201.5 -83t-83.5 -202 q0 -120 83 -203.5t202 -83.5zM59 1057q0 132 93 223.5t225 91.5q134 0 226.5 -91.5t92.5 -223.5q0 -133 -92.5 -225.5t-226.5 -92.5q-132 0 -225 92.5t-93 225.5zM377 770q120 0 203.5 83.5t83.5 203.5q0 119 -83.5 201.5t-203.5 82.5q-119 0 -202 -83t-83 -201 q0 -120 83 -203.5t202 -83.5z" />
<glyph unicode="&#x26;" horiz-adv-x="1431" d="M1030 274l72 -90q55 -70 81.5 -92t61.5 -22q58 0 84 49q27 52 27 143h28q0 -44 -5 -79.5t-20.5 -73.5t-41.5 -64t-71 -42.5t-105 -16.5q-83 0 -141 30.5t-123 98.5q-144 -129 -353 -129q-117 0 -212 39.5t-154.5 121t-59.5 193.5q0 68 22 125.5t67 106t90 83.5t114 80 q-57 79 -86 148t-29 149q0 152 110 244t292 92q164 0 249 -59t85 -154q0 -85 -60.5 -129.5t-144.5 -44.5q-143 0 -143 115h30q0 -76 70 -76q45 0 69.5 32t24.5 89q0 80 -44.5 140t-137.5 60q-99 0 -149 -64.5t-50 -156.5q0 -143 139 -317l394 -502q46 81 74 176.5t28 179.5 q0 25 -3.5 42t-15 35t-38 27t-66.5 9h-61v31h399v-31h-63q-40 0 -65.5 -8.5t-37 -25t-15 -31.5t-3.5 -37q0 -82 -26.5 -187t-86.5 -207zM858 135l-22 27l-416 536l-12 17q-103 -100 -103 -262q0 -57 13 -112.5t40.5 -106t66.5 -88.5t96 -60.5t124 -22.5q130 0 213 72z" />
<glyph unicode="'" horiz-adv-x="395" d="M213 903h-29q-27 87 -60.5 243.5t-33.5 225.5q0 61 30.5 92t78.5 31q47 0 76.5 -31t29.5 -92q0 -69 -32.5 -226.5t-59.5 -242.5z" />
<glyph unicode="(" horiz-adv-x="583" d="M563 -449l-24 -20q-201 195 -331 456.5t-130 528.5q0 185 67 370t168 327t228 253l22 -22q-261 -274 -264 -668v-444q0 -255 62.5 -444t201.5 -337z" />
<glyph unicode=")" horiz-adv-x="583" d="M45 -469l-25 20q139 149 202 338t63 443v444q-3 393 -265 668l23 22q127 -111 228 -253t168 -327t67 -370q0 -267 -130 -528.5t-331 -456.5z" />
<glyph unicode="*" horiz-adv-x="1124" d="M580 1057h-31q0 77 -21 144t-42 114.5t-21 77.5q0 52 27.5 75t70.5 23q42 0 69 -23.5t27 -72.5q0 -30 -19.5 -77.5t-39.5 -114.5t-20 -146zM510 1034l-8 -28q-79 26 -174 26q-26 0 -64 -4t-51 -4q-64 0 -95.5 27t-31.5 65q0 42 25.5 72.5t64.5 30.5q33 0 67 -20.5t63 -48 t83.5 -61.5t120.5 -55zM510 961l27 -19q-44 -61 -68 -127.5t-36.5 -119t-26.5 -74.5q-27 -43 -76 -43q-36 0 -69.5 29.5t-33.5 68.5q0 32 16.5 55t46 42t63.5 40t77.5 59.5t79.5 88.5zM580 938l26 18q37 -50 81.5 -88.5t78.5 -59t64 -39.5t46.5 -42.5t16.5 -56.5 q0 -37 -33.5 -64.5t-71.5 -27.5q-48 0 -73 40q-14 22 -27 74.5t-38 118.5t-70 127zM623 997l-9 31q56 19 102.5 46t74.5 51t52.5 46t50 35t54.5 13q43 0 65.5 -32t22.5 -77q0 -31 -20 -54.5t-62 -29.5q-11 -5 -76.5 -1t-95.5 3q-87 -4 -159 -31z" />
<glyph unicode="+" d="M539 0v481h-445v31h445v473h30v-473h443v-31h-443v-481h-30z" />
<glyph unicode="," horiz-adv-x="516" d="M104 -299v31q90 0 159 57t69 152q0 74 -59 119.5t-177 45.5q0 72 40.5 116t111.5 44q83 0 126.5 -59t43.5 -154q0 -150 -91.5 -251t-222.5 -101z" />
<glyph unicode="-" horiz-adv-x="761" d="M123 401v172h516v-172h-516z" />
<glyph unicode="." horiz-adv-x="471" d="M98 127q0 55 41 96t97 41q57 0 97 -40.5t40 -96.5t-40 -96.5t-97 -40.5q-56 0 -97 41t-41 96z" />
<glyph unicode="/" horiz-adv-x="815" d="M51 -463l682 1938l29 -9l-682 -1937z" />
<glyph unicode="0" horiz-adv-x="1046" d="M543 -14q-208 0 -327.5 138t-119.5 363q0 230 122 371t337 141q191 0 294 -132.5t103 -364.5q0 -235 -105.5 -375.5t-303.5 -140.5zM604 29q85 0 154 52t110 142q52 116 52 279q0 165 -54 276q-39 80 -108.5 128t-151.5 48q-97 0 -159 -62.5t-86.5 -161t-24.5 -234.5 q0 -103 14.5 -185.5t45.5 -147t83.5 -99.5t124.5 -35z" />
<glyph unicode="1" horiz-adv-x="823" d="M74 0v31h252v868q-133 -25 -252 -25v31q105 0 224.5 19.5t187.5 39.5l67 19v-952h246v-31h-725z" />
<glyph unicode="2" horiz-adv-x="1046" d="M53 0v31q32 21 96.5 61t102 63.5t95 65t92 74t75.5 81t63.5 95.5t38 108t15.5 128q0 266 -193 266q-88 0 -136 -48.5t-48 -138.5q0 -77 29.5 -117t83.5 -28v-16q-38 -11 -91 -11q-82 0 -132 44t-50 118q0 103 94.5 163t266.5 60q121 0 214 -30t148 -92t55 -150 q0 -33 -9.5 -66t-23.5 -61.5t-40 -61t-49 -57.5t-61.5 -57t-66.5 -54t-75 -54.5t-76 -51.5t-80.5 -52.5t-77.5 -51.5h510q40 0 65 44t52 171h33q-14 -48 -35 -163.5t-29 -211.5h-856z" />
<glyph unicode="3" horiz-adv-x="985" d="M338 20v-16q-50 7 -77.5 -28t-27.5 -101q0 -91 48.5 -134.5t148.5 -43.5q126 0 173.5 77.5t47.5 237.5q0 177 -60 257.5t-185 80.5h-99v31h99q212 0 212 317q0 149 -43.5 212t-142.5 63q-184 0 -184 -182q0 -72 29 -112.5t81 -27.5v-16q-36 -12 -82 -12 q-87 0 -138.5 41.5t-51.5 111.5q0 103 94 163t262 60q194 0 305 -81.5t111 -229.5q0 -127 -85.5 -201t-262.5 -112v-4q383 -47 383 -330q0 -169 -124.5 -270t-340.5 -101q-159 0 -255.5 55t-96.5 154q0 69 54 110.5t130 41.5q34 0 78 -11z" />
<glyph unicode="4" horiz-adv-x="1069" d="M416 -317v30h145v367h-532v33l682 878h63v-880h96q30 0 45.5 44t39.5 168q6 34 10 52h32q-24 -169 -28 -273v-22h-195v-367h127v-30h-485zM66 111h495v639z" />
<glyph unicode="5" horiz-adv-x="974" d="M344 20v-16q-51 7 -77.5 -27.5t-26.5 -101.5q0 -91 44 -134.5t138 -43.5q62 0 106 25t69.5 73t36.5 110t11 144q0 188 -76.5 286.5t-230.5 98.5h-172l14 551h611l26 111l31 -2q-43 -165 -51 -306h-592l-8 -323h157q80 0 153.5 -13t143 -43.5t120.5 -76t81.5 -114.5 t30.5 -155q0 -170 -121 -281.5t-342 -111.5q-149 0 -243.5 55.5t-94.5 151.5q0 72 53.5 113t130.5 41q16 0 35.5 -2.5t30.5 -5.5z" />
<glyph unicode="6" horiz-adv-x="1091" d="M342 547q2 -91 6 -156.5t13 -130t24.5 -107t39 -76.5t58 -49.5t80.5 -15.5q111 0 154 97t43 305q0 92 -8 156.5t-26.5 113.5t-53 72.5t-84.5 23.5q-100 0 -167.5 -70.5t-78.5 -162.5zM709 1030v17q47 -12 70.5 31t23.5 98q0 78 -45.5 121.5t-134.5 43.5 q-55 0 -98.5 -20.5t-73 -54t-50.5 -87.5t-33 -109t-18.5 -130.5t-8 -141t-1.5 -151.5q90 172 293 172q71 0 133 -22t113.5 -67.5t81.5 -125t30 -184.5q0 -111 -35.5 -196.5t-97.5 -136t-138 -76t-163 -25.5q-451 0 -451 659q0 113 14 211.5t50.5 194.5t93.5 164.5 t149.5 110.5t211.5 42q153 0 244.5 -56.5t91.5 -144.5q0 -25 -8.5 -49.5t-27 -47.5t-53 -37.5t-81.5 -14.5q-23 0 -43.5 3t-29.5 6z" />
<glyph unicode="7" horiz-adv-x="929" d="M166 -317v30h131q2 62 13 122t36 128t49.5 124.5t72 145.5t84.5 154t107 187t119 210h-538q-40 0 -61 -14t-41.5 -61t-47.5 -152h-31q29 178 29 330v98h807v-51q-20 -36 -57 -102q-108 -192 -154.5 -284t-98 -233t-64.5 -279t-5 -323h146v-30h-496z" />
<glyph unicode="8" horiz-adv-x="1011" d="M360 662q-108 71 -167.5 153t-59.5 201q0 157 109 254.5t282 97.5q151 0 245.5 -83t94.5 -210q0 -53 -20 -102.5t-53.5 -87.5t-69 -66t-76.5 -51q47 -30 82.5 -56t73 -62.5t61 -74.5t38.5 -88t15 -106q0 -170 -124 -282.5t-310 -112.5q-168 0 -274.5 92t-106.5 235 q0 63 24.5 120t65.5 100t82.5 74t87.5 55zM453 606l-64 37q-44 -22 -83.5 -50t-81 -69t-66.5 -96t-25 -115q0 -131 97.5 -214t248.5 -83q126 0 207.5 67.5t81.5 182.5q0 26 -5 50t-12 43.5t-22.5 40t-26.5 35t-34.5 33.5t-36.5 29.5t-42.5 28.5t-43 26.5t-46.5 27.5t-46 26z M578 809l38 -25q36 20 69 45t68 61.5t56.5 84t21.5 98.5q0 118 -86.5 191t-218.5 73q-108 0 -176.5 -56.5t-68.5 -154.5q0 -41 15.5 -78t35 -62.5t60.5 -57t68 -48.5t81 -49q25 -15 37 -22z" />
<glyph unicode="9" horiz-adv-x="1073" d="M739 444q-2 88 -6 151.5t-12.5 128t-24.5 106.5t-39.5 76.5t-58 50.5t-80.5 16q-112 0 -154 -95t-42 -303q0 -177 38 -263.5t134 -86.5q98 0 166 65.5t79 153.5zM387 20v-16q-50 10 -76 -31t-26 -104q0 -172 186 -172q52 0 92.5 17.5t69 46.5t48.5 76.5t32 98.5 t18.5 122.5t8 137t1.5 152.5q-91 -162 -288 -162q-72 0 -135 21.5t-115 66t-82.5 122t-30.5 179.5q0 108 35.5 191.5t97 133t137.5 74.5t162 25q100 0 178.5 -33t130 -90t85 -139.5t47.5 -176t14 -204.5q0 -108 -13 -200.5t-48 -184.5t-90.5 -156.5t-146.5 -104.5t-210 -40 q-152 0 -247 56.5t-95 150.5q0 69 51 111.5t137 42.5q18 0 36 -2.5t27 -5.5z" />
<glyph unicode=":" horiz-adv-x="520" d="M260 664q-56 0 -96.5 41t-40.5 96q0 54 41 94.5t96 40.5t96 -40.5t41 -94.5q0 -55 -40.5 -96t-96.5 -41zM123 127q0 55 40.5 96t96.5 41t96.5 -41t40.5 -96t-40.5 -96t-96.5 -41t-96.5 41t-40.5 96z" />
<glyph unicode=";" horiz-adv-x="552" d="M291 664q-55 0 -96 41t-41 96q0 54 41 94.5t96 40.5t96 -40.5t41 -94.5q0 -55 -41 -96t-96 -41zM115 -299v31q90 0 159.5 57t69.5 152q0 75 -58.5 120t-176.5 45q0 72 39 116t110 44q83 0 126.5 -59.5t43.5 -155.5q0 -150 -90.5 -250t-222.5 -100z" />
<glyph unicode="&#x3c;" d="M92 477v31l885 473l14 -29l-860 -460l858 -461l-12 -29z" />
<glyph unicode="=" d="M94 664v30h918v-30h-918zM94 297v31h918v-31h-918z" />
<glyph unicode="&#x3e;" d="M129 2l-12 29l856 461l-858 460l14 29l885 -473v-31z" />
<glyph unicode="?" horiz-adv-x="972" d="M332 127q0 55 41 96t96 41t96 -41t41 -96t-41 -96t-96 -41t-96 41t-41 96zM610 549h31q0 -55 -40 -97t-109 -42q-68 0 -113 40t-45 109q0 40 18 72.5t47 57t64 50t70 58t64 73t47 103.5t18 141q0 116 -47 179t-169 63q-118 0 -172.5 -58.5t-54.5 -154.5q0 -154 92 -154 q37 0 68 26t31 70h30q0 -53 -38 -93t-123 -40q-92 0 -156 49t-64 142q0 110 108 174.5t288 64.5q207 0 331.5 -77t124.5 -211q0 -58 -23.5 -107.5t-59.5 -83t-87.5 -65t-97 -51.5t-98.5 -45.5t-84 -45.5q-94 -61 -94 -135q0 -52 34.5 -86.5t90.5 -34.5q47 0 82.5 27.5 t35.5 81.5z" />
<glyph unicode="@" horiz-adv-x="1660" d="M1032 -279l4 -30q-96 -17 -194 -17q-147 0 -271.5 42.5t-211.5 115.5t-148.5 169.5t-91 204.5t-29.5 222q0 125 35 243.5t103.5 218.5t161.5 176t216.5 118.5t261.5 42.5q204 0 362.5 -90t244.5 -248.5t86 -358.5q0 -101 -23 -194t-67 -169t-116.5 -121.5t-162.5 -45.5 q-207 0 -207 213h-8q-56 -213 -232 -213q-66 0 -125.5 25.5t-109 76t-78.5 138.5t-29 202q0 112 32 203t86 148t121.5 87.5t141.5 30.5q94 0 148 -38t88 -103q101 59 154 141h30q-12 -105 -12 -235v-524q0 -105 72 -105q30 0 64.5 19t70.5 59t65 94.5t47.5 134.5t18.5 170 q0 189 -78 341t-229 241.5t-351 89.5q-167 0 -309.5 -63.5t-238 -169.5t-149.5 -244.5t-54 -288.5q0 -110 28.5 -214.5t87.5 -197t143 -162.5t203 -110.5t259 -40.5q99 0 190 16zM778 41q74 0 125 76q44 70 63 187.5t19 225.5q0 112 -14.5 186t-52 118.5t-99.5 44.5 q-40 0 -71 -22.5t-56 -75t-38 -147t-13 -228.5q0 -206 31.5 -285.5t105.5 -79.5z" />
<glyph unicode="A" horiz-adv-x="1263" d="M-43 0v31h41q47 0 77 27t56 94l463 1208h55l543 -1329h100v-31h-506v31h144l-182 444h-461l-123 -323q-22 -55 8.5 -88t101.5 -33h62v-31h-379zM299 506h436l-225 551z" />
<glyph unicode="B" horiz-adv-x="1288" d="M66 0v31h176v1292h-176v31h585q242 0 367 -89t125 -237q0 -120 -87.5 -204.5t-273.5 -121.5v-4q420 -60 420 -333q0 -168 -134.5 -266.5t-401.5 -98.5h-600zM492 709h131q131 0 196.5 65t65.5 227q0 168 -65.5 245t-192.5 77h-135v-614zM492 31h157q149 0 221 83t72 253 q0 167 -73.5 239t-229.5 72h-147v-647z" />
<glyph unicode="C" horiz-adv-x="1263" d="M1149 403h33q0 -49 -13 -102t-46 -110.5t-82 -102t-129 -73.5t-179 -29q-192 0 -338 89t-223.5 247t-77.5 362q0 304 177.5 494t461.5 190q198 0 320 -113q45 0 70.5 21.5t47.5 77.5h27q-9 -33 -24 -135.5t-15 -159.5v-127h-31v78q0 146 -110.5 236.5t-284.5 90.5 q-65 0 -118 -20t-91 -54t-67 -84t-46.5 -106t-29 -124.5t-15.5 -134t-4 -140.5q0 -112 9.5 -203t35 -178t66.5 -146t108 -95t156 -36q141 0 242 66q82 54 126 141t44 180z" />
<glyph unicode="D" horiz-adv-x="1476" d="M66 0v31h176v1292h-176v31h612q183 0 318.5 -46t219 -133.5t124 -206t40.5 -270.5q0 -119 -23.5 -221.5t-77 -191t-133.5 -151.5t-199.5 -98.5t-268.5 -35.5h-612zM492 31h190q430 0 430 645q0 330 -105.5 488.5t-324.5 158.5h-190v-1292z" />
<glyph unicode="E" horiz-adv-x="1206" d="M66 0v31h176v1292h-176v31h1048q-43 -162 -59 -383h-31v203q0 88 -24.5 118.5t-90.5 30.5h-417v-639h319v180h31v-409h-31v198h-319v-622h415q26 0 46.5 8.5t35.5 21.5t28 40.5t21.5 52t18 71t15 82t15.5 99.5h33q-30 -187 -30 -406h-1024z" />
<glyph unicode="F" horiz-adv-x="1140" d="M66 0v31h176v1292h-176v31h1040q-43 -162 -59 -383h-31v203q0 88 -24.5 118.5t-90.5 30.5h-409v-639h329v180h31v-409h-31v198h-329v-622h178v-31h-604z" />
<glyph unicode="G" horiz-adv-x="1382" d="M1231 0h-31q0 1 -3.5 8l-6.5 13t-8.5 15.5t-12 17.5t-14 16t-17.5 14.5t-20 9.5q-133 -108 -387 -108q-285 0 -461 188.5t-176 503.5q0 313 179.5 501.5t484.5 188.5q197 0 319 -113q45 0 71.5 21.5t47.5 77.5h27q-10 -35 -24.5 -137t-14.5 -158v-127h-31v78 q0 146 -110.5 236.5t-284.5 90.5q-90 0 -159 -33.5t-113.5 -92t-72.5 -145t-39.5 -184t-11.5 -218.5q0 -648 367 -648q53 0 100.5 12.5t87.5 38.5t63.5 71t23.5 104v286h-197v31h545v-31h-121v-528z" />
<glyph unicode="H" horiz-adv-x="1654" d="M66 0v31h176v1292h-176v31h604v-31h-178v-627h671v627h-176v31h604v-31h-178v-1292h178v-31h-604v31h176v635h-671v-635h178v-31h-604z" />
<glyph unicode="I" horiz-adv-x="733" d="M66 0v31h176v1292h-176v31h604v-31h-178v-1292h178v-31h-604z" />
<glyph unicode="J" horiz-adv-x="704" d="M-84 -270v30q44 -2 81.5 2t66.5 15t52.5 24t40 35t29 42t20 50.5t12.5 56t7.5 63t3 66t0.5 70.5v1139h-176v31h604v-31h-178v-979q0 -94 -14.5 -178t-53.5 -169t-100 -144.5t-162.5 -94.5t-232.5 -28z" />
<glyph unicode="K" horiz-adv-x="1359" d="M66 0v31h176v1292h-176v31h604v-31h-178v-602h75l492 502q23 23 27.5 45.5t-15.5 38.5t-65 16h-72v31h379v-31h-33q-46 0 -81.5 -19t-82.5 -67l-375 -381l574 -825h82v-31h-561v31h172l-455 659h-61v-659h178v-31h-604z" />
<glyph unicode="L" horiz-adv-x="1150" d="M66 0v31h176v1292h-176v31h604v-31h-178v-1292h405q23 0 42 5t34.5 19.5t27 28t22 42.5t17.5 51.5t15.5 66t13.5 74.5t14 88h33q-31 -183 -31 -406h-1019z" />
<glyph unicode="M" horiz-adv-x="1761" d="M59 0v31h62q65 0 94 31t29 92v1169h-176v31h444l389 -1026l365 1026h432v-31h-178v-1292h178v-31h-611v31h183v1241l-453 -1272h-55l-488 1274v-1120q0 -61 28 -92t93 -31h64v-31h-400z" />
<glyph unicode="N" horiz-adv-x="1458" d="M70 0v31h61q65 0 94 31t29 92v1060l-10 15q-36 50 -67.5 72t-90.5 22h-37v31h406l739 -983v829q0 61 -29 92t-94 31h-61v31h399v-31h-63q-65 0 -93 -31t-28 -92v-1208h-56l-884 1182v-1020q0 -61 28 -92t93 -31h63v-31h-399z" />
<glyph unicode="O" horiz-adv-x="1476" d="M739 -14q-137 0 -245.5 35.5t-182 98.5t-122 153t-70 194t-21.5 227q0 319 157.5 496.5t483.5 177.5q324 0 481.5 -177.5t157.5 -496.5q0 -123 -21.5 -227t-70 -194t-121.5 -153t-181.5 -98.5t-244.5 -35.5zM737 12q77 0 137 24t100 70.5t67.5 104.5t42 136t20.5 154.5 t6 170.5q0 88 -3.5 157.5t-14 141t-28 125t-45.5 101.5t-67 78.5t-93 48t-122 17.5q-67 0 -121 -17.5t-92 -48t-66.5 -78.5t-45.5 -101.5t-27.5 -125t-14 -141t-3.5 -157.5q0 -94 6 -170.5t20.5 -154.5t41.5 -136t66.5 -104.5t99.5 -70.5t136 -24z" />
<glyph unicode="P" horiz-adv-x="1232" d="M66 0v31h176v1292h-176v31h567q122 0 217 -20t157 -54t102 -84t56.5 -106t16.5 -123q0 -186 -132.5 -298t-353.5 -112l-75 4v31q28 -4 61 -4q83 0 137 49t76.5 130t22.5 194q0 183 -63 272.5t-224 89.5h-139v-1292h196v-31h-622z" />
<glyph unicode="Q" horiz-adv-x="1472" d="M410 -332h-31q0 33 14.5 62.5t35.5 52.5t64 52.5t78.5 49.5t102.5 56q13 7 54 28.5t68.5 37t51.5 32.5q96 65 149.5 136.5t83 191.5t29.5 305q0 88 -3.5 157.5t-14 141t-28 125t-45.5 101.5t-67 78.5t-93 48t-122 17.5q-67 0 -121 -17.5t-92 -48t-66.5 -78.5 t-45.5 -101.5t-27.5 -125t-14 -141t-3.5 -157.5q0 -448 129 -525q68 -43 155 -43v-30q-112 0 -211 40t-176 115.5t-121.5 195.5t-44.5 269q0 320 158 497t485 177q164 0 286.5 -47.5t199 -136.5t114 -211.5t37.5 -278.5q0 -116 -29 -209.5t-92 -174t-149.5 -148 t-214.5 -142.5q-34 -20 -66 -37t-88 -45.5t-94 -48.5q93 22 201 3.5t188 -49t163.5 -60t127.5 -29.5q54 0 75 32.5t21 104.5h31q0 -290 -258 -290q-68 0 -141.5 21.5t-136 52.5t-120.5 61.5t-114.5 52t-99.5 21.5q-67 0 -118 -40t-54 -102z" />
<glyph unicode="R" horiz-adv-x="1335" d="M63 0v31h179v1292h-179v31h578q512 0 512 -344q0 -277 -401 -332v-4q324 -54 358 -340q3 -25 6 -63.5t5 -62t6 -54t10 -48t15 -35t22.5 -25t31.5 -7.5q39 0 63.5 39.5t24.5 99.5h31q-3 -188 -186 -188q-72 0 -126.5 25t-85 60.5t-51 88t-27.5 94t-11 92.5q-2 33 -4 53 t-7.5 56t-13 59.5t-21 53t-31 46.5t-44 29t-58.5 12h-167v-628h176v-31h-605zM492 690h163q129 0 181.5 73.5t52.5 233.5q0 165 -56 245.5t-188 80.5h-153v-633z" />
<glyph unicode="S" horiz-adv-x="1126" d="M152 0h-27q14 141 14 268v174h31v-114q0 -127 116 -219.5t298 -92.5q147 0 240.5 62.5t93.5 177.5q0 56 -27.5 99.5t-73.5 72.5t-105.5 53t-125.5 46t-132.5 46t-126 58t-105.5 77t-73.5 108t-27.5 147q0 183 113.5 294t324.5 111q182 0 289 -94q42 1 65 19.5t41 60.5h27 q-39 -199 -39 -287v-125h-31v121q0 120 -93.5 197t-260.5 77q-157 0 -243.5 -66t-86.5 -181q0 -55 27.5 -98t73.5 -71.5t106 -51.5t126 -44.5t132.5 -45t126.5 -57.5t106 -77.5t73.5 -109.5t27.5 -150q0 -80 -28 -151.5t-81.5 -127t-139.5 -88t-193 -32.5q-200 0 -324 104 q-51 0 -73.5 -22.5t-34.5 -67.5z" />
<glyph unicode="T" horiz-adv-x="1257" d="M328 0v31h176v1292h-250q-78 0 -115 -46t-49 -159l-16 -147h-31q12 184 12 254v129h1149v-129l8 -254h-30l-15 151q-9 107 -44 154t-113 47h-256v-1292h178v-31h-604z" />
<glyph unicode="U" horiz-adv-x="1492" d="M217 569v754h-178v31h608v-31h-178v-754q0 -300 76.5 -426.5t269.5 -126.5q93 0 167 26t123 71.5t81.5 109.5t46.5 137t14 158v682q0 61 -29 92t-94 31h-61v31h399v-31h-63q-65 0 -93 -31t-28 -92v-682q0 -91 -15.5 -169.5t-51 -146t-88.5 -115t-131.5 -74.5t-176.5 -27 q-137 0 -240 25.5t-171 73t-110 120.5t-59.5 161t-17.5 203z" />
<glyph unicode="V" horiz-adv-x="1269" d="M633 -8l-551 1331h-135v31h559v-31h-158l418 -1018l317 901q20 55 -10.5 86t-101.5 31h-62v31h379v-31h-41q-48 0 -79 -27.5t-54 -93.5l-426 -1210h-55z" />
<glyph unicode="W" horiz-adv-x="1953" d="M586 -8l-490 1331h-139v31h565v-31h-168l371 -1012l244 662l-129 350h-150v31h578v-31h-170l368 -1008l312 897q18 54 -12.5 82.5t-102.5 28.5h-61v31h378v-31h-41q-48 0 -79 -27.5t-54 -93.5l-417 -1210h-58l-346 936l-344 -936h-55z" />
<glyph unicode="X" horiz-adv-x="1282" d="M33 0v31h67q45 0 73.5 25t74.5 96l301 462l-430 709h-150v31h588v-31h-162l318 -518l266 407q32 47 9.5 79t-91.5 32h-51v31h379v-31h-68q-45 0 -73 -25t-74 -96l-279 -426l461 -745h131v-31h-580v31h162l-338 555l-288 -445q-32 -47 -10 -78.5t91 -31.5h52v-31h-379z " />
<glyph unicode="Y" horiz-adv-x="1253" d="M338 0v31h176v536l-426 756h-133v31h553v-31h-146l381 -682l301 567q28 50 7.5 82.5t-88.5 32.5h-93v31h379v-31h-26q-47 0 -79 -26t-69 -95l-311 -590v-581h178v-31h-604z" />
<glyph unicode="Z" horiz-adv-x="1220" d="M51 0v33l801 1290h-537q-76 0 -109 -65q-24 -47 -50 -202q-13 -75 -15 -87h-30q14 178 14 385h1016v-33l-807 -1290h584q31 0 54.5 9.5t41.5 34t30 50t24 75.5t19 91t19 115h31q-31 -187 -31 -406h-1055z" />
<glyph unicode="[" horiz-adv-x="622" d="M178 -467v1937h412v-30h-217v-1876h217v-31h-412z" />
<glyph unicode="\" horiz-adv-x="815" d="M735 -471l-682 1937l29 9l682 -1938z" />
<glyph unicode="]" horiz-adv-x="620" d="M33 -467v31h217v1876h-217v30h409v-1937h-409z" />
<glyph unicode="^" horiz-adv-x="1007" d="M63 420l429 934h30l422 -934h-35l-403 889l-408 -889h-35z" />
<glyph unicode="_" horiz-adv-x="1208" d="M92 -31v31h1024v-31h-1024z" />
<glyph unicode="`" horiz-adv-x="1024" d="M604 1077l-24 -16q-43 63 -95.5 116.5t-92.5 84t-75 58.5t-54 55t-19 59q0 38 29.5 65t66.5 27q48 0 76.5 -37.5t42.5 -92t51.5 -147t93.5 -172.5z" />
<glyph unicode="a" horiz-adv-x="1017" d="M631 154h-4q-36 -69 -109 -118.5t-176 -49.5q-53 0 -100.5 12.5t-88.5 38t-65.5 71.5t-24.5 107q0 79 47 138.5t125.5 91.5t168 47.5t188.5 15.5h20v215q0 95 -35 140.5t-124 45.5q-174 0 -174 -155q0 -56 23.5 -88.5t72.5 -24.5v-16q-45 -15 -94 -15q-74 0 -121 35 t-47 98q0 88 89.5 140.5t254.5 52.5q203 0 294 -71t91 -210v-530q0 -45 11.5 -66.5t41.5 -21.5q44 0 67 42t23 99h31q0 -95 -50 -143.5t-135 -48.5q-87 0 -140.5 44.5t-59.5 123.5zM612 215v262h-26q-124 0 -197 -49q-86 -60 -86 -213q0 -180 109 -180q48 0 104 37 q40 29 68 69.5t28 73.5z" />
<glyph unicode="b" horiz-adv-x="1120" d="M145 -14v1454h-137v30h367v-714h4q85 180 295 180q182 0 274 -116.5t92 -330.5q0 -132 -34.5 -231t-96 -157t-140 -86.5t-173.5 -28.5q-197 0 -301 157q-51 -22 -80.5 -66.5t-38.5 -90.5h-31zM375 594v-299q0 -279 217 -279q74 0 117.5 38.5t67.5 142t24 286.5 q0 230 -43 320t-144 90q-102 0 -170.5 -89t-68.5 -210z" />
<glyph unicode="c" horiz-adv-x="907" d="M811 270h31q0 -116 -86 -196q-88 -88 -252 -88q-93 0 -168.5 26.5t-133.5 81.5t-90 146.5t-32 214.5q0 235 117.5 358t326.5 123q143 0 235.5 -54.5t92.5 -144.5q0 -60 -40.5 -103.5t-119.5 -43.5q-45 0 -80 14v17q44 -10 65 27t21 102q0 73 -46.5 116t-127.5 43 q-111 0 -159 -101t-48 -341q0 -250 48 -350.5t165 -100.5q121 0 199 72q82 72 82 182z" />
<glyph unicode="d" horiz-adv-x="1148" d="M760 0v197h-4q-74 -211 -299 -211q-189 0 -283 120.5t-94 339.5q0 231 108.5 360.5t298.5 129.5q102 0 168 -44t97 -112h4v660h-138v30h367v-1439h137v-31h-362zM756 358v260q0 111 -59.5 193t-166.5 82q-112 0 -161.5 -107.5t-49.5 -343.5q0 -225 45 -319t148 -94 q105 0 174.5 97.5t69.5 231.5z" />
<glyph unicode="e" horiz-adv-x="974" d="M319 485v-30q0 -107 10.5 -184.5t29 -126t49 -77t65 -39t82.5 -10.5q119 0 206 69.5t87 180.5h31q-1 -89 -49 -153t-130 -99q-69 -30 -168 -30q-213 0 -333.5 113.5t-120.5 361.5q0 244 116.5 359.5t321.5 115.5q184 0 283.5 -93t99.5 -276v-82h-580zM322 516h350v96 q0 152 -35.5 224.5t-124.5 72.5q-100 0 -142.5 -89.5t-47.5 -303.5z" />
<glyph unicode="f" horiz-adv-x="667" d="M43 0v31h135v860h-135v31h135v180q0 183 103.5 289t291.5 106q129 0 213 -50.5t84 -133.5q0 -65 -45 -105.5t-125 -40.5q-38 0 -90 13v16q39 -7 65 12.5t35 49t9 67.5q0 65 -36.5 105t-100.5 40q-94 0 -134 -69t-40 -219v-260h231v-31h-231v-860h157v-31h-522z" />
<glyph unicode="g" horiz-adv-x="1007" d="M340 -147v-17q-54 9 -79 -21.5t-25 -97.5q0 -88 69 -128t215 -40q107 0 194 22t143 70.5t56 116.5q0 26 -11 46.5t-27.5 35t-47 26.5t-58.5 19t-74 13t-80.5 9t-90.5 7q-191 15 -272 39q-180 60 -184 211q0 78 43 133.5t114 105.5q-100 78 -100 218q0 138 101.5 226.5 t291.5 88.5q180 0 285 -84q35 27 49 54.5t14 72.5q0 56 -24 81.5t-80 22.5v17q29 12 80 12q85 0 123.5 -33.5t38.5 -79.5q0 -35 -26 -65t-52 -45t-85 -44l-18 -9q84 -81 84 -205q0 -140 -105 -223.5t-294 -83.5q-159 0 -258 61q-46 -34 -71 -65.5t-25 -69.5q0 -18 6.5 -33 t20.5 -26t29.5 -19.5t41.5 -14.5t48.5 -10t57.5 -7t61.5 -5t68 -5t69.5 -5q83 -6 144 -16.5t118 -31t92.5 -51t56.5 -77.5t21 -109q0 -86 -38.5 -150t-106 -100.5t-148.5 -53.5t-176 -17q-193 0 -315.5 55.5t-122.5 146.5q0 68 58.5 105t131.5 37q17 0 34 -2.5t26 -4.5z M510 352q94 0 131 67t37 210q0 142 -36 210t-130 68q-92 0 -127 -68.5t-35 -213.5q0 -141 34 -207t126 -66z" />
<glyph unicode="h" horiz-adv-x="1171" d="M27 0v31h135v1409h-137v30h366v-757h4q9 23 19.5 44t37.5 56.5t61 60t90.5 43.5t123.5 19q144 0 216.5 -67t72.5 -214v-624h137v-31h-487v31h120v674q0 99 -28.5 140.5t-98.5 41.5q-56 0 -102.5 -24.5t-76.5 -62.5t-50.5 -84t-29.5 -87.5t-9 -75.5v-522h123v-31h-487z " />
<glyph unicode="i" horiz-adv-x="573" d="M43 0v31h135v860h-135v31h365v-891h135v-31h-500zM154 1257q0 54 38.5 91.5t92.5 37.5q53 0 90 -37.5t37 -91.5q0 -53 -37.5 -91t-89.5 -38q-54 0 -92.5 38t-38.5 91z" />
<glyph unicode="j" horiz-adv-x="538" d="M-90 -475v31q151 0 202.5 93.5t51.5 332.5v909h-135v31h364v-836q0 -561 -483 -561zM141 1257q0 54 37.5 91.5t91.5 37.5q53 0 91 -37.5t38 -91.5q0 -53 -38.5 -91t-90.5 -38q-54 0 -91.5 38t-37.5 91z" />
<glyph unicode="k" horiz-adv-x="1077" d="M27 0v31h137v1409h-137v30h366v-946h41l305 281q37 32 30 59t-58 27h-27v31h334v-31h-41q-103 0 -197 -90l-182 -168l422 -602h80v-31h-426v31h84l-324 463h-41v-463h121v-31h-487z" />
<glyph unicode="l" horiz-adv-x="563" d="M31 0v31h137v1409h-137v30h366v-1439h135v-31h-501z" />
<glyph unicode="m" horiz-adv-x="1810" d="M41 0v31h135v860h-135v31h360v-217h5q11 28 21.5 48.5t38.5 58t61.5 62t90 43.5t123.5 19q137 0 205.5 -57.5t79.5 -173.5h4q11 28 21.5 48.5t39 58t62 62t90 43.5t123.5 19q148 0 218.5 -68.5t70.5 -212.5v-624h137v-31h-487v31h120v674q0 99 -28.5 140.5t-98.5 41.5 q-67 0 -121 -35t-84 -88t-46 -107t-17 -100v-526h129v-31h-479v31h121v674q0 99 -28.5 140.5t-98.5 41.5q-56 0 -102.5 -24.5t-76.5 -62t-50.5 -83.5t-29.5 -88t-9 -78v-520h122v-31h-487z" />
<glyph unicode="n" horiz-adv-x="1185" d="M41 0v31h135v860h-135v31h360v-217h5q11 28 21.5 48.5t38.5 58t61.5 62t90 43.5t123.5 19q144 0 216.5 -67t72.5 -214v-624h137v-31h-487v31h121v674q0 99 -28.5 140.5t-98.5 41.5q-56 0 -102.5 -24.5t-76.5 -62t-50.5 -83.5t-29.5 -88t-9 -78v-520h122v-31h-487z" />
<glyph unicode="o" horiz-adv-x="1077" d="M539 -14q-227 0 -344 124.5t-117 344.5q0 228 114.5 354.5t346.5 126.5q235 0 347.5 -122t112.5 -347q0 -230 -121.5 -355.5t-338.5 -125.5zM539 12q125 0 172 102.5t47 352.5q0 244 -47 343t-172 99q-122 0 -171 -103t-49 -351q0 -241 48.5 -342t171.5 -101z" />
<glyph unicode="p" horiz-adv-x="1148" d="M393 571v-268q0 -111 59 -193.5t166 -82.5q112 0 161.5 108t49.5 344q0 225 -45 319.5t-147 94.5q-106 0 -175 -96.5t-69 -225.5zM27 -467v31h137v1327h-137v31h362v-191h4q79 205 299 205q189 0 283 -120.5t94 -340.5q0 -231 -108.5 -360t-298.5 -129q-192 0 -265 157 h-4v-579h137v-31h-503z" />
<glyph unicode="q" horiz-adv-x="1118" d="M600 -467v31h145v612h-4q-39 -92 -110.5 -141t-188.5 -49q-181 0 -271.5 115t-90.5 329q0 134 35 234t96 158t136 86t163 28q203 0 313 -160q47 19 78 64t43 96h31v-1372h143v-31h-518zM745 358v269q0 278 -217 278q-77 0 -120.5 -39t-66 -140.5t-22.5 -283.5 q0 -157 20.5 -248t59.5 -128t105 -37q74 0 130 47.5t83.5 121t27.5 160.5z" />
<glyph unicode="r" horiz-adv-x="890" d="M41 0v31h135v860h-135v31h360v-217h5q35 98 100 164.5t166 66.5q89 0 148 -50.5t59 -137.5q0 -81 -48.5 -128t-119.5 -47q-32 0 -76 13v16q29 -5 47 16.5t23.5 51.5t5.5 69q0 72 -24 111t-69 39q-77 0 -143 -107q-32 -52 -50.5 -118t-18.5 -111v-522h157v-31h-522z" />
<glyph unicode="s" horiz-adv-x="882" d="M113 -14h-27q20 51 20 231v111h31v-33q0 -124 84 -201.5t232 -77.5q105 0 174 40t69 120q0 36 -20.5 62.5t-55 43t-79.5 29.5t-94.5 25.5t-99 27.5t-94.5 39t-79.5 55.5t-55 82t-20.5 114.5q0 75 29.5 131.5t79 88t107 46.5t120.5 15q147 0 238 -78q60 10 86 78h26 q-28 -57 -28 -191v-104h-31v33q0 40 -16.5 79.5t-50 74t-92.5 56t-134 21.5q-103 0 -169 -39t-66 -116q0 -41 26 -70t68 -45t96.5 -32t110.5 -28t110.5 -35.5t96.5 -53.5t68 -82t26 -121q0 -131 -92.5 -214t-253.5 -83q-164 0 -258 88q-55 -13 -82 -88z" />
<glyph unicode="t" horiz-adv-x="655" d="M156 274v617h-133v31h51q67 0 122 35.5t87.5 89t50.5 109t20 104.5h31v-338h233v-31h-233v-674q0 -92 21.5 -136t80.5 -44q20 0 40 6.5t40.5 22.5t33.5 49.5t13 79.5h31q0 -38 -9.5 -71.5t-32 -66t-69.5 -52t-114 -19.5q-140 0 -202 78.5t-62 209.5z" />
<glyph unicode="u" horiz-adv-x="1175" d="M156 266v625h-136v31h365v-705q0 -99 28.5 -140.5t98.5 -41.5q56 0 102.5 24.5t76.5 62t50.5 83.5t29.5 88t9 78v520h-135v31h365v-891h135v-31h-361v217h-4q-11 -28 -21.5 -48.5t-39 -58t-62 -62t-90 -43.5t-123.5 -19q-148 0 -218 68t-70 212z" />
<glyph unicode="v" horiz-adv-x="1019" d="M492 -6l-394 897h-110v31h485v-31h-133l276 -637l205 514q49 123 -82 123h-41v31h326v-31h-20q-47 0 -84 -25.5t-54 -68.5l-319 -803h-55z" />
<glyph unicode="w" horiz-adv-x="1544" d="M463 -6l-367 897h-104v31h477v-31h-133l250 -625l245 656h56l280 -656l181 500q22 63 2 94t-86 31h-41v31h325v-31h-22q-48 0 -84 -25t-51 -69l-287 -803h-55l-283 668l-248 -668h-55z" />
<glyph unicode="x" horiz-adv-x="985" d="M10 0v31h39q52 0 86 25t70 75l196 277l-303 483h-94v31h467v-31h-117l211 -332l156 219q80 113 -45 113h-45v31h319v-31h-26q-52 0 -86 -25t-70 -75l-186 -261l317 -499h98v-31h-483v31h127l-221 350l-170 -238q-39 -54 -29.5 -83t74.5 -29h47v-31h-332z" />
<glyph unicode="y" horiz-adv-x="1019" d="M258 -195v-16q-63 -9 -63 -113q0 -127 100 -127q94 0 151 78q49 67 66 189l23 155l-437 920h-104v31h495v-31h-141l289 -617l188 496q46 121 -84 121h-41v31h326v-31h-31q-40 0 -76 -26t-51 -68l-295 -777l-28 -192q-8 -53 -17.5 -91.5t-29 -82t-46 -71t-70.5 -46 t-101 -18.5q-60 0 -111 14t-88 50t-37 89q0 60 52 96.5t161 36.5z" />
<glyph unicode="z" horiz-adv-x="913" d="M55 0v33l539 858h-336q-60 0 -88 -47t-37 -154l-8 -88h-33q10 135 10 180v140h744v-33l-549 -858h379q55 0 80.5 46t34.5 154l8 88h32q-10 -135 -10 -180v-139h-766z" />
<glyph unicode="{" horiz-adv-x="659" d="M543 -436h73v-31h-98q-301 0 -301 324q0 79 24.5 199.5t24.5 185.5q0 115 -48.5 188.5t-149.5 73.5h-62v31h60q103 0 151.5 72t48.5 181q0 60 -24.5 166.5t-24.5 186.5q0 329 301 329h98v-30h-73q-81 0 -122.5 -44t-41.5 -122q0 -55 22 -112.5t45 -120.5t25 -128 q3 -137 -76 -246t-235 -147q87 -21 150.5 -62.5t97.5 -95.5t49.5 -111.5t13.5 -119.5q-2 -79 -45 -193t-43 -192q0 -182 160 -182z" />
<glyph unicode="|" horiz-adv-x="385" d="M178 -467v1937h29v-1937h-29z" />
<glyph unicode="}" horiz-adv-x="657" d="M41 -467v31h74q159 0 159 182q0 78 -43 193t-45 192q-2 62 15 120t52.5 110t98 92t146.5 59q-154 38 -235.5 151t-76.5 250q1 52 16 103.5t32 86t31 81t14 90.5q0 78 -41.5 122t-122.5 44h-74v30h98q301 0 301 -329q0 -80 -24.5 -186.5t-24.5 -166.5q0 -71 18.5 -127.5 t65.5 -95.5t117 -39h59v-30h-61q-101 0 -150 -71t-49 -185q0 -63 24.5 -183t24.5 -200q0 -324 -301 -324h-98z" />
<glyph unicode="~" horiz-adv-x="1206" d="M152 422l-21 22q133 115 270 115q86 0 199 -67q2 -1 19 -10.5t20.5 -11.5t19 -10.5t21 -10.5t19.5 -8.5t21 -8.5t20 -6t22.5 -5.5t21.5 -3t23 -1.5q66 0 131.5 30t116.5 74l20 -22q-130 -113 -274 -113q-36 0 -75 11.5t-62.5 23.5t-63.5 35q-40 24 -65.5 36.5t-64.5 24.5 t-75 12q-121 0 -243 -106z" />
<glyph unicode="&#xa1;" horiz-adv-x="468" d="M221 516h31q0 -142 20 -283.5t43.5 -232t43.5 -174.5t20 -125q0 -76 -41.5 -117t-104.5 -41q-62 0 -102.5 41t-40.5 117q0 41 20.5 125.5t45 174.5t45 231.5t20.5 283.5zM371 799q0 -55 -41 -96t-97 -41q-55 0 -96 41t-41 96t41 96t96 41q56 0 97 -41t41 -96z" />
<glyph unicode="&#xa2;" d="M596 -172v158q-97 0 -175.5 27.5t-139.5 84.5t-94 152.5t-33 224.5q0 244 116 370t326 132v160h31v-160q149 -3 241.5 -58t92.5 -145q0 -65 -42 -108t-120 -43q-20 0 -40 3.5t-30 7.5l-10 3v16q41 -10 63.5 27.5t22.5 101.5q0 75 -48.5 120t-129.5 48v-930h2 q52 0 109.5 19t95.5 57q79 79 79 174h31q0 -109 -90 -196q-84 -80 -227 -86v-160h-31zM596 23v925q-103 -9 -153 -117t-50 -344q0 -163 22.5 -263.5t66.5 -147t114 -53.5z" />
<glyph unicode="&#xa3;" d="M121 530v31h211q0 15 2 23l28 247q15 139 109 226.5t266 87.5q137 0 216 -53.5t79 -141.5q0 -64 -43.5 -105.5t-114.5 -41.5q-54 0 -81 12v16q37 -5 59.5 16t28.5 48t6 61q0 69 -34 115.5t-97 46.5q-73 0 -109.5 -68t-54.5 -216l-33 -273h264v-31h-268l-10 -100 q-13 -118 -53.5 -207t-71.5 -114q20 -11 53.5 -26.5t117.5 -42t144 -26.5q78 0 119 43t41 125q0 67 -22.5 100t-55.5 33l-18 -2v17q24 10 63 10q80 0 132.5 -36.5t52.5 -117.5q0 -99 -86.5 -149.5t-225.5 -50.5q-66 0 -138 20t-196 76q-48 -46 -117.5 -71t-140.5 -25 q-139 0 -139 86q0 49 45 76.5t117 27.5q44 0 113 -16q27 159 49 370h-207zM274 129q-63 16 -108 16q-57 0 -93 -18t-36 -53q0 -31 27.5 -45.5t64.5 -14.5q114 0 145 115z" />
<glyph unicode="&#xa5;" d="M311 0v31h140v217h-301v31h301v147h-301v31h301v80l-320 563h-117v30h492v-30h-129l291 -518l217 403q27 47 12.5 81t-63.5 34h-78v30h329v-30h-28q-48 0 -75 -23t-67 -98l-235 -438v-84h305v-31h-305v-147h305v-31h-305v-217h137v-31h-506z" />
<glyph unicode="&#xa6;" horiz-adv-x="382" d="M176 535v874h31v-874h-31zM176 -553v875h31v-875h-31z" />
<glyph unicode="&#xa7;" horiz-adv-x="958" d="M653 1024v16q34 -7 53 34t19 95q0 77 -48.5 124.5t-123.5 47.5q-100 0 -156.5 -84.5t-56.5 -240.5q0 -116 29.5 -247.5t72 -248t84.5 -227t71.5 -218t29.5 -188.5q0 -202 -195 -161q10 86 -17 210t-73.5 254.5t-94 263t-82 272t-34.5 245.5q0 182 106.5 289.5 t319.5 107.5q149 0 238.5 -58.5t89.5 -146.5q0 -24 -8 -48.5t-26 -48.5t-52 -39t-80 -15q-44 0 -66 12zM319 -137v-17q-3 0 -8.5 -0.5t-19 -6t-24 -17t-19 -36.5t-8.5 -60q0 -89 56.5 -133t160.5 -44q152 0 240.5 92t88.5 240q0 77 -30 192t-73 235.5t-86 241.5t-73 239.5 t-30 199.5q0 73 18 144h29q-17 -90 -17 -146q0 -81 30.5 -198t74 -237t86.5 -239.5t73.5 -236t30.5 -195.5q0 -166 -102 -264t-264 -98q-96 0 -178 23t-136.5 72t-54.5 116q0 62 45.5 103.5t122.5 41.5q18 0 35 -3t25 -6z" />
<glyph unicode="&#xa8;" horiz-adv-x="1024" d="M750 1122q-47 0 -82 36t-35 83t35 82t82 35t81.5 -35t34.5 -82q0 -48 -34.5 -83.5t-81.5 -35.5zM342 1122q-46 0 -81.5 36t-35.5 83t35.5 82t81.5 35q49 0 84 -34.5t35 -82.5t-35 -83.5t-84 -35.5z" />
<glyph unicode="&#xa9;" horiz-adv-x="1818" d="M88 584q0 167 65 319t175 262t262 175t319 65t319 -65t262.5 -175t175.5 -262t65 -319t-65 -319t-175.5 -262.5t-262.5 -175.5t-319 -65t-319 65t-262 175.5t-175 262.5t-65 319zM909 -209q161 0 307.5 63t252 169.5t168.5 253t63 307.5q0 214 -106 396.5t-288.5 289 t-396.5 106.5t-396 -106.5t-288 -289t-106 -396.5q0 -161 62.5 -307.5t168.5 -253t252 -169.5t307 -63zM1237 395h33q0 -115 -84 -196q-91 -88 -258 -88q-95 0 -173.5 26.5t-140 81.5t-95.5 147t-34 214q0 234 124 357.5t337 123.5q147 0 241.5 -54.5t94.5 -144.5 q0 -60 -41.5 -103.5t-120.5 -43.5q-31 0 -80 14v16q44 -10 65 27t21 102q0 73 -48 116.5t-130 43.5q-117 0 -171 -102t-54 -340q0 -246 54.5 -348.5t176.5 -102.5q121 0 205 72q78 75 78 182z" />
<glyph unicode="&#xaa;" horiz-adv-x="851" d="M502 807h-8q-15 -23 -28 -39t-36.5 -34.5t-57 -28t-75.5 -9.5q-91 0 -148 45t-57 119q0 57 34 100t92.5 67t125 35t141.5 11v141q0 72 -24 107t-80 35q-43 0 -72 -20.5t-40 -52.5t-9 -69.5t16 -72.5q-75 0 -116 29t-41 75q0 63 73 100t201 37q137 0 196.5 -48t59.5 -160 v-375q0 -54 43 -54q30 0 47 28t17 75h30q0 -146 -141 -146q-60 0 -100 26t-43 79zM485 887v155q-106 0 -161.5 -41.5t-55.5 -138.5q0 -121 84 -121q51 0 92 49t41 97z" />
<glyph unicode="&#xab;" horiz-adv-x="921" d="M457 37l-21 -23q-144 100 -247 221t-103 228q0 74 54.5 160t128.5 155.5t165 132.5l21 -22q-42 -38 -64.5 -65t-40 -56.5t-24 -73.5t-9 -93t-2.5 -138q0 -111 3 -165t19.5 -104t41.5 -80t78 -77zM840 37l-21 -23q-144 100 -247 221t-103 228q0 74 54.5 160t128.5 155.5 t165 132.5l21 -22q-42 -38 -64.5 -65t-40 -56.5t-24 -73.5t-9 -93t-2.5 -138q0 -111 3 -165t19.5 -104t41.5 -80t78 -77z" />
<glyph unicode="&#xac;" horiz-adv-x="1179" d="M76 897v31h966v-572h-30v541h-936z" />
<glyph unicode="&#xad;" horiz-adv-x="761" d="M123 401v172h516v-172h-516z" />
<glyph unicode="&#xae;" horiz-adv-x="978" d="M274 834v30h66v387h-66v29h230q168 0 168 -117q0 -94 -125 -110v-6q46 -9 71 -31t31 -47.5t7.5 -50t8.5 -40.5t27 -16h23v-22q-17 -9 -62 -9q-49 0 -75 21.5t-32.5 51.5t-10 60.5t-17 52t-43.5 21.5h-29v-174h70v-30h-242zM446 1069h52q30 0 49.5 25.5t19.5 64.5 q0 42 -23 66t-57 24h-41v-180zM84 1055q0 167 119 286t286 119t286.5 -119t119.5 -286t-119.5 -286.5t-286.5 -119.5t-286 119.5t-119 286.5zM489 678q155 0 265 111t110 266t-110 266t-265 111t-264.5 -110.5t-109.5 -266.5t109.5 -266.5t264.5 -110.5z" />
<glyph unicode="&#xaf;" horiz-adv-x="1024" d="M276 1171v146h533v-146h-533z" />
<glyph unicode="&#xb0;" horiz-adv-x="729" d="M76 1178q0 120 85 204t204 84t203.5 -84t84.5 -204t-84.5 -204.5t-203.5 -84.5t-204 84.5t-85 204.5zM106 1178q0 -106 76.5 -182t182.5 -76t182 76t76 182t-76 182t-182 76t-182.5 -76t-76.5 -182z" />
<glyph unicode="&#xb1;" d="M543 236v452h-449v31h449v424h30v-424h439v-31h-439v-452h-30zM94 0v31h918v-31h-918z" />
<glyph unicode="&#xb2;" horiz-adv-x="847" d="M88 772v31l127 90q131 93 193 162q104 115 104 325q0 215 -127 215q-76 0 -102.5 -41t-26.5 -114q0 -47 18 -77.5t58 -25.5v-16q-97 -19 -156 22t-59 109q0 78 77.5 124t194.5 46q143 0 238.5 -57t95.5 -170q0 -45 -14.5 -88t-46 -84.5t-64.5 -76.5t-86 -76t-93.5 -70.5 t-103.5 -72.5q-21 -15 -32 -22h342q27 0 41.5 10t29.5 48.5t31 119.5h31q-33 -136 -33 -249v-62h-637z" />
<glyph unicode="&#xb3;" horiz-adv-x="811" d="M295 1030v-16q-34 6 -50 -18t-16 -72q0 -142 131 -142q148 0 148 207q0 104 -44 151.5t-157 47.5h-26v31h26q96 0 132 46.5t36 161.5q0 89 -27 128.5t-88 39.5q-71 0 -99 -36.5t-28 -102.5q0 -49 16 -74t50 -18v-16q-93 -13 -150 21t-57 95q0 71 77 114.5t206 43.5 q146 0 234.5 -49.5t88.5 -149.5q0 -80 -68 -136.5t-186 -78.5v-4q285 -25 285 -209q0 -111 -101.5 -175t-262.5 -64q-122 0 -197.5 41t-75.5 112q0 63 57.5 98.5t145.5 22.5z" />
<glyph unicode="&#xb4;" horiz-adv-x="1024" d="M483 1061l-24 16q56 80 94 172.5t52 147t42 92t76 37.5q38 0 67 -26.5t29 -65.5q0 -32 -19 -59t-54 -55t-75 -58.5t-92.5 -84t-95.5 -116.5z" />
<glyph unicode="&#xb5;" horiz-adv-x="1267" d="M207 -481v1372h-135v31h364v-705q0 -99 28.5 -140.5t98.5 -41.5q56 0 102.5 24.5t76.5 62t50.5 83.5t29.5 88t9 78v520h-135v31h365v-891h135v-31h-360v217h-5q-11 -28 -21.5 -48.5t-38.5 -58t-61.5 -62t-90 -43.5t-123.5 -19q-95 0 -162 28q2 -69 24.5 -147t44 -141 t21.5 -99q0 -57 -28 -82.5t-91 -25.5h-98z" />
<glyph unicode="&#xb6;" horiz-adv-x="1300" d="M678 -467v836h-133q-207 0 -347.5 135t-140.5 350q0 220 147.5 360t368.5 140h670v-31h-534v-1790h-31zM852 -467v1630h201v-1630h-201z" />
<glyph unicode="&#xb7;" horiz-adv-x="495" d="M248 326q-56 0 -96.5 41t-40.5 98q0 54 40.5 93.5t96.5 39.5t96.5 -40t40.5 -95t-40.5 -96t-96.5 -41z" />
<glyph unicode="&#xb8;" horiz-adv-x="1024" d="M334 -340h33q0 -56 34 -83.5t82 -27.5q51 0 80 31.5t29 87.5q0 65 -35.5 90.5t-122.5 30.5l55 221h33l-28 -116q98 -3 164.5 -50t66.5 -135q0 -87 -62.5 -138.5t-164.5 -51.5q-76 0 -120 36t-44 105z" />
<glyph unicode="&#xb9;" horiz-adv-x="688" d="M88 772v31h172v772h-170v31h369v-803h168v-31h-539z" />
<glyph unicode="&#xba;" horiz-adv-x="829" d="M414 696q-161 0 -244.5 89t-83.5 249q0 168 82 258t246 90q327 0 327 -338q0 -169 -86 -258.5t-241 -89.5zM414 723q83 0 117 80t34 241q0 157 -34 234.5t-117 77.5t-117.5 -80t-34.5 -242q0 -155 34 -233t118 -78z" />
<glyph unicode="&#xbb;" horiz-adv-x="919" d="M100 14l-20 23q35 32 56 53t38.5 50t25.5 52.5t13.5 66.5t6.5 86t1 118q0 90 -2.5 138.5t-9 93t-23.5 73.5t-39.5 56t-64.5 65l20 22q144 -99 246.5 -219.5t102.5 -228.5q0 -74 -54.5 -160t-130 -156.5t-166.5 -132.5zM483 14l-20 23q35 32 56 53t38.5 50t25.5 52.5 t13.5 66.5t6.5 86t1 118q0 90 -2.5 138.5t-9 93t-23.5 73.5t-39.5 56t-64.5 65l20 22q144 -99 246.5 -219.5t102.5 -228.5q0 -74 -54.5 -160t-130 -156.5t-166.5 -132.5z" />
<glyph unicode="&#xbc;" horiz-adv-x="1632" d="M408 8l845 1354l25 -16l-846 -1354zM823 242v30l512 600h78v-600h162v-30h-162v-242h-199v242h-391zM864 272h350v410zM80 520v31h172v772h-170v31h369v-803h167v-31h-538z" />
<glyph unicode="&#xbd;" horiz-adv-x="1726" d="M399 8l846 1354l25 -16l-846 -1354zM991 0v31l127 90q131 93 193 162q104 115 104 325q0 215 -127 215q-76 0 -102.5 -41t-26.5 -114q0 -47 18 -77.5t58 -25.5v-16q-97 -19 -156 22t-59 109q0 78 77.5 124t194.5 46q143 0 238.5 -57t95.5 -170q0 -45 -14.5 -88t-46 -84.5 t-64.5 -76.5t-86 -76t-93.5 -70.5t-103.5 -72.5q-21 -15 -32 -22h342q27 0 41.5 10t29.5 48.5t31 119.5h31q-33 -137 -33 -250v-61h-637zM70 520v31h172v772h-170v31h368v-803h168v-31h-538z" />
<glyph unicode="&#xbe;" horiz-adv-x="1667" d="M442 8l846 1354l25 -16l-846 -1354zM860 242v30l512 600h76v-600h162v-30h-162v-242h-197v242h-391zM901 272h350v410zM291 791v-17q-34 6 -50 -18t-16 -72q0 -141 131 -141q148 0 148 207q0 104 -44 151t-157 47h-27v31h27q96 0 132 47t36 162q0 89 -27 128.5t-88 39.5 q-71 0 -99 -36.5t-28 -102.5q0 -49 16 -74.5t50 -18.5v-16q-92 -13 -149.5 21.5t-57.5 95.5q0 71 76.5 114t206.5 43q146 0 234.5 -49t88.5 -149q0 -80 -68 -136.5t-186 -78.5v-4q285 -25 285 -209q0 -111 -102 -175.5t-263 -64.5q-122 0 -197 41.5t-75 112.5 q0 63 57.5 98.5t145.5 22.5z" />
<glyph unicode="&#xbf;" horiz-adv-x="960" d="M635 799q0 -55 -40.5 -96t-96.5 -41t-97 41t-41 96t41 96t97 41t96.5 -41t40.5 -96zM356 377h-30q0 55 40 97t109 42q68 0 113 -40t45 -109q0 -40 -18 -72.5t-47 -57t-64 -50t-70 -58t-64 -73t-47 -103.5t-18 -141q0 -56 9.5 -97t32.5 -75.5t66.5 -52t106.5 -17.5 q118 0 173 58.5t55 154.5q0 154 -93 154q-37 0 -67.5 -26.5t-30.5 -70.5h-31q0 53 38.5 93t123.5 40q92 0 155.5 -48.5t63.5 -141.5q0 -110 -108 -175t-287 -65q-207 0 -332 77.5t-125 211.5q0 69 31.5 124.5t86.5 94.5t109 66.5t122 58.5t102 53q94 61 94 136 q0 52 -34.5 86t-90.5 34q-47 0 -83 -27t-36 -81z" />
<glyph unicode="&#xc0;" horiz-adv-x="1263" d="M-43 0v31h41q47 0 77 27t56 94l463 1208h55l543 -1329h100v-31h-506v31h144l-182 444h-461l-123 -323q-22 -55 8.5 -88t101.5 -33h62v-31h-379zM299 506h436l-225 551zM778 1462l-16 -24q-64 45 -134.5 78t-119 48t-90 31t-62 39t-20.5 60t26.5 62.5t61.5 25.5 q31 0 57 -18t52.5 -51t55.5 -71t79.5 -88t109.5 -92z" />
<glyph unicode="&#xc1;" horiz-adv-x="1263" d="M-43 0v31h41q47 0 77 27t56 94l463 1208h55l543 -1329h100v-31h-506v31h144l-182 444h-461l-123 -323q-22 -55 8.5 -88t101.5 -33h62v-31h-379zM299 506h436l-225 551zM496 1438l-17 24q72 51 131.5 114t88.5 105t63.5 71.5t71.5 29.5q35 0 61.5 -25.5t26.5 -62.5 t-20.5 -60t-62 -39t-90 -31t-119 -48t-134.5 -78z" />
<glyph unicode="&#xc2;" horiz-adv-x="1263" d="M-43 0v31h41q47 0 77 27t56 94l463 1208h55l543 -1329h100v-31h-506v31h144l-182 444h-461l-123 -323q-22 -55 8.5 -88t101.5 -33h62v-31h-379zM299 506h436l-225 551zM342 1450l254 322h57l265 -322h-189l-176 215l-172 -215h-39z" />
<glyph unicode="&#xc3;" horiz-adv-x="1263" d="M-43 0v31h41q47 0 77 27t56 94l463 1208h55l543 -1329h100v-31h-506v31h144l-182 444h-461l-123 -323q-22 -55 8.5 -88t101.5 -33h62v-31h-379zM299 506h436l-225 551zM307 1475h-33q0 126 52.5 195t136.5 69q50 0 98 -21t80.5 -46.5t77.5 -46.5t90 -21q54 0 83.5 30 t29.5 105h32q0 -127 -52.5 -195.5t-143.5 -68.5q-45 0 -85.5 14t-70.5 33.5t-58.5 39.5t-61 34t-66.5 14q-51 0 -80 -29.5t-29 -105.5z" />
<glyph unicode="&#xc4;" horiz-adv-x="1263" d="M-43 0v31h41q47 0 77 27t56 94l463 1208h55l543 -1329h100v-31h-506v31h144l-182 444h-461l-123 -323q-22 -55 8.5 -88t101.5 -33h62v-31h-379zM299 506h436l-225 551zM831 1481q-47 0 -81.5 34.5t-34.5 81.5q0 48 34.5 83.5t81.5 35.5t82 -36t35 -83t-35 -81.5 t-82 -34.5zM395 1481q-47 0 -81.5 34.5t-34.5 81.5q0 48 34.5 83.5t81.5 35.5t82 -36t35 -83t-35 -81.5t-82 -34.5z" />
<glyph unicode="&#xc5;" horiz-adv-x="1263" d="M-43 0v31h41q47 0 77 27t56 94l463 1208h55l543 -1329h100v-31h-506v31h144l-182 444h-461l-123 -323q-22 -55 8.5 -88t101.5 -33h62v-31h-379zM299 506h436l-225 551zM614 1452q-77 0 -117 50t-40 116q0 64 39 110t116 46q78 0 119 -46.5t41 -109.5q0 -65 -41 -115.5 t-117 -50.5zM614 1483q59 0 91 40t32 91q0 52 -30 90.5t-95 38.5q-63 0 -91.5 -37t-28.5 -88q0 -55 31 -95t91 -40z" />
<glyph unicode="&#xc6;" horiz-adv-x="1798" d="M-47 0v31h41q46 0 75 27.5t70 105.5l609 1159h-185v31h1143q-43 -162 -59 -383h-31v203q0 88 -24.5 118.5t-90.5 30.5h-418v-639h320v180h31v-409h-31v198h-320v-622h416q26 0 46.5 8.5t35.5 21.5t28 40.5t21.5 52t18 71t15 82t15.5 99.5h33q-31 -187 -31 -406h-1024v31 h177v485h-476l-192 -366q-29 -56 1 -87.5t103 -31.5h62v-31h-379zM375 547h459v776h-54z" />
<glyph unicode="&#xc7;" horiz-adv-x="1263" d="M520 -340h33q0 -56 34.5 -83.5t82.5 -27.5q51 0 79.5 31.5t28.5 87.5q0 65 -35 90.5t-122 30.5l49 201q-264 22 -420 212t-156 482q0 304 177.5 494t461.5 190q198 0 320 -113q45 0 70.5 21.5t47.5 77.5h27q-9 -33 -24 -135.5t-15 -159.5v-127h-31v78q0 146 -110.5 236.5 t-284.5 90.5q-65 0 -118 -20t-91 -54t-67 -84t-46.5 -106t-29 -124.5t-15.5 -134t-4 -140.5q0 -112 9.5 -203t35 -178t66.5 -146t108 -95t156 -36q141 0 242 66q82 54 126 141t44 180h33q0 -49 -13 -102t-46 -110.5t-82 -102t-129 -73.5t-179 -29q-5 0 -15.5 1t-15.5 1 l-22 -94q98 -3 164.5 -50t66.5 -135q0 -87 -62.5 -138.5t-164.5 -51.5q-76 0 -120 36t-44 105z" />
<glyph unicode="&#xc8;" horiz-adv-x="1206" d="M66 0v31h176v1292h-176v31h1048q-43 -162 -59 -383h-31v203q0 88 -24.5 118.5t-90.5 30.5h-417v-639h319v180h31v-409h-31v198h-319v-622h415q26 0 46.5 8.5t35.5 21.5t28 40.5t21.5 52t18 71t15 82t15.5 99.5h33q-30 -187 -30 -406h-1024zM801 1462l-17 -24 q-64 45 -134.5 78t-119 48t-90 31t-62 39t-20.5 60t26.5 62.5t61.5 25.5q37 0 71.5 -29.5t63.5 -71.5t88.5 -105t131.5 -114z" />
<glyph unicode="&#xc9;" horiz-adv-x="1206" d="M66 0v31h176v1292h-176v31h1048q-43 -162 -59 -383h-31v203q0 88 -24.5 118.5t-90.5 30.5h-417v-639h319v180h31v-409h-31v198h-319v-622h415q26 0 46.5 8.5t35.5 21.5t28 40.5t21.5 52t18 71t15 82t15.5 99.5h33q-30 -187 -30 -406h-1024zM518 1438l-16 24 q59 42 109.5 92t79.5 88t55.5 71t52.5 51t57 18q35 0 61.5 -25.5t26.5 -62.5t-20.5 -60t-62 -39t-90 -31t-119 -48t-134.5 -78z" />
<glyph unicode="&#xca;" horiz-adv-x="1206" d="M66 0v31h176v1292h-176v31h1048q-43 -162 -59 -383h-31v203q0 88 -24.5 118.5t-90.5 30.5h-417v-639h319v180h31v-409h-31v198h-319v-622h415q26 0 46.5 8.5t35.5 21.5t28 40.5t21.5 52t18 71t15 82t15.5 99.5h33q-30 -187 -30 -406h-1024zM365 1450l253 322h58l264 -322 h-188l-177 215l-172 -215h-38z" />
<glyph unicode="&#xcb;" horiz-adv-x="1206" d="M66 0v31h176v1292h-176v31h1048q-43 -162 -59 -383h-31v203q0 88 -24.5 118.5t-90.5 30.5h-417v-639h319v180h31v-409h-31v198h-319v-622h415q26 0 46.5 8.5t35.5 21.5t28 40.5t21.5 52t18 71t15 82t15.5 99.5h33q-30 -187 -30 -406h-1024zM854 1481q-47 0 -82 34.5 t-35 81.5t35 83t82 36t82 -36t35 -83t-35 -81.5t-82 -34.5zM418 1481q-47 0 -82 34.5t-35 81.5t35 83t82 36t82 -36t35 -83t-35 -81.5t-82 -34.5z" />
<glyph unicode="&#xcc;" horiz-adv-x="733" d="M66 0v31h176v1292h-176v31h604v-31h-178v-1292h178v-31h-604zM530 1462l-16 -24q-64 45 -134.5 78t-119 48t-90 31t-62 39t-20.5 60t26.5 62.5t61.5 25.5q31 0 57 -18t52.5 -51t55.5 -71t79.5 -88t109.5 -92z" />
<glyph unicode="&#xcd;" horiz-adv-x="733" d="M66 0v31h176v1292h-176v31h604v-31h-178v-1292h178v-31h-604zM248 1438l-17 24q72 51 131.5 114t88.5 105t63.5 71.5t71.5 29.5q35 0 61.5 -25.5t26.5 -62.5t-20.5 -60t-62 -39t-90 -31t-119 -48t-134.5 -78z" />
<glyph unicode="&#xce;" horiz-adv-x="733" d="M66 0v31h176v1292h-176v31h604v-31h-178v-1292h178v-31h-604zM94 1450l254 322h58l264 -322h-189l-176 215l-172 -215h-39z" />
<glyph unicode="&#xcf;" horiz-adv-x="733" d="M66 0v31h176v1292h-176v31h604v-31h-178v-1292h178v-31h-604zM584 1481q-47 0 -82 34.5t-35 81.5t35 83t82 36t81.5 -35.5t34.5 -83.5q0 -47 -34.5 -81.5t-81.5 -34.5zM147 1481q-47 0 -81.5 34.5t-34.5 81.5q0 48 34.5 83.5t81.5 35.5t82 -36t35 -83t-35 -81.5 t-82 -34.5z" />
<glyph unicode="&#xd0;" horiz-adv-x="1476" d="M66 0v31h176v647h-183v31h183v614h-176v31h612q183 0 318.5 -46t219 -133.5t124 -206t40.5 -270.5q0 -119 -23.5 -221.5t-77 -191t-133.5 -151.5t-199.5 -98.5t-268.5 -35.5h-612zM492 31h190q430 0 430 645q0 330 -105.5 488.5t-324.5 158.5h-190v-614h317v-31h-317 v-647z" />
<glyph unicode="&#xd1;" horiz-adv-x="1458" d="M70 0v31h61q65 0 94 31t29 92v1060l-10 15q-36 50 -67.5 72t-90.5 22h-37v31h406l739 -983v829q0 61 -29 92t-94 31h-61v31h399v-31h-63q-65 0 -93 -31t-28 -92v-1208h-56l-884 1182v-1020q0 -61 28 -92t93 -31h63v-31h-399zM424 1475h-33q0 126 52.5 195t136.5 69 q50 0 98 -21t80.5 -46.5t77.5 -46.5t90 -21q54 0 83 30t29 105h33q0 -127 -53 -195.5t-144 -68.5q-45 0 -85.5 14t-70.5 33.5t-58.5 39.5t-61 34t-66.5 14q-51 0 -79.5 -29.5t-28.5 -105.5z" />
<glyph unicode="&#xd2;" horiz-adv-x="1476" d="M739 -14q-137 0 -245.5 35.5t-182 98.5t-122 153t-70 194t-21.5 227q0 319 157.5 496.5t483.5 177.5q324 0 481.5 -177.5t157.5 -496.5q0 -123 -21.5 -227t-70 -194t-121.5 -153t-181.5 -98.5t-244.5 -35.5zM737 12q77 0 137 24t100 70.5t67.5 104.5t42 136t20.5 154.5 t6 170.5q0 88 -3.5 157.5t-14 141t-28 125t-45.5 101.5t-67 78.5t-93 48t-122 17.5q-67 0 -121 -17.5t-92 -48t-66.5 -78.5t-45.5 -101.5t-27.5 -125t-14 -141t-3.5 -157.5q0 -94 6 -170.5t20.5 -154.5t41.5 -136t66.5 -104.5t99.5 -70.5t136 -24zM901 1462l-16 -24 q-64 45 -134.5 78t-119 48t-90 31t-62 39t-20.5 60t26.5 62.5t61.5 25.5q31 0 57 -18t52.5 -51t55.5 -71t79.5 -88t109.5 -92z" />
<glyph unicode="&#xd3;" horiz-adv-x="1476" d="M739 -14q-137 0 -245.5 35.5t-182 98.5t-122 153t-70 194t-21.5 227q0 319 157.5 496.5t483.5 177.5q324 0 481.5 -177.5t157.5 -496.5q0 -123 -21.5 -227t-70 -194t-121.5 -153t-181.5 -98.5t-244.5 -35.5zM737 12q77 0 137 24t100 70.5t67.5 104.5t42 136t20.5 154.5 t6 170.5q0 88 -3.5 157.5t-14 141t-28 125t-45.5 101.5t-67 78.5t-93 48t-122 17.5q-67 0 -121 -17.5t-92 -48t-66.5 -78.5t-45.5 -101.5t-27.5 -125t-14 -141t-3.5 -157.5q0 -94 6 -170.5t20.5 -154.5t41.5 -136t66.5 -104.5t99.5 -70.5t136 -24zM618 1438l-16 24 q59 42 109.5 92t79.5 88t55.5 71t52.5 51t57 18q35 0 61.5 -25.5t26.5 -62.5t-20.5 -60t-62 -39t-90 -31t-119 -48t-134.5 -78z" />
<glyph unicode="&#xd4;" horiz-adv-x="1476" d="M739 -14q-137 0 -245.5 35.5t-182 98.5t-122 153t-70 194t-21.5 227q0 319 157.5 496.5t483.5 177.5q324 0 481.5 -177.5t157.5 -496.5q0 -123 -21.5 -227t-70 -194t-121.5 -153t-181.5 -98.5t-244.5 -35.5zM737 12q77 0 137 24t100 70.5t67.5 104.5t42 136t20.5 154.5 t6 170.5q0 88 -3.5 157.5t-14 141t-28 125t-45.5 101.5t-67 78.5t-93 48t-122 17.5q-67 0 -121 -17.5t-92 -48t-66.5 -78.5t-45.5 -101.5t-27.5 -125t-14 -141t-3.5 -157.5q0 -94 6 -170.5t20.5 -154.5t41.5 -136t66.5 -104.5t99.5 -70.5t136 -24zM465 1450l254 322h57 l264 -322h-188l-176 215l-172 -215h-39z" />
<glyph unicode="&#xd5;" horiz-adv-x="1476" d="M739 -14q-137 0 -245.5 35.5t-182 98.5t-122 153t-70 194t-21.5 227q0 319 157.5 496.5t483.5 177.5q324 0 481.5 -177.5t157.5 -496.5q0 -123 -21.5 -227t-70 -194t-121.5 -153t-181.5 -98.5t-244.5 -35.5zM737 12q77 0 137 24t100 70.5t67.5 104.5t42 136t20.5 154.5 t6 170.5q0 88 -3.5 157.5t-14 141t-28 125t-45.5 101.5t-67 78.5t-93 48t-122 17.5q-67 0 -121 -17.5t-92 -48t-66.5 -78.5t-45.5 -101.5t-27.5 -125t-14 -141t-3.5 -157.5q0 -94 6 -170.5t20.5 -154.5t41.5 -136t66.5 -104.5t99.5 -70.5t136 -24zM430 1475h-33 q0 126 52.5 195t136.5 69q50 0 98 -21t80.5 -46.5t77.5 -46.5t90 -21q54 0 83 30t29 105h33q0 -127 -52.5 -195.5t-143.5 -68.5q-45 0 -85.5 14t-70.5 33.5t-58.5 39.5t-61 34t-66.5 14q-51 0 -80 -29.5t-29 -105.5z" />
<glyph unicode="&#xd6;" horiz-adv-x="1476" d="M739 -14q-137 0 -245.5 35.5t-182 98.5t-122 153t-70 194t-21.5 227q0 319 157.5 496.5t483.5 177.5q324 0 481.5 -177.5t157.5 -496.5q0 -123 -21.5 -227t-70 -194t-121.5 -153t-181.5 -98.5t-244.5 -35.5zM737 12q77 0 137 24t100 70.5t67.5 104.5t42 136t20.5 154.5 t6 170.5q0 88 -3.5 157.5t-14 141t-28 125t-45.5 101.5t-67 78.5t-93 48t-122 17.5q-67 0 -121 -17.5t-92 -48t-66.5 -78.5t-45.5 -101.5t-27.5 -125t-14 -141t-3.5 -157.5q0 -94 6 -170.5t20.5 -154.5t41.5 -136t66.5 -104.5t99.5 -70.5t136 -24zM954 1481 q-47 0 -81.5 34.5t-34.5 81.5q0 48 34.5 83.5t81.5 35.5t82 -36t35 -83t-35 -81.5t-82 -34.5zM518 1481q-47 0 -82 34.5t-35 81.5t35 83t82 36t82 -36t35 -83t-35 -81.5t-82 -34.5z" />
<glyph unicode="&#xd7;" d="M68 25l462 462l-462 463l22 21l461 -463l465 465l20 -23l-463 -463l463 -462l-20 -23l-465 463l-461 -461z" />
<glyph unicode="&#xd8;" horiz-adv-x="1476" d="M295 -94l88 164q-146 84 -215.5 246t-69.5 378q0 319 157.5 496.5t483.5 177.5q182 0 320 -61l90 166l25 -15l-91 -164q295 -154 295 -600q0 -123 -21.5 -227t-70 -194t-121.5 -153t-181.5 -98.5t-244.5 -35.5q-194 0 -329 69l-91 -164zM1024 1186l-561 -1030 q91 -144 274 -144q77 0 137 24t100 70.5t67.5 104.5t42 136t20.5 154.5t6 170.5q0 176 -18.5 302.5t-67.5 211.5zM446 184l562 1030q-87 127 -271 127q-67 0 -121 -17.5t-92 -48t-66.5 -78.5t-45.5 -101.5t-27.5 -125t-14 -141t-3.5 -157.5q0 -334 79 -488z" />
<glyph unicode="&#xd9;" horiz-adv-x="1492" d="M217 569v754h-178v31h608v-31h-178v-754q0 -300 76.5 -426.5t269.5 -126.5q93 0 167 26t123 71.5t81.5 109.5t46.5 137t14 158v682q0 61 -29 92t-94 31h-61v31h399v-31h-63q-65 0 -93 -31t-28 -92v-682q0 -91 -15.5 -169.5t-51 -146t-88.5 -115t-131.5 -74.5t-176.5 -27 q-137 0 -240 25.5t-171 73t-110 120.5t-59.5 161t-17.5 203zM989 1462l-16 -24q-64 45 -134.5 78t-119 48t-90 31t-62 39t-20.5 60t26.5 62.5t61.5 25.5q31 0 57 -18t52.5 -51t55.5 -71t79.5 -88t109.5 -92z" />
<glyph unicode="&#xda;" horiz-adv-x="1492" d="M217 569v754h-178v31h608v-31h-178v-754q0 -300 76.5 -426.5t269.5 -126.5q93 0 167 26t123 71.5t81.5 109.5t46.5 137t14 158v682q0 61 -29 92t-94 31h-61v31h399v-31h-63q-65 0 -93 -31t-28 -92v-682q0 -91 -15.5 -169.5t-51 -146t-88.5 -115t-131.5 -74.5t-176.5 -27 q-137 0 -240 25.5t-171 73t-110 120.5t-59.5 161t-17.5 203zM707 1438l-17 24q59 42 109.5 92t79.5 88t55.5 71t52.5 51t57 18q35 0 62 -25.5t27 -62.5t-20.5 -60t-62 -39t-90 -31t-119 -48t-134.5 -78z" />
<glyph unicode="&#xdb;" horiz-adv-x="1492" d="M217 569v754h-178v31h608v-31h-178v-754q0 -300 76.5 -426.5t269.5 -126.5q93 0 167 26t123 71.5t81.5 109.5t46.5 137t14 158v682q0 61 -29 92t-94 31h-61v31h399v-31h-63q-65 0 -93 -31t-28 -92v-682q0 -91 -15.5 -169.5t-51 -146t-88.5 -115t-131.5 -74.5t-176.5 -27 q-137 0 -240 25.5t-171 73t-110 120.5t-59.5 161t-17.5 203zM553 1450l254 322h57l264 -322h-188l-176 215l-172 -215h-39z" />
<glyph unicode="&#xdc;" horiz-adv-x="1492" d="M217 569v754h-178v31h608v-31h-178v-754q0 -300 76.5 -426.5t269.5 -126.5q93 0 167 26t123 71.5t81.5 109.5t46.5 137t14 158v682q0 61 -29 92t-94 31h-61v31h399v-31h-63q-65 0 -93 -31t-28 -92v-682q0 -91 -15.5 -169.5t-51 -146t-88.5 -115t-131.5 -74.5t-176.5 -27 q-137 0 -240 25.5t-171 73t-110 120.5t-59.5 161t-17.5 203zM1042 1481q-47 0 -81.5 34.5t-34.5 81.5q0 48 34.5 83.5t81.5 35.5t82 -36t35 -83t-35 -81.5t-82 -34.5zM606 1481q-47 0 -82 34.5t-35 81.5t35 83t82 36t82 -36t35 -83t-35 -81.5t-82 -34.5z" />
<glyph unicode="&#xdd;" horiz-adv-x="1253" d="M338 0v31h176v536l-426 756h-133v31h553v-31h-146l381 -682l301 567q28 50 7.5 82.5t-88.5 32.5h-93v31h379v-31h-26q-47 0 -79 -26t-69 -95l-311 -590v-581h178v-31h-604zM551 1438l-16 24q59 42 109.5 92t79.5 88t55.5 71t52.5 51t57 18q35 0 61.5 -25.5t26.5 -62.5 t-20.5 -60t-62 -39t-90 -31t-119 -48t-134.5 -78z" />
<glyph unicode="&#xde;" horiz-adv-x="1243" d="M61 0v31h183v1292h-183v31h615v-31h-182v-268h155q148 0 255 -28t166.5 -80t86.5 -115.5t27 -143.5q0 -177 -132 -283t-354 -106l-75 4v31q28 -4 61 -4q236 0 236 352q0 87 -12.5 146t-45 105.5t-92 68.5t-149.5 22h-127v-993h182v-31h-615z" />
<glyph unicode="&#xdf;" horiz-adv-x="1161" d="M43 0v31h135v860h-135v31h135v129q0 195 124 316.5t327 121.5q154 0 235.5 -72t81.5 -198q0 -55 -17.5 -100.5t-43 -76t-51 -60t-43 -68t-17.5 -83.5q0 -47 18 -87t46.5 -70.5t63 -59.5t69 -61t63 -67.5t46.5 -86t18 -110.5q0 -137 -89.5 -220t-242.5 -83 q-231 0 -231 194h30q0 -85 50.5 -122.5t117.5 -37.5q80 0 122 46.5t42 123.5q0 48 -18 90t-46.5 73.5t-63 61.5t-69 61.5t-63 66t-46.5 82.5t-18 104t19 102.5t49 78.5t66.5 60t73 54t66.5 52.5t49 63t19 79.5q0 113 -75 176t-199 63q-126 0 -179.5 -79t-53.5 -249v-1130 h-365z" />
<glyph unicode="&#xe0;" horiz-adv-x="1017" d="M631 154h-4q-36 -69 -109 -118.5t-176 -49.5q-53 0 -100.5 12.5t-88.5 38t-65.5 71.5t-24.5 107q0 79 47 138.5t125.5 91.5t168 47.5t188.5 15.5h20v215q0 95 -35 140.5t-124 45.5q-174 0 -174 -155q0 -56 23.5 -88.5t72.5 -24.5v-16q-45 -15 -94 -15q-74 0 -121 35 t-47 98q0 88 89.5 140.5t254.5 52.5q203 0 294 -71t91 -210v-530q0 -45 11.5 -66.5t41.5 -21.5q44 0 67 42t23 99h31q0 -95 -50 -143.5t-135 -48.5q-87 0 -140.5 44.5t-59.5 123.5zM612 215v262h-26q-124 0 -197 -49q-86 -60 -86 -213q0 -180 109 -180q48 0 104 37 q40 29 68 69.5t28 73.5zM555 1077l-25 -16q-53 77 -119 139.5t-110 93t-75 66.5t-31 74t29.5 65t66.5 27q48 0 76.5 -37.5t42.5 -92t51.5 -147t93.5 -172.5z" />
<glyph unicode="&#xe1;" horiz-adv-x="1017" d="M631 154h-4q-36 -69 -109 -118.5t-176 -49.5q-53 0 -100.5 12.5t-88.5 38t-65.5 71.5t-24.5 107q0 79 47 138.5t125.5 91.5t168 47.5t188.5 15.5h20v215q0 95 -35 140.5t-124 45.5q-174 0 -174 -155q0 -56 23.5 -88.5t72.5 -24.5v-16q-45 -15 -94 -15q-74 0 -121 35 t-47 98q0 88 89.5 140.5t254.5 52.5q203 0 294 -71t91 -210v-530q0 -45 11.5 -66.5t41.5 -21.5q44 0 67 42t23 99h31q0 -95 -50 -143.5t-135 -48.5q-87 0 -140.5 44.5t-59.5 123.5zM612 215v262h-26q-124 0 -197 -49q-86 -60 -86 -213q0 -180 109 -180q48 0 104 37 q40 29 68 69.5t28 73.5zM426 1061l-25 16q47 67 80.5 141t49 125t31.5 95t40.5 66t63.5 22q38 0 67 -26.5t29 -65.5q0 -32 -19 -59t-54 -55t-75 -58.5t-92.5 -84t-95.5 -116.5z" />
<glyph unicode="&#xe2;" horiz-adv-x="1017" d="M631 154h-4q-36 -69 -109 -118.5t-176 -49.5q-53 0 -100.5 12.5t-88.5 38t-65.5 71.5t-24.5 107q0 79 47 138.5t125.5 91.5t168 47.5t188.5 15.5h20v215q0 95 -35 140.5t-124 45.5q-174 0 -174 -155q0 -56 23.5 -88.5t72.5 -24.5v-16q-45 -15 -94 -15q-74 0 -121 35 t-47 98q0 88 89.5 140.5t254.5 52.5q203 0 294 -71t91 -210v-530q0 -45 11.5 -66.5t41.5 -21.5q44 0 67 42t23 99h31q0 -95 -50 -143.5t-135 -48.5q-87 0 -140.5 44.5t-59.5 123.5zM612 215v262h-26q-124 0 -197 -49q-86 -60 -86 -213q0 -180 109 -180q48 0 104 37 q40 29 68 69.5t28 73.5zM227 1079l224 426h59l244 -426h-183l-161 281l-148 -281h-35z" />
<glyph unicode="&#xe3;" horiz-adv-x="1017" d="M631 154h-4q-36 -69 -109 -118.5t-176 -49.5q-53 0 -100.5 12.5t-88.5 38t-65.5 71.5t-24.5 107q0 79 47 138.5t125.5 91.5t168 47.5t188.5 15.5h20v215q0 95 -35 140.5t-124 45.5q-174 0 -174 -155q0 -56 23.5 -88.5t72.5 -24.5v-16q-45 -15 -94 -15q-74 0 -121 35 t-47 98q0 88 89.5 140.5t254.5 52.5q203 0 294 -71t91 -210v-530q0 -45 11.5 -66.5t41.5 -21.5q44 0 67 42t23 99h31q0 -95 -50 -143.5t-135 -48.5q-87 0 -140.5 44.5t-59.5 123.5zM612 215v262h-26q-124 0 -197 -49q-86 -60 -86 -213q0 -180 109 -180q48 0 104 37 q40 29 68 69.5t28 73.5zM186 1112h-32q0 124 56 194t142 70q37 0 69 -14t56 -34t48 -39.5t54 -33.5t64 -14q51 0 83 32t32 103h33q0 -126 -57 -195t-148 -69q-47 0 -87 21t-65 46.5t-61.5 46.5t-75.5 21q-48 0 -79.5 -32t-31.5 -103z" />
<glyph unicode="&#xe4;" horiz-adv-x="1017" d="M631 154h-4q-36 -69 -109 -118.5t-176 -49.5q-53 0 -100.5 12.5t-88.5 38t-65.5 71.5t-24.5 107q0 79 47 138.5t125.5 91.5t168 47.5t188.5 15.5h20v215q0 95 -35 140.5t-124 45.5q-174 0 -174 -155q0 -56 23.5 -88.5t72.5 -24.5v-16q-45 -15 -94 -15q-74 0 -121 35 t-47 98q0 88 89.5 140.5t254.5 52.5q203 0 294 -71t91 -210v-530q0 -45 11.5 -66.5t41.5 -21.5q44 0 67 42t23 99h31q0 -95 -50 -143.5t-135 -48.5q-87 0 -140.5 44.5t-59.5 123.5zM612 215v262h-26q-124 0 -197 -49q-86 -60 -86 -213q0 -180 109 -180q48 0 104 37 q40 29 68 69.5t28 73.5zM678 1122q-47 0 -82 36t-35 83t35 82t82 35t82 -35t35 -82t-35 -83t-82 -36zM270 1122q-46 0 -81 36t-35 83t35 82t81 35q49 0 84 -34.5t35 -82.5t-35 -83.5t-84 -35.5z" />
<glyph unicode="&#xe5;" horiz-adv-x="1017" d="M631 154h-4q-36 -69 -109 -118.5t-176 -49.5q-53 0 -100.5 12.5t-88.5 38t-65.5 71.5t-24.5 107q0 79 47 138.5t125.5 91.5t168 47.5t188.5 15.5h20v215q0 95 -35 140.5t-124 45.5q-174 0 -174 -155q0 -56 23.5 -88.5t72.5 -24.5v-16q-45 -15 -94 -15q-74 0 -121 35 t-47 98q0 88 89.5 140.5t254.5 52.5q203 0 294 -71t91 -210v-530q0 -45 11.5 -66.5t41.5 -21.5q44 0 67 42t23 99h31q0 -95 -50 -143.5t-135 -48.5q-87 0 -140.5 44.5t-59.5 123.5zM612 215v262h-26q-124 0 -197 -49q-86 -60 -86 -213q0 -180 109 -180q48 0 104 37 q40 29 68 69.5t28 73.5zM475 1106q-77 0 -117.5 50t-40.5 116q0 64 39 109.5t117 45.5t119 -46t41 -109q0 -65 -41 -115.5t-117 -50.5zM475 1137q59 0 91 40t32 91q0 52 -30 90.5t-95 38.5q-63 0 -92 -37.5t-29 -87.5q0 -55 31.5 -95t91.5 -40z" />
<glyph unicode="&#xe6;" horiz-adv-x="1509" d="M375 641v-16q-37 -15 -94 -15q-74 0 -121 35t-47 98q0 88 88 140.5t245 52.5q206 0 283 -117q114 117 322 117q184 0 283.5 -93t99.5 -276v-82h-580v-30q0 -107 10.5 -184.5t29 -126t49 -77t65 -39t82.5 -10.5q119 0 205.5 69.5t86.5 180.5h31q-1 -89 -48.5 -153 t-129.5 -99q-69 -30 -168 -30q-286 0 -393 190q-82 -190 -328 -190q-54 0 -102.5 12.5t-90 38t-66 71.5t-24.5 107q0 64 31 115t82 84t121 54.5t143 30.5t152 9h20v215q0 98 -33.5 142t-132.5 44q-167 0 -167 -157q0 -56 24 -88.5t72 -22.5zM612 461v16h-26q-127 0 -197 -49 q-86 -59 -86 -217q0 -99 33 -137.5t102 -38.5q45 0 83 16t64 43t43 55t29 60q-45 99 -45 252zM856 516h350v96q0 152 -35 224.5t-124 72.5q-100 0 -143 -89.5t-48 -303.5z" />
<glyph unicode="&#xe7;" horiz-adv-x="905" d="M313 -340h33q0 -56 34.5 -83.5t82.5 -27.5q51 0 79.5 31.5t28.5 87.5q0 65 -35 90.5t-122 30.5l49 199q-177 10 -281 125t-104 342q0 235 117.5 358t326.5 123q143 0 235.5 -54.5t92.5 -144.5q0 -60 -40.5 -103.5t-119.5 -43.5q-45 0 -80 14v17q44 -10 65 27t21 102 q0 73 -46.5 116t-127.5 43q-111 0 -159 -101t-48 -341q0 -250 48 -350.5t165 -100.5q121 0 199 72q82 72 82 182h31q0 -116 -86 -196q-88 -88 -252 -88h-6l-23 -92q98 -3 165 -50t67 -135q0 -87 -63 -138.5t-165 -51.5q-76 0 -120 36t-44 105z" />
<glyph unicode="&#xe8;" horiz-adv-x="974" d="M319 485v-30q0 -107 10.5 -184.5t29 -126t49 -77t65 -39t82.5 -10.5q119 0 206 69.5t87 180.5h31q-1 -89 -49 -153t-130 -99q-69 -30 -168 -30q-213 0 -333.5 113.5t-120.5 361.5q0 244 116.5 359.5t321.5 115.5q184 0 283.5 -93t99.5 -276v-82h-580zM322 516h350v96 q0 152 -35.5 224.5t-124.5 72.5q-100 0 -142.5 -89.5t-47.5 -303.5zM588 1077l-25 -16q-43 63 -95.5 116.5t-92.5 84t-75 58.5t-54 55t-19 59q0 38 30 65t67 27q48 0 76.5 -37.5t42.5 -92t51.5 -147t93.5 -172.5z" />
<glyph unicode="&#xe9;" horiz-adv-x="974" d="M319 485v-30q0 -107 10.5 -184.5t29 -126t49 -77t65 -39t82.5 -10.5q119 0 206 69.5t87 180.5h31q-1 -89 -49 -153t-130 -99q-69 -30 -168 -30q-213 0 -333.5 113.5t-120.5 361.5q0 244 116.5 359.5t321.5 115.5q184 0 283.5 -93t99.5 -276v-82h-580zM322 516h350v96 q0 152 -35.5 224.5t-124.5 72.5q-100 0 -142.5 -89.5t-47.5 -303.5zM459 1061l-25 16q56 80 94 172.5t52 147t42 92t76 37.5q38 0 67.5 -26.5t29.5 -65.5q0 -32 -19 -59t-54 -55t-75 -58.5t-92.5 -84t-95.5 -116.5z" />
<glyph unicode="&#xea;" horiz-adv-x="974" d="M319 485v-30q0 -107 10.5 -184.5t29 -126t49 -77t65 -39t82.5 -10.5q119 0 206 69.5t87 180.5h31q-1 -89 -49 -153t-130 -99q-69 -30 -168 -30q-213 0 -333.5 113.5t-120.5 361.5q0 244 116.5 359.5t321.5 115.5q184 0 283.5 -93t99.5 -276v-82h-580zM322 516h350v96 q0 152 -35.5 224.5t-124.5 72.5q-100 0 -142.5 -89.5t-47.5 -303.5zM260 1079l223 426h60l243 -426h-182l-162 281l-147 -281h-35z" />
<glyph unicode="&#xeb;" horiz-adv-x="974" d="M319 485v-30q0 -107 10.5 -184.5t29 -126t49 -77t65 -39t82.5 -10.5q119 0 206 69.5t87 180.5h31q-1 -89 -49 -153t-130 -99q-69 -30 -168 -30q-213 0 -333.5 113.5t-120.5 361.5q0 244 116.5 359.5t321.5 115.5q184 0 283.5 -93t99.5 -276v-82h-580zM322 516h350v96 q0 152 -35.5 224.5t-124.5 72.5q-100 0 -142.5 -89.5t-47.5 -303.5zM711 1122q-47 0 -82 36t-35 83t35 82t82 35t81.5 -35t34.5 -82q0 -48 -34.5 -83.5t-81.5 -35.5zM303 1122q-46 0 -81.5 36t-35.5 83t35.5 82t81.5 35q49 0 84 -34.5t35 -82.5t-35 -83.5t-84 -35.5z" />
<glyph unicode="&#xec;" horiz-adv-x="573" d="M43 0v31h135v860h-135v31h365v-891h135v-31h-500zM367 1077l-25 -16q-43 63 -95.5 116.5t-92.5 84t-75 58.5t-54 55t-19 59q0 38 29.5 65t66.5 27q39 0 63.5 -22t41 -66t32 -95t49 -125t79.5 -141z" />
<glyph unicode="&#xed;" horiz-adv-x="573" d="M43 0v31h135v860h-135v31h365v-891h135v-31h-500zM238 1061l-25 16q56 80 94 172.5t52 147t42 92t76 37.5q38 0 67 -26.5t29 -65.5q0 -38 -31 -74t-75 -66.5t-110 -93t-119 -139.5z" />
<glyph unicode="&#xee;" horiz-adv-x="573" d="M43 0v31h135v860h-135v31h365v-891h135v-31h-500zM39 1079l223 426h60l243 -426h-182l-162 281l-147 -281h-35z" />
<glyph unicode="&#xef;" horiz-adv-x="573" d="M43 0v31h135v860h-135v31h365v-891h135v-31h-500zM489 1122q-47 0 -81.5 35.5t-34.5 83.5q0 47 34.5 82t81.5 35t82 -35t35 -82t-35 -83t-82 -36zM82 1122q-46 0 -81.5 36t-35.5 83t35.5 82t81.5 35q49 0 84 -34.5t35 -82.5t-35 -83.5t-84 -35.5z" />
<glyph unicode="&#xf0;" horiz-adv-x="1097" d="M240 1016l-17 24l342 207q-67 91 -150.5 139t-203.5 48v30q247 0 444 -161l205 124l17 -24l-197 -121q143 -133 228 -334t85 -430q0 -258 -116 -395t-342 -137q-222 0 -339.5 128t-117.5 347q0 227 121.5 346t320.5 119q148 0 209 -101q-48 250 -147 398zM537 12 q120 0 171.5 112.5t51.5 332.5q0 234 -49.5 336t-190.5 102q-113 0 -158 -102.5t-45 -315.5q0 -234 51 -349.5t169 -115.5z" />
<glyph unicode="&#xf1;" horiz-adv-x="1185" d="M41 0v31h135v860h-135v31h360v-217h5q11 28 21.5 48.5t38.5 58t61.5 62t90 43.5t123.5 19q144 0 216.5 -67t72.5 -214v-624h137v-31h-487v31h121v674q0 99 -28.5 140.5t-98.5 41.5q-56 0 -102.5 -24.5t-76.5 -62t-50.5 -83.5t-29.5 -88t-9 -78v-520h122v-31h-487z M322 1112h-33q0 124 56 194t142 70q37 0 69 -14t56 -34t48 -39.5t54 -33.5t64 -14q51 0 83 32t32 103h33q0 -126 -57 -195t-148 -69q-47 0 -87 21t-65 46.5t-61.5 46.5t-75.5 21q-48 0 -79 -32t-31 -103z" />
<glyph unicode="&#xf2;" horiz-adv-x="1077" d="M539 -14q-227 0 -344 124.5t-117 344.5q0 228 114.5 354.5t346.5 126.5q235 0 347.5 -122t112.5 -347q0 -230 -121.5 -355.5t-338.5 -125.5zM539 12q125 0 172 102.5t47 352.5q0 244 -47 343t-172 99q-122 0 -171 -103t-49 -351q0 -241 48.5 -342t171.5 -101zM623 1077 l-25 -16q-43 63 -95.5 116.5t-92.5 84t-75 58.5t-54 55t-19 59q0 38 29.5 65t66.5 27q39 0 63.5 -22t41 -66t32 -95t49 -125t79.5 -141z" />
<glyph unicode="&#xf3;" horiz-adv-x="1077" d="M539 -14q-227 0 -344 124.5t-117 344.5q0 228 114.5 354.5t346.5 126.5q235 0 347.5 -122t112.5 -347q0 -230 -121.5 -355.5t-338.5 -125.5zM539 12q125 0 172 102.5t47 352.5q0 244 -47 343t-172 99q-122 0 -171 -103t-49 -351q0 -241 48.5 -342t171.5 -101zM494 1061 l-25 16q56 80 94 172.5t52 147t42 92t76 37.5q38 0 67 -26.5t29 -65.5q0 -38 -31 -74t-75 -66.5t-110 -93t-119 -139.5z" />
<glyph unicode="&#xf4;" horiz-adv-x="1077" d="M539 -14q-227 0 -344 124.5t-117 344.5q0 228 114.5 354.5t346.5 126.5q235 0 347.5 -122t112.5 -347q0 -230 -121.5 -355.5t-338.5 -125.5zM539 12q125 0 172 102.5t47 352.5q0 244 -47 343t-172 99q-122 0 -171 -103t-49 -351q0 -241 48.5 -342t171.5 -101zM295 1079 l223 426h60l243 -426h-182l-162 281l-147 -281h-35z" />
<glyph unicode="&#xf5;" horiz-adv-x="1077" d="M539 -14q-227 0 -344 124.5t-117 344.5q0 228 114.5 354.5t346.5 126.5q235 0 347.5 -122t112.5 -347q0 -230 -121.5 -355.5t-338.5 -125.5zM539 12q125 0 172 102.5t47 352.5q0 244 -47 343t-172 99q-122 0 -171 -103t-49 -351q0 -241 48.5 -342t171.5 -101zM254 1112 h-33q0 124 56.5 194t142.5 70q37 0 69 -14t56 -34t48 -39.5t54 -33.5t64 -14q51 0 82.5 32t31.5 103h33q0 -126 -57 -195t-148 -69q-38 0 -71 14t-57 34t-46.5 39.5t-51.5 33.5t-62 14q-48 0 -79.5 -32t-31.5 -103z" />
<glyph unicode="&#xf6;" horiz-adv-x="1077" d="M539 -14q-227 0 -344 124.5t-117 344.5q0 228 114.5 354.5t346.5 126.5q235 0 347.5 -122t112.5 -347q0 -230 -121.5 -355.5t-338.5 -125.5zM539 12q125 0 172 102.5t47 352.5q0 244 -47 343t-172 99q-122 0 -171 -103t-49 -351q0 -241 48.5 -342t171.5 -101zM745 1122 q-47 0 -81.5 35.5t-34.5 83.5q0 47 34.5 82t81.5 35t82 -35t35 -82t-35 -83t-82 -36zM338 1122q-46 0 -81.5 36t-35.5 83t35.5 82t81.5 35q49 0 84 -34.5t35 -82.5t-35 -83.5t-84 -35.5z" />
<glyph unicode="&#xf7;" d="M553 760q-51 0 -87 36t-36 87t36 87t87 36t87 -36t36 -87t-36 -87t-87 -36zM94 481v31h918v-31h-918zM430 102q0 51 36 87t87 36t87 -36t36 -87t-36 -86.5t-87 -35.5t-87 35.5t-36 86.5z" />
<glyph unicode="&#xf8;" horiz-adv-x="1077" d="M188 -94l82 143q-192 113 -192 406q0 228 114.5 354.5t346.5 126.5q130 0 225 -39l90 154l25 -17l-88 -151q208 -105 208 -416q0 -230 -121.5 -355.5t-338.5 -125.5q-144 0 -242 49l-84 -146zM725 772l-369 -635q25 -65 69 -95t114 -30q125 0 172 102.5t47 352.5 q0 202 -33 305zM344 176l367 631q-47 102 -172 102q-122 0 -171 -103t-49 -351q0 -185 25 -279z" />
<glyph unicode="&#xf9;" horiz-adv-x="1175" d="M156 266v625h-136v31h365v-705q0 -99 28.5 -140.5t98.5 -41.5q56 0 102.5 24.5t76.5 62t50.5 83.5t29.5 88t9 78v520h-135v31h365v-891h135v-31h-361v217h-4q-11 -28 -21.5 -48.5t-39 -58t-62 -62t-90 -43.5t-123.5 -19q-148 0 -218 68t-70 212zM655 1077l-24 -16 q-43 63 -95.5 116.5t-92.5 84t-75 58.5t-54 55t-19 59q0 38 29.5 65t66.5 27q48 0 76.5 -37.5t42.5 -92t51.5 -147t93.5 -172.5z" />
<glyph unicode="&#xfa;" horiz-adv-x="1175" d="M156 266v625h-136v31h365v-705q0 -99 28.5 -140.5t98.5 -41.5q56 0 102.5 24.5t76.5 62t50.5 83.5t29.5 88t9 78v520h-135v31h365v-891h135v-31h-361v217h-4q-11 -28 -21.5 -48.5t-39 -58t-62 -62t-90 -43.5t-123.5 -19q-148 0 -218 68t-70 212zM526 1061l-24 16 q56 80 94 172.5t52 147t42 92t76 37.5q38 0 67 -26.5t29 -65.5q0 -32 -19 -59t-54 -55t-75 -58.5t-92.5 -84t-95.5 -116.5z" />
<glyph unicode="&#xfb;" horiz-adv-x="1175" d="M156 266v625h-136v31h365v-705q0 -99 28.5 -140.5t98.5 -41.5q56 0 102.5 24.5t76.5 62t50.5 83.5t29.5 88t9 78v520h-135v31h365v-891h135v-31h-361v217h-4q-11 -28 -21.5 -48.5t-39 -58t-62 -62t-90 -43.5t-123.5 -19q-148 0 -218 68t-70 212zM328 1079l223 426h59 l244 -426h-182l-162 281l-148 -281h-34z" />
<glyph unicode="&#xfc;" horiz-adv-x="1175" d="M156 266v625h-136v31h365v-705q0 -99 28.5 -140.5t98.5 -41.5q56 0 102.5 24.5t76.5 62t50.5 83.5t29.5 88t9 78v520h-135v31h365v-891h135v-31h-361v217h-4q-11 -28 -21.5 -48.5t-39 -58t-62 -62t-90 -43.5t-123.5 -19q-148 0 -218 68t-70 212zM778 1122 q-47 0 -81.5 35.5t-34.5 83.5q0 47 34.5 82t81.5 35t82 -35t35 -82t-35 -83t-82 -36zM371 1122q-46 0 -81.5 36t-35.5 83t35.5 82t81.5 35q49 0 83.5 -34.5t34.5 -82.5t-34.5 -83.5t-83.5 -35.5z" />
<glyph unicode="&#xfd;" horiz-adv-x="1019" d="M258 -195v-16q-63 -9 -63 -113q0 -127 100 -127q94 0 151 78q49 67 66 189l23 155l-437 920h-104v31h495v-31h-141l289 -617l188 496q46 121 -84 121h-41v31h326v-31h-31q-40 0 -76 -26t-51 -68l-295 -777l-28 -192q-8 -53 -17.5 -91.5t-29 -82t-46 -71t-70.5 -46 t-101 -18.5q-60 0 -111 14t-88 50t-37 89q0 60 52 96.5t161 36.5zM479 1061l-24 16q56 80 94 172.5t52 147t42 92t76 37.5q38 0 67 -26.5t29 -65.5q0 -32 -19 -59t-54 -55t-75 -58.5t-92.5 -84t-95.5 -116.5z" />
<glyph unicode="&#xfe;" horiz-adv-x="1130" d="M375 571v-268q0 -111 59 -193.5t166 -82.5q112 0 161.5 108t49.5 344q0 225 -45.5 319.5t-147.5 94.5q-105 0 -174 -97t-69 -225zM18 -467v31h127v1876h-137v30h367v-729h4q79 195 295 195q189 0 283 -119.5t94 -337.5q0 -232 -109 -362.5t-299 -130.5q-102 0 -167 44.5 t-97 112.5h-4v-579h127v-31h-484z" />
<glyph unicode="&#xff;" horiz-adv-x="1019" d="M258 -195v-16q-63 -9 -63 -113q0 -127 100 -127q94 0 151 78q49 67 66 189l23 155l-437 920h-104v31h495v-31h-141l289 -617l188 496q46 121 -84 121h-41v31h326v-31h-31q-40 0 -76 -26t-51 -68l-295 -777l-28 -192q-8 -53 -17.5 -91.5t-29 -82t-46 -71t-70.5 -46 t-101 -18.5q-60 0 -111 14t-88 50t-37 89q0 60 52 96.5t161 36.5zM731 1122q-47 0 -82 36t-35 83t35 82t82 35t82 -35t35 -82t-35 -83t-82 -36zM324 1122q-46 0 -81.5 36t-35.5 83t35.5 82t81.5 35q49 0 83.5 -34.5t34.5 -82.5t-34.5 -83.5t-83.5 -35.5z" />
<glyph unicode="&#x152;" horiz-adv-x="1894" d="M1180 31h415q30 0 52.5 9.5t40 34t29.5 50t23 75.5t18 91t18 115h32q-30 -187 -30 -406h-844q-107 -14 -195 -14q-137 0 -245.5 35.5t-182 98.5t-122 153t-70 194t-21.5 227q0 319 157.5 496.5t483.5 177.5q87 0 197 -14h866q-43 -162 -59 -383h-31v203q0 88 -24.5 118.5 t-90.5 30.5h-417v-639h319v180h31v-409h-31v198h-319v-622zM930 31v1292q-85 16 -172 16q-82 0 -145.5 -22.5t-105.5 -67t-70.5 -101t-43 -136t-20.5 -158.5t-6 -182q0 -79 4 -145.5t15.5 -135.5t30 -123.5t49 -103t70.5 -81t96.5 -51t125.5 -18.5q82 0 172 17z" />
<glyph unicode="&#x153;" horiz-adv-x="1648" d="M993 485v-30q0 -107 10.5 -184.5t29 -126t49 -77t65 -39t82.5 -10.5q119 0 206 69.5t87 180.5h30q-1 -89 -48.5 -153t-129.5 -99q-69 -30 -168 -30q-248 0 -342 166q-107 -166 -325 -166q-225 0 -343 125t-118 344q0 228 115.5 354.5t345.5 126.5q231 0 329 -156 q96 156 322 156q184 0 283.5 -93t99.5 -276v-82h-580zM539 12q125 0 172 102.5t47 352.5q0 244 -47 343t-172 99q-122 0 -171 -103t-49 -351q0 -241 48.5 -342t171.5 -101zM995 516h351v96q0 152 -35.5 224.5t-124.5 72.5q-100 0 -143 -89.5t-48 -303.5z" />
<glyph unicode="&#x178;" horiz-adv-x="1253" d="M338 0v31h176v536l-426 756h-133v31h553v-31h-146l381 -682l301 567q28 50 7.5 82.5t-88.5 32.5h-93v31h379v-31h-26q-47 0 -79 -26t-69 -95l-311 -590v-581h178v-31h-604zM887 1481q-47 0 -82 34.5t-35 81.5t35 83t82 36t82 -36t35 -83t-35 -81.5t-82 -34.5zM451 1481 q-47 0 -82 34.5t-35 81.5t35 83t82 36t81.5 -35.5t34.5 -83.5q0 -47 -34.5 -81.5t-81.5 -34.5z" />
<glyph unicode="&#x2c6;" horiz-adv-x="1024" d="M283 1079l223 426h59l244 -426h-182l-162 281l-148 -281h-34z" />
<glyph unicode="&#x2dc;" horiz-adv-x="1024" d="M242 1112h-33q0 124 56.5 194t142.5 70q37 0 69 -14t56 -34t47.5 -39.5t53.5 -33.5t64 -14q51 0 83 32t32 103h33q0 -126 -57 -195t-148 -69q-47 0 -87 21t-65 46.5t-61.5 46.5t-75.5 21q-48 0 -79 -32t-31 -103z" />
<glyph unicode="&#x2000;" horiz-adv-x="891" />
<glyph unicode="&#x2001;" horiz-adv-x="1782" />
<glyph unicode="&#x2002;" horiz-adv-x="891" />
<glyph unicode="&#x2003;" horiz-adv-x="1782" />
<glyph unicode="&#x2004;" horiz-adv-x="594" />
<glyph unicode="&#x2005;" horiz-adv-x="445" />
<glyph unicode="&#x2006;" horiz-adv-x="297" />
<glyph unicode="&#x2007;" horiz-adv-x="297" />
<glyph unicode="&#x2008;" horiz-adv-x="222" />
<glyph unicode="&#x2009;" horiz-adv-x="356" />
<glyph unicode="&#x200a;" horiz-adv-x="99" />
<glyph unicode="&#x2010;" horiz-adv-x="761" d="M123 401v172h516v-172h-516z" />
<glyph unicode="&#x2011;" horiz-adv-x="761" d="M123 401v172h516v-172h-516z" />
<glyph unicode="&#x2012;" horiz-adv-x="761" d="M123 401v172h516v-172h-516z" />
<glyph unicode="&#x2013;" horiz-adv-x="1290" d="M133 408v139h1024v-139h-1024z" />
<glyph unicode="&#x2014;" horiz-adv-x="2314" d="M133 408v139h2048v-139h-2048z" />
<glyph unicode="&#x2018;" horiz-adv-x="499" d="M401 1468v-30q-91 -2 -160 -58.5t-69 -150.5q0 -75 59.5 -121.5t176.5 -46.5q0 -72 -39.5 -115t-110.5 -43q-83 0 -127.5 59t-44.5 154q0 151 91.5 251.5t223.5 100.5z" />
<glyph unicode="&#x2019;" horiz-adv-x="509" d="M117 903v31q91 2 159 58t68 151q0 75 -58 121.5t-175 46.5q0 72 39 114.5t110 42.5q83 0 126.5 -59t43.5 -154q0 -151 -90.5 -251.5t-222.5 -100.5z" />
<glyph unicode="&#x201a;" horiz-adv-x="516" d="M104 -299v31q90 0 159 57t69 152q0 74 -59 119.5t-177 45.5q0 72 40.5 116t111.5 44q83 0 126.5 -59t43.5 -154q0 -150 -91.5 -251t-222.5 -101z" />
<glyph unicode="&#x201c;" horiz-adv-x="901" d="M803 1468v-30q-91 -2 -159.5 -58t-68.5 -151q0 -75 58.5 -121.5t175.5 -46.5q0 -72 -39.5 -115t-110.5 -43q-83 0 -126.5 59t-43.5 154q0 151 91 251.5t223 100.5zM401 1468v-30q-91 -2 -160 -58.5t-69 -150.5q0 -75 59.5 -121.5t176.5 -46.5q0 -72 -39.5 -115 t-110.5 -43q-83 0 -127.5 59t-44.5 154q0 151 91.5 251.5t223.5 100.5z" />
<glyph unicode="&#x201d;" horiz-adv-x="913" d="M117 903v31q91 2 159 58t68 151q0 75 -58 121.5t-175 46.5q0 72 39 114.5t110 42.5q83 0 126.5 -59t43.5 -154q0 -151 -90.5 -251.5t-222.5 -100.5zM520 903v31q90 2 159 58.5t69 150.5q0 75 -59.5 121.5t-176.5 46.5q0 72 39.5 114.5t110.5 42.5q83 0 127.5 -59 t44.5 -154q0 -150 -91.5 -251t-222.5 -101z" />
<glyph unicode="&#x201e;" horiz-adv-x="917" d="M104 -299v31q90 0 159 57t69 152q0 74 -59 119.5t-177 45.5q0 72 40.5 116t111.5 44q83 0 126.5 -59t43.5 -154q0 -150 -91.5 -251t-222.5 -101zM506 -299v31q91 0 159 57t68 152q0 75 -57.5 120t-175.5 45q0 72 39 116t110 44q83 0 126.5 -59t43.5 -154 q0 -151 -90.5 -251.5t-222.5 -100.5z" />
<glyph unicode="&#x2022;" horiz-adv-x="890" d="M444 176q-129 0 -218 90t-89 219t89 219.5t218 90.5q130 0 220 -90.5t90 -219.5t-90 -219t-220 -90z" />
<glyph unicode="&#x2026;" horiz-adv-x="1490" d="M1118 127q0 55 41 96t96 41q57 0 97.5 -40.5t40.5 -96.5t-40.5 -96.5t-97.5 -40.5q-55 0 -96 41t-41 96zM608 127q0 55 41 96t96 41q56 0 97 -41t41 -96t-41 -96t-97 -41q-55 0 -96 41t-41 96zM98 127q0 55 41 96t97 41t96.5 -41t40.5 -96t-40.5 -96t-96.5 -41t-97 41 t-41 96z" />
<glyph unicode="&#x202f;" horiz-adv-x="356" />
<glyph unicode="&#x2039;" horiz-adv-x="532" d="M449 37l-21 -23q-66 49 -123.5 100.5t-108.5 110.5t-80.5 121t-29.5 117q0 107 101.5 229.5t240.5 218.5l18 -22q-32 -27 -51.5 -46.5t-36 -46.5t-24 -52t-13 -68.5t-7 -90t-1.5 -122.5q0 -146 10 -216t36.5 -113.5t89.5 -96.5z" />
<glyph unicode="&#x203a;" horiz-adv-x="530" d="M102 14l-18 23q62 53 88 96.5t35.5 113.5t9.5 216q0 92 -2.5 144t-9 97t-23 74t-38 54t-60.5 57l20 22q139 -96 239.5 -218.5t100.5 -229.5q0 -106 -99 -225t-243 -224z" />
<glyph unicode="&#x205f;" horiz-adv-x="445" />
<glyph unicode="&#x20ac;" d="M27 469v31h147v53q0 32 4 94h-151v31h155q29 218 160 342.5t328 124.5q162 0 250 -103q34 6 52.5 26.5t35.5 61.5h26q-39 -188 -39 -266v-102h-30v45q0 144 -77 225.5t-206 81.5q-128 0 -193.5 -105t-74.5 -331h360v-31h-360v-147h360v-31h-358q9 -232 69.5 -342.5 t192.5 -110.5q125 0 205 66q98 81 102 219h31q0 -26 -6 -58.5t-28 -80t-57 -85t-101 -64.5t-152 -27q-203 0 -337 129t-157 354h-151z" />
<glyph unicode="&#x2122;" horiz-adv-x="1824" d="M834 723v31h28q64 0 64 63v506h-97v31h261l178 -426l176 426h258v-31h-96v-569h96v-31h-346v31h88v518l-227 -549h-31l-230 551v-457q0 -33 14.5 -48t49.5 -15h29v-31h-215zM266 723v31h101v569h-93q-58 0 -72 -9q-22 -13 -30 -82q-2 -25 -6 -77h-31v199h627v-199h-31 q-3 45 -5.5 69.5t-7.5 46.5t-9.5 30t-16.5 14.5t-22.5 7t-32.5 0.5h-107v-569h101v-31h-365z" />
<glyph unicode="&#x25fc;" horiz-adv-x="921" d="M0 922h922v-922h-922v922z" />
</font>
</defs>
</svg>
