<?xml version="1.0" standalone="no"?>
<!DOCTYPE svg PUBLIC "-//W3C//DTD SVG 1.1//EN" "http://www.w3.org/Graphics/SVG/1.1/DTD/svg11.dtd" >
<svg xmlns="http://www.w3.org/2000/svg">
<metadata></metadata>
<defs>
<font id="questa_sansbold_italic" horiz-adv-x="1105" >
<font-face units-per-em="2048" ascent="1536" descent="-512" />
<missing-glyph horiz-adv-x="430" />
<glyph unicode="&#xfb01;" horiz-adv-x="1130" d="M55 754l25 196h174l18 148q11 86 41.5 156t81 125.5t128.5 86.5t177 31q57 0 108 -10t99.5 -32t85 -63t54.5 -98l-197 -112q-20 51 -60 79.5t-94 28.5q-150 0 -176 -237l-14 -103h559l-135 -950h-250l106 754h-305l-100 -795q-59 -455 -420 -455q-84 0 -154.5 32 t-117.5 79l141 170q36 -43 64 -58.5t67 -15.5q139 0 168 230l100 813h-174z" />
<glyph unicode="&#xfb02;" horiz-adv-x="1155" d="M700 0l177 1274q-67 24 -142 24q-98 0 -148 -55t-67 -190l-14 -103h221l-25 -196h-221l-100 -795q-28 -213 -129.5 -334t-286.5 -121q-85 0 -157 32t-119 79l141 170q35 -42 65 -58t66 -16q142 0 168 230l100 813h-174l25 196h174l18 148q8 67 27.5 123.5t54.5 108.5 t83 88t118.5 57.5t157.5 21.5q107 0 196 -27h248l-205 -1470h-252z" />
<glyph unicode="&#xfb03;" horiz-adv-x="1769" d="M338 -369l135 183q36 -43 64 -58.5t67 -15.5q140 0 168 229l96 785h-387l-100 -795q-59 -455 -420 -455q-82 0 -154 32.5t-118 78.5l141 170q34 -40 63.5 -57t67.5 -17q141 0 168 230l100 813h-174l25 196h174l14 121q11 86 36.5 156t68.5 126t109.5 86.5t152.5 30.5 q65 0 119.5 -14.5t102 -54.5t65.5 -103l-197 -112q-3 34 -25 56t-51 22q-59 0 -88 -56.5t-45 -181.5l-10 -76h387l18 148q11 86 41.5 156t81 125.5t128.5 86.5t177 31q57 0 108 -10t99.5 -32t85 -63t54.5 -98l-197 -112q-19 51 -56 79.5t-87 28.5q-157 0 -187 -237l-14 -103 h559l-135 -950h-250l106 754h-305l-96 -766q-59 -455 -420 -455q-84 0 -153 27t-113 71z" />
<glyph unicode="&#xfb04;" horiz-adv-x="1792" d="M338 -369l135 183q37 -43 65 -58.5t66 -15.5q73 0 114 63t54 166l96 785h-387l-100 -795q-59 -455 -420 -455q-82 0 -154 32.5t-118 78.5l141 170q34 -40 63.5 -57t67.5 -17q141 0 168 230l100 813h-174l25 196h174l14 121q11 86 36.5 156t68.5 126t109.5 86.5 t152.5 30.5q65 0 119.5 -14.5t102 -54.5t65.5 -103l-197 -112q-3 34 -25 56t-51 22q-59 0 -88 -56.5t-45 -181.5l-10 -76h387l18 148q11 86 41.5 156t81 125.5t128.5 86.5t177 31q123 0 211 -27h244l-205 -1470h-252l176 1274q-63 24 -147 24q-92 0 -136.5 -57t-70.5 -188 l-14 -103h221l-25 -196h-221l-96 -766q-59 -455 -420 -455q-84 0 -153 27t-113 71z" />
<glyph horiz-adv-x="2048" />
<glyph horiz-adv-x="2048" />
<glyph unicode="&#xd;" horiz-adv-x="2048" />
<glyph unicode=" "  horiz-adv-x="430" />
<glyph unicode="&#x09;" horiz-adv-x="430" />
<glyph unicode="&#xa0;" horiz-adv-x="430" />
<glyph unicode="!" horiz-adv-x="538" d="M231 1354h289q-58 -300 -158 -914h-227q94 888 96 914zM39 143q0 72 50 123t122 51t123 -51t51 -123t-51 -122t-123 -50t-122 50t-50 122z" />
<glyph unicode="&#x22;" horiz-adv-x="829" d="M178 922q39 453 55 559h248l-102 -559h-201zM547 922q39 453 55 559h248l-102 -559h-201z" />
<glyph unicode="#" horiz-adv-x="1318" d="M104 682l39 168h269l92 420h178l-92 -420h254l92 420h178l-92 -420h260l-39 -168h-256l-47 -221h274l-38 -168h-273l-88 -416h-180l90 416h-254l-88 -416h-180l90 416h-256l39 168h252l49 221h-273zM555 682l-47 -221h252l49 221h-254z" />
<glyph unicode="$" d="M399 -184l23 159q-71 6 -133.5 23t-116 47t-84.5 79t-31 112q0 40 15 90l225 45q-8 -27 -8 -56q0 -128 160 -145l40 285q-43 19 -68 30.5t-64.5 33t-63.5 39.5t-52.5 46t-44.5 56t-27 65.5t-11 79.5q0 156 111 244.5t317 97.5l22 158h111l-23 -160q150 -11 241 -77 t91 -165q0 -37 -12 -78l-246 -49q8 21 8 55q0 96 -110 115l-39 -280q39 -17 53.5 -23.5t51.5 -24t53.5 -28t47 -30t45 -35t35 -39.5t30 -47t17 -52t7.5 -61q0 -157 -120.5 -251t-318.5 -102l-20 -157h-111zM709 287q0 63 -117 123l-33 -238q66 8 108 36.5t42 78.5zM416 829 q0 -34 27.5 -61t80.5 -55l33 237q-141 -16 -141 -121z" />
<glyph unicode="%" horiz-adv-x="1773" d="M125 1038q0 142 100.5 242t243.5 100t243.5 -100t100.5 -242t-100.5 -242t-243.5 -100t-243.5 100t-100.5 242zM387 0l846 1354h190l-845 -1354h-191zM469 856q70 0 120 54t50 128t-50 128.5t-120 54.5t-120 -54.5t-50 -128.5t50 -128t120 -54zM991 313q0 142 100.5 242 t243.5 100t243.5 -100t100.5 -242t-100.5 -242t-243.5 -100t-243.5 100t-100.5 242zM1335 131q70 0 120 54t50 128t-50 128.5t-120 54.5t-120 -54.5t-50 -128.5t50 -128t120 -54z" />
<glyph unicode="&#x26;" horiz-adv-x="1433" d="M61 332q0 155 86.5 277.5t268.5 197.5q-43 124 -43 194q0 179 97 280t304 101q161 0 250.5 -65t89.5 -189q0 -38 -4 -63l-252 -51q6 49 6 86q0 44 -28 72t-68 28q-125 0 -125 -182q0 -104 73.5 -275t180.5 -350q98 94 98 187q0 36 -37.5 59t-97.5 23l-31 -3l25 183 q16 4 59 4q142 0 225 -72.5t83 -175.5q0 -209 -213 -379l8 -10q32 -45 65 -45q26 0 45 14t19 39t-4 43l221 27q4 -36 4 -56q0 -117 -78.5 -188.5t-236.5 -71.5q-70 0 -125.5 27t-110.5 82q-153 -109 -358 -109q-162 0 -279 99t-117 262zM686 240q-109 179 -192 370 q-162 -70 -162 -239q0 -92 50.5 -141.5t125.5 -49.5q83 0 178 60z" />
<glyph unicode="'" horiz-adv-x="460" d="M178 922q39 453 55 559h248l-102 -559h-201z" />
<glyph unicode="(" horiz-adv-x="708" d="M61 367q0 211 68.5 421.5t201.5 395.5t312 311l139 -158q-7 -5 -18.5 -14t-47 -41.5t-70 -71t-81.5 -102t-88 -133.5q-57 -97 -85 -190.5t-54 -260.5q-25 -162 -25 -256q0 -166 60.5 -325.5t173.5 -272.5l-185 -157q-6 6 -17 18t-42 54t-59.5 89t-63.5 123t-60 157 t-42 190t-17 223z" />
<glyph unicode=")" horiz-adv-x="708" d="M-92 -330q7 5 18.5 14t47 42t70 71.5t81.5 102t88 133.5q57 97 85 190t54 260q25 163 25 256q0 166 -60.5 325.5t-173.5 272.5l185 158q6 -6 17 -18t42 -54t59.5 -89t63.5 -123t60 -157t42 -190t17 -223q0 -211 -68.5 -421.5t-201.5 -395.5t-312 -311z" />
<glyph unicode="*" horiz-adv-x="1163" d="M600 1094q-9 28 -23 73t-37.5 151t-23.5 173h248l-84 -397h-80zM541 991q-29 0 -77 0.5t-156 11t-171 31.5l76 236l352 -203zM621 903q-9 -28 -24.5 -73t-59 -145t-82.5 -153l-201 146l301 272zM729 952q24 -17 62 -45.5t119.5 -100.5t119.5 -126l-201 -148l-165 371z M715 1069q24 18 63 45.5t132.5 82.5t156.5 75l78 -236l-404 -43z" />
<glyph unicode="+" d="M84 406v180h367v399h188v-399h362v-180h-362v-406h-188v406h-367z" />
<glyph unicode="," horiz-adv-x="497" d="M37 -375l-92 119q161 114 161 236q0 45 -19 76t-75 89l185 168q58 -22 103.5 -77t45.5 -142q0 -71 -24 -137t-69.5 -125t-96 -106.5t-119.5 -100.5z" />
<glyph unicode="-" horiz-adv-x="751" d="M90 371l31 221h516l-31 -221h-516z" />
<glyph unicode="." horiz-adv-x="522" d="M33 143q0 72 50 123t122 51t123 -51t51 -123t-51 -122t-123 -50t-122 50t-50 122z" />
<glyph unicode="/" horiz-adv-x="993" d="M-100 -467l919 1937h258l-919 -1937h-258z" />
<glyph unicode="0" horiz-adv-x="1128" d="M506 -29q-204 0 -316 108t-112 316q0 293 146.5 470t385.5 177q200 0 313 -117.5t113 -312.5q0 -136 -42 -256t-113 -204t-168.5 -132.5t-206.5 -48.5zM506 180q117 0 195.5 120.5t78.5 295.5q0 107 -43.5 172.5t-126.5 65.5q-70 0 -125 -39.5t-87.5 -103t-49 -136.5 t-16.5 -147q0 -107 42.5 -167.5t131.5 -60.5z" />
<glyph unicode="1" horiz-adv-x="923" d="M35 0l31 209h247l84 584l-264 -29l14 201l539 61l-117 -817h252l-30 -209h-756z" />
<glyph unicode="2" horiz-adv-x="1054" d="M524 846q-41 0 -71 -16.5t-47.5 -47.5t-27 -60t-16.5 -69l-241 52q18 163 132.5 250t289.5 87q170 0 275.5 -79t105.5 -226q0 -68 -28.5 -134t-71 -117.5t-108.5 -105t-123.5 -91t-133.5 -80.5h475l-31 -209h-880l22 174q18 11 56 35q260 160 366 245q184 148 184 257 q0 135 -127 135z" />
<glyph unicode="3" horiz-adv-x="1026" d="M-12 -39l250 53q-19 -75 12.5 -118t116.5 -43q116 0 170.5 56.5t54.5 145.5q0 90 -62 144.5t-186 54.5h-72l27 205h59q57 0 106 13t91.5 39.5t67 74.5t24.5 112q0 77 -29 112.5t-92 35.5q-71 0 -114 -42t-43 -134l-250 51q0 153 116.5 237t303.5 84q175 0 279 -82 t104 -237q0 -134 -74 -227.5t-193 -141.5q209 -80 209 -286q0 -82 -31 -155t-90.5 -131t-155.5 -92t-216 -34q-65 0 -124.5 10t-115 32.5t-91 58t-52.5 86.5t0 118z" />
<glyph unicode="4" horiz-adv-x="1134" d="M-14 39l28 194l693 781h206l-108 -766h227l-31 -209h-225l-49 -356h-248l49 356h-542zM293 248h264l49 350z" />
<glyph unicode="5" horiz-adv-x="964" d="M-8 -41l246 55q-18 -69 11.5 -114t98.5 -45q92 0 149.5 68.5t57.5 170.5q0 53 -19 94t-55.5 66.5t-78 42.5t-98 25t-104 11t-106.5 3l123 678h682l-33 -209h-434l-51 -281q90 -5 167.5 -32t140 -75.5t98.5 -126.5t36 -177q0 -87 -32 -168t-91 -146t-151.5 -104 t-204.5 -39q-113 0 -200 33.5t-131.5 104t-20.5 165.5z" />
<glyph unicode="6" horiz-adv-x="1097" d="M90 416q0 78 9.5 162.5t32.5 180t57 183.5t87 169t118.5 140.5t155 95t193.5 35.5q156 0 243 -58t87 -169q0 -27 -4 -59l-248 -60q2 8 2 31q0 64 -26 91.5t-84 27.5q-56 0 -105.5 -32.5t-86.5 -90.5t-64.5 -126.5t-48.5 -150.5q95 84 241 84q67 0 123.5 -18t105.5 -58.5 t77 -115.5t28 -178q0 -236 -139 -382.5t-375 -146.5q-185 0 -282 104.5t-97 340.5zM582 666q-47 0 -87 -18t-66.5 -47t-43.5 -58.5t-27 -59.5q-4 -39 -4 -102q0 -117 30.5 -165t104.5 -48q58 0 102.5 26t71 71t39.5 100t13 118q0 94 -31 138.5t-102 44.5z" />
<glyph unicode="7" horiz-adv-x="970" d="M68 596l57 418h850l-25 -197q-242 -421 -367.5 -667.5t-191.5 -466.5h-262q28 95 69.5 197.5t78.5 183t114 224.5t124.5 228.5t162.5 288.5h-344l-29 -209h-237z" />
<glyph unicode="8" horiz-adv-x="1062" d="M53 276q0 80 25 148.5t72 121.5t97.5 91.5t117.5 77.5q-142 146 -142 313q0 152 118 253t318 101q167 0 262 -80.5t95 -205.5q0 -72 -20.5 -131.5t-60.5 -106t-81.5 -79.5t-101.5 -70q85 -76 133.5 -152t48.5 -168q0 -82 -32 -156.5t-91 -133t-153 -93.5t-209 -35 q-71 0 -138.5 17t-126.5 52t-95 96t-36 140zM672 354q0 57 -38.5 108t-113.5 113q-102 -61 -160.5 -121t-58.5 -135q0 -79 45.5 -115t114.5 -36q95 0 153 51.5t58 134.5zM475 1047q0 -93 119 -203q81 53 127.5 107.5t46.5 117.5q0 58 -34 87.5t-89 29.5q-84 0 -127 -41.5 t-43 -97.5z" />
<glyph unicode="9" horiz-adv-x="1081" d="M88 514q0 233 139.5 380.5t366.5 147.5q185 0 286 -106t101 -328q0 -86 -9 -174t-31 -183t-55 -179.5t-84.5 -161.5t-115.5 -132.5t-152.5 -88.5t-191.5 -33q-102 0 -179 30t-120 96t-31 159l242 55q-7 -67 22 -105t86 -38q60 0 111.5 29t89 81.5t65 117t46.5 144.5 q-89 -82 -234 -82q-352 0 -352 371zM498 346q83 0 145.5 54t71.5 139v-4q2 25 2 73q0 125 -32.5 181.5t-102.5 56.5q-77 0 -130 -51t-74.5 -123t-21.5 -156q0 -89 34 -129.5t108 -40.5z" />
<glyph unicode=":" horiz-adv-x="565" d="M49 143q0 72 50 123t122 51t123 -51t51 -123t-51 -122t-123 -50t-122 50t-50 122zM141 797q0 72 50 123t122 51t123 -51t51 -123t-51 -122t-123 -50t-122 50t-50 122z" />
<glyph unicode=";" horiz-adv-x="563" d="M90 -375l-92 119q71 50 116.5 106.5t45.5 129.5q0 45 -19 76t-75 89l184 168q58 -22 103.5 -77t45.5 -142q0 -71 -24 -137t-69.5 -125t-96 -106.5t-119.5 -100.5zM119 797q0 72 50 123t122 51t123 -51t51 -123t-51 -122t-123 -50t-122 50t-50 122z" />
<glyph unicode="&#x3c;" d="M55 418v166l858 452l74 -164l-725 -372l727 -391l-74 -164z" />
<glyph unicode="=" d="M84 618v181h917v-181h-917zM84 193v180h917v-180h-917z" />
<glyph unicode="&#x3e;" d="M170 -55l-74 164l727 391l-725 372l74 164l858 -452v-166z" />
<glyph unicode="?" horiz-adv-x="991" d="M518 416q-93 0 -157 52t-64 138q0 57 23.5 105t61.5 81t83.5 61t91 51.5t83.5 46t61.5 50.5t23.5 60q0 129 -160 129q-122 0 -161.5 -58.5t-28.5 -187.5l-238 51q-30 189 93.5 288t355.5 99q198 0 308 -78.5t110 -209.5q0 -70 -33.5 -130t-83.5 -98.5t-108.5 -73 t-108.5 -57.5t-83.5 -47.5t-33.5 -46.5q0 -25 28.5 -34t65.5 3l37 -178q-66 -16 -166 -16zM264 143q0 72 50 123t122 51t123 -51t51 -123t-51 -122t-123 -50t-122 50t-50 122z" />
<glyph unicode="@" horiz-adv-x="1748" d="M74 426q0 157 59.5 303.5t164.5 258.5t260.5 179.5t334.5 67.5q165 0 306.5 -54t239 -147t153 -219t55.5 -268q0 -100 -27.5 -197t-77.5 -175.5t-127 -126.5t-168 -48q-99 0 -165 55.5t-68 126.5h-8q-42 -78 -114 -131t-161 -53q-155 0 -239 102t-84 273q0 66 17.5 138.5 t54 143.5t86.5 127.5t122.5 91.5t155.5 35q88 0 139 -25.5t88 -70.5l55 80h140l-88 -623q-8 -62 18.5 -82t85.5 -20q65 0 126.5 99t61.5 257q0 238 -155 393.5t-418 155.5q-145 0 -268 -52.5t-205 -141.5t-128 -205t-46 -244q0 -100 22 -188.5t72 -165.5t123.5 -132.5 t183 -87.5t244.5 -32q88 0 176 14v-160q-96 -16 -197 -16q-234 0 -414 89.5t-283 264t-103 410.5zM647 356q0 -190 127 -190q31 0 70 36.5t72.5 94.5t56 139.5t22.5 161.5q0 76 -38.5 111.5t-104.5 35.5q-86 0 -145.5 -104t-59.5 -285z" />
<glyph unicode="A" horiz-adv-x="1255" d="M631 1354h213l327 -1354h-278l-68 295h-479l-149 -295h-271zM592 776l-127 -250h307l-53 242q-17 72 -37 205z" />
<glyph unicode="B" horiz-adv-x="1245" d="M274 1354h441q233 0 340.5 -80t107.5 -219q0 -260 -270 -346l-2 -9q116 -31 182 -104t66 -174q0 -191 -145 -306.5t-410 -115.5h-500zM672 575h-236l-49 -342h205q260 0 260 187q0 81 -51 118t-129 37zM700 1120h-188l-45 -311h229q84 0 131 48t47 144q0 61 -42 90 t-132 29z" />
<glyph unicode="C" horiz-adv-x="1318" d="M98 541q0 119 25 235t81.5 226.5t138.5 194t206.5 134.5t275.5 51q223 0 353.5 -90t130.5 -239q0 -37 -11 -90l-272 -58q16 112 -35.5 180t-179.5 68q-81 0 -147.5 -27t-112 -74.5t-78.5 -107.5t-52 -131t-27.5 -139.5t-8.5 -138.5q0 -173 67 -253.5t205 -80.5 q51 0 98 12t91.5 37.5t76 71t42.5 106.5l260 -68q-147 -389 -580 -389q-114 0 -205.5 27.5t-154.5 77t-105.5 121t-62 157t-19.5 187.5z" />
<glyph unicode="D" horiz-adv-x="1384" d="M598 0h-514l190 1354h474q142 0 252 -40.5t179 -114.5t104.5 -174t35.5 -222q0 -121 -28.5 -236.5t-88 -218.5t-143.5 -180.5t-203 -122.5t-258 -45zM717 1120h-205l-125 -887h217q77 0 141 24t107 62t76.5 91t52.5 106.5t31 113.5t16 106t4 89q0 61 -15 111t-49.5 93 t-98 67t-152.5 24z" />
<glyph unicode="E" horiz-adv-x="1153" d="M84 0l190 1354h885l-35 -238h-614l-43 -315h512l-35 -238h-510l-47 -325h629l-35 -238h-897z" />
<glyph unicode="F" horiz-adv-x="1101" d="M84 0l190 1354h873l-35 -238h-602l-43 -315h518l-35 -238h-518l-78 -563h-270z" />
<glyph unicode="G" horiz-adv-x="1366" d="M98 524q0 254 87 447.5t254.5 302t394.5 108.5q228 0 353.5 -97.5t125.5 -252.5l-4 -49l-273 -57q11 105 -45 166t-180 61q-74 0 -135.5 -22.5t-104.5 -60.5t-76.5 -91.5t-54 -110t-33.5 -122.5t-17.5 -123.5t-4.5 -116.5q0 -143 68.5 -224t216.5 -81q124 0 209 48 t98 146l8 62h-272l28 225h545l-41 -295q-26 -184 -179.5 -300t-403.5 -116q-281 0 -422.5 145.5t-141.5 407.5z" />
<glyph unicode="H" horiz-adv-x="1478" d="M1155 1354h270l-190 -1354h-270l77 563h-610l-78 -563h-270l190 1354h271l-78 -551h610z" />
<glyph unicode="I" horiz-adv-x="598" d="M274 1354h271l-191 -1354h-270z" />
<glyph unicode="J" horiz-adv-x="620" d="M299 1354h270l-166 -1192q-18 -122 -57 -214t-107 -162t-172.5 -106t-244.5 -36q-22 0 -42.5 1.5t-29.5 2.5l-10 2l33 233q22 -4 61 -4q129 0 201 67.5t100 241.5z" />
<glyph unicode="K" horiz-adv-x="1249" d="M831 0l-331 571h-66l-80 -571h-270l190 1354h271l-74 -529h57l476 529h337l-598 -656l412 -698h-324z" />
<glyph unicode="L" horiz-adv-x="1013" d="M84 0l190 1354h271l-158 -1116h553l-35 -238h-821z" />
<glyph unicode="M" horiz-adv-x="1753" d="M84 0l190 1354h351l180 -791q28 -141 45 -237q97 215 108 237l392 791h350l-191 -1354h-260l94 672q16 124 66 329q-85 -201 -143 -315l-348 -686h-226l-166 694q-21 82 -55 312q-17 -216 -31 -324l-96 -682h-260z" />
<glyph unicode="N" horiz-adv-x="1456" d="M84 0l190 1354h258l377 -680q60 -110 115 -223q20 189 33 280l86 623h260l-191 -1354h-229l-397 721q-58 103 -115 237q-8 -94 -31 -278l-96 -680h-260z" />
<glyph unicode="O" horiz-adv-x="1439" d="M98 528q0 249 88.5 442.5t254.5 302.5t384 109q263 0 407 -141t144 -397q0 -184 -52 -344t-145.5 -277t-231.5 -184.5t-302 -67.5q-266 0 -406.5 151t-140.5 406zM385 508q0 -155 71 -231t195 -76q92 0 167.5 40t125 105t83.5 150.5t48.5 173.5t14.5 178q0 155 -71 230 t-200 75q-92 0 -167 -40t-124 -104.5t-82 -150.5t-47 -173.5t-14 -176.5z" />
<glyph unicode="P" horiz-adv-x="1177" d="M274 1354h449q116 0 201.5 -28t136.5 -80t75.5 -119t24.5 -152q0 -235 -157.5 -380.5t-407.5 -145.5h-178l-64 -449h-270zM678 1120h-166l-61 -438h155q133 0 200.5 73t67.5 201q0 84 -47.5 124t-148.5 40z" />
<glyph unicode="Q" horiz-adv-x="1439" d="M98 528q0 249 88.5 442.5t254.5 302.5t384 109q263 0 407 -141t144 -397q0 -206 -60.5 -379t-179 -295t-280.5 -170q72 -72 155.5 -117t196.5 -45q41 0 99 10l-35 -221q-51 -10 -119 -10q-52 0 -102 9t-88.5 21.5t-80 35t-67.5 39.5t-59.5 46t-48 43t-42 42.5t-32.5 33.5 l-90 93q-213 29 -329 175.5t-116 372.5zM385 508q0 -155 71 -231t195 -76q92 0 167.5 40t125 105t83.5 150.5t48.5 173.5t14.5 178q0 155 -71 230t-200 75q-92 0 -167 -40t-124 -104.5t-82 -150.5t-47 -173.5t-14 -176.5z" />
<glyph unicode="R" horiz-adv-x="1245" d="M272 1354h443q229 0 336.5 -93t107.5 -257q0 -138 -81.5 -242.5t-215.5 -155.5q91 -63 113 -203q3 -14 7.5 -49.5t9 -52.5t16 -40.5t33 -33.5t53.5 -10q10 0 34 4l-71 -227q-62 -4 -84 -4q-39 0 -71 6t-55.5 19t-41.5 27.5t-30.5 38t-21 42.5t-14.5 49.5t-9.5 51t-8.5 55 t-8 53.5q-34 200 -195 200h-92l-74 -532h-270zM696 1120h-186l-51 -354h186q115 0 171 57.5t56 153.5q0 78 -37.5 110.5t-138.5 32.5z" />
<glyph unicode="S" horiz-adv-x="1146" d="M535 201q106 0 162.5 36.5t56.5 100.5q0 46 -32 86t-83 71.5t-113 64t-124 73t-113 89t-83 121t-32 161.5q0 175 131.5 276.5t347.5 101.5q79 0 150 -13.5t132.5 -42.5t102.5 -71.5t58 -105.5t2 -139l-273 -58q13 98 -33 149.5t-143 51.5q-192 0 -192 -152q0 -45 32 -84 t83 -70t112.5 -62.5t123.5 -69.5t113 -83.5t83 -112.5t32 -148q0 -171 -140.5 -285.5t-373.5 -114.5q-87 0 -164 16.5t-140.5 49t-105.5 81.5t-58.5 115t1.5 148l271 57q-19 -97 35 -167t174 -70z" />
<glyph unicode="T" horiz-adv-x="1165" d="M111 1114l32 240h1104l-35 -240h-413l-158 -1114h-270l155 1114h-415z" />
<glyph unicode="U" horiz-adv-x="1417" d="M145 539l115 815h270l-116 -826q-46 -321 235 -321q71 0 127.5 17.5t93.5 45t63.5 69t40.5 82.5t23 91l119 842h262l-121 -852q-16 -118 -61 -213.5t-119.5 -167.5t-184.5 -111t-249 -39q-298 0 -421 149.5t-77 418.5z" />
<glyph unicode="V" horiz-adv-x="1259" d="M645 0h-213l-328 1354h277l227 -955l54 90q124 209 189 339t102.5 262t37.5 264h271q0 -206 -81.5 -410t-285.5 -536z" />
<glyph unicode="W" horiz-adv-x="1943" d="M1337 0h-213l-143 588l-338 -588h-213l-328 1354h277l229 -961l293 522l-104 439h276l227 -955l54 90q178 308 248.5 490.5t70.5 374.5h271q0 -206 -79.5 -409.5t-277.5 -536.5z" />
<glyph unicode="X" horiz-adv-x="1181" d="M1071 0h-289l-211 451l-327 -451h-299l514 692l-305 662h288l201 -432l313 432h301l-501 -678z" />
<glyph unicode="Y" horiz-adv-x="1179" d="M649 0h-270l76 539l-355 815h289l232 -543l366 543h295l-557 -817z" />
<glyph unicode="Z" horiz-adv-x="1226" d="M180 1114l35 240h1022l-29 -215l-809 -899h695l-35 -240h-1053l29 215l805 899h-660z" />
<glyph unicode="[" horiz-adv-x="655" d="M-18 -467l270 1937h469l-25 -188h-231l-221 -1561h231l-24 -188h-469z" />
<glyph unicode="\" horiz-adv-x="1038" d="M608 -467l-440 1937h242l442 -1937h-244z" />
<glyph unicode="]" horiz-adv-x="655" d="M-59 -279h231l221 1561h-231l24 188h469l-270 -1937h-469z" />
<glyph unicode="^" horiz-adv-x="1177" d="M55 391l441 991h163l441 -989l-197 -2l-328 729l-319 -729h-201z" />
<glyph unicode="_" horiz-adv-x="1245" d="M23 0h1024v-197h-1024v197z" />
<glyph unicode="`" horiz-adv-x="1024" d="M465 1071l-295 391l192 115l240 -420z" />
<glyph unicode="a" horiz-adv-x="1083" d="M827 950h187l-135 -950h-228l13 137h-7q-43 -69 -120.5 -117.5t-171.5 -48.5q-148 0 -232 92t-84 283q0 88 22.5 177.5t66.5 171t104.5 145.5t142 101.5t172.5 37.5q78 0 136 -31t93 -82zM313 344q0 -176 115 -176q58 0 123 64.5t109.5 166.5t44.5 201q0 88 -34.5 135 t-97.5 47q-79 0 -140 -68.5t-90.5 -167t-29.5 -202.5z" />
<glyph unicode="b" horiz-adv-x="1087" d="M233 0h-190l209 1470h252l-74 -530l-18 -104q116 143 284 143q141 0 229.5 -99t88.5 -268q0 -82 -20.5 -170t-63 -172.5t-101 -151t-141.5 -107t-178 -40.5q-161 0 -225 121zM631 782q-56 0 -109.5 -44.5t-90.5 -109.5t-60 -138.5t-23 -133.5q0 -88 34 -138t99 -50 t118 43.5t84.5 110t48 139.5t16.5 139q0 182 -117 182z" />
<glyph unicode="c" horiz-adv-x="948" d="M55 373q0 82 17 163t57 162t98.5 142.5t150 100t202.5 38.5q173 0 261 -82.5t44 -224.5l-254 -45q15 71 -3 113t-69 42q-60 0 -107.5 -40.5t-74.5 -105t-41 -136t-14 -142.5q0 -190 133 -190t182 149l213 -71q-19 -39 -36 -68t-53.5 -71t-77.5 -69t-106 -47t-141 -20 q-381 0 -381 402z" />
<glyph unicode="d" horiz-adv-x="1083" d="M49 350q0 82 21 168.5t64.5 169t103.5 147.5t145.5 104.5t183.5 39.5q124 0 185 -78l82 569h251l-206 -1470h-228l13 137h-7q-111 -166 -292 -166q-153 0 -234.5 94.5t-81.5 284.5zM428 168q58 0 123 64.5t109.5 167.5t44.5 202q0 86 -34.5 133t-97.5 47 q-79 0 -140 -68.5t-90.5 -167t-29.5 -202.5q0 -176 115 -176z" />
<glyph unicode="e" horiz-adv-x="948" d="M520 399l-209 -77q15 -154 140 -154q127 0 182 139l213 -71q-55 -126 -155 -195.5t-265 -69.5q-178 0 -275.5 98t-97.5 298q0 84 16.5 166t56 164t98 143.5t149 100t202.5 38.5q135 0 222.5 -55t87.5 -168q0 -59 -18 -106.5t-46 -82t-78 -66t-99 -53t-124 -49.5zM549 782 q-93 0 -149.5 -69t-77.5 -189l139 51q32 13 49.5 20.5t42 21t37 27t22 33t9.5 42.5q0 28 -19.5 45.5t-52.5 17.5z" />
<glyph unicode="f" horiz-adv-x="757" d="M55 754l25 196h178l18 148q10 86 38.5 156t76 125.5t121 86.5t168.5 31q116 0 204.5 -47t121.5 -156l-197 -112q-15 50 -47 79t-76 29q-136 0 -166 -237l-14 -103h282l-24 -196h-283l-100 -795q-59 -455 -420 -455q-161 0 -272 111l141 170q37 -43 65 -58.5t66 -15.5 q73 0 114 63.5t54 166.5l102 813h-176z" />
<glyph unicode="g" horiz-adv-x="999" d="M20 166q0 56 41.5 111t112.5 100q-70 79 -70 211q0 172 117.5 281.5t317.5 109.5q144 0 239 -64q45 55 45 138v49l197 -29q2 -18 2 -47q0 -146 -145 -223q30 -64 30 -152q0 -180 -121 -281.5t-317 -101.5q-93 0 -166 25q-57 -40 -57 -76q0 -15 8 -26.5t25.5 -20t35 -14 t47.5 -10t50.5 -6.5t57 -5.5t54.5 -5.5q48 -5 82 -10t79 -15t76 -22.5t64 -33.5t53 -47t33 -64t13 -84q0 -161 -143 -255t-375 -94q-208 0 -332.5 66.5t-124.5 175.5q0 43 19 84.5t50.5 74t58.5 54t56 39.5q-113 55 -113 168zM469 -72q-105 12 -170 21q-111 -68 -111 -142 q0 -67 64 -93.5t180 -26.5q112 0 174 37t62 100q0 51 -45 73.5t-154 30.5zM487 444q80 0 119 55t39 150q0 154 -119 154q-79 0 -120 -57.5t-41 -151.5q0 -150 122 -150z" />
<glyph unicode="h" horiz-adv-x="1085" d="M328 219l-31 -219h-252l207 1470h252l-74 -520q-3 -26 -16 -96.5t-17 -91.5l9 -2q28 44 56 77.5t70 68.5t99 54t125 19q79 0 130.5 -28t72 -77.5t25.5 -116.5t-9 -145l-86 -612h-252l82 569q13 102 -2.5 146.5t-65.5 44.5q-64 0 -136.5 -94t-122 -218.5t-64.5 -228.5z " />
<glyph unicode="i" horiz-adv-x="499" d="M45 0l135 950h250l-135 -950h-250zM197 1280q0 63 44 107.5t107 44.5t107.5 -44.5t44.5 -107.5t-44.5 -107.5t-107.5 -44.5t-107 44.5t-44 107.5z" />
<glyph unicode="j" horiz-adv-x="499" d="M59 98l121 852h250l-123 -870q-14 -96 -35.5 -176t-60 -156t-90.5 -128.5t-129 -84t-172 -31.5q-83 0 -150 11l25 219q41 -6 76.5 -6t64.5 5.5t53 15t43.5 25.5t35 34t28 43.5t21.5 51t17 59t13.5 65t11.5 71.5zM199 1280q0 63 44 107.5t107 44.5t107.5 -44.5 t44.5 -107.5t-44.5 -107.5t-107.5 -44.5t-107 44.5t-44 107.5z" />
<glyph unicode="k" horiz-adv-x="1007" d="M1049 950l-416 -442l287 -508h-306l-219 414h-39l-57 -414h-252l205 1470h252l-121 -860h39l289 340h338z" />
<glyph unicode="l" horiz-adv-x="503" d="M47 0l205 1470h252l-205 -1470h-252z" />
<glyph unicode="m" horiz-adv-x="1679" d="M330 219l-31 -219h-252l133 950h252l-33 -188l9 -2q22 35 42 61.5t52.5 58t67 52t83.5 34t105 13.5q115 0 165.5 -56.5t55.5 -162.5l8 -2q30 45 58.5 78t72.5 69t103 55t129 19q79 0 130.5 -28t72 -77.5t25.5 -116.5t-9 -145l-86 -612h-252l82 569q13 102 -2.5 145.5 t-65.5 43.5q-63 0 -133.5 -88.5t-120 -207.5t-67.5 -224l-33 -238h-252l82 569q13 102 -2.5 145.5t-65.5 43.5q-64 0 -136.5 -93.5t-122 -217.5t-64.5 -228z" />
<glyph unicode="n" horiz-adv-x="1087" d="M330 219l-31 -219h-252l133 950h252l-33 -188l9 -2q28 44 56 77.5t70 68.5t99 54t125 19q79 0 130.5 -28t72 -77.5t25.5 -116.5t-9 -145l-86 -612h-252l82 569q13 102 -2.5 146.5t-65.5 44.5q-64 0 -136.5 -94t-122 -218.5t-64.5 -228.5z" />
<glyph unicode="o" horiz-adv-x="1038" d="M584 979q185 0 279.5 -102.5t94.5 -298.5q0 -89 -19 -174t-60.5 -164t-102 -138.5t-149.5 -95t-197 -35.5q-186 0 -280.5 103.5t-94.5 300.5q0 91 19.5 177t61.5 164t103 136t149.5 92.5t195.5 34.5zM455 168q60 0 107.5 37.5t74.5 98.5t41 130t14 139q0 114 -32.5 161.5 t-102.5 47.5q-58 0 -104.5 -37.5t-74 -98.5t-42 -131t-14.5 -142q0 -114 31.5 -159.5t101.5 -45.5z" />
<glyph unicode="p" horiz-adv-x="1071" d="M-18 -467l198 1417h248q-8 -74 -20 -133l8 -4q47 78 123.5 122t162.5 44q130 0 211.5 -99.5t81.5 -271.5q0 -82 -18.5 -168.5t-58.5 -170.5t-95.5 -150.5t-137.5 -107t-177 -40.5q-132 0 -203 78l-72 -516h-251zM352 348q0 -86 34 -133t97 -47q68 0 126 68t89 168t31 202 q0 81 -28 128.5t-72 47.5q-58 0 -123 -64.5t-109.5 -167.5t-44.5 -202z" />
<glyph unicode="q" horiz-adv-x="1083" d="M49 344q0 112 36 224.5t100 204t162 149t212 57.5q151 0 227 -113l41 84h187l-203 -1417h-252l41 285l49 307h-6q-45 -70 -120 -112t-161 -42q-146 0 -229.5 92t-83.5 281zM313 344q0 -176 115 -176q58 0 123 64.5t109.5 167.5t44.5 202q0 86 -34.5 133t-97.5 47 q-79 0 -140 -68.5t-90.5 -167t-29.5 -202.5z" />
<glyph unicode="r" horiz-adv-x="770" d="M47 0l133 950h248l-27 -196l9 -6q19 44 42 81t56 73t76.5 56.5t93.5 20.5q39 0 73.5 -11.5t48.5 -22.5l15 -11l-141 -256q-25 20 -76 20q-41 0 -84 -38t-80 -113q-77 -159 -115 -404l-20 -143h-252z" />
<glyph unicode="s" horiz-adv-x="905" d="M106 684q0 127 99 211t280 84q61 0 118 -9t110 -29.5t85.5 -53t45.5 -80t-10 -109.5l-238 -43q27 131 -113 131q-56 0 -87 -20.5t-31 -60.5q0 -30 23.5 -56t61 -46.5t83 -41.5t91 -48t83 -60t61 -82t23.5 -109q0 -56 -22.5 -106t-68.5 -92.5t-126 -67.5t-185 -25 q-65 0 -124 9t-115 29.5t-89.5 53.5t-46 81.5t14.5 113.5l233 39q-18 -62 19 -97.5t106 -35.5q79 0 113.5 24t34.5 56q0 27 -23.5 51t-61.5 44.5t-84 42.5t-91.5 50.5t-83.5 62t-61.5 82.5t-23.5 107z" />
<glyph unicode="t" horiz-adv-x="788" d="M287 1219h243l-43 -269h250l-28 -196h-252l-74 -459q-10 -61 0 -85t37 -24q14 0 25.5 3.5t22 14l17 17t16 25.5t13 27t14 33t13.5 32l196 -76q-111 -282 -346 -282q-324 0 -252 380l62 394h-140l29 196h143z" />
<glyph unicode="u" horiz-adv-x="1077" d="M717 682v-4l37 272h252l-88 -635l-37 -315h-242l25 186l-9 4q-28 -44 -56 -77.5t-70 -68.5t-99 -54t-125 -19q-79 0 -130.5 28t-72 77.5t-25.5 116.5t9 145l86 612h252l-82 -569q-15 -108 1 -149.5t67 -41.5q64 0 136 92t118.5 206.5t52.5 193.5z" />
<glyph unicode="v" horiz-adv-x="993" d="M127 231v719h246v-678q0 -47 7 -63t26 -16q21 0 39.5 12.5t52.5 44.5q75 72 141 187.5t66 221.5q0 132 -146 101l33 196q180 31 264 -35t84 -204q0 -155 -73.5 -303.5t-190.5 -261.5q-102 -99 -174.5 -140t-163.5 -41q-99 0 -155 63t-56 197z" />
<glyph unicode="w" horiz-adv-x="1484" d="M127 231v719h246v-657q0 -57 7.5 -78.5t29.5 -21.5q44 0 110.5 98t114.5 219l22 440h246q-29 -428 -29 -643q0 -64 5.5 -89t21.5 -25q31 0 88 57q73 71 140 189t67 210q0 69 -32 98t-113 13l32 196q166 29 257.5 -34.5t91.5 -204.5q0 -157 -74.5 -302.5t-190.5 -262.5 q-176 -181 -338 -181q-91 0 -137.5 52.5t-58.5 162.5q-137 -215 -311 -215q-97 0 -146 62t-49 198z" />
<glyph unicode="x" horiz-adv-x="950" d="M553 0l-125 266l-197 -266h-286l372 477l-233 473h281l127 -272l204 272h289l-379 -487l228 -463h-281z" />
<glyph unicode="y" horiz-adv-x="1007" d="M-78 -379l139 150q47 -70 117 -70q68 0 103.5 66.5t35.5 185.5q0 139 -45 321t-129 439l-77 237h262l67 -202q72 -216 123 -492q81 96 141 205.5t60 200.5q0 126 -146 98l33 196q94 14 160 4.5t108 -44t61 -82t19 -109.5q0 -139 -85 -311t-207 -305q-49 -55 -103 -97v-4 q0 -48 -4 -93.5t-15.5 -96.5t-29 -95.5t-46.5 -85.5t-66.5 -69.5t-90.5 -46t-117 -17.5q-54 0 -101.5 12t-76.5 29t-50.5 34.5t-30.5 29.5z" />
<glyph unicode="z" horiz-adv-x="931" d="M811 209l-31 -209h-778l21 160l491 581h-410l29 209h760l-21 -159l-493 -582h432z" />
<glyph unicode="{" horiz-adv-x="772" d="M6 412l27 198h35q61 0 106 14t72 40t41.5 55t21.5 67q10 49 10 187q0 42 1 73.5t5 76t10.5 78t19.5 73.5t31 68.5t45 57.5t61 47t80.5 29t101.5 11q48 0 88.5 -9.5t57.5 -18.5l16 -9l-60 -203q-39 31 -88 31q-35 0 -59.5 -18.5t-37.5 -53t-19 -75t-7 -93.5q-1 -46 -1 -75 v-35.5v-16t-1 -30.5q-1 -52 -11.5 -104t-33.5 -106.5t-66.5 -97.5t-101.5 -63q65 -17 97 -75t32 -140q0 -81 -43 -244t-43 -225q0 -115 90 -115q24 0 49 7.5t38 15.5l12 8l2 -188q-6 -5 -17.5 -11.5t-55.5 -18t-99 -11.5q-144 0 -211.5 70t-67.5 184q0 71 25.5 165 t51.5 181.5t26 142.5q0 156 -193 156h-37z" />
<glyph unicode="|" horiz-adv-x="604" d="M184 -467v1937h217v-1937h-217z" />
<glyph unicode="}" horiz-adv-x="770" d="M-23 -248q38 -31 91 -31q117 0 120 244q1 46 1 75v35.5v16.5t1 31q2 85 23.5 161t70.5 140t119 88q-65 17 -97 75t-32 140q0 81 42 234t42 215q0 114 -90 114q-24 0 -48.5 -7.5t-37.5 -14.5l-12 -8l-2 188q6 5 17.5 11.5t55.5 18t99 11.5q145 0 211.5 -70t66.5 -186 q0 -85 -50 -244.5t-50 -224.5q0 -72 43.5 -113t149.5 -41h37l-27 -198h-35q-52 0 -91.5 -10t-65.5 -24.5t-44 -42.5t-27.5 -53t-14.5 -67t-6 -73t-2 -83q0 -41 -1 -63q-1 -55 -4 -97.5t-12.5 -95t-24.5 -91.5t-42 -78.5t-63.5 -64.5t-90.5 -40.5t-121 -15.5q-53 0 -92.5 9 t-52.5 18l-13 9z" />
<glyph unicode="~" horiz-adv-x="1251" d="M205 336l-111 141q66 67 150 112.5t174 45.5q59 0 118.5 -22.5t99.5 -49t88 -49t87 -22.5q104 0 215 118l107 -145q-64 -67 -147.5 -112.5t-174.5 -45.5q-59 0 -119 22.5t-100 49.5t-88 49.5t-86 22.5q-102 0 -213 -115z" />
<glyph unicode="&#xa1;" horiz-adv-x="520" d="M268 -424h-288q53 272 157 913h228q-5 -47 -43 -392.5t-54 -520.5zM461 786q0 -72 -50 -123t-122 -51t-123 51t-51 123t51 122t123 50t122 -50t50 -122z" />
<glyph unicode="&#xa2;" d="M416 -184l22 159q-167 20 -253.5 132t-86.5 303q0 114 29 216t86.5 186t152.5 137t218 61l22 157h111l-23 -159q71 -5 129.5 -23t108 -53t73 -95.5t13.5 -142.5l-258 -53q23 134 -94 160l-88 -623q41 5 73 21.5t48.5 36t27.5 38.5t13 32l3 13l220 -38q-1 -6 -4 -16.5 t-16 -41t-30.5 -58.5t-51 -63t-74.5 -60.5t-103 -45t-135 -23.5l-23 -157h-110zM350 420q0 -189 117 -234l88 619q-59 -11 -101.5 -51.5t-64 -99t-30.5 -116t-9 -118.5z" />
<glyph unicode="&#xa3;" d="M70 473l18 127h197l34 133q21 83 44 143t59 115t82 88t112.5 52.5t151.5 19.5q71 0 129 -16.5t102.5 -53t56 -94.5t-11.5 -141l-251 -43q7 32 8.5 64t-17 55.5t-55.5 23.5q-54 0 -91.5 -50t-64.5 -163l-32 -133h276l-18 -127h-287l-16 -70q-24 -104 -93 -200 q172 -27 248 -27q57 0 86 29.5t29 109.5l225 -45q0 -145 -87.5 -222t-254.5 -77q-96 0 -227.5 28t-202.5 28q-103 0 -229 -37l-6 174q105 30 163.5 75.5t79.5 127.5l27 106h-184z" />
<glyph unicode="&#xa5;" d="M111 489l18 123h246l-289 516h297l199 -362l278 362h303l-422 -516h260l-18 -123h-305l-21 -155h304l-17 -123h-305l-29 -211h-262l29 211h-305l16 123h307l21 155h-305z" />
<glyph unicode="&#xa6;" horiz-adv-x="604" d="M184 596v874h217v-874h-217zM184 -467v850h217v-850h-217z" />
<glyph unicode="&#xa7;" horiz-adv-x="1021" d="M504 -164h-254q0 6 1 20t1 21q0 36 -5 78t-16.5 112t-17.5 111l-68 463q-12 89 -12 190q0 84 15.5 160t53.5 148.5t95.5 125.5t147 85t202.5 32q60 0 107.5 -6t100.5 -22.5t98 -51.5t79 -88l-180 -170q-30 62 -86 98t-127 36q-236 0 -236 -306q-2 -59 19 -206l67 -465 q3 -24 12 -83t13 -97t4 -72q0 -68 -14 -113zM-47 -334l139 137q49 -65 112 -98t158 -33q141 0 219 95t78 241q0 12 -14 131l-78 547q-3 23 -10.5 69t-11.5 80t-4 66q0 44 14 109h182q-4 -40 -4 -64q0 -27 3 -59t6 -53.5t9 -63t9 -59.5l76 -545q10 -78 10 -137 q0 -236 -142 -380.5t-382 -144.5q-134 0 -218 37.5t-151 124.5z" />
<glyph unicode="&#xa8;" horiz-adv-x="1024" d="M823 1135q-62 0 -105.5 43t-43.5 104q0 60 44 104t105 44q59 0 103.5 -44t44.5 -104q0 -61 -44.5 -104t-103.5 -43zM379 1135q-59 0 -103.5 43t-44.5 104q0 60 44.5 104t103.5 44q61 0 105 -44t44 -104q0 -61 -43.5 -104t-105.5 -43z" />
<glyph unicode="&#xa9;" horiz-adv-x="1863" d="M92 582q0 176 67 331.5t181.5 265t270.5 173t329 63.5q172 0 326.5 -64t267 -174t178.5 -265t66 -330q0 -173 -67.5 -327t-181.5 -263.5t-271 -173.5t-330 -64q-175 0 -330.5 64t-266 174t-175 263.5t-64.5 326.5zM274 582q0 -180 88 -334t240.5 -245t331.5 -91t330.5 91 t239 244.5t87.5 332.5q0 133 -51.5 257t-139 216t-209.5 147t-257 55q-134 0 -256.5 -55t-210.5 -146.5t-140.5 -215.5t-52.5 -256zM492 586q0 138 36 238t101 155.5t143.5 80.5t175.5 25q189 0 294.5 -82.5t90.5 -234.5l-243 -49q13 170 -142 170q-51 0 -89 -25.5 t-59 -70.5t-30.5 -97.5t-9.5 -113.5q0 -145 50.5 -221t127.5 -76t123.5 34t56.5 117l228 -47q-26 -139 -131 -220t-279 -81q-214 0 -329 131.5t-115 366.5z" />
<glyph unicode="&#xaa;" horiz-adv-x="817" d="M475 1382q112 0 156 -75l35 61h145l-98 -649h-148l15 117h-9q-43 -66 -93 -102t-122 -36q-100 0 -158.5 75t-58.5 204q0 67 23.5 137.5t65.5 130.5t107 98.5t140 38.5zM332 965q0 -131 65 -131q59 0 122 100.5t63 212.5q0 42 -19.5 72t-60.5 30q-56 0 -96 -47.5 t-57 -109.5t-17 -127z" />
<glyph unicode="&#xab;" horiz-adv-x="1091" d="M315 2q-101 92 -177.5 227.5t-76.5 237.5q0 75 66.5 173.5t152.5 177.5t169 132l120 -162q-53 -42 -85.5 -72.5t-70.5 -75.5t-56.5 -96t-18.5 -108q0 -62 30.5 -125t110.5 -151zM797 2q-101 92 -177.5 227.5t-76.5 237.5q0 57 38.5 128.5t98 137t125 122.5t125.5 95 l121 -162q-53 -42 -85.5 -72t-71 -75.5t-57 -96.5t-18.5 -108q0 -62 31 -124.5t111 -151.5z" />
<glyph unicode="&#xac;" horiz-adv-x="1247" d="M113 770v180h995v-628h-188v448h-807z" />
<glyph unicode="&#xad;" horiz-adv-x="751" d="M90 371l31 221h516l-31 -221h-516z" />
<glyph unicode="&#xae;" horiz-adv-x="1034" d="M150 1057q0 179 119.5 301.5t312.5 122.5q194 0 314 -122.5t120 -301.5t-120 -300.5t-314 -121.5t-313 121.5t-119 300.5zM258 1057q0 -142 86.5 -228t237.5 -86q152 0 238.5 86t86.5 228t-87 228.5t-238 86.5t-237.5 -86.5t-86.5 -228.5zM401 834v446h193q86 0 131 -39 t45 -104q0 -91 -90 -129q24 -10 39 -43q11 -24 23.5 -31.5t45.5 -7.5l-26 -103h-23q-40 0 -67 14.5t-36.5 28.5t-17.5 33q-1 4 -2 6q-3 6 -7 16t-6 14.5t-5.5 12t-5.5 10.5t-6 7.5t-7.5 6t-8 4t-10.5 3t-13 0.5h-23v-145h-123zM524 1083h68q26 0 41.5 15t15.5 37 q0 21 -15.5 34t-41.5 13h-68v-99z" />
<glyph unicode="&#xaf;" horiz-adv-x="1024" d="M254 1169l27 181h589l-26 -181h-590z" />
<glyph unicode="&#xb0;" horiz-adv-x="780" d="M469 866q-133 0 -223 91t-90 221q0 129 92 220t225 91t225.5 -91t92.5 -220t-94.5 -220.5t-227.5 -91.5zM473 1044q55 0 94 39t39 95t-39 94.5t-94 38.5t-94 -38.5t-39 -94.5t39 -95t94 -39z" />
<glyph unicode="&#xb1;" d="M80 612v181h366v350h189v-350h362v-181h-362v-348h-189v348h-366zM80 0v180h917v-180h-917z" />
<glyph unicode="&#xb2;" horiz-adv-x="868" d="M143 772l23 160q15 11 68 49t94.5 68t97.5 76.5t93 84.5t64 80.5t27 75.5q0 54 -19.5 79t-60.5 25q-52 0 -76 -33t-28 -122l-225 39q14 140 101 209t267 69q133 0 206 -59t73 -174q0 -33 -10 -67t-24 -62.5t-40 -61t-47 -55.5t-56 -54.5t-56.5 -49.5t-59 -48.5 t-53.5 -44.5h332l-27 -184h-664z" />
<glyph unicode="&#xb3;" horiz-adv-x="825" d="M438 752q-133 0 -219 46t-86 134q0 15 4 43l232 37q-4 -10 -4 -31q0 -35 26 -51.5t68 -16.5q56 0 85 28t29 71q0 102 -165 102h-31l22 160h31q43 0 77 9t60.5 38t26.5 76q0 73 -76 73q-41 0 -64 -21.5t-24 -74.5l-223 35q9 107 98.5 165t239.5 58q286 0 286 -207 q0 -88 -50.5 -148t-137.5 -79q74 -8 119 -52.5t45 -129.5q0 -130 -105.5 -197t-263.5 -67z" />
<glyph unicode="&#xb4;" horiz-adv-x="1024" d="M414 1171l295 406l180 -131l-348 -375z" />
<glyph unicode="&#xb5;" horiz-adv-x="1085" d="M-23 -496l201 1446h252l-84 -590q-13 -97 -2 -136.5t51 -39.5q46 0 104 63t105 150.5t82 178.5t43 149l31 225h252l-129 -950h-240l29 197l-8 4q-22 -40 -49 -76.5t-63.5 -73t-83 -58.5t-95.5 -22q-28 0 -56.5 11.5t-42.5 27.5q-42 -339 -30 -506h-267z" />
<glyph unicode="&#xb6;" horiz-adv-x="1411" d="M1423 1208h-503l-187 -1335h-172l55 393h-55q-209 0 -339 133.5t-130 354.5q0 169 82.5 307t224 215.5t310.5 77.5h737zM1051 1090h258l-166 -1172q-12 -86 -46.5 -158t-93.5 -130.5t-152 -92t-212 -33.5q-141 0 -230 38.5t-151 129.5l180 170q72 -133 211 -133 q60 0 104 18.5t70.5 53t41 71.5t24.5 85z" />
<glyph unicode="&#xb7;" horiz-adv-x="540" d="M84 473q0 72 50 123t122 51t123 -51t51 -123t-51 -122t-123 -50t-122 50t-50 122z" />
<glyph unicode="&#xb8;" horiz-adv-x="1024" d="M264 -444l80 127q13 -14 52 -27.5t77 -13.5q41 0 74 17.5t33 61.5q0 74 -177 74l89 215h137l-45 -119q28 -3 54.5 -10.5t59 -24t52.5 -49t20 -77.5q0 -60 -27.5 -105t-73.5 -70.5t-99 -38t-111 -12.5q-106 0 -195 52z" />
<glyph unicode="&#xb9;" horiz-adv-x="786" d="M137 772l27 184h196l66 463l-199 -16l15 182l432 37l-94 -666h192l-27 -184h-608z" />
<glyph unicode="&#xba;" horiz-adv-x="796" d="M502 1382q136 0 209 -72.5t73 -217.5q0 -105 -38.5 -193t-122 -145.5t-199.5 -57.5q-136 0 -209.5 75t-73.5 220q0 76 22.5 145t65.5 124.5t113.5 88.5t159.5 33zM428 829q55 0 93 40.5t54.5 101t16.5 133.5q0 77 -21.5 111t-72.5 34q-78 0 -121 -79.5t-43 -194.5 q0 -77 21.5 -111.5t72.5 -34.5z" />
<glyph unicode="&#xbb;" horiz-adv-x="1091" d="M588 793l164 157q101 -92 177.5 -227.5t76.5 -237.5q0 -75 -66.5 -173.5t-152.5 -177.5t-169 -132l-120 162q53 42 85.5 72.5t70.5 75.5t56.5 96t18.5 108q0 62 -30.5 125.5t-110.5 151.5zM106 793l164 157q101 -92 177.5 -227.5t76.5 -237.5q0 -57 -38.5 -128.5 t-98 -137t-125 -122.5t-125.5 -95l-121 162q53 42 85.5 72t71 75.5t57 96.5t18.5 108q0 62 -31 125.5t-111 151.5z" />
<glyph unicode="&#xbc;" horiz-adv-x="1798" d="M940 184l23 166l462 522h238l-74 -516h160l-25 -172h-159l-25 -184h-215l27 184h-412zM336 0l1036 1354h195l-1037 -1354h-194zM1186 356h190l35 252zM59 520l27 185h197l65 462l-198 -16l14 182l432 37l-94 -665h192l-26 -185h-609z" />
<glyph unicode="&#xbd;" horiz-adv-x="1857" d="M326 0l1036 1354h194l-1036 -1354h-194zM59 520l27 185h197l65 462l-198 -16l14 182l432 37l-94 -665h192l-26 -185h-609zM1071 0l23 160q15 11 68 49t94.5 68t97.5 76.5t93 84.5t64 80.5t27 75.5q0 54 -19.5 79t-60.5 25q-52 0 -76 -33t-28 -122l-226 39 q14 140 101.5 209t267.5 69q133 0 206 -59t73 -174q0 -33 -10 -67t-24 -62.5t-40 -61t-47 -55.5t-56 -54.5t-56.5 -49.5t-59 -48.5t-53.5 -44.5h331l-26 -184h-664z" />
<glyph unicode="&#xbe;" horiz-adv-x="1771" d="M913 184l23 166l463 522h237l-73 -516h159l-24 -172h-160l-25 -184h-215l27 184h-412zM309 0l1037 1354h194l-1036 -1354h-195zM1159 356h191l34 252zM367 500q-133 0 -219.5 46t-86.5 134q0 8 5 43l231 37q-4 -10 -4 -31q0 -67 94 -67q56 0 85.5 28t29.5 70 q0 102 -166 102h-31l23 160h30q43 0 77 9t60.5 38t26.5 76q0 74 -76 74q-40 0 -63.5 -22t-24.5 -75l-223 35q9 107 98.5 165t239.5 58q287 0 287 -206q0 -88 -51 -148.5t-138 -79.5q74 -8 119 -52.5t45 -129.5q0 -130 -105 -197t-263 -67z" />
<glyph unicode="&#xbf;" horiz-adv-x="976" d="M438 514q93 0 157 -52t64 -138q0 -57 -23.5 -105t-61.5 -81t-83.5 -61t-91 -51.5t-83.5 -46t-61.5 -50.5t-23.5 -60q0 -129 160 -129q122 0 162 58.5t29 187.5l237 -52q30 -189 -93 -288t-355 -99q-198 0 -308 79t-110 210q0 70 33.5 130t83.5 98.5t108 73t108 57.5 t83.5 47.5t33.5 46.5q0 25 -28.5 33.5t-65.5 -3.5l-37 179q66 16 166 16zM692 786q0 -72 -50 -123t-122 -51t-123 51t-51 123t51 122t123 50t122 -50t50 -122z" />
<glyph unicode="&#xc0;" horiz-adv-x="1255" d="M631 1354h213l327 -1354h-278l-68 295h-479l-149 -295h-271zM592 776l-127 -250h307l-53 242q-17 72 -37 205zM459 1733l166 172l323 -318l-117 -127z" />
<glyph unicode="&#xc1;" horiz-adv-x="1255" d="M631 1354h213l327 -1354h-278l-68 295h-479l-149 -295h-271zM592 776l-127 -250h307l-53 242q-17 72 -37 205zM571 1587l414 318l117 -172l-447 -273z" />
<glyph unicode="&#xc2;" horiz-adv-x="1255" d="M631 1354h213l327 -1354h-278l-68 295h-479l-149 -295h-271zM592 776l-127 -250h307l-53 242q-17 72 -37 205zM403 1548l330 328h148l239 -328l-127 -92l-207 230l-268 -230z" />
<glyph unicode="&#xc3;" horiz-adv-x="1255" d="M631 1354h213l327 -1354h-278l-68 295h-479l-149 -295h-271zM592 776l-127 -250h307l-53 242q-17 72 -37 205zM543 1522h-168q1 6 3.5 16t12 39.5t22.5 56t36.5 59t52 56t71 39.5t91.5 16q38 0 75.5 -17t62 -37t53.5 -37t52 -17q25 0 44.5 11.5t30 28t17.5 33t9 27.5 l2 12h168q-1 -6 -3 -16t-10.5 -39.5t-21 -56t-35.5 -59t-52 -56t-73 -39.5t-96 -16q-46 0 -83.5 16t-58 36t-45 36t-47.5 16q-39 0 -66.5 -27t-35.5 -54z" />
<glyph unicode="&#xc4;" horiz-adv-x="1255" d="M631 1354h213l327 -1354h-278l-68 295h-479l-149 -295h-271zM592 776l-127 -250h307l-53 242q-17 72 -37 205zM1030 1526q-62 0 -105.5 43t-43.5 104q0 60 44 104t105 44q59 0 103.5 -44t44.5 -104q0 -61 -44.5 -104t-103.5 -43zM532 1526q-59 0 -103 43t-44 104 q0 60 44 104t103 44q61 0 105.5 -44t44.5 -104q0 -61 -44 -104t-106 -43z" />
<glyph unicode="&#xc5;" horiz-adv-x="1255" d="M631 1354h213l327 -1354h-278l-68 295h-479l-149 -295h-271zM592 776l-127 -250h307l-53 242q-17 72 -37 205zM553 1661q0 98 70.5 167.5t181.5 69.5q101 0 154 -58.5t53 -143.5q0 -100 -68.5 -170t-179.5 -70q-103 0 -157 61t-54 144zM793 1772q-42 0 -70.5 -29 t-28.5 -74q0 -39 22 -62.5t58 -23.5q40 0 68 29.5t28 77.5q0 40 -21 61t-56 21z" />
<glyph unicode="&#xc6;" horiz-adv-x="1869" d="M811 1354h1065l-35 -240h-614l-43 -311h512l-35 -240h-512l-45 -323h629l-35 -240h-897l41 301h-441l-198 -301h-289zM961 1145l-406 -613h319z" />
<glyph unicode="&#xc7;" horiz-adv-x="1318" d="M356 -444l80 127q13 -14 52 -27.5t77 -13.5q41 0 74 17.5t33 61.5q0 74 -176 74l73 180q-162 14 -269 91t-154.5 196t-47.5 279q0 119 25 235t81.5 226.5t138.5 194t206.5 134.5t275.5 51q223 0 353.5 -90t130.5 -239q0 -37 -11 -90l-272 -58q16 112 -35.5 180t-179.5 68 q-81 0 -147.5 -27t-112 -74.5t-78.5 -107.5t-52 -131t-27.5 -139.5t-8.5 -138.5q0 -173 67 -253.5t205 -80.5q51 0 98 12t91.5 37.5t76 71t42.5 106.5l260 -68q-138 -361 -518 -387l-31 -82q28 -3 54.5 -10.5t59 -24t52.5 -49t20 -77.5q0 -60 -27.5 -105t-73.5 -70.5 t-99 -38t-111 -12.5q-106 0 -195 52z" />
<glyph unicode="&#xc8;" horiz-adv-x="1153" d="M84 0l190 1354h885l-35 -238h-614l-43 -315h512l-35 -238h-510l-47 -325h629l-35 -238h-897zM442 1733l166 172l324 -318l-117 -127z" />
<glyph unicode="&#xc9;" horiz-adv-x="1153" d="M84 0l190 1354h885l-35 -238h-614l-43 -315h512l-35 -238h-510l-47 -325h629l-35 -238h-897zM555 1587l414 318l116 -172l-446 -273z" />
<glyph unicode="&#xca;" horiz-adv-x="1153" d="M84 0l190 1354h885l-35 -238h-614l-43 -315h512l-35 -238h-510l-47 -325h629l-35 -238h-897zM383 1548l330 328h147l240 -328l-127 -92l-207 230l-268 -230z" />
<glyph unicode="&#xcb;" horiz-adv-x="1153" d="M84 0l190 1354h885l-35 -238h-614l-43 -315h512l-35 -238h-510l-47 -325h629l-35 -238h-897zM1014 1526q-62 0 -106 43t-44 104q0 60 44.5 104t105.5 44q59 0 103 -44t44 -104q0 -61 -44 -104t-103 -43zM516 1526q-59 0 -103 43t-44 104q0 60 44 104t103 44 q61 0 105.5 -44t44.5 -104q0 -61 -44 -104t-106 -43z" />
<glyph unicode="&#xcc;" horiz-adv-x="598" d="M274 1354h271l-191 -1354h-270zM131 1733l166 172l324 -318l-117 -127z" />
<glyph unicode="&#xcd;" horiz-adv-x="598" d="M274 1354h271l-191 -1354h-270zM244 1587l413 318l117 -172l-446 -273z" />
<glyph unicode="&#xce;" horiz-adv-x="598" d="M274 1354h271l-191 -1354h-270zM76 1548l330 328h147l240 -328l-127 -92l-207 230l-269 -230z" />
<glyph unicode="&#xcf;" horiz-adv-x="598" d="M274 1354h271l-191 -1354h-270zM702 1526q-62 0 -105.5 43t-43.5 104q0 60 44 104t105 44q59 0 103.5 -44t44.5 -104q0 -61 -44.5 -104t-103.5 -43zM205 1526q-59 0 -103.5 43t-44.5 104q0 60 44.5 104t103.5 44q61 0 105 -44t44 -104q0 -61 -43.5 -104t-105.5 -43z" />
<glyph unicode="&#xd0;" horiz-adv-x="1394" d="M55 594l25 164h121l84 596h473q282 0 426.5 -145.5t144.5 -395.5q0 -121 -28.5 -237.5t-88 -221t-143.5 -183.5t-203 -125t-258 -46h-514l84 594h-123zM397 233h217q77 0 141 24t107 62t76.5 91t52.5 106.5t31 113.5t16 106t4 89q0 61 -15 111t-49.5 93t-98 67t-152.5 24 h-205l-51 -362h285l-25 -164h-282z" />
<glyph unicode="&#xd1;" horiz-adv-x="1456" d="M84 0l190 1354h258l377 -680q60 -110 115 -223q20 189 33 280l86 623h260l-191 -1354h-229l-397 721q-58 103 -115 237q-8 -94 -31 -278l-96 -680h-260zM657 1522h-168q1 6 3.5 16t12 39.5t22.5 56t36.5 59t52 56t71 39.5t91.5 16q38 0 75.5 -17t62.5 -37t54 -37t52 -17 q39 0 64.5 28t31.5 56l6 28h168q-1 -6 -3 -16t-10.5 -39.5t-21 -56t-35.5 -59t-52 -56t-73 -39.5t-96 -16q-37 0 -68.5 10.5t-52 26t-38.5 31t-36.5 26t-37.5 10.5q-25 0 -45.5 -11t-32 -27t-19.5 -32t-11 -27z" />
<glyph unicode="&#xd2;" horiz-adv-x="1439" d="M98 528q0 249 88.5 442.5t254.5 302.5t384 109q263 0 407 -141t144 -397q0 -184 -52 -344t-145.5 -277t-231.5 -184.5t-302 -67.5q-266 0 -406.5 151t-140.5 406zM385 508q0 -155 71 -231t195 -76q92 0 167.5 40t125 105t83.5 150.5t48.5 173.5t14.5 178q0 155 -71 230 t-200 75q-92 0 -167 -40t-124 -104.5t-82 -150.5t-47 -173.5t-14 -176.5zM555 1733l166 172l323 -318l-116 -127z" />
<glyph unicode="&#xd3;" horiz-adv-x="1439" d="M98 528q0 249 88.5 442.5t254.5 302.5t384 109q263 0 407 -141t144 -397q0 -184 -52 -344t-145.5 -277t-231.5 -184.5t-302 -67.5q-266 0 -406.5 151t-140.5 406zM385 508q0 -155 71 -231t195 -76q92 0 167.5 40t125 105t83.5 150.5t48.5 173.5t14.5 178q0 155 -71 230 t-200 75q-92 0 -167 -40t-124 -104.5t-82 -150.5t-47 -173.5t-14 -176.5zM668 1587l413 318l117 -172l-446 -273z" />
<glyph unicode="&#xd4;" horiz-adv-x="1439" d="M98 528q0 249 88.5 442.5t254.5 302.5t384 109q263 0 407 -141t144 -397q0 -184 -52 -344t-145.5 -277t-231.5 -184.5t-302 -67.5q-266 0 -406.5 151t-140.5 406zM385 508q0 -155 71 -231t195 -76q92 0 167.5 40t125 105t83.5 150.5t48.5 173.5t14.5 178q0 155 -71 230 t-200 75q-92 0 -167 -40t-124 -104.5t-82 -150.5t-47 -173.5t-14 -176.5zM500 1548l329 328h148l240 -328l-127 -92l-207 230l-269 -230z" />
<glyph unicode="&#xd5;" horiz-adv-x="1439" d="M98 528q0 249 88.5 442.5t254.5 302.5t384 109q263 0 407 -141t144 -397q0 -184 -52 -344t-145.5 -277t-231.5 -184.5t-302 -67.5q-266 0 -406.5 151t-140.5 406zM385 508q0 -155 71 -231t195 -76q92 0 167.5 40t125 105t83.5 150.5t48.5 173.5t14.5 178q0 155 -71 230 t-200 75q-92 0 -167 -40t-124 -104.5t-82 -150.5t-47 -173.5t-14 -176.5zM639 1522h-168q1 6 3.5 16t12 39.5t22.5 56t36.5 59t52 56t71 39.5t91.5 16q38 0 75.5 -17t62.5 -37t54 -37t52 -17q39 0 64.5 28t31.5 56l6 28h168q-1 -6 -3 -16t-10.5 -39.5t-21 -56t-35.5 -59 t-52 -56t-73 -39.5t-96 -16q-37 0 -68.5 10.5t-52 26t-38.5 31t-36.5 26t-37.5 10.5q-25 0 -45.5 -11t-32 -27t-19.5 -32t-11 -27z" />
<glyph unicode="&#xd6;" horiz-adv-x="1439" d="M98 528q0 249 88.5 442.5t254.5 302.5t384 109q263 0 407 -141t144 -397q0 -184 -52 -344t-145.5 -277t-231.5 -184.5t-302 -67.5q-266 0 -406.5 151t-140.5 406zM385 508q0 -155 71 -231t195 -76q92 0 167.5 40t125 105t83.5 150.5t48.5 173.5t14.5 178q0 155 -71 230 t-200 75q-92 0 -167 -40t-124 -104.5t-82 -150.5t-47 -173.5t-14 -176.5zM1126 1526q-62 0 -105.5 43t-43.5 104q0 60 44 104t105 44q59 0 103.5 -44t44.5 -104q0 -61 -44.5 -104t-103.5 -43zM629 1526q-59 0 -103.5 43t-44.5 104q0 60 44.5 104t103.5 44q61 0 105 -44 t44 -104q0 -61 -43.5 -104t-105.5 -43z" />
<glyph unicode="&#xd7;" d="M2 897l133 131l406 -407l405 407l133 -133l-405 -406l409 -409l-133 -131l-409 407l-410 -407l-131 131l410 409z" />
<glyph unicode="&#xd8;" horiz-adv-x="1439" d="M84 -66l147 195q-133 148 -133 399q0 249 88.5 442.5t254.5 302.5t384 109q183 0 305 -67l134 174l125 -90l-138 -180q125 -137 125 -375q0 -184 -52 -344t-145.5 -277t-231.5 -184.5t-302 -67.5q-166 0 -291 64l-143 -191zM385 508q0 -81 23 -148l569 752 q-61 41 -158 41q-92 0 -167 -40t-124 -104.5t-82 -150.5t-47 -173.5t-14 -176.5zM1090 848q0 71 -19 133l-565 -748q57 -32 145 -32q92 0 167.5 40t125 105t83.5 150.5t48.5 173.5t14.5 178z" />
<glyph unicode="&#xd9;" horiz-adv-x="1417" d="M145 539l115 815h270l-116 -826q-46 -321 235 -321q71 0 127.5 17.5t93.5 45t63.5 69t40.5 82.5t23 91l119 842h262l-121 -852q-16 -118 -61 -213.5t-119.5 -167.5t-184.5 -111t-249 -39q-298 0 -421 149.5t-77 418.5zM539 1733l166 172l323 -318l-117 -127z" />
<glyph unicode="&#xda;" horiz-adv-x="1417" d="M145 539l115 815h270l-116 -826q-46 -321 235 -321q71 0 127.5 17.5t93.5 45t63.5 69t40.5 82.5t23 91l119 842h262l-121 -852q-16 -118 -61 -213.5t-119.5 -167.5t-184.5 -111t-249 -39q-298 0 -421 149.5t-77 418.5zM651 1587l414 318l117 -172l-447 -273z" />
<glyph unicode="&#xdb;" horiz-adv-x="1417" d="M145 539l115 815h270l-116 -826q-46 -321 235 -321q71 0 127.5 17.5t93.5 45t63.5 69t40.5 82.5t23 91l119 842h262l-121 -852q-16 -118 -61 -213.5t-119.5 -167.5t-184.5 -111t-249 -39q-298 0 -421 149.5t-77 418.5zM483 1548l330 328h148l239 -328l-127 -92l-207 230 l-268 -230z" />
<glyph unicode="&#xdc;" horiz-adv-x="1417" d="M145 539l115 815h270l-116 -826q-46 -321 235 -321q71 0 127.5 17.5t93.5 45t63.5 69t40.5 82.5t23 91l119 842h262l-121 -852q-16 -118 -61 -213.5t-119.5 -167.5t-184.5 -111t-249 -39q-298 0 -421 149.5t-77 418.5zM1110 1526q-62 0 -105.5 43t-43.5 104q0 60 44 104 t105 44q59 0 103 -44t44 -104q0 -61 -44 -104t-103 -43zM612 1526q-59 0 -103 43t-44 104q0 60 44 104t103 44q61 0 105.5 -44t44.5 -104q0 -61 -44 -104t-106 -43z" />
<glyph unicode="&#xdd;" horiz-adv-x="1179" d="M649 0h-270l76 539l-355 815h289l232 -543l366 543h295l-557 -817zM526 1587l414 318l117 -172l-447 -273z" />
<glyph unicode="&#xde;" horiz-adv-x="1155" d="M274 1354h271l-31 -217h158q116 0 201.5 -28t136.5 -80t75.5 -119t24.5 -152q0 -235 -157.5 -381t-407.5 -146h-158l-33 -231h-270zM627 903h-146l-61 -438h135q133 0 200.5 73t67.5 201q0 84 -47.5 124t-148.5 40z" />
<glyph unicode="&#xdf;" horiz-adv-x="1148" d="M47 -59l143 1157q26 209 150.5 304t364.5 95q51 0 95.5 -6t94.5 -24t85.5 -47.5t59 -81.5t23.5 -121q0 -66 -21.5 -119t-53.5 -85t-69.5 -63.5t-69.5 -55.5t-53.5 -60t-21.5 -78q0 -37 16 -71.5t42 -62.5t57 -56.5t62.5 -60t57.5 -65.5t42 -80t16 -98 q0 -126 -97.5 -208.5t-258.5 -82.5q-69 0 -123.5 11.5t-91 32.5t-60 43t-43.5 51l125 151q51 -82 156 -82q62 0 97.5 24t35.5 66q0 33 -30 71.5t-72.5 77t-85.5 82t-73 101.5t-30 119q0 56 22 106t55 84.5t71.5 69.5t71.5 63.5t55 65t22 74.5q0 32 -15 55t-38 33.5t-43.5 15 t-40.5 4.5q-108 0 -165.5 -58t-72.5 -179l-139 -1094q-59 -455 -420 -455q-161 0 -272 111l141 170q37 -43 65 -58.5t66 -15.5q73 0 114 63.5t54 166.5z" />
<glyph unicode="&#xe0;" horiz-adv-x="1083" d="M827 950h187l-135 -950h-228l13 137h-7q-43 -69 -120.5 -117.5t-171.5 -48.5q-148 0 -232 92t-84 283q0 88 22.5 177.5t66.5 171t104.5 145.5t142 101.5t172.5 37.5q78 0 136 -31t93 -82zM313 344q0 -176 115 -176q58 0 123 64.5t109.5 166.5t44.5 201q0 88 -34.5 135 t-97.5 47q-79 0 -140 -68.5t-90.5 -167t-29.5 -202.5zM614 1071l-295 391l193 115l240 -420z" />
<glyph unicode="&#xe1;" horiz-adv-x="1083" d="M827 950h187l-135 -950h-228l13 137h-7q-43 -69 -120.5 -117.5t-171.5 -48.5q-148 0 -232 92t-84 283q0 88 22.5 177.5t66.5 171t104.5 145.5t142 101.5t172.5 37.5q78 0 136 -31t93 -82zM313 344q0 -176 115 -176q58 0 123 64.5t109.5 166.5t44.5 201q0 88 -34.5 135 t-97.5 47q-79 0 -140 -68.5t-90.5 -167t-29.5 -202.5zM487 1171l295 406l181 -131l-349 -375z" />
<glyph unicode="&#xe2;" horiz-adv-x="1083" d="M827 950h187l-135 -950h-228l13 137h-7q-43 -69 -120.5 -117.5t-171.5 -48.5q-148 0 -232 92t-84 283q0 88 22.5 177.5t66.5 171t104.5 145.5t142 101.5t172.5 37.5q78 0 136 -31t93 -82zM313 344q0 -176 115 -176q58 0 123 64.5t109.5 166.5t44.5 201q0 88 -34.5 135 t-97.5 47q-79 0 -140 -68.5t-90.5 -167t-29.5 -202.5zM303 1151l283 403h149l219 -421l-143 -62l-162 279l-213 -279z" />
<glyph unicode="&#xe3;" horiz-adv-x="1083" d="M827 950h187l-135 -950h-228l13 137h-7q-43 -69 -120.5 -117.5t-171.5 -48.5q-148 0 -232 92t-84 283q0 88 22.5 177.5t66.5 171t104.5 145.5t142 101.5t172.5 37.5q78 0 136 -31t93 -82zM313 344q0 -176 115 -176q58 0 123 64.5t109.5 166.5t44.5 201q0 88 -34.5 135 t-97.5 47q-79 0 -140 -68.5t-90.5 -167t-29.5 -202.5zM236 1112q1 6 3 16t12 39.5t22.5 56.5t36.5 59.5t52 56t70.5 39.5t91.5 16q38 0 75.5 -17t62.5 -37.5t54 -37.5t52 -17q25 0 44.5 11.5t29.5 28t17 33.5t9 29l2 11h168q-1 -6 -2.5 -16t-10.5 -39.5t-21 -56.5 t-35.5 -59.5t-52 -56t-72.5 -39.5t-96 -16q-46 0 -83.5 16.5t-58 36t-45 36t-47.5 16.5q-25 0 -45.5 -11t-32 -27.5t-19.5 -32.5t-11 -27l-3 -11h-167z" />
<glyph unicode="&#xe4;" horiz-adv-x="1083" d="M827 950h187l-135 -950h-228l13 137h-7q-43 -69 -120.5 -117.5t-171.5 -48.5q-148 0 -232 92t-84 283q0 88 22.5 177.5t66.5 171t104.5 145.5t142 101.5t172.5 37.5q78 0 136 -31t93 -82zM313 344q0 -176 115 -176q58 0 123 64.5t109.5 166.5t44.5 201q0 88 -34.5 135 t-97.5 47q-79 0 -140 -68.5t-90.5 -167t-29.5 -202.5zM866 1135q-62 0 -105.5 43t-43.5 104q0 60 44 104t105 44q59 0 103.5 -44t44.5 -104q0 -61 -44.5 -104t-103.5 -43zM422 1135q-59 0 -103.5 43t-44.5 104q0 60 44.5 104t103.5 44q61 0 105 -44t44 -104 q0 -61 -43.5 -104t-105.5 -43z" />
<glyph unicode="&#xe5;" horiz-adv-x="1083" d="M827 950h187l-135 -950h-228l13 137h-7q-43 -69 -120.5 -117.5t-171.5 -48.5q-148 0 -232 92t-84 283q0 88 22.5 177.5t66.5 171t104.5 145.5t142 101.5t172.5 37.5q78 0 136 -31t93 -82zM313 344q0 -176 115 -176q58 0 123 64.5t109.5 166.5t44.5 201q0 88 -34.5 135 t-97.5 47q-79 0 -140 -68.5t-90.5 -167t-29.5 -202.5zM627 1077q-103 0 -157 61t-54 144q0 98 70.5 168t181.5 70q101 0 153.5 -59t52.5 -144q0 -100 -68 -170t-179 -70zM637 1204q40 0 68 29.5t28 77.5q0 40 -21.5 61t-56.5 21q-42 0 -70 -29t-28 -74q0 -39 22 -62.5 t58 -23.5z" />
<glyph unicode="&#xe6;" horiz-adv-x="1499" d="M23 217q0 314 604 354q10 57 10 99q0 62 -30.5 88t-102.5 26q-79 0 -118 -35t-48 -122l-227 73q2 124 107.5 201.5t289.5 77.5q219 0 293 -115q128 115 327 115q137 0 222.5 -56t85.5 -178q0 -156 -147 -249.5t-429 -106.5q-6 -221 141 -221q128 0 183 139l213 -71 q-55 -126 -154.5 -195.5t-263.5 -69.5q-230 0 -320 150q-61 -67 -151 -108.5t-195 -41.5q-129 0 -209.5 63t-80.5 183zM295 252q0 -84 88 -84q68 0 129.5 39t77.5 104l14 90q-60 -6 -104.5 -13.5t-96.5 -23.5t-80 -44.5t-28 -67.5zM885 573q286 14 286 136q0 73 -73 73 q-83 0 -135.5 -56.5t-77.5 -152.5z" />
<glyph unicode="&#xe7;" horiz-adv-x="948" d="M139 -444l80 127q13 -14 52 -27.5t77 -13.5q41 0 74 17.5t33 61.5q0 74 -176 74l73 182q-297 40 -297 396q0 82 17 163t57 162t98.5 142.5t150 100t202.5 38.5q173 0 261 -82.5t44 -224.5l-254 -45q15 71 -3 113t-69 42q-60 0 -107.5 -40.5t-74.5 -105t-41 -136 t-14 -142.5q0 -190 133 -190t182 149l213 -71q-18 -37 -34 -63.5t-48 -66t-67.5 -65.5t-91 -48t-120.5 -28l-30 -84q28 -3 54.5 -10.5t59 -24t52.5 -49t20 -77.5q0 -60 -27.5 -105t-73.5 -70.5t-99 -38t-111 -12.5q-106 0 -195 52z" />
<glyph unicode="&#xe8;" horiz-adv-x="948" d="M520 399l-209 -77q15 -154 140 -154q127 0 182 139l213 -71q-55 -126 -155 -195.5t-265 -69.5q-178 0 -275.5 98t-97.5 298q0 84 16.5 166t56 164t98 143.5t149 100t202.5 38.5q135 0 222.5 -55t87.5 -168q0 -59 -18 -106.5t-46 -82t-78 -66t-99 -53t-124 -49.5zM549 782 q-93 0 -149.5 -69t-77.5 -189l139 51q32 13 49.5 20.5t42 21t37 27t22 33t9.5 42.5q0 28 -19.5 45.5t-52.5 17.5zM559 1071l-295 391l193 115l239 -420z" />
<glyph unicode="&#xe9;" horiz-adv-x="948" d="M520 399l-209 -77q15 -154 140 -154q127 0 182 139l213 -71q-55 -126 -155 -195.5t-265 -69.5q-178 0 -275.5 98t-97.5 298q0 84 16.5 166t56 164t98 143.5t149 100t202.5 38.5q135 0 222.5 -55t87.5 -168q0 -59 -18 -106.5t-46 -82t-78 -66t-99 -53t-124 -49.5zM549 782 q-93 0 -149.5 -69t-77.5 -189l139 51q32 13 49.5 20.5t42 21t37 27t22 33t9.5 42.5q0 28 -19.5 45.5t-52.5 17.5zM432 1171l295 406l180 -131l-348 -375z" />
<glyph unicode="&#xea;" horiz-adv-x="948" d="M520 399l-209 -77q15 -154 140 -154q127 0 182 139l213 -71q-55 -126 -155 -195.5t-265 -69.5q-178 0 -275.5 98t-97.5 298q0 84 16.5 166t56 164t98 143.5t149 100t202.5 38.5q135 0 222.5 -55t87.5 -168q0 -59 -18 -106.5t-46 -82t-78 -66t-99 -53t-124 -49.5zM549 782 q-93 0 -149.5 -69t-77.5 -189l139 51q32 13 49.5 20.5t42 21t37 27t22 33t9.5 42.5q0 28 -19.5 45.5t-52.5 17.5zM248 1151l282 403h150l219 -421l-143 -62l-162 279l-213 -279z" />
<glyph unicode="&#xeb;" horiz-adv-x="948" d="M520 399l-209 -77q15 -154 140 -154q127 0 182 139l213 -71q-55 -126 -155 -195.5t-265 -69.5q-178 0 -275.5 98t-97.5 298q0 84 16.5 166t56 164t98 143.5t149 100t202.5 38.5q135 0 222.5 -55t87.5 -168q0 -59 -18 -106.5t-46 -82t-78 -66t-99 -53t-124 -49.5zM549 782 q-93 0 -149.5 -69t-77.5 -189l139 51q32 13 49.5 20.5t42 21t37 27t22 33t9.5 42.5q0 28 -19.5 45.5t-52.5 17.5zM811 1135q-62 0 -105.5 43t-43.5 104q0 60 44 104t105 44q59 0 103 -44t44 -104q0 -61 -44 -104t-103 -43zM367 1135q-59 0 -103.5 43t-44.5 104 q0 60 44.5 104t103.5 44q61 0 105 -44t44 -104q0 -61 -43.5 -104t-105.5 -43z" />
<glyph unicode="&#xec;" horiz-adv-x="499" d="M430 950l-135 -950h-250l135 950h250zM324 1071l-295 391l192 115l240 -420z" />
<glyph unicode="&#xed;" horiz-adv-x="499" d="M430 950l-135 -950h-250l135 950h250zM197 1171l295 406l180 -131l-348 -375z" />
<glyph unicode="&#xee;" horiz-adv-x="501" d="M430 950l-135 -950h-250l135 950h250zM12 1151l283 403h149l220 -421l-144 -62l-162 279l-213 -279z" />
<glyph unicode="&#xef;" horiz-adv-x="501" d="M430 950l-135 -950h-250l135 950h250zM575 1135q-62 0 -105.5 43t-43.5 104q0 60 44 104t105 44q59 0 103.5 -44t44.5 -104q0 -61 -44.5 -104t-103.5 -43zM131 1135q-59 0 -103 43t-44 104q0 60 44 104t103 44q61 0 105.5 -44t44.5 -104q0 -61 -44 -104t-106 -43z" />
<glyph unicode="&#xf0;" horiz-adv-x="1046" d="M303 989l-67 123l213 119q-95 57 -226 86l88 180q229 -54 355 -143l237 133l68 -121l-197 -111q191 -228 191 -628q0 -93 -15 -180.5t-53 -175.5t-95.5 -153.5t-149 -106t-206.5 -40.5q-189 0 -291 106.5t-102 293.5q0 76 19 153t58.5 149t94.5 127t134 88.5t171 33.5 q114 0 185 -39q-9 74 -46.5 141t-93.5 119zM457 168q70 0 121 35.5t77.5 96.5t38 127t11.5 142q0 83 -40 119.5t-130 36.5q-59 0 -102.5 -35t-66.5 -93.5t-33.5 -119.5t-10.5 -127q0 -182 135 -182z" />
<glyph unicode="&#xf1;" horiz-adv-x="1087" d="M330 219l-31 -219h-252l133 950h252l-33 -188l9 -2q28 44 56 77.5t70 68.5t99 54t125 19q79 0 130.5 -28t72 -77.5t25.5 -116.5t-9 -145l-86 -612h-252l82 569q13 102 -2.5 146.5t-65.5 44.5q-64 0 -136.5 -94t-122 -218.5t-64.5 -228.5zM244 1112q1 6 3 16t12 39.5 t22.5 56.5t36.5 59.5t52 56t70.5 39.5t91.5 16q38 0 75.5 -17t62.5 -37.5t54 -37.5t52 -17q25 0 44.5 11.5t30 28t17.5 33.5t9 29l2 11h168q-1 -6 -3 -16t-10.5 -39.5t-21 -56.5t-35.5 -59.5t-52 -56t-73 -39.5t-96 -16q-46 0 -83.5 16.5t-58 36t-45 36t-47.5 16.5 q-39 0 -66.5 -27.5t-35.5 -54.5l-8 -27h-168z" />
<glyph unicode="&#xf2;" horiz-adv-x="1038" d="M584 979q185 0 279.5 -102.5t94.5 -298.5q0 -89 -19 -174t-60.5 -164t-102 -138.5t-149.5 -95t-197 -35.5q-186 0 -280.5 103.5t-94.5 300.5q0 91 19.5 177t61.5 164t103 136t149.5 92.5t195.5 34.5zM455 168q60 0 107.5 37.5t74.5 98.5t41 130t14 139q0 114 -32.5 161.5 t-102.5 47.5q-58 0 -104.5 -37.5t-74 -98.5t-42 -131t-14.5 -142q0 -114 31.5 -159.5t101.5 -45.5zM588 1071l-295 391l192 115l240 -420z" />
<glyph unicode="&#xf3;" horiz-adv-x="1038" d="M584 979q185 0 279.5 -102.5t94.5 -298.5q0 -89 -19 -174t-60.5 -164t-102 -138.5t-149.5 -95t-197 -35.5q-186 0 -280.5 103.5t-94.5 300.5q0 91 19.5 177t61.5 164t103 136t149.5 92.5t195.5 34.5zM455 168q60 0 107.5 37.5t74.5 98.5t41 130t14 139q0 114 -32.5 161.5 t-102.5 47.5q-58 0 -104.5 -37.5t-74 -98.5t-42 -131t-14.5 -142q0 -114 31.5 -159.5t101.5 -45.5zM461 1171l295 406l180 -131l-348 -375z" />
<glyph unicode="&#xf4;" horiz-adv-x="1038" d="M584 979q185 0 279.5 -102.5t94.5 -298.5q0 -89 -19 -174t-60.5 -164t-102 -138.5t-149.5 -95t-197 -35.5q-186 0 -280.5 103.5t-94.5 300.5q0 91 19.5 177t61.5 164t103 136t149.5 92.5t195.5 34.5zM455 168q60 0 107.5 37.5t74.5 98.5t41 130t14 139q0 114 -32.5 161.5 t-102.5 47.5q-58 0 -104.5 -37.5t-74 -98.5t-42 -131t-14.5 -142q0 -114 31.5 -159.5t101.5 -45.5zM276 1151l283 403h150l219 -421l-144 -62l-161 279l-213 -279z" />
<glyph unicode="&#xf5;" horiz-adv-x="1038" d="M584 979q185 0 279.5 -102.5t94.5 -298.5q0 -89 -19 -174t-60.5 -164t-102 -138.5t-149.5 -95t-197 -35.5q-186 0 -280.5 103.5t-94.5 300.5q0 91 19.5 177t61.5 164t103 136t149.5 92.5t195.5 34.5zM455 168q60 0 107.5 37.5t74.5 98.5t41 130t14 139q0 114 -32.5 161.5 t-102.5 47.5q-58 0 -104.5 -37.5t-74 -98.5t-42 -131t-14.5 -142q0 -114 31.5 -159.5t101.5 -45.5zM209 1112q1 6 3.5 16t12 39.5t22.5 56.5t36.5 59.5t52 56t71 39.5t91.5 16q38 0 75.5 -17t62 -37.5t53.5 -37.5t52 -17q25 0 44.5 11.5t30 28t17.5 33.5t9 29l2 11h168 q-1 -6 -3 -16t-10.5 -39.5t-21 -56.5t-35.5 -59.5t-52 -56t-73 -39.5t-96 -16q-46 0 -83.5 16.5t-58 36t-45 36t-47.5 16.5q-39 0 -66.5 -27.5t-35.5 -54.5l-8 -27h-168z" />
<glyph unicode="&#xf6;" horiz-adv-x="1038" d="M584 979q185 0 279.5 -102.5t94.5 -298.5q0 -89 -19 -174t-60.5 -164t-102 -138.5t-149.5 -95t-197 -35.5q-186 0 -280.5 103.5t-94.5 300.5q0 91 19.5 177t61.5 164t103 136t149.5 92.5t195.5 34.5zM455 168q60 0 107.5 37.5t74.5 98.5t41 130t14 139q0 114 -32.5 161.5 t-102.5 47.5q-58 0 -104.5 -37.5t-74 -98.5t-42 -131t-14.5 -142q0 -114 31.5 -159.5t101.5 -45.5zM840 1135q-62 0 -106 43t-44 104q0 60 44.5 104t105.5 44q59 0 103 -44t44 -104q0 -61 -44 -104t-103 -43zM395 1135q-59 0 -103 43t-44 104q0 60 44 104t103 44 q61 0 105.5 -44t44.5 -104q0 -61 -44 -104t-106 -43z" />
<glyph unicode="&#xf7;" d="M543 711q-63 0 -107.5 44t-44.5 107t44.5 107.5t107.5 44.5t107 -44.5t44 -107.5t-44 -107t-107 -44zM84 406v180h917v-180h-917zM391 123q0 63 44.5 107t107.5 44t107 -44t44 -107t-44 -107.5t-107 -44.5t-107.5 44.5t-44.5 107.5z" />
<glyph unicode="&#xf8;" horiz-adv-x="1034" d="M-10 -57l133 163q-70 98 -70 263q0 93 18.5 179t60.5 165.5t103 138t152.5 93t202.5 34.5q119 0 201 -49l133 164l94 -76l-137 -168q75 -101 75 -264q0 -92 -18 -178t-59.5 -166.5t-102 -140t-152.5 -95t-204 -35.5q-122 0 -209 52l-125 -154zM700 575q0 20 -4 48 l-342 -422q40 -43 107 -43q69 0 125.5 68t85 162.5t28.5 186.5zM309 367v-29l338 416q-36 39 -98 39q-69 0 -125.5 -70t-85.5 -166.5t-29 -189.5z" />
<glyph unicode="&#xf9;" horiz-adv-x="1077" d="M717 682v-4l37 272h252l-88 -635l-37 -315h-242l25 186l-9 4q-28 -44 -56 -77.5t-70 -68.5t-99 -54t-125 -19q-79 0 -130.5 28t-72 77.5t-25.5 116.5t9 145l86 612h252l-82 -569q-15 -108 1 -149.5t67 -41.5q64 0 136 92t118.5 206.5t52.5 193.5zM608 1071l-295 391 l193 115l239 -420z" />
<glyph unicode="&#xfa;" horiz-adv-x="1077" d="M717 682v-4l37 272h252l-88 -635l-37 -315h-242l25 186l-9 4q-28 -44 -56 -77.5t-70 -68.5t-99 -54t-125 -19q-79 0 -130.5 28t-72 77.5t-25.5 116.5t9 145l86 612h252l-82 -569q-15 -108 1 -149.5t67 -41.5q64 0 136 92t118.5 206.5t52.5 193.5zM481 1171l295 406 l180 -131l-348 -375z" />
<glyph unicode="&#xfb;" horiz-adv-x="1077" d="M717 682v-4l37 272h252l-88 -635l-37 -315h-242l25 186l-9 4q-28 -44 -56 -77.5t-70 -68.5t-99 -54t-125 -19q-79 0 -130.5 28t-72 77.5t-25.5 116.5t9 145l86 612h252l-82 -569q-15 -108 1 -149.5t67 -41.5q64 0 136 92t118.5 206.5t52.5 193.5zM297 1151l283 403h149 l219 -421l-143 -62l-162 279l-213 -279z" />
<glyph unicode="&#xfc;" horiz-adv-x="1077" d="M717 682v-4l37 272h252l-88 -635l-37 -315h-242l25 186l-9 4q-28 -44 -56 -77.5t-70 -68.5t-99 -54t-125 -19q-79 0 -130.5 28t-72 77.5t-25.5 116.5t9 145l86 612h252l-82 -569q-15 -108 1 -149.5t67 -41.5q64 0 136 92t118.5 206.5t52.5 193.5zM860 1135 q-62 0 -105.5 43t-43.5 104q0 60 44 104t105 44q59 0 103.5 -44t44.5 -104q0 -61 -44.5 -104t-103.5 -43zM416 1135q-59 0 -103.5 43t-44.5 104q0 60 44.5 104t103.5 44q61 0 105 -44t44 -104q0 -61 -43.5 -104t-105.5 -43z" />
<glyph unicode="&#xfd;" horiz-adv-x="1007" d="M-78 -379l139 150q47 -70 117 -70q68 0 103.5 66.5t35.5 185.5q0 139 -45 321t-129 439l-77 237h262l67 -202q72 -216 123 -492q81 96 141 205.5t60 200.5q0 126 -146 98l33 196q94 14 160 4.5t108 -44t61 -82t19 -109.5q0 -139 -85 -311t-207 -305q-49 -55 -103 -97v-4 q0 -48 -4 -93.5t-15.5 -96.5t-29 -95.5t-46.5 -85.5t-66.5 -69.5t-90.5 -46t-117 -17.5q-54 0 -101.5 12t-76.5 29t-50.5 34.5t-30.5 29.5zM438 1171l295 406l180 -131l-348 -375z" />
<glyph unicode="&#xfe;" horiz-adv-x="1069" d="M504 1470q-86 -594 -98 -653l8 -4q47 78 123.5 122t162.5 44q130 0 211.5 -99.5t81.5 -271.5q0 -82 -18.5 -168.5t-58.5 -170.5t-95.5 -150.5t-137.5 -107t-177 -40.5q-132 0 -203 78l-72 -516h-251l272 1937h252zM350 348q0 -82 34 -126t97 -44q68 0 126 66.5t89 164 t31 197.5q0 76 -28 121t-72 45q-43 0 -92.5 -38t-90 -97t-67.5 -137.5t-27 -151.5z" />
<glyph unicode="&#xff;" horiz-adv-x="1007" d="M-78 -379l139 150q47 -70 117 -70q68 0 103.5 66.5t35.5 185.5q0 139 -45 321t-129 439l-77 237h262l67 -202q72 -216 123 -492q81 96 141 205.5t60 200.5q0 126 -146 98l33 196q94 14 160 4.5t108 -44t61 -82t19 -109.5q0 -139 -85 -311t-207 -305q-49 -55 -103 -97v-4 q0 -48 -4 -93.5t-15.5 -96.5t-29 -95.5t-46.5 -85.5t-66.5 -69.5t-90.5 -46t-117 -17.5q-54 0 -101.5 12t-76.5 29t-50.5 34.5t-30.5 29.5zM817 1135q-62 0 -105.5 43t-43.5 104q0 60 44 104t105 44q59 0 103.5 -44t44.5 -104q0 -61 -44.5 -104t-103.5 -43zM373 1135 q-59 0 -103.5 43t-44.5 104q0 60 44.5 104t103.5 44q61 0 105 -44t44 -104q0 -61 -43.5 -104t-105.5 -43z" />
<glyph unicode="&#x152;" horiz-adv-x="1937" d="M98 528q0 249 88.5 442.5t254.5 302.5t384 109q138 0 244 -28h875l-35 -238h-615l-43 -315h512l-34 -238h-510l-48 -325h629l-35 -238h-882q-104 -29 -238 -29q-266 0 -406.5 151t-140.5 406zM385 508q0 -156 73 -231.5t204 -75.5q152 0 241 47l121 864q-81 41 -215 41 q-91 0 -164.5 -40t-121 -104.5t-79.5 -150.5t-45.5 -173t-13.5 -177z" />
<glyph unicode="&#x153;" horiz-adv-x="1550" d="M55 369q0 93 18.5 179t60.5 165.5t103 138t152.5 93t202.5 34.5q173 0 262 -127q120 127 324 127q87 0 155 -21.5t112 -73t44 -128.5q0 -59 -18 -106.5t-46 -82t-78 -66t-99 -53t-124 -49.5l-211 -77q8 -71 45 -112.5t97 -41.5q64 0 110 37t70 102l213 -71 q-54 -127 -153.5 -196t-266.5 -69q-97 0 -167 27.5t-113 97.5q-125 -125 -326 -125q-175 0 -271 104t-96 294zM322 367q0 -199 141 -199q66 0 120 66t81.5 158.5t27.5 182.5q0 207 -141 207q-66 0 -120 -68t-81.5 -162t-27.5 -185zM1151 782q-93 0 -148 -69.5t-77 -188.5 l141 51q38 14 60.5 25t48 28t37.5 39.5t12 51.5q0 26 -18.5 44.5t-55.5 18.5z" />
<glyph unicode="&#x178;" horiz-adv-x="1179" d="M649 0h-270l76 539l-355 815h289l232 -543l366 543h295l-557 -817zM985 1526q-62 0 -105.5 43t-43.5 104q0 60 44 104t105 44q59 0 103.5 -44t44.5 -104q0 -61 -44.5 -104t-103.5 -43zM487 1526q-59 0 -103 43t-44 104q0 60 44 104t103 44q61 0 105.5 -44t44.5 -104 q0 -61 -44 -104t-106 -43z" />
<glyph unicode="&#x2c6;" horiz-adv-x="1024" d="M188 1151l283 403h150l219 -421l-144 -62l-161 279l-213 -279z" />
<glyph unicode="&#x2dc;" horiz-adv-x="1001" d="M121 1112q1 6 3.5 16t12 39.5t22.5 56.5t36.5 59.5t52 56t71 39.5t91.5 16q38 0 75.5 -17t62 -37.5t53.5 -37.5t52 -17q25 0 44.5 11.5t30 28t17.5 33.5t9 29l2 11h168q-1 -6 -3 -16t-10.5 -39.5t-21 -56.5t-35.5 -59.5t-52 -56t-73 -39.5t-96 -16q-46 0 -83.5 16.5 t-58 36t-45 36t-47.5 16.5q-39 0 -66.5 -27.5t-35.5 -54.5l-8 -27h-168z" />
<glyph unicode="&#x2000;" horiz-adv-x="952" />
<glyph unicode="&#x2001;" horiz-adv-x="1905" />
<glyph unicode="&#x2002;" horiz-adv-x="952" />
<glyph unicode="&#x2003;" horiz-adv-x="1905" />
<glyph unicode="&#x2004;" horiz-adv-x="635" />
<glyph unicode="&#x2005;" horiz-adv-x="476" />
<glyph unicode="&#x2006;" horiz-adv-x="317" />
<glyph unicode="&#x2007;" horiz-adv-x="317" />
<glyph unicode="&#x2008;" horiz-adv-x="238" />
<glyph unicode="&#x2009;" horiz-adv-x="381" />
<glyph unicode="&#x200a;" horiz-adv-x="105" />
<glyph unicode="&#x2010;" horiz-adv-x="751" d="M90 371l31 221h516l-31 -221h-516z" />
<glyph unicode="&#x2011;" horiz-adv-x="751" d="M90 371l31 221h516l-31 -221h-516z" />
<glyph unicode="&#x2012;" horiz-adv-x="751" d="M90 371l31 221h516l-31 -221h-516z" />
<glyph unicode="&#x2013;" horiz-adv-x="1296" d="M123 391v182h1024v-182h-1024z" />
<glyph unicode="&#x2014;" horiz-adv-x="2320" d="M123 391v182h2048v-182h-2048z" />
<glyph unicode="&#x2018;" horiz-adv-x="501" d="M449 1491l92 -119q-71 -50 -116.5 -106t-45.5 -129q0 -45 19 -76.5t75 -89.5l-184 -168q-58 22 -104 77t-46 142q0 71 24 137t70 125t96.5 106.5t119.5 100.5z" />
<glyph unicode="&#x2019;" horiz-adv-x="499" d="M215 799l-92 119q71 50 116.5 106t45.5 129q0 45 -19 76.5t-76 89.5l185 168q58 -22 103.5 -77t45.5 -142q0 -71 -24 -137t-69.5 -125t-96 -106.5t-119.5 -100.5z" />
<glyph unicode="&#x201a;" horiz-adv-x="497" d="M37 -375l-92 119q161 114 161 236q0 45 -19 76t-75 89l185 168q58 -22 103.5 -77t45.5 -142q0 -71 -24 -137t-69.5 -125t-96 -106.5t-119.5 -100.5z" />
<glyph unicode="&#x201c;" horiz-adv-x="911" d="M449 1491l92 -119q-71 -50 -116.5 -106t-45.5 -129q0 -45 19 -76.5t75 -89.5l-184 -168q-58 22 -104 77t-46 142q0 71 24 137t70 125t96.5 106.5t119.5 100.5zM858 1491l92 -119q-71 -50 -116.5 -106t-45.5 -129q0 -45 19 -76.5t76 -89.5l-185 -168q-58 22 -103.5 77 t-45.5 142q0 71 24 137t69.5 125t96 106.5t119.5 100.5z" />
<glyph unicode="&#x201d;" horiz-adv-x="909" d="M215 799l-92 119q71 50 116.5 106t45.5 129q0 45 -19 76.5t-76 89.5l185 168q58 -22 103.5 -77t45.5 -142q0 -71 -24 -137t-69.5 -125t-96 -106.5t-119.5 -100.5zM625 799l-93 119q71 50 116.5 106t45.5 129q0 45 -19 76.5t-75 89.5l184 168q58 -22 104 -77t46 -142 q0 -71 -24 -137t-69.5 -125t-96 -106.5t-119.5 -100.5z" />
<glyph unicode="&#x201e;" horiz-adv-x="907" d="M37 -375l-92 119q161 114 161 236q0 45 -19 76t-75 89l185 168q58 -22 103.5 -77t45.5 -142q0 -71 -24 -137t-69.5 -125t-96 -106.5t-119.5 -100.5zM446 -375l-92 119q71 50 116.5 106.5t45.5 129.5q0 45 -19 76t-75 89l184 168q58 -22 104 -77t46 -142q0 -71 -24 -137 t-70 -125t-96.5 -106.5t-119.5 -100.5z" />
<glyph unicode="&#x2022;" horiz-adv-x="950" d="M123 489q0 141 100.5 241.5t241.5 100.5t241.5 -100.5t100.5 -241.5t-100.5 -241.5t-241.5 -100.5t-241.5 100.5t-100.5 241.5z" />
<glyph unicode="&#x2026;" horiz-adv-x="1505" d="M33 143q0 72 50 123t122 51t123 -51t51 -123t-51 -122t-123 -50t-122 50t-50 122zM524 143q0 72 50 123t122 51t123 -51t51 -123t-51 -122t-123 -50t-122 50t-50 122zM1016 143q0 72 50 123t122 51t123 -51t51 -123t-51 -122t-123 -50t-122 50t-50 122z" />
<glyph unicode="&#x202f;" horiz-adv-x="381" />
<glyph unicode="&#x2039;" horiz-adv-x="610" d="M315 2q-101 92 -177.5 227.5t-76.5 237.5q0 75 66.5 173.5t152.5 177.5t169 132l120 -162q-53 -42 -85.5 -72.5t-70.5 -75.5t-56.5 -96t-18.5 -108q0 -62 30.5 -125t110.5 -151z" />
<glyph unicode="&#x203a;" horiz-adv-x="610" d="M106 793l164 157q101 -92 177.5 -227.5t76.5 -237.5q0 -57 -38.5 -128.5t-98 -137t-125 -122.5t-125.5 -95l-121 162q53 42 85.5 72t71 75.5t57 96.5t18.5 108q0 62 -31 125.5t-111 151.5z" />
<glyph unicode="&#x205f;" horiz-adv-x="476" />
<glyph unicode="&#x20ac;" d="M18 629l17 123h143q29 88 74 159.5t109.5 127.5t153.5 87t196 31q59 0 113.5 -7.5t112.5 -28.5t98 -54t61.5 -89t11.5 -128l-260 -49q9 83 -31.5 117t-126.5 34q-170 0 -239 -200h319l-16 -123h-332q-8 -46 -12 -135h323l-16 -123h-305q10 -107 61 -151t148 -44 q50 0 89.5 15.5t59 37.5t32.5 44t16 37l3 16l219 -52q-1 -6 -3.5 -17t-15.5 -42.5t-31 -60t-53.5 -63.5t-80 -60.5t-113.5 -42.5t-151 -17q-420 0 -455 400h-155l16 123h137q3 68 15 135h-132z" />
<glyph unicode="&#x2122;" horiz-adv-x="1800" d="M870 717v637h281l143 -410l136 410h278v-637h-184v477l-160 -477h-145l-164 471v-471h-185zM209 1180v174h575v-174h-180v-463h-194v463h-201z" />
</font>
</defs>
</svg>
