<?xml version="1.0" standalone="no"?>
<!DOCTYPE svg PUBLIC "-//W3C//DTD SVG 1.1//EN" "http://www.w3.org/Graphics/SVG/1.1/DTD/svg11.dtd" >
<svg xmlns="http://www.w3.org/2000/svg">
<metadata></metadata>
<defs>
<font id="libel_suitlight_italic" horiz-adv-x="804" >
<font-face units-per-em="2048" ascent="1616" descent="-432" />
<missing-glyph horiz-adv-x="342" />
<glyph horiz-adv-x="0" />
<glyph horiz-adv-x="682" />
<glyph horiz-adv-x="342" />
<glyph unicode=" "  horiz-adv-x="342" />
<glyph unicode="&#x09;" horiz-adv-x="342" />
<glyph unicode="&#xa0;" horiz-adv-x="342" />
<glyph unicode="!" horiz-adv-x="333" d="M356 1632h129l-323 -1253h-62zM78 150q27 0 41 -16t14 -42q0 -39 -24.5 -68.5t-65.5 -29.5q-26 0 -39.5 16.5t-13.5 42.5q0 39 24.5 68t63.5 29z" />
<glyph unicode="&#x22;" horiz-adv-x="485" d="M555 1632h98l-135 -522h-69zM338 1632h98l-135 -522h-70z" />
<glyph unicode="#" horiz-adv-x="1015" d="M102 588h187l155 432h-188l31 84h188l180 500h84l-180 -500h240l180 500h86l-180 -500h186l-31 -84h-186l-156 -432h189l-31 -84h-188l-181 -504h-84l181 504h-242l-180 -504h-84l180 504h-186zM528 1020l-155 -432h241l154 432h-240z" />
<glyph unicode="$" horiz-adv-x="786" d="M631 1645h51l-47 -205q96 -4 145 -55t49 -134q0 -37 -30 -166h-94q30 121 30 148q0 55 -39 84t-108 29q-104 0 -170 -65t-66 -169q0 -77 45 -137q22 -29 111.5 -113t120.5 -131q47 -68 47 -176q0 -74 -19.5 -141t-59 -123.5t-106 -92t-153.5 -40.5l-45 -199h-51l45 199 q-103 6 -158 58.5t-55 141.5q0 34 47 232l88 -25q-37 -163 -37 -184q0 -59 41.5 -92t122.5 -33q58 0 102.5 18t70.5 45.5t42 65.5t21.5 72.5t5.5 72.5q0 88 -43 150q-32 47 -120 128t-112 116q-49 69 -49 174q0 143 90.5 238t237.5 104z" />
<glyph unicode="%" horiz-adv-x="1187" d="M1130 1604h82l-1030 -1604h-84zM1110 721l-129 -559q-18 -81 -79.5 -129.5t-137.5 -48.5q-78 0 -117.5 48t-21.5 130l127 559q18 81 80.5 128.5t140.5 47.5q77 0 116 -47.5t21 -128.5zM825 721l-129 -559q-14 -57 9.5 -84t72.5 -27q45 0 83 31t48 80l129 559 q24 106 -82 106q-46 0 -84 -31t-47 -75zM684 1442l-129 -559q-18 -81 -79.5 -129.5t-137.5 -48.5q-78 0 -117.5 48t-21.5 130l127 559q18 81 80.5 128.5t140.5 47.5q77 0 116 -47.5t21 -128.5zM399 1442l-129 -559q-14 -57 9.5 -84t72.5 -27q45 0 83 31t48 80l129 559 q24 106 -82 106q-46 0 -84 -31t-47 -75z" />
<glyph unicode="&#x26;" horiz-adv-x="849" d="M397 1348l-59 -261q-14 -68 -14 -96q0 -60 34 -81t111 -21h387l-20 -88h-162l-131 -578q-11 -53 -11 -73q0 -68 64 -68q43 0 90 37l-2 -88q-56 -47 -131 -47q-98 0 -121 88q-87 -97 -209 -97q-97 0 -147.5 59t-50.5 156q0 48 12 97l67 295q28 120 79 181.5t128 84.5 q-44 14 -65 44.5t-21 86.5q0 47 15 111l59 262q36 151 132.5 242.5t225.5 91.5q101 0 159 -58t58 -160q0 -44 -12 -96l-12 -53h-92l10 49q10 39 10 84q0 67 -35.5 100t-99.5 33q-95 0 -158.5 -65t-87.5 -172zM428 162q2 18 10 53l135 586h-131q-102 0 -157.5 -51t-81.5 -168 l-66 -291q-8 -36 -8 -74q0 -65 31.5 -103t95.5 -38q108 0 172 86z" />
<glyph unicode="'" horiz-adv-x="266" d="M338 1632h98l-135 -522h-70z" />
<glyph unicode="(" horiz-adv-x="591" d="M862 1964l-18 -88q-130 -18 -214.5 -103.5t-127.5 -273.5l-338 -1464q-21 -91 -21 -158q0 -104 48 -155t141 -64l-21 -88q-256 34 -256 295q0 73 21 168l340 1468q96 416 446 463z" />
<glyph unicode=")" horiz-adv-x="591" d="M-162 -430l19 88q130 18 214.5 103.5t127.5 273.5l338 1464q20 87 20 158q0 104 -47.5 155t-140.5 64l20 88q256 -34 256 -295q0 -78 -20 -168l-340 -1468q-96 -416 -447 -463z" />
<glyph unicode="*" horiz-adv-x="874" d="M340 1427l233 -196l72 373h74l-98 -371l325 199l23 -66l-332 -174l252 -174l-51 -66l-232 197l-74 -373h-73l98 371l-326 -199l-20 66l330 174l-252 174z" />
<glyph unicode="+" horiz-adv-x="1038" d="M637 1229h86l-94 -406h360l-20 -88h-361l-92 -405h-88l94 405h-358l20 88h359z" />
<glyph unicode="," horiz-adv-x="305" d="M88 14l-158 -262h-43l93 322q19 76 81 76q28 0 43 -16.5t15 -43.5q0 -12 -3.5 -23t-6.5 -17.5t-10.5 -18.5t-10.5 -17z" />
<glyph unicode="-" horiz-adv-x="624" d="M150 821h458l-20 -88h-459z" />
<glyph unicode="." horiz-adv-x="305" d="M61 150q28 0 42 -16t14 -42q0 -40 -24 -69t-66 -29q-25 0 -38.5 16.5t-13.5 42.5q0 39 24 68t62 29z" />
<glyph unicode="/" horiz-adv-x="712" d="M866 1780h90l-1003 -2026h-88z" />
<glyph unicode="0" d="M879 1311l-236 -1018q-34 -147 -139 -234.5t-232 -87.5q-104 0 -167.5 61t-63.5 167q0 45 12 94l234 1018q33 147 137 234t231 87q105 0 169.5 -62t64.5 -169q0 -49 -10 -90zM389 1311l-235 -1018q-11 -49 -11 -74q0 -71 42 -109t112 -38q81 0 150 61.5t92 159.5 l235 1018q8 36 8 73q0 72 -40.5 110t-108.5 38q-84 0 -152.5 -61t-91.5 -160z" />
<glyph unicode="1" horiz-adv-x="456" d="M272 1446h99q40 0 65.5 40t44.5 118h105l-371 -1604h-104l311 1354h-170z" />
<glyph unicode="2" horiz-adv-x="731" d="M627 1632q108 0 163.5 -62t55.5 -196q0 -103 -35 -188.5t-121 -188.5q-64 -77 -207 -216.5t-190 -192.5q-61 -70 -89.5 -127t-49.5 -146l-50 -215h453l-22 -100h-558l74 315q22 96 56.5 165.5t99.5 146.5q56 64 178.5 183t220.5 226q41 46 65.5 81t46 99t21.5 140 q0 93 -34 134.5t-105 41.5q-88 0 -150 -57.5t-85 -161.5l-13 -51h-96l12 53q34 149 128.5 233t230.5 84z" />
<glyph unicode="3" horiz-adv-x="770" d="M625 1632q112 0 168.5 -61.5t56.5 -169.5q0 -43 -14 -115l-50 -211q-24 -110 -69.5 -166.5t-118.5 -77.5q102 -32 102 -153q0 -45 -16 -117l-61 -274q-33 -143 -138 -229.5t-233 -86.5q-105 0 -166 59.5t-61 164.5q0 45 12 94l18 82l92 -25l-12 -55q-8 -33 -8 -68 q0 -71 39.5 -111t107.5 -40q85 0 154 60t90 157l64 274q14 55 14 101q0 64 -36.5 91t-117.5 27h-106l20 92h103q98 0 148.5 42.5t76.5 156.5l49 215q12 52 12 96q0 148 -143 148q-85 0 -146 -59.5t-85 -161.5l-11 -49h-98l12 53q34 147 128.5 232t222.5 85z" />
<glyph unicode="4" horiz-adv-x="780" d="M762 1604h98l-219 -949h96l-24 -100h-97l-127 -555h-96l127 555h-440l20 92l422 701h96l-415 -693h340z" />
<glyph unicode="5" horiz-adv-x="763" d="M381 1604h516l-25 -101h-423l-125 -395q121 113 264 113q176 0 176 -172q0 -52 -14 -115l-148 -645q-33 -144 -133.5 -231t-220.5 -87q-102 0 -163.5 61t-61.5 167q0 49 10 90l18 82l92 -25l-12 -55q-8 -31 -8 -66q0 -70 39.5 -111.5t101.5 -41.5q78 0 145.5 60.5 t90.5 158.5l149 645q13 54 13 84q0 61 -32 84.5t-93 23.5q-76 0 -136.5 -39.5t-119.5 -111.5l-76 29z" />
<glyph unicode="6" horiz-adv-x="786" d="M391 1313l-78 -336q119 139 262 139q86 0 134.5 -47.5t48.5 -140.5q0 -40 -13 -103l-124 -536q-33 -144 -135.5 -231t-225.5 -87q-99 0 -159 60.5t-60 165.5q0 51 10 92l238 1026q33 146 133.5 231.5t230.5 85.5q104 0 160.5 -57.5t56.5 -159.5q0 -45 -12 -100l-12 -53 h-96l10 51q10 45 10 76q0 68 -36.5 105.5t-102.5 37.5q-86 0 -151.5 -59t-88.5 -160zM528 1018q-65 0 -122.5 -37t-118.5 -115l-133 -575q-9 -38 -9 -68q0 -71 38.5 -111t105.5 -40q80 0 146 59.5t89 159.5l121 518q10 52 10 82q0 127 -127 127z" />
<glyph unicode="7" horiz-adv-x="665" d="M322 1604h518l-21 -86l-674 -1518h-108l680 1503h-418z" />
<glyph unicode="8" horiz-adv-x="776" d="M219 1087l47 199q36 154 133.5 250t233.5 96q110 0 166.5 -62t56.5 -169q0 -58 -14 -115l-45 -199q-27 -112 -76 -173t-123 -83q107 -31 107 -161q0 -47 -15 -115l-63 -268q-33 -143 -139.5 -229.5t-237.5 -86.5q-109 0 -175.5 62t-66.5 168q0 34 10 86l62 268 q28 124 82.5 190t136.5 89q-94 31 -94 145q0 48 14 108zM180 563l-61 -268q-10 -45 -10 -72q0 -75 45 -114t120 -39q86 0 160.5 64t97.5 161l62 268q14 68 14 101q0 66 -40 93t-132 27q-103 0 -165.5 -50.5t-90.5 -170.5zM362 1290l-49 -219q-12 -56 -12 -92q0 -59 36 -83 t122 -24q94 0 153 44.5t84 154.5l49 219q13 60 13 99q0 145 -148 145q-90 0 -156 -69t-92 -175z" />
<glyph unicode="9" horiz-adv-x="786" d="M279 72q87 0 151.5 58.5t87.5 160.5l88 383q-117 -133 -260 -133q-86 0 -134 47.5t-48 140.5q0 44 12 102l113 484q32 141 133.5 229t226.5 88q99 0 159 -60t60 -165q0 -51 -10 -92l-237 -1026q-33 -146 -134 -232t-231 -86q-104 0 -160.5 57.5t-56.5 159.5q0 46 12 101 l19 82l92 -25l-12 -55q-11 -53 -11 -80q0 -69 37 -104t103 -35zM385 1313l-106 -465q-13 -57 -13 -88q0 -121 125 -121q127 0 242 145l123 529q10 48 10 76q0 72 -38.5 107.5t-100.5 35.5q-84 0 -151.5 -61t-90.5 -158z" />
<glyph unicode=":" horiz-adv-x="389" d="M260 834q55 0 55 -58q0 -40 -24 -69t-66 -29q-25 0 -38 16.5t-13 42.5q0 39 24 68t62 29zM127 252q55 0 55 -57q0 -40 -24 -69.5t-66 -29.5q-25 0 -38 17t-13 43q0 39 24 67.5t62 28.5z" />
<glyph unicode=";" horiz-adv-x="389" d="M154 117l-158 -262h-43l92 321q19 76 82 76q57 0 57 -59q0 -12 -3 -23t-6 -17t-11 -19t-10 -17zM260 834q55 0 55 -58q0 -40 -24 -69t-66 -29q-25 0 -38 16.5t-13 42.5q0 39 24 68t62 29z" />
<glyph unicode="&#x3c;" horiz-adv-x="1038" d="M184 821l887 359l-22 -97l-793 -309l651 -313l-22 -88l-723 358z" />
<glyph unicode="=" horiz-adv-x="1040" d="M231 1022h803l-18 -88h-807zM137 618h805l-20 -88h-805z" />
<glyph unicode="&#x3e;" horiz-adv-x="1038" d="M969 731l-887 -358l22 96l791 307l-649 316l22 88l723 -359z" />
<glyph unicode="?" horiz-adv-x="718" d="M623 1645q100 0 156.5 -57t56.5 -177q0 -63 -12 -114.5t-41 -105t-65.5 -105.5t-96.5 -131l-21 -27q-79 -108 -116 -162t-72 -119.5t-52.5 -122t-37.5 -145.5h-68q19 124 52 214.5t78 164t142 207.5q131 178 169 253t38 175q0 82 -32.5 116.5t-98.5 34.5q-87 0 -154 -55 t-90 -152l-16 -75h-92l18 79q31 143 130 223.5t225 80.5zM238 150q53 0 53 -58q0 -38 -24 -68t-62 -30q-55 0 -55 59q0 39 24.5 68t63.5 29z" />
<glyph unicode="@" horiz-adv-x="1323" d="M883 961l73 20l-165 -723q-9 -30 -9 -53q0 -60 70 -60q77 0 143.5 61.5t110.5 156t75.5 210t45.5 221.5t14 191q0 197 -84.5 293t-255.5 96q-141 0 -266.5 -63t-218 -171t-160.5 -248.5t-102.5 -299.5t-34.5 -320q0 -220 61 -367t158 -222l-51 -70q-242 184 -242 635 q0 144 25.5 288t74 278t124 249t168.5 201t215 135t257 49q210 0 308 -117.5t98 -349.5q0 -102 -16.5 -219t-54.5 -240t-92 -222t-136.5 -162.5t-179.5 -63.5q-114 0 -123 94q-84 -94 -178 -94q-55 0 -87 33.5t-32 95.5q0 28 10 76l109 471q22 98 77 151t121 53 q84 0 129 -84zM602 743l-106 -458q-9 -44 -9 -62q0 -36 18.5 -57t53.5 -21q47 0 99 30t63 79l123 539q-18 45 -49.5 67.5t-67.5 22.5q-46 0 -78 -36t-47 -104z" />
<glyph unicode="A" horiz-adv-x="788" d="M586 1604h106l-90 -1604h-102l18 281h-362l-111 -281h-102zM190 371h334l64 1007z" />
<glyph unicode="B" horiz-adv-x="802" d="M365 1604h292q105 0 163.5 -57.5t58.5 -160.5q0 -40 -13 -100l-47 -211q-24 -108 -70.5 -165.5t-117.5 -78.5q100 -32 100 -153q0 -54 -14 -117l-55 -231q-38 -157 -133.5 -243.5t-227.5 -86.5h-307zM276 782l-155 -682h194q91 0 156 64t90 172l51 227q15 77 15 105 q0 64 -35.5 89t-116.5 25h-199zM444 1503l-145 -629h190q96 0 147.5 43t78.5 156l47 203q10 41 10 86q0 141 -145 141h-183z" />
<glyph unicode="C" horiz-adv-x="759" d="M391 1313l-237 -1022q-9 -41 -9 -70q0 -74 38 -111.5t102 -37.5q82 0 149 59.5t90 159.5l13 55l102 25l-18 -82q-32 -142 -134.5 -230t-226.5 -88q-100 0 -160.5 60.5t-60.5 165.5q0 43 12 92l238 1026q33 146 133.5 231.5t230.5 85.5q104 0 160.5 -57t56.5 -160 q0 -45 -24 -153h-98q22 98 22 131q0 69 -35.5 104t-101.5 35q-88 0 -153.5 -58.5t-88.5 -160.5z" />
<glyph unicode="D" horiz-adv-x="808" d="M365 1604h297q106 0 162.5 -57t56.5 -171q0 -57 -19 -141l-200 -866q-42 -183 -138.5 -276t-230.5 -93h-299zM444 1503l-321 -1403h184q92 0 156.5 68.5t93.5 196.5l203 874q16 72 16 117q0 147 -145 147h-187z" />
<glyph unicode="E" horiz-adv-x="679" d="M365 1604h475l-25 -101h-371l-143 -624h281l-23 -101h-283l-153 -678h371l-25 -100h-475z" />
<glyph unicode="F" horiz-adv-x="681" d="M365 1604h493l-22 -101h-392l-155 -680h305l-25 -100h-305l-166 -723h-104z" />
<glyph unicode="G" horiz-adv-x="786" d="M389 1313l-235 -1022q-13 -53 -11 -82q0 -67 35.5 -102t97.5 -35q86 0 155 60.5t91 156.5l109 469h-197l23 98h288l-196 -856h-68l15 98q-51 -60 -117.5 -93.5t-140.5 -33.5q-94 0 -146.5 56t-52.5 157q0 50 12 105l238 1026q33 145 133.5 231t228.5 86q103 0 161 -58 t58 -161q0 -45 -24 -151h-96q20 100 20 131q0 68 -37.5 103.5t-101.5 35.5q-86 0 -152.5 -59.5t-89.5 -159.5z" />
<glyph unicode="H" horiz-adv-x="827" d="M365 1604h104l-170 -736h383l170 736h104l-370 -1604h-105l176 766h-383l-176 -766h-104z" />
<glyph unicode="I" horiz-adv-x="339" d="M365 1604h104l-371 -1604h-104z" />
<glyph unicode="J" horiz-adv-x="753" d="M784 1604h103l-303 -1315q-34 -148 -135 -233t-226 -85q-103 0 -162 58t-59 161q0 47 31 181l92 -25q-23 -107 -23 -133q0 -68 38 -104.5t104 -36.5q86 0 150 59.5t87 159.5z" />
<glyph unicode="K" horiz-adv-x="749" d="M805 1604h113l-517 -676l170 -928h-108l-160 889l-205 -889h-104l371 1604h104l-147 -641z" />
<glyph unicode="L" horiz-adv-x="624" d="M365 1604h104l-346 -1504h334l-25 -100h-438z" />
<glyph unicode="M" horiz-adv-x="1048" d="M365 1604h112l-33 -1420l623 1420h111l-371 -1604h-96l295 1280l-553 -1280h-101l35 1284l-297 -1284h-96z" />
<glyph unicode="N" horiz-adv-x="808" d="M365 1604h118l54 -1340l309 1340h92l-371 -1604h-94l-67 1382l-318 -1382h-94z" />
<glyph unicode="O" d="M879 1311l-236 -1018q-34 -147 -139 -234.5t-232 -87.5q-104 0 -167.5 61t-63.5 167q0 45 12 94l234 1018q33 147 137 234t231 87q105 0 169.5 -62t64.5 -169q0 -49 -10 -90zM389 1311l-235 -1018q-11 -49 -11 -74q0 -71 42 -109t112 -38q81 0 150 61.5t92 159.5 l235 1018q8 36 8 73q0 72 -40.5 110t-108.5 38q-84 0 -152.5 -61t-91.5 -160z" />
<glyph unicode="P" horiz-adv-x="790" d="M365 1604h297q106 0 162.5 -57t56.5 -171q0 -57 -19 -141l-53 -234q-42 -183 -139.5 -275.5t-231.5 -92.5h-194l-146 -633h-104zM444 1503l-176 -770h185q92 0 157.5 68.5t94.5 195.5l55 242q16 72 16 119q0 145 -145 145h-187z" />
<glyph unicode="Q" horiz-adv-x="806" d="M879 1311l-232 -1002q-28 -126 -121 -219l88 -203l-90 -57l-86 199q-77 -41 -162 -41q-104 0 -167.5 60.5t-63.5 166.5q0 45 12 94l232 1002q34 147 137 234t229 87q105 0 169.5 -62t64.5 -173q0 -45 -10 -86zM328 291l88 55l69 -164q40 49 58 123l231 1006q10 45 10 78 q0 69 -41.5 106t-107.5 37q-85 0 -154 -61t-92 -160l-231 -1006q-11 -49 -11 -76q0 -69 42 -107t108 -38q57 0 106 27z" />
<glyph unicode="R" horiz-adv-x="806" d="M365 1604h292q105 0 163.5 -57.5t58.5 -160.5q0 -40 -13 -100l-47 -211q-43 -191 -172 -237q84 -32 84 -138q0 -42 -12 -98l-139 -602h-103l141 608q11 57 11 80q0 57 -37 77.5t-125 20.5h-188l-183 -786h-102zM444 1503l-145 -624h182q101 0 154.5 43.5t79.5 150.5 l47 203q10 52 10 84q0 70 -37.5 106.5t-107.5 36.5h-183z" />
<glyph unicode="S" horiz-adv-x="753" d="M635 1632q105 0 161 -57.5t56 -159.5q0 -40 -25 -155h-98q23 110 23 143q0 131 -134 131q-116 0 -190 -91.5t-74 -219.5q0 -90 41 -174q18 -37 100.5 -173t108.5 -194q43 -91 43 -213q0 -94 -25 -182t-72 -159t-123 -114t-171 -43q-119 0 -183.5 63t-64.5 165 q0 41 33 170l92 -25q-24 -103 -24 -137q0 -70 40.5 -103.5t110.5 -33.5q58 0 105.5 21.5t80 58t55 85.5t32.5 103t10 111q0 101 -39 184q-24 52 -100 172t-101 172q-51 105 -51 225q0 181 110.5 305.5t272.5 124.5z" />
<glyph unicode="T" horiz-adv-x="630" d="M317 1604h490l-23 -101h-194l-346 -1503h-105l346 1503h-192z" />
<glyph unicode="U" horiz-adv-x="819" d="M362 1604h105l-303 -1311q-10 -48 -10 -76q0 -72 39.5 -108.5t107.5 -36.5q84 0 153.5 62t92.5 159l303 1311h102l-303 -1311q-34 -147 -139 -234.5t-234 -87.5q-104 0 -166.5 61t-62.5 167q0 41 12 94z" />
<glyph unicode="V" horiz-adv-x="790" d="M313 1604h103l-90 -1379l542 1379h103l-643 -1604h-109z" />
<glyph unicode="W" horiz-adv-x="1122" d="M322 1604h100l-191 -1334l525 1334h102l-115 -1338l453 1338h102l-553 -1604h-106l115 1378l-545 -1378h-105z" />
<glyph unicode="X" horiz-adv-x="813" d="M874 1604h107l-455 -779l107 -825h-107l-88 694l-399 -694h-105l486 844l-96 760h102l82 -629z" />
<glyph unicode="Y" horiz-adv-x="821" d="M303 1604h105l79 -727l418 727h107l-500 -854l-172 -750h-104l172 750z" />
<glyph unicode="Z" horiz-adv-x="724" d="M338 1604h549l-17 -80l-778 -1424h449l-23 -100h-557l21 96l770 1407h-437z" />
<glyph unicode="[" horiz-adv-x="591" d="M522 1964h342l-20 -88h-254l-512 -2218h254l-21 -88h-342z" />
<glyph unicode="\" horiz-adv-x="700" d="M332 1780h88l69 -2026h-88z" />
<glyph unicode="]" horiz-adv-x="591" d="M182 -430h-342l21 88h254l512 2218h-254l20 88h342z" />
<glyph unicode="^" horiz-adv-x="897" d="M649 1604h90l109 -899h-86l-88 798l-455 -798h-92z" />
<glyph unicode="_" horiz-adv-x="819" d="M-137 -156h782l-16 -75h-785z" />
<glyph unicode="`" horiz-adv-x="563" d="M469 1673h115l86 -323h-90z" />
<glyph unicode="a" horiz-adv-x="770" d="M309 1057l-43 71q55 65 134 102.5t159 37.5q101 0 152 -58t51 -161q0 -61 -14 -121l-216 -928h-69l4 92q-127 -108 -264 -108q-91 0 -140 57t-49 188q0 67 14.5 122.5t53 117t110.5 126t181 136.5q112 74 268 158q23 106 23 139q0 68 -35 105.5t-103 37.5 q-126 0 -217 -114zM252 82q112 0 229 111l135 593q-129 -71 -208 -124q-159 -106 -223 -203.5t-64 -210.5q0 -91 34 -128.5t97 -37.5z" />
<glyph unicode="b" horiz-adv-x="790" d="M373 1645l108 24l-123 -528q124 127 260 127q82 0 133.5 -52t51.5 -151q0 -45 -12 -100l-156 -678q-33 -146 -122 -224.5t-191 -78.5q-140 0 -207 137l-45 -121h-76zM571 1167q-59 0 -115 -32.5t-124 -108.5l-187 -807q58 -135 170 -135q78 0 138.5 59.5t83.5 159.5 l149 645q12 49 12 88q0 67 -33.5 99t-93.5 32z" />
<glyph unicode="c" horiz-adv-x="743" d="M305 961l-153 -670q-9 -38 -9 -66q0 -68 35.5 -104.5t97.5 -36.5q78 0 142 56t84 151l20 100l103 25l-31 -129q-33 -138 -130 -220.5t-214 -82.5q-95 0 -152 57t-57 160q0 45 10 86l158 678q32 138 127 220.5t211 82.5q96 0 154.5 -58.5t58.5 -158.5q0 -33 -23 -140h-92 q21 84 21 115q0 67 -38 104t-100 37q-77 0 -138.5 -55t-84.5 -151z" />
<glyph unicode="d" horiz-adv-x="798" d="M836 1645l108 24l-385 -1669h-76l11 123q-133 -139 -271 -139q-82 0 -133 52t-51 150q0 46 12 101l158 678q33 146 121 224.5t190 78.5q131 0 199 -127zM303 948l-147 -645q-13 -54 -13 -88q0 -67 33.5 -99t93.5 -32q57 0 114.5 33t125.5 110l184 803q-59 137 -168 137 q-79 0 -139.5 -58.5t-83.5 -160.5z" />
<glyph unicode="e" horiz-adv-x="753" d="M479 578q-125 -92 -305 -191l-22 -98q-11 -49 -11 -74q0 -65 36.5 -99t96.5 -34q76 0 141 55t87 152l22 102l101 25l-31 -129q-33 -138 -130 -220.5t-214 -82.5q-95 0 -152 57t-57 160q0 45 10 86l158 678q31 135 125 219t217 84q92 0 152.5 -57t60.5 -191 q0 -120 -64 -224t-221 -218zM305 961l-108 -476q150 88 243 162q116 87 170 171.5t54 189.5q0 166 -136 166q-80 0 -140 -57t-83 -156z" />
<glyph unicode="f" horiz-adv-x="630" d="M221 1251h150l30 133q32 137 112 219.5t198 82.5q82 0 135 -39l-49 -93q-41 35 -99 35q-75 0 -127 -57t-73 -150l-31 -131h219l-20 -90h-220l-268 -1161h-96l268 1161h-149z" />
<glyph unicode="g" horiz-adv-x="798" d="M774 1251h74l-305 -1323q-31 -138 -127.5 -220.5t-212.5 -82.5q-97 0 -156 57.5t-59 157.5q0 39 37 193l88 -25q-27 -110 -27 -147q0 -67 36 -102t97 -35q79 0 141 56.5t84 149.5l72 312q-128 -131 -260 -131q-83 0 -134.5 51.5t-51.5 150.5q0 46 12 101l127 551 q17 74 50.5 133t76 95.5t89.5 55.5t95 19q138 0 207 -144zM305 948l-119 -520q-10 -41 -10 -84q0 -67 33.5 -101t93.5 -34q57 0 114 33.5t124 111.5l155 674q-31 74 -72.5 106.5t-97.5 32.5q-77 0 -137 -57t-84 -162z" />
<glyph unicode="h" d="M373 1645l108 24l-119 -510q118 109 248 109q87 0 140 -52t53 -149q0 -47 -12 -102l-224 -965h-100l219 948q12 49 12 88q0 66 -36 98.5t-99 32.5q-112 0 -227 -123l-240 -1044h-102z" />
<glyph unicode="i" horiz-adv-x="333" d="M283 1251h102l-289 -1251h-102zM418 1622q53 0 53 -55q0 -40 -24 -69.5t-66 -29.5q-25 0 -38 16.5t-13 41.5q0 39 24 67.5t64 28.5z" />
<glyph unicode="j" horiz-adv-x="362" d="M313 1251h99l-306 -1323q-30 -132 -110.5 -217.5t-198.5 -85.5q-86 0 -133 47l49 90q45 -38 94 -38q73 0 126.5 57t74.5 147zM449 1622q53 0 53 -55q0 -40 -24 -69.5t-66 -29.5q-25 0 -38.5 16.5t-13.5 41.5q0 39 24.5 67.5t64.5 28.5z" />
<glyph unicode="k" horiz-adv-x="731" d="M702 1251h115l-469 -528l203 -723h-105l-190 690l-160 -690h-102l379 1645l108 24l-211 -913z" />
<glyph unicode="l" horiz-adv-x="333" d="M373 1645l108 24l-385 -1669h-102z" />
<glyph unicode="m" horiz-adv-x="1212" d="M283 1251h75l-8 -102q113 119 242 119q69 0 115.5 -37.5t58.5 -108.5q123 146 264 146q81 0 130.5 -52t49.5 -147q0 -45 -12 -104l-223 -965h-101l220 948q12 55 12 94q0 125 -119 125q-109 0 -219 -129q0 -28 -10 -73l-223 -965h-103l221 948q13 60 13 94 q0 125 -119 125q-106 0 -211 -118l-240 -1049h-102z" />
<glyph unicode="n" d="M283 1251h75l-8 -104q118 121 260 121q87 0 140 -52t53 -149q0 -47 -12 -102l-224 -965h-100l219 948q12 53 12 90q0 129 -133 129q-115 0 -229 -125l-240 -1042h-102z" />
<glyph unicode="o" horiz-adv-x="774" d="M764 965l-156 -678q-33 -141 -132 -222t-218 -81q-99 0 -158 57.5t-59 161.5q0 45 10 84l158 678q32 137 129.5 220t216.5 83q99 0 159 -58.5t60 -158.5q0 -34 -10 -86zM305 961l-153 -670q-11 -47 -9 -70q0 -67 37 -102t99 -35q82 0 145.5 57.5t85.5 149.5l156 670 q8 33 8 67q0 69 -37 104t-100 35q-81 0 -146 -56t-86 -150z" />
<glyph unicode="p" horiz-adv-x="798" d="M285 1251h73l-12 -125q133 142 272 142q81 0 133 -52.5t52 -150.5q0 -45 -12 -100l-156 -678q-33 -146 -122 -224.5t-191 -78.5q-133 0 -201 129l-107 -463h-100zM571 1167q-59 0 -115.5 -33t-123.5 -108l-187 -807q58 -135 170 -135q79 0 138 58t84 161l149 645 q12 53 12 90q0 67 -34.5 98t-92.5 31z" />
<glyph unicode="q" horiz-adv-x="798" d="M772 1251h76l-371 -1601h-100l106 463q-129 -129 -260 -129q-81 0 -132.5 52t-51.5 148q0 48 12 103l158 678q33 146 121 224.5t190 78.5q68 0 121 -37t84 -105zM303 948l-147 -645q-13 -54 -13 -88q0 -65 34 -98t93 -33q58 0 115 33t125 108l184 803q-58 139 -168 139 q-79 0 -139.5 -58.5t-83.5 -160.5z" />
<glyph unicode="r" horiz-adv-x="636" d="M741 1214l-49 -88q-44 41 -108 41q-71 0 -133 -46t-129 -148l-226 -973h-102l289 1251h75l-20 -168q125 185 270 185q85 0 133 -54z" />
<glyph unicode="s" horiz-adv-x="735" d="M543 1268q108 0 164.5 -50.5t56.5 -140.5q0 -33 -33 -166h-92q29 126 29 148q0 55 -38.5 83.5t-105.5 28.5q-104 0 -170.5 -63.5t-66.5 -165.5q0 -81 43 -141q20 -28 110.5 -109.5t122.5 -132.5q47 -71 47 -178q0 -79 -21.5 -148.5t-63.5 -126t-113 -89.5t-162 -33 q-119 0 -180.5 53.5t-61.5 146.5q0 34 47 232l88 -25q-37 -163 -37 -186q0 -59 40.5 -91t119.5 -32q58 0 102.5 17.5t71 45t43.5 65.5t23 73.5t6 74.5q0 89 -43 150q-33 48 -121 128.5t-112 115.5q-50 71 -50 174q0 150 101 246t256 96z" />
<glyph unicode="t" horiz-adv-x="630" d="M221 1251h139l60 260l108 37l-69 -297h227l-20 -90h-228l-200 -872q-11 -53 -11 -80q0 -127 119 -127q55 0 109 37l8 -88q-64 -47 -156 -47t-137 53t-45 141q0 43 14 111l201 872h-141z" />
<glyph unicode="u" horiz-adv-x="796" d="M745 1251h101l-289 -1251h-74l9 104q-117 -120 -256 -120q-87 0 -139 51t-52 149q0 48 12 103l224 964h100l-219 -948q-12 -50 -12 -88q0 -131 129 -131q113 0 227 125z" />
<glyph unicode="v" horiz-adv-x="759" d="M236 1251h96l-37 -1073l465 1073h100l-555 -1251h-102z" />
<glyph unicode="w" horiz-adv-x="1058" d="M240 1251h96l-131 -1034l440 1034h96l-59 -1036l373 1036h96l-459 -1251h-98l57 1075l-461 -1075h-98z" />
<glyph unicode="x" horiz-adv-x="831" d="M809 1251h109l-426 -606l159 -645h-112l-127 543l-373 -543h-105l449 657l-139 594h106l115 -491z" />
<glyph unicode="y" horiz-adv-x="796" d="M745 1251h101l-371 -1601h-100l106 461q-116 -107 -241 -107q-87 0 -139 51.5t-52 149.5q0 47 12 102l218 944h100l-213 -927q-12 -50 -12 -86q0 -69 35.5 -101.5t95.5 -32.5q113 0 223 123z" />
<glyph unicode="z" horiz-adv-x="704" d="M258 1251h530l-16 -69l-682 -1092h428l-18 -90h-539l19 86l675 1075h-419z" />
<glyph unicode="{" horiz-adv-x="591" d="M864 1964l-20 -88q-100 0 -142 -37.5t-67 -146.5l-172 -754q-16 -67 -63.5 -116t-88.5 -56q30 -5 52 -42.5t22 -90.5q0 -26 -6 -53l-170 -738q-16 -72 -16 -106q0 -49 29.5 -63.5t109.5 -14.5l-21 -88q-113 0 -161 32t-48 109q0 42 21 131l166 723q8 36 8 68q0 46 -22 67 t-72 21h-68l21 88h65q62 0 103 39.5t55 103.5l170 740q36 156 101.5 214t213.5 58z" />
<glyph unicode="|" horiz-adv-x="471" d="M500 1862h86l-506 -2190h-86z" />
<glyph unicode="}" horiz-adv-x="591" d="M-166 -430l21 88q100 0 141.5 37.5t66.5 146.5l173 754q16 67 63 116t88 56q-30 5 -52 42.5t-22 90.5q0 26 6 53l170 738q17 76 17 106q0 49 -29.5 63.5t-109.5 14.5l20 88q113 0 161 -32t48 -109q0 -42 -21 -131l-165 -723q-9 -41 -9 -68q0 -46 22 -67t73 -21h67 l-20 -88h-66q-62 0 -103 -39.5t-55 -103.5l-169 -740q-36 -155 -102 -213.5t-214 -58.5z" />
<glyph unicode="~" horiz-adv-x="1040" d="M141 633l27 117q50 57 108 86.5t142 29.5q51 0 90.5 -12.5t91.5 -38.5q84 -41 156 -41q73 0 134.5 38t123.5 114l-27 -115q-55 -63 -113 -94t-137 -31q-36 0 -71 8t-57 17t-58 26q-84 41 -154 41q-75 0 -135.5 -35t-120.5 -110z" />
<glyph unicode="&#xa1;" horiz-adv-x="333" d="M39 -279h-129l323 1254h62zM317 1204q-27 0 -41 16t-14 42q0 39 24.5 68.5t65.5 29.5q26 0 40 -17t14 -43q0 -39 -24.5 -67.5t-64.5 -28.5z" />
<glyph unicode="&#xa2;" horiz-adv-x="786" d="M358 1135l-153 -670q-8 -33 -8 -66q0 -67 35.5 -104t97.5 -37q76 0 141 55.5t84 151.5l20 100l103 25l-31 -129q-30 -127 -117.5 -208.5t-193.5 -92.5l-45 -201h-51l45 199q-85 5 -138 59.5t-53 157.5q0 45 10 86l158 678q31 134 120.5 214.5t199.5 86.5l47 205h51 l-47 -205q83 -11 131.5 -68t48.5 -147q0 -37 -22 -140h-93q19 85 19 109q0 70 -36.5 108.5t-98.5 38.5q-77 0 -139 -55t-85 -151z" />
<glyph unicode="&#xa3;" horiz-adv-x="868" d="M182 934h99l88 381q33 146 133.5 231.5t230.5 85.5q104 0 160.5 -57t56.5 -160q0 -45 -24 -153h-97q21 91 21 120q0 72 -36 111t-103 39q-84 0 -150 -58t-90 -161l-88 -379h405l-20 -88h-406l-169 -746h448l-25 -100h-632l22 100h82l172 746h-98z" />
<glyph unicode="&#xa4;" horiz-adv-x="1347" d="M365 1415l153 -233q70 69 158 106t180 37t162 -36.5t110 -104.5l263 233l49 -63l-281 -250q12 -47 12 -96q0 -62 -14 -119l-51 -223q-26 -115 -100 -220l163 -245l-73 -62l-154 234q-70 -67 -158 -103.5t-180 -36.5t-163 36.5t-109 103.5l-262 -232l-50 62l281 250 q-10 48 -10 94q0 59 14 119l51 223q26 117 99 219l-164 250zM436 879l-49 -203q-14 -55 -14 -109q0 -117 68.5 -181t179.5 -64q139 0 255 99.5t152 254.5l47 203q12 59 12 108q0 119 -68 183.5t-179 64.5q-141 0 -253 -97.5t-151 -258.5z" />
<glyph unicode="&#xa5;" horiz-adv-x="970" d="M43 360h350l49 211h-352l19 76h350l24 103l-106 854h106l80 -727l420 727h102l-499 -854l-25 -103h352l-16 -76h-352l-49 -211h352l-19 -75h-350l-65 -285h-105l66 285h-350z" />
<glyph unicode="&#xa6;" horiz-adv-x="471" d="M500 1862h86l-221 -961h-86zM215 633h88l-223 -961h-86z" />
<glyph unicode="&#xa7;" horiz-adv-x="770" d="M682 1632q91 0 139.5 -50t48.5 -138q0 -37 -22 -137h-84q18 98 18 125q0 114 -114 114q-100 0 -166 -80t-66 -190q0 -76 37 -152q16 -35 88 -152.5t94 -166.5q37 -79 37 -187q0 -138 -59 -253.5t-168 -157.5q4 -15 18 -60t20.5 -77t6.5 -68q0 -65 -13.5 -127 t-41.5 -117.5t-67 -97t-95.5 -66t-122.5 -24.5q-104 0 -160.5 54.5t-56.5 142.5q0 35 29 149l81 -22q-22 -90 -22 -119q0 -119 131 -119q63 0 111.5 28t77 76t43 105t14.5 121q0 81 -33 159q-21 46 -87 150t-87 149q-45 90 -45 197q0 134 71 235.5t185 129.5 q-74 127 -74 251q0 158 96 266.5t238 108.5zM291 508q11 -23 32.5 -60t51.5 -87.5t47 -79.5q89 28 133.5 117.5t44.5 203.5q0 82 -33 160q-34 73 -98 166q-94 -6 -154.5 -84.5t-60.5 -184.5q0 -75 37 -151z" />
<glyph unicode="&#xa8;" horiz-adv-x="583" d="M682 1622q55 0 55 -55q0 -39 -24.5 -69t-65.5 -30q-25 0 -39 16.5t-14 41.5q0 39 24 67.5t64 28.5zM403 1622q54 0 54 -55q0 -40 -24 -69.5t-66 -29.5q-25 0 -38.5 16.5t-13.5 41.5q0 39 24 67.5t64 28.5z" />
<glyph unicode="&#xa9;" horiz-adv-x="1443" d="M137 629l78 340q34 151 110 277t177 210t222.5 130t248.5 46q217 0 349 -127.5t132 -351.5q0 -91 -22 -184l-80 -340q-47 -198 -163.5 -349.5t-272.5 -230t-326 -78.5q-216 0 -345.5 126.5t-129.5 344.5q0 83 22 187zM264 969l-78 -340q-20 -87 -20 -170q0 -204 118 -320 t312 -116q157 0 303 76t253.5 215.5t147.5 314.5l78 340q21 91 21 172q0 207 -120 322.5t-314 115.5q-116 0 -228.5 -43.5t-206 -121t-164 -193t-102.5 -252.5zM723 1190l-176 -756q-4 -20 -4 -43q0 -119 100 -119q61 0 109.5 43t68.5 119l10 41l76 19l-14 -62 q-23 -101 -97.5 -167t-166.5 -66q-74 0 -120 43.5t-46 117.5q0 22 8 72l176 760q24 107 100 171t171 64q76 0 117.5 -42.5t41.5 -120.5q0 -36 -16 -111h-74q17 72 17 96q0 105 -103 105q-67 0 -113.5 -44.5t-64.5 -119.5z" />
<glyph unicode="&#xaa;" horiz-adv-x="624" d="M408 1491l-33 51q33 42 83 66t103 24q129 0 129 -135q0 -32 -10 -84l-137 -596h-58l2 49q-72 -59 -155 -59q-53 0 -87 35t-34 106q0 94 45 171.5t174 164.5q39 27 170 100l6 27q10 45 10 70q0 75 -79 75q-72 0 -129 -65zM369 883q63 0 129 57l84 365q-89 -49 -123 -76 q-59 -40 -91.5 -70t-54.5 -78t-22 -112q0 -86 78 -86z" />
<glyph unicode="&#xab;" horiz-adv-x="653" d="M657 1251h95l-340 -630l47 -621h-90l-45 625zM422 1251h94l-340 -630l47 -621h-90l-45 625z" />
<glyph unicode="&#xac;" horiz-adv-x="1040" d="M197 874h802l-202 -874h-86l182 786h-717z" />
<glyph unicode="&#xad;" horiz-adv-x="624" d="M150 821h458l-20 -88h-459z" />
<glyph unicode="&#xae;" horiz-adv-x="1443" d="M137 629l78 340q34 151 110 277t177 210t222.5 130t248.5 46q217 0 349 -127.5t132 -351.5q0 -91 -22 -184l-80 -340q-47 -198 -163.5 -349.5t-272.5 -230t-326 -78.5q-216 0 -345.5 126.5t-129.5 344.5q0 83 22 187zM264 969l-78 -340q-20 -87 -20 -170q0 -204 118 -320 t312 -116q157 0 303 76t253.5 215.5t147.5 314.5l78 340q21 91 21 172q0 207 -120 322.5t-314 115.5q-116 0 -228.5 -43.5t-206 -121t-164 -193t-102.5 -252.5zM696 1405h217q78 0 120 -41t42 -119q0 -38 -8 -74l-35 -157q-32 -142 -127 -174q62 -25 62 -105q0 -29 -9 -69 l-104 -447h-76l105 451q8 31 8 57q0 43 -26.5 58.5t-92.5 15.5h-139l-135 -582h-76zM756 1331l-109 -463h135q75 0 114.5 32.5t57.5 113.5l35 149q8 46 8 64q0 50 -28 77t-80 27h-133z" />
<glyph unicode="&#xaf;" horiz-adv-x="761" d="M324 1567h594l-21 -82h-594z" />
<glyph unicode="&#xb0;" horiz-adv-x="684" d="M285 1210l43 189q24 106 99.5 169.5t168.5 63.5q75 0 121.5 -44.5t46.5 -121.5q0 -34 -8 -67l-45 -189q-24 -105 -99.5 -168t-167.5 -63q-76 0 -122 44.5t-46 121.5q0 31 9 65zM403 1399l-43 -189q-15 -69 14.5 -111t88.5 -42q60 0 108.5 42t63.5 111l43 189 q17 71 -11.5 113t-88.5 42q-61 0 -109.5 -42t-65.5 -113z" />
<glyph unicode="&#xb1;" horiz-adv-x="1038" d="M637 1229h86l-94 -406h360l-20 -88h-361l-92 -405h-88l94 405h-358l20 88h359zM29 145h805l-21 -88h-805z" />
<glyph unicode="&#xb2;" horiz-adv-x="536" d="M301 1415l6 29q17 82 74 128t143 46q135 0 135 -139q0 -76 -20 -121t-64 -96q-31 -37 -121 -117.5t-118 -108.5q-36 -40 -50 -65t-26 -76l-24 -107h270l-17 -67h-342l41 174q23 102 91 172q23 24 115.5 104.5t125.5 118.5q2 3 15 18.5t17 21t13 22t12.5 30.5t7 37.5 t3.5 50.5q0 43 -17.5 60.5t-64.5 17.5q-55 0 -86 -25t-45 -81l-6 -27h-68z" />
<glyph unicode="&#xb3;" horiz-adv-x="561" d="M307 1415l6 29q17 79 74 126.5t135 47.5q68 0 104 -34t36 -95q0 -10 -9 -62l-26 -114q-25 -107 -101 -135q52 -22 52 -88q0 -20 -7 -60l-32 -151q-20 -82 -82 -128t-140 -46q-77 0 -115 45.5t-20 128.5l11 47l65 -17l-6 -28q-13 -60 7.5 -84.5t74.5 -24.5q50 0 85.5 28.5 t47.5 80.5l35 149q8 33 8 60q0 34 -19.5 45.5t-68.5 11.5h-66l17 63h61q57 0 82.5 20.5t38.5 80.5l27 116q15 67 -2 94t-74 27q-103 0 -125 -106l-6 -27h-68z" />
<glyph unicode="&#xb4;" horiz-adv-x="563" d="M508 1673h117l-260 -323h-93z" />
<glyph unicode="&#xb6;" horiz-adv-x="866" d="M610 1604h410l-39 -82h-70l-407 -1768h-78l408 1768h-238l-408 -1768h-79l321 1391q-75 4 -116.5 56.5t-41.5 123.5q0 54 20 102.5t60 88.5t106.5 64t151.5 24z" />
<glyph unicode="&#xb7;" horiz-adv-x="305" d="M219 838q55 0 55 -58q0 -40 -24 -69t-66 -29q-25 0 -38 16.5t-13 42.5q0 39 24 68t62 29z" />
<glyph unicode="&#xb8;" horiz-adv-x="417" d="M53 -41h101l-177 -389h-77z" />
<glyph unicode="&#xb9;" horiz-adv-x="423" d="M305 1489h49q47 0 67 21.5t38 93.5h71l-202 -883h-74l162 704h-125z" />
<glyph unicode="&#xba;" horiz-adv-x="616" d="M692 1438l-100 -434q-21 -90 -84 -142.5t-141 -52.5q-64 0 -102 36.5t-38 100.5q0 13 9 58l100 434q21 90 82.5 142t138.5 52q78 0 117 -52t18 -142zM410 1432l-99 -422q-13 -57 8 -90t66 -33q47 0 84.5 33t50.5 90l96 422q12 58 -9 90t-68 32q-45 0 -80.5 -32.5 t-48.5 -89.5z" />
<glyph unicode="&#xbb;" horiz-adv-x="653" d="M469 1251h90l47 -626l-334 -625h-94l338 629zM233 1251h91l47 -626l-334 -625h-94l338 629z" />
<glyph unicode="&#xbc;" horiz-adv-x="1187" d="M1100 1604h82l-1030 -1604h-84zM387 1489h49q47 0 67 21.5t38 93.5h71l-202 -883h-74l162 704h-125zM977 883h70l-125 -541h71l-16 -70h-72l-61 -272h-70l62 272h-242l14 62l232 399h65l-225 -391h172z" />
<glyph unicode="&#xbd;" horiz-adv-x="1187" d="M1098 1604h82l-1030 -1604h-84zM383 1489h49q47 0 67 21.5t38 93.5h71l-202 -883h-74l162 704h-125zM729 694l6 29q17 82 74 128t143 46q135 0 135 -139q0 -76 -20 -121.5t-63 -95.5q-31 -37 -121.5 -117.5t-118.5 -108.5q-36 -40 -50 -65t-26 -76l-24 -106h270l-16 -68 h-343l41 174q23 102 91 172q23 24 115.5 104.5t125.5 118.5q2 2 15.5 18.5t16.5 21.5t13 22t13 31t6.5 37.5t3.5 50.5q0 43 -17.5 60t-64.5 17q-55 0 -86 -25t-45 -81l-6 -27h-68z" />
<glyph unicode="&#xbe;" horiz-adv-x="1187" d="M1133 1604h81l-1030 -1604h-84zM1010 883h69l-125 -541h72l-16 -70h-72l-61 -272h-70l61 272h-241l14 62l231 399h66l-225 -391h172zM322 1415l6 29q17 79 74 126.5t135 47.5q68 0 103.5 -34t35.5 -95q0 -16 -8 -62l-27 -114q-25 -107 -100 -135q51 -22 51 -88 q0 -26 -6 -60l-33 -151q-20 -82 -81.5 -128t-139.5 -46q-77 0 -115 45.5t-20 128.5l10 47l65 -17l-6 -28q-13 -60 7.5 -84.5t74.5 -24.5q50 0 85.5 28.5t47.5 80.5l35 149q8 33 8 60q0 34 -19.5 45.5t-68.5 11.5h-65l16 63h62q57 0 82 20.5t38 80.5l27 116q15 67 -2 94 t-74 27q-103 0 -125 -106l-6 -27h-67z" />
<glyph unicode="&#xbf;" horiz-adv-x="720" d="M164 -291q-100 0 -156.5 57t-56.5 177q0 118 44 202.5t174 257.5q11 15 17 23q80 109 116.5 162.5t72 119t53 122t37.5 145.5h67q-19 -124 -52 -214.5t-78 -164t-142 -207.5q-131 -178 -169 -253t-38 -175q0 -82 32.5 -116.5t98.5 -34.5q87 0 154 54.5t90 151.5l16 76h93 l-19 -80q-31 -143 -129.5 -223t-224.5 -80zM549 1204q-53 0 -53 58q0 38 24 68t62 30q55 0 55 -60q0 -39 -24 -67.5t-64 -28.5z" />
<glyph unicode="&#xc0;" horiz-adv-x="788" d="M586 1604h106l-90 -1604h-102l18 281h-362l-111 -281h-102zM190 371h334l64 1007zM565 2025h115l86 -323h-90z" />
<glyph unicode="&#xc1;" horiz-adv-x="788" d="M586 1604h106l-90 -1604h-102l18 281h-362l-111 -281h-102zM190 371h334l64 1007zM795 2025h116l-260 -323h-92z" />
<glyph unicode="&#xc2;" horiz-adv-x="788" d="M586 1604h106l-90 -1604h-102l18 281h-362l-111 -281h-102zM190 371h334l64 1007zM682 2025h111l120 -323h-88l-102 260l-221 -260h-88z" />
<glyph unicode="&#xc3;" horiz-adv-x="788" d="M586 1604h106l-90 -1604h-102l18 281h-362l-111 -281h-102zM190 371h334l64 1007zM420 1790l-41 41q98 145 213 145q33 0 61 -11.5t48 -27.5t39 -32t43 -27.5t51 -11.5q93 0 155 108l41 -41q-96 -145 -211 -145q-37 0 -70.5 17.5t-55 39t-53 39t-65.5 17.5 q-90 0 -155 -111z" />
<glyph unicode="&#xc4;" horiz-adv-x="788" d="M586 1604h106l-90 -1604h-102l18 281h-362l-111 -281h-102zM190 371h334l64 1007zM864 1974q28 0 42 -15t14 -40q0 -39 -25 -68.5t-66 -29.5q-25 0 -39 16.5t-14 40.5q0 39 24 67.5t64 28.5zM586 1974q53 0 53 -55q0 -40 -24 -69t-66 -29q-25 0 -38 16t-13 41 q0 39 24 67.5t64 28.5z" />
<glyph unicode="&#xc5;" horiz-adv-x="788" d="M586 1604h106l-90 -1604h-102l18 281h-362l-111 -281h-102zM190 371h334l64 1007zM709 2025h53q60 0 92.5 -38t32.5 -99q0 -91 -61 -160t-150 -69h-51q-59 0 -91 39t-32 100q0 92 59.5 159.5t147.5 67.5zM745 1958h-51q-53 0 -90 -45.5t-37 -106.5q0 -37 19 -58.5 t55 -21.5h51q53 0 91 46t38 106q0 38 -19.5 59t-56.5 21z" />
<glyph unicode="&#xc6;" horiz-adv-x="1050" d="M528 1604h682l-22 -101h-371l-143 -624h280l-22 -101h-283l-155 -678h370l-22 -100h-475l65 281h-287l-100 -281h-102zM713 1503h-127l-408 -1132h275z" />
<glyph unicode="&#xc7;" horiz-adv-x="759" d="M391 1313l-237 -1022q-9 -41 -9 -70q0 -74 38 -111.5t102 -37.5q82 0 149 59.5t90 159.5l13 55l102 25l-18 -82q-32 -142 -134.5 -230t-226.5 -88q-100 0 -160.5 60.5t-60.5 165.5q0 43 12 92l238 1026q33 146 133.5 231.5t230.5 85.5q104 0 160.5 -57t56.5 -160 q0 -45 -24 -153h-98q22 98 22 131q0 69 -35.5 104t-101.5 35q-88 0 -153.5 -58.5t-88.5 -160.5zM195 -41h100l-176 -389h-78z" />
<glyph unicode="&#xc8;" horiz-adv-x="679" d="M365 1604h475l-25 -101h-371l-143 -624h281l-23 -101h-283l-153 -678h371l-25 -100h-475zM532 2025h115l86 -323h-90z" />
<glyph unicode="&#xc9;" horiz-adv-x="679" d="M365 1604h475l-25 -101h-371l-143 -624h281l-23 -101h-283l-153 -678h371l-25 -100h-475zM764 2025h117l-260 -323h-93z" />
<glyph unicode="&#xca;" horiz-adv-x="679" d="M365 1604h475l-25 -101h-371l-143 -624h281l-23 -101h-283l-153 -678h371l-25 -100h-475zM647 2025h111l121 -323h-88l-103 260l-221 -260h-88z" />
<glyph unicode="&#xcb;" horiz-adv-x="679" d="M365 1604h475l-25 -101h-371l-143 -624h281l-23 -101h-283l-153 -678h371l-25 -100h-475zM821 1974q28 0 42 -15t14 -40q0 -39 -25 -68.5t-66 -29.5q-25 0 -39 16.5t-14 40.5q0 39 24 67.5t64 28.5zM543 1974q53 0 53 -55q0 -40 -24 -69t-66 -29q-25 0 -38 16t-13 41 q0 39 24 67.5t64 28.5z" />
<glyph unicode="&#xcc;" horiz-adv-x="376" d="M403 1604h105l-371 -1604h-104zM381 2025h115l86 -323h-90z" />
<glyph unicode="&#xcd;" horiz-adv-x="385" d="M365 1604h104l-371 -1604h-104zM592 2025h117l-260 -323h-93z" />
<glyph unicode="&#xce;" horiz-adv-x="462" d="M426 1604h104l-370 -1604h-105zM520 2025h111l121 -323h-88l-103 260l-221 -260h-88z" />
<glyph unicode="&#xcf;" horiz-adv-x="413" d="M403 1604h105l-371 -1604h-104zM680 1974q55 0 55 -55q0 -39 -24.5 -68.5t-65.5 -29.5q-25 0 -39 16.5t-14 40.5q0 39 24 67.5t64 28.5zM401 1974q54 0 54 -55q0 -40 -24 -69t-66 -29q-25 0 -38.5 16t-13.5 41q0 39 24 67.5t64 28.5z" />
<glyph unicode="&#xd0;" horiz-adv-x="831" d="M387 1604h297q106 0 162.5 -57t56.5 -171q0 -62 -18 -141l-201 -866q-42 -183 -138.5 -276t-230.5 -93h-299l181 778h-91l25 101h88zM467 1503l-143 -624h215l-25 -101h-213l-156 -678h185q92 0 156.5 68.5t93.5 196.5l202 874q17 77 17 117q0 147 -146 147h-186z" />
<glyph unicode="&#xd1;" horiz-adv-x="808" d="M365 1604h118l54 -1340l309 1340h92l-371 -1604h-94l-67 1382l-318 -1382h-94zM430 1790l-41 41q98 145 213 145q33 0 61 -11.5t48 -27.5t39 -32t43 -27.5t51 -11.5q93 0 155 108l41 -41q-96 -145 -211 -145q-37 0 -70.5 17.5t-54.5 39t-52.5 39t-65.5 17.5 q-91 0 -156 -111z" />
<glyph unicode="&#xd2;" d="M879 1311l-236 -1018q-34 -147 -139 -234.5t-232 -87.5q-104 0 -167.5 61t-63.5 167q0 45 12 94l234 1018q33 147 137 234t231 87q105 0 169.5 -62t64.5 -169q0 -49 -10 -90zM389 1311l-235 -1018q-11 -49 -11 -74q0 -71 42 -109t112 -38q81 0 150 61.5t92 159.5 l235 1018q8 36 8 73q0 72 -40.5 110t-108.5 38q-84 0 -152.5 -61t-91.5 -160zM582 2025h114l86 -323h-90z" />
<glyph unicode="&#xd3;" d="M879 1311l-236 -1018q-34 -147 -139 -234.5t-232 -87.5q-104 0 -167.5 61t-63.5 167q0 45 12 94l234 1018q33 147 137 234t231 87q105 0 169.5 -62t64.5 -169q0 -49 -10 -90zM389 1311l-235 -1018q-11 -49 -11 -74q0 -71 42 -109t112 -38q81 0 150 61.5t92 159.5 l235 1018q8 36 8 73q0 72 -40.5 110t-108.5 38q-84 0 -152.5 -61t-91.5 -160zM807 2025h117l-260 -323h-93z" />
<glyph unicode="&#xd4;" d="M879 1311l-236 -1018q-34 -147 -139 -234.5t-232 -87.5q-104 0 -167.5 61t-63.5 167q0 45 12 94l234 1018q33 147 137 234t231 87q105 0 169.5 -62t64.5 -169q0 -49 -10 -90zM389 1311l-235 -1018q-11 -49 -11 -74q0 -71 42 -109t112 -38q81 0 150 61.5t92 159.5 l235 1018q8 36 8 73q0 72 -40.5 110t-108.5 38q-84 0 -152.5 -61t-91.5 -160zM690 2025h111l121 -323h-88l-103 260l-221 -260h-88z" />
<glyph unicode="&#xd5;" d="M879 1311l-236 -1018q-34 -147 -139 -234.5t-232 -87.5q-104 0 -167.5 61t-63.5 167q0 45 12 94l234 1018q33 147 137 234t231 87q105 0 169.5 -62t64.5 -169q0 -49 -10 -90zM389 1311l-235 -1018q-11 -49 -11 -74q0 -71 42 -109t112 -38q81 0 150 61.5t92 159.5 l235 1018q8 36 8 73q0 72 -40.5 110t-108.5 38q-84 0 -152.5 -61t-91.5 -160zM430 1790l-41 41q98 145 213 145q33 0 61 -11.5t48 -27.5t39 -32t43 -27.5t51 -11.5q93 0 155 108l41 -41q-96 -145 -211 -145q-37 0 -70.5 17.5t-54.5 39t-52.5 39t-65.5 17.5q-91 0 -156 -111z " />
<glyph unicode="&#xd6;" d="M879 1311l-236 -1018q-34 -147 -139 -234.5t-232 -87.5q-104 0 -167.5 61t-63.5 167q0 45 12 94l234 1018q33 147 137 234t231 87q105 0 169.5 -62t64.5 -169q0 -49 -10 -90zM389 1311l-235 -1018q-11 -49 -11 -74q0 -71 42 -109t112 -38q81 0 150 61.5t92 159.5 l235 1018q8 36 8 73q0 72 -40.5 110t-108.5 38q-84 0 -152.5 -61t-91.5 -160zM879 1974q55 0 55 -55q0 -39 -24.5 -68.5t-65.5 -29.5q-25 0 -39 16.5t-14 40.5q0 39 24 67.5t64 28.5zM600 1974q53 0 53 -55q0 -40 -24 -69t-66 -29q-25 0 -38 16t-13 41q0 39 24 67.5t64 28.5 z" />
<glyph unicode="&#xd7;" horiz-adv-x="1038" d="M379 1165l211 -323l364 325l45 -63l-362 -326l215 -325l-78 -64l-213 328l-364 -326l-45 62l364 325l-213 326z" />
<glyph unicode="&#xd8;" d="M932 1726h67l-127 -233q17 -46 17 -92q0 -49 -10 -90l-236 -1018q-34 -147 -139 -234.5t-232 -87.5q-118 0 -182 76l-92 -170h-68l125 232q-14 38 -14 90q0 45 12 94l234 1018q33 147 137 234t231 87q118 0 183 -78zM389 1311l-235 -1018q0 -1 -1 -3t-1 -3l622 1151 q-13 45 -50.5 69.5t-90.5 24.5q-84 0 -152.5 -61t-91.5 -160zM539 293l235 1018l-622 -1149q30 -90 145 -90q81 0 150 61.5t92 159.5z" />
<glyph unicode="&#xd9;" horiz-adv-x="819" d="M362 1604h105l-303 -1311q-10 -48 -10 -76q0 -72 39.5 -108.5t107.5 -36.5q84 0 153.5 62t92.5 159l303 1311h102l-303 -1311q-34 -147 -139 -234.5t-234 -87.5q-104 0 -166.5 61t-62.5 167q0 41 12 94zM588 2025h114l86 -323h-90z" />
<glyph unicode="&#xda;" horiz-adv-x="819" d="M362 1604h105l-303 -1311q-10 -48 -10 -76q0 -72 39.5 -108.5t107.5 -36.5q84 0 153.5 62t92.5 159l303 1311h102l-303 -1311q-34 -147 -139 -234.5t-234 -87.5q-104 0 -166.5 61t-62.5 167q0 41 12 94zM805 2025h117l-260 -323h-93z" />
<glyph unicode="&#xdb;" horiz-adv-x="819" d="M362 1604h105l-303 -1311q-10 -48 -10 -76q0 -72 39.5 -108.5t107.5 -36.5q84 0 153.5 62t92.5 159l303 1311h102l-303 -1311q-34 -147 -139 -234.5t-234 -87.5q-104 0 -166.5 61t-62.5 167q0 41 12 94zM696 2025h111l121 -323h-88l-103 260l-221 -260h-88z" />
<glyph unicode="&#xdc;" horiz-adv-x="819" d="M362 1604h105l-303 -1311q-10 -48 -10 -76q0 -72 39.5 -108.5t107.5 -36.5q84 0 153.5 62t92.5 159l303 1311h102l-303 -1311q-34 -147 -139 -234.5t-234 -87.5q-104 0 -166.5 61t-62.5 167q0 41 12 94zM877 1974q55 0 55 -55q0 -39 -24.5 -68.5t-65.5 -29.5 q-25 0 -39.5 16.5t-14.5 40.5q0 39 24.5 67.5t64.5 28.5zM598 1974q53 0 53 -55q0 -40 -24 -69t-66 -29q-25 0 -38 16t-13 41q0 39 24 67.5t64 28.5z" />
<glyph unicode="&#xdd;" horiz-adv-x="821" d="M303 1604h105l79 -727l418 727h107l-500 -854l-172 -750h-104l172 750zM813 2025h117l-260 -323h-92z" />
<glyph unicode="&#xde;" d="M365 1604h104l-66 -281h193q106 0 163.5 -57t57.5 -170q0 -62 -18 -142l-68 -286q-42 -183 -139.5 -276t-231.5 -93h-194l-68 -299h-104zM381 1223l-191 -824h187q91 0 156 69t94 196l69 294q15 68 15 117q0 77 -36.5 112.5t-107.5 35.5h-186z" />
<glyph unicode="&#xdf;" horiz-adv-x="880" d="M401 1350l-311 -1350h-96l311 1346q36 157 126 248.5t235 91.5q204 0 204 -193q0 -58 -14 -115l-59 -266q-45 -187 -131 -242q141 -31 141 -174q0 -49 -14 -106l-62 -271q-17 -71 -46 -129.5t-72.5 -105.5t-105.5 -73.5t-136 -26.5q-166 0 -211 153l57 78q9 -62 50 -97.5 t110 -35.5q98 0 164 67.5t90 169.5l61 269q15 69 15 96q0 75 -49 102t-156 27h-51l18 86h16q99 0 143 46.5t72 160.5l62 268q10 52 10 86q0 62 -31.5 93.5t-101.5 31.5q-90 0 -152 -65t-86 -170z" />
<glyph unicode="&#xe0;" horiz-adv-x="770" d="M309 1057l-43 71q55 65 134 102.5t159 37.5q101 0 152 -58t51 -161q0 -61 -14 -121l-216 -928h-69l4 92q-127 -108 -264 -108q-91 0 -140 57t-49 188q0 67 14.5 122.5t53 117t110.5 126t181 136.5q112 74 268 158q23 106 23 139q0 68 -35 105.5t-103 37.5 q-126 0 -217 -114zM252 82q112 0 229 111l135 593q-129 -71 -208 -124q-159 -106 -223 -203.5t-64 -210.5q0 -91 34 -128.5t97 -37.5zM479 1673h115l86 -323h-90z" />
<glyph unicode="&#xe1;" horiz-adv-x="770" d="M309 1057l-43 71q55 65 134 102.5t159 37.5q101 0 152 -58t51 -161q0 -61 -14 -121l-216 -928h-69l4 92q-127 -108 -264 -108q-91 0 -140 57t-49 188q0 67 14.5 122.5t53 117t110.5 126t181 136.5q112 74 268 158q23 106 23 139q0 68 -35 105.5t-103 37.5 q-126 0 -217 -114zM252 82q112 0 229 111l135 593q-129 -71 -208 -124q-159 -106 -223 -203.5t-64 -210.5q0 -91 34 -128.5t97 -37.5zM707 1673h116l-260 -323h-92z" />
<glyph unicode="&#xe2;" horiz-adv-x="770" d="M309 1057l-43 71q55 65 134 102.5t159 37.5q101 0 152 -58t51 -161q0 -61 -14 -121l-216 -928h-69l4 92q-127 -108 -264 -108q-91 0 -140 57t-49 188q0 67 14.5 122.5t53 117t110.5 126t181 136.5q112 74 268 158q23 106 23 139q0 68 -35 105.5t-103 37.5 q-126 0 -217 -114zM252 82q112 0 229 111l135 593q-129 -71 -208 -124q-159 -106 -223 -203.5t-64 -210.5q0 -91 34 -128.5t97 -37.5zM590 1673h110l121 -323h-88l-102 260l-221 -260h-88z" />
<glyph unicode="&#xe3;" horiz-adv-x="770" d="M309 1057l-43 71q55 65 134 102.5t159 37.5q101 0 152 -58t51 -161q0 -61 -14 -121l-216 -928h-69l4 92q-127 -108 -264 -108q-91 0 -140 57t-49 188q0 67 14.5 122.5t53 117t110.5 126t181 136.5q112 74 268 158q23 106 23 139q0 68 -35 105.5t-103 37.5 q-126 0 -217 -114zM252 82q112 0 229 111l135 593q-129 -71 -208 -124q-159 -106 -223 -203.5t-64 -210.5q0 -91 34 -128.5t97 -37.5zM330 1438l-41 41q98 145 213 145q40 0 74 -17.5t54.5 -38t50.5 -38t62 -17.5q93 0 156 109l41 -41q-96 -145 -211 -145q-37 0 -70.5 17.5 t-55 38.5t-53 38.5t-65.5 17.5q-91 0 -155 -110z" />
<glyph unicode="&#xe4;" horiz-adv-x="770" d="M309 1057l-43 71q55 65 134 102.5t159 37.5q101 0 152 -58t51 -161q0 -61 -14 -121l-216 -928h-69l4 92q-127 -108 -264 -108q-91 0 -140 57t-49 188q0 67 14.5 122.5t53 117t110.5 126t181 136.5q112 74 268 158q23 106 23 139q0 68 -35 105.5t-103 37.5 q-126 0 -217 -114zM252 82q112 0 229 111l135 593q-129 -71 -208 -124q-159 -106 -223 -203.5t-64 -210.5q0 -91 34 -128.5t97 -37.5zM776 1622q55 0 55 -55q0 -39 -24.5 -69t-65.5 -30q-25 0 -39 16.5t-14 41.5q0 39 24 67.5t64 28.5zM498 1622q53 0 53 -55 q0 -40 -24 -69.5t-66 -29.5q-25 0 -38 16.5t-13 41.5q0 39 24 67.5t64 28.5z" />
<glyph unicode="&#xe5;" horiz-adv-x="770" d="M309 1057l-43 71q55 65 134 102.5t159 37.5q101 0 152 -58t51 -161q0 -61 -14 -121l-216 -928h-69l4 92q-127 -108 -264 -108q-91 0 -140 57t-49 188q0 67 14.5 122.5t53 117t110.5 126t181 136.5q112 74 268 158q23 106 23 139q0 68 -35 105.5t-103 37.5 q-126 0 -217 -114zM252 82q112 0 229 111l135 593q-129 -71 -208 -124q-159 -106 -223 -203.5t-64 -210.5q0 -91 34 -128.5t97 -37.5zM621 1673h53q60 0 92.5 -38t32.5 -99q0 -91 -61 -160t-150 -69h-51q-59 0 -91 39t-32 100q0 92 59.5 159.5t147.5 67.5zM657 1606h-51 q-53 0 -90 -45.5t-37 -106.5q0 -37 19 -58.5t55 -21.5h51q53 0 91 46t38 106q0 38 -19.5 59t-56.5 21z" />
<glyph unicode="&#xe6;" horiz-adv-x="1204" d="M930 578q-128 -94 -305 -191l-23 -98q-10 -45 -10 -74q0 -65 36.5 -99t96.5 -34q75 0 140 54.5t87 152.5l23 102l100 25l-31 -129q-33 -138 -130 -220.5t-214 -82.5q-76 0 -128 36.5t-72 104.5q-72 -66 -142 -103.5t-153 -37.5q-93 0 -142 56.5t-49 188.5q0 85 24 152.5 t90 147t192 167t321 193.5q23 106 23 139q0 68 -35 105.5t-103 37.5q-126 0 -217 -114l-43 71q55 65 134 102.5t159 37.5q149 0 189 -125q101 125 253 125q43 0 78.5 -12t67 -38.5t49.5 -77.5t18 -122q0 -120 -62.5 -221.5t-221.5 -218.5zM252 82q112 0 229 111l135 593 q-194 -106 -302.5 -195t-150.5 -168t-42 -175q0 -91 34 -128.5t97 -37.5zM756 961l-109 -476q257 150 362 263t105 256q0 170 -133 170q-79 0 -140 -55t-85 -158z" />
<glyph unicode="&#xe7;" horiz-adv-x="743" d="M305 961l-153 -670q-9 -38 -9 -66q0 -68 35.5 -104.5t97.5 -36.5q78 0 142 56t84 151l20 100l103 25l-31 -129q-33 -138 -130 -220.5t-214 -82.5q-95 0 -152 57t-57 160q0 45 10 86l158 678q32 138 127 220.5t211 82.5q96 0 154.5 -58.5t58.5 -158.5q0 -33 -23 -140h-92 q21 84 21 115q0 67 -38 104t-100 37q-77 0 -138.5 -55t-84.5 -151zM190 -41h101l-176 -389h-78z" />
<glyph unicode="&#xe8;" horiz-adv-x="753" d="M479 578q-125 -92 -305 -191l-22 -98q-11 -49 -11 -74q0 -65 36.5 -99t96.5 -34q76 0 141 55t87 152l22 102l101 25l-31 -129q-33 -138 -130 -220.5t-214 -82.5q-95 0 -152 57t-57 160q0 45 10 86l158 678q31 135 125 219t217 84q92 0 152.5 -57t60.5 -191 q0 -120 -64 -224t-221 -218zM305 961l-108 -476q150 88 243 162q116 87 170 171.5t54 189.5q0 166 -136 166q-80 0 -140 -57t-83 -156zM471 1673h115l86 -323h-90z" />
<glyph unicode="&#xe9;" horiz-adv-x="753" d="M479 578q-125 -92 -305 -191l-22 -98q-11 -49 -11 -74q0 -65 36.5 -99t96.5 -34q76 0 141 55t87 152l22 102l101 25l-31 -129q-33 -138 -130 -220.5t-214 -82.5q-95 0 -152 57t-57 160q0 45 10 86l158 678q31 135 125 219t217 84q92 0 152.5 -57t60.5 -191 q0 -120 -64 -224t-221 -218zM305 961l-108 -476q150 88 243 162q116 87 170 171.5t54 189.5q0 166 -136 166q-80 0 -140 -57t-83 -156zM700 1673h117l-260 -323h-92z" />
<glyph unicode="&#xea;" horiz-adv-x="753" d="M479 578q-125 -92 -305 -191l-22 -98q-11 -49 -11 -74q0 -65 36.5 -99t96.5 -34q76 0 141 55t87 152l22 102l101 25l-31 -129q-33 -138 -130 -220.5t-214 -82.5q-95 0 -152 57t-57 160q0 45 10 86l158 678q31 135 125 219t217 84q92 0 152.5 -57t60.5 -191 q0 -120 -64 -224t-221 -218zM305 961l-108 -476q150 88 243 162q116 87 170 171.5t54 189.5q0 166 -136 166q-80 0 -140 -57t-83 -156zM584 1673h110l121 -323h-88l-102 260l-222 -260h-88z" />
<glyph unicode="&#xeb;" horiz-adv-x="753" d="M479 578q-125 -92 -305 -191l-22 -98q-11 -49 -11 -74q0 -65 36.5 -99t96.5 -34q76 0 141 55t87 152l22 102l101 25l-31 -129q-33 -138 -130 -220.5t-214 -82.5q-95 0 -152 57t-57 160q0 45 10 86l158 678q31 135 125 219t217 84q92 0 152.5 -57t60.5 -191 q0 -120 -64 -224t-221 -218zM305 961l-108 -476q150 88 243 162q116 87 170 171.5t54 189.5q0 166 -136 166q-80 0 -140 -57t-83 -156zM768 1622q55 0 55 -55q0 -39 -24.5 -69t-65.5 -30q-25 0 -39 16.5t-14 41.5q0 39 24 67.5t64 28.5zM489 1622q54 0 54 -55 q0 -40 -24 -69.5t-66 -29.5q-25 0 -38.5 16.5t-13.5 41.5q0 39 24 67.5t64 28.5z" />
<glyph unicode="&#xec;" horiz-adv-x="370" d="M297 1673h115l86 -323h-90zM317 1251h103l-289 -1251h-102z" />
<glyph unicode="&#xed;" horiz-adv-x="378" d="M508 1673h117l-260 -323h-93zM283 1251h102l-289 -1251h-102z" />
<glyph unicode="&#xee;" horiz-adv-x="491" d="M362 1251h103l-289 -1251h-102zM453 1673h110l121 -323h-88l-102 260l-222 -260h-88z" />
<glyph unicode="&#xef;" horiz-adv-x="460" d="M621 1622q55 0 55 -55q0 -39 -24.5 -69t-65.5 -30q-25 0 -39.5 17t-14.5 41q0 39 24.5 67.5t64.5 28.5zM342 1622q53 0 53 -55q0 -40 -24 -69.5t-66 -29.5q-25 0 -38 16.5t-13 41.5q0 39 24 67.5t64 28.5zM346 1251h103l-289 -1251h-103z" />
<glyph unicode="&#xf0;" horiz-adv-x="755" d="M416 1475l-43 71q55 66 133 103t160 37q97 0 151 -60l115 115l33 -39l-119 -121q20 -44 20 -113q0 -62 -14 -122l-244 -1051q-33 -142 -130.5 -226.5t-215.5 -84.5q-101 0 -159 59.5t-58 161.5q0 49 10 90l109 475q32 138 116.5 211.5t184.5 73.5q138 0 188 -162l105 450 q21 97 8 158l-336 -340l-31 39l344 348q-36 45 -110 45q-133 0 -217 -118zM279 84q84 0 149.5 60t87.5 153l113 487q-38 174 -164 174q-73 0 -129 -52.5t-80 -151.5l-106 -457q-9 -37 -9 -70q0 -70 38.5 -106.5t99.5 -36.5z" />
<glyph unicode="&#xf1;" d="M283 1251h75l-8 -104q118 121 260 121q87 0 140 -52t53 -149q0 -47 -12 -102l-224 -965h-100l219 948q12 53 12 90q0 129 -133 129q-115 0 -229 -125l-240 -1042h-102zM342 1438l-41 41q98 145 213 145q40 0 74 -17.5t54.5 -38t51 -38t62.5 -17.5q92 0 155 109l41 -41 q-96 -145 -211 -145q-37 0 -70.5 17.5t-54.5 38.5t-52.5 38.5t-65.5 17.5q-92 0 -156 -110z" />
<glyph unicode="&#xf2;" horiz-adv-x="774" d="M764 965l-156 -678q-33 -141 -132 -222t-218 -81q-99 0 -158 57.5t-59 161.5q0 45 10 84l158 678q32 137 129.5 220t216.5 83q99 0 159 -58.5t60 -158.5q0 -34 -10 -86zM305 961l-153 -670q-11 -47 -9 -70q0 -67 37 -102t99 -35q82 0 145.5 57.5t85.5 149.5l156 670 q8 33 8 67q0 69 -37 104t-100 35q-81 0 -146 -56t-86 -150zM479 1673h115l86 -323h-90z" />
<glyph unicode="&#xf3;" horiz-adv-x="774" d="M764 965l-156 -678q-33 -141 -132 -222t-218 -81q-99 0 -158 57.5t-59 161.5q0 45 10 84l158 678q32 137 129.5 220t216.5 83q99 0 159 -58.5t60 -158.5q0 -34 -10 -86zM305 961l-153 -670q-11 -47 -9 -70q0 -67 37 -102t99 -35q82 0 145.5 57.5t85.5 149.5l156 670 q8 33 8 67q0 69 -37 104t-100 35q-81 0 -146 -56t-86 -150zM702 1673h117l-260 -323h-92z" />
<glyph unicode="&#xf4;" horiz-adv-x="774" d="M764 965l-156 -678q-33 -141 -132 -222t-218 -81q-99 0 -158 57.5t-59 161.5q0 45 10 84l158 678q32 137 129.5 220t216.5 83q99 0 159 -58.5t60 -158.5q0 -34 -10 -86zM305 961l-153 -670q-11 -47 -9 -70q0 -67 37 -102t99 -35q82 0 145.5 57.5t85.5 149.5l156 670 q8 33 8 67q0 69 -37 104t-100 35q-81 0 -146 -56t-86 -150zM592 1673h110l121 -323h-88l-102 260l-221 -260h-88z" />
<glyph unicode="&#xf5;" horiz-adv-x="774" d="M764 965l-156 -678q-33 -141 -132 -222t-218 -81q-99 0 -158 57.5t-59 161.5q0 45 10 84l158 678q32 137 129.5 220t216.5 83q99 0 159 -58.5t60 -158.5q0 -34 -10 -86zM305 961l-153 -670q-11 -47 -9 -70q0 -67 37 -102t99 -35q82 0 145.5 57.5t85.5 149.5l156 670 q8 33 8 67q0 69 -37 104t-100 35q-81 0 -146 -56t-86 -150zM332 1438l-41 41q98 145 213 145q40 0 74 -17.5t54.5 -38t50.5 -38t62 -17.5q93 0 156 109l41 -41q-96 -145 -211 -145q-37 0 -70.5 17.5t-55 38.5t-53 38.5t-65.5 17.5q-91 0 -155 -110z" />
<glyph unicode="&#xf6;" horiz-adv-x="774" d="M764 965l-156 -678q-33 -141 -132 -222t-218 -81q-99 0 -158 57.5t-59 161.5q0 45 10 84l158 678q32 137 129.5 220t216.5 83q99 0 159 -58.5t60 -158.5q0 -34 -10 -86zM305 961l-153 -670q-11 -47 -9 -70q0 -67 37 -102t99 -35q82 0 145.5 57.5t85.5 149.5l156 670 q8 33 8 67q0 69 -37 104t-100 35q-81 0 -146 -56t-86 -150zM776 1622q55 0 55 -55q0 -39 -24.5 -69t-65.5 -30q-25 0 -39 16.5t-14 41.5q0 39 24 67.5t64 28.5zM498 1622q53 0 53 -55q0 -40 -24 -69.5t-66 -29.5q-25 0 -38 16.5t-13 41.5q0 39 24 67.5t64 28.5z" />
<glyph unicode="&#xf7;" horiz-adv-x="1038" d="M184 823h805l-20 -88h-805zM504 473q55 0 55 -57q0 -40 -24 -69.5t-66 -29.5q-25 0 -38 17t-13 43q0 39 24 67.5t62 28.5zM682 1239q55 0 55 -57q0 -40 -24 -69.5t-66 -29.5q-25 0 -38 17t-13 43q0 39 24 67.5t62 28.5z" />
<glyph unicode="&#xf8;" horiz-adv-x="774" d="M772 1374h64l-101 -190q39 -55 39 -133q0 -34 -10 -86l-156 -678q-33 -141 -132 -222t-218 -81q-79 0 -137 39l-76 -146h-65l98 189q-37 52 -37 137q0 45 10 84l158 678q32 137 129.5 220t216.5 83q83 0 139 -41zM305 961l-153 -670q-11 -47 -9 -70q0 -23 2 -31l496 936 q-38 41 -104 41q-81 0 -146 -56t-86 -150zM674 1028q0 13 -4 33l-496 -938q36 -39 105 -39q82 0 145.5 57.5t85.5 149.5l156 670q8 33 8 67z" />
<glyph unicode="&#xf9;" horiz-adv-x="796" d="M745 1251h101l-289 -1251h-74l9 104q-117 -120 -256 -120q-87 0 -139 51t-52 149q0 48 12 103l224 964h100l-219 -948q-12 -50 -12 -88q0 -131 129 -131q113 0 227 125zM489 1673h115l86 -323h-90z" />
<glyph unicode="&#xfa;" horiz-adv-x="796" d="M745 1251h101l-289 -1251h-74l9 104q-117 -120 -256 -120q-87 0 -139 51t-52 149q0 48 12 103l224 964h100l-219 -948q-12 -50 -12 -88q0 -131 129 -131q113 0 227 125zM719 1673h117l-261 -323h-92z" />
<glyph unicode="&#xfb;" horiz-adv-x="796" d="M745 1251h101l-289 -1251h-74l9 104q-117 -120 -256 -120q-87 0 -139 51t-52 149q0 48 12 103l224 964h100l-219 -948q-12 -50 -12 -88q0 -131 129 -131q113 0 227 125zM604 1673h111l121 -323h-88l-103 260l-221 -260h-88z" />
<glyph unicode="&#xfc;" horiz-adv-x="796" d="M745 1251h101l-289 -1251h-74l9 104q-117 -120 -256 -120q-87 0 -139 51t-52 149q0 48 12 103l224 964h100l-219 -948q-12 -50 -12 -88q0 -131 129 -131q113 0 227 125zM784 1622q28 0 42 -15t14 -40q0 -39 -24.5 -69t-65.5 -30q-25 0 -39.5 17t-14.5 41q0 39 24 67.5 t64 28.5zM506 1622q53 0 53 -55q0 -40 -24 -69.5t-66 -29.5q-25 0 -38 16.5t-13 41.5q0 39 24 67.5t64 28.5z" />
<glyph unicode="&#xfd;" horiz-adv-x="796" d="M745 1251h101l-371 -1601h-100l106 461q-116 -107 -241 -107q-87 0 -139 51.5t-52 149.5q0 47 12 102l218 944h100l-213 -927q-12 -50 -12 -86q0 -69 35.5 -101.5t95.5 -32.5q113 0 223 123zM719 1673h117l-261 -323h-92z" />
<glyph unicode="&#xfe;" horiz-adv-x="790" d="M373 1645l108 24l-123 -528q130 127 260 127q81 0 133 -52.5t52 -150.5q0 -45 -12 -100l-156 -678q-33 -146 -122 -224.5t-191 -78.5q-133 0 -201 129l-107 -463h-100zM567 1167q-108 0 -235 -141l-187 -807q31 -73 73 -104t101 -31q76 0 135 58t83 161l149 645 q12 52 12 90q0 129 -131 129z" />
<glyph unicode="&#xff;" horiz-adv-x="796" d="M745 1251h101l-371 -1601h-100l106 461q-116 -107 -241 -107q-87 0 -139 51.5t-52 149.5q0 47 12 102l218 944h100l-213 -927q-12 -50 -12 -86q0 -69 35.5 -101.5t95.5 -32.5q113 0 223 123zM791 1622q55 0 55 -55q0 -39 -24.5 -69t-65.5 -30q-25 0 -39.5 17t-14.5 41 q0 39 24.5 67.5t64.5 28.5zM512 1622q53 0 53 -55q0 -40 -24 -69.5t-66 -29.5q-25 0 -38 16.5t-13 41.5q0 39 24 67.5t64 28.5z" />
<glyph unicode="&#x152;" horiz-adv-x="1155" d="M879 1311l-101 -432h281l-23 -101h-280l-84 -358l-72 -320h371l-25 -100h-475l8 39q-96 -68 -207 -68q-104 0 -167.5 61t-63.5 167q0 45 12 94l234 1018q33 147 137 234t231 87q111 0 176 -71l11 43h475l-25 -101h-370l-37 -155zM389 1311l-235 -1018q-11 -49 -11 -74 q0 -71 42 -109t112 -38q78 0 146 58t92 151l243 1046q4 40 4 57q0 72 -40.5 110t-108.5 38q-84 0 -152.5 -61t-91.5 -160z" />
<glyph unicode="&#x153;" horiz-adv-x="1212" d="M940 578q-125 -92 -305 -191l-23 -98q-10 -45 -10 -74q0 -65 36.5 -99t96.5 -34q76 0 141 55t87 152l22 102l100 25l-30 -129q-33 -138 -130 -220.5t-214 -82.5q-71 0 -121 31.5t-72 90.5q-52 -59 -120 -90.5t-140 -31.5q-99 0 -158 57.5t-59 161.5q0 45 10 84l158 678 q32 137 129.5 220t216.5 83q72 0 125 -32t78 -91q48 58 114 90.5t140 32.5q92 0 152.5 -57t60.5 -191q0 -120 -64 -224t-221 -218zM766 961l-109 -476q154 90 244 162q116 87 169.5 171.5t53.5 189.5q0 166 -135 166q-80 0 -140 -57t-83 -156zM305 961l-153 -670 q-9 -38 -9 -70q0 -67 37 -102t99 -35q82 0 145.5 57.5t85.5 149.5l156 670q8 33 8 67q0 69 -37 104t-100 35q-81 0 -146 -56t-86 -150z" />
<glyph unicode="&#x178;" horiz-adv-x="821" d="M303 1604h105l79 -727l418 727h107l-500 -854l-172 -750h-104l172 750zM883 1974q55 0 55 -55q0 -39 -24.5 -68.5t-65.5 -29.5q-25 0 -39 16.5t-14 40.5q0 39 24 67.5t64 28.5zM604 1974q53 0 53 -55q0 -40 -24 -69t-66 -29q-25 0 -38 16t-13 41q0 39 24 67.5t64 28.5z " />
<glyph unicode="&#x2c6;" horiz-adv-x="737" d="M575 1673h111l121 -323h-88l-103 260l-221 -260h-88z" />
<glyph unicode="&#x2dc;" horiz-adv-x="794" d="M342 1438l-41 41q98 145 213 145q40 0 74 -17.5t54.5 -38t51 -38t62.5 -17.5q92 0 155 109l41 -41q-96 -145 -211 -145q-37 0 -70.5 17.5t-54.5 38.5t-52.5 38.5t-65.5 17.5q-92 0 -156 -110z" />
<glyph unicode="&#x2000;" horiz-adv-x="1012" />
<glyph unicode="&#x2001;" horiz-adv-x="2025" />
<glyph unicode="&#x2002;" horiz-adv-x="1012" />
<glyph unicode="&#x2003;" horiz-adv-x="2025" />
<glyph unicode="&#x2004;" horiz-adv-x="675" />
<glyph unicode="&#x2005;" horiz-adv-x="506" />
<glyph unicode="&#x2006;" horiz-adv-x="337" />
<glyph unicode="&#x2007;" horiz-adv-x="337" />
<glyph unicode="&#x2008;" horiz-adv-x="253" />
<glyph unicode="&#x2009;" horiz-adv-x="405" />
<glyph unicode="&#x200a;" horiz-adv-x="112" />
<glyph unicode="&#x2010;" horiz-adv-x="624" d="M150 821h458l-20 -88h-459z" />
<glyph unicode="&#x2011;" horiz-adv-x="624" d="M150 821h458l-20 -88h-459z" />
<glyph unicode="&#x2012;" horiz-adv-x="624" d="M150 821h458l-20 -88h-459z" />
<glyph unicode="&#x2013;" horiz-adv-x="870" d="M150 821h704l-20 -88h-705z" />
<glyph unicode="&#x2014;" horiz-adv-x="1267" d="M150 821h1101l-18 -88h-1104z" />
<glyph unicode="&#x2018;" horiz-adv-x="305" d="M440 1632h41l-90 -319q-22 -76 -84 -76q-55 0 -55 55q0 13 3 25t6 17t11 18.5t11 17.5z" />
<glyph unicode="&#x2019;" horiz-adv-x="305" d="M434 1511l-158 -262h-43l93 322q19 76 82 76q28 0 42.5 -16.5t14.5 -43.5q0 -12 -3.5 -23t-6.5 -17.5t-10.5 -18.5t-10.5 -17z" />
<glyph unicode="&#x201a;" horiz-adv-x="305" d="M88 14l-158 -262h-43l93 322q19 76 81 76q28 0 43 -16.5t15 -43.5q0 -12 -3.5 -23t-6.5 -17.5t-10.5 -18.5t-10.5 -17z" />
<glyph unicode="&#x201c;" horiz-adv-x="507" d="M641 1632h41l-90 -319q-22 -76 -84 -76q-55 0 -55 55q0 13 3 25t5 16.5t11.5 19.5t10.5 17zM440 1632h41l-90 -319q-22 -76 -84 -76q-55 0 -55 55q0 13 3 25t6 17t11 18.5t11 17.5z" />
<glyph unicode="&#x201d;" horiz-adv-x="505" d="M635 1511l-158 -262h-43l92 322q19 76 82 76q28 0 43 -16.5t15 -43.5q0 -12 -3.5 -23t-6.5 -17.5t-10.5 -18.5t-10.5 -17zM434 1511l-158 -262h-43l93 322q19 76 82 76q28 0 42.5 -16.5t14.5 -43.5q0 -12 -3.5 -23t-6.5 -17.5t-10.5 -18.5t-10.5 -17z" />
<glyph unicode="&#x201e;" horiz-adv-x="505" d="M289 14l-158 -262h-43l92 322q19 76 82 76q28 0 42.5 -16.5t14.5 -43.5q0 -12 -3 -23t-6 -17t-11 -19t-10 -17zM88 14l-158 -262h-43l93 322q19 76 81 76q28 0 43 -16.5t15 -43.5q0 -12 -3.5 -23t-6.5 -17.5t-10.5 -18.5t-10.5 -17z" />
<glyph unicode="&#x2022;" horiz-adv-x="534" d="M373 971q58 0 94.5 -42t36.5 -104q0 -86 -68 -151.5t-149 -65.5q-59 0 -95 41.5t-36 102.5q0 87 66.5 153t150.5 66z" />
<glyph unicode="&#x2026;" horiz-adv-x="1040" d="M432 150q55 0 55 -58q0 -40 -24 -69t-66 -29q-25 0 -38 16.5t-13 42.5q0 39 24 68t62 29zM752 150q55 0 55 -58q0 -40 -24 -69t-66 -29q-25 0 -38 16.5t-13 42.5q0 39 24 68t62 29zM115 150q55 0 55 -58q0 -40 -24 -69t-66 -29q-25 0 -38 16.5t-13 42.5q0 39 24 68t62 29 z" />
<glyph unicode="&#x202f;" horiz-adv-x="405" />
<glyph unicode="&#x2039;" horiz-adv-x="415" d="M422 1251h94l-340 -630l47 -621h-90l-45 625z" />
<glyph unicode="&#x203a;" horiz-adv-x="415" d="M233 1251h91l47 -626l-334 -625h-94l338 629z" />
<glyph unicode="&#x205f;" horiz-adv-x="506" />
<glyph unicode="&#x20ac;" horiz-adv-x="839" d="M127 686h82l59 262h-100l37 70h80l69 297q32 142 132 229.5t233 87.5q105 0 162 -57.5t57 -159.5q0 -43 -25 -153h-98q23 97 23 133q0 70 -36 103.5t-100 33.5q-86 0 -153.5 -58.5t-91.5 -160.5l-68 -295h453l-39 -70h-430l-62 -262h365l-39 -70h-342l-74 -325 q-10 -48 -10 -80q0 -70 38.5 -104.5t100.5 -34.5q83 0 148.5 60t91.5 159l14 55l103 25l-19 -82q-33 -145 -136 -231.5t-224 -86.5q-100 0 -161 61t-61 169q0 43 11 88l76 327h-101z" />
<glyph unicode="&#x2122;" horiz-adv-x="1054" d="M733 1604h68l-21 -852l375 852h66l-224 -963h-57l178 768l-332 -768h-61l20 770l-178 -770h-57zM362 1604h293l-12 -62h-117l-209 -901h-61l207 901h-115z" />
<glyph unicode="&#x25fc;" horiz-adv-x="1249" d="M0 1249h1249v-1249h-1249v1249z" />
</font>
</defs>
</svg>
