<?xml version="1.0" standalone="no"?>
<!DOCTYPE svg PUBLIC "-//W3C//DTD SVG 1.1//EN" "http://www.w3.org/Graphics/SVG/1.1/DTD/svg11.dtd" >
<svg xmlns="http://www.w3.org/2000/svg">
<metadata></metadata>
<defs>
<font id="libel_suitbook" horiz-adv-x="825" >
<font-face units-per-em="2048" ascent="1616" descent="-432" />
<missing-glyph horiz-adv-x="380" />
<glyph horiz-adv-x="0" />
<glyph horiz-adv-x="682" />
<glyph horiz-adv-x="380" />
<glyph unicode=" "  horiz-adv-x="380" />
<glyph unicode="&#x09;" horiz-adv-x="380" />
<glyph unicode="&#xa0;" horiz-adv-x="380" />
<glyph unicode="!" horiz-adv-x="346" d="M86 1632h174l-45 -1229h-82zM172 184q44 0 67 -26.5t23 -67.5q0 -42 -23 -69t-67 -27q-41 0 -63.5 27t-22.5 69q0 40 22.5 67t63.5 27z" />
<glyph unicode="&#x22;" horiz-adv-x="524" d="M324 1632h135l-21 -522h-94zM66 1632h135l-21 -522h-94z" />
<glyph unicode="#" horiz-adv-x="1079" d="M72 602h198l60 402h-201l16 114h201l70 486h114l-69 -486h250l69 486h115l-70 -486h197l-16 -114h-197l-59 -402h198l-16 -115h-199l-69 -487h-115l69 487h-249l-70 -487h-115l70 487h-199zM444 1004l-59 -402h250l59 402h-250z" />
<glyph unicode="$" horiz-adv-x="821" d="M385 1645h66v-205q132 -9 201 -81.5t69 -182.5v-91h-131v72q0 71 -44.5 110.5t-127.5 39.5q-86 0 -132 -40.5t-46 -113.5q0 -84 82 -166q36 -36 150 -124.5t157 -135.5q98 -109 98 -260q0 -136 -68.5 -217.5t-207.5 -91.5v-199h-66v199q-139 7 -216 81.5t-77 196.5v154 l129 -35v-111q0 -69 50 -110t143 -41t136.5 45t43.5 135q0 54 -18 93.5t-64 86.5q-51 54 -161 139t-146 123q-103 111 -103 246q0 124 76 197.5t207 81.5v205z" />
<glyph unicode="%" horiz-adv-x="1269" d="M952 1604h107l-740 -1604h-110zM1165 721v-559q0 -81 -56 -129.5t-142 -48.5q-87 0 -144 48.5t-57 129.5v559q0 81 57 128.5t144 47.5q86 0 142 -47.5t56 -128.5zM862 719v-557q0 -43 29 -67.5t76 -24.5q45 0 73.5 24.5t28.5 67.5v557q0 42 -28.5 66t-73.5 24 q-47 0 -76 -24t-29 -66zM502 1442v-559q0 -81 -56.5 -129.5t-142.5 -48.5q-87 0 -144 48.5t-57 129.5v559q0 81 57 128.5t144 47.5q86 0 142.5 -47.5t56.5 -128.5zM199 1440v-557q0 -43 28.5 -67.5t75.5 -24.5q46 0 74.5 24.5t28.5 67.5v557q0 42 -29 66t-74 24 q-47 0 -75.5 -24t-28.5 -66z" />
<glyph unicode="&#x26;" horiz-adv-x="892" d="M231 1354v-279q0 -95 40.5 -132.5t134.5 -37.5h430v-123h-168v-534q0 -129 90 -129q42 0 82 35l24 -123q-53 -47 -137 -47q-111 0 -162 84q-78 -91 -219 -91q-110 0 -190 85.5t-80 224.5v307q0 111 36 170.5t109 83.5q-65 22 -96 77t-31 156v279q0 147 85 236.5t227 89.5 q137 0 223 -84.5t86 -227.5v-53h-131v47q0 84 -46 130t-126 46q-86 0 -133.5 -51t-47.5 -139zM530 176q-4 18 -4 57v549h-129q-101 0 -142.5 -41t-41.5 -143v-305q0 -79 46.5 -127.5t107.5 -48.5q116 0 163 59z" />
<glyph unicode="'" horiz-adv-x="266" d="M66 1632h135l-21 -522h-94z" />
<glyph unicode="(" horiz-adv-x="604" d="M567 1964v-119q-66 -11 -112 -31.5t-81.5 -59.5t-52 -102t-16.5 -153v-1464q0 -91 16.5 -154t52 -102t81.5 -59.5t112 -30.5v-119q-381 47 -381 463v1468q0 416 381 463z" />
<glyph unicode=")" horiz-adv-x="604" d="M37 -430v119q66 11 112 31.5t81.5 59.5t52 102t16.5 153v1464q0 91 -16.5 154t-52 102t-81.5 59.5t-112 30.5v119q381 -47 381 -463v-1468q0 -416 -381 -463z" />
<glyph unicode="*" horiz-adv-x="919" d="M125 1436l299 -189l-14 357h96l-14 -355l301 191l49 -84l-316 -164l316 -164l-47 -84l-299 191l14 -357h-96l14 355l-299 -193l-49 84l313 164l-315 164z" />
<glyph unicode="+" horiz-adv-x="1103" d="M492 1227h118v-389h391v-119h-391v-391h-118v391h-390v119h390v389z" />
<glyph unicode="," horiz-adv-x="307" d="M223 18l-123 -294h-53l19 366q2 43 23.5 68.5t62.5 25.5q44 0 67 -26.5t23 -67.5q0 -30 -19 -72z" />
<glyph unicode="-" horiz-adv-x="643" d="M63 836h515v-119h-515v119z" />
<glyph unicode="." horiz-adv-x="307" d="M152 184q44 0 67 -26.5t23 -67.5q0 -42 -23 -69t-67 -27q-41 0 -63.5 27t-22.5 69q0 40 22.5 67t63.5 27z" />
<glyph unicode="/" horiz-adv-x="739" d="M598 1780h121l-578 -2026h-121z" />
<glyph unicode="0" horiz-adv-x="843" d="M752 1311v-1018q0 -147 -94.5 -234.5t-235.5 -87.5q-142 0 -236 87.5t-94 234.5v1018q0 147 94 234t236 87q141 0 235.5 -87t94.5 -234zM236 1309v-1016q0 -84 52 -132t134 -48q80 0 132 48t52 132v1016q0 85 -51.5 133.5t-132.5 48.5q-82 0 -134 -48.5t-52 -133.5z" />
<glyph unicode="1" horiz-adv-x="471" d="M39 1458h96q88 0 88 146h146v-1604h-146v1333h-184v125z" />
<glyph unicode="2" horiz-adv-x="759" d="M387 1632q149 0 233.5 -86.5t84.5 -267.5q0 -86 -19 -146.5t-61 -127.5q-44 -71 -161.5 -217t-156.5 -203q-48 -73 -64 -126.5t-16 -142.5v-174h478v-141h-623v315q0 173 88 314q37 55 157 202.5t165 217.5q67 109 67 231q0 112 -44.5 161.5t-131.5 49.5t-133.5 -46.5 t-46.5 -133.5v-49h-135v53q0 149 84 233t235 84z" />
<glyph unicode="3" horiz-adv-x="804" d="M387 1632q155 0 239.5 -95.5t84.5 -250.5v-217q0 -102 -32 -159t-97 -79q73 -24 110 -85t37 -173v-286q0 -143 -94.5 -229.5t-237.5 -86.5q-142 0 -231.5 86t-89.5 232v82l135 -35v-45q0 -85 50 -131.5t134 -46.5q85 0 137 47t52 131v284q0 104 -42 146.5t-143 42.5h-116 v127h108q96 0 136 38t40 136v223q0 94 -45.5 148.5t-136.5 54.5q-84 0 -129 -48.5t-45 -135.5v-45h-135v53q0 147 84 232t227 85z" />
<glyph unicode="4" horiz-adv-x="815" d="M518 1604h137v-924h107v-143h-107v-537h-137v537h-465v133l252 651h133l-250 -641h330v924z" />
<glyph unicode="5" horiz-adv-x="794" d="M121 1604h575v-142h-452l-31 -336q99 95 242 95q252 0 252 -287v-645q0 -144 -90 -231t-226 -87q-137 0 -229 87t-92 231v82l135 -35v-45q0 -81 51 -129.5t127 -48.5q77 0 127.5 48.5t50.5 129.5v645q0 158 -147 158q-134 0 -221 -129l-117 41z" />
<glyph unicode="6" horiz-adv-x="821" d="M236 1311v-307q91 112 235 112q115 0 186.5 -74.5t71.5 -216.5v-536q0 -144 -92 -231t-229 -87q-136 0 -226 87t-90 231v1026q0 146 90.5 231.5t235.5 85.5q143 0 227 -85t84 -232v-53h-137v49q0 86 -46 133t-128 47q-83 0 -132.5 -47.5t-49.5 -132.5zM434 981 q-117 0 -198 -123v-567q0 -84 49.5 -131t128.5 -47t128.5 47t49.5 131v508q0 182 -158 182z" />
<glyph unicode="7" horiz-adv-x="686" d="M53 1604h580v-125l-340 -1479h-154l355 1462h-441v142z" />
<glyph unicode="8" horiz-adv-x="811" d="M78 1090v196q0 154 83.5 250t235.5 96t236 -96t84 -250v-196q0 -205 -142 -259q78 -24 119 -88t41 -180v-276q0 -143 -96 -229.5t-242 -86.5q-148 0 -243 86t-95 230v276q0 116 40 180t118 88q-70 27 -104.5 89t-34.5 170zM195 578v-277q0 -91 57 -141.5t145 -50.5 t145.5 50.5t57.5 141.5v277q0 101 -50 144.5t-153 43.5q-104 0 -153 -43t-49 -145zM211 1292v-231q0 -96 44.5 -135t141.5 -39q96 0 140.5 39.5t44.5 134.5v231q0 93 -47.5 148t-137.5 55t-138 -55t-48 -148z" />
<glyph unicode="9" horiz-adv-x="821" d="M401 113q83 0 133 46.5t50 131.5v360q-92 -110 -234 -110q-116 0 -187 74t-71 216v484q0 144 92 230.5t230 86.5q136 0 225.5 -86.5t89.5 -230.5v-1026q0 -146 -90.5 -232t-235.5 -86q-143 0 -227 85.5t-84 232.5v82l135 -35v-45q0 -85 46.5 -131.5t127.5 -46.5z M227 1311v-453q0 -182 160 -182q116 0 197 119v516q0 84 -49 132t-127 48q-79 0 -130 -48t-51 -132z" />
<glyph unicode=":" horiz-adv-x="401" d="M199 868q44 0 67 -26.5t23 -67.5q0 -42 -23 -69t-67 -27q-41 0 -63.5 27t-22.5 69q0 40 22.5 67t63.5 27zM199 287q44 0 67 -26.5t23 -67.5q0 -42 -23 -69.5t-67 -27.5q-41 0 -63.5 27.5t-22.5 69.5q0 40 22.5 67t63.5 27z" />
<glyph unicode=";" horiz-adv-x="401" d="M270 121l-123 -295h-53l19 367q2 43 23.5 68.5t62.5 25.5q44 0 67 -26.5t23 -67.5q0 -30 -19 -72zM199 868q44 0 67 -26.5t23 -67.5q0 -42 -23 -69t-67 -27q-41 0 -63.5 27t-22.5 69q0 40 22.5 67t63.5 27z" />
<glyph unicode="&#x3c;" horiz-adv-x="1103" d="M102 836l899 344v-125l-770 -279l770 -280v-123l-899 344v119z" />
<glyph unicode="=" horiz-adv-x="1103" d="M102 1038h899v-118h-899v118zM102 633h899v-119h-899v119z" />
<glyph unicode="&#x3e;" horiz-adv-x="1103" d="M1001 717l-899 -344v125l768 278l-768 281v123l899 -344v-119z" />
<glyph unicode="?" horiz-adv-x="747" d="M387 1645q136 0 217.5 -81.5t81.5 -238.5q0 -93 -32 -174.5t-113 -220.5q-108 -187 -138 -278.5t-30 -248.5h-88q-9 71 -9 127q0 111 32.5 199.5t119.5 245.5q66 117 92.5 185t26.5 149q0 194 -168 194q-84 0 -136.5 -45t-52.5 -125v-71h-129v79q0 138 92.5 221t233.5 83 zM332 184q42 0 65 -26.5t23 -67.5q0 -42 -23 -69t-65 -27t-65 27t-23 69q0 41 23 67.5t65 26.5z" />
<glyph unicode="@" horiz-adv-x="1421" d="M842 954l90 27v-719q0 -48 19.5 -72t68.5 -24q119 0 178 132t59 374q0 343 -120.5 511.5t-366.5 168.5q-196 0 -334 -103.5t-205 -284.5t-67 -423q0 -139 23.5 -259.5t61.5 -208.5t92 -161.5t110 -122t122 -86.5l-45 -90q-456 265 -456 928q0 202 42.5 366t127.5 286 t220 188.5t312 66.5q298 0 436 -190t138 -566q0 -295 -82 -456.5t-244 -161.5q-126 0 -164 90q-74 -90 -174 -90q-76 0 -124 53t-48 152v471q0 97 47.5 150.5t120.5 53.5q94 0 162 -75v75zM604 739v-452q0 -60 22 -90.5t76 -30.5q84 0 140 78v534q-66 84 -146 84 q-92 0 -92 -123z" />
<glyph unicode="A" d="M334 1604h147l299 -1604h-143l-45 256h-363l-43 -256h-141zM408 1309l-158 -930h319z" />
<glyph unicode="B" horiz-adv-x="839" d="M102 1604h326q148 0 232.5 -84.5t84.5 -233.5v-217q0 -102 -32 -159t-97 -79q73 -24 110.5 -85t37.5 -173v-243q0 -157 -85.5 -243.5t-234.5 -86.5h-342v1604zM246 764v-625h188q184 0 184 199v237q0 104 -41.5 146.5t-142.5 42.5h-188zM246 1464v-573h180q96 0 136 38 t40 136v205q0 92 -46 143t-138 51h-172z" />
<glyph unicode="C" horiz-adv-x="792" d="M236 1311v-1020q0 -84 49.5 -131t128.5 -47t128.5 47t49.5 131v45l137 35v-82q0 -144 -92 -231t-229 -87q-136 0 -226 87t-90 231v1026q0 146 90.5 231.5t235.5 85.5q143 0 227 -85t84 -232v-53h-137v49q0 86 -46 133t-128 47q-83 0 -132.5 -47.5t-49.5 -132.5z" />
<glyph unicode="D" horiz-adv-x="845" d="M102 1604h332q151 0 235.5 -93t84.5 -276v-866q0 -183 -84.5 -276t-235.5 -93h-332v1604zM248 1462v-1321h176q184 0 184 219v883q0 219 -184 219h-176z" />
<glyph unicode="E" horiz-adv-x="700" d="M102 1604h531v-142h-385v-565h284v-141h-284v-615h385v-141h-531v1604z" />
<glyph unicode="F" horiz-adv-x="704" d="M102 1604h553v-142h-407v-618h311v-142h-311v-702h-146v1604z" />
<glyph unicode="G" horiz-adv-x="821" d="M233 1311v-1020q0 -85 47 -131.5t126 -46.5q80 0 134 47.5t54 130.5v446h-195v135h324v-872h-94l-8 86q-41 -53 -104.5 -84t-137.5 -31q-128 0 -207.5 86t-79.5 232v1026q0 145 90.5 231t233.5 86q142 0 227.5 -85t85.5 -232v-53h-137v49q0 85 -47.5 132.5t-128.5 47.5 q-82 0 -132.5 -48t-50.5 -132z" />
<glyph unicode="H" horiz-adv-x="866" d="M102 1604h146v-717h368v717h148v-1604h-148v745h-368v-745h-146v1604z" />
<glyph unicode="I" horiz-adv-x="350" d="M102 1604h146v-1604h-146v1604z" />
<glyph unicode="J" horiz-adv-x="784" d="M541 1604h145v-1315q0 -145 -89.5 -231.5t-229.5 -86.5q-141 0 -229.5 86t-88.5 232v82l135 -35v-45q0 -85 48.5 -131.5t129.5 -46.5q80 0 129.5 47t49.5 131v1313z" />
<glyph unicode="K" horiz-adv-x="792" d="M580 1604h153l-360 -664l385 -940h-156l-354 883v-883h-146v1604h146v-623z" />
<glyph unicode="L" horiz-adv-x="641" d="M102 1604h146v-1463h344v-141h-490v1604z" />
<glyph unicode="M" horiz-adv-x="1112" d="M102 1604h160l295 -1358l303 1358h150v-1604h-131v1196l-252 -1196h-140l-254 1198v-1198h-131v1604z" />
<glyph unicode="N" horiz-adv-x="845" d="M102 1604h162l350 -1252v1252h129v-1604h-133l-379 1300v-1300h-129v1604z" />
<glyph unicode="O" horiz-adv-x="843" d="M752 1311v-1018q0 -147 -94.5 -234.5t-235.5 -87.5q-142 0 -236 87.5t-94 234.5v1018q0 147 94 234t236 87q141 0 235.5 -87t94.5 -234zM236 1309v-1016q0 -84 52 -132t134 -48q80 0 132 48t52 132v1016q0 85 -51.5 133.5t-132.5 48.5q-82 0 -134 -48.5t-52 -133.5z" />
<glyph unicode="P" d="M102 1604h332q151 0 235.5 -93t84.5 -276v-234q0 -183 -84 -275.5t-236 -92.5h-186v-633h-146v1604zM248 1462v-688h176q184 0 184 219v250q0 219 -184 219h-176z" />
<glyph unicode="Q" horiz-adv-x="843" d="M752 1311v-1002q0 -126 -76 -215l147 -192l-104 -78l-148 194q-67 -30 -149 -30q-142 0 -236 87t-94 234v1002q0 147 94 234t236 87q141 0 235.5 -87t94.5 -234zM399 248l105 78l82 -111q20 42 20 86v1008q0 85 -51.5 133.5t-132.5 48.5q-82 0 -134 -48.5t-52 -133.5 v-1008q0 -84 52 -132t134 -48q32 0 65 10z" />
<glyph unicode="R" horiz-adv-x="843" d="M102 1604h326q148 0 232.5 -84.5t84.5 -233.5v-217q0 -98 -29.5 -153.5t-90.5 -79.5q67 -24 100 -79.5t33 -154.5v-602h-146v608q0 90 -39.5 124t-146.5 34h-180v-766h-144v1604zM246 1464v-571h172q104 0 144 38t40 132v207q0 92 -48.5 143t-135.5 51h-172z" />
<glyph unicode="S" horiz-adv-x="786" d="M399 1632q143 0 226.5 -87t83.5 -228v-57h-138v49q0 85 -46.5 135.5t-129.5 50.5q-88 0 -137 -59t-49 -150q0 -61 22 -115t70 -116q31 -40 150.5 -181t164.5 -204q54 -75 78.5 -148t24.5 -166q0 -182 -81 -283.5t-241 -101.5q-155 0 -246.5 89t-91.5 225v84l136 -35v-47 q0 -77 52.5 -129t141.5 -52q94 0 141.5 61t47.5 173q0 72 -21.5 133t-71.5 129q-33 43 -137.5 164t-150.5 184q-123 178 -123 336t88 252t237 94z" />
<glyph unicode="T" horiz-adv-x="647" d="M49 1604h549v-142h-203v-1462h-145v1462h-201v142z" />
<glyph unicode="U" horiz-adv-x="856" d="M98 1604h146v-1311q0 -84 51 -132t133 -48t134 48t52 132v1311h144v-1311q0 -147 -94.5 -234.5t-237.5 -87.5q-142 0 -235 87.5t-93 234.5v1311z" />
<glyph unicode="V" d="M45 1604h143l224 -1309l225 1309h143l-295 -1604h-147z" />
<glyph unicode="W" horiz-adv-x="1198" d="M53 1604h140l118 -1258l215 1258h142l194 -1258l142 1258h141l-195 -1604h-147l-207 1311l-229 -1311h-144z" />
<glyph unicode="X" horiz-adv-x="851" d="M649 1604h144l-293 -775l317 -829h-155l-246 647l-242 -647h-139l305 846l-283 758h148l219 -578z" />
<glyph unicode="Y" horiz-adv-x="860" d="M35 1604h147l248 -689l252 689h143l-321 -854v-750h-148v750z" />
<glyph unicode="Z" horiz-adv-x="753" d="M74 1604h614v-113l-473 -1350h473v-141h-622v135l469 1327h-461v142z" />
<glyph unicode="[" horiz-adv-x="604" d="M186 1964h381v-119h-262v-2156h262v-119h-381v2394z" />
<glyph unicode="\" horiz-adv-x="724" d="M20 1780h121l578 -2026h-121z" />
<glyph unicode="]" horiz-adv-x="604" d="M418 -430h-381v119h262v2156h-262v119h381v-2394z" />
<glyph unicode="^" horiz-adv-x="944" d="M412 1604h118l344 -899h-124l-279 768l-281 -768h-122z" />
<glyph unicode="_" horiz-adv-x="868" d="M0 -145h877v-99h-877v99z" />
<glyph unicode="`" horiz-adv-x="571" d="M184 1673h158l180 -323h-127z" />
<glyph unicode="a" horiz-adv-x="802" d="M195 1030l-78 98q44 65 122.5 102.5t168.5 37.5q145 0 221 -92.5t76 -247.5v-928h-95l-26 80q-106 -96 -248 -96q-117 0 -195 78t-78 241q0 134 61.5 232.5t205.5 201.5q67 48 239 152v35q0 96 -46 153.5t-136 57.5q-60 0 -110 -27.5t-82 -77.5zM377 119q99 0 192 96v535 q-113 -65 -168 -107q-108 -76 -152 -152.5t-44 -168.5q0 -104 47 -153.5t125 -49.5z" />
<glyph unicode="b" d="M102 1634l142 35v-502q101 101 233 101q112 0 189 -78.5t77 -224.5v-678q0 -146 -77 -224.5t-189 -78.5q-145 0 -250 114l-24 -98h-101v1634zM438 1126q-107 0 -194 -108v-787q87 -108 194 -108q77 0 120.5 49.5t43.5 140.5v623q0 91 -43.5 140.5t-120.5 49.5z" />
<glyph unicode="c" horiz-adv-x="774" d="M229 956v-663q0 -80 47 -125t121 -45q76 0 123 45t47 125v88l131 35v-129q0 -138 -87 -220.5t-218 -82.5q-129 0 -215 82.5t-86 220.5v678q0 138 86 220.5t215 82.5q131 0 218 -82.5t87 -220.5v-54h-131v45q0 80 -47 125t-123 45q-74 0 -121 -45t-47 -125z" />
<glyph unicode="d" horiz-adv-x="835" d="M592 1634l141 35v-1669h-100l-27 100q-107 -116 -248 -116q-113 0 -189.5 78.5t-76.5 224.5v678q0 146 76.5 224.5t189.5 78.5q126 0 234 -103v469zM233 936v-623q0 -92 43 -141t121 -49q104 0 195 110v783q-91 110 -195 110q-78 0 -121 -49t-43 -141z" />
<glyph unicode="e" horiz-adv-x="784" d="M498 569q-89 -74 -269 -182v-96q0 -80 47 -125t121 -45q76 0 123 45t47 125v90l131 35v-129q0 -138 -87 -220.5t-218 -82.5q-129 0 -215 82.5t-86 220.5v678q0 138 85.5 220.5t217.5 82.5q58 0 110 -17t97.5 -53t72.5 -102t27 -154q0 -113 -48.5 -199.5t-155.5 -173.5z M229 958v-434q129 78 195 138q75 64 108 127t33 145q0 105 -49 154t-123 49t-119 -48t-45 -131z" />
<glyph unicode="f" horiz-adv-x="649" d="M33 1251h155v121q0 142 70.5 228t204.5 86q92 0 166 -41l-39 -125q-49 32 -113 32q-76 0 -114.5 -48.5t-38.5 -133.5v-119h229v-123h-229v-1128h-136v1128h-155v123z" />
<glyph unicode="g" horiz-adv-x="819" d="M94 645v320q0 138 89 220.5t223 82.5q88 0 161 -39l232 10l-76 -125l-41 -2q35 -75 35 -147v-320q0 -137 -89 -220t-222 -83q-38 0 -76 6q-76 -43 -76 -119q0 -98 117 -98h368l-57 -123h-356q-168 0 -168 -119q0 -53 34 -85.5t97 -32.5h286l-57 -121h-256 q-118 0 -183 66.5t-65 166.5q0 77 41.5 134.5t122.5 84.5q-41 41 -41 113q0 104 107 164q-70 38 -110 106.5t-40 159.5zM229 963v-318q0 -81 49 -126.5t128 -45.5q78 0 127 45.5t49 126.5v318q0 82 -49 128t-127 46q-79 0 -128 -45.5t-49 -128.5z" />
<glyph unicode="h" horiz-adv-x="841" d="M102 1634l142 35v-489q98 88 227 88q117 0 194.5 -78t77.5 -225v-965h-141v936q0 92 -44 141t-126 49q-105 0 -188 -96v-1030h-142v1634z" />
<glyph unicode="i" horiz-adv-x="346" d="M102 1251h142v-1251h-142v1251zM170 1636q44 0 67 -26t23 -68t-23 -69t-67 -27q-41 0 -63.5 27t-22.5 69q0 41 22.5 67.5t63.5 26.5z" />
<glyph unicode="j" horiz-adv-x="374" d="M135 1251h137v-1314q0 -136 -68.5 -224t-203.5 -88q-100 0 -164 47l39 125q52 -37 107 -37q72 0 112.5 49t40.5 128v1314zM203 1636q44 0 67 -26t23 -68t-23 -69t-67 -27q-41 0 -63.5 27t-22.5 69q0 41 22.5 67.5t63.5 26.5z" />
<glyph unicode="k" horiz-adv-x="770" d="M563 1251h148l-346 -518l370 -733h-149l-342 688v-688h-142v1634l142 35v-903z" />
<glyph unicode="l" horiz-adv-x="346" d="M102 1634l142 35v-1669h-142v1634z" />
<glyph unicode="m" horiz-adv-x="1284" d="M102 1251h101l22 -86q93 103 230 103q71 0 128.5 -33t92.5 -96q48 63 113.5 96t136.5 33q112 0 186 -78t74 -225v-965h-142v936q0 92 -40.5 141t-116.5 49q-98 0 -176 -96q4 -40 4 -65v-965h-142v936q0 92 -40.5 141t-116.5 49q-96 0 -172 -90v-1036h-142v1251z" />
<glyph unicode="n" horiz-adv-x="841" d="M102 1251h101l24 -88q102 105 244 105q117 0 194.5 -78t77.5 -225v-965h-141v936q0 92 -44 141t-126 49q-105 0 -188 -96v-1030h-142v1251z" />
<glyph unicode="o" horiz-adv-x="806" d="M715 965v-678q0 -137 -89.5 -220t-222.5 -83q-134 0 -222.5 82.5t-88.5 220.5v678q0 138 88.5 220.5t222.5 82.5q133 0 222.5 -83t89.5 -220zM229 956v-663q0 -80 48.5 -125t125.5 -45q76 0 124 45t48 125v663q0 80 -48 125t-124 45q-77 0 -125.5 -45t-48.5 -125z" />
<glyph unicode="p" horiz-adv-x="835" d="M102 1251h101l24 -100q108 117 250 117q112 0 189 -78.5t77 -224.5v-678q0 -146 -77 -224.5t-189 -78.5q-135 0 -233 98v-432h-142v1601zM438 1126q-107 0 -194 -108v-787q87 -108 194 -108q77 0 120.5 49.5t43.5 140.5v623q0 91 -43.5 140.5t-120.5 49.5z" />
<glyph unicode="q" horiz-adv-x="835" d="M633 1251h100v-1601h-141v434q-105 -100 -234 -100q-113 0 -189.5 78.5t-76.5 224.5v678q0 146 76.5 224.5t189.5 78.5q139 0 248 -119zM233 936v-623q0 -92 43 -141t121 -49q104 0 195 110v783q-91 110 -195 110q-78 0 -121 -49t-43 -141z" />
<glyph unicode="r" horiz-adv-x="655" d="M625 1214l-41 -124q-60 36 -127 36q-129 0 -213 -153v-973h-142v1251h101l26 -139q87 156 238 156q92 0 158 -54z" />
<glyph unicode="s" horiz-adv-x="763" d="M389 1268q148 0 225.5 -74.5t77.5 -192.5v-90h-131v72q0 71 -44.5 110.5t-127.5 39.5q-86 0 -132 -40.5t-46 -113.5q0 -84 82 -166q36 -36 150 -124.5t157 -135.5q98 -109 98 -260q0 -145 -77.5 -227t-235.5 -82q-151 0 -236.5 75t-85.5 203v154l130 -35v-111 q0 -69 49.5 -110t142.5 -41t136.5 45t43.5 135q0 54 -18 93.5t-64 86.5q-51 54 -161 139t-146 123q-102 110 -102 246q0 132 85.5 206.5t229.5 74.5z" />
<glyph unicode="t" horiz-adv-x="647" d="M33 1251h147v240l137 55v-295h236v-123h-236v-831q0 -80 41.5 -129t114.5 -49q56 0 107 35l38 -123q-64 -47 -165 -47q-135 0 -204 88t-69 225v831h-147v123z" />
<glyph unicode="u" horiz-adv-x="833" d="M590 1251h141v-1251h-100l-25 88q-95 -104 -237 -104q-117 0 -194 78t-77 225v964h142v-938q0 -93 44 -141.5t122 -48.5q101 0 184 98v1030z" />
<glyph unicode="v" horiz-adv-x="790" d="M47 1251h137l209 -1015l215 1015h137l-282 -1251h-141z" />
<glyph unicode="w" horiz-adv-x="1126" d="M53 1251h133l107 -979l203 979h131l180 -977l131 977h135l-182 -1251h-139l-193 1022l-213 -1022h-137z" />
<glyph unicode="x" horiz-adv-x="870" d="M664 1251h147l-301 -604l326 -647h-160l-252 504l-246 -504h-143l313 659l-291 592h152l225 -450z" />
<glyph unicode="y" horiz-adv-x="833" d="M590 1251h141v-1601h-141v440q-92 -86 -221 -86q-117 0 -194 78t-77 225v944h142v-917q0 -94 44 -142.5t122 -48.5q101 0 184 99v1009z" />
<glyph unicode="z" horiz-adv-x="729" d="M72 1251h594v-98l-453 -1032h453v-121h-603v117l451 1011h-442v123z" />
<glyph unicode="{" horiz-adv-x="604" d="M567 1964v-119q-108 0 -142 -34t-34 -142v-729q0 -67 -40 -116t-85 -56q44 -6 84.5 -62t40.5 -124v-719q0 -107 33.5 -140.5t142.5 -33.5v-119q-168 0 -231.5 62.5t-63.5 230.5v704q0 140 -125 140h-73v116h73q125 0 125 131v715q0 169 63.5 232t231.5 63z" />
<glyph unicode="|" horiz-adv-x="491" d="M186 1862h119v-2190h-119v2190z" />
<glyph unicode="}" horiz-adv-x="604" d="M37 -430v119q108 0 142 34t34 142v729q0 67 40 116t85 56q-44 6 -84.5 62t-40.5 124v719q0 107 -33.5 140.5t-142.5 33.5v119q168 0 231.5 -62.5t63.5 -230.5v-704q0 -140 125 -140h73v-116h-73q-125 0 -125 -131v-715q0 -169 -63.5 -232t-231.5 -63z" />
<glyph unicode="~" horiz-adv-x="1103" d="M102 614v144q41 59 99 91t149 32q89 0 219 -50q108 -43 185 -43q81 0 140 38t107 114v-143q-46 -63 -102 -95t-145 -32q-92 0 -219 49q-114 43 -185 43q-83 0 -142 -36.5t-106 -111.5z" />
<glyph unicode="&#xa1;" horiz-adv-x="346" d="M252 -279h-174l45 1229h82zM166 1169q-44 0 -67 27t-23 68q0 42 23 69t67 27q41 0 63.5 -27t22.5 -69q0 -40 -22.5 -67.5t-63.5 -27.5z" />
<glyph unicode="&#xa2;" horiz-adv-x="821" d="M244 1130v-663q0 -80 47 -125t121 -45q76 0 123 45t47 125v88l131 35v-129q0 -129 -75.5 -209.5t-193.5 -91.5v-201h-63v199q-120 9 -197.5 91t-77.5 212v678q0 130 77.5 211.5t197.5 89.5v205h63v-205q118 -12 193.5 -93t75.5 -208v-54h-131v45q0 80 -47 125t-123 45 q-74 0 -121 -45t-47 -125z" />
<glyph unicode="&#xa3;" horiz-adv-x="911" d="M72 948h110v367q0 146 90.5 231.5t235.5 85.5q143 0 227 -85t84 -232v-53h-137v49q0 86 -46 133t-128 47q-83 0 -132.5 -47.5t-49.5 -132.5v-363h424v-119h-424v-688h473v-141h-709v141h92v688h-110v119z" />
<glyph unicode="&#xa4;" horiz-adv-x="1447" d="M160 1425l231 -233q127 133 332 133q98 0 184 -34t148 -97l233 233l84 -84l-248 -247q47 -89 47 -207v-223q0 -118 -47 -207l250 -248l-84 -84l-237 235q-126 -129 -330 -129t-330 132l-235 -236l-84 84l250 250q-45 88 -45 203v223q0 115 45 203l-250 249zM387 872v-190 q0 -149 95.5 -238.5t240.5 -89.5q146 0 243 89.5t97 238.5v190q0 150 -97 240t-243 90q-145 0 -240.5 -90t-95.5 -240z" />
<glyph unicode="&#xa5;" horiz-adv-x="1028" d="M63 371h375v188h-375v98h375v93l-321 854h147l248 -689l252 689h143l-321 -854v-93h377v-98h-377v-188h377v-99h-377v-272h-148v272h-375v99z" />
<glyph unicode="&#xa6;" horiz-adv-x="491" d="M186 1862h119v-961h-119v961zM186 633h119v-961h-119v961z" />
<glyph unicode="&#xa7;" horiz-adv-x="806" d="M440 1632q123 0 196 -75.5t73 -198.5v-51h-119v43q0 73 -41 117t-113 44q-76 0 -119 -51t-43 -129q0 -97 80 -203q27 -34 131.5 -156t143.5 -177q46 -67 67 -130.5t21 -144.5q0 -247 -162 -313q111 -130 111 -303q0 -158 -70 -246t-209 -88q-135 0 -215 77t-80 195v74 l119 -31v-41q0 -67 45.5 -112t122.5 -45q82 0 123 53t41 151q0 120 -80 228q-28 38 -120.5 143t-131.5 160q-107 150 -107 293q0 107 49 182.5t136 103.5q-60 71 -96.5 156.5t-36.5 173.5q0 137 77 219t207 82zM303 512q18 -24 172 -205q119 27 119 201q0 119 -80 227 q-30 38 -135 160q-73 -3 -114.5 -53.5t-41.5 -126.5q0 -97 80 -203z" />
<glyph unicode="&#xa8;" horiz-adv-x="632" d="M477 1636q44 0 67 -26t23 -68t-23 -69t-67 -27q-42 0 -65 27t-23 69t22.5 68t65.5 26zM152 1636q44 0 67 -26t23 -68t-23 -69t-67 -27q-41 0 -63.5 27t-22.5 69q0 41 22.5 67.5t63.5 26.5z" />
<glyph unicode="&#xa9;" horiz-adv-x="1554" d="M98 629v340q0 151 52.5 277t143.5 210t214.5 130t265.5 46q190 0 344 -78.5t246 -231t92 -353.5v-340q0 -149 -53.5 -273.5t-145.5 -208t-216.5 -130t-266.5 -46.5t-265.5 46.5t-214.5 130t-143.5 208t-52.5 273.5zM164 969v-340q0 -133 47.5 -245t130 -187.5t194 -117.5 t238.5 -42q170 0 309 71.5t222.5 208t83.5 312.5v340q0 179 -83.5 316t-222.5 208.5t-309 71.5t-308 -71.5t-220 -208.5t-82 -316zM645 1169v-714q0 -59 35 -92t90 -33t90 33t35 92v32l96 25v-57q0 -102 -64.5 -163t-160.5 -61q-95 0 -158 61t-63 163v716q0 103 64 163.5 t165 60.5q100 0 158.5 -60t58.5 -164v-36h-96v34q0 60 -32 93.5t-89 33.5q-58 0 -93.5 -34t-35.5 -93z" />
<glyph unicode="&#xaa;" horiz-adv-x="641" d="M188 1475l-59 67q28 43 77 66.5t109 23.5q94 0 141.5 -59t47.5 -160v-596h-74l-14 43q-63 -53 -148 -53q-75 0 -124.5 50t-49.5 155q0 84 35.5 147.5t118.5 124.5q58 46 158 102v25q0 62 -23 92.5t-80 30.5q-72 0 -115 -59zM297 905q59 0 109 47v330q-55 -31 -101 -65 q-61 -46 -84.5 -88.5t-23.5 -100.5q0 -123 100 -123z" />
<glyph unicode="&#xab;" horiz-adv-x="716" d="M543 1251h127l-215 -626l215 -625h-127l-213 625zM258 1251h127l-215 -626l215 -625h-127l-213 625z" />
<glyph unicode="&#xac;" horiz-adv-x="1103" d="M102 874h897v-874h-118v756h-779v118z" />
<glyph unicode="&#xad;" horiz-adv-x="643" d="M63 836h515v-119h-515v119z" />
<glyph unicode="&#xae;" horiz-adv-x="1554" d="M98 629v340q0 151 52.5 277t143.5 210t214.5 130t265.5 46q190 0 344 -78.5t246 -231t92 -353.5v-340q0 -149 -53.5 -273.5t-145.5 -208t-216.5 -130t-266.5 -46.5t-265.5 46.5t-214.5 130t-143.5 208t-52.5 273.5zM164 969v-340q0 -133 47.5 -245t130 -187.5t194 -117.5 t238.5 -42q170 0 309 71.5t222.5 208t83.5 312.5v340q0 179 -83.5 316t-222.5 208.5t-309 71.5t-308 -71.5t-220 -208.5t-82 -316zM549 1374h227q103 0 163 -59t60 -162v-154q0 -128 -86 -163q95 -32 95 -162v-422h-103v426q0 62 -27.5 86t-101.5 24h-127v-536h-100v1122z M649 1276v-399h121q72 0 100.5 26.5t28.5 91.5v146q0 64 -34.5 99.5t-94.5 35.5h-121z" />
<glyph unicode="&#xaf;" horiz-adv-x="794" d="M66 1581h663v-111h-663v111z" />
<glyph unicode="&#xb0;" horiz-adv-x="708" d="M115 1210v189q0 106 67.5 169.5t169.5 63.5q103 0 171.5 -63.5t68.5 -169.5v-189q0 -105 -68.5 -168t-171.5 -63q-102 0 -169.5 63t-67.5 168zM217 1399v-189q0 -58 38 -93.5t97 -35.5q60 0 97.5 35.5t37.5 93.5v189q0 60 -37.5 95.5t-97.5 35.5q-59 0 -97 -36t-38 -95z " />
<glyph unicode="&#xb1;" horiz-adv-x="1103" d="M492 1227h118v-389h391v-119h-391v-391h-118v391h-390v119h390v389zM102 160h899v-119h-899v119z" />
<glyph unicode="&#xb2;" horiz-adv-x="542" d="M80 1415v29q0 82 50.5 128t143.5 46q195 0 195 -203q0 -85 -43 -147q-23 -34 -97 -116t-100 -116q-29 -38 -37 -63.5t-8 -77.5v-88h285v-86h-383v174q0 97 55 172q20 27 97.5 110.5t101.5 118.5q33 54 33 119q0 66 -22 90.5t-79 24.5q-54 0 -78 -20.5t-24 -67.5v-27h-90z " />
<glyph unicode="&#xb3;" horiz-adv-x="569" d="M86 1415v29q0 80 50.5 127t137.5 47q95 0 146 -52t51 -139v-118q0 -104 -74 -131q86 -29 86 -142v-157q0 -81 -57 -127.5t-145 -46.5q-87 0 -141 46.5t-54 127.5v47l90 -23v-22q0 -90 105 -90q106 0 106 90v155q0 58 -21.5 79.5t-82.5 21.5h-70v80h66q56 0 76 17.5 t20 70.5v122q0 52 -23.5 77.5t-77.5 25.5q-52 0 -75 -21t-23 -69v-25h-90z" />
<glyph unicode="&#xb4;" horiz-adv-x="571" d="M231 1673h158l-213 -323h-125z" />
<glyph unicode="&#xb6;" horiz-adv-x="929" d="M377 1604h477l-25 -109h-73v-1741h-107v1741h-248v-1741h-106v1391q-102 6 -164.5 72.5t-62.5 150.5q0 106 77 171t232 65z" />
<glyph unicode="&#xb7;" horiz-adv-x="307" d="M152 872q44 0 67 -26.5t23 -67.5q0 -42 -23 -69t-67 -27q-41 0 -63.5 27t-22.5 69q0 40 22.5 67t63.5 27z" />
<glyph unicode="&#xb8;" horiz-adv-x="407" d="M160 -41h141l-94 -389h-111z" />
<glyph unicode="&#xb9;" horiz-adv-x="415" d="M66 1503h49q47 0 64.5 22t17.5 79h96v-883h-96v704h-131v78z" />
<glyph unicode="&#xba;" horiz-adv-x="632" d="M512 1438v-434q0 -90 -57 -142.5t-144 -52.5t-142.5 52.5t-55.5 142.5v434q0 90 55.5 142t142.5 52t144 -52t57 -142zM213 1427v-415q0 -49 26.5 -76t71.5 -27q44 0 72.5 27.5t28.5 75.5v415q0 48 -28.5 75.5t-72.5 27.5q-45 0 -71.5 -27t-26.5 -76z" />
<glyph unicode="&#xbb;" horiz-adv-x="716" d="M330 1251h127l213 -626l-213 -625h-127l215 625zM45 1251h127l213 -626l-213 -625h-127l215 625z" />
<glyph unicode="&#xbc;" horiz-adv-x="1269" d="M918 1604h106l-739 -1604h-111zM156 1503h49q47 0 64.5 22t17.5 79h96v-883h-96v704h-131v78zM961 883h92v-523h75v-88h-75v-272h-92v272h-261v80l138 369h84l-131 -361h170v523z" />
<glyph unicode="&#xbd;" horiz-adv-x="1269" d="M913 1604h107l-739 -1604h-111zM152 1503h49q47 0 64.5 22t17.5 79h96v-883h-96v704h-131v78zM743 694v29q0 82 51 128t144 46q195 0 195 -203q0 -85 -43 -147q-23 -34 -97 -116t-100 -116q-29 -38 -37 -63.5t-8 -77.5v-88h285v-86h-383v174q0 97 55 172 q20 27 97.5 110.5t101.5 118.5q32 52 32 119q0 66 -21.5 90.5t-78.5 24.5q-54 0 -78 -20.5t-24 -67.5v-27h-91z" />
<glyph unicode="&#xbe;" horiz-adv-x="1269" d="M954 1604h107l-739 -1604h-111zM997 883h93v-523h75v-88h-75v-272h-93v272h-260v80l137 369h84l-131 -361h170v523zM100 1415v29q0 80 51 127t138 47q94 0 145 -52t51 -139v-118q0 -104 -73 -131q86 -29 86 -142v-157q0 -81 -57.5 -127.5t-145.5 -46.5q-87 0 -141 46.5 t-54 127.5v47l90 -23v-22q0 -90 105 -90q106 0 106 90v155q0 58 -21.5 79.5t-82.5 21.5h-70v80h66q56 0 76 17.5t20 70.5v122q0 53 -23 78t-77 25q-52 0 -75.5 -21.5t-23.5 -68.5v-25h-90z" />
<glyph unicode="&#xbf;" horiz-adv-x="747" d="M360 -291q-136 0 -217.5 81.5t-81.5 238.5q0 93 32 174t114 221q108 187 138 278.5t30 247.5h88q8 -63 8 -127q0 -110 -32.5 -198.5t-119.5 -245.5q-66 -115 -92 -183.5t-26 -150.5q0 -99 44 -147t124 -48q84 0 136 45t52 125v72h129v-80q0 -138 -92.5 -220.5 t-233.5 -82.5zM416 1169q-42 0 -65 27t-23 68q0 42 23 69t65 27t65 -27t23 -69q0 -41 -23 -68t-65 -27z" />
<glyph unicode="&#xc0;" d="M334 1604h147l299 -1604h-143l-45 256h-363l-43 -256h-141zM408 1309l-158 -930h319zM211 2025h158l180 -323h-127z" />
<glyph unicode="&#xc1;" d="M334 1604h147l299 -1604h-143l-45 256h-363l-43 -256h-141zM408 1309l-158 -930h319zM451 2025h157l-213 -323h-125z" />
<glyph unicode="&#xc2;" d="M334 1604h147l299 -1604h-143l-45 256h-363l-43 -256h-141zM408 1309l-158 -930h319zM332 2025h153l213 -323h-120l-168 252l-168 -252h-119z" />
<glyph unicode="&#xc3;" d="M334 1604h147l299 -1604h-143l-45 256h-363l-43 -256h-141zM408 1309l-158 -930h319zM123 1782l-62 53q71 152 207 152q44 0 85 -16.5t68 -36t63.5 -36t72.5 -16.5q96 0 141 105l64 -54q-73 -151 -205 -151q-41 0 -81.5 16t-68 36t-65.5 36t-76 16q-99 0 -143 -104z" />
<glyph unicode="&#xc4;" d="M334 1604h147l299 -1604h-143l-45 256h-363l-43 -256h-141zM408 1309l-158 -930h319zM569 1989q44 0 67 -26.5t23 -68.5t-23 -69t-67 -27q-42 0 -65 27t-23 69t22.5 68.5t65.5 26.5zM244 1989q44 0 67 -26.5t23 -68.5t-23 -69t-67 -27q-41 0 -63.5 27t-22.5 69t22.5 68.5 t63.5 26.5z" />
<glyph unicode="&#xc5;" d="M334 1604h147l299 -1604h-143l-45 256h-363l-43 -256h-141zM408 1309l-158 -930h319zM381 2025h57q83 0 131.5 -51.5t48.5 -130.5t-49 -131.5t-131 -52.5h-57q-81 0 -129.5 52.5t-48.5 131.5t48.5 130.5t129.5 51.5zM438 1942h-57q-43 0 -69.5 -28.5t-26.5 -72.5 q0 -43 26.5 -70.5t69.5 -27.5h57q43 0 70 27.5t27 70.5q0 44 -27 72.5t-70 28.5z" />
<glyph unicode="&#xc6;" horiz-adv-x="1116" d="M285 1604h764v-142h-385v-565h284v-141h-284v-615h385v-141h-531v256h-297l-35 -256h-141zM518 1462h-127l-151 -1083h278v1083z" />
<glyph unicode="&#xc7;" horiz-adv-x="792" d="M236 1311v-1020q0 -84 49.5 -131t128.5 -47t128.5 47t49.5 131v45l137 35v-82q0 -144 -92 -231t-229 -87q-136 0 -226 87t-90 231v1026q0 146 90.5 231.5t235.5 85.5q143 0 227 -85t84 -232v-53h-137v49q0 86 -46 133t-128 47q-83 0 -132.5 -47.5t-49.5 -132.5zM324 -41 h141l-94 -389h-111z" />
<glyph unicode="&#xc8;" horiz-adv-x="700" d="M102 1604h531v-142h-385v-565h284v-141h-284v-615h385v-141h-531v1604zM172 2025h158l180 -323h-127z" />
<glyph unicode="&#xc9;" horiz-adv-x="700" d="M102 1604h531v-142h-385v-565h284v-141h-284v-615h385v-141h-531v1604zM416 2025h157l-213 -323h-124z" />
<glyph unicode="&#xca;" horiz-adv-x="700" d="M102 1604h531v-142h-385v-565h284v-141h-284v-615h385v-141h-531v1604zM293 2025h153l213 -323h-120l-168 252l-168 -252h-119z" />
<glyph unicode="&#xcb;" horiz-adv-x="700" d="M102 1604h531v-142h-385v-565h284v-141h-284v-615h385v-141h-531v1604zM524 1989q44 0 67 -26.5t23 -68.5t-23 -69t-67 -27q-42 0 -65 27t-23 69t22.5 68.5t65.5 26.5zM199 1989q44 0 67 -26.5t23 -68.5t-23 -69t-67 -27q-41 0 -63.5 27t-22.5 69t22.5 68.5t63.5 26.5z " />
<glyph unicode="&#xcc;" horiz-adv-x="393" d="M145 1604h146v-1604h-146v1604zM20 2025h158l180 -323h-127z" />
<glyph unicode="&#xcd;" horiz-adv-x="401" d="M102 1604h146v-1604h-146v1604zM236 2025h157l-213 -323h-125z" />
<glyph unicode="&#xce;" horiz-adv-x="493" d="M174 1604h145v-1604h-145v1604zM168 2025h154l213 -323h-121l-168 252l-168 -252h-119z" />
<glyph unicode="&#xcf;" horiz-adv-x="442" d="M147 1604h146v-1604h-146v1604zM383 1989q44 0 67 -26.5t23 -68.5t-23 -69t-67 -27q-42 0 -65 27t-23 69t22.5 68.5t65.5 26.5zM57 1989q44 0 67 -26.5t23 -68.5t-23 -69t-67 -27q-41 0 -63.5 27t-22.5 69t22.5 68.5t63.5 26.5z" />
<glyph unicode="&#xd0;" horiz-adv-x="870" d="M127 1604h332q151 0 235 -93t84 -276v-866q0 -183 -84 -276t-235 -93h-332v756h-100v141h100v707zM272 1462v-565h211v-141h-211v-615h177q184 0 184 219v883q0 219 -184 219h-177z" />
<glyph unicode="&#xd1;" horiz-adv-x="845" d="M102 1604h162l350 -1252v1252h129v-1604h-133l-379 1300v-1300h-129v1604zM133 1782l-61 53q71 152 207 152q44 0 85 -16.5t67.5 -36t63 -36t72.5 -16.5q97 0 142 105l63 -54q-73 -151 -205 -151q-41 0 -81.5 16t-68 36t-65.5 36t-76 16q-99 0 -143 -104z" />
<glyph unicode="&#xd2;" horiz-adv-x="843" d="M752 1311v-1018q0 -147 -94.5 -234.5t-235.5 -87.5q-142 0 -236 87.5t-94 234.5v1018q0 147 94 234t236 87q141 0 235.5 -87t94.5 -234zM236 1309v-1016q0 -84 52 -132t134 -48q80 0 132 48t52 132v1016q0 85 -51.5 133.5t-132.5 48.5q-82 0 -134 -48.5t-52 -133.5z M227 2025h158l180 -323h-127z" />
<glyph unicode="&#xd3;" horiz-adv-x="843" d="M752 1311v-1018q0 -147 -94.5 -234.5t-235.5 -87.5q-142 0 -236 87.5t-94 234.5v1018q0 147 94 234t236 87q141 0 235.5 -87t94.5 -234zM236 1309v-1016q0 -84 52 -132t134 -48q80 0 132 48t52 132v1016q0 85 -51.5 133.5t-132.5 48.5q-82 0 -134 -48.5t-52 -133.5z M463 2025h158l-213 -323h-125z" />
<glyph unicode="&#xd4;" horiz-adv-x="843" d="M752 1311v-1018q0 -147 -94.5 -234.5t-235.5 -87.5q-142 0 -236 87.5t-94 234.5v1018q0 147 94 234t236 87q141 0 235.5 -87t94.5 -234zM236 1309v-1016q0 -84 52 -132t134 -48q80 0 132 48t52 132v1016q0 85 -51.5 133.5t-132.5 48.5q-82 0 -134 -48.5t-52 -133.5z M342 2025h154l213 -323h-121l-168 252l-168 -252h-119z" />
<glyph unicode="&#xd5;" horiz-adv-x="843" d="M752 1311v-1018q0 -147 -94.5 -234.5t-235.5 -87.5q-142 0 -236 87.5t-94 234.5v1018q0 147 94 234t236 87q141 0 235.5 -87t94.5 -234zM236 1309v-1016q0 -84 52 -132t134 -48q80 0 132 48t52 132v1016q0 85 -51.5 133.5t-132.5 48.5q-82 0 -134 -48.5t-52 -133.5z M133 1782l-61 53q71 152 207 152q44 0 85 -16.5t67.5 -36t63 -36t72.5 -16.5q97 0 142 105l63 -54q-73 -151 -205 -151q-41 0 -81.5 16t-68 36t-65.5 36t-76 16q-99 0 -143 -104z" />
<glyph unicode="&#xd6;" horiz-adv-x="843" d="M752 1311v-1018q0 -147 -94.5 -234.5t-235.5 -87.5q-142 0 -236 87.5t-94 234.5v1018q0 147 94 234t236 87q141 0 235.5 -87t94.5 -234zM236 1309v-1016q0 -84 52 -132t134 -48q80 0 132 48t52 132v1016q0 85 -51.5 133.5t-132.5 48.5q-82 0 -134 -48.5t-52 -133.5z M586 1989q44 0 67 -26.5t23 -68.5t-23 -69t-67 -27q-42 0 -65 27t-23 69t22.5 68.5t65.5 26.5zM260 1989q44 0 67 -26.5t23 -68.5t-23 -69t-67 -27q-41 0 -63.5 27t-22.5 69t22.5 68.5t63.5 26.5z" />
<glyph unicode="&#xd7;" horiz-adv-x="1103" d="M240 1174l311 -312l313 312l84 -84l-313 -312l313 -313l-84 -84l-313 313l-311 -313l-84 84l311 313l-311 312z" />
<glyph unicode="&#xd8;" horiz-adv-x="843" d="M690 1726h90l-80 -235q52 -82 52 -180v-1018q0 -147 -94.5 -234.5t-235.5 -87.5q-126 0 -215 70l-55 -164h-91l80 236q-49 73 -49 180v1018q0 147 94 234t236 87q126 0 213 -69zM422 113q80 0 132 48t52 132v921l-346 -1017q47 -84 162 -84zM236 1309v-920l346 1018 q-50 84 -160 84q-82 0 -134 -48.5t-52 -133.5z" />
<glyph unicode="&#xd9;" horiz-adv-x="856" d="M98 1604h146v-1311q0 -84 51 -132t133 -48t134 48t52 132v1311h144v-1311q0 -147 -94.5 -234.5t-237.5 -87.5q-142 0 -235 87.5t-93 234.5v1311zM233 2025h158l180 -323h-127z" />
<glyph unicode="&#xda;" horiz-adv-x="856" d="M98 1604h146v-1311q0 -84 51 -132t133 -48t134 48t52 132v1311h144v-1311q0 -147 -94.5 -234.5t-237.5 -87.5q-142 0 -235 87.5t-93 234.5v1311zM465 2025h158l-213 -323h-125z" />
<glyph unicode="&#xdb;" horiz-adv-x="856" d="M98 1604h146v-1311q0 -84 51 -132t133 -48t134 48t52 132v1311h144v-1311q0 -147 -94.5 -234.5t-237.5 -87.5q-142 0 -235 87.5t-93 234.5v1311zM348 2025h154l213 -323h-121l-168 252l-168 -252h-119z" />
<glyph unicode="&#xdc;" horiz-adv-x="856" d="M98 1604h146v-1311q0 -84 51 -132t133 -48t134 48t52 132v1311h144v-1311q0 -147 -94.5 -234.5t-237.5 -87.5q-142 0 -235 87.5t-93 234.5v1311zM586 1989q44 0 67 -26.5t23 -68.5t-23 -69t-67 -27q-42 0 -65 27t-23 69t22.5 68.5t65.5 26.5zM260 1989q44 0 67 -26.5 t23 -68.5t-23 -69t-67 -27q-41 0 -63.5 27t-22.5 69t22.5 68.5t63.5 26.5z" />
<glyph unicode="&#xdd;" horiz-adv-x="860" d="M35 1604h147l248 -689l252 689h143l-321 -854v-750h-148v750zM471 2025h158l-213 -323h-125z" />
<glyph unicode="&#xde;" horiz-adv-x="841" d="M102 1604h146v-277h186q151 0 235.5 -93t84.5 -276v-294q0 -183 -84.5 -276t-235.5 -93h-186v-295h-146v1604zM248 1186v-750h176q184 0 184 219v312q0 219 -184 219h-176z" />
<glyph unicode="&#xdf;" horiz-adv-x="929" d="M238 1354v-1354h-136v1346q0 158 77 249t239 91q81 0 140 -24t91.5 -68t47 -97t14.5 -119v-278q0 -163 -60 -223q96 -23 143.5 -86.5t47.5 -186.5v-285q0 -71 -17.5 -129.5t-53.5 -105.5t-97 -73.5t-142 -26.5q-161 0 -253 122l47 115q60 -102 184 -102q95 0 143.5 55 t48.5 145v279q0 114 -55 157.5t-186 43.5h-60v114h19q97 0 128.5 38t31.5 139v280q0 78 -40.5 126t-125.5 48q-88 0 -132 -51t-44 -139z" />
<glyph unicode="&#xe0;" horiz-adv-x="802" d="M195 1030l-78 98q44 65 122.5 102.5t168.5 37.5q145 0 221 -92.5t76 -247.5v-928h-95l-26 80q-106 -96 -248 -96q-117 0 -195 78t-78 241q0 134 61.5 232.5t205.5 201.5q67 48 239 152v35q0 96 -46 153.5t-136 57.5q-60 0 -110 -27.5t-82 -77.5zM377 119q99 0 192 96v535 q-113 -65 -168 -107q-108 -76 -152 -152.5t-44 -168.5q0 -104 47 -153.5t125 -49.5zM205 1673h157l181 -323h-127z" />
<glyph unicode="&#xe1;" horiz-adv-x="802" d="M195 1030l-78 98q44 65 122.5 102.5t168.5 37.5q145 0 221 -92.5t76 -247.5v-928h-95l-26 80q-106 -96 -248 -96q-117 0 -195 78t-78 241q0 134 61.5 232.5t205.5 201.5q67 48 239 152v35q0 96 -46 153.5t-136 57.5q-60 0 -110 -27.5t-82 -77.5zM377 119q99 0 192 96v535 q-113 -65 -168 -107q-108 -76 -152 -152.5t-44 -168.5q0 -104 47 -153.5t125 -49.5zM444 1673h158l-213 -323h-125z" />
<glyph unicode="&#xe2;" horiz-adv-x="802" d="M195 1030l-78 98q44 65 122.5 102.5t168.5 37.5q145 0 221 -92.5t76 -247.5v-928h-95l-26 80q-106 -96 -248 -96q-117 0 -195 78t-78 241q0 134 61.5 232.5t205.5 201.5q67 48 239 152v35q0 96 -46 153.5t-136 57.5q-60 0 -110 -27.5t-82 -77.5zM377 119q99 0 192 96v535 q-113 -65 -168 -107q-108 -76 -152 -152.5t-44 -168.5q0 -104 47 -153.5t125 -49.5zM322 1673h153l213 -323h-121l-168 252l-168 -252h-118z" />
<glyph unicode="&#xe3;" horiz-adv-x="802" d="M195 1030l-78 98q44 65 122.5 102.5t168.5 37.5q145 0 221 -92.5t76 -247.5v-928h-95l-26 80q-106 -96 -248 -96q-117 0 -195 78t-78 241q0 134 61.5 232.5t205.5 201.5q67 48 239 152v35q0 96 -46 153.5t-136 57.5q-60 0 -110 -27.5t-82 -77.5zM377 119q99 0 192 96v535 q-113 -65 -168 -107q-108 -76 -152 -152.5t-44 -168.5q0 -104 47 -153.5t125 -49.5zM113 1430l-62 53q71 151 207 151q44 0 85 -16t68 -36t63.5 -36t72.5 -16q96 0 141 104l64 -53q-73 -151 -205 -151q-41 0 -81.5 16t-68 36t-65.5 36t-76 16q-99 0 -143 -104z" />
<glyph unicode="&#xe4;" horiz-adv-x="802" d="M195 1030l-78 98q44 65 122.5 102.5t168.5 37.5q145 0 221 -92.5t76 -247.5v-928h-95l-26 80q-106 -96 -248 -96q-117 0 -195 78t-78 241q0 134 61.5 232.5t205.5 201.5q67 48 239 152v35q0 96 -46 153.5t-136 57.5q-60 0 -110 -27.5t-82 -77.5zM377 119q99 0 192 96v535 q-113 -65 -168 -107q-108 -76 -152 -152.5t-44 -168.5q0 -104 47 -153.5t125 -49.5zM563 1636q44 0 67 -26t23 -68t-23 -69t-67 -27q-42 0 -65 27t-23 69t22.5 68t65.5 26zM238 1636q44 0 67 -26t23 -68t-23 -69t-67 -27q-41 0 -63.5 27t-22.5 69q0 41 22.5 67.5t63.5 26.5z " />
<glyph unicode="&#xe5;" horiz-adv-x="802" d="M195 1030l-78 98q44 65 122.5 102.5t168.5 37.5q145 0 221 -92.5t76 -247.5v-928h-95l-26 80q-106 -96 -248 -96q-117 0 -195 78t-78 241q0 134 61.5 232.5t205.5 201.5q67 48 239 152v35q0 96 -46 153.5t-136 57.5q-60 0 -110 -27.5t-82 -77.5zM377 119q99 0 192 96v535 q-113 -65 -168 -107q-108 -76 -152 -152.5t-44 -168.5q0 -104 47 -153.5t125 -49.5zM371 1673h57q83 0 131.5 -51.5t48.5 -130.5t-49 -131.5t-131 -52.5h-57q-81 0 -129.5 52.5t-48.5 131.5t48.5 130.5t129.5 51.5zM428 1589h-57q-43 0 -70 -28t-27 -72q0 -43 27 -70.5 t70 -27.5h57q43 0 69.5 27.5t26.5 70.5q0 44 -26.5 72t-69.5 28z" />
<glyph unicode="&#xe6;" horiz-adv-x="1259" d="M195 1030l-78 98q44 65 122.5 102.5t168.5 37.5q147 0 227 -103q86 103 237 103q57 0 108.5 -17t97.5 -53t73 -102t27 -154q0 -85 -25 -153.5t-86 -134.5t-144.5 -126.5t-217.5 -140.5v-96q0 -80 46.5 -125t120.5 -45q76 0 123 45t47 125v90l132 35v-129 q0 -138 -87.5 -220.5t-218.5 -82.5q-80 0 -147.5 33t-106.5 94q-49 -57 -122.5 -92t-155.5 -35q-55 0 -102.5 17.5t-86.5 54t-61.5 100.5t-22.5 149q0 92 26 163t91 140.5t153 131.5t234 147v71q0 79 -48 128t-130 49q-126 0 -194 -105zM375 119q108 0 198 100q-6 30 -6 68 v461q-207 -120 -284.5 -212t-77.5 -212q0 -105 46.5 -155t123.5 -50zM705 958v-434q190 116 262.5 204t72.5 204q0 107 -49 156t-123 49t-118.5 -48t-44.5 -131z" />
<glyph unicode="&#xe7;" horiz-adv-x="774" d="M229 956v-663q0 -80 47 -125t121 -45q76 0 123 45t47 125v88l131 35v-129q0 -138 -87 -220.5t-218 -82.5q-129 0 -215 82.5t-86 220.5v678q0 138 86 220.5t215 82.5q131 0 218 -82.5t87 -220.5v-54h-131v45q0 80 -47 125t-123 45q-74 0 -121 -45t-47 -125zM317 -41h142 l-94 -389h-111z" />
<glyph unicode="&#xe8;" horiz-adv-x="784" d="M498 569q-89 -74 -269 -182v-96q0 -80 47 -125t121 -45q76 0 123 45t47 125v90l131 35v-129q0 -138 -87 -220.5t-218 -82.5q-129 0 -215 82.5t-86 220.5v678q0 138 85.5 220.5t217.5 82.5q58 0 110 -17t97.5 -53t72.5 -102t27 -154q0 -113 -48.5 -199.5t-155.5 -173.5z M229 958v-434q129 78 195 138q75 64 108 127t33 145q0 105 -49 154t-123 49t-119 -48t-45 -131zM195 1673h157l180 -323h-126z" />
<glyph unicode="&#xe9;" horiz-adv-x="784" d="M498 569q-89 -74 -269 -182v-96q0 -80 47 -125t121 -45q76 0 123 45t47 125v90l131 35v-129q0 -138 -87 -220.5t-218 -82.5q-129 0 -215 82.5t-86 220.5v678q0 138 85.5 220.5t217.5 82.5q58 0 110 -17t97.5 -53t72.5 -102t27 -154q0 -113 -48.5 -199.5t-155.5 -173.5z M229 958v-434q129 78 195 138q75 64 108 127t33 145q0 105 -49 154t-123 49t-119 -48t-45 -131zM436 1673h158l-213 -323h-125z" />
<glyph unicode="&#xea;" horiz-adv-x="784" d="M498 569q-89 -74 -269 -182v-96q0 -80 47 -125t121 -45q76 0 123 45t47 125v90l131 35v-129q0 -138 -87 -220.5t-218 -82.5q-129 0 -215 82.5t-86 220.5v678q0 138 85.5 220.5t217.5 82.5q58 0 110 -17t97.5 -53t72.5 -102t27 -154q0 -113 -48.5 -199.5t-155.5 -173.5z M229 958v-434q129 78 195 138q75 64 108 127t33 145q0 105 -49 154t-123 49t-119 -48t-45 -131zM313 1673h154l213 -323h-121l-168 252l-168 -252h-119z" />
<glyph unicode="&#xeb;" horiz-adv-x="784" d="M498 569q-89 -74 -269 -182v-96q0 -80 47 -125t121 -45q76 0 123 45t47 125v90l131 35v-129q0 -138 -87 -220.5t-218 -82.5q-129 0 -215 82.5t-86 220.5v678q0 138 85.5 220.5t217.5 82.5q58 0 110 -17t97.5 -53t72.5 -102t27 -154q0 -113 -48.5 -199.5t-155.5 -173.5z M229 958v-434q129 78 195 138q75 64 108 127t33 145q0 105 -49 154t-123 49t-119 -48t-45 -131zM553 1636q44 0 67 -26t23 -68t-23 -69t-67 -27q-42 0 -65 27t-23 69t22.5 68t65.5 26zM227 1636q44 0 67 -26t23 -68t-23 -69t-67 -27q-41 0 -63.5 27t-22.5 69q0 41 22.5 67.5 t63.5 26.5z" />
<glyph unicode="&#xec;" horiz-adv-x="385" d="M16 1673h158l180 -323h-127zM141 1251h142v-1251h-142v1251z" />
<glyph unicode="&#xed;" horiz-adv-x="395" d="M231 1673h158l-213 -323h-125zM102 1251h142v-1251h-142v1251z" />
<glyph unicode="&#xee;" horiz-adv-x="524" d="M190 1251h142v-1251h-142v1251zM182 1673h154l213 -323h-121l-168 252l-168 -252h-119z" />
<glyph unicode="&#xef;" horiz-adv-x="497" d="M410 1636q44 0 67 -26t23 -68t-23 -69t-67 -27q-42 0 -65 27t-23 69t22.5 68t65.5 26zM84 1636q44 0 67 -26t23 -68t-23 -69t-67 -27q-41 0 -63.5 27t-22.5 69q0 41 22.5 67.5t63.5 26.5zM178 1251h141v-1251h-141v1251z" />
<glyph unicode="&#xf0;" horiz-adv-x="788" d="M205 1450l-78 96q44 65 122.5 102.5t168.5 37.5q108 0 182 -58l96 113l54 -47l-101 -117q66 -91 66 -231v-1051q0 -141 -87.5 -226t-219.5 -85q-134 0 -224 85t-90 226v463q0 138 73 211t183 73q138 0 232 -124v425q0 71 -25 123l-266 -313l-51 47l272 324 q-44 35 -109 35q-119 0 -198 -109zM406 123q76 0 126 47t50 129v477q-82 133 -199 133q-73 0 -114.5 -46.5t-41.5 -131.5v-432q0 -82 50.5 -129t128.5 -47z" />
<glyph unicode="&#xf1;" horiz-adv-x="841" d="M102 1251h101l24 -88q102 105 244 105q117 0 194.5 -78t77.5 -225v-965h-141v936q0 92 -44 141t-126 49q-105 0 -188 -96v-1030h-142v1251zM131 1430l-61 53q71 151 206 151q44 0 85 -16t68 -36t63.5 -36t72.5 -16q97 0 142 104l63 -53q-73 -151 -205 -151 q-41 0 -81.5 16t-68 36t-65.5 36t-76 16q-99 0 -143 -104z" />
<glyph unicode="&#xf2;" horiz-adv-x="806" d="M715 965v-678q0 -137 -89.5 -220t-222.5 -83q-134 0 -222.5 82.5t-88.5 220.5v678q0 138 88.5 220.5t222.5 82.5q133 0 222.5 -83t89.5 -220zM229 956v-663q0 -80 48.5 -125t125.5 -45q76 0 124 45t48 125v663q0 80 -48 125t-124 45q-77 0 -125.5 -45t-48.5 -125z M205 1673h157l181 -323h-127z" />
<glyph unicode="&#xf3;" horiz-adv-x="806" d="M715 965v-678q0 -137 -89.5 -220t-222.5 -83q-134 0 -222.5 82.5t-88.5 220.5v678q0 138 88.5 220.5t222.5 82.5q133 0 222.5 -83t89.5 -220zM229 956v-663q0 -80 48.5 -125t125.5 -45q76 0 124 45t48 125v663q0 80 -48 125t-124 45q-77 0 -125.5 -45t-48.5 -125z M440 1673h158l-213 -323h-125z" />
<glyph unicode="&#xf4;" horiz-adv-x="806" d="M715 965v-678q0 -137 -89.5 -220t-222.5 -83q-134 0 -222.5 82.5t-88.5 220.5v678q0 138 88.5 220.5t222.5 82.5q133 0 222.5 -83t89.5 -220zM229 956v-663q0 -80 48.5 -125t125.5 -45q76 0 124 45t48 125v663q0 80 -48 125t-124 45q-77 0 -125.5 -45t-48.5 -125z M324 1673h153l213 -323h-121l-168 252l-168 -252h-118z" />
<glyph unicode="&#xf5;" horiz-adv-x="806" d="M715 965v-678q0 -137 -89.5 -220t-222.5 -83q-134 0 -222.5 82.5t-88.5 220.5v678q0 138 88.5 220.5t222.5 82.5q133 0 222.5 -83t89.5 -220zM229 956v-663q0 -80 48.5 -125t125.5 -45q76 0 124 45t48 125v663q0 80 -48 125t-124 45q-77 0 -125.5 -45t-48.5 -125z M115 1430l-62 53q71 151 207 151q44 0 85 -16t68 -36t63.5 -36t72.5 -16q96 0 141 104l64 -53q-73 -151 -205 -151q-41 0 -81.5 16t-68 36t-65.5 36t-76 16q-99 0 -143 -104z" />
<glyph unicode="&#xf6;" horiz-adv-x="806" d="M715 965v-678q0 -137 -89.5 -220t-222.5 -83q-134 0 -222.5 82.5t-88.5 220.5v678q0 138 88.5 220.5t222.5 82.5q133 0 222.5 -83t89.5 -220zM229 956v-663q0 -80 48.5 -125t125.5 -45q76 0 124 45t48 125v663q0 80 -48 125t-124 45q-77 0 -125.5 -45t-48.5 -125z M563 1636q44 0 67 -26t23 -68t-23 -69t-67 -27q-42 0 -65 27t-23 69t22.5 68t65.5 26zM238 1636q44 0 67 -26t23 -68t-23 -69t-67 -27q-41 0 -63.5 27t-22.5 69q0 41 22.5 67.5t63.5 26.5z" />
<glyph unicode="&#xf7;" horiz-adv-x="1103" d="M102 838h899v-119h-899v119zM549 473q44 0 67 -26.5t23 -67.5q0 -42 -23 -69t-67 -27q-41 0 -63.5 27t-22.5 69q0 40 22.5 67t63.5 27zM549 1274q44 0 67 -26.5t23 -67.5q0 -42 -23 -69.5t-67 -27.5q-41 0 -63.5 27.5t-22.5 69.5q0 40 22.5 67t63.5 27z" />
<glyph unicode="&#xf8;" horiz-adv-x="806" d="M604 1374h84l-61 -190q88 -88 88 -219v-678q0 -137 -89.5 -220t-222.5 -83q-88 0 -157 34l-45 -141h-84l61 191q-86 83 -86 219v678q0 138 88.5 220.5t222.5 82.5q87 0 154 -37zM575 956q0 28 -6 52l-278 -852q44 -33 112 -33q76 0 124 45t48 125v663zM229 956v-663 q0 -25 7 -53l276 854q-46 32 -109 32q-77 0 -125.5 -45t-48.5 -125z" />
<glyph unicode="&#xf9;" horiz-adv-x="833" d="M590 1251h141v-1251h-100l-25 88q-95 -104 -237 -104q-117 0 -194 78t-77 225v964h142v-938q0 -93 44 -141.5t122 -48.5q101 0 184 98v1030zM219 1673h158l180 -323h-127z" />
<glyph unicode="&#xfa;" horiz-adv-x="833" d="M590 1251h141v-1251h-100l-25 88q-95 -104 -237 -104q-117 0 -194 78t-77 225v964h142v-938q0 -93 44 -141.5t122 -48.5q101 0 184 98v1030zM459 1673h157l-213 -323h-124z" />
<glyph unicode="&#xfb;" horiz-adv-x="833" d="M590 1251h141v-1251h-100l-25 88q-95 -104 -237 -104q-117 0 -194 78t-77 225v964h142v-938q0 -93 44 -141.5t122 -48.5q101 0 184 98v1030zM338 1673h154l213 -323h-121l-168 252l-168 -252h-119z" />
<glyph unicode="&#xfc;" horiz-adv-x="833" d="M590 1251h141v-1251h-100l-25 88q-95 -104 -237 -104q-117 0 -194 78t-77 225v964h142v-938q0 -93 44 -141.5t122 -48.5q101 0 184 98v1030zM573 1636q44 0 67.5 -26t23.5 -68t-23.5 -69t-67.5 -27q-42 0 -65 27t-23 69t22.5 68t65.5 26zM248 1636q44 0 67 -26t23 -68 t-23 -69t-67 -27q-41 0 -63.5 27t-22.5 69q0 41 22.5 67.5t63.5 26.5z" />
<glyph unicode="&#xfd;" horiz-adv-x="833" d="M590 1251h141v-1601h-141v440q-92 -86 -221 -86q-117 0 -194 78t-77 225v944h142v-917q0 -94 44 -142.5t122 -48.5q101 0 184 99v1009zM459 1673h157l-213 -323h-124z" />
<glyph unicode="&#xfe;" d="M102 1634l142 35v-502q101 101 233 101q112 0 189 -78.5t77 -224.5v-678q0 -146 -77 -224.5t-189 -78.5q-135 0 -233 98v-432h-142v1984zM438 1126q-107 0 -194 -108v-787q87 -108 194 -108q77 0 120.5 49.5t43.5 140.5v623q0 91 -43.5 140.5t-120.5 49.5z" />
<glyph unicode="&#xff;" horiz-adv-x="833" d="M590 1251h141v-1601h-141v440q-92 -86 -221 -86q-117 0 -194 78t-77 225v944h142v-917q0 -94 44 -142.5t122 -48.5q101 0 184 99v1009zM580 1636q44 0 67 -26t23 -68t-23 -69t-67 -27q-42 0 -65 27t-23 69t22.5 68t65.5 26zM254 1636q44 0 67 -26t23 -68t-23 -69t-67 -27 q-41 0 -63.5 27t-22.5 69q0 41 22.5 67.5t63.5 26.5z" />
<glyph unicode="&#x152;" horiz-adv-x="1204" d="M752 1462v-565h284v-141h-284v-615h385v-141h-531v20q-84 -49 -184 -49q-142 0 -236 87.5t-94 234.5v1018q0 147 94 234t236 87q100 0 184 -49v21h531v-142h-385zM236 1309v-1016q0 -84 52 -132t134 -48q80 0 132 48t52 132v1016q0 85 -51.5 133.5t-132.5 48.5 q-82 0 -134 -48.5t-52 -133.5z" />
<glyph unicode="&#x153;" horiz-adv-x="1269" d="M983 569q-91 -76 -268 -182v-96q0 -82 47 -126t121 -44q76 0 123 45t47 125v90l131 35v-129q0 -138 -87 -220.5t-218 -82.5q-153 0 -236 102q-88 -102 -240 -102q-134 0 -222.5 82.5t-88.5 220.5v678q0 138 88.5 220.5t222.5 82.5q151 0 240 -103q86 103 238 103 q58 0 110 -17t97.5 -53t72.5 -102t27 -154q0 -113 -49 -199.5t-156 -173.5zM715 958v-434q126 76 194 138q75 64 108.5 127t33.5 145q0 105 -49 154t-123 49t-119 -48t-45 -131zM229 956v-663q0 -80 48.5 -125t125.5 -45q76 0 124 45t48 125v663q0 80 -48 125t-124 45 q-77 0 -125.5 -45t-48.5 -125z" />
<glyph unicode="&#x178;" horiz-adv-x="860" d="M35 1604h147l248 -689l252 689h143l-321 -854v-750h-148v750zM590 1989q44 0 67 -26.5t23 -68.5t-23 -69t-67 -27q-42 0 -65 27t-23 69t22.5 68.5t65.5 26.5zM264 1989q44 0 67 -26.5t23 -68.5t-23 -69t-67 -27q-41 0 -63.5 27t-22.5 69t22.5 68.5t63.5 26.5z" />
<glyph unicode="&#x2c6;" horiz-adv-x="768" d="M305 1673h154l213 -323h-121l-168 252l-168 -252h-119z" />
<glyph unicode="&#x2dc;" horiz-adv-x="831" d="M127 1430l-61 53q71 151 206 151q44 0 85 -16t68 -36t63.5 -36t72.5 -16q96 0 141 104l64 -53q-73 -151 -205 -151q-41 0 -81.5 16t-68 36t-65.5 36t-76 16q-99 0 -143 -104z" />
<glyph unicode="&#x2000;" horiz-adv-x="1012" />
<glyph unicode="&#x2001;" horiz-adv-x="2025" />
<glyph unicode="&#x2002;" horiz-adv-x="1012" />
<glyph unicode="&#x2003;" horiz-adv-x="2025" />
<glyph unicode="&#x2004;" horiz-adv-x="675" />
<glyph unicode="&#x2005;" horiz-adv-x="506" />
<glyph unicode="&#x2006;" horiz-adv-x="337" />
<glyph unicode="&#x2007;" horiz-adv-x="337" />
<glyph unicode="&#x2008;" horiz-adv-x="253" />
<glyph unicode="&#x2009;" horiz-adv-x="405" />
<glyph unicode="&#x200a;" horiz-adv-x="112" />
<glyph unicode="&#x2010;" horiz-adv-x="643" d="M63 836h515v-119h-515v119z" />
<glyph unicode="&#x2011;" horiz-adv-x="643" d="M63 836h515v-119h-515v119z" />
<glyph unicode="&#x2012;" horiz-adv-x="643" d="M63 836h515v-119h-515v119z" />
<glyph unicode="&#x2013;" horiz-adv-x="915" d="M63 836h787v-119h-787v119z" />
<glyph unicode="&#x2014;" horiz-adv-x="1361" d="M63 836h1233v-119h-1233v119z" />
<glyph unicode="&#x2018;" horiz-adv-x="307" d="M197 1632h55l-19 -366q-2 -44 -24 -69.5t-62 -25.5q-44 0 -68 27t-24 66q0 22 19 71z" />
<glyph unicode="&#x2019;" horiz-adv-x="307" d="M223 1479l-123 -295h-53l19 366q2 43 23.5 69t62.5 26q44 0 67 -27t23 -68q0 -29 -19 -71z" />
<glyph unicode="&#x201a;" horiz-adv-x="307" d="M223 18l-123 -294h-53l19 366q2 43 23.5 68.5t62.5 25.5q44 0 67 -26.5t23 -67.5q0 -30 -19 -72z" />
<glyph unicode="&#x201c;" horiz-adv-x="561" d="M451 1632h55l-19 -366q-2 -44 -24 -69.5t-62 -25.5q-44 0 -68 27t-24 66q0 22 19 71zM197 1632h55l-19 -366q-2 -44 -24 -69.5t-62 -25.5q-44 0 -68 27t-24 66q0 22 19 71z" />
<glyph unicode="&#x201d;" horiz-adv-x="561" d="M477 1479l-123 -295h-53l18 366q2 43 24 69t63 26q44 0 67 -27t23 -68q0 -29 -19 -71zM223 1479l-123 -295h-53l19 366q2 43 23.5 69t62.5 26q44 0 67 -27t23 -68q0 -29 -19 -71z" />
<glyph unicode="&#x201e;" horiz-adv-x="561" d="M477 18l-123 -294h-53l18 366q2 43 24 68.5t63 25.5q44 0 67 -26.5t23 -67.5q0 -30 -19 -72zM223 18l-123 -294h-53l19 366q2 43 23.5 68.5t62.5 25.5q44 0 67 -26.5t23 -67.5q0 -30 -19 -72z" />
<glyph unicode="&#x2022;" horiz-adv-x="573" d="M291 995q85 0 145 -60.5t60 -146.5q0 -85 -60 -144.5t-145 -59.5q-87 0 -146 59.5t-59 144.5q0 87 59 147t146 60z" />
<glyph unicode="&#x2026;" horiz-adv-x="1179" d="M590 184q44 0 67 -26.5t23 -67.5q0 -42 -23 -69t-67 -27q-41 0 -63.5 27t-22.5 69q0 40 22.5 67t63.5 27zM975 184q44 0 67 -26.5t23 -67.5q0 -42 -23 -69t-67 -27q-41 0 -63.5 27t-22.5 69q0 40 22.5 67t63.5 27zM205 184q44 0 67 -26.5t23 -67.5q0 -42 -23 -69t-67 -27 q-41 0 -63.5 27t-22.5 69q0 40 22.5 67t63.5 27z" />
<glyph unicode="&#x202f;" horiz-adv-x="405" />
<glyph unicode="&#x2039;" horiz-adv-x="432" d="M258 1251h127l-215 -626l215 -625h-127l-213 625z" />
<glyph unicode="&#x203a;" horiz-adv-x="432" d="M45 1251h127l213 -626l-213 -625h-127l215 625z" />
<glyph unicode="&#x205f;" horiz-adv-x="506" />
<glyph unicode="&#x20ac;" horiz-adv-x="878" d="M78 705h88v225h-115l27 88h88v297q0 146 90.5 231.5t235.5 85.5q143 0 227 -85t84 -232v-53h-137v49q0 86 -46 133t-128 47q-83 0 -133 -47.5t-50 -132.5v-293h477l-32 -88h-445v-225h379l-33 -89h-346v-325q0 -84 49.5 -131t128.5 -47t129 47t50 131v45l137 35v-82 q0 -144 -92.5 -231t-229.5 -87q-135 0 -225 87t-90 231v327h-115z" />
<glyph unicode="&#x2122;" horiz-adv-x="1120" d="M469 1604h96l176 -820l183 820h90v-963h-80v713l-150 -713h-84l-153 725v-725h-78v963zM55 1604h330v-86h-121v-877h-88v877h-121v86z" />
<glyph unicode="&#x25fc;" horiz-adv-x="1249" d="M0 1249h1249v-1249h-1249v1249z" />
</font>
</defs>
</svg>
