<?xml version="1.0" standalone="no"?>
<!DOCTYPE svg PUBLIC "-//W3C//DTD SVG 1.1//EN" "http://www.w3.org/Graphics/SVG/1.1/DTD/svg11.dtd" >
<svg xmlns="http://www.w3.org/2000/svg">
<metadata></metadata>
<defs>
<font id="questa_sanslight_italic" horiz-adv-x="1105" >
<font-face units-per-em="2048" ascent="1536" descent="-512" />
<missing-glyph horiz-adv-x="489" />
<glyph unicode="&#xfb01;" horiz-adv-x="1036" d="M94 825l12 113h158l17 127q8 64 19.5 114.5t30 102t46 88.5t65 67t90.5 45t119 15q97 0 173 -35t102 -114l-125 -72q-11 61 -52 84.5t-110 23.5q-50 0 -83 -12t-62.5 -46t-49 -98t-32.5 -165l-17 -125h537l-131 -938h-133l116 825h-403l-113 -907q-29 -222 -113.5 -318 t-242.5 -96q-114 0 -188 68l88 106q19 -28 45 -42.5t43 -16.5t47 -2q149 0 190 324l113 884h-156z" />
<glyph unicode="&#xfb02;" horiz-adv-x="1048" d="M676 0l190 1346q-56 34 -151 34q-60 0 -107.5 -13.5t-78.5 -39.5t-52.5 -54.5t-34.5 -68.5t-19 -70.5t-11 -70.5l-17 -125h285l-14 -113h-285l-113 -907q-29 -223 -113 -318.5t-243 -95.5q-115 0 -188 68l88 106q19 -28 45 -42.5t43 -16.5t47 -2q69 0 119 79.5t71 244.5 l113 884h-156l12 113h158l17 127q56 432 440 432q93 0 166 -27h129l-207 -1470h-133z" />
<glyph unicode="&#xfb03;" horiz-adv-x="1607" d="M297 -395l90 102q19 -28 44.5 -42.5t42.5 -16.5t46 -2q150 0 193 323l110 856h-442l-111 -868q-31 -234 -118.5 -343.5t-243.5 -109.5q-111 0 -184 68l88 106q20 -29 46 -43.5t41.5 -16t47.5 -1.5q148 0 190 324l113 884h-156l12 113h158l12 96q10 74 24 132t41 116 t64 96t95.5 62t132.5 24q94 0 160 -36.5t84 -108.5l-125 -72q-16 105 -129 105q-94 0 -143.5 -73t-71.5 -247l-13 -94h443l16 127q10 77 26.5 139t45.5 118t69 93.5t99 59.5t133 22q96 0 171 -35t99 -114l-125 -72q-18 108 -149 108q-52 0 -92 -18.5t-64 -46t-41.5 -72.5 t-25.5 -86t-15 -98l-16 -125h536l-133 -938h-133l119 825h-404l-112 -878q-30 -225 -115 -319.5t-238 -94.5q-117 0 -192 72z" />
<glyph unicode="&#xfb04;" horiz-adv-x="1619" d="M297 -395l90 102q15 -22 31 -35.5t36.5 -18.5t31 -6t34.5 -1q151 0 193 323l110 856h-442l-111 -868q-31 -234 -118.5 -343.5t-243.5 -109.5q-111 0 -184 68l88 106q20 -29 46 -43.5t41.5 -16t47.5 -1.5q148 0 190 324l113 884h-156l12 113h158l12 96q10 74 24 132 t41 116t64 96t95.5 62t132.5 24q94 0 160 -36.5t84 -108.5l-125 -72q-16 105 -129 105q-94 0 -143.5 -73t-71.5 -247l-13 -94h443l16 127q56 432 436 432q92 0 168 -27h129l-207 -1470h-133l191 1348q-59 32 -150 32q-80 0 -138 -25t-91.5 -72t-50.5 -98.5t-27 -121.5 l-16 -125h288l-14 -113h-289l-108 -878q-30 -225 -115 -319.5t-238 -94.5q-117 0 -192 72z" />
<glyph horiz-adv-x="0" />
<glyph horiz-adv-x="682" />
<glyph unicode=" "  horiz-adv-x="489" />
<glyph unicode="&#x09;" horiz-adv-x="489" />
<glyph unicode="&#xa0;" horiz-adv-x="489" />
<glyph unicode="!" horiz-adv-x="493" d="M279 1354h157q-36 -209 -151 -914h-107q45 377 101 914zM59 104q0 48 36 84.5t85 36.5q50 0 86.5 -36.5t36.5 -84.5q0 -50 -36 -86t-87 -36q-49 0 -85 36t-36 86z" />
<glyph unicode="&#x22;" horiz-adv-x="720" d="M211 922q43 453 59 559h133l-100 -559h-92zM514 922q41 453 57 559h134l-99 -559h-92z" />
<glyph unicode="#" horiz-adv-x="1306" d="M145 711l21 106h268l98 453h111l-96 -453h315l96 453h113l-96 -453h254l-25 -106h-252l-59 -277h270l-22 -106h-271l-96 -451h-112l96 451h-316l-94 -451h-115l97 451h-252l24 106h250l60 277h-267zM524 711l-59 -277h315l60 277h-316z" />
<glyph unicode="$" d="M403 -184l23 157q-141 12 -219 85t-78 194q0 39 2 57l127 19q-4 -46 -4 -66q0 -161 186 -178l62 434q-50 25 -80.5 42t-70.5 47t-62.5 60.5t-39 75t-16.5 97.5q0 142 100 223t259 86l22 156h97l-23 -160q116 -15 193 -74.5t77 -165.5q0 -30 -8 -63l-123 -25q4 18 4 51 q0 68 -41.5 111t-117.5 55l-62 -424q40 -20 60.5 -30t56 -31t54.5 -36t44.5 -40t38 -49t22 -56t9.5 -67q0 -134 -103.5 -225t-271.5 -103l-22 -157h-95zM754 272q0 67 -41.5 112.5t-120.5 88.5l-55 -389q104 10 160.5 61.5t56.5 126.5zM369 858q0 -67 40 -114t113 -89 l53 381q-94 -9 -150 -57.5t-56 -120.5z" />
<glyph unicode="%" horiz-adv-x="1695" d="M150 1059q0 131 90.5 221t220.5 90t220.5 -90t90.5 -221q0 -127 -91 -217t-220 -90t-220 90t-91 217zM379 0l848 1354h127l-850 -1354h-125zM461 850q82 0 139 63t57 146q0 86 -57 147.5t-139 61.5q-80 0 -138.5 -62t-58.5 -147q0 -82 59 -145.5t138 -63.5zM954 293 q0 129 90.5 218t219.5 89q131 0 221 -89t90 -218q0 -132 -90 -221.5t-221 -89.5q-130 0 -220 90t-90 221zM1264 84q83 0 140.5 62t57.5 147q0 83 -58 146t-140 63q-81 0 -139 -63t-58 -146q0 -85 58 -147t139 -62z" />
<glyph unicode="&#x26;" horiz-adv-x="1415" d="M92 326q0 148 92.5 266t276.5 190q-58 162 -58 267q0 62 21 119.5t62.5 106.5t113 78t162.5 29q136 0 212.5 -65t76.5 -189q0 -44 -4 -69l-134 -25q7 40 7 66q0 86 -49 124t-123 38q-104 0 -162 -65.5t-58 -154.5q0 -90 63.5 -252t137 -299t135.5 -231q74 67 124 147 t50 160q0 60 -30 94.5t-84 34.5l-31 -2l16 103q23 4 54 4q102 0 148 -58t46 -153q0 -222 -229 -414q42 -50 73 -71t70 -21q51 0 82 30t31 79q0 29 -13 61l127 20q13 -67 13 -90q0 -94 -69.5 -153.5t-192.5 -59.5q-76 0 -126 28t-102 97q-18 -15 -42.5 -31.5t-70 -40 t-108.5 -38.5t-131 -15q-164 0 -270.5 95t-106.5 260zM760 186q-162 260 -260 496q-126 -49 -194 -137t-68 -201q0 -121 72.5 -188.5t181.5 -67.5q144 0 268 98z" />
<glyph unicode="'" horiz-adv-x="417" d="M213 922q39 453 55 559h135l-102 -559h-88z" />
<glyph unicode="(" horiz-adv-x="684" d="M98 367q0 337 148.5 642t417.5 494l65 -98q-195 -128 -340 -377q-56 -98 -84.5 -198.5t-54.5 -280.5q-23 -182 -23 -273q0 -182 83 -383t177 -313l-92 -67q-149 176 -223 397t-74 457z" />
<glyph unicode=")" horiz-adv-x="681" d="M-63 -389q194 125 339 377q56 99 85.5 201.5t54.5 277.5q20 185 20 272q0 184 -83 385.5t-177 311.5l94 67q149 -176 223 -397t74 -457q0 -337 -149 -642t-418 -494z" />
<glyph unicode="*" horiz-adv-x="1206" d="M625 1081q-31 232 -31 398h141l-30 -398h-80zM569 983q-229 45 -387 94l43 133l369 -149zM647 901q-113 -207 -209 -342l-114 84l256 305zM748 950q162 -174 258 -305l-115 -84l-209 336zM733 1059q217 102 371 151l43 -137l-385 -92z" />
<glyph unicode="+" d="M86 442v107h403v436h115v-436h400v-107h-400v-442h-115v442h-403z" />
<glyph unicode="," horiz-adv-x="471" d="M29 -319l-54 55q81 71 119.5 123.5t38.5 95.5q0 82 -74 184l119 99q36 -25 67 -73t31 -116q0 -109 -61.5 -195t-185.5 -173z" />
<glyph unicode="-" horiz-adv-x="794" d="M125 397l20 142h494l-18 -142h-496z" />
<glyph unicode="." horiz-adv-x="507" d="M72 104q0 47 37 84t84 37q50 0 86 -36.5t36 -84.5q0 -50 -35.5 -86t-86.5 -36q-48 0 -84.5 36.5t-36.5 85.5z" />
<glyph unicode="/" horiz-adv-x="888" d="M-92 -467l936 1937h119l-936 -1937h-119z" />
<glyph unicode="0" horiz-adv-x="1118" d="M479 -29q-167 0 -260.5 110t-93.5 331q0 179 60 319.5t171 219.5t254 79q173 0 270 -116.5t97 -321.5q0 -117 -33 -227t-94 -198.5t-157.5 -142t-213.5 -53.5zM489 98q104 0 186.5 67t125.5 177t43 240q0 153 -62 237t-180 84q-88 0 -157 -47t-109 -123t-60 -160.5 t-20 -169.5q0 -141 57.5 -223t175.5 -82z" />
<glyph unicode="1" horiz-adv-x="911" d="M45 0l18 127h291l105 739l-269 -28l9 129l411 47l-125 -887h289l-18 -127h-711z" />
<glyph unicode="2" horiz-adv-x="1044" d="M537 913q-48 0 -85.5 -13.5t-62 -35t-42 -55.5t-27 -67.5t-17.5 -77.5l-119 30q19 169 120 252.5t251 83.5q143 0 234.5 -72t91.5 -208q0 -81 -38.5 -160.5t-85.5 -135t-135.5 -123.5t-138.5 -100.5t-145 -89.5q-16 -9 -23 -14h564l-19 -127h-813l10 82q35 23 104.5 66 t115 71t110.5 73t108.5 79.5t92 82t77 89.5t47.5 92t19 100q0 85 -50.5 131.5t-143.5 46.5z" />
<glyph unicode="3" horiz-adv-x="1013" d="M37 -59l127 28q-22 -83 24.5 -139.5t171.5 -56.5q80 0 140 25t93 67t48.5 89.5t15.5 100.5q0 119 -78 182.5t-239 63.5h-39l14 125h39q69 0 131.5 19t114.5 55t82.5 96.5t30.5 136.5q0 180 -193 180q-102 0 -163.5 -48t-61.5 -152l-127 26q0 135 103 213t261 78 q152 0 242 -75t90 -218q0 -141 -87.5 -239t-233.5 -123q114 -24 189 -100t75 -205q0 -81 -33 -156t-91.5 -132.5t-146.5 -91.5t-192 -34q-64 0 -122 16.5t-106 48.5t-70.5 89.5t-8.5 130.5z" />
<glyph unicode="4" horiz-adv-x="1093" d="M12 39l13 102l725 860h100l-117 -835h219l-20 -127h-217l-49 -356h-125l49 356h-578zM193 166h413l84 590z" />
<glyph unicode="5" horiz-adv-x="929" d="M25 -57l122 28q-29 -78 23.5 -138t165.5 -60q121 0 194.5 88t73.5 221q0 78 -29.5 136t-74 90.5t-110.5 52t-125 25t-132 5.5l109 610h581l-20 -127h-453l-67 -387q96 -5 177.5 -30t147.5 -71t104 -120t38 -170q0 -83 -28.5 -160.5t-80.5 -140.5t-134 -101t-181 -38 q-96 0 -170.5 33t-112 99.5t-18.5 154.5z" />
<glyph unicode="6" horiz-adv-x="1062" d="M125 389q0 69 8.5 150.5t29 178.5t50.5 189t77.5 179t106 152t139.5 104.5t175 39.5q73 0 136.5 -21.5t108.5 -73.5t45 -128q0 -25 -4 -49l-125 -29q2 8 2 31q0 72 -45 114t-122 42q-66 0 -124 -33t-101 -87t-79.5 -129t-60.5 -152.5t-41 -164.5q111 144 309 144 q301 0 301 -348q0 -233 -125 -380t-329 -147q-332 0 -332 418zM582 729q-124 0 -207 -68t-101 -145q-8 -73 -8 -149q0 -148 44.5 -213.5t150.5 -65.5q82 0 143 35.5t95 96t50.5 131.5t16.5 151q0 119 -41 173t-143 54z" />
<glyph unicode="7" horiz-adv-x="921" d="M104 670l50 331h743l-14 -104q-241 -419 -383.5 -707t-202.5 -507h-139q52 212 183 481.5t382 709.5h-471l-31 -204h-117z" />
<glyph unicode="8" horiz-adv-x="1028" d="M88 272q0 63 21.5 121t53.5 102t82.5 86.5t96.5 72.5t107 63q-59 47 -96 86t-66 100.5t-29 130.5q0 146 104 247t273 101q148 0 228.5 -79.5t80.5 -204.5q0 -62 -20.5 -115.5t-62 -99.5t-84 -80.5t-107.5 -77.5q90 -74 141 -152.5t51 -187.5q0 -108 -49 -201t-147 -153 t-226 -60q-67 0 -128 17t-112 51.5t-81.5 94.5t-30.5 138zM723 356q0 90 -47.5 154.5t-138.5 136.5q-130 -72 -174 -105q-150 -110 -150 -255q0 -104 63.5 -151.5t157.5 -47.5q127 0 208 75.5t81 192.5zM401 1053q0 -41 13.5 -76.5t42.5 -68.5t55 -56t70 -57q52 33 88.5 61 t73.5 67t56 84.5t19 96.5q0 82 -49.5 122t-134.5 40q-114 0 -174 -63.5t-60 -149.5z" />
<glyph unicode="9" horiz-adv-x="1073" d="M143 514q0 230 124 373t325 143q338 0 338 -422q0 -69 -8.5 -148.5t-29 -172.5t-50.5 -181t-77.5 -170.5t-106 -144t-139.5 -98.5t-175 -37q-63 0 -116 16.5t-92.5 49t-58 85t-9.5 119.5l118 29q-17 -78 32.5 -130t141.5 -52q65 0 122.5 30t99.5 79.5t77 118.5t58 141 t39 153q-115 -137 -307 -137q-306 0 -306 356zM475 268q64 0 120.5 24t93 61t60 74t33.5 71q6 62 6 114q0 156 -47 228.5t-159 72.5q-77 0 -135 -33t-91.5 -90t-50 -126.5t-16.5 -149.5q0 -128 41.5 -187t144.5 -59z" />
<glyph unicode=":" horiz-adv-x="565" d="M113 104q0 47 36.5 84t83.5 37q50 0 86.5 -36.5t36.5 -84.5q0 -50 -36 -86t-87 -36q-48 0 -84 36.5t-36 85.5zM180 838q0 47 37 83.5t84 36.5q50 0 86.5 -36t36.5 -84q0 -50 -36 -86.5t-87 -36.5q-48 0 -84.5 37t-36.5 86z" />
<glyph unicode=";" horiz-adv-x="555" d="M98 -319l-53 55q81 71 119.5 123.5t38.5 95.5q0 82 -74 184l119 99q36 -25 67 -73t31 -116q0 -109 -61.5 -195t-186.5 -173zM168 838q0 47 37 83.5t84 36.5q50 0 86.5 -36t36.5 -84q0 -50 -36 -86.5t-87 -36.5q-48 0 -84.5 37t-36.5 86z" />
<glyph unicode="&#x3c;" d="M57 453v94l877 461l45 -111l-776 -397l776 -418l-45 -109z" />
<glyph unicode="=" d="M82 618v107h917v-107h-917zM82 266v107h917v-107h-917z" />
<glyph unicode="&#x3e;" d="M152 -27l-46 109l777 418l-777 397l46 111l876 -461v-94z" />
<glyph unicode="?" horiz-adv-x="964" d="M504 416q-71 0 -117.5 41t-46.5 121q0 54 24.5 97.5t63 72.5t85.5 54.5t94 51.5t85.5 56t63 74.5t24.5 100.5q0 81 -53.5 134t-179.5 53q-79 0 -132.5 -23t-79.5 -66.5t-34 -96t-2 -121.5l-131 30q-16 98 7.5 173t79.5 121t133.5 69.5t174.5 23.5q183 0 280 -77.5 t97 -210.5q0 -67 -25.5 -122.5t-66.5 -93t-90 -69.5t-98.5 -57t-90.5 -48.5t-66.5 -51.5t-25.5 -60q0 -33 26 -46t68 -1l25 -113q-40 -16 -92 -16zM301 104q0 48 36.5 84.5t86.5 36.5q49 0 86 -36.5t37 -84.5q0 -49 -37.5 -85.5t-85.5 -36.5q-50 0 -86.5 36.5t-36.5 85.5z " />
<glyph unicode="@" horiz-adv-x="1726" d="M113 432q0 157 56 302t155 256.5t247 178t320 66.5q203 0 360 -90t242.5 -251.5t85.5 -369.5q0 -69 -9 -135.5t-35.5 -139.5t-67.5 -126.5t-111 -89t-160 -35.5q-207 0 -178 184h-4q-153 -184 -316 -184q-109 0 -172 79t-63 224q0 66 13.5 136t39 138.5t64.5 129 t87 106.5t110.5 73t131.5 27q67 0 124.5 -25t80.5 -73l41 80h86l-96 -645q-10 -76 7.5 -109t70.5 -33q102 0 167.5 103t65.5 293q0 284 -150 453t-413 169q-148 0 -273 -56.5t-208 -151.5t-129.5 -220t-46.5 -262q0 -136 45.5 -256t128.5 -210t208.5 -142.5t276.5 -52.5 q79 0 162 14v-109q-91 -16 -185 -16q-130 0 -242 32t-193.5 88.5t-145 130.5t-101.5 161t-57.5 177t-19.5 181zM598 285q0 -80 32.5 -132.5t100.5 -52.5q80 0 159.5 75.5t129 191t49.5 227.5q0 60 -14.5 107.5t-51 79.5t-92.5 32q-61 0 -114.5 -39.5t-89 -99.5t-61 -133 t-37 -139t-11.5 -117z" />
<glyph unicode="A" horiz-adv-x="1226" d="M670 1354h106l318 -1354h-152l-98 426h-494l-219 -426h-156zM586 885l-172 -334h401l-76 338q-23 97 -43 233q-49 -116 -110 -237z" />
<glyph unicode="B" horiz-adv-x="1169" d="M319 1354h334q205 0 300.5 -80.5t95.5 -224.5q0 -130 -67 -219.5t-151 -120.5l-2 -9q91 -31 143 -104t52 -178q0 -82 -32.5 -156.5t-94 -133t-158.5 -93.5t-217 -35h-393zM590 629h-232l-69 -502h198q99 0 173.5 23t118 63.5t64.5 92t21 112.5q0 116 -70.5 163.5 t-203.5 47.5zM629 1227h-185l-65 -471h223q133 0 209 72.5t76 197.5q0 104 -60 152.5t-198 48.5z" />
<glyph unicode="C" horiz-adv-x="1288" d="M135 543q0 119 23 234t76 225.5t130 194t194 134.5t259 51q190 0 306 -84t116 -221q0 -36 -10 -88l-146 -31q26 136 -42 219t-232 83q-85 0 -157.5 -24.5t-124 -65.5t-92.5 -98.5t-67 -121t-42.5 -136t-23.5 -139.5t-7 -136q0 -229 82 -337t252 -108q65 0 124.5 15.5 t114.5 48t95.5 90.5t58.5 135l133 -35q-28 -79 -70.5 -143.5t-105 -119t-152 -84.5t-198.5 -30q-126 0 -221.5 41.5t-154.5 118t-88.5 180t-29.5 232.5z" />
<glyph unicode="D" horiz-adv-x="1359" d="M551 0h-422l190 1354h381q277 0 417 -146t140 -405q0 -117 -27.5 -231t-86 -218t-140 -182.5t-198.5 -125t-254 -46.5zM684 1227h-240l-155 -1100h252q98 0 179.5 27.5t138 72.5t100 107t69.5 125.5t42 133t22 124.5t6 106q0 88 -19.5 156.5t-64.5 126.5t-128.5 89.5 t-201.5 31.5z" />
<glyph unicode="E" horiz-adv-x="1126" d="M319 1354h779l-19 -133h-635l-67 -471h530l-16 -134h-533l-67 -483h647l-18 -133h-791z" />
<glyph unicode="F" horiz-adv-x="1075" d="M129 0l190 1354h766l-18 -133h-625l-65 -471h538l-16 -134h-541l-86 -616h-143z" />
<glyph unicode="G" horiz-adv-x="1333" d="M137 549q0 177 47 329t133 264t215.5 176t286.5 64q202 0 314 -98t112 -246l-4 -55l-151 -31q11 147 -57 227.5t-224 80.5q-88 0 -161.5 -27t-125.5 -71.5t-92.5 -106.5t-65 -127.5t-40 -139.5t-21.5 -137.5t-6 -126.5q0 -209 79.5 -319.5t266.5 -110.5q158 0 265.5 77 t127.5 224l13 88h-349l19 133h491l-32 -229q-26 -183 -165.5 -299.5t-373.5 -116.5q-502 0 -502 578z" />
<glyph unicode="H" horiz-adv-x="1462" d="M1221 1354h143l-190 -1354h-144l86 616h-758l-86 -616h-143l190 1354h144l-86 -604h758z" />
<glyph unicode="I" horiz-adv-x="561" d="M319 1354h144l-191 -1354h-143z" />
<glyph unicode="J" horiz-adv-x="573" d="M336 1354h143l-153 -1080q-14 -99 -36.5 -179t-61 -154t-90.5 -123.5t-127.5 -79t-170.5 -29.5q-15 0 -28.5 1.5t-19.5 3.5l-7 1l16 123q19 -4 52 -4q141 0 221.5 114.5t113.5 352.5z" />
<glyph unicode="K" horiz-adv-x="1181" d="M874 0l-415 635h-99l-88 -635h-143l190 1354h144l-82 -572h96l551 572h186l-632 -639l473 -715h-181z" />
<glyph unicode="L" horiz-adv-x="1024" d="M319 1354h144l-172 -1225h624l-18 -129h-768z" />
<glyph unicode="M" horiz-adv-x="1652" d="M129 0l190 1354h199l201 -889l49 -240q78 180 109 240l460 889h217l-190 -1354h-145l131 930q14 101 47 270q-9 -17 -55.5 -114.5t-73.5 -149.5l-482 -936h-102l-213 934q-30 121 -49 264q-12 -118 -33 -262l-129 -936h-131z" />
<glyph unicode="N" horiz-adv-x="1439" d="M129 0l190 1354h134l485 -865q23 -40 69 -130t52 -101q13 123 31 244l118 852h133l-190 -1354h-102l-527 934q-68 123 -104 211q-5 -45 -29 -236l-127 -909h-133z" />
<glyph unicode="O" horiz-adv-x="1409" d="M135 557q0 233 82 419.5t239.5 296t364.5 109.5q232 0 359 -143.5t127 -423.5q0 -137 -30.5 -263t-90.5 -231.5t-142 -184t-192 -122t-234 -43.5q-238 0 -360.5 153.5t-122.5 432.5zM295 526q0 -432 334 -432q112 0 202.5 47t148 122t96.5 174t55 196.5t16 195.5 q0 431 -338 431q-112 0 -202.5 -47.5t-147 -122.5t-95 -173.5t-54 -195.5t-15.5 -195z" />
<glyph unicode="P" horiz-adv-x="1116" d="M319 1354h316q227 0 332.5 -95.5t105.5 -263.5q0 -218 -158 -355.5t-407 -137.5h-166l-70 -502h-143zM623 1227h-179l-84 -598h156q185 0 291 97t106 261q0 123 -68 181.5t-222 58.5z" />
<glyph unicode="Q" horiz-adv-x="1409" d="M135 555q0 234 82 421t239.5 296.5t364.5 109.5q232 0 359 -143t127 -422q0 -198 -62.5 -370.5t-185 -294.5t-285.5 -162q179 -211 412 -211q51 0 92 10l-23 -129q-55 -8 -102 -8q-80 0 -159 25.5t-139.5 66.5t-100 74.5t-68.5 66.5l-78 86q-234 3 -353.5 156t-119.5 428 zM295 526q0 -432 334 -432q112 0 202.5 47t148 122t96.5 174t55 196.5t16 195.5q0 431 -338 431q-112 0 -202.5 -47.5t-147 -122.5t-95 -173.5t-54 -195.5t-15.5 -195z" />
<glyph unicode="R" horiz-adv-x="1163" d="M319 1354h336q199 0 295.5 -83t96.5 -229q0 -153 -91.5 -261.5t-230.5 -147.5q110 -56 137 -230q3 -22 7 -73.5t9 -81.5t16 -66t32.5 -53.5t54.5 -17.5q11 0 35 4l-45 -121q-28 -4 -45 -4q-26 0 -48 5.5t-39 14t-31 24.5t-23.5 30t-17.5 37.5t-12.5 40.5t-9.5 46t-7 46.5 t-5.5 49.5t-5.5 48q-6 50 -14 85t-25 72t-41.5 59.5t-65 37t-94.5 14.5h-131l-84 -600h-143zM625 1227h-181l-69 -500h178q168 0 251 83.5t83 227.5q0 102 -55 145.5t-207 43.5z" />
<glyph unicode="S" horiz-adv-x="1112" d="M506 94q126 0 214.5 65.5t88.5 182.5q0 52 -20.5 94.5t-55 73t-80 57t-95 50.5t-99 49.5t-95 58t-80 71t-55 94.5t-20.5 124q0 172 117.5 270t308.5 98q87 0 162 -21.5t133 -64t84.5 -112.5t11.5 -160l-145 -31q25 124 -46 195.5t-219 71.5q-111 0 -181 -64.5t-70 -169.5 q0 -60 26 -108.5t68 -80.5t96 -63t110 -56t110 -59.5t96 -73t68 -97t26 -130.5q0 -166 -126 -276.5t-337 -110.5q-96 0 -177 25t-141 73t-86 125.5t-8 174.5l143 30q-27 -143 43 -224t230 -81z" />
<glyph unicode="T" horiz-adv-x="1193" d="M137 1221l17 133h1103l-18 -133h-479l-172 -1221h-144l170 1221h-477z" />
<glyph unicode="U" horiz-adv-x="1398" d="M629 -29q-259 0 -368 150t-71 418l115 815h144l-117 -826q-62 -428 309 -428q87 0 156.5 23.5t114 61.5t77 93.5t49 111t25.5 122.5l119 842h135l-121 -852q-35 -250 -175 -390.5t-392 -140.5z" />
<glyph unicode="V" horiz-adv-x="1230" d="M590 0h-107l-327 1354h149l270 -1131l158 266q93 157 148.5 261t100 211.5t63 200t18.5 192.5h143q0 -207 -81.5 -411t-284.5 -535z" />
<glyph unicode="W" horiz-adv-x="1914" d="M1284 0h-106l-172 711l-416 -711h-107l-327 1354h149l270 -1131l383 676l-108 455h149l271 -1131l157 266q90 156 144.5 261t97.5 211.5t60.5 199.5t17.5 193h143q0 -206 -79 -410t-277 -536z" />
<glyph unicode="X" horiz-adv-x="1136" d="M983 0h-162l-260 563l-414 -563h-172l527 694l-303 660h159l250 -543l400 543h174l-512 -678z" />
<glyph unicode="Y" horiz-adv-x="1175" d="M584 0h-144l72 520l-360 834h165l289 -680l459 680h162l-572 -836z" />
<glyph unicode="Z" horiz-adv-x="1148" d="M211 1221l18 133h916l-15 -109l-897 -1112h750l-18 -133h-945l17 109l893 1112h-719z" />
<glyph unicode="[" horiz-adv-x="589" d="M12 -467l273 1937h350l-14 -94h-232l-246 -1749h232l-15 -94h-348z" />
<glyph unicode="\" horiz-adv-x="917" d="M610 -467l-434 1937h111l434 -1937h-111z" />
<glyph unicode="]" horiz-adv-x="589" d="M-49 -373h229l246 1749h-231l14 94h348l-272 -1937h-348z" />
<glyph unicode="^" horiz-adv-x="1171" d="M90 412l420 950h137l422 -948l-151 -2l-340 762l-334 -762h-154z" />
<glyph unicode="_" horiz-adv-x="1335" d="M74 0h1024v-109h-1024v109z" />
<glyph unicode="`" horiz-adv-x="1024" d="M526 1071l-252 385l125 76l224 -410z" />
<glyph unicode="a" horiz-adv-x="1013" d="M803 938h100l-131 -938h-125l27 209h-6q-32 -51 -61 -88.5t-69.5 -74t-89.5 -56t-106 -19.5q-123 0 -193.5 91t-70.5 264q0 108 33 220t91.5 206.5t148.5 154.5t194 60q150 0 215 -138zM225 328q0 -108 37 -175t107 -67q81 0 165.5 87t136.5 209t52 226q0 99 -49.5 171.5 t-128.5 72.5q-80 0 -155 -78t-120 -200t-45 -246z" />
<glyph unicode="b" horiz-adv-x="1058" d="M182 0h-100l205 1470h133l-74 -530q-6 -49 -12.5 -90t-10 -61t-7 -35.5t-3.5 -16.5h6q149 230 345 230q133 0 211.5 -87.5t78.5 -254.5q0 -82 -18.5 -170t-58 -175t-94.5 -155.5t-136 -111t-174 -42.5q-171 0 -250 138zM643 850q-83 0 -173.5 -88.5t-148 -213.5 t-57.5 -229q0 -58 19 -108.5t65 -86.5t113 -36t125 37t97.5 95t68.5 129.5t42 140t13 126.5q0 107 -47 170.5t-117 63.5z" />
<glyph unicode="c" horiz-adv-x="903" d="M84 356q0 84 15 166t51 163.5t88 143t133.5 100t181.5 38.5q147 0 223.5 -77t38.5 -212l-133 -25q30 86 -4.5 141.5t-128.5 55.5q-68 0 -123.5 -32t-91 -82.5t-59.5 -117t-34 -132t-10 -130.5q0 -268 189 -268q92 0 152.5 53.5t91.5 132.5l106 -34q-20 -46 -38 -78.5 t-49 -71t-66 -62.5t-88 -40.5t-117 -16.5q-156 0 -242 94t-86 291z" />
<glyph unicode="d" horiz-adv-x="1050" d="M78 328q0 101 32 210.5t89.5 206t150 159.5t201.5 63q177 0 242 -138l90 641h133l-207 -1470h-113l17 211h-6q-59 -103 -149 -171.5t-200 -68.5q-134 0 -207 96.5t-73 260.5zM393 88q85 0 173 89t142 212.5t54 226.5q0 94 -49 164t-144 70q-82 0 -150 -57t-108 -142 t-62 -173t-22 -161q0 -106 44.5 -167.5t121.5 -61.5z" />
<glyph unicode="e" horiz-adv-x="911" d="M457 459l-224 -78v-27q0 -266 191 -266q169 0 252 191l106 -35q-25 -58 -52.5 -101t-70.5 -85t-105 -64.5t-140 -22.5q-160 0 -245 96t-85 289q0 69 12 138.5t35.5 139t63 129t91 105.5t123 72.5t154.5 26.5q120 0 189 -51t69 -156q0 -36 -11 -68t-25 -55t-42.5 -46 t-48.5 -36t-60 -30.5t-59 -24.5t-62.5 -22t-55.5 -19zM551 850q-65 0 -119 -30t-90 -82t-60 -113t-36 -131l178 63q39 14 51.5 19t52 22t58 30t43.5 33.5t36 44t11 50.5q0 43 -32 68.5t-93 25.5z" />
<glyph unicode="f" horiz-adv-x="659" d="M94 825l12 113h158l17 127q13 99 35 172t61.5 134.5t103.5 93.5t152 32q89 0 159 -35t93 -114l-125 -72q-13 108 -133 108q-95 0 -144 -72.5t-71 -248.5l-17 -125h267l-15 -113h-266l-113 -907q-15 -120 -46 -202t-78 -127.5t-102 -65t-128 -19.5q-65 0 -106 15.5 t-84 52.5l88 106q40 -61 118 -61q37 0 65.5 12.5t57.5 45.5t50 100t34 166l113 884h-156z" />
<glyph unicode="g" horiz-adv-x="978" d="M59 164q0 75 41 125.5t115 95.5q-59 83 -59 207q0 167 104 271t283 104q160 0 245 -88q70 63 64 155l-4 51l123 -18q3 -37 0 -74q-6 -52 -42.5 -103.5t-92.5 -84.5q28 -64 28 -146q0 -174 -109 -282.5t-280 -108.5q-113 0 -190 49q-95 -59 -95 -122q0 -31 17 -51 t65 -31.5t77 -15t108 -10.5q21 -2 32 -3q66 -6 113 -13t104 -26t92 -46.5t59 -75t24 -111.5q0 -151 -123 -229.5t-334 -78.5q-207 0 -317.5 66.5t-110.5 177.5q0 133 176 248q-113 48 -113 168zM479 379q119 0 180.5 79t61.5 210q0 96 -38.5 142t-133.5 46q-122 0 -187 -71 t-65 -201q0 -205 182 -205zM457 -55q-6 1 -68.5 7t-93.5 11q-162 -99 -162 -199q0 -51 42 -85t105.5 -48t143.5 -14q62 0 116 9.5t99.5 29t71.5 55t26 82.5q0 32 -13.5 56t-35.5 40t-59.5 27t-76.5 17.5t-95 11.5z" />
<glyph unicode="h" horiz-adv-x="1067" d="M248 213v8l-31 -221h-133l205 1470h131l-88 -645l-31 -180l4 -2q17 39 39.5 78t61 85t82 80.5t104.5 57.5t127 23q41 0 73.5 -9t55 -22.5t38.5 -37t25 -45t13.5 -54.5t5 -58t-2.5 -62.5t-6 -60.5t-8 -59l-77 -559h-134l82 569q6 41 8.5 66.5t4 62.5t-4.5 60t-17 45.5 t-33 33.5t-54 11q-70 0 -139.5 -55t-120.5 -135.5t-92.5 -171t-63.5 -163.5t-24 -110z" />
<glyph unicode="i" horiz-adv-x="454" d="M82 0l131 938h133l-133 -938h-131zM225 1262q0 42 28.5 70t70.5 28q41 0 69.5 -28.5t28.5 -69.5q0 -42 -28 -70.5t-70 -28.5q-43 0 -71 28t-28 71z" />
<glyph unicode="j" horiz-adv-x="456" d="M-266 -379q76 -16 135 3t95 59t63.5 110.5t41 134.5t25.5 152l121 858h133l-123 -877q-7 -54 -16 -100t-25.5 -106t-37.5 -107.5t-54.5 -95.5t-74 -79.5t-97 -51t-123.5 -17.5q-29 0 -78 11zM229 1262q0 42 28.5 70t70.5 28q41 0 69.5 -28.5t28.5 -69.5q0 -42 -28 -70.5 t-70 -28.5q-43 0 -71 28t-28 71z" />
<glyph unicode="k" horiz-adv-x="915" d="M913 938l-469 -436l347 -502h-166l-308 455h-41l-63 -455h-133l209 1470h131l-129 -905h39l403 373h180z" />
<glyph unicode="l" horiz-adv-x="454" d="M80 0l209 1470h131l-207 -1470h-133z" />
<glyph unicode="m" horiz-adv-x="1658" d="M82 0l131 938h133l-49 -293l6 -2q22 50 55.5 100t84 103.5t121.5 87t149 33.5q58 0 98 -18.5t59.5 -49.5t30 -72.5t9 -87.5t-4.5 -94l6 -2q23 52 56 101.5t83.5 103t120.5 86.5t148 33q49 0 86 -14.5t59.5 -35.5t35.5 -57t17.5 -67.5t3 -78t-5 -78t-10.5 -77.5l-78 -559 h-131l82 569q7 48 10 83t0.5 74.5t-13 64t-33.5 41t-58 16.5q-61 0 -123.5 -47t-110.5 -117t-89.5 -153.5t-66.5 -155t-36 -123.5l-4 -35l-31 -217h-133l82 569q11 81 11.5 143t-25 99t-78.5 37q-61 0 -123.5 -46.5t-111 -116.5t-90.5 -153t-68 -154.5t-37 -123.5l-4 -35 l-31 -219h-133z" />
<glyph unicode="n" horiz-adv-x="1064" d="M346 938l-49 -293l6 -2q17 39 40.5 78t62 85t82 80.5t104 57.5t125.5 23q52 0 90.5 -14.5t62 -36t37 -58t18.5 -68t3.5 -78t-5 -77t-10.5 -76.5l-79 -559h-134l82 569q5 36 7.5 57t4.5 54t0 53.5t-8.5 44.5t-19 37.5t-32.5 23t-48 9.5q-65 0 -130 -47.5t-114.5 -119 t-91 -156t-66.5 -156t-34 -121.5l-4 -29l-31 -219h-133l131 938h133z" />
<glyph unicode="o" horiz-adv-x="1003" d="M563 967q164 0 247 -99t83 -290q0 -91 -17.5 -176.5t-55.5 -164.5t-93 -137.5t-135 -93.5t-176 -35q-166 0 -249 101.5t-83 292.5q0 91 18 177t56 163.5t93.5 135.5t135.5 92t176 34zM414 88q69 0 126 32t94.5 84t63 119.5t36.5 135.5t11 135q0 256 -186 256 q-83 0 -148.5 -47t-103.5 -123.5t-57 -163.5t-19 -176q0 -126 43.5 -189t139.5 -63z" />
<glyph unicode="p" horiz-adv-x="1042" d="M16 -467l197 1405h129q-15 -117 -35 -213h6q51 94 144.5 168t204.5 74q126 0 200 -94t74 -273q0 -79 -16.5 -163t-54.5 -168t-91.5 -150t-134.5 -107t-178 -41q-168 0 -234 115l-77 -553h-134zM264 319q0 -59 18 -109t62 -86t109 -36q62 0 114 28t87.5 75t62.5 104 t42 119t22 115t7 98q0 106 -40 164.5t-107 58.5q-84 0 -174 -88.5t-146.5 -213.5t-56.5 -229z" />
<glyph unicode="q" horiz-adv-x="1050" d="M76 326q0 79 19.5 165.5t60.5 171.5t97.5 152.5t137 109.5t172.5 42q93 0 145.5 -38t86.5 -102l45 111h102l-199 -1405h-131l72 522q4 34 10 65t13 59.5t8 33.5h-6q-138 -242 -338 -242q-138 0 -216.5 94t-78.5 261zM225 319q0 -104 46.5 -167.5t119.5 -63.5q64 0 132 52 t119.5 130t84.5 171.5t33 172.5q0 95 -47.5 165.5t-143.5 70.5q-82 0 -150.5 -57t-109 -142t-62.5 -172.5t-22 -159.5z" />
<glyph unicode="r" horiz-adv-x="749" d="M82 0l131 938h133l-45 -276l8 -5q15 33 30.5 63t48.5 78.5t68 82.5t86 60t105 26q37 0 63 -11.5t33 -22.5l7 -11l-62 -111q-18 20 -59 20q-73 0 -144.5 -76t-130.5 -208q-41 -93 -71.5 -199t-40.5 -178l-27 -170h-133z" />
<glyph unicode="s" horiz-adv-x="870" d="M141 698q0 115 85.5 192t244.5 77q53 0 101.5 -9t94 -29.5t73 -52.5t39 -78.5t-8.5 -107.5l-131 -20q27 83 -17.5 133.5t-148.5 50.5q-86 0 -139 -36t-53 -99q0 -41 25 -73.5t64.5 -55.5t87.5 -45t96 -47t87.5 -55.5t64.5 -78t25 -106.5q0 -54 -20.5 -103t-61 -91.5 t-111 -67.5t-161.5 -25q-56 0 -107.5 9.5t-100.5 30t-78 54.5t-40 83.5t12 115.5l127 21q-29 -94 20 -147.5t163 -53.5q101 0 160 41.5t59 105.5q0 41 -25 74t-64.5 56.5t-88 45.5t-96.5 47.5t-87.5 57t-64.5 79t-25 107.5z" />
<glyph unicode="t" horiz-adv-x="694" d="M313 1219h121l-45 -281h262l-14 -113h-266l-86 -540q-14 -95 2 -143t71 -48q46 0 78 34.5t68 109.5l94 -39q-53 -119 -108.5 -169t-145.5 -50q-238 0 -186 327l80 518h-148l16 113h152z" />
<glyph unicode="u" horiz-adv-x="1050" d="M815 0h-135l41 281l-6 4q-21 -49 -52 -97.5t-79.5 -100.5t-118 -84t-148.5 -32q-51 0 -89 15t-60.5 36.5t-35.5 57.5t-17.5 66.5t-3 76t4.5 73t9 69.5q1 3 1 5t0.5 4.5t0.5 4.5l78 559h131l-82 -569q-6 -41 -8.5 -66.5t-4 -62.5t4.5 -60t17 -45.5t33 -33.5t54 -11 q78 0 154.5 70.5t130.5 172.5t90 197t49 164l33 244h133l-88 -623q-8 -55 -17 -133.5t-15 -129.5z" />
<glyph unicode="v" horiz-adv-x="948" d="M307 -29q-155 0 -155 260v707h127v-678q0 -87 11.5 -123.5t43.5 -36.5q60 0 188 152q87 103 150 226.5t63 221.5q0 56 -21.5 87.5t-45 38t-45.5 1.5l18 117q111 18 170 -46t59 -171q0 -131 -79 -287t-197 -288q-163 -181 -287 -181z" />
<glyph unicode="w" horiz-adv-x="1470" d="M670 250v24q-32 -62 -68.5 -113t-81.5 -95.5t-99 -69.5t-112 -25q-83 0 -120 59t-37 201v707h127v-657q0 -31 0.5 -49t2.5 -42t6 -37.5t11 -27t18.5 -19.5t26.5 -6q43 0 98.5 47.5t104 120t87 163t50.5 171.5l25 336h129q-39 -432 -39 -668q0 -91 14 -130.5t47 -39.5 q58 0 189 156q88 105 147 225t59 219q0 44 -13 74t-30.5 39.5t-36 14.5t-30.5 -1l20 117q111 18 169.5 -46.5t58.5 -168.5q0 -124 -80.5 -286t-198.5 -291q-82 -89 -150.5 -135t-138.5 -46q-75 0 -115 63.5t-40 215.5z" />
<glyph unicode="x" horiz-adv-x="874" d="M586 0l-180 373l-285 -373h-146l373 469l-233 469h139l186 -383l289 383h145l-378 -483l227 -455h-137z" />
<glyph unicode="y" horiz-adv-x="964" d="M-53 -418l88 103q43 -64 110 -64q88 0 137.5 101.5t49.5 250.5q0 140 -41.5 312t-122.5 428l-72 225h144l59 -190q44 -142 74.5 -265.5t42.5 -187t30 -172.5q39 39 80 88q87 111 156.5 250.5t69.5 240.5q0 43 -14 71.5t-34.5 38.5t-42.5 15t-38 0l20 117q118 17 180 -46 t62 -175q0 -132 -83.5 -296.5t-211.5 -315.5q-76 -92 -125 -123q-2 -53 -9 -104t-21 -108t-39 -104t-59.5 -85.5t-85.5 -60.5t-114 -22q-108 0 -190 78z" />
<glyph unicode="z" horiz-adv-x="862" d="M719 119l-17 -119h-684l11 80l583 739h-483l18 119h656l-8 -80l-586 -739h510z" />
<glyph unicode="{" horiz-adv-x="696" d="M39 465l12 92h70q46 0 83.5 17t62 46.5t42.5 66.5t27 81t12.5 86t1.5 84q-1 14 -6.5 94.5t-5.5 118.5q0 68 14 126.5t42.5 106.5t77 75.5t112.5 27.5q29 0 55 -5.5t42.5 -13.5t29.5 -16.5t19 -13.5l5 -6l-30 -91q-56 43 -113 43q-46 0 -75.5 -39t-39.5 -88t-10 -106 q0 -20 3 -83t3 -105q0 -388 -205 -453q55 -18 83 -81.5t28 -152.5q0 -81 -25 -172.5t-50 -178.5t-25 -158q0 -73 25.5 -111.5t86.5 -38.5q22 0 42.5 4.5t30.5 8.5l9 5l2 -100q-54 -22 -113 -22q-96 0 -152 75t-56 185q0 66 24 145t48 165t24 169q0 213 -139 213h-72z" />
<glyph unicode="|" horiz-adv-x="567" d="M217 -467v1937h115v-1937h-115z" />
<glyph unicode="}" horiz-adv-x="694" d="M-27 -342q56 -43 111 -43q37 0 63.5 24.5t39.5 64.5t18.5 78t5.5 77q0 20 -3 84t-3 104q-1 79 8 148t30.5 136.5t64 115t102.5 65.5q-111 37 -111 217q0 80 25 172.5t50 182.5t25 163q0 71 -24.5 105t-85.5 34q-24 0 -45 -4.5t-30 -9.5l-9 -4l-2 100q53 23 112 23 q96 0 152.5 -70t56.5 -180q0 -67 -24 -148t-48 -168.5t-24 -168.5q0 -199 139 -199h72l-12 -92h-70q-50 0 -88.5 -19.5t-62 -49.5t-39.5 -76t-22.5 -89.5t-8.5 -100t-1 -97t3 -91.5t2 -73q0 -69 -13.5 -130t-41 -113t-76 -82.5t-113.5 -30.5q-44 0 -82 13.5t-54 27.5l-17 14 z" />
<glyph unicode="~" horiz-adv-x="1323" d="M223 356l-80 111q53 61 136.5 98t171.5 37q59 0 117 -19t96 -42.5t87.5 -42.5t94.5 -19q59 0 119.5 28.5t103.5 76.5l80 -109q-52 -58 -138 -96.5t-175 -38.5q-58 0 -114.5 19.5t-94.5 43t-88 43t-97 19.5q-125 0 -219 -109z" />
<glyph unicode="&#xa1;" horiz-adv-x="475" d="M178 -412h-158q53 309 152 914h107q-45 -377 -101 -914zM397 838q0 -48 -36 -84.5t-85 -36.5q-50 0 -86 36.5t-36 84.5q0 50 35.5 86.5t86.5 36.5q49 0 85 -36.5t36 -86.5z" />
<glyph unicode="&#xa2;" d="M150 379q0 81 14.5 161t48 160.5t83.5 144t127.5 108.5t172.5 57l22 157h95l-23 -155q152 -6 229 -85.5t37 -213.5l-133 -27q34 89 -6 148.5t-143 62.5l-113 -803q52 4 92.5 22t69 48t46 58t34.5 67l106 -35q-16 -37 -33.5 -68t-49 -70.5t-68.5 -67.5t-93 -49t-122 -26 l-21 -157h-94l23 159q-141 14 -221 113.5t-80 290.5zM297 377q0 -254 170 -281l111 789q-75 -20 -132 -75.5t-88 -130t-46 -150.5t-15 -152z" />
<glyph unicode="&#xa3;" d="M117 489l12 101h201l37 143q54 217 140.5 317.5t235.5 100.5q151 0 214.5 -75t29.5 -189l-135 -25q34 80 4 126t-121 46q-82 0 -142 -74t-101 -253l-27 -117h270l-12 -101h-283l-18 -86q-22 -94 -55.5 -159t-67.5 -94q73 -3 180 -33.5t158 -30.5q81 0 126 43.5t42 130.5 l123 -27q0 -127 -80 -194.5t-215 -67.5q-80 0 -193.5 35t-177.5 35q-93 0 -215 -51l2 112q48 22 101 39q4 3 10 8t23 25.5t32 44t32.5 63.5t28.5 85l29 122h-188z" />
<glyph unicode="&#xa5;" d="M180 516l15 96h249l-278 516h156l249 -469l347 469h169l-405 -516h246l-13 -96h-305l-24 -172h303l-12 -96h-304l-34 -248h-125l32 248h-305l15 96h305l22 172h-303z" />
<glyph unicode="&#xa6;" horiz-adv-x="573" d="M215 596v874h125v-874h-125zM215 -467v850h125v-850h-125z" />
<glyph unicode="&#xa7;" horiz-adv-x="892" d="M403 -205h-112q2 9 2 53q-4 138 -33 330l-67 463q-15 102 -15 209q0 266 95.5 399t308.5 133q237 0 268 -174l-111 -63q-20 65 -57.5 96t-110.5 31q-267 0 -260 -406q2 -86 17 -200l67 -465q27 -189 27 -262q0 -70 -19 -144zM18 -322l121 72q15 -78 53.5 -111.5 t110.5 -33.5q127 0 194.5 92.5t67.5 273.5q0 76 -14 168l-78 547q-3 22 -11.5 72.5t-13 95t-4.5 96.5q0 88 23 154h102q-18 -37 -18 -105q0 -43 5.5 -92.5t17.5 -122t12 -73.5l76 -545q12 -99 12 -193q0 -469 -377 -469q-119 0 -190.5 44.5t-88.5 129.5z" />
<glyph unicode="&#xa8;" horiz-adv-x="1024" d="M711 1149q-39 0 -69 29.5t-30 68.5q0 40 30.5 70.5t68.5 30.5q41 0 70.5 -30.5t29.5 -70.5t-29.5 -69t-70.5 -29zM336 1149q-40 0 -69 29t-29 69t29.5 70.5t68.5 30.5q40 0 70 -30.5t30 -70.5t-30 -69t-70 -29z" />
<glyph unicode="&#xa9;" horiz-adv-x="1910" d="M131 584q0 173 65 327.5t175 264.5t262 174.5t321 64.5t322 -64t264.5 -174t177.5 -265t66 -328t-65 -327.5t-176 -264.5t-263.5 -174t-321.5 -64q-168 0 -320.5 64t-264 174t-177 264.5t-65.5 327.5zM246 584q0 -152 55.5 -286t151 -228.5t226.5 -149.5t277 -55 q147 0 278.5 55t227 150t151.5 229.5t56 286.5t-56 286.5t-152 229.5t-227.5 150t-277.5 55t-277 -55t-226.5 -150t-151 -230t-55.5 -288zM569 592q0 132 33 229t91.5 151.5t130 79.5t157.5 25q161 0 250.5 -71t93.5 -211l-149 -25q-1 116 -51 162.5t-144 46.5 q-75 0 -127.5 -31.5t-79.5 -89t-38 -122.5t-11 -148q0 -193 58.5 -293t187.5 -100q63 0 110.5 21.5t70.5 52t37 61t17 52.5l2 21l117 -26q0 -6 -1 -16t-9 -39.5t-20.5 -56.5t-39.5 -59.5t-63 -56t-94 -39.5t-129 -16q-197 0 -298.5 129.5t-101.5 368.5z" />
<glyph unicode="&#xaa;" horiz-adv-x="839" d="M526 1382q109 0 156 -79l37 65h78l-99 -649h-120l14 117h-8q-43 -66 -93 -102t-120 -36q-91 0 -145 60.5t-54 169.5q0 56 14.5 117.5t44 121.5t70.5 108t99.5 77.5t125.5 29.5zM305 940q0 -68 23 -106.5t65 -38.5q54 0 112 59.5t96 146.5t38 162q0 53 -24.5 90t-84.5 37 q-57 0 -102.5 -36t-71 -91.5t-38.5 -113t-13 -109.5z" />
<glyph unicode="&#xab;" horiz-adv-x="980" d="M340 4q-102 102 -174 218t-72 206q0 117 92.5 258.5t227.5 247.5l73 -98q-78 -74 -128 -132t-73.5 -105.5t-31.5 -82.5t-8 -80q0 -94 34 -161.5t142 -188.5zM719 4q-102 102 -174 218t-72 206q0 116 109.5 257.5t265.5 248.5l72 -98q-124 -98 -190 -171.5t-85.5 -121.5 t-19.5 -107q0 -94 34 -161.5t142 -188.5z" />
<glyph unicode="&#xac;" horiz-adv-x="1302" d="M152 799v139h976v-588h-147v449h-829z" />
<glyph unicode="&#xad;" horiz-adv-x="794" d="M125 397l20 142h494l-18 -142h-496z" />
<glyph unicode="&#xae;" horiz-adv-x="1054" d="M186 1057q0 176 117.5 293.5t288.5 117.5q170 0 288.5 -118t118.5 -293t-118 -291.5t-289 -116.5q-172 0 -289 116t-117 292zM260 1057q0 -142 96 -238t236 -96t237 96t97 238t-97 239t-237 97t-236 -97t-96 -239zM430 834v446h172q86 0 124 -33.5t38 -85.5 q0 -39 -20 -67.5t-54 -40.5q29 -13 39.5 -34t20.5 -73q5 -26 18 -37.5t45 -11.5l-20 -66l-17 -2h-2q-41 0 -71.5 26.5t-40.5 84.5q-2 15 -4 23t-8.5 20.5t-20 18.5t-33.5 6h-78v-174h-88zM518 1083h60q54 0 73 18t19 52q0 36 -20 51t-66 15h-66v-136z" />
<glyph unicode="&#xaf;" horiz-adv-x="1024" d="M309 1169l15 117h483l-14 -117h-484z" />
<glyph unicode="&#xb0;" horiz-adv-x="854" d="M506 866q-133 0 -223 91t-90 221q0 129 92 220t225 91t225 -91t92 -220t-94 -220.5t-227 -91.5zM510 979q83 0 142 58t59 141t-59 141.5t-142 58.5t-141 -58.5t-58 -141.5t58 -141t141 -58z" />
<glyph unicode="&#xb1;" d="M78 649v107h403v387h115v-387h399v-107h-399v-422h-115v422h-403zM78 0v106h917v-106h-917z" />
<glyph unicode="&#xb2;" horiz-adv-x="847" d="M156 772l8 51q11 9 74 57.5t108 84.5t111.5 98t109 113t74 113t31.5 114q0 53 -31 88t-102 35q-155 0 -170 -176l-107 18q-1 118 84 185t207 67q106 0 173 -53t67 -152q0 -61 -28.5 -126t-69 -117.5t-106 -113.5t-116 -100.5t-123.5 -93.5h416l-14 -92h-596z" />
<glyph unicode="&#xb3;" horiz-adv-x="788" d="M422 752q-105 0 -179.5 47.5t-74.5 126.5q0 15 4 43l107 18q-5 -13 -5 -31q0 -49 48 -78.5t116 -29.5q82 0 130 46.5t48 115.5q0 67 -49 107t-149 40h-19l11 90h20q85 0 147 45t62 121q0 48 -30 80.5t-99 32.5q-70 0 -112 -34t-44 -93l-104 18q8 86 83.5 144.5 t190.5 58.5q107 0 172.5 -53t65.5 -142q0 -81 -57.5 -137t-157.5 -80q93 -13 141.5 -66t48.5 -128q0 -110 -91.5 -186t-223.5 -76z" />
<glyph unicode="&#xb4;" horiz-adv-x="1024" d="M397 1128l328 404l102 -76l-350 -385z" />
<glyph unicode="&#xb5;" horiz-adv-x="1054" d="M2 -496l219 1420h129l-82 -600q-6 -63 -7 -115t23 -86.5t76 -34.5q58 0 118.5 42t109 106.5t89 140.5t65.5 146.5t32 121.5l39 279h131l-129 -924h-127q27 170 43 287h-4q-71 -134 -174 -225t-205 -91t-143 99q-67 -449 -78 -566h-125z" />
<glyph unicode="&#xb6;" horiz-adv-x="1198" d="M1188 1262h-377l-209 -1483h-113l89 620h-56q-179 0 -293 115.5t-114 304.5q0 150 74 273.5t198.5 192.5t269.5 69h545zM938 1143h133l-174 -1225q-59 -414 -389 -414q-113 0 -172.5 44.5t-69.5 115.5l131 55q0 -100 129 -100q51 0 90 16.5t64 42.5t43 69t27.5 86 t17.5 104z" />
<glyph unicode="&#xb7;" horiz-adv-x="532" d="M129 463q0 47 37 84t84 37q50 0 86.5 -36.5t36.5 -84.5q0 -50 -36 -86.5t-87 -36.5q-48 0 -84.5 37t-36.5 86z" />
<glyph unicode="&#xb8;" horiz-adv-x="1024" d="M291 -446l51 86q64 -39 131 -39q49 0 91 27.5t42 82.5q0 45 -41.5 66.5t-136.5 27.5l80 205h108l-53 -133q164 -25 164 -164q0 -86 -67 -147.5t-173 -61.5q-132 0 -196 50z" />
<glyph unicode="&#xb9;" horiz-adv-x="704" d="M166 772l14 92h182l91 637l-191 -18l4 90l309 29l-104 -738h176l-14 -92h-467z" />
<glyph unicode="&#xba;" horiz-adv-x="851" d="M543 1382q262 0 262 -276q0 -81 -23 -153.5t-67 -130.5t-115.5 -92t-161.5 -34q-128 0 -195 71t-67 210q0 80 22.5 151t66 128.5t115.5 91.5t163 34zM444 795q74 0 127.5 45.5t78 114t24.5 149.5q0 180 -137 180q-105 0 -166.5 -91t-61.5 -222q0 -90 32.5 -133t102.5 -43 z" />
<glyph unicode="&#xbb;" horiz-adv-x="978" d="M532 854l80 80q102 -100 174 -216t72 -206q0 -117 -92 -259t-227 -249l-74 98q79 75 128.5 133.5t73.5 106t32 83t8 79.5q0 93 -33.5 159.5t-141.5 190.5zM152 854l81 80q102 -100 174 -216t72 -206q0 -116 -109 -257.5t-266 -250.5l-71 98q94 75 153.5 133.5t90 105.5 t41 83t10.5 80q0 94 -33.5 160.5t-142.5 189.5z" />
<glyph unicode="&#xbc;" horiz-adv-x="1714" d="M883 225l10 78l512 569h68l-78 -555h125l-13 -92h-127l-30 -225h-103l31 225h-395zM307 0l1002 1354h114l-1001 -1354h-115zM1030 317h260l47 342zM143 520l15 92h182l90 637l-190 -18l4 90l309 29l-104 -738h176l-15 -92h-467z" />
<glyph unicode="&#xbd;" horiz-adv-x="1826" d="M311 0l1002 1354h114l-1001 -1354h-115zM979 0l8 51q11 9 74 57.5t108 84.5t111.5 98t109 113t74 113t31.5 114q0 53 -31 88t-102 35q-155 0 -170 -176l-107 18q-1 118 84 185t207 67q106 0 173 -53t67 -152q0 -61 -28.5 -126t-68.5 -117.5t-105.5 -113.5t-116.5 -101 t-123 -93h415l-14 -92h-596zM143 520l15 92h182l90 637l-190 -18l4 90l309 29l-104 -738h176l-15 -92h-467z" />
<glyph unicode="&#xbe;" horiz-adv-x="1708" d="M877 225l10 78l514 569h67l-77 -555h122l-12 -92h-125l-30 -225h-103l31 225h-397zM299 0l1001 1354h115l-1001 -1354h-115zM1026 317h260l47 342zM395 530q-104 0 -179 48t-75 127q0 15 4 43l107 18q-4 -10 -4 -31q0 -49 48 -78.5t116 -29.5q82 0 130 46t48 115 q0 67 -49.5 107.5t-149.5 40.5h-18l10 90h20q85 0 147 45t62 121q0 48 -30 80.5t-99 32.5q-70 0 -111.5 -34t-43.5 -93l-105 18q8 86 84 144.5t191 58.5q106 0 171.5 -53t65.5 -142q0 -81 -57.5 -137t-157.5 -80q93 -13 142 -66t49 -128q0 -110 -92 -186.5t-224 -76.5z" />
<glyph unicode="&#xbf;" horiz-adv-x="946" d="M422 526q71 0 117.5 -40.5t46.5 -120.5q0 -54 -24.5 -97.5t-63 -72.5t-85.5 -55t-94.5 -52t-86 -56t-63 -74.5t-24.5 -100.5q0 -81 54 -134t180 -53q79 0 132.5 23t79.5 66.5t34 96t2 121.5l131 -30q16 -98 -8 -173t-80 -121t-133.5 -69.5t-174.5 -23.5 q-183 0 -279.5 77.5t-96.5 210.5q0 67 25.5 122.5t66.5 93t90 69.5t98.5 57t90.5 48.5t66.5 51.5t25.5 60q0 33 -26.5 46t-68.5 1l-24 113q40 16 92 16zM625 838q0 -48 -36.5 -84.5t-86.5 -36.5q-49 0 -86 36.5t-37 84.5q0 49 37.5 86t85.5 37q50 0 86.5 -36.5t36.5 -86.5z " />
<glyph unicode="&#xc0;" horiz-adv-x="1226" d="M670 1354h106l318 -1354h-152l-98 426h-494l-219 -426h-156zM586 885l-172 -334h401l-76 338q-23 97 -43 233q-49 -116 -110 -237zM487 1716l113 119l293 -295l-74 -80z" />
<glyph unicode="&#xc1;" horiz-adv-x="1226" d="M670 1354h106l318 -1354h-152l-98 426h-494l-219 -426h-156zM586 885l-172 -334h401l-76 338q-23 97 -43 233q-49 -116 -110 -237zM594 1540l373 295l80 -119l-402 -256z" />
<glyph unicode="&#xc2;" horiz-adv-x="1226" d="M670 1354h106l318 -1354h-152l-98 426h-494l-219 -426h-156zM586 885l-172 -334h401l-76 338q-23 97 -43 233q-49 -116 -110 -237zM451 1513l297 308h90l215 -308l-88 -57l-199 227l-252 -227z" />
<glyph unicode="&#xc3;" horiz-adv-x="1226" d="M670 1354h106l318 -1354h-152l-98 426h-494l-219 -426h-156zM586 885l-172 -334h401l-76 338q-23 97 -43 233q-49 -116 -110 -237zM528 1536h-108q1 4 2 12t7.5 30.5t15.5 42.5t27 45t40 43t56 30t75 12q34 0 70 -17t61.5 -37.5t56 -37.5t54.5 -17q48 0 75.5 29t34.5 72 h109q0 -9 -1.5 -23.5t-15 -52t-36 -66t-71.5 -52t-116 -23.5q-39 0 -75 16t-58 36t-48.5 36t-49.5 16q-43 0 -66.5 -23.5t-38.5 -70.5z" />
<glyph unicode="&#xc4;" horiz-adv-x="1226" d="M670 1354h106l318 -1354h-152l-98 426h-494l-219 -426h-156zM586 885l-172 -334h401l-76 338q-23 97 -43 233q-49 -116 -110 -237zM975 1536q-38 0 -68 30t-30 70t29.5 69.5t68.5 29.5q41 0 70.5 -29.5t29.5 -69.5t-29.5 -70t-70.5 -30zM563 1536q-40 0 -70 30t-30 70 t30 69.5t70 29.5t69.5 -29.5t29.5 -69.5t-29.5 -70t-69.5 -30z" />
<glyph unicode="&#xc5;" horiz-adv-x="1226" d="M670 1354h106l318 -1354h-152l-98 426h-494l-219 -426h-156zM586 885l-172 -334h401l-76 338q-23 97 -43 233q-49 -116 -110 -237zM561 1628q0 82 60.5 135.5t154.5 53.5t141.5 -52t47.5 -123q0 -81 -63 -133.5t-157 -52.5q-89 0 -136.5 50.5t-47.5 121.5zM766 1729 q-46 0 -74 -28.5t-28 -68.5t27 -64t65 -24q42 0 76 25.5t34 66.5q0 37 -26 65t-74 28z" />
<glyph unicode="&#xc6;" horiz-adv-x="1720" d="M829 1354h863l-19 -133h-635l-67 -471h530l-16 -134h-533l-67 -483h647l-19 -133h-790l59 422h-409l-279 -422h-162zM893 1206l-436 -659h342z" />
<glyph unicode="&#xc7;" horiz-adv-x="1288" d="M344 -446l51 86q64 -39 131 -39q49 0 91 27.5t42 82.5q0 45 -41.5 66.5t-136.5 27.5l66 172q-208 24 -310 173.5t-102 392.5q0 119 23 234t76 225.5t130 194t194 134.5t259 51q190 0 306 -84t116 -221q0 -36 -10 -88l-146 -31q26 136 -42 219t-232 83q-85 0 -157.5 -24.5 t-124 -65.5t-92.5 -98.5t-67 -121t-42.5 -136t-23.5 -139.5t-7 -136q0 -229 82 -337t252 -108q65 0 124.5 15.5t114.5 48t95.5 90.5t58.5 135l133 -35q-27 -76 -68 -139.5t-101 -117t-145 -85t-188 -35.5l-37 -94q164 -25 164 -164q0 -86 -66.5 -147.5t-172.5 -61.5 q-133 0 -197 50z" />
<glyph unicode="&#xc8;" horiz-adv-x="1126" d="M477 1716l113 119l293 -295l-74 -80zM319 1354h779l-19 -133h-635l-67 -471h530l-16 -134h-533l-67 -483h647l-18 -133h-791z" />
<glyph unicode="&#xc9;" horiz-adv-x="1126" d="M319 1354h779l-19 -133h-635l-67 -471h530l-16 -134h-533l-67 -483h647l-18 -133h-791zM584 1540l372 295l80 -119l-401 -256z" />
<glyph unicode="&#xca;" horiz-adv-x="1126" d="M440 1513l297 308h90l215 -308l-88 -57l-198 227l-252 -227zM319 1354h779l-19 -133h-635l-67 -471h530l-16 -134h-533l-67 -483h647l-18 -133h-791z" />
<glyph unicode="&#xcb;" horiz-adv-x="1126" d="M319 1354h779l-19 -133h-635l-67 -471h530l-16 -134h-533l-67 -483h647l-18 -133h-791zM965 1536q-39 0 -69 30t-30 70q0 39 30 69t69 30q41 0 70.5 -29.5t29.5 -69.5t-29.5 -70t-70.5 -30zM553 1536q-40 0 -70 30t-30 70t30 69.5t70 29.5t69 -29.5t29 -69.5t-29 -70 t-69 -30z" />
<glyph unicode="&#xcc;" horiz-adv-x="561" d="M319 1354h144l-191 -1354h-143zM152 1716l112 119l293 -295l-74 -80z" />
<glyph unicode="&#xcd;" horiz-adv-x="561" d="M319 1354h144l-191 -1354h-143zM258 1540l373 295l80 -119l-402 -256z" />
<glyph unicode="&#xce;" horiz-adv-x="561" d="M319 1354h144l-191 -1354h-143zM115 1513l297 308h90l215 -308l-88 -57l-199 227l-252 -227z" />
<glyph unicode="&#xcf;" horiz-adv-x="561" d="M319 1354h144l-191 -1354h-143zM639 1536q-38 0 -68 30t-30 70t29.5 69.5t68.5 29.5q41 0 70.5 -29.5t29.5 -69.5t-29.5 -70t-70.5 -30zM227 1536q-40 0 -70 30t-30 70t30 69.5t70 29.5t69.5 -29.5t29.5 -69.5t-29.5 -70t-69.5 -30z" />
<glyph unicode="&#xd0;" horiz-adv-x="1374" d="M119 618l16 121h113l86 615h381q277 0 417 -146t140 -405q0 -117 -27.5 -231t-86 -218t-140.5 -182.5t-199 -125t-254 -46.5h-422l86 618h-110zM303 127h252q98 0 180 27.5t138 72.5t100 107t70 125.5t42.5 133t22.5 124.5t6 106q0 404 -416 404h-237l-70 -488h303 l-18 -121h-303z" />
<glyph unicode="&#xd1;" horiz-adv-x="1439" d="M643 1536h-108q1 4 2 12t7.5 30.5t15.5 42.5t27 45t40 43t56 30t75 12q42 0 87.5 -27.5t85 -54.5t68.5 -27q48 0 76 29.5t35 71.5h109q0 -9 -1.5 -23.5t-15 -52t-36 -66t-71.5 -52t-116 -23.5q-39 0 -75 16t-58 36t-48.5 36t-49.5 16q-43 0 -66.5 -23.5t-38.5 -70.5z M129 0l190 1354h134l485 -865q23 -40 69 -130t52 -101q13 123 31 244l118 852h133l-190 -1354h-102l-527 934q-68 123 -104 211q-5 -45 -29 -236l-127 -909h-133z" />
<glyph unicode="&#xd2;" horiz-adv-x="1409" d="M575 1716l113 119l293 -295l-74 -80zM135 557q0 233 82 419.5t239.5 296t364.5 109.5q232 0 359 -143.5t127 -423.5q0 -137 -30.5 -263t-90.5 -231.5t-142 -184t-192 -122t-234 -43.5q-238 0 -360.5 153.5t-122.5 432.5zM295 526q0 -432 334 -432q112 0 202.5 47t148 122 t96.5 174t55 196.5t16 195.5q0 431 -338 431q-112 0 -202.5 -47.5t-147 -122.5t-95 -173.5t-54 -195.5t-15.5 -195z" />
<glyph unicode="&#xd3;" horiz-adv-x="1409" d="M684 1540l373 295l80 -119l-402 -256zM135 557q0 233 82 419.5t239.5 296t364.5 109.5q232 0 359 -143.5t127 -423.5q0 -137 -30.5 -263t-90.5 -231.5t-142 -184t-192 -122t-234 -43.5q-238 0 -360.5 153.5t-122.5 432.5zM295 526q0 -432 334 -432q112 0 202.5 47 t148 122t96.5 174t55 196.5t16 195.5q0 431 -338 431q-112 0 -202.5 -47.5t-147 -122.5t-95 -173.5t-54 -195.5t-15.5 -195z" />
<glyph unicode="&#xd4;" horiz-adv-x="1409" d="M539 1513l297 308h90l215 -308l-88 -57l-199 227l-252 -227zM135 557q0 233 82 419.5t239.5 296t364.5 109.5q232 0 359 -143.5t127 -423.5q0 -137 -30.5 -263t-90.5 -231.5t-142 -184t-192 -122t-234 -43.5q-238 0 -360.5 153.5t-122.5 432.5zM295 526q0 -432 334 -432 q112 0 202.5 47t148 122t96.5 174t55 196.5t16 195.5q0 431 -338 431q-112 0 -202.5 -47.5t-147 -122.5t-95 -173.5t-54 -195.5t-15.5 -195z" />
<glyph unicode="&#xd5;" horiz-adv-x="1409" d="M135 557q0 233 82 419.5t239.5 296t364.5 109.5q232 0 359 -143.5t127 -423.5q0 -137 -30.5 -263t-90.5 -231.5t-142 -184t-192 -122t-234 -43.5q-238 0 -360.5 153.5t-122.5 432.5zM295 526q0 -432 334 -432q112 0 202.5 47t148 122t96.5 174t55 196.5t16 195.5 q0 431 -338 431q-112 0 -202.5 -47.5t-147 -122.5t-95 -173.5t-54 -195.5t-15.5 -195zM616 1536h-108q1 4 2 12t7.5 30.5t15.5 42.5t27 45t40 43t56 30t75 12q34 0 70 -17t61.5 -37.5t56 -37.5t54.5 -17q48 0 75.5 29t34.5 72h109q0 -9 -1.5 -23.5t-15 -52t-36 -66 t-71.5 -52t-116 -23.5q-39 0 -75 16t-58 36t-48.5 36t-49.5 16q-43 0 -66.5 -23.5t-38.5 -70.5z" />
<glyph unicode="&#xd6;" horiz-adv-x="1409" d="M135 557q0 233 82 419.5t239.5 296t364.5 109.5q232 0 359 -143.5t127 -423.5q0 -137 -30.5 -263t-90.5 -231.5t-142 -184t-192 -122t-234 -43.5q-238 0 -360.5 153.5t-122.5 432.5zM295 526q0 -432 334 -432q112 0 202.5 47t148 122t96.5 174t55 196.5t16 195.5 q0 431 -338 431q-112 0 -202.5 -47.5t-147 -122.5t-95 -173.5t-54 -195.5t-15.5 -195zM1063 1536q-38 0 -68 30t-30 70t29.5 69.5t68.5 29.5q41 0 70.5 -29.5t29.5 -69.5t-29.5 -70t-70.5 -30zM651 1536q-40 0 -70 30t-30 70t30 69.5t70 29.5t69.5 -29.5t29.5 -69.5 t-29.5 -70t-69.5 -30z" />
<glyph unicode="&#xd7;" d="M27 924l82 75l432 -434l436 434l80 -77l-436 -437l434 -434l-82 -76l-432 433l-432 -433l-82 78l434 434z" />
<glyph unicode="&#xd8;" horiz-adv-x="1409" d="M86 -66l158 209q-107 149 -107 414q0 233 81.5 419.5t238.5 296t364 109.5q179 0 297 -86l148 193l98 -72l-158 -209q103 -147 103 -391q0 -170 -48 -322.5t-135 -269.5t-218.5 -185.5t-289.5 -68.5q-173 0 -286 84l-146 -192zM295 526q0 -165 43 -258l696 916 q-85 76 -223 76q-112 0 -202.5 -47t-147.5 -122t-95.5 -173.5t-54.5 -196t-16 -195.5zM1149 829q0 154 -41 250l-694 -915q79 -70 217 -70q112 0 202.5 47t148 122t96.5 174t55 196.5t16 195.5z" />
<glyph unicode="&#xd9;" horiz-adv-x="1398" d="M567 1716l113 119l293 -295l-74 -80zM629 -29q-259 0 -368 150t-71 418l115 815h144l-117 -826q-62 -428 309 -428q87 0 156.5 23.5t114 61.5t77 93.5t49 111t25.5 122.5l119 842h135l-121 -852q-35 -250 -175 -390.5t-392 -140.5z" />
<glyph unicode="&#xda;" horiz-adv-x="1398" d="M629 -29q-259 0 -368 150t-71 418l115 815h144l-117 -826q-62 -428 309 -428q87 0 156.5 23.5t114 61.5t77 93.5t49 111t25.5 122.5l119 842h135l-121 -852q-35 -250 -175 -390.5t-392 -140.5zM676 1540l373 295l79 -119l-401 -256z" />
<glyph unicode="&#xdb;" horiz-adv-x="1398" d="M530 1513l297 308h91l215 -308l-89 -57l-198 227l-252 -227zM629 -29q-259 0 -368 150t-71 418l115 815h144l-117 -826q-62 -428 309 -428q87 0 156.5 23.5t114 61.5t77 93.5t49 111t25.5 122.5l119 842h135l-121 -852q-35 -250 -175 -390.5t-392 -140.5z" />
<glyph unicode="&#xdc;" horiz-adv-x="1398" d="M629 -29q-259 0 -368 150t-71 418l115 815h144l-117 -826q-62 -428 309 -428q87 0 156.5 23.5t114 61.5t77 93.5t49 111t25.5 122.5l119 842h135l-121 -852q-35 -250 -175 -390.5t-392 -140.5zM1055 1536q-39 0 -69 30t-30 70q0 39 30 69t69 30q41 0 70.5 -29.5 t29.5 -69.5t-29.5 -70t-70.5 -30zM643 1536q-40 0 -70 30t-30 70t30 69.5t70 29.5t69 -29.5t29 -69.5t-29 -70t-69 -30z" />
<glyph unicode="&#xdd;" horiz-adv-x="1175" d="M584 0h-144l72 520l-360 834h165l289 -680l459 680h162l-572 -836zM559 1540l373 295l80 -119l-402 -256z" />
<glyph unicode="&#xde;" horiz-adv-x="1118" d="M319 1354h144l-35 -238h174q227 0 332.5 -95t105.5 -263q0 -219 -157.5 -356.5t-407.5 -137.5h-166l-37 -264h-143zM590 989h-178l-86 -598h157q185 0 292.5 97t107.5 262q0 122 -69 180.5t-224 58.5z" />
<glyph unicode="&#xdf;" horiz-adv-x="1054" d="M82 -59l143 1124q58 432 422 432q139 0 222 -60t83 -175q0 -69 -32.5 -128t-79 -101.5t-92.5 -82.5t-78.5 -89.5t-32.5 -104.5q0 -39 16 -77t42 -70.5t57.5 -64.5t62.5 -66t57 -69.5t42 -80t16 -92.5q0 -113 -80.5 -189t-212.5 -76q-98 0 -165.5 41.5t-96.5 96.5l125 71 q8 -34 54 -63t101 -29q53 0 93 32.5t40 96.5q0 53 -30 103t-72.5 93t-85 88.5t-72.5 108t-30 133.5q0 75 33.5 138.5t81 107.5t94.5 84t80.5 86t33.5 94q0 65 -52.5 98t-133.5 33q-55 0 -99.5 -15t-73 -43.5t-48 -58t-31.5 -71t-17 -69t-10 -64.5l-145 -1145 q-29 -226 -113 -320t-239 -94q-118 0 -191 68l88 106q15 -22 31 -35.5t36.5 -18.5t31 -6t34.5 -1q69 0 120 76.5t73 247.5z" />
<glyph unicode="&#xe0;" horiz-adv-x="1013" d="M803 938h100l-131 -938h-125l27 209h-6q-32 -51 -61 -88.5t-69.5 -74t-89.5 -56t-106 -19.5q-123 0 -193.5 91t-70.5 264q0 108 33 220t91.5 206.5t148.5 154.5t194 60q150 0 215 -138zM225 328q0 -108 37 -175t107 -67q81 0 165.5 87t136.5 209t52 226q0 99 -49.5 171.5 t-128.5 72.5q-80 0 -155 -78t-120 -200t-45 -246zM545 1071l-252 385l125 76l223 -410z" />
<glyph unicode="&#xe1;" horiz-adv-x="1013" d="M803 938h100l-131 -938h-125l27 209h-6q-32 -51 -61 -88.5t-69.5 -74t-89.5 -56t-106 -19.5q-123 0 -193.5 91t-70.5 264q0 108 33 220t91.5 206.5t148.5 154.5t194 60q150 0 215 -138zM225 328q0 -108 37 -175t107 -67q81 0 165.5 87t136.5 209t52 226q0 99 -49.5 171.5 t-128.5 72.5q-80 0 -155 -78t-120 -200t-45 -246zM465 1128l328 404l102 -76l-350 -385z" />
<glyph unicode="&#xe2;" horiz-adv-x="1013" d="M803 938h100l-131 -938h-125l27 209h-6q-32 -51 -61 -88.5t-69.5 -74t-89.5 -56t-106 -19.5q-123 0 -193.5 91t-70.5 264q0 108 33 220t91.5 206.5t148.5 154.5t194 60q150 0 215 -138zM225 328q0 -108 37 -175t107 -67q81 0 165.5 87t136.5 209t52 226q0 99 -49.5 171.5 t-128.5 72.5q-80 0 -155 -78t-120 -200t-45 -246zM268 1139l287 379h96l180 -402l-92 -45l-155 289l-234 -289z" />
<glyph unicode="&#xe3;" horiz-adv-x="1013" d="M803 938h100l-131 -938h-125l27 209h-6q-32 -51 -61 -88.5t-69.5 -74t-89.5 -56t-106 -19.5q-123 0 -193.5 91t-70.5 264q0 108 33 220t91.5 206.5t148.5 154.5t194 60q150 0 215 -138zM225 328q0 -108 37 -175t107 -67q81 0 165.5 87t136.5 209t52 226q0 99 -49.5 171.5 t-128.5 72.5q-80 0 -155 -78t-120 -200t-45 -246zM248 1112q1 9 3.5 24.5t15.5 55t32 69.5t58 55t89 25q37 0 121.5 -54t120.5 -54q35 0 56 33t28 80h109q0 -5 -0.5 -13t-5 -32t-12 -46t-23.5 -48.5t-37.5 -45.5t-56.5 -32t-78 -13q-30 0 -64 16.5t-59.5 36t-55.5 36 t-53 16.5q-57 0 -78 -109h-110z" />
<glyph unicode="&#xe4;" horiz-adv-x="1013" d="M803 938h100l-131 -938h-125l27 209h-6q-32 -51 -61 -88.5t-69.5 -74t-89.5 -56t-106 -19.5q-123 0 -193.5 91t-70.5 264q0 108 33 220t91.5 206.5t148.5 154.5t194 60q150 0 215 -138zM225 328q0 -108 37 -175t107 -67q81 0 165.5 87t136.5 209t52 226q0 99 -49.5 171.5 t-128.5 72.5q-80 0 -155 -78t-120 -200t-45 -246zM754 1149q-39 0 -69 29.5t-30 68.5q0 40 30.5 70.5t68.5 30.5q41 0 70.5 -30.5t29.5 -70.5t-29.5 -69t-70.5 -29zM379 1149q-40 0 -69 29t-29 69t29.5 70.5t68.5 30.5q40 0 70 -30.5t30 -70.5t-30 -69t-70 -29z" />
<glyph unicode="&#xe5;" horiz-adv-x="1013" d="M803 938h100l-131 -938h-125l27 209h-6q-32 -51 -61 -88.5t-69.5 -74t-89.5 -56t-106 -19.5q-123 0 -193.5 91t-70.5 264q0 108 33 220t91.5 206.5t148.5 154.5t194 60q150 0 215 -138zM225 328q0 -108 37 -175t107 -67q81 0 165.5 87t136.5 209t52 226q0 99 -49.5 171.5 t-128.5 72.5q-80 0 -155 -78t-120 -200t-45 -246zM549 1077q-90 0 -136 53t-46 125q0 84 62 141.5t159 57.5q90 0 136 -50.5t46 -121.5q0 -86 -62 -145.5t-159 -59.5zM559 1165q46 0 79.5 31t33.5 72q0 35 -23.5 66.5t-70.5 31.5t-78 -34.5t-31 -76.5q0 -36 24 -63t66 -27z " />
<glyph unicode="&#xe6;" horiz-adv-x="1423" d="M49 201q0 322 602 342q19 168 19 174q0 72 -40 102.5t-149 30.5q-84 0 -142 -48.5t-65 -150.5l-139 15q0 127 99 214t270 87q203 0 270 -119q119 119 299 119q113 0 186.5 -51t73.5 -154q0 -63 -21.5 -110.5t-63 -81.5t-112 -58.5t-159.5 -40.5t-215 -29q-4 -28 -5.5 -55 t-0.5 -63.5t6 -67.5t18 -63t32.5 -54.5t52 -36.5t73.5 -14q174 0 252 186l104 -32q-25 -58 -51.5 -100t-69 -84t-105 -64.5t-142.5 -22.5q-200 0 -275 179q-63 -77 -152.5 -128t-201.5 -51q-102 0 -175 60t-73 170zM188 213q0 -125 150 -125q88 0 174 74t111 166l14 108 q-449 -16 -449 -223zM782 553q226 19 316 64t90 147q0 40 -32 63t-95 23q-107 0 -178 -83t-101 -214z" />
<glyph unicode="&#xe7;" horiz-adv-x="901" d="M147 -446l52 86q64 -39 131 -39q49 0 91 27.5t42 82.5q0 45 -41.5 66.5t-136.5 27.5l65 170q-266 37 -266 381q0 84 15 166t51 163.5t88 143t133.5 100t181.5 38.5q147 0 223.5 -77t38.5 -212l-133 -25q30 86 -4.5 141.5t-128.5 55.5q-68 0 -123.5 -32t-91 -82.5 t-59.5 -117t-34 -132t-10 -130.5q0 -268 189 -268q92 0 152.5 53.5t91.5 132.5l106 -34q-23 -54 -46 -92t-59.5 -79t-88 -65.5t-117.5 -30.5l-39 -96q164 -25 164 -164q0 -86 -67 -147.5t-173 -61.5q-133 0 -197 50z" />
<glyph unicode="&#xe8;" horiz-adv-x="911" d="M457 459l-224 -78v-27q0 -266 191 -266q169 0 252 191l106 -35q-25 -58 -52.5 -101t-70.5 -85t-105 -64.5t-140 -22.5q-160 0 -245 96t-85 289q0 69 12 138.5t35.5 139t63 129t91 105.5t123 72.5t154.5 26.5q120 0 189 -51t69 -156q0 -36 -11 -68t-25 -55t-42.5 -46 t-48.5 -36t-60 -30.5t-59 -24.5t-62.5 -22t-55.5 -19zM551 850q-65 0 -119 -30t-90 -82t-60 -113t-36 -131l178 63q39 14 51.5 19t52 22t58 30t43.5 33.5t36 44t11 50.5q0 43 -32 68.5t-93 25.5zM543 1071l-252 385l125 76l223 -410z" />
<glyph unicode="&#xe9;" horiz-adv-x="911" d="M463 1128l328 404l102 -76l-350 -385zM457 459l-224 -78v-27q0 -266 191 -266q169 0 252 191l106 -35q-25 -58 -52.5 -101t-70.5 -85t-105 -64.5t-140 -22.5q-160 0 -245 96t-85 289q0 69 12 138.5t35.5 139t63 129t91 105.5t123 72.5t154.5 26.5q120 0 189 -51t69 -156 q0 -36 -11 -68t-25 -55t-42.5 -46t-48.5 -36t-60 -30.5t-59 -24.5t-62.5 -22t-55.5 -19zM551 850q-65 0 -119 -30t-90 -82t-60 -113t-36 -131l178 63q39 14 51.5 19t52 22t58 30t43.5 33.5t36 44t11 50.5q0 43 -32 68.5t-93 25.5z" />
<glyph unicode="&#xea;" horiz-adv-x="911" d="M266 1139l287 379h96l180 -402l-92 -45l-155 289l-234 -289zM457 459l-224 -78v-27q0 -266 191 -266q169 0 252 191l106 -35q-25 -58 -52.5 -101t-70.5 -85t-105 -64.5t-140 -22.5q-160 0 -245 96t-85 289q0 69 12 138.5t35.5 139t63 129t91 105.5t123 72.5t154.5 26.5 q120 0 189 -51t69 -156q0 -36 -11 -68t-25 -55t-42.5 -46t-48.5 -36t-60 -30.5t-59 -24.5t-62.5 -22t-55.5 -19zM551 850q-65 0 -119 -30t-90 -82t-60 -113t-36 -131l178 63q39 14 51.5 19t52 22t58 30t43.5 33.5t36 44t11 50.5q0 43 -32 68.5t-93 25.5z" />
<glyph unicode="&#xeb;" horiz-adv-x="911" d="M750 1149q-39 0 -69 29.5t-30 68.5q0 40 30.5 70.5t68.5 30.5q41 0 70.5 -30.5t29.5 -70.5t-29.5 -69t-70.5 -29zM375 1149q-40 0 -69.5 29t-29.5 69t29.5 70.5t69.5 30.5t70 -30.5t30 -70.5t-30 -69t-70 -29zM457 459l-224 -78v-27q0 -266 191 -266q169 0 252 191 l106 -35q-25 -58 -52.5 -101t-70.5 -85t-105 -64.5t-140 -22.5q-160 0 -245 96t-85 289q0 69 12 138.5t35.5 139t63 129t91 105.5t123 72.5t154.5 26.5q120 0 189 -51t69 -156q0 -36 -11 -68t-25 -55t-42.5 -46t-48.5 -36t-60 -30.5t-59 -24.5t-62.5 -22t-55.5 -19zM551 850 q-65 0 -119 -30t-90 -82t-60 -113t-36 -131l178 63q39 14 51.5 19t52 22t58 30t43.5 33.5t36 44t11 50.5q0 43 -32 68.5t-93 25.5z" />
<glyph unicode="&#xec;" horiz-adv-x="454" d="M346 938l-133 -938h-131l131 938h133zM299 1071l-252 385l125 76l223 -410z" />
<glyph unicode="&#xed;" horiz-adv-x="454" d="M219 1128l328 404l102 -76l-350 -385zM346 938l-133 -938h-131l131 938h133z" />
<glyph unicode="&#xee;" horiz-adv-x="456" d="M23 1139l286 379h97l180 -402l-92 -45l-156 289l-234 -289zM346 938l-133 -938h-131l131 938h133z" />
<glyph unicode="&#xef;" horiz-adv-x="456" d="M508 1149q-39 0 -68.5 29.5t-29.5 68.5q0 40 30 70.5t68 30.5q41 0 70.5 -30.5t29.5 -70.5t-29.5 -69t-70.5 -29zM133 1149q-40 0 -69 29t-29 69t29.5 70.5t68.5 30.5q40 0 70 -30.5t30 -70.5t-30 -69t-70 -29zM346 938l-133 -938h-131l131 938h133z" />
<glyph unicode="&#xf0;" horiz-adv-x="1036" d="M352 1004l-61 96l239 147q-94 63 -249 113l53 119q163 -46 313 -158l248 154l57 -99l-215 -133q88 -95 137.5 -261t49.5 -341q0 -78 -10.5 -153t-32 -152t-60 -141.5t-90 -115.5t-126.5 -79.5t-165 -28.5q-175 0 -266.5 106t-91.5 294q0 77 17 153.5t53 148.5t87 127 t124.5 88.5t160.5 33.5q140 0 228 -60l10 12q-23 93 -55 160t-91 133zM451 86q79 0 141 30.5t99.5 79.5t62 116t34 133.5t9.5 138.5q0 116 -63 169.5t-206 53.5q-66 0 -119.5 -29.5t-86 -75.5t-54.5 -108t-30.5 -122t-8.5 -122q0 -123 58.5 -193.5t163.5 -70.5z" />
<glyph unicode="&#xf1;" horiz-adv-x="1064" d="M346 938l-49 -293l6 -2q17 39 40.5 78t62 85t82 80.5t104 57.5t125.5 23q52 0 90.5 -14.5t62 -36t37 -58t18.5 -68t3.5 -78t-5 -77t-10.5 -76.5l-79 -559h-134l82 569q5 36 7.5 57t4.5 54t0 53.5t-8.5 44.5t-19 37.5t-32.5 23t-48 9.5q-65 0 -130 -47.5t-114.5 -119 t-91 -156t-66.5 -156t-34 -121.5l-4 -29l-31 -219h-133l131 938h133zM311 1112q1 9 3.5 24.5t15.5 55t32.5 69.5t58.5 55t89 25q37 0 121.5 -54t120.5 -54q35 0 56 33t28 80h108q0 -5 -0.5 -13t-5 -32t-12 -46t-23.5 -48.5t-37.5 -45.5t-56.5 -32t-78 -13q-38 0 -81 26 t-82 52.5t-68 26.5q-57 0 -78 -109h-111z" />
<glyph unicode="&#xf2;" horiz-adv-x="1003" d="M563 967q164 0 247 -99t83 -290q0 -91 -17.5 -176.5t-55.5 -164.5t-93 -137.5t-135 -93.5t-176 -35q-166 0 -249 101.5t-83 292.5q0 91 18 177t56 163.5t93.5 135.5t135.5 92t176 34zM414 88q69 0 126 32t94.5 84t63 119.5t36.5 135.5t11 135q0 256 -186 256 q-83 0 -148.5 -47t-103.5 -123.5t-57 -163.5t-19 -176q0 -126 43.5 -189t139.5 -63zM563 1071l-252 385l125 76l223 -410z" />
<glyph unicode="&#xf3;" horiz-adv-x="1003" d="M483 1128l328 404l102 -76l-350 -385zM563 967q164 0 247 -99t83 -290q0 -91 -17.5 -176.5t-55.5 -164.5t-93 -137.5t-135 -93.5t-176 -35q-166 0 -249 101.5t-83 292.5q0 91 18 177t56 163.5t93.5 135.5t135.5 92t176 34zM414 88q69 0 126 32t94.5 84t63 119.5 t36.5 135.5t11 135q0 256 -186 256q-83 0 -148.5 -47t-103.5 -123.5t-57 -163.5t-19 -176q0 -126 43.5 -189t139.5 -63z" />
<glyph unicode="&#xf4;" horiz-adv-x="1003" d="M287 1139l286 379h97l180 -402l-92 -45l-156 289l-233 -289zM563 967q164 0 247 -99t83 -290q0 -91 -17.5 -176.5t-55.5 -164.5t-93 -137.5t-135 -93.5t-176 -35q-166 0 -249 101.5t-83 292.5q0 91 18 177t56 163.5t93.5 135.5t135.5 92t176 34zM414 88q69 0 126 32 t94.5 84t63 119.5t36.5 135.5t11 135q0 256 -186 256q-83 0 -148.5 -47t-103.5 -123.5t-57 -163.5t-19 -176q0 -126 43.5 -189t139.5 -63z" />
<glyph unicode="&#xf5;" horiz-adv-x="1003" d="M563 967q164 0 247 -99t83 -290q0 -91 -17.5 -176.5t-55.5 -164.5t-93 -137.5t-135 -93.5t-176 -35q-166 0 -249 101.5t-83 292.5q0 91 18 177t56 163.5t93.5 135.5t135.5 92t176 34zM414 88q69 0 126 32t94.5 84t63 119.5t36.5 135.5t11 135q0 256 -186 256 q-83 0 -148.5 -47t-103.5 -123.5t-57 -163.5t-19 -176q0 -126 43.5 -189t139.5 -63zM266 1112q1 9 3.5 24.5t15.5 55t32.5 69.5t58.5 55t89 25q37 0 121.5 -54t120.5 -54q35 0 56 33t28 80h108q0 -5 -0.5 -13t-5 -32t-12 -46t-23.5 -48.5t-37.5 -45.5t-56.5 -32t-78 -13 q-38 0 -81 26t-82 52.5t-68 26.5q-57 0 -78 -109h-111z" />
<glyph unicode="&#xf6;" horiz-adv-x="1003" d="M772 1149q-39 0 -68.5 29.5t-29.5 68.5q0 40 30 70.5t68 30.5q41 0 70.5 -30.5t29.5 -70.5t-29.5 -69t-70.5 -29zM397 1149q-40 0 -69 29t-29 69t29.5 70.5t68.5 30.5q40 0 70.5 -30.5t30.5 -70.5q0 -39 -30.5 -68.5t-70.5 -29.5zM563 967q164 0 247 -99t83 -290 q0 -91 -17.5 -176.5t-55.5 -164.5t-93 -137.5t-135 -93.5t-176 -35q-166 0 -249 101.5t-83 292.5q0 91 18 177t56 163.5t93.5 135.5t135.5 92t176 34zM414 88q69 0 126 32t94.5 84t63 119.5t36.5 135.5t11 135q0 256 -186 256q-83 0 -148.5 -47t-103.5 -123.5t-57 -163.5 t-19 -176q0 -126 43.5 -189t139.5 -63z" />
<glyph unicode="&#xf7;" d="M543 774q-47 0 -81 34t-34 81t34 81t81 34t80.5 -34t33.5 -81t-33.5 -81t-80.5 -34zM84 442v107h917v-107h-917zM428 96q0 47 34 81t81 34t80.5 -34t33.5 -81t-33.5 -80.5t-80.5 -33.5t-81 33.5t-34 80.5z" />
<glyph unicode="&#xf8;" horiz-adv-x="1024" d="M571 967q153 0 238 -88l121 129l80 -72l-144 -154q35 -87 35 -204q0 -91 -17.5 -176.5t-55.5 -164.5t-93 -137.5t-135 -93.5t-176 -35q-149 0 -234 82l-118 -127l-80 72l137 147q-37 87 -37 220q0 91 18 177t56 163.5t93.5 135.5t135.5 92t176 34zM240 340q0 -52 2 -72 l473 508q-49 74 -148 74q-83 0 -148.5 -47t-103 -123.5t-56.5 -163.5t-19 -176zM422 88q86 0 152.5 48t104 125t56.5 162t19 171q0 25 -4 61l-469 -503q46 -64 141 -64z" />
<glyph unicode="&#xf9;" horiz-adv-x="1050" d="M815 0h-135l41 281l-6 4q-21 -49 -52 -97.5t-79.5 -100.5t-118 -84t-148.5 -32q-51 0 -89 15t-60.5 36.5t-35.5 57.5t-17.5 66.5t-3 76t4.5 73t9 69.5q1 3 1 5t0.5 4.5t0.5 4.5l78 559h131l-82 -569q-6 -41 -8.5 -66.5t-4 -62.5t4.5 -60t17 -45.5t33 -33.5t54 -11 q78 0 154.5 70.5t130.5 172.5t90 197t49 164l33 244h133l-88 -623q-8 -55 -17 -133.5t-15 -129.5zM590 1071l-252 385l125 76l223 -410z" />
<glyph unicode="&#xfa;" horiz-adv-x="1050" d="M510 1128l328 404l102 -76l-350 -385zM815 0h-135l41 281l-6 4q-21 -49 -52 -97.5t-79.5 -100.5t-118 -84t-148.5 -32q-51 0 -89 15t-60.5 36.5t-35.5 57.5t-17.5 66.5t-3 76t4.5 73t9 69.5q1 3 1 5t0.5 4.5t0.5 4.5l78 559h131l-82 -569q-6 -41 -8.5 -66.5t-4 -62.5 t4.5 -60t17 -45.5t33 -33.5t54 -11q78 0 154.5 70.5t130.5 172.5t90 197t49 164l33 244h133l-88 -623q-8 -55 -17 -133.5t-15 -129.5z" />
<glyph unicode="&#xfb;" horiz-adv-x="1050" d="M313 1139l287 379h96l181 -402l-93 -45l-155 289l-234 -289zM815 0h-135l41 281l-6 4q-21 -49 -52 -97.5t-79.5 -100.5t-118 -84t-148.5 -32q-51 0 -89 15t-60.5 36.5t-35.5 57.5t-17.5 66.5t-3 76t4.5 73t9 69.5q1 3 1 5t0.5 4.5t0.5 4.5l78 559h131l-82 -569 q-6 -41 -8.5 -66.5t-4 -62.5t4.5 -60t17 -45.5t33 -33.5t54 -11q78 0 154.5 70.5t130.5 172.5t90 197t49 164l33 244h133l-88 -623q-8 -55 -17 -133.5t-15 -129.5z" />
<glyph unicode="&#xfc;" horiz-adv-x="1050" d="M797 1149q-39 0 -69 29.5t-30 68.5q0 40 30.5 70.5t68.5 30.5q41 0 70.5 -30.5t29.5 -70.5t-29.5 -69t-70.5 -29zM422 1149q-40 0 -69 29t-29 69t29.5 70.5t68.5 30.5q40 0 70 -30.5t30 -70.5t-30 -69t-70 -29zM815 0h-135l41 281l-6 4q-21 -49 -52 -97.5t-79.5 -100.5 t-118 -84t-148.5 -32q-51 0 -89 15t-60.5 36.5t-35.5 57.5t-17.5 66.5t-3 76t4.5 73t9 69.5q1 3 1 5t0.5 4.5t0.5 4.5l78 559h131l-82 -569q-6 -41 -8.5 -66.5t-4 -62.5t4.5 -60t17 -45.5t33 -33.5t54 -11q78 0 154.5 70.5t130.5 172.5t90 197t49 164l33 244h133l-88 -623 q-8 -55 -17 -133.5t-15 -129.5z" />
<glyph unicode="&#xfd;" horiz-adv-x="964" d="M-53 -418l88 103q43 -64 110 -64q88 0 137.5 101.5t49.5 250.5q0 140 -41.5 312t-122.5 428l-72 225h144l59 -190q44 -142 74.5 -265.5t42.5 -187t30 -172.5q39 39 80 88q87 111 156.5 250.5t69.5 240.5q0 43 -14 71.5t-34.5 38.5t-42.5 15t-38 0l20 117q118 17 180 -46 t62 -175q0 -132 -83.5 -296.5t-211.5 -315.5q-76 -92 -125 -123q-2 -53 -9 -104t-21 -108t-39 -104t-59.5 -85.5t-85.5 -60.5t-114 -22q-108 0 -190 78zM473 1128l328 404l102 -76l-350 -385z" />
<glyph unicode="&#xfe;" horiz-adv-x="1044" d="M422 1470q-78 -602 -113 -745h6q51 94 144.5 168t204.5 74q126 0 200 -94t74 -273q0 -65 -12 -135t-36 -141t-63.5 -134t-90 -112t-120.5 -78t-151 -29q-170 0 -236 115l-77 -553h-134l271 1937h133zM266 319q0 -59 18 -109t62 -86t109 -36q73 0 133.5 40.5t97 101 t61.5 136t34.5 140.5t9.5 119q0 107 -40.5 166t-107.5 59q-84 0 -174 -88.5t-146.5 -213.5t-56.5 -229z" />
<glyph unicode="&#xff;" horiz-adv-x="964" d="M-53 -418l88 103q43 -64 110 -64q88 0 137.5 101.5t49.5 250.5q0 140 -41.5 312t-122.5 428l-72 225h144l59 -190q44 -142 74.5 -265.5t42.5 -187t30 -172.5q39 39 80 88q87 111 156.5 250.5t69.5 240.5q0 43 -14 71.5t-34.5 38.5t-42.5 15t-38 0l20 117q118 17 180 -46 t62 -175q0 -132 -83.5 -296.5t-211.5 -315.5q-76 -92 -125 -123q-2 -53 -9 -104t-21 -108t-39 -104t-59.5 -85.5t-85.5 -60.5t-114 -22q-108 0 -190 78zM762 1149q-39 0 -68.5 29.5t-29.5 68.5q0 40 30 70.5t68 30.5q41 0 70.5 -30.5t29.5 -70.5t-29.5 -69t-70.5 -29z M387 1149q-40 0 -69 29t-29 69t29.5 70.5t68.5 30.5q40 0 70 -30.5t30 -70.5t-30 -69t-70 -29z" />
<glyph unicode="&#x152;" horiz-adv-x="1841" d="M135 551q0 177 48 329.5t136 263.5t219 174.5t289 63.5q114 0 209 -28h779l-19 -133h-635l-67 -471h530l-16 -134h-533l-65 -483h647l-21 -133h-782q-102 -29 -213 -29q-254 0 -380 148.5t-126 431.5zM295 522q0 -234 87.5 -336t262.5 -102q136 0 219 41l154 1102 q-79 43 -201 43q-114 0 -206 -48t-149.5 -124t-96.5 -177t-54.5 -200t-15.5 -199z" />
<glyph unicode="&#x153;" horiz-adv-x="1515" d="M563 967q102 0 172 -44t101 -128q125 172 333 172q120 0 189 -51t69 -156q0 -36 -11 -68t-25 -55t-42.5 -46t-48.5 -36t-60 -30.5t-59 -24.5t-62.5 -22t-55.5 -19l-213 -76v-29q0 -266 180 -266q169 0 252 191l107 -35q-25 -58 -52.5 -101t-70.5 -85t-105.5 -64.5 t-140.5 -22.5q-201 0 -272 164q-127 -164 -332 -164q-166 0 -249 101.5t-83 292.5q0 91 18 177t56 163.5t93.5 135.5t135.5 92t176 34zM414 88q69 0 126 32t94.5 84t63 119.5t36.5 135.5t11 135q0 256 -186 256q-83 0 -148.5 -47t-103.5 -123.5t-57 -163.5t-19 -176 q0 -126 43.5 -189t139.5 -63zM1157 850q-62 0 -114 -29.5t-87 -80.5t-58.5 -111.5t-35.5 -130.5l168 59q39 14 51.5 19t52 22t58 30t43.5 33.5t36 44t11 50.5q0 43 -32 68.5t-93 25.5z" />
<glyph unicode="&#x178;" horiz-adv-x="1175" d="M584 0h-144l72 520l-360 834h165l289 -680l459 680h162l-572 -836zM940 1536q-38 0 -68 30t-30 70t30 69.5t68 29.5q41 0 70.5 -29.5t29.5 -69.5t-29.5 -70t-70.5 -30zM528 1536q-40 0 -70 30t-30 70t30 69.5t70 29.5t69.5 -29.5t29.5 -69.5t-29.5 -70t-69.5 -30z" />
<glyph unicode="&#x2c6;" horiz-adv-x="1024" d="M266 1139l287 379h96l180 -402l-92 -45l-155 289l-234 -289z" />
<glyph unicode="&#x2dc;" horiz-adv-x="1030" d="M248 1112q1 9 3.5 24.5t15.5 55t32 69.5t58 55t89 25q37 0 121.5 -54t120.5 -54q35 0 56 33t28 80h109q0 -5 -0.5 -13t-5 -32t-12 -46t-23.5 -48.5t-37.5 -45.5t-56.5 -32t-78 -13q-30 0 -64 16.5t-59.5 36t-55.5 36t-53 16.5q-57 0 -78 -109h-110z" />
<glyph unicode="&#x2000;" horiz-adv-x="917" />
<glyph unicode="&#x2001;" horiz-adv-x="1835" />
<glyph unicode="&#x2002;" horiz-adv-x="917" />
<glyph unicode="&#x2003;" horiz-adv-x="1835" />
<glyph unicode="&#x2004;" horiz-adv-x="611" />
<glyph unicode="&#x2005;" horiz-adv-x="458" />
<glyph unicode="&#x2006;" horiz-adv-x="305" />
<glyph unicode="&#x2007;" horiz-adv-x="305" />
<glyph unicode="&#x2008;" horiz-adv-x="229" />
<glyph unicode="&#x2009;" horiz-adv-x="367" />
<glyph unicode="&#x200a;" horiz-adv-x="101" />
<glyph unicode="&#x2010;" horiz-adv-x="794" d="M125 397l20 142h494l-18 -142h-496z" />
<glyph unicode="&#x2011;" horiz-adv-x="794" d="M125 397l20 142h494l-18 -142h-496z" />
<glyph unicode="&#x2012;" horiz-adv-x="794" d="M125 397l20 142h494l-18 -142h-496z" />
<glyph unicode="&#x2013;" horiz-adv-x="1355" d="M147 408v120h1024v-120h-1024z" />
<glyph unicode="&#x2014;" horiz-adv-x="2381" d="M150 408v120h2048v-120h-2048z" />
<glyph unicode="&#x2018;" horiz-adv-x="481" d="M442 1493l54 -55q-81 -71 -119.5 -123.5t-38.5 -95.5q0 -83 74 -185l-119 -98q-36 25 -67 72.5t-31 115.5q0 109 61.5 195.5t185.5 173.5z" />
<glyph unicode="&#x2019;" horiz-adv-x="483" d="M227 963l-53 55q81 71 119.5 123.5t38.5 95.5q0 82 -74 184l119 99q36 -25 67 -73t31 -116q0 -109 -61.5 -195t-186.5 -173z" />
<glyph unicode="&#x201a;" horiz-adv-x="471" d="M29 -319l-54 55q81 71 119.5 123.5t38.5 95.5q0 82 -74 184l119 99q36 -25 67 -73t31 -116q0 -109 -61.5 -195t-185.5 -173z" />
<glyph unicode="&#x201c;" horiz-adv-x="837" d="M442 1493l54 -55q-81 -71 -119.5 -123.5t-38.5 -95.5q0 -83 74 -185l-119 -98q-36 25 -67 72.5t-31 115.5q0 109 61.5 195.5t185.5 173.5zM799 1493l53 -55q-81 -71 -119.5 -123.5t-38.5 -95.5q0 -83 74 -185l-119 -98q-36 25 -67 72.5t-31 115.5q0 109 62 195.5 t186 173.5z" />
<glyph unicode="&#x201d;" horiz-adv-x="839" d="M227 961l-53 55q81 71 119.5 123.5t38.5 95.5q0 82 -74 184l119 99q36 -25 67 -73t31 -116q0 -109 -61.5 -195t-186.5 -173zM584 961l-54 55q81 71 119.5 123.5t38.5 95.5q0 82 -74 184l119 99q36 -25 67 -73t31 -116q0 -109 -61.5 -195t-185.5 -173z" />
<glyph unicode="&#x201e;" horiz-adv-x="827" d="M29 -319l-54 55q81 71 119.5 123.5t38.5 95.5q0 82 -74 184l119 99q36 -25 67 -73t31 -116q0 -109 -61.5 -195t-185.5 -173zM385 -319l-53 55q157 139 157 219q0 84 -73 184l119 99q36 -25 67 -73t31 -116q0 -109 -61.5 -195t-186.5 -173z" />
<glyph unicode="&#x2022;" horiz-adv-x="882" d="M164 465q0 114 75 190t189 76t189 -76t75 -190q0 -113 -75 -188.5t-189 -75.5t-189 75.5t-75 188.5z" />
<glyph unicode="&#x2026;" horiz-adv-x="1521" d="M72 104q0 47 37 84t84 37q50 0 86 -36.5t36 -84.5q0 -50 -35.5 -86t-86.5 -36q-48 0 -84.5 36.5t-36.5 85.5zM578 104q0 47 36.5 84t83.5 37q50 0 86.5 -36.5t36.5 -84.5q0 -50 -36 -86t-87 -36q-48 0 -84 36.5t-36 85.5zM1085 104q0 47 37 84t84 37q50 0 86.5 -36.5 t36.5 -84.5q0 -50 -36 -86t-87 -36q-48 0 -84.5 36.5t-36.5 85.5z" />
<glyph unicode="&#x202f;" horiz-adv-x="367" />
<glyph unicode="&#x2039;" horiz-adv-x="602" d="M340 2q-99 101 -172.5 227t-73.5 220q0 113 107.5 245.5t265.5 239.5l74 -98q-125 -97 -190.5 -165t-85 -113t-19.5 -101q0 -100 34.5 -175.5t141.5 -199.5z" />
<glyph unicode="&#x203a;" horiz-adv-x="602" d="M154 854l79 80q99 -99 172.5 -226t73.5 -221q0 -111 -107.5 -245t-265.5 -240l-73 98q125 97 190.5 165t85 113t19.5 101q0 100 -34.5 175.5t-139.5 199.5z" />
<glyph unicode="&#x205f;" horiz-adv-x="458" />
<glyph unicode="&#x20ac;" d="M74 657l12 97h164q21 67 49.5 124t72 109.5t96.5 89t124.5 58.5t155.5 22q160 0 248 -76t61 -211l-139 -24q20 86 -21 140t-152 54q-133 0 -219 -78t-129 -208h402l-15 -97h-411q-20 -88 -23 -188h406l-15 -96h-389q9 -149 70.5 -217t177.5 -68q65 0 117 20t80.5 48 t48 56.5t25.5 48.5l6 20l114 -27q-3 -12 -9.5 -31t-36.5 -67.5t-71 -86t-117.5 -68t-170.5 -30.5q-177 0 -272 98t-107 304h-176l14 96h160q3 96 20 188h-151z" />
<glyph unicode="&#x2122;" horiz-adv-x="1628" d="M850 717v637h174l158 -449l147 449h172v-637h-104v557l-187 -557h-65l-191 549v-549h-104zM229 1260v94h523v-94h-213v-543h-105v543h-205z" />
<glyph unicode="&#x25fc;" horiz-adv-x="942" d="M0 942h942v-942h-942v942z" />
</font>
</defs>
</svg>
