<?xml version="1.0" standalone="no"?>
<!DOCTYPE svg PUBLIC "-//W3C//DTD SVG 1.1//EN" "http://www.w3.org/Graphics/SVG/1.1/DTD/svg11.dtd" >
<svg xmlns="http://www.w3.org/2000/svg">
<metadata></metadata>
<defs>
<font id="questa_sansitalic" horiz-adv-x="1105" >
<font-face units-per-em="2048" ascent="1536" descent="-512" />
<missing-glyph horiz-adv-x="477" />
<glyph unicode="&#xfb01;" horiz-adv-x="1062" d="M88 809l16 131h160l19 133q10 76 26 136t45.5 115.5t70.5 92t102.5 58.5t140.5 22q102 0 181.5 -38t106.5 -124l-141 -82q-24 109 -151 109q-67 0 -108.5 -23.5t-71 -90t-44.5 -187.5l-16 -121h543l-133 -940h-160l114 809h-380l-111 -881q-29 -222 -117 -323t-241 -101 q-137 0 -220 78l101 121q29 -41 59 -52t74 -11q147 0 186 301l109 868h-160z" />
<glyph unicode="&#xfb02;" horiz-adv-x="1077" d="M686 0l186 1329q-61 33 -157 33q-62 0 -109.5 -19.5t-75.5 -48t-48 -71.5t-28 -79.5t-14 -82.5l-16 -121h270l-16 -131h-270l-111 -881q-29 -222 -117 -323t-241 -101q-137 0 -220 78l101 121q29 -41 59 -52t74 -11q147 0 186 301l109 868h-160l16 131h160l19 133 q55 424 436 424q97 0 176 -27h158l-207 -1470h-160z" />
<glyph unicode="&#xfb03;" horiz-adv-x="1650" d="M309 -389l101 121q29 -41 59.5 -52.5t73.5 -11.5q147 0 186 301l107 840h-428l-109 -852q-59 -453 -360 -453q-137 0 -220 78l101 121q29 -41 59 -52t74 -11q147 0 186 301l109 868h-160l16 131h160l15 102q12 96 34 168t63 132.5t108 92t159 31.5q87 0 157.5 -37 t90.5 -114l-141 -82q-7 49 -38 73.5t-73 24.5q-93 0 -137.5 -68t-65.5 -233l-12 -90h428l18 133q12 95 37.5 168t69.5 132.5t114 91.5t164 32q102 0 182 -38t107 -124l-141 -82q-21 109 -152 109q-57 0 -98 -23t-65.5 -67t-38 -93.5t-21.5 -117.5l-16 -121h542l-133 -940 h-159l114 809h-381l-108 -852q-29 -222 -117 -323t-242 -101q-136 0 -219 78z" />
<glyph unicode="&#xfb04;" horiz-adv-x="1662" d="M309 -389l101 121q29 -41 59.5 -52.5t73.5 -11.5q147 0 186 301l107 840h-428l-109 -852q-59 -453 -360 -453q-137 0 -220 78l101 121q29 -41 59 -52t74 -11q147 0 186 301l109 868h-160l16 131h160l15 102q12 96 34 168t63 132.5t108 92t159 31.5q87 0 157.5 -37 t90.5 -114l-141 -82q-7 49 -38 73.5t-73 24.5q-93 0 -137.5 -68t-65.5 -233l-12 -90h428l18 133q55 424 437 424q97 0 176 -27h155l-206 -1470h-160l186 1329q-61 33 -155 33q-62 0 -109.5 -19.5t-75.5 -48t-48 -71.5t-28 -79.5t-14 -82.5l-16 -121h270l-16 -131h-271 l-108 -852q-29 -222 -117 -323t-242 -101q-136 0 -219 78z" />
<glyph horiz-adv-x="2048" />
<glyph horiz-adv-x="2048" />
<glyph unicode="&#xd;" horiz-adv-x="2048" />
<glyph unicode=" "  horiz-adv-x="477" />
<glyph unicode="&#x09;" horiz-adv-x="477" />
<glyph unicode="&#xa0;" horiz-adv-x="477" />
<glyph unicode="!" horiz-adv-x="507" d="M270 1354h189q-56 -301 -156 -914h-129q94 888 96 914zM57 113q0 54 39.5 93.5t93.5 39.5q55 0 95.5 -39.5t40.5 -93.5t-40.5 -93.5t-95.5 -39.5q-54 0 -93.5 39.5t-39.5 93.5z" />
<glyph unicode="&#x22;" horiz-adv-x="749" d="M207 922q41 453 57 559h160l-100 -559h-117zM524 922q42 453 58 559h159l-100 -559h-117z" />
<glyph unicode="#" horiz-adv-x="1306" d="M135 705l25 120h268l96 445h127l-96 -445h301l96 445h127l-96 -445h256l-27 -120h-254l-57 -265h273l-27 -121h-270l-95 -442h-129l95 442h-299l-95 -442h-129l94 442h-251l26 121h252l55 265h-266zM530 705l-57 -265h301l55 265h-299z" />
<glyph unicode="$" d="M401 -184l23 157q-139 11 -226 83t-87 192q0 30 6 65l149 25q-6 -34 -6 -64q0 -160 180 -180l58 406q-52 26 -83.5 43.5t-74 49t-66.5 63t-41.5 78t-17.5 100.5q0 146 102.5 229t272.5 86l22 156h99l-23 -162q123 -15 204 -76t81 -162q0 -34 -8 -67l-152 -31q4 18 4 53 q0 69 -38 110t-109 52l-56 -395q39 -19 62 -30.5t58.5 -32t57 -37t47 -42t39.5 -51t23.5 -59t9.5 -70.5q0 -138 -105.5 -229t-283.5 -103l-22 -157h-99zM741 279q0 57 -39.5 98.5t-111.5 77.5l-51 -361q90 9 146 57t56 128zM379 848q0 -57 37 -97.5t106 -76.5l51 352 q-91 -8 -142.5 -54.5t-51.5 -123.5z" />
<glyph unicode="%" horiz-adv-x="1710" d="M141 1055q0 133 93.5 225t226.5 92t226 -92t93 -225q0 -132 -93.5 -224t-225.5 -92t-226 92t-94 224zM379 0l848 1354h141l-850 -1354h-139zM461 852q78 0 134 61t56 142q0 82 -55.5 142t-134.5 60q-78 0 -134.5 -60t-56.5 -142q0 -80 57 -141.5t134 -61.5zM961 297 q0 132 92.5 223.5t224.5 91.5q134 0 226.5 -91.5t92.5 -223.5q0 -133 -92.5 -225t-226.5 -92q-132 0 -224.5 92t-92.5 225zM1278 94q79 0 135.5 60.5t56.5 142.5q0 81 -56.5 142t-135.5 61q-77 0 -134 -61.5t-57 -141.5q0 -82 56.5 -142.5t134.5 -60.5z" />
<glyph unicode="&#x26;" horiz-adv-x="1419" d="M86 322q0 153 90 272.5t275 193.5q-54 141 -54 213q0 178 89.5 279.5t275.5 101.5q144 0 223.5 -65t79.5 -189q0 -42 -4 -67l-160 -31q6 37 6 70q0 78 -44.5 112.5t-117.5 34.5q-92 0 -141 -62.5t-49 -166.5q0 -105 104.5 -331.5t210.5 -395.5q158 142 158 278 q0 54 -32 86.5t-87 32.5l-30 -2l18 121q16 4 59 4q103 0 159 -61t56 -152q0 -224 -225 -412q70 -84 123 -84q50 0 78.5 26t28.5 71q0 20 -11 57l148 20q10 -45 10 -77q0 -101 -71 -164.5t-193 -63.5q-137 0 -242 119q-19 -15 -44 -30.5t-71 -38t-111 -36.5t-136 -14 q-72 0 -138 24t-117.5 68t-82.5 111.5t-31 147.5zM741 199q-121 200 -239 467q-117 -45 -179.5 -128t-62.5 -188q0 -115 67 -178t169 -63q124 0 245 90z" />
<glyph unicode="'" horiz-adv-x="432" d="M207 922q39 453 55 559h162l-102 -559h-115z" />
<glyph unicode="(" horiz-adv-x="692" d="M90 367q0 334 150 639.5t419 494.5l82 -112q-89 -58 -175 -154.5t-156 -218.5q-57 -98 -85.5 -198t-54.5 -275q-22 -171 -22 -269q0 -179 78 -371.5t176 -301.5l-115 -88q-129 152 -213 375t-84 479z" />
<glyph unicode=")" horiz-adv-x="690" d="M-68 -375q89 58 175.5 154.5t156.5 218.5q56 98 84.5 197.5t54.5 275.5q23 179 23 268q0 179 -78 372t-176 302l115 88q129 -152 213 -375t84 -479q0 -333 -150.5 -639t-419.5 -495z" />
<glyph unicode="*" horiz-adv-x="1198" d="M618 1083q-43 236 -43 398h166l-43 -398h-80zM563 985q-237 33 -391 82l51 158l365 -162zM641 901q-105 -217 -199 -348l-135 98l266 297zM743 950q175 -168 269 -297l-135 -98l-199 344zM729 1061q215 115 367 164l51 -160l-389 -82z" />
<glyph unicode="+" d="M82 434v123h395v428h131v-428h391v-123h-391v-434h-131v434h-395z" />
<glyph unicode="," horiz-adv-x="479" d="M33 -332l-62 70q79 67 118.5 119.5t39.5 103.5q0 45 -18.5 83.5t-57.5 96.5l131 111q42 -18 76.5 -65.5t34.5 -127.5q0 -116 -67 -210t-195 -181z" />
<glyph unicode="-" horiz-adv-x="784" d="M117 391l22 160h500l-23 -160h-499z" />
<glyph unicode="." horiz-adv-x="512" d="M63 113q0 54 40 93.5t94 39.5q55 0 95 -39.5t40 -93.5t-40 -93.5t-95 -39.5q-54 0 -94 39.5t-40 93.5z" />
<glyph unicode="/" horiz-adv-x="913" d="M-94 -467l932 1937h151l-932 -1937h-151z" />
<glyph unicode="0" horiz-adv-x="1101" d="M492 -29q-186 0 -287 106t-101 314q0 292 135.5 466.5t356.5 174.5q182 0 283.5 -115t101.5 -309q0 -136 -39 -255.5t-105 -202.5t-156 -131t-189 -48zM492 117q92 0 167.5 63.5t117.5 172t42 239.5q0 134 -57.5 214.5t-165.5 80.5q-69 0 -126 -30t-94 -79t-63 -113.5 t-37.5 -130t-11.5 -131.5q0 -286 228 -286z" />
<glyph unicode="1" horiz-adv-x="911" d="M41 0l20 145h281l100 705l-268 -29l10 146l441 49l-123 -871h280l-20 -145h-721z" />
<glyph unicode="2" horiz-adv-x="1032" d="M522 897q-53 0 -92.5 -18t-63.5 -52.5t-37.5 -73.5t-21.5 -91l-147 34q18 164 121 250t260 86q151 0 245.5 -73.5t94.5 -210.5q0 -56 -19 -112t-47.5 -102.5t-75 -95.5t-88.5 -85t-102 -78t-102 -68.5t-101 -61.5h535l-21 -145h-829l14 102q34 22 107 67t114.5 71.5 t107.5 71.5t105.5 77.5t87 78.5t73.5 85t44 86.5t18 93.5q0 77 -46.5 120.5t-133.5 43.5z" />
<glyph unicode="3" horiz-adv-x="997" d="M16 -55l156 35q-28 -80 17.5 -134.5t164.5 -54.5q74 0 130 23t87.5 62t46.5 84t15 95q0 111 -74.5 173.5t-226.5 62.5h-47l18 145h43q88 0 164 30t127 96t51 157t-41 134.5t-133 43.5q-96 0 -153.5 -46.5t-57.5 -148.5l-156 33q0 139 106.5 218t272.5 79q156 0 249 -76.5 t93 -222.5q0 -139 -84.5 -235.5t-224.5 -126.5q111 -28 181.5 -102.5t70.5 -200.5q0 -81 -32.5 -155t-91 -131.5t-147 -91.5t-192.5 -34q-57 0 -109 10t-99.5 31.5t-78.5 55.5t-45.5 81.5t0.5 110.5z" />
<glyph unicode="4" horiz-adv-x="1099" d="M4 39l16 123l717 842h125l-114 -820h221l-23 -145h-219l-49 -356h-154l49 356h-569zM213 184h381l74 533z" />
<glyph unicode="5" horiz-adv-x="937" d="M18 -53l152 35q-26 -76 19.5 -133.5t144.5 -57.5q117 0 188.5 83t71.5 210q0 75 -29.5 130.5t-74 86t-110.5 49t-124.5 24t-130.5 5.5l113 625h604l-23 -146h-448l-64 -362q94 -5 174.5 -31t146 -72.5t103 -121t37.5 -169.5q0 -85 -29 -164t-82.5 -142.5t-138.5 -101.5 t-188 -38q-99 0 -176.5 33t-116.5 100.5t-19 157.5z" />
<glyph unicode="6" horiz-adv-x="1071" d="M117 393q0 70 8.5 152t29.5 179t51.5 188.5t79 177.5t108 150t142.5 103t179 39q56 0 108 -13t96.5 -38.5t71.5 -70.5t27 -103q0 -23 -4 -51l-154 -35q2 8 2 31q0 69 -41.5 108t-111.5 39q-76 0 -140.5 -44t-111 -121t-78.5 -167t-53 -196q105 131 292 131 q310 0 310 -356q0 -232 -128.5 -378.5t-338.5 -146.5q-344 0 -344 422zM582 715q-113 0 -190 -66.5t-99 -146.5q-6 -80 -6 -148q0 -128 43 -188t141 -60q60 0 108.5 22t80.5 59.5t53.5 88t31 105.5t9.5 115q0 115 -38.5 167t-133.5 52z" />
<glyph unicode="7" horiz-adv-x="933" d="M96 653l51 351h768l-16 -125q-240 -416 -379.5 -696.5t-200.5 -499.5h-167q57 216 186.5 483t374.5 692h-443l-28 -205h-146z" />
<glyph unicode="8" horiz-adv-x="1036" d="M80 276q0 78 29.5 146.5t84 122.5t108 92t126.5 78q-84 70 -131 143t-47 170q0 153 106.5 253.5t288.5 100.5q149 0 232.5 -80t83.5 -206q0 -65 -22 -121t-65 -102.5t-84 -78.5t-102 -71q89 -75 140 -153.5t51 -180.5q0 -82 -29 -156.5t-83 -133t-140.5 -93.5t-192.5 -35 q-65 0 -125 17t-113 52t-84.5 96t-31.5 140zM711 354q0 57 -27 110t-61 88t-91 81q-43 -24 -63.5 -36t-58.5 -36.5t-57.5 -42t-46.5 -45.5t-40 -53.5t-23 -59.5t-10 -71q0 -91 59.5 -137t143.5 -46q123 0 199 70t76 178zM418 1047q0 -67 42.5 -122t123.5 -120q50 32 84.5 59 t69 63.5t52 80t17.5 92.5q0 70 -46 108.5t-120 38.5q-113 0 -168 -58t-55 -142z" />
<glyph unicode="9" horiz-adv-x="1050" d="M113 518q0 229 127.5 371.5t337.5 142.5q165 0 255.5 -104t90.5 -320q0 -73 -8.5 -155t-29.5 -175.5t-51.5 -180.5t-79 -168t-108 -141t-142.5 -96t-179 -36q-138 0 -222.5 71t-66.5 203l147 35q-15 -77 30 -125.5t132 -48.5q75 0 138 40.5t107.5 111.5t75 152.5 t50.5 178.5q-103 -120 -293 -120q-311 0 -311 364zM461 289q113 0 190.5 67t98.5 144q4 78 4 108q0 150 -43.5 219.5t-143.5 69.5q-60 0 -108 -21.5t-79.5 -57t-53 -84.5t-30.5 -102.5t-9 -111.5q0 -121 39 -176t135 -55z" />
<glyph unicode=":" horiz-adv-x="569" d="M100 113q0 54 39.5 93.5t93.5 39.5q55 0 95.5 -39.5t40.5 -93.5t-40.5 -93.5t-95.5 -39.5q-54 0 -93.5 39.5t-39.5 93.5zM174 827q0 54 39.5 94t93.5 40q55 0 95 -40t40 -94t-40 -93.5t-95 -39.5q-54 0 -93.5 39.5t-39.5 93.5z" />
<glyph unicode=";" horiz-adv-x="561" d="M160 827q0 54 39.5 94t93.5 40q55 0 95 -40t40 -94t-40 -93.5t-95 -39.5q-54 0 -93.5 39.5t-39.5 93.5zM100 -332l-61 70q79 67 118.5 119.5t39.5 103.5q0 45 -18.5 83.5t-57.5 96.5l131 111q42 -18 76 -65.5t34 -127.5q0 -116 -67 -210t-195 -181z" />
<glyph unicode="&#x3c;" d="M55 444v111l873 459l51 -123l-764 -391l764 -412l-51 -121z" />
<glyph unicode="=" d="M82 618v123h917v-123h-917zM82 250v123h917v-123h-917z" />
<glyph unicode="&#x3e;" d="M158 -33l-52 121l764 412l-764 391l52 123l872 -459v-111z" />
<glyph unicode="?" horiz-adv-x="964" d="M502 416q-74 0 -125 43.5t-51 115.5q0 57 24 103.5t63 78.5t85.5 59.5t93 53t85.5 51.5t63 61.5t24 78.5q0 190 -205 190q-152 0 -204.5 -70.5t-41.5 -219.5l-155 34q-30 189 82.5 288t328.5 99q182 0 281.5 -78t99.5 -210q0 -64 -25.5 -119t-65.5 -93t-89 -70.5 t-98 -57.5t-89 -47.5t-65.5 -47t-25.5 -49.5q0 -75 94 -51l26 -127q-46 -16 -110 -16zM289 113q0 54 39.5 93.5t93.5 39.5q55 0 95 -39.5t40 -93.5t-40 -93.5t-95 -39.5q-54 0 -93.5 39.5t-39.5 93.5z" />
<glyph unicode="@" horiz-adv-x="1728" d="M102 428q0 159 57 305.5t158 258t250.5 178.5t323.5 67q155 0 286.5 -53t222.5 -146t142 -222.5t51 -278.5q0 -73 -11 -144t-39 -143.5t-70 -126.5t-110.5 -88.5t-154.5 -34.5q-104 0 -153.5 48t-38.5 136h-4q-145 -186 -310 -186q-117 0 -185 84t-68 233 q0 98 30.5 201.5t84 192t137 145.5t178.5 57q142 0 211 -123l57 107h98l-94 -641q-9 -67 9.5 -99t70.5 -32q97 0 162 100.5t65 284.5q0 274 -150.5 440t-412.5 166q-148 0 -273 -55.5t-208 -149.5t-129.5 -217.5t-46.5 -259.5q0 -131 43.5 -247.5t125 -205.5t207 -140.5 t279.5 -51.5q83 0 166 14v-120q-96 -17 -187 -17q-151 0 -279 43t-217 116.5t-152 171.5t-92.5 207.5t-29.5 225.5zM610 313q0 -84 31 -137t90 -53q72 0 148 77t124 184.5t48 195.5q0 84 -45 147.5t-117 63.5q-61 0 -115.5 -49.5t-89 -123.5t-54.5 -155.5t-20 -149.5z" />
<glyph unicode="A" horiz-adv-x="1230" d="M659 1354h132l319 -1354h-180l-92 395h-490l-203 -395h-182zM586 860l-162 -315h381l-72 315q-28 134 -41 227q-62 -139 -106 -227z" />
<glyph unicode="B" horiz-adv-x="1185" d="M309 1354h359q210 0 308.5 -80t98.5 -219q0 -73 -20.5 -133.5t-55 -101.5t-72.5 -68t-81 -43l-2 -9q97 -31 152 -104t55 -174q0 -86 -33.5 -162t-96.5 -134t-162 -92t-222 -34h-418zM608 616h-231l-66 -464h201q182 0 266 74t84 204q0 51 -20 88t-56 58t-80 30.5t-98 9.5 zM645 1202h-184l-62 -434h226q123 0 191.5 67.5t68.5 196.5q0 86 -58.5 128t-181.5 42z" />
<glyph unicode="C" horiz-adv-x="1294" d="M125 541q0 119 24 235t77.5 226.5t131 194t195 134.5t258.5 51q204 0 323 -85t119 -224q0 -38 -10 -90l-174 -37q23 130 -41.5 209.5t-220.5 79.5q-94 0 -172 -30.5t-130.5 -85t-91 -122t-59.5 -148.5t-31 -158t-10 -156q0 -213 79.5 -314.5t240.5 -101.5q62 0 119 14.5 t109.5 45t91.5 85.5t55 129l161 -43q-29 -80 -72 -145t-107 -119.5t-155.5 -84.5t-203.5 -30q-130 0 -228 41.5t-158 118.5t-90 179.5t-30 230.5z" />
<glyph unicode="D" horiz-adv-x="1366" d="M561 0h-442l190 1354h402q277 0 419 -145.5t142 -395.5q0 -101 -20 -199t-59 -189t-99.5 -168t-137.5 -134.5t-178.5 -90t-216.5 -32.5zM692 1202h-231l-150 -1050h244q93 0 171 26.5t131 70t94.5 103t66 120.5t39.5 128.5t20.5 121t5.5 103.5q0 377 -391 377z" />
<glyph unicode="E" horiz-adv-x="1130" d="M309 1354h803l-22 -158h-631l-62 -434h527l-21 -158h-528l-62 -446h643l-22 -158h-815z" />
<glyph unicode="F" horiz-adv-x="1079" d="M119 0l190 1354h791l-23 -158h-618l-62 -434h535l-21 -158h-536l-84 -604h-172z" />
<glyph unicode="G" horiz-adv-x="1339" d="M127 524q0 190 47.5 348.5t135.5 271.5t219 175.5t292 62.5q210 0 324.5 -97.5t114.5 -252.5l-5 -49l-180 -37q11 136 -53 212.5t-213 76.5q-85 0 -156 -25.5t-121 -68t-89 -102.5t-62.5 -124.5t-39 -138t-21 -138.5t-5.5 -132q0 -387 332 -387q146 0 251.5 69.5 t123.5 206.5l10 82h-330l21 154h504l-35 -244q-27 -184 -169.5 -300t-373.5 -116q-262 0 -392 145.5t-130 407.5z" />
<glyph unicode="H" horiz-adv-x="1466" d="M1206 1354h172l-190 -1354h-172l84 604h-725l-84 -604h-172l190 1354h172l-84 -592h725z" />
<glyph unicode="I" horiz-adv-x="569" d="M309 1354h172l-190 -1354h-172z" />
<glyph unicode="J" horiz-adv-x="583" d="M328 1354h172l-156 -1106q-14 -99 -37.5 -178.5t-64 -151.5t-95.5 -120.5t-134 -76.5t-177 -28q-16 0 -31.5 1.5t-22.5 3.5l-7 1l20 151q18 -4 53 -4q138 0 217.5 103.5t110.5 324.5z" />
<glyph unicode="K" horiz-adv-x="1193" d="M864 0l-395 621h-92l-86 -621h-172l190 1354h172l-80 -561h78l543 561h221l-629 -637l463 -717h-213z" />
<glyph unicode="L" horiz-adv-x="1024" d="M309 1354h172l-170 -1200h611l-23 -154h-780z" />
<glyph unicode="M" horiz-adv-x="1675" d="M119 0l190 1354h238l196 -867q28 -123 43 -233q62 139 109 233l444 867h248l-190 -1354h-172l123 870q16 120 43 275q-83 -189 -123 -266l-451 -879h-131l-203 879q-28 118 -49 260l-33 -262l-122 -877h-160z" />
<glyph unicode="N" horiz-adv-x="1443" d="M119 0l190 1354h162l461 -822q18 -31 119 -229q16 157 30 252l113 799h162l-191 -1354h-131l-497 885q-51 90 -107 217q-15 -152 -29 -246l-120 -856h-162z" />
<glyph unicode="O" horiz-adv-x="1417" d="M127 528q0 249 83 442.5t239.5 302.5t363.5 109q244 0 377 -140.5t133 -397.5q0 -246 -83.5 -443.5t-242 -313.5t-364.5 -116q-248 0 -377 150.5t-129 406.5zM315 508q0 -201 85 -295t239 -94q106 0 192.5 45.5t142 119t93 170.5t53 195.5t15.5 198.5q0 197 -85.5 292 t-242.5 95q-106 0 -192 -45.5t-141 -118.5t-91.5 -170.5t-52 -195t-15.5 -197.5z" />
<glyph unicode="P" horiz-adv-x="1130" d="M309 1354h346q227 0 333 -97t106 -262q0 -226 -158 -366t-408 -140h-170l-67 -489h-172zM635 1202h-176l-78 -561h156q174 0 271 91.5t97 254.5q0 107 -65.5 161t-204.5 54z" />
<glyph unicode="Q" horiz-adv-x="1415" d="M127 528q0 249 83 442.5t239.5 302.5t363.5 109q244 0 377 -140.5t133 -397.5q0 -323 -142.5 -556.5t-385.5 -295.5q175 -199 395 -199q53 0 94 10l-24 -151q-55 -8 -113 -8q-246 0 -473 241l-80 88q-230 12 -348.5 160.5t-118.5 394.5zM315 508q0 -201 85 -295t239 -94 q106 0 192.5 45.5t142 119t93 170.5t53 195.5t15.5 198.5q0 197 -85.5 292t-242.5 95q-106 0 -192 -45.5t-141 -118.5t-91.5 -170.5t-52 -195t-15.5 -197.5z" />
<glyph unicode="R" horiz-adv-x="1179" d="M307 1354h361q206 0 304.5 -85.5t98.5 -234.5q0 -147 -86.5 -253.5t-224.5 -151.5q100 -58 127 -226q3 -20 6.5 -59t6.5 -62.5t10.5 -54.5t18 -49t30.5 -30.5t47 -12.5q10 0 34 4l-51 -145q-36 -4 -53 -4q-28 0 -52 5.5t-42 14t-33 24.5t-25.5 29.5t-19 38t-13.5 40.5 t-10 46t-7 46.5t-5.5 49.5t-5.5 48q-8 59 -20 99.5t-36.5 78.5t-67.5 57t-105 19h-123l-82 -586h-172zM639 1202h-182l-66 -465h182q155 0 232.5 77.5t77.5 209.5q0 97 -51.5 137.5t-192.5 40.5z" />
<glyph unicode="S" horiz-adv-x="1120" d="M500 119q126 0 211.5 59t85.5 160q0 62 -33 111t-85.5 82.5t-116 64.5t-127 67t-116 80t-85.5 113.5t-33 157.5q0 170 120.5 269t317.5 99q71 0 135.5 -13t119.5 -42t92 -70.5t53 -102.5t3 -134l-174 -37q19 120 -40.5 186t-182.5 66q-118 0 -189 -58.5t-71 -154.5 q0 -61 33 -110t85.5 -83.5t116 -66.5t127 -68t116 -79t85.5 -108t33 -147q0 -166 -129 -277.5t-344 -111.5q-99 0 -183.5 25.5t-146 73.5t-88 126t-8.5 175l172 37q-22 -133 39.5 -211t206.5 -78z" />
<glyph unicode="T" horiz-adv-x="1185" d="M131 1206l19 148h1103l-20 -148h-465l-170 -1206h-172l168 1206h-463z" />
<glyph unicode="U" horiz-adv-x="1400" d="M180 539l115 815h172l-117 -826q-7 -62 -8.5 -120t16 -109.5t49 -90t92 -61t144.5 -22.5q352 0 406 387l118 842h164l-121 -852q-17 -119 -58.5 -214t-110.5 -167t-171.5 -111t-232.5 -39q-273 0 -385 149t-72 419z" />
<glyph unicode="V" horiz-adv-x="1234" d="M604 0h-131l-328 1354h179l260 -1092l135 227q93 157 148.5 261t100 211.5t63 200t18.5 192.5h172q0 -206 -81.5 -410t-285.5 -536z" />
<glyph unicode="W" horiz-adv-x="1916" d="M1296 0h-131l-166 682l-397 -682h-131l-328 1354h179l260 -1092l364 641l-108 451h178l260 -1092l135 227q90 156 144.5 261t97.5 211.5t60.5 199.5t17.5 193h172q0 -206 -79.5 -409.5t-277.5 -536.5z" />
<glyph unicode="X" horiz-adv-x="1144" d="M1001 0h-190l-248 535l-395 -535h-201l522 694l-303 660h191l237 -516l381 516h203l-510 -678z" />
<glyph unicode="Y" horiz-adv-x="1177" d="M598 0h-172l74 524l-361 830h191l274 -647l438 647h197l-567 -832z" />
<glyph unicode="Z" horiz-adv-x="1165" d="M203 1196l22 158h940l-18 -133l-875 -1063h736l-23 -158h-969l19 133l874 1063h-706z" />
<glyph unicode="[" horiz-adv-x="610" d="M8 -467l273 1937h376l-16 -116h-231l-240 -1704h231l-16 -117h-377z" />
<glyph unicode="\" horiz-adv-x="944" d="M610 -467l-436 1937h141l437 -1937h-142z" />
<glyph unicode="]" horiz-adv-x="606" d="M-51 -350h229l240 1704h-232l17 116h377l-273 -1937h-375z" />
<glyph unicode="^" horiz-adv-x="1163" d="M80 408l424 958h143l426 -956l-162 -2l-338 753l-329 -753h-164z" />
<glyph unicode="_" horiz-adv-x="1314" d="M63 0h1024v-129h-1024v129z" />
<glyph unicode="`" horiz-adv-x="1024" d="M512 1071l-262 387l141 84l227 -412z" />
<glyph unicode="a" horiz-adv-x="1030" d="M809 940h119l-131 -940h-150l25 193h-6q-30 -47 -59 -82.5t-68 -69.5t-88.5 -52t-106.5 -18q-125 0 -198.5 91.5t-73.5 265.5q0 115 33 228.5t91.5 205.5t148.5 149.5t194 57.5q159 0 225 -131zM246 319q0 -88 34.5 -150.5t96.5 -62.5q79 0 160.5 81.5t131.5 198.5 t50 220q0 96 -46.5 162t-125.5 66q-78 0 -148 -75t-111.5 -194.5t-41.5 -245.5z" />
<glyph unicode="b" horiz-adv-x="1067" d="M195 0h-121l207 1470h159l-73 -530q-2 -14 -17 -98t-18 -94h6q135 221 334 221q134 0 215.5 -95t81.5 -264q0 -82 -19 -168.5t-59.5 -171t-96 -151t-137 -107.5t-174.5 -41q-169 0 -245 133zM641 834q-81 0 -166 -85t-137.5 -203t-52.5 -216q0 -60 18 -109t60.5 -82 t103.5 -33q78 0 143.5 53t104 133t59.5 164.5t21 155.5q0 103 -43 162.5t-111 59.5z" />
<glyph unicode="c" horiz-adv-x="911" d="M78 362q0 82 15.5 163.5t52 162.5t90 142.5t137 100t186.5 38.5q154 0 233 -78.5t39 -214.5l-161 -29q27 82 -3.5 134.5t-117.5 52.5q-63 0 -114 -30.5t-84.5 -80t-56 -114.5t-32.5 -130t-10 -131q0 -242 178 -242q84 0 140.5 51t86.5 128l131 -43q-19 -42 -35.5 -72.5 t-48.5 -71t-68 -65.5t-92 -43.5t-122 -18.5q-344 0 -344 391z" />
<glyph unicode="d" horiz-adv-x="1058" d="M72 330q0 68 14 140.5t40 144t68 135.5t94 113t121 77.5t146 28.5q154 0 229 -121l88 622h160l-207 -1470h-139l16 195h-6q-59 -98 -145 -161t-193 -63q-132 0 -209 97t-77 262zM397 106q80 0 164 83.5t136.5 202t52.5 220.5q0 92 -45.5 157t-133.5 65 q-62 0 -116.5 -35.5t-91.5 -91t-63.5 -123.5t-39 -134t-12.5 -122q0 -103 41 -162.5t108 -59.5z" />
<glyph unicode="e" horiz-adv-x="919" d="M471 444l-219 -79v-3q0 -256 176 -256q163 0 238 179l131 -43q-26 -59 -55 -102.5t-73.5 -84.5t-108.5 -62.5t-146 -21.5q-162 0 -249 97.5t-87 298.5q0 68 11.5 136t34.5 136.5t62.5 127t91.5 104.5t125 72t160 26q118 0 195.5 -53t77.5 -160q0 -65 -28 -115t-88 -87 t-101 -54.5t-120 -45.5q-19 -7 -28 -10zM547 834q-60 0 -110 -28t-84 -76t-56.5 -106t-34.5 -126l170 63q33 12 45 16.5t43.5 18t45.5 22.5t37 24.5t33.5 30.5t19 35t8.5 42q0 38 -30 61t-87 23z" />
<glyph unicode="f" horiz-adv-x="688" d="M88 809l16 131h160l19 133q12 95 35.5 167.5t64.5 132.5t108 92t156 32q61 0 112 -13.5t95 -51.5t61 -97l-141 -82q-16 109 -131 109q-88 0 -135.5 -69.5t-67.5 -231.5l-16 -121h270l-16 -131h-270l-111 -881q-29 -222 -117 -323t-241 -101q-137 0 -220 78l101 121 q29 -41 59 -52t74 -11q147 0 186 301l109 868h-160z" />
<glyph unicode="g" horiz-adv-x="985" d="M51 164q0 71 41 122.5t115 96.5q-62 83 -62 207q0 170 107 274.5t297 104.5q154 0 239 -82q61 61 58 151l-2 52l139 -21q3 -38 0 -68q-15 -128 -137 -198q28 -67 28 -152q0 -171 -112.5 -277t-292.5 -106q-107 0 -180 43q-84 -57 -84 -110q0 -29 16 -48t63 -30.5 t71.5 -14.5t101.5 -10q27 -3 41 -4q55 -5 94.5 -10.5t89 -17.5t83.5 -31.5t64.5 -48.5t46 -72.5t15.5 -99.5q0 -148 -127 -229t-346 -81q-198 0 -315 68.5t-117 175.5q0 41 18 81.5t47 72t56.5 54t56.5 40.5q-113 52 -113 168zM461 -59q-161 18 -164 18q-150 -85 -150 -190 q0 -66 79.5 -100t197.5 -34q128 0 215.5 40.5t87.5 117.5q0 75 -61.5 105t-204.5 43zM479 393q111 0 168.5 72.5t57.5 193.5q0 94 -35.5 139.5t-124.5 45.5q-113 0 -172.5 -68t-59.5 -192q0 -191 166 -191z" />
<glyph unicode="h" horiz-adv-x="1069" d="M264 215v6l-31 -221h-159l205 1470h159l-86 -616l-30 -174l8 -2q24 49 55 93t79 92t116 77t145 29q51 0 90 -13.5t62.5 -34.5t38 -54.5t20 -65.5t5 -75.5t-4 -77t-10.5 -77.5l-80 -571h-160l82 569q5 38 7.5 64.5t3 59t-5 54.5t-16 41.5t-31 29t-48.5 9.5 q-63 0 -126.5 -51t-112 -126.5t-88 -161.5t-61.5 -158.5t-26 -114.5z" />
<glyph unicode="i" horiz-adv-x="466" d="M74 0l133 940h160l-134 -940h-159zM223 1266q0 46 32 78t79 32q46 0 78 -32t32 -78q0 -47 -32 -79t-78 -32q-47 0 -79 32t-32 79z" />
<glyph unicode="j" horiz-adv-x="466" d="M86 84l121 856h160l-123 -874q-12 -82 -27.5 -150.5t-49.5 -149.5t-79.5 -136t-119.5 -91.5t-167 -34.5q-33 0 -94 11l17 133q95 -19 162.5 8t106 98.5t58.5 145t35 184.5zM227 1260q0 46 32 82t83 36q40 0 69 -29t29 -71q0 -47 -30 -84t-82 -37q-41 0 -71 30t-30 73z " />
<glyph unicode="k" horiz-adv-x="937" d="M948 940l-456 -438l331 -502h-198l-285 444h-43l-61 -444h-160l207 1470h159l-127 -895h37l379 365h217z" />
<glyph unicode="l" horiz-adv-x="468" d="M76 0l207 1470h159l-206 -1470h-160z" />
<glyph unicode="m" horiz-adv-x="1665" d="M266 215v6l-30 -221h-160l131 940h160l-45 -258l10 -4q24 49 55 93t79 92t116 77t145 29q53 0 91.5 -16.5t60 -42.5t33 -65t14.5 -77t0 -86l8 -4q19 38 41 72.5t58.5 76.5t77.5 71.5t98 50t120 20.5q48 0 84.5 -13.5t59.5 -34.5t37 -54t19.5 -65.5t5.5 -76t-3.5 -77.5 t-9.5 -77l-80 -571h-160l82 569q8 67 9.5 124.5t-21 95.5t-70.5 38q-63 0 -126 -51t-111.5 -126.5t-87.5 -161.5t-61 -158.5t-26 -114.5v6l-30 -221h-160l82 569q7 67 8.5 124.5t-20.5 95.5t-70 38q-63 0 -126.5 -51t-112 -126.5t-88 -161.5t-61.5 -158.5t-26 -114.5z" />
<glyph unicode="n" horiz-adv-x="1071" d="M367 940l-45 -258l10 -4q24 49 55 93t79 92t116 77t145 29q51 0 90 -13.5t62.5 -34.5t38 -54.5t20 -65.5t5 -75.5t-4 -77t-10.5 -77.5l-80 -571h-160l82 569q5 38 7.5 64.5t3 59t-5 54.5t-16 41.5t-31 29t-48.5 9.5q-59 0 -119 -44.5t-106.5 -111.5t-86 -147t-64 -151 t-34.5 -123l-4 -31l-30 -219h-160l131 940h160z" />
<glyph unicode="o" horiz-adv-x="1011" d="M578 969q159 0 244 -100t85 -287q0 -92 -17 -178t-56 -165.5t-95.5 -138.5t-141.5 -94t-189 -35q-159 0 -244.5 103t-85.5 291q0 92 17.5 177t57 163.5t96.5 136.5t141.5 92.5t187.5 34.5zM428 106q77 0 138 46t96 119t53 154t18 161q0 127 -42 187.5t-134 60.5 q-77 0 -138 -46t-96 -118.5t-53 -153.5t-18 -160q0 -131 40 -190.5t136 -59.5z" />
<glyph unicode="p" horiz-adv-x="1048" d="M8 -467l197 1407h155q-12 -107 -30 -195l8 -4q48 90 136 159t192 69q123 0 202.5 -96t79.5 -263q0 -83 -17 -169t-55 -171t-92 -151t-134.5 -107t-176.5 -41q-160 0 -229 107l-76 -545h-160zM276 297q0 -84 49 -137.5t142 -53.5q63 0 116 37t87 94.5t58.5 128t35 135.5 t10.5 120q0 101 -36.5 157t-96.5 56q-81 0 -168 -90.5t-142 -216.5t-55 -230z" />
<glyph unicode="q" horiz-adv-x="1060" d="M72 330q0 103 32 212.5t90 206t153 158.5t208 62q166 0 240 -133l45 104h121l-199 -1407h-160l66 467q5 43 17.5 111.5t16.5 81.5h-6q-133 -222 -329 -222q-131 0 -213 95t-82 264zM248 328q0 -103 42 -162.5t107 -59.5q82 0 165.5 81.5t135.5 200t52 222.5 q0 93 -44.5 158.5t-134.5 65.5q-62 0 -116 -35.5t-91 -91.5t-64 -124t-39.5 -134t-12.5 -121z" />
<glyph unicode="r" horiz-adv-x="739" d="M76 0l131 940h160l-41 -258l8 -4q132 291 325 291q35 0 61.5 -11.5t35.5 -22.5l10 -11l-80 -144q-24 21 -55 21q-138 0 -254 -254q-41 -89 -73.5 -198.5t-43.5 -184.5l-24 -164h-160z" />
<glyph unicode="s" horiz-adv-x="880" d="M133 694q0 118 88.5 196.5t253.5 78.5q54 0 104 -9t97 -29.5t76 -52.5t40.5 -78.5t-8.5 -107.5l-155 -26q24 79 -17 125.5t-139 46.5q-79 0 -126.5 -32t-47.5 -91q0 -38 24.5 -69t63.5 -53.5t86.5 -44t95 -47t86.5 -56.5t63.5 -78t24.5 -105q0 -56 -20.5 -106 t-62.5 -92.5t-114.5 -67.5t-166.5 -25q-48 0 -93 6.5t-89.5 20.5t-77 36.5t-55 55t-24.5 75t15 97.5l152 25q-27 -88 19 -137.5t151 -49.5q94 0 147.5 38t53.5 95q0 38 -24.5 69t-64 54t-86.5 45t-94.5 48t-87 57.5t-64 80t-24.5 107.5z" />
<glyph unicode="t" horiz-adv-x="718" d="M309 1219h150l-45 -279h260l-19 -131h-262l-84 -522q-27 -172 66 -172q45 0 73.5 34t65.5 111l119 -47q-53 -123 -115.5 -178t-163.5 -55q-251 0 -198 339l75 490h-145l18 131h150z" />
<glyph unicode="u" horiz-adv-x="1056" d="M764 715v-2l31 227h159l-88 -625l-37 -315h-159l37 258l-7 4q-17 -37 -39 -72.5t-57.5 -76.5t-75.5 -71.5t-95.5 -50.5t-115.5 -20q-51 0 -89.5 13.5t-62.5 34.5t-38.5 54.5t-20 65.5t-4.5 75.5t4.5 77t10.5 77.5l80 571h159l-82 -569q-6 -45 -8.5 -77t-0.5 -69t12 -59.5 t32 -37.5t56 -15q58 0 117 46t104.5 115.5t83.5 151t61 151.5t31 119v13q0 1 1 3t1 3z" />
<glyph unicode="v" horiz-adv-x="958" d="M145 231v709h154v-657q0 -82 7.5 -122t33.5 -40q29 0 77.5 36.5t100.5 96.5q84 100 145.5 219.5t61.5 212.5q0 42 -11.5 70t-29.5 39t-39 16t-39 0l23 135q127 17 191.5 -44t64.5 -179q0 -121 -79.5 -282.5t-195.5 -288.5q-76 -84 -155.5 -132.5t-151.5 -48.5 q-80 0 -119 61.5t-39 198.5z" />
<glyph unicode="w" horiz-adv-x="1472" d="M659 231v21q-66 -125 -155.5 -203t-200.5 -78q-80 0 -119 61.5t-39 198.5v709h154v-657q0 -81 10 -121.5t45 -40.5q56 0 127.5 83.5t125.5 202.5t67 220l22 313h156q-37 -432 -37 -657q0 -77 9 -119.5t34 -42.5q29 0 76.5 36.5t97.5 96.5q84 98 145.5 218t61.5 214 q0 79 -35.5 106t-81.5 19l23 135q125 17 190.5 -44t65.5 -179q0 -120 -80 -281.5t-195 -289.5q-75 -84 -156 -132.5t-151 -48.5q-81 0 -120.5 61.5t-39.5 198.5z" />
<glyph unicode="x" horiz-adv-x="888" d="M578 0l-170 348l-263 -348h-178l373 471l-234 469h173l172 -358l270 358h178l-379 -483l228 -457h-170z" />
<glyph unicode="y" horiz-adv-x="970" d="M-61 -418l100 121q43 -63 111 -63q85 0 130.5 94t45.5 256q0 208 -166 723l-74 227h170l61 -192q108 -347 144 -596q22 22 51 59q83 101 154 240.5t71 236.5q0 41 -13 69t-32.5 38.5t-42 15.5t-41.5 0l23 135q131 17 198.5 -43.5t67.5 -177.5q0 -132 -84 -299t-211 -315 q-81 -93 -119 -119q-1 -53 -8 -104.5t-21.5 -108.5t-40 -104.5t-61.5 -87t-89 -61.5t-118 -22q-121 0 -206 78z" />
<glyph unicode="z" horiz-adv-x="878" d="M739 139l-20 -139h-705l13 98l567 703h-471l20 139h680l-12 -98l-569 -703h497z" />
<glyph unicode="{" horiz-adv-x="720" d="M35 453l16 116h62q54 0 95.5 20.5t66.5 53.5t41 78t22 89t6 93q0 36 -3 104.5t-3 102.5q0 59 7 110t26.5 101.5t49.5 86t79 57.5t112 22q43 0 80.5 -12.5t53.5 -25.5l16 -13l-37 -117q-50 41 -109 41q-34 0 -59 -21.5t-38 -57.5t-19 -76t-6 -85q0 -28 2 -85t2 -89 q0 -73 -9.5 -137t-31.5 -126.5t-64.5 -108t-101.5 -64.5q57 -18 86 -79.5t29 -147.5q0 -77 -24 -169.5t-48.5 -179t-24.5 -149.5q0 -145 103 -145q26 0 48.5 5t31.5 10l10 5l2 -121q-53 -26 -123 -26q-110 0 -168.5 73t-58.5 185q0 78 48 234.5t48 234.5q0 213 -152 213h-63 z" />
<glyph unicode="|" horiz-adv-x="573" d="M209 -467v1937h137v-1937h-137z" />
<glyph unicode="}" horiz-adv-x="716" d="M-25 -319q52 -41 107 -41q36 0 61.5 22.5t38.5 61t19 80t6 90.5q0 22 -2 79.5t-2 87.5q0 74 9.5 140t31.5 131.5t64.5 113t101.5 66.5q-115 36 -115 217q0 93 48 257t48 243q0 70 -25 102.5t-81 32.5q-24 0 -45.5 -5t-31.5 -11l-9 -5l-2 121q51 27 125 27q109 0 167 -70 t58 -182q0 -79 -48 -234t-48 -247q0 -189 151 -189h64l-17 -116h-61q-49 0 -87.5 -17t-62.5 -42t-41 -67t-24.5 -78t-10.5 -90t-3 -89t1.5 -88t1.5 -74q0 -80 -12.5 -146.5t-41.5 -124.5t-83.5 -91t-130.5 -33q-30 0 -56.5 5.5t-44 12.5t-30.5 14.5t-19 12.5l-5 6z" />
<glyph unicode="~" horiz-adv-x="1308" d="M221 352l-88 117q56 62 139.5 101.5t171.5 39.5q59 0 117.5 -20t97.5 -44.5t88.5 -44.5t92.5 -20q58 0 117.5 30t103.5 79l86 -117q-54 -60 -140 -100.5t-176 -40.5q-58 0 -115 20t-95.5 44.5t-88 44.5t-94.5 20q-118 0 -217 -109z" />
<glyph unicode="&#xa1;" horiz-adv-x="485" d="M201 -414h-189q56 301 156 914h129q-94 -888 -96 -914zM414 827q0 -54 -39.5 -93.5t-93.5 -39.5q-55 0 -95.5 39.5t-40.5 93.5t40.5 94t95.5 40q54 0 93.5 -40t39.5 -94z" />
<glyph unicode="&#xa2;" d="M424 -184l22 159q-152 17 -230.5 122.5t-78.5 285.5q0 90 15 174t50 164t86 141t129.5 101t174.5 47l22 157h99l-23 -157q65 -6 118.5 -24.5t95 -52.5t60.5 -89.5t9 -128.5l-158 -33q28 189 -141 205l-113 -791q53 6 95.5 27t65.5 46.5t38 49.5t20 41l4 16l134 -22 q-1 -5 -3.5 -15t-13.5 -37.5t-27 -53t-45.5 -57t-66.5 -55t-93.5 -41.5t-123.5 -22l-23 -157h-98zM301 356q0 -229 162 -258l110 783q-61 -13 -109.5 -53t-78.5 -93t-49.5 -120.5t-27 -130.5t-7.5 -128z" />
<glyph unicode="&#xa3;" d="M104 485l15 107h200l35 141q19 75 35 126.5t39 103t50 83t64 57t86 37t111 11.5q156 0 227 -75.5t33 -198.5l-161 -29q30 76 3 128t-104 52q-54 0 -91.5 -22.5t-72 -89t-61.5 -183.5l-33 -141h275l-15 -107h-284l-19 -82q-35 -147 -114 -241q69 -4 170 -31t143 -27 q79 0 121 41.5t39 126.5l147 -30q0 -131 -82 -201t-223 -70q-85 0 -204.5 33.5t-186.5 32.5q-91 0 -213 -47v127q85 21 145 84.5t86 165.5l29 118h-189z" />
<glyph unicode="&#xa5;" d="M164 510l14 102h250l-281 516h181l243 -454l340 454h193l-410 -516h250l-14 -102h-303l-25 -168h303l-14 -102h-303l-33 -240h-158l33 240h-305l14 102h305l23 168h-303z" />
<glyph unicode="&#xa6;" horiz-adv-x="583" d="M209 596v874h147v-874h-147zM209 -467v850h147v-850h-147z" />
<glyph unicode="&#xa7;" horiz-adv-x="921" d="M428 -195h-145q2 16 2 50q0 83 -35 323l-68 463q-14 92 -14 209q0 121 23.5 216.5t73 167t132 110t195.5 38.5q51 0 92 -6t85 -23t76.5 -53t47.5 -90l-127 -88q-19 60 -62 93.5t-102 33.5q-64 0 -111 -18t-77 -49.5t-48 -80.5t-25 -105.5t-7 -131.5q0 -92 16 -198 l68 -465q26 -178 26 -264q0 -72 -16 -132zM4 -324l125 86q23 -75 67.5 -108t122.5 -33q127 0 198 93t71 249q0 77 -15 176l-77 547q-3 22 -11.5 72.5t-13 90.5t-4.5 79q0 89 20 153h121q-14 -38 -14 -94q0 -41 5.5 -89t15.5 -111.5t12 -75.5l75 -545q13 -99 13 -186 q0 -104 -24 -189.5t-72.5 -150.5t-128 -100.5t-185.5 -35.5q-130 0 -201 40t-100 132z" />
<glyph unicode="&#xa8;" horiz-adv-x="1024" d="M737 1145q-44 0 -77 33t-33 77t33 77.5t77 33.5t77.5 -33.5t33.5 -77.5t-33.5 -77t-77.5 -33zM346 1145q-44 0 -77 33t-33 77t33 77.5t77 33.5t77.5 -33.5t33.5 -77.5t-33.5 -77t-77.5 -33z" />
<glyph unicode="&#xa9;" horiz-adv-x="1898" d="M121 584q0 173 65.5 328t176.5 265t264 174t323 64t323.5 -64t265 -174t177.5 -265t66 -328t-66 -327.5t-177.5 -264.5t-265 -174t-323.5 -64q-227 0 -417 108.5t-301 299.5t-111 422zM252 584q0 -197 93 -360t253 -256t352 -93t353 93t254.5 256t93.5 360q0 148 -55 280 t-149 226t-223.5 149t-273.5 55t-273 -55t-222.5 -149t-148 -226t-54.5 -280zM551 590q0 108 22.5 192.5t61 139.5t93 91t115 51t130.5 15q167 0 259.5 -73.5t92.5 -217.5l-170 -30q0 111 -47.5 155.5t-134.5 44.5q-242 0 -242 -372q0 -371 232 -371q43 0 79 11t58.5 28 t39.5 38t25.5 42.5t13.5 38.5t6 28l1 11l143 -33q0 -6 -1.5 -16.5t-9.5 -40t-21.5 -57t-41.5 -60.5t-65 -56.5t-96.5 -40t-132.5 -16.5q-201 0 -305.5 130t-104.5 368z" />
<glyph unicode="&#xaa;" horiz-adv-x="837" d="M506 1382q125 0 164 -79l37 65h94l-99 -649h-127l15 117h-8q-43 -66 -93 -102t-122 -36q-91 0 -146 64t-55 174q0 73 24.5 151t67 144t108 108.5t140.5 42.5zM311 934q0 -58 22.5 -94.5t63.5 -36.5q47 0 101.5 56t91.5 140t37 158q0 123 -105 123q-53 0 -95.5 -33.5 t-66.5 -86.5t-36.5 -111t-12.5 -115z" />
<glyph unicode="&#xab;" horiz-adv-x="1005" d="M334 4q-101 98 -174.5 219t-73.5 213q0 115 100 257.5t236 244.5l84 -113q-139 -131 -189.5 -214t-50.5 -175q0 -87 33 -153t135 -181zM737 4q-101 98 -174.5 219t-73.5 213q0 115 113 257t264 245l84 -113q-163 -130 -221.5 -213.5t-58.5 -175.5q0 -87 33 -153t135 -181 z" />
<glyph unicode="&#xac;" horiz-adv-x="1288" d="M141 793v147h981v-596h-157v449h-824z" />
<glyph unicode="&#xad;" horiz-adv-x="784" d="M117 391l22 160h500l-23 -160h-499z" />
<glyph unicode="&#xae;" horiz-adv-x="1048" d="M178 1057q0 170 121 291.5t291 121.5t292 -121.5t122 -291.5t-122 -291t-292 -121t-291 121t-121 291zM260 1057q0 -137 97 -233.5t233 -96.5q137 0 234.5 97t97.5 233q0 137 -98 234.5t-234 97.5t-233 -97.5t-97 -234.5zM424 834v446h176q87 0 126.5 -34.5t39.5 -90.5 q0 -84 -78 -113q25 -11 35 -29.5t20 -62.5q6 -26 20.5 -36.5t47.5 -10.5l-25 -74q-8 -2 -20 -2q-49 0 -75 25.5t-40 79.5q0 2 -2 10l-2.5 10t-3 9t-4 9.5t-4.5 8t-6 8t-7.5 6t-9.5 5t-11.5 2.5t-14.5 1h-66v-167h-96zM520 1083h62q47 0 65.5 17.5t18.5 48.5q0 32 -19 46.5 t-61 14.5h-66v-127z" />
<glyph unicode="&#xaf;" horiz-adv-x="1024" d="M297 1169l16 131h508l-16 -131h-508z" />
<glyph unicode="&#xb0;" horiz-adv-x="839" d="M500 866q-133 0 -223.5 91t-90.5 221q0 129 92.5 220t225.5 91t225 -91t92 -220t-94 -220.5t-227 -91.5zM504 993q76 0 130 54t54 131q0 76 -54 130t-130 54q-77 0 -131 -54t-54 -130t54.5 -130.5t130.5 -54.5z" />
<glyph unicode="&#xb1;" d="M80 641v123h395v379h131v-379h391v-123h-391v-405h-131v405h-395zM80 0v123h917v-123h-917z" />
<glyph unicode="&#xb2;" horiz-adv-x="856" d="M156 772l12 76q16 12 80.5 61.5t107.5 83.5t106.5 91.5t102.5 104.5t68 104t29 106q0 47 -29 80.5t-90 33.5q-78 0 -114.5 -45t-43.5 -127l-133 23q0 123 87.5 190.5t209.5 67.5t191 -53.5t69 -155.5q0 -43 -15 -88.5t-35 -82.5t-59 -82t-68 -74t-81.5 -73t-79.5 -65 t-82 -63h395l-16 -113h-612z" />
<glyph unicode="&#xb3;" horiz-adv-x="804" d="M428 752q-110 0 -187 47.5t-77 128.5q0 15 4 43l135 22q-4 -10 -4 -30q0 -46 43 -73.5t104 -27.5q75 0 119.5 42.5t44.5 105.5t-47 100t-143 37h-23l15 106h22q80 0 139.5 41.5t59.5 114.5q0 45 -27.5 74.5t-89.5 29.5q-64 0 -102 -31t-39 -89l-131 22q8 91 86.5 149 t201.5 58q113 0 181.5 -52t68.5 -145q0 -83 -56.5 -140t-152.5 -79q88 -12 136.5 -63t48.5 -129q0 -115 -95.5 -188.5t-234.5 -73.5z" />
<glyph unicode="&#xb4;" horiz-adv-x="1024" d="M401 1139l320 403l121 -88l-350 -383z" />
<glyph unicode="&#xb5;" horiz-adv-x="1062" d="M-4 -496l215 1426h158l-82 -598q-14 -117 2 -165q19 -56 76 -56q68 0 139.5 63t124.5 152.5t89.5 181.5t45.5 156l37 266h160l-130 -930h-153q27 176 39 266h-4q-43 -78 -94.5 -141t-124 -108.5t-146.5 -45.5q-35 0 -73 21.5t-58 46.5q-54 -389 -63 -535h-158z" />
<glyph unicode="&#xb6;" horiz-adv-x="1245" d="M1239 1249h-405l-205 -1448h-125l80 568h-56q-187 0 -304.5 119.5t-117.5 316.5q0 115 45 217.5t120.5 175t178.5 114.5t216 42h589zM961 1130h161l-172 -1212q-10 -69 -28.5 -127.5t-51.5 -112.5t-78 -91.5t-111 -60t-146 -22.5q-223 0 -273 162l141 82q9 -54 45 -81 t107 -27q51 0 89.5 16.5t63 42.5t42 67t26.5 79.5t17 91.5z" />
<glyph unicode="&#xb7;" horiz-adv-x="534" d="M119 465q0 54 39.5 93.5t93.5 39.5q55 0 95 -39.5t40 -93.5t-40 -93.5t-95 -39.5q-54 0 -93.5 39.5t-39.5 93.5z" />
<glyph unicode="&#xb8;" horiz-adv-x="1024" d="M285 -446l57 96q57 -39 131 -39q47 0 87 25t40 77q0 44 -43 64.5t-135 25.5l82 207h114l-51 -129q19 -3 35 -6.5t43 -15t45.5 -28t32.5 -46.5t14 -68q0 -92 -73.5 -152.5t-182.5 -60.5q-124 0 -196 50z" />
<glyph unicode="&#xb9;" horiz-adv-x="724" d="M160 772l16 113h186l84 598l-192 -19l6 111l338 31l-102 -721h180l-17 -113h-499z" />
<glyph unicode="&#xba;" horiz-adv-x="841" d="M535 1382q129 0 197.5 -70t68.5 -210q0 -80 -23 -152t-67 -129t-115 -91t-160 -34q-130 0 -198 72.5t-68 212.5q0 107 38 195.5t122.5 147t204.5 58.5zM440 803q70 0 120 44.5t72.5 111t22.5 145.5q0 172 -125 172q-100 0 -157.5 -88t-57.5 -213q0 -89 30 -130.5 t95 -41.5z" />
<glyph unicode="&#xbb;" horiz-adv-x="1007" d="M547 840l100 98q101 -98 174.5 -219t73.5 -213q0 -115 -100 -257.5t-236 -244.5l-84 113q139 131 189.5 214t50.5 175q0 87 -33 153t-135 181zM143 840l101 98q101 -98 174.5 -219t73.5 -213q0 -115 -113 -257t-264 -245l-84 113q163 130 221.5 213.5t58.5 175.5 q0 87 -33 153t-135 181z" />
<glyph unicode="&#xbc;" horiz-adv-x="1730" d="M909 215l13 98l501 559h107l-78 -546h133l-14 -111h-133l-31 -215h-129l29 215h-398zM328 0l1009 1354h133l-1009 -1354h-133zM1079 326h244l45 321zM135 520l17 113h186l84 598l-193 -19l7 111l337 31l-102 -721h180l-16 -113h-500z" />
<glyph unicode="&#xbd;" horiz-adv-x="1832" d="M328 0l1009 1354h133l-1009 -1354h-133zM1016 0l12 76q16 12 80.5 61.5t107.5 83.5t106.5 91.5t102.5 104.5t68 104t29 106q0 47 -29 80.5t-90 33.5q-78 0 -114.5 -45t-43.5 -127l-133 23q0 123 87.5 190.5t209.5 67.5t191 -53.5t69 -155.5q0 -43 -15 -88.5t-35 -82.5 t-59 -82t-68 -74t-81.5 -73t-79.5 -65t-82 -63h396l-17 -113h-612zM135 520l17 113h186l84 598l-193 -19l7 111l337 31l-102 -721h180l-16 -113h-500z" />
<glyph unicode="&#xbe;" horiz-adv-x="1720" d="M897 215l14 98l502 559h107l-78 -546h133l-16 -111h-132l-30 -215h-129l28 215h-399zM313 0l1010 1354h133l-1010 -1354h-133zM1069 326h244l45 321zM399 522q-110 0 -187 47.5t-77 128.5q0 15 4 43l135 23q-4 -10 -4 -31q0 -46 43.5 -73t104.5 -27q75 0 119.5 42.5 t44.5 104.5q0 63 -47.5 100.5t-143.5 37.5h-22l14 106h23q80 0 139 41t59 115q0 45 -27.5 74.5t-89.5 29.5q-64 0 -102 -31.5t-39 -89.5l-131 23q8 91 87 149t202 58q113 0 181.5 -52t68.5 -145q0 -83 -56.5 -140t-152.5 -79q88 -12 136 -63.5t48 -129.5 q0 -115 -95.5 -188.5t-234.5 -73.5z" />
<glyph unicode="&#xbf;" horiz-adv-x="946" d="M424 524q74 0 125 -43.5t51 -115.5q0 -57 -24 -103.5t-63 -78.5t-85.5 -59.5t-93 -53t-85.5 -51.5t-63 -61.5t-24 -78.5q0 -190 205 -190q79 0 130 18.5t77.5 57.5t35 90.5t2.5 124.5l156 -35q30 -189 -82.5 -288t-329.5 -99q-182 0 -281.5 78t-99.5 210q0 74 34 136 t85 101.5t110.5 75t110.5 60t85 53.5t34 58q0 75 -94 51l-27 127q46 16 111 16zM637 827q0 -54 -39.5 -93.5t-93.5 -39.5q-55 0 -95 39.5t-40 93.5t40 94t95 40q54 0 93.5 -40t39.5 -94z" />
<glyph unicode="&#xc0;" horiz-adv-x="1230" d="M659 1354h132l319 -1354h-180l-92 395h-490l-203 -395h-182zM586 860l-162 -315h381l-72 315q-28 134 -41 227q-62 -139 -106 -227zM479 1720l125 131l301 -301l-84 -90z" />
<glyph unicode="&#xc1;" horiz-adv-x="1230" d="M659 1354h132l319 -1354h-180l-92 395h-490l-203 -395h-182zM586 860l-162 -315h381l-72 315q-28 134 -41 227q-62 -139 -106 -227zM588 1550l383 301l88 -131l-412 -260z" />
<glyph unicode="&#xc2;" horiz-adv-x="1230" d="M659 1354h132l319 -1354h-180l-92 395h-490l-203 -395h-182zM586 860l-162 -315h381l-72 315q-28 134 -41 227q-62 -139 -106 -227zM438 1522l305 311h103l221 -311l-96 -66l-201 227l-256 -227z" />
<glyph unicode="&#xc3;" horiz-adv-x="1230" d="M659 1354h132l319 -1354h-180l-92 395h-490l-203 -395h-182zM586 860l-162 -315h381l-72 315q-28 134 -41 227q-62 -139 -106 -227zM530 1532h-122q1 9 4.5 25t20 55.5t40 70t69.5 55.5t105 25q34 0 70.5 -17t62 -37t55.5 -37t54 -17q48 0 75 32t33 70h123q0 -5 -1 -13 t-7 -32t-15 -46t-28.5 -48.5t-44.5 -46t-66 -32.5t-90 -13q-41 0 -77 16t-57.5 36t-47.5 36t-49 16q-77 0 -107 -98z" />
<glyph unicode="&#xc4;" horiz-adv-x="1230" d="M659 1354h132l319 -1354h-180l-92 395h-490l-203 -395h-182zM586 860l-162 -315h381l-72 315q-28 134 -41 227q-62 -139 -106 -227zM987 1534q-44 0 -77 33.5t-33 77.5t33 77t77 33t77.5 -33t33.5 -77t-33.5 -77.5t-77.5 -33.5zM555 1534q-44 0 -77.5 33.5t-33.5 77.5 t33.5 77t77.5 33t77.5 -33t33.5 -77t-33.5 -77.5t-77.5 -33.5z" />
<glyph unicode="&#xc5;" horiz-adv-x="1230" d="M659 1354h132l319 -1354h-180l-92 395h-490l-203 -395h-182zM586 860l-162 -315h381l-72 315q-28 134 -41 227q-62 -139 -106 -227zM559 1636q0 85 63 142t160 57q96 0 144.5 -53t48.5 -127q0 -85 -63.5 -142t-161.5 -57q-93 0 -142 52.5t-49 127.5zM772 1739 q-45 0 -73.5 -29t-28.5 -70q0 -40 26 -64t64 -24q42 0 74 27t32 70q0 37 -25 63.5t-69 26.5z" />
<glyph unicode="&#xc6;" horiz-adv-x="1753" d="M825 1354h910l-23 -158h-631l-61 -434h526l-20 -158h-529l-61 -446h643l-23 -158h-815l56 395h-416l-262 -395h-191zM909 1192l-430 -647h338z" />
<glyph unicode="&#xc7;" horiz-adv-x="1294" d="M346 -446l57 96q57 -39 132 -39q47 0 87 25t40 77q0 43 -43 64t-136 26l68 172q-215 24 -320.5 174t-105.5 392q0 119 24 235t77.5 226.5t131 194t195 134.5t258.5 51q204 0 323 -85t119 -224q0 -38 -10 -90l-174 -37q23 130 -41.5 209.5t-220.5 79.5q-94 0 -172 -30.5 t-130.5 -85t-91 -122t-59.5 -148.5t-31 -158t-10 -156q0 -213 79.5 -314.5t240.5 -101.5q62 0 119 14.5t109.5 45t91.5 85.5t55 129l161 -43q-28 -77 -69 -140t-101 -116.5t-145.5 -85t-189.5 -35.5l-35 -92q19 -3 35 -6.5t43 -15t45.5 -28t32.5 -46.5t14 -68 q0 -92 -73.5 -152.5t-182.5 -60.5q-125 0 -197 50z" />
<glyph unicode="&#xc8;" horiz-adv-x="1130" d="M309 1354h803l-22 -158h-631l-62 -434h527l-21 -158h-528l-62 -446h643l-22 -158h-815zM469 1720l125 131l301 -301l-84 -90z" />
<glyph unicode="&#xc9;" horiz-adv-x="1130" d="M309 1354h803l-22 -158h-631l-62 -434h527l-21 -158h-528l-62 -446h643l-22 -158h-815zM578 1550l383 301l88 -131l-412 -260z" />
<glyph unicode="&#xca;" horiz-adv-x="1130" d="M309 1354h803l-22 -158h-631l-62 -434h527l-21 -158h-528l-62 -446h643l-22 -158h-815zM428 1522l305 311h103l221 -311l-96 -66l-201 227l-256 -227z" />
<glyph unicode="&#xcb;" horiz-adv-x="1130" d="M309 1354h803l-22 -158h-631l-62 -434h527l-21 -158h-528l-62 -446h643l-22 -158h-815zM977 1534q-44 0 -77.5 33.5t-33.5 77.5t33.5 77t77.5 33t77 -33t33 -77t-33 -77.5t-77 -33.5zM545 1534q-44 0 -77.5 33.5t-33.5 77.5t33.5 77t77.5 33t77 -33t33 -77t-33 -77.5 t-77 -33.5z" />
<glyph unicode="&#xcc;" horiz-adv-x="569" d="M309 1354h172l-190 -1354h-172zM145 1720l125 131l301 -301l-84 -90z" />
<glyph unicode="&#xcd;" horiz-adv-x="569" d="M309 1354h172l-190 -1354h-172zM254 1550l383 301l88 -131l-412 -260z" />
<glyph unicode="&#xce;" horiz-adv-x="569" d="M309 1354h172l-190 -1354h-172zM104 1522l306 311h102l221 -311l-96 -66l-201 227l-256 -227z" />
<glyph unicode="&#xcf;" horiz-adv-x="569" d="M309 1354h172l-190 -1354h-172zM653 1534q-44 0 -77 33.5t-33 77.5t33 77t77 33t77.5 -33t33.5 -77t-33.5 -77.5t-77.5 -33.5zM221 1534q-44 0 -77 33.5t-33 77.5t33 77t77 33t77.5 -33t33.5 -77t-33.5 -77.5t-77.5 -33.5z" />
<glyph unicode="&#xd0;" horiz-adv-x="1378" d="M102 612l19 131h115l86 611h401q277 0 419 -145.5t142 -395.5q0 -101 -20 -199t-59 -189t-99.5 -168t-137.5 -134.5t-178.5 -90t-216.5 -32.5h-442l86 612h-115zM324 152h243q93 0 171 26.5t131.5 70t95 103t65.5 120.5t39.5 128.5t21 121t5.5 103.5q0 377 -391 377h-232 l-65 -459h299l-19 -131h-299z" />
<glyph unicode="&#xd1;" horiz-adv-x="1443" d="M119 0l190 1354h162l461 -822q18 -31 119 -229q16 157 30 252l113 799h162l-191 -1354h-131l-497 885q-51 90 -107 217q-15 -152 -29 -246l-120 -856h-162zM647 1532h-123q1 9 4.5 25t20 55.5t40.5 70t70 55.5t105 25q34 0 70.5 -17t62 -37t55.5 -37t54 -17q48 0 75 32 t33 70h123q0 -5 -1 -13t-7 -32t-15 -46t-28.5 -48.5t-44.5 -46t-66 -32.5t-90 -13q-41 0 -77 16t-57.5 36t-47.5 36t-49 16q-77 0 -107 -98z" />
<glyph unicode="&#xd2;" horiz-adv-x="1417" d="M127 528q0 249 83 442.5t239.5 302.5t363.5 109q244 0 377 -140.5t133 -397.5q0 -246 -83.5 -443.5t-242 -313.5t-364.5 -116q-248 0 -377 150.5t-129 406.5zM315 508q0 -201 85 -295t239 -94q106 0 192.5 45.5t142 119t93 170.5t53 195.5t15.5 198.5q0 197 -85.5 292 t-242.5 95q-106 0 -192 -45.5t-141 -118.5t-91.5 -170.5t-52 -195t-15.5 -197.5zM571 1720l125 131l301 -301l-84 -90z" />
<glyph unicode="&#xd3;" horiz-adv-x="1417" d="M127 528q0 249 83 442.5t239.5 302.5t363.5 109q244 0 377 -140.5t133 -397.5q0 -246 -83.5 -443.5t-242 -313.5t-364.5 -116q-248 0 -377 150.5t-129 406.5zM315 508q0 -201 85 -295t239 -94q106 0 192.5 45.5t142 119t93 170.5t53 195.5t15.5 198.5q0 197 -85.5 292 t-242.5 95q-106 0 -192 -45.5t-141 -118.5t-91.5 -170.5t-52 -195t-15.5 -197.5zM680 1550l383 301l88 -131l-412 -260z" />
<glyph unicode="&#xd4;" horiz-adv-x="1417" d="M127 528q0 249 83 442.5t239.5 302.5t363.5 109q244 0 377 -140.5t133 -397.5q0 -246 -83.5 -443.5t-242 -313.5t-364.5 -116q-248 0 -377 150.5t-129 406.5zM315 508q0 -201 85 -295t239 -94q106 0 192.5 45.5t142 119t93 170.5t53 195.5t15.5 198.5q0 197 -85.5 292 t-242.5 95q-106 0 -192 -45.5t-141 -118.5t-91.5 -170.5t-52 -195t-15.5 -197.5zM530 1522l306 311h102l221 -311l-96 -66l-201 227l-256 -227z" />
<glyph unicode="&#xd5;" horiz-adv-x="1417" d="M127 528q0 249 83 442.5t239.5 302.5t363.5 109q244 0 377 -140.5t133 -397.5q0 -246 -83.5 -443.5t-242 -313.5t-364.5 -116q-248 0 -377 150.5t-129 406.5zM315 508q0 -201 85 -295t239 -94q106 0 192.5 45.5t142 119t93 170.5t53 195.5t15.5 198.5q0 197 -85.5 292 t-242.5 95q-106 0 -192 -45.5t-141 -118.5t-91.5 -170.5t-52 -195t-15.5 -197.5zM623 1532h-123q1 9 4.5 25t20 55.5t40 70t69.5 55.5t105 25q34 0 70.5 -17t62 -37t55.5 -37t54 -17q48 0 75.5 32.5t33.5 69.5h122q0 -9 -2 -25t-17 -55.5t-39 -70t-74.5 -55.5t-118.5 -25 q-41 0 -77.5 16t-58 36t-47.5 36t-49 16q-46 0 -69 -27t-37 -71z" />
<glyph unicode="&#xd6;" horiz-adv-x="1417" d="M127 528q0 249 83 442.5t239.5 302.5t363.5 109q244 0 377 -140.5t133 -397.5q0 -246 -83.5 -443.5t-242 -313.5t-364.5 -116q-248 0 -377 150.5t-129 406.5zM315 508q0 -201 85 -295t239 -94q106 0 192.5 45.5t142 119t93 170.5t53 195.5t15.5 198.5q0 197 -85.5 292 t-242.5 95q-106 0 -192 -45.5t-141 -118.5t-91.5 -170.5t-52 -195t-15.5 -197.5zM1079 1534q-44 0 -77 33.5t-33 77.5t33 77t77 33t77.5 -33t33.5 -77t-33.5 -77.5t-77.5 -33.5zM647 1534q-44 0 -77 33.5t-33 77.5t33 77t77 33t77.5 -33t33.5 -77t-33.5 -77.5t-77.5 -33.5z " />
<glyph unicode="&#xd7;" d="M23 918l94 88l426 -428l428 428l92 -91l-430 -428l430 -430l-94 -88l-426 426l-428 -426l-92 90l428 428z" />
<glyph unicode="&#xd8;" horiz-adv-x="1415" d="M84 -66l156 207q-113 143 -113 387q0 249 83 442.5t239.5 302.5t363.5 109q180 0 307 -82l144 189l104 -76l-154 -203q109 -136 109 -366q0 -246 -83.5 -443.5t-242 -313.5t-364.5 -116q-175 0 -297 80l-146 -192zM315 508q0 -135 37 -219l668 878q-83 68 -213 68 q-106 0 -192 -45.5t-141 -118.5t-91.5 -170.5t-52 -195t-15.5 -197.5zM1135 848q0 128 -37 209l-664 -877q75 -61 205 -61q106 0 192.5 45.5t142 119t93 170.5t53 195.5t15.5 198.5z" />
<glyph unicode="&#xd9;" horiz-adv-x="1400" d="M180 539l115 815h172l-117 -826q-7 -62 -8.5 -120t16 -109.5t49 -90t92 -61t144.5 -22.5q352 0 406 387l118 842h164l-121 -852q-17 -119 -58.5 -214t-110.5 -167t-171.5 -111t-232.5 -39q-273 0 -385 149t-72 419zM561 1720l125 131l301 -301l-84 -90z" />
<glyph unicode="&#xda;" horiz-adv-x="1400" d="M180 539l115 815h172l-117 -826q-7 -62 -8.5 -120t16 -109.5t49 -90t92 -61t144.5 -22.5q352 0 406 387l118 842h164l-121 -852q-17 -119 -58.5 -214t-110.5 -167t-171.5 -111t-232.5 -39q-273 0 -385 149t-72 419zM670 1550l383 301l88 -131l-412 -260z" />
<glyph unicode="&#xdb;" horiz-adv-x="1400" d="M180 539l115 815h172l-117 -826q-7 -62 -8.5 -120t16 -109.5t49 -90t92 -61t144.5 -22.5q352 0 406 387l118 842h164l-121 -852q-17 -119 -58.5 -214t-110.5 -167t-171.5 -111t-232.5 -39q-273 0 -385 149t-72 419zM520 1522l305 311h103l221 -311l-96 -66l-201 227 l-256 -227z" />
<glyph unicode="&#xdc;" horiz-adv-x="1400" d="M180 539l115 815h172l-117 -826q-7 -62 -8.5 -120t16 -109.5t49 -90t92 -61t144.5 -22.5q352 0 406 387l118 842h164l-121 -852q-17 -119 -58.5 -214t-110.5 -167t-171.5 -111t-232.5 -39q-273 0 -385 149t-72 419zM1069 1534q-44 0 -77.5 33.5t-33.5 77.5t33.5 77 t77.5 33t77.5 -33t33.5 -77t-33.5 -77.5t-77.5 -33.5zM637 1534q-44 0 -77.5 33.5t-33.5 77.5t33.5 77t77.5 33t77.5 -33t33.5 -77t-33.5 -77.5t-77.5 -33.5z" />
<glyph unicode="&#xdd;" horiz-adv-x="1177" d="M598 0h-172l74 524l-361 830h191l274 -647l438 647h197l-567 -832zM551 1550l383 301l88 -131l-412 -260z" />
<glyph unicode="&#xde;" horiz-adv-x="1126" d="M309 1354h172l-32 -234h169q227 0 333 -96.5t106 -261.5q0 -226 -157.5 -366t-407.5 -140h-166l-35 -256h-172zM598 969h-172l-78 -561h152q174 0 271 91.5t97 254.5q0 107 -65.5 161t-204.5 54z" />
<glyph unicode="&#xdf;" horiz-adv-x="1077" d="M74 -59l143 1132q55 424 436 424q147 0 235.5 -61t88.5 -189q0 -69 -32 -127t-77.5 -99t-90.5 -79t-77 -85.5t-32 -100.5q0 -39 16 -76.5t42 -68.5t57 -62.5t62.5 -64.5t57.5 -68.5t42 -80t16 -93.5q0 -117 -84.5 -194t-225.5 -77q-102 0 -171 40t-101 98l125 90 q11 -35 55.5 -64t99.5 -29q56 0 95 31.5t39 89.5q0 49 -30 97t-72.5 89.5t-85.5 87t-73 107t-30 131.5q0 60 23.5 114.5t58.5 91.5t76.5 75.5t76.5 68.5t58.5 68t23.5 76q0 67 -49.5 98t-120.5 31q-62 0 -109.5 -19.5t-75.5 -48t-47.5 -71.5t-27.5 -79.5t-14 -82.5 l-144 -1133q-29 -222 -117 -323t-241 -101q-136 0 -219 78l100 121q29 -41 59 -52t74 -11q148 0 187 301z" />
<glyph unicode="&#xe0;" horiz-adv-x="1030" d="M809 940h119l-131 -940h-150l25 193h-6q-30 -47 -59 -82.5t-68 -69.5t-88.5 -52t-106.5 -18q-125 0 -198.5 91.5t-73.5 265.5q0 115 33 228.5t91.5 205.5t148.5 149.5t194 57.5q159 0 225 -131zM246 319q0 -88 34.5 -150.5t96.5 -62.5q79 0 160.5 81.5t131.5 198.5 t50 220q0 96 -46.5 162t-125.5 66q-78 0 -148 -75t-111.5 -194.5t-41.5 -245.5zM561 1071l-262 387l141 84l228 -412z" />
<glyph unicode="&#xe1;" horiz-adv-x="1030" d="M809 940h119l-131 -940h-150l25 193h-6q-30 -47 -59 -82.5t-68 -69.5t-88.5 -52t-106.5 -18q-125 0 -198.5 91.5t-73.5 265.5q0 115 33 228.5t91.5 205.5t148.5 149.5t194 57.5q159 0 225 -131zM246 319q0 -88 34.5 -150.5t96.5 -62.5q79 0 160.5 81.5t131.5 198.5 t50 220q0 96 -46.5 162t-125.5 66q-78 0 -148 -75t-111.5 -194.5t-41.5 -245.5zM471 1139l320 403l120 -88l-350 -383z" />
<glyph unicode="&#xe2;" horiz-adv-x="1030" d="M809 940h119l-131 -940h-150l25 193h-6q-30 -47 -59 -82.5t-68 -69.5t-88.5 -52t-106.5 -18q-125 0 -198.5 91.5t-73.5 265.5q0 115 33 228.5t91.5 205.5t148.5 149.5t194 57.5q159 0 225 -131zM246 319q0 -88 34.5 -150.5t96.5 -62.5q79 0 160.5 81.5t131.5 198.5 t50 220q0 96 -46.5 162t-125.5 66q-78 0 -148 -75t-111.5 -194.5t-41.5 -245.5zM276 1141l287 385h109l188 -406l-104 -49l-156 287l-229 -287z" />
<glyph unicode="&#xe3;" horiz-adv-x="1030" d="M809 940h119l-131 -940h-150l25 193h-6q-30 -47 -59 -82.5t-68 -69.5t-88.5 -52t-106.5 -18q-125 0 -198.5 91.5t-73.5 265.5q0 115 33 228.5t91.5 205.5t148.5 149.5t194 57.5q159 0 225 -131zM246 319q0 -88 34.5 -150.5t96.5 -62.5q79 0 160.5 81.5t131.5 198.5 t50 220q0 96 -46.5 162t-125.5 66q-78 0 -148 -75t-111.5 -194.5t-41.5 -245.5zM246 1112q1 10 4 26t18 58t36.5 74t64 58t96.5 26q42 0 124.5 -54.5t117.5 -54.5q39 0 60.5 35t27.5 78h123q0 -5 -1 -13.5t-6.5 -34t-14 -48t-26.5 -50.5t-41.5 -48t-60.5 -34t-82 -14 q-34 0 -68.5 16.5t-58.5 36t-52.5 36t-51.5 16.5q-64 0 -86 -109h-123z" />
<glyph unicode="&#xe4;" horiz-adv-x="1030" d="M809 940h119l-131 -940h-150l25 193h-6q-30 -47 -59 -82.5t-68 -69.5t-88.5 -52t-106.5 -18q-125 0 -198.5 91.5t-73.5 265.5q0 115 33 228.5t91.5 205.5t148.5 149.5t194 57.5q159 0 225 -131zM246 319q0 -88 34.5 -150.5t96.5 -62.5q79 0 160.5 81.5t131.5 198.5 t50 220q0 96 -46.5 162t-125.5 66q-78 0 -148 -75t-111.5 -194.5t-41.5 -245.5zM780 1145q-44 0 -77 33t-33 77t33 77.5t77 33.5t77.5 -33.5t33.5 -77.5t-33.5 -77t-77.5 -33zM389 1145q-44 0 -77 33t-33 77t33 77.5t77 33.5t77.5 -33.5t33.5 -77.5t-33.5 -77t-77.5 -33z " />
<glyph unicode="&#xe5;" horiz-adv-x="1030" d="M809 940h119l-131 -940h-150l25 193h-6q-30 -47 -59 -82.5t-68 -69.5t-88.5 -52t-106.5 -18q-125 0 -198.5 91.5t-73.5 265.5q0 115 33 228.5t91.5 205.5t148.5 149.5t194 57.5q159 0 225 -131zM246 319q0 -88 34.5 -150.5t96.5 -62.5q79 0 160.5 81.5t131.5 198.5 t50 220q0 96 -46.5 162t-125.5 66q-78 0 -148 -75t-111.5 -194.5t-41.5 -245.5zM567 1077q-93 0 -140.5 55t-47.5 130q0 88 63.5 147t163.5 59q93 0 141 -52t48 -126q0 -89 -64 -151t-164 -62zM578 1174q44 0 76 30.5t32 73.5q0 36 -23.5 65t-66.5 29q-46 0 -76.5 -32.5 t-30.5 -75.5q0 -37 24 -63.5t65 -26.5z" />
<glyph unicode="&#xe6;" horiz-adv-x="1443" d="M45 205q0 159 153 246t449 98q17 136 17 158q0 74 -38.5 105.5t-138.5 31.5q-83 0 -136 -47.5t-60 -151.5l-160 29q0 126 101 210.5t274 84.5q207 0 276 -117q120 117 305 117q119 0 195 -52t76 -159q0 -149 -132 -219.5t-440 -102.5q-8 -45 -3.5 -102.5t17 -108 t52.5 -85t102 -34.5q162 0 236 177l129 -43q-19 -45 -40 -81t-54 -72.5t-71.5 -60.5t-93.5 -39.5t-120 -15.5q-219 0 -301 172q-152 -172 -336 -172q-109 0 -183.5 61t-74.5 173zM215 221q0 -119 135 -119q83 0 163 67.5t103 154.5l15 104q-196 -8 -306 -58.5t-110 -148.5z M807 559q199 15 289 60t90 133q0 38 -29 60t-86 22q-101 0 -167.5 -76.5t-96.5 -198.5z" />
<glyph unicode="&#xe7;" horiz-adv-x="911" d="M145 -446l58 96q57 -39 131 -39q47 0 87 25t40 77q0 44 -43 64.5t-135 25.5l67 172q-133 19 -202.5 112.5t-69.5 274.5q0 82 15.5 163.5t52 162.5t90 142.5t137 100t186.5 38.5q154 0 233 -78.5t39 -214.5l-161 -29q27 82 -3.5 134.5t-117.5 52.5q-63 0 -114 -30.5 t-84.5 -80t-56 -114.5t-32.5 -130t-10 -131q0 -242 178 -242q84 0 140.5 51t86.5 128l131 -43q-19 -40 -33.5 -67.5t-43.5 -66.5t-60.5 -64t-80 -45.5t-105.5 -25.5l-37 -92q19 -3 35 -6.5t43 -15t45.5 -28t32.5 -46.5t14 -68q0 -92 -73.5 -152.5t-182.5 -60.5 q-125 0 -197 50z" />
<glyph unicode="&#xe8;" horiz-adv-x="919" d="M471 444l-219 -79v-3q0 -256 176 -256q163 0 238 179l131 -43q-26 -59 -55 -102.5t-73.5 -84.5t-108.5 -62.5t-146 -21.5q-162 0 -249 97.5t-87 298.5q0 68 11.5 136t34.5 136.5t62.5 127t91.5 104.5t125 72t160 26q118 0 195.5 -53t77.5 -160q0 -65 -28 -115t-88 -87 t-101 -54.5t-120 -45.5q-19 -7 -28 -10zM547 834q-60 0 -110 -28t-84 -76t-56.5 -106t-34.5 -126l170 63q33 12 45 16.5t43.5 18t45.5 22.5t37 24.5t33.5 30.5t19 35t8.5 42q0 38 -30 61t-87 23zM547 1071l-262 387l141 84l227 -412z" />
<glyph unicode="&#xe9;" horiz-adv-x="919" d="M471 444l-219 -79v-3q0 -256 176 -256q163 0 238 179l131 -43q-26 -59 -55 -102.5t-73.5 -84.5t-108.5 -62.5t-146 -21.5q-162 0 -249 97.5t-87 298.5q0 68 11.5 136t34.5 136.5t62.5 127t91.5 104.5t125 72t160 26q118 0 195.5 -53t77.5 -160q0 -65 -28 -115t-88 -87 t-101 -54.5t-120 -45.5q-19 -7 -28 -10zM547 834q-60 0 -110 -28t-84 -76t-56.5 -106t-34.5 -126l170 63q33 12 45 16.5t43.5 18t45.5 22.5t37 24.5t33.5 30.5t19 35t8.5 42q0 38 -30 61t-87 23zM457 1139l319 403l121 -88l-350 -383z" />
<glyph unicode="&#xea;" horiz-adv-x="919" d="M471 444l-219 -79v-3q0 -256 176 -256q163 0 238 179l131 -43q-26 -59 -55 -102.5t-73.5 -84.5t-108.5 -62.5t-146 -21.5q-162 0 -249 97.5t-87 298.5q0 68 11.5 136t34.5 136.5t62.5 127t91.5 104.5t125 72t160 26q118 0 195.5 -53t77.5 -160q0 -65 -28 -115t-88 -87 t-101 -54.5t-120 -45.5q-19 -7 -28 -10zM547 834q-60 0 -110 -28t-84 -76t-56.5 -106t-34.5 -126l170 63q33 12 45 16.5t43.5 18t45.5 22.5t37 24.5t33.5 30.5t19 35t8.5 42q0 38 -30 61t-87 23zM262 1141l287 385h108l189 -406l-105 -49l-155 287l-230 -287z" />
<glyph unicode="&#xeb;" horiz-adv-x="919" d="M471 444l-219 -79v-3q0 -256 176 -256q163 0 238 179l131 -43q-26 -59 -55 -102.5t-73.5 -84.5t-108.5 -62.5t-146 -21.5q-162 0 -249 97.5t-87 298.5q0 68 11.5 136t34.5 136.5t62.5 127t91.5 104.5t125 72t160 26q118 0 195.5 -53t77.5 -160q0 -65 -28 -115t-88 -87 t-101 -54.5t-120 -45.5q-19 -7 -28 -10zM547 834q-60 0 -110 -28t-84 -76t-56.5 -106t-34.5 -126l170 63q33 12 45 16.5t43.5 18t45.5 22.5t37 24.5t33.5 30.5t19 35t8.5 42q0 38 -30 61t-87 23zM766 1145q-44 0 -77.5 33t-33.5 77t33.5 77.5t77.5 33.5t77.5 -33.5 t33.5 -77.5t-33.5 -77t-77.5 -33zM375 1145q-44 0 -77.5 33t-33.5 77t33.5 77.5t77.5 33.5t77 -33.5t33 -77.5t-33 -77t-77 -33z" />
<glyph unicode="&#xec;" horiz-adv-x="466" d="M367 940l-134 -940h-159l133 940h160zM305 1071l-262 387l141 84l228 -412z" />
<glyph unicode="&#xed;" horiz-adv-x="466" d="M367 940l-134 -940h-159l133 940h160zM215 1139l320 403l120 -88l-350 -383z" />
<glyph unicode="&#xee;" horiz-adv-x="468" d="M367 940l-134 -940h-159l133 940h160zM20 1141l287 385h109l188 -406l-104 -49l-156 287l-229 -287z" />
<glyph unicode="&#xef;" horiz-adv-x="468" d="M367 940l-134 -940h-159l133 940h160zM524 1145q-44 0 -77 33t-33 77t33 77.5t77 33.5t77.5 -33.5t33.5 -77.5t-33.5 -77t-77.5 -33zM133 1145q-44 0 -77 33t-33 77t33 77.5t77 33.5t77.5 -33.5t33.5 -77.5t-33.5 -77t-77.5 -33z" />
<glyph unicode="&#xf0;" horiz-adv-x="1040" d="M342 997l-63 107l233 141q-92 58 -244 105l62 133q179 -46 321 -154l246 150l61 -107l-210 -129q90 -99 138 -262.5t48 -343.5q0 -94 -14.5 -183t-50 -178.5t-90 -155.5t-141.5 -107.5t-196 -41.5q-178 0 -272 106t-94 294q0 77 17.5 153.5t54 148.5t88.5 127t127 88.5 t163 33.5q139 0 222 -58l4 2q-15 88 -48.5 157.5t-93.5 135.5zM453 106q74 0 131.5 29t93 75.5t58.5 110.5t31.5 127t8.5 132q0 107 -57.5 156.5t-188.5 49.5q-77 0 -134 -41t-87 -109t-43.5 -139t-13.5 -147q0 -114 52 -179t149 -65z" />
<glyph unicode="&#xf1;" horiz-adv-x="1071" d="M367 940l-45 -258l10 -4q24 49 55 93t79 92t116 77t145 29q51 0 90 -13.5t62.5 -34.5t38 -54.5t20 -65.5t5 -75.5t-4 -77t-10.5 -77.5l-80 -571h-160l82 569q5 38 7.5 64.5t3 59t-5 54.5t-16 41.5t-31 29t-48.5 9.5q-59 0 -119 -44.5t-106.5 -111.5t-86 -147t-64 -151 t-34.5 -123l-4 -31l-30 -219h-160l131 940h160zM299 1112q1 10 4 26t18 58t36.5 74t64 58t96.5 26q42 0 124.5 -54.5t117.5 -54.5q39 0 60.5 35t27.5 78h123q0 -5 -1 -13.5t-6.5 -34t-14 -48t-26.5 -50.5t-41.5 -48t-60.5 -34t-82 -14q-34 0 -68.5 16.5t-58.5 36t-52.5 36 t-51.5 16.5q-64 0 -86 -109h-123z" />
<glyph unicode="&#xf2;" horiz-adv-x="1011" d="M578 969q159 0 244 -100t85 -287q0 -92 -17 -178t-56 -165.5t-95.5 -138.5t-141.5 -94t-189 -35q-159 0 -244.5 103t-85.5 291q0 92 17.5 177t57 163.5t96.5 136.5t141.5 92.5t187.5 34.5zM428 106q77 0 138 46t96 119t53 154t18 161q0 127 -42 187.5t-134 60.5 q-77 0 -138 -46t-96 -118.5t-53 -153.5t-18 -160q0 -131 40 -190.5t136 -59.5zM569 1071l-262 387l142 84l227 -412z" />
<glyph unicode="&#xf3;" horiz-adv-x="1011" d="M578 969q159 0 244 -100t85 -287q0 -92 -17 -178t-56 -165.5t-95.5 -138.5t-141.5 -94t-189 -35q-159 0 -244.5 103t-85.5 291q0 92 17.5 177t57 163.5t96.5 136.5t141.5 92.5t187.5 34.5zM428 106q77 0 138 46t96 119t53 154t18 161q0 127 -42 187.5t-134 60.5 q-77 0 -138 -46t-96 -118.5t-53 -153.5t-18 -160q0 -131 40 -190.5t136 -59.5zM479 1139l320 403l121 -88l-351 -383z" />
<glyph unicode="&#xf4;" horiz-adv-x="1011" d="M578 969q159 0 244 -100t85 -287q0 -92 -17 -178t-56 -165.5t-95.5 -138.5t-141.5 -94t-189 -35q-159 0 -244.5 103t-85.5 291q0 92 17.5 177t57 163.5t96.5 136.5t141.5 92.5t187.5 34.5zM428 106q77 0 138 46t96 119t53 154t18 161q0 127 -42 187.5t-134 60.5 q-77 0 -138 -46t-96 -118.5t-53 -153.5t-18 -160q0 -131 40 -190.5t136 -59.5zM285 1141l286 385h109l188 -406l-104 -49l-156 287l-229 -287z" />
<glyph unicode="&#xf5;" horiz-adv-x="1011" d="M578 969q159 0 244 -100t85 -287q0 -92 -17 -178t-56 -165.5t-95.5 -138.5t-141.5 -94t-189 -35q-159 0 -244.5 103t-85.5 291q0 92 17.5 177t57 163.5t96.5 136.5t141.5 92.5t187.5 34.5zM428 106q77 0 138 46t96 119t53 154t18 161q0 127 -42 187.5t-134 60.5 q-77 0 -138 -46t-96 -118.5t-53 -153.5t-18 -160q0 -131 40 -190.5t136 -59.5zM254 1112q1 10 4 26t18 58t36.5 74t64 58t96.5 26q42 0 124.5 -54.5t117.5 -54.5q39 0 60.5 35t27.5 78h123q0 -5 -1 -13.5t-6.5 -34t-14 -48t-26.5 -50.5t-41.5 -48t-60.5 -34t-82 -14 q-34 0 -68.5 16.5t-58.5 36t-52.5 36t-51.5 16.5q-64 0 -86 -109h-123z" />
<glyph unicode="&#xf6;" horiz-adv-x="1011" d="M578 969q159 0 244 -100t85 -287q0 -92 -17 -178t-56 -165.5t-95.5 -138.5t-141.5 -94t-189 -35q-159 0 -244.5 103t-85.5 291q0 92 17.5 177t57 163.5t96.5 136.5t141.5 92.5t187.5 34.5zM428 106q77 0 138 46t96 119t53 154t18 161q0 127 -42 187.5t-134 60.5 q-77 0 -138 -46t-96 -118.5t-53 -153.5t-18 -160q0 -131 40 -190.5t136 -59.5zM788 1145q-44 0 -77 33t-33 77t33 77.5t77 33.5t77.5 -33.5t33.5 -77.5t-33.5 -77t-77.5 -33zM397 1145q-44 0 -77 33t-33 77t33 77.5t77 33.5t77.5 -33.5t33.5 -77.5t-33.5 -77t-77.5 -33z" />
<glyph unicode="&#xf7;" d="M543 760q-51 0 -87 36t-36 87t36 87t87 36t87 -36t36 -87t-36 -87t-87 -36zM84 434v123h917v-123h-917zM420 102q0 51 36 87t87 36t87 -36t36 -87t-36 -86.5t-87 -35.5t-87 35.5t-36 86.5z" />
<glyph unicode="&#xf8;" horiz-adv-x="1024" d="M-10 -14l137 153q-43 87 -43 226q0 92 17.5 177t57 163.5t96.5 136.5t141.5 92.5t187.5 34.5q137 0 221 -78l123 137l84 -74l-142 -155q43 -94 43 -217q0 -92 -17 -178t-56 -165.5t-95.5 -138.5t-141.5 -94t-189 -35q-132 0 -219 74l-119 -133zM258 356q0 -49 2 -69 l436 485q-44 62 -133 62q-77 0 -138 -46t-96 -118.5t-53 -153.5t-18 -160zM739 586q0 25 -4 61l-436 -485q44 -56 135 -56q77 0 138 46t96 119t53 154t18 161z" />
<glyph unicode="&#xf9;" horiz-adv-x="1056" d="M764 715v-2l31 227h159l-88 -625l-37 -315h-159l37 258l-7 4q-17 -37 -39 -72.5t-57.5 -76.5t-75.5 -71.5t-95.5 -50.5t-115.5 -20q-51 0 -89.5 13.5t-62.5 34.5t-38.5 54.5t-20 65.5t-4.5 75.5t4.5 77t10.5 77.5l80 571h159l-82 -569q-6 -45 -8.5 -77t-0.5 -69t12 -59.5 t32 -37.5t56 -15q58 0 117 46t104.5 115.5t83.5 151t61 151.5t31 119v13q0 1 1 3t1 3zM594 1071l-262 387l141 84l227 -412z" />
<glyph unicode="&#xfa;" horiz-adv-x="1056" d="M764 715v-2l31 227h159l-88 -625l-37 -315h-159l37 258l-7 4q-17 -37 -39 -72.5t-57.5 -76.5t-75.5 -71.5t-95.5 -50.5t-115.5 -20q-51 0 -89.5 13.5t-62.5 34.5t-38.5 54.5t-20 65.5t-4.5 75.5t4.5 77t10.5 77.5l80 571h159l-82 -569q-6 -45 -8.5 -77t-0.5 -69t12 -59.5 t32 -37.5t56 -15q58 0 117 46t104.5 115.5t83.5 151t61 151.5t31 119v13q0 1 1 3t1 3zM504 1139l319 403l121 -88l-350 -383z" />
<glyph unicode="&#xfb;" horiz-adv-x="1056" d="M764 715v-2l31 227h159l-88 -625l-37 -315h-159l37 258l-7 4q-17 -37 -39 -72.5t-57.5 -76.5t-75.5 -71.5t-95.5 -50.5t-115.5 -20q-51 0 -89.5 13.5t-62.5 34.5t-38.5 54.5t-20 65.5t-4.5 75.5t4.5 77t10.5 77.5l80 571h159l-82 -569q-6 -45 -8.5 -77t-0.5 -69t12 -59.5 t32 -37.5t56 -15q58 0 117 46t104.5 115.5t83.5 151t61 151.5t31 119v13q0 1 1 3t1 3zM309 1141l287 385h109l188 -406l-105 -49l-155 287l-230 -287z" />
<glyph unicode="&#xfc;" horiz-adv-x="1056" d="M764 715v-2l31 227h159l-88 -625l-37 -315h-159l37 258l-7 4q-17 -37 -39 -72.5t-57.5 -76.5t-75.5 -71.5t-95.5 -50.5t-115.5 -20q-51 0 -89.5 13.5t-62.5 34.5t-38.5 54.5t-20 65.5t-4.5 75.5t4.5 77t10.5 77.5l80 571h159l-82 -569q-6 -45 -8.5 -77t-0.5 -69t12 -59.5 t32 -37.5t56 -15q58 0 117 46t104.5 115.5t83.5 151t61 151.5t31 119v13q0 1 1 3t1 3zM813 1145q-44 0 -77.5 33t-33.5 77t33.5 77.5t77.5 33.5t77.5 -33.5t33.5 -77.5t-33.5 -77t-77.5 -33zM422 1145q-44 0 -77.5 33t-33.5 77t33.5 77.5t77.5 33.5t77 -33.5t33 -77.5 t-33 -77t-77 -33z" />
<glyph unicode="&#xfd;" horiz-adv-x="970" d="M-61 -418l100 121q43 -63 111 -63q85 0 130.5 94t45.5 256q0 208 -166 723l-74 227h170l61 -192q108 -347 144 -596q22 22 51 59q83 101 154 240.5t71 236.5q0 41 -13 69t-32.5 38.5t-42 15.5t-41.5 0l23 135q131 17 198.5 -43.5t67.5 -177.5q0 -132 -84 -299t-211 -315 q-81 -93 -119 -119q-1 -53 -8 -104.5t-21.5 -108.5t-40 -104.5t-61.5 -87t-89 -61.5t-118 -22q-121 0 -206 78zM463 1139l319 403l121 -88l-350 -383z" />
<glyph unicode="&#xfe;" horiz-adv-x="1050" d="M440 1470q-79 -600 -108 -725l8 -4q48 90 136 159t192 69q123 0 202.5 -96t79.5 -263q0 -83 -17 -169t-55 -171t-92 -151t-134.5 -107t-176.5 -41q-160 0 -229 107l-76 -545h-160l271 1937h159zM279 297q0 -84 48.5 -137.5t141.5 -53.5q63 0 116 37t87 94.5t58.5 128 t35 135.5t10.5 120q0 101 -36.5 157t-96.5 56q-81 0 -168 -90.5t-141.5 -216.5t-54.5 -230z" />
<glyph unicode="&#xff;" horiz-adv-x="970" d="M-61 -418l100 121q43 -63 111 -63q85 0 130.5 94t45.5 256q0 208 -166 723l-74 227h170l61 -192q108 -347 144 -596q22 22 51 59q83 101 154 240.5t71 236.5q0 41 -13 69t-32.5 38.5t-42 15.5t-41.5 0l23 135q131 17 198.5 -43.5t67.5 -177.5q0 -132 -84 -299t-211 -315 q-81 -93 -119 -119q-1 -53 -8 -104.5t-21.5 -108.5t-40 -104.5t-61.5 -87t-89 -61.5t-118 -22q-121 0 -206 78zM772 1145q-44 0 -77 33t-33 77t33 77.5t77 33.5t77.5 -33.5t33.5 -77.5t-33.5 -77t-77.5 -33zM381 1145q-44 0 -77.5 33t-33.5 77t33.5 77.5t77.5 33.5 t77.5 -33.5t33.5 -77.5t-33.5 -77t-77.5 -33z" />
<glyph unicode="&#x152;" horiz-adv-x="1863" d="M127 528q0 249 83 442.5t239.5 302.5t363.5 109q133 0 231 -28h801l-22 -158h-631l-62 -434h527l-21 -158h-528l-61 -446h643l-23 -158h-807q-102 -29 -227 -29q-248 0 -377 150.5t-129 406.5zM315 508q0 -201 85 -295t239 -94q148 0 235 43l146 1030q-79 43 -213 43 q-106 0 -192 -45.5t-141 -118.5t-91.5 -170.5t-52 -195t-15.5 -197.5z" />
<glyph unicode="&#x153;" horiz-adv-x="1527" d="M78 365q0 92 17.5 177t57 163.5t96.5 136.5t141.5 92.5t187.5 34.5q99 0 167 -46.5t93 -115.5q128 162 333 162q119 0 195 -52t76 -159q0 -53 -20.5 -97.5t-52.5 -74.5t-77 -55.5t-88 -43t-91 -35.5q-23 -8 -34 -12l-215 -80q0 -134 43.5 -194t128.5 -60q162 0 236 177 l129 -43q-19 -45 -40 -81t-54 -72.5t-71.5 -60.5t-93.5 -39.5t-120 -15.5q-196 0 -277 154q-127 -154 -337 -154q-159 0 -244.5 103t-85.5 291zM252 356q0 -131 40 -190.5t136 -59.5q77 0 138 46t96 119t53 154t18 161q0 127 -42 187.5t-134 60.5q-77 0 -138 -46t-96 -118.5 t-53 -153.5t-18 -160zM1155 834q-78 0 -138.5 -50t-94 -123.5t-48.5 -166.5l166 61q41 16 63 24.5t59 28.5t56.5 38t35.5 46t16 60q0 38 -29 60t-86 22z" />
<glyph unicode="&#x178;" horiz-adv-x="1177" d="M598 0h-172l74 524l-361 830h191l274 -647l438 647h197l-567 -832zM950 1534q-44 0 -77 33.5t-33 77.5t33 77t77 33t77.5 -33t33.5 -77t-33.5 -77.5t-77.5 -33.5zM518 1534q-44 0 -77 33.5t-33 77.5t33 77t77 33t77.5 -33t33.5 -77t-33.5 -77.5t-77.5 -33.5z" />
<glyph unicode="&#x2c6;" horiz-adv-x="1024" d="M248 1141l287 385h108l188 -406l-104 -49l-156 287l-229 -287z" />
<glyph unicode="&#x2dc;" horiz-adv-x="1024" d="M219 1112q1 10 4 26t18 58t36.5 74t64 58t96.5 26q42 0 124.5 -54.5t117.5 -54.5q39 0 60.5 35t27.5 78h123q0 -5 -1 -13.5t-6.5 -34t-14 -48t-26.5 -50.5t-41.5 -48t-60.5 -34t-82 -14q-34 0 -68.5 16.5t-58.5 36t-52.5 36t-51.5 16.5q-64 0 -86 -109h-123z" />
<glyph unicode="&#x2000;" horiz-adv-x="925" />
<glyph unicode="&#x2001;" horiz-adv-x="1851" />
<glyph unicode="&#x2002;" horiz-adv-x="925" />
<glyph unicode="&#x2003;" horiz-adv-x="1851" />
<glyph unicode="&#x2004;" horiz-adv-x="617" />
<glyph unicode="&#x2005;" horiz-adv-x="462" />
<glyph unicode="&#x2006;" horiz-adv-x="308" />
<glyph unicode="&#x2007;" horiz-adv-x="308" />
<glyph unicode="&#x2008;" horiz-adv-x="231" />
<glyph unicode="&#x2009;" horiz-adv-x="370" />
<glyph unicode="&#x200a;" horiz-adv-x="102" />
<glyph unicode="&#x2010;" horiz-adv-x="784" d="M117 391l22 160h500l-23 -160h-499z" />
<glyph unicode="&#x2011;" horiz-adv-x="784" d="M117 391l22 160h500l-23 -160h-499z" />
<glyph unicode="&#x2012;" horiz-adv-x="784" d="M117 391l22 160h500l-23 -160h-499z" />
<glyph unicode="&#x2013;" horiz-adv-x="1335" d="M139 403v136h1024v-136h-1024z" />
<glyph unicode="&#x2014;" horiz-adv-x="2359" d="M139 403v136h2048v-136h-2048z" />
<glyph unicode="&#x2018;" horiz-adv-x="491" d="M446 1493l62 -70q-79 -67 -118.5 -119.5t-39.5 -103.5q0 -45 18.5 -83.5t57.5 -96.5l-131 -111q-42 18 -76.5 65.5t-34.5 127.5q0 116 67 210t195 181z" />
<glyph unicode="&#x2019;" horiz-adv-x="493" d="M227 926l-61 69q79 67 118.5 120t39.5 104q0 45 -18.5 83.5t-57.5 96.5l131 110q42 -18 76 -65t34 -127q0 -116 -67 -210t-195 -181z" />
<glyph unicode="&#x201a;" horiz-adv-x="479" d="M33 -332l-62 70q79 67 118.5 119.5t39.5 103.5q0 45 -18.5 83.5t-57.5 96.5l131 111q42 -18 76.5 -65.5t34.5 -127.5q0 -116 -67 -210t-195 -181z" />
<glyph unicode="&#x201c;" horiz-adv-x="860" d="M446 1493l62 -70q-79 -67 -118.5 -119.5t-39.5 -103.5q0 -45 18.5 -83.5t57.5 -96.5l-131 -111q-42 18 -76.5 65.5t-34.5 127.5q0 116 67 210t195 181zM815 1493l62 -70q-79 -67 -118.5 -119.5t-39.5 -103.5q0 -45 18.5 -83.5t57.5 -96.5l-131 -111q-42 18 -76.5 65.5 t-34.5 127.5q0 116 67 210t195 181z" />
<glyph unicode="&#x201d;" horiz-adv-x="862" d="M227 924l-61 69q79 67 118.5 120t39.5 104q0 45 -18.5 83.5t-57.5 96.5l131 110q42 -18 76 -65t34 -127q0 -116 -67 -210t-195 -181zM596 924l-61 69q78 67 117.5 120t39.5 104q0 45 -18.5 83.5t-57.5 96.5l132 110q42 -18 76 -65t34 -127q0 -116 -67 -210t-195 -181z " />
<glyph unicode="&#x201e;" horiz-adv-x="847" d="M33 -332l-62 70q79 67 118.5 119.5t39.5 103.5q0 45 -18.5 83.5t-57.5 96.5l131 111q42 -18 76.5 -65.5t34.5 -127.5q0 -116 -67 -210t-195 -181zM401 -332l-61 70q79 67 118.5 119.5t39.5 103.5q0 45 -18.5 83.5t-57.5 96.5l131 111q42 -18 76.5 -65.5t34.5 -127.5 q0 -116 -67.5 -210t-195.5 -181z" />
<glyph unicode="&#x2022;" horiz-adv-x="894" d="M152 471q0 120 81 201.5t201 81.5t201.5 -81.5t81.5 -201.5t-81.5 -201.5t-201.5 -81.5t-201 81.5t-81 201.5z" />
<glyph unicode="&#x2026;" horiz-adv-x="1519" d="M63 113q0 54 40 93.5t94 39.5q55 0 95 -39.5t40 -93.5t-40 -93.5t-95 -39.5q-54 0 -94 39.5t-40 93.5zM567 113q0 54 39.5 93.5t93.5 39.5q55 0 95.5 -39.5t40.5 -93.5t-40.5 -93.5t-95.5 -39.5q-54 0 -93.5 39.5t-39.5 93.5zM1071 113q0 54 39.5 93.5t93.5 39.5 q55 0 95 -39.5t40 -93.5t-40 -93.5t-95 -39.5q-54 0 -93.5 39.5t-39.5 93.5z" />
<glyph unicode="&#x202f;" horiz-adv-x="370" />
<glyph unicode="&#x2039;" horiz-adv-x="604" d="M336 2q-99 98 -173.5 226.5t-74.5 224.5q0 111 112 246.5t265 238.5l84 -113q-165 -129 -223 -206.5t-58 -165.5q0 -92 34 -164.5t134 -188.5z" />
<glyph unicode="&#x203a;" horiz-adv-x="606" d="M143 840l101 98q99 -98 173.5 -226.5t74.5 -224.5q0 -111 -112 -246.5t-265 -238.5l-84 113q165 128 222.5 206t57.5 166q0 92 -34 164.5t-134 188.5z" />
<glyph unicode="&#x205f;" horiz-adv-x="462" />
<glyph unicode="&#x20ac;" d="M61 651l15 103h160q26 84 66.5 153.5t100 127t145 90t189.5 32.5q98 0 178.5 -31.5t126.5 -99.5t27 -160l-166 -30q38 198 -160 198q-123 0 -203 -77t-122 -203h375l-15 -103h-389q-16 -70 -24 -176h387l-15 -102h-372q6 -142 61.5 -210.5t173.5 -68.5q65 0 116 20.5 t77.5 49t43.5 57.5t22 49l5 21l140 -33q-1 -6 -3.5 -16.5t-14 -40t-28 -57t-48.5 -60.5t-72 -56.5t-102.5 -40t-135.5 -16.5q-378 0 -407 402h-173l15 102h155q3 77 19 176h-148z" />
<glyph unicode="&#x2122;" horiz-adv-x="1667" d="M854 717v637h199l153 -441l146 441h196v-637h-123v538l-180 -538h-84l-184 530v-530h-123zM223 1241v113h535v-113h-205v-524h-125v524h-205z" />
</font>
</defs>
</svg>
