<?xml version="1.0" standalone="no"?>
<!DOCTYPE svg PUBLIC "-//W3C//DTD SVG 1.1//EN" "http://www.w3.org/Graphics/SVG/1.1/DTD/svg11.dtd" >
<svg xmlns="http://www.w3.org/2000/svg">
<metadata></metadata>
<defs>
<font id="libel_suitbook_italic" horiz-adv-x="796" >
<font-face units-per-em="2048" ascent="1616" descent="-432" />
<missing-glyph horiz-adv-x="344" />
<glyph horiz-adv-x="0" />
<glyph horiz-adv-x="682" />
<glyph horiz-adv-x="344" />
<glyph unicode=" "  horiz-adv-x="344" />
<glyph unicode="&#x09;" horiz-adv-x="344" />
<glyph unicode="&#xa0;" horiz-adv-x="344" />
<glyph unicode="!" horiz-adv-x="362" d="M348 1632h174l-329 -1229h-82zM100 184q34 0 52 -19.5t18 -51.5q0 -47 -31 -83t-82 -36q-34 0 -50.5 19.5t-16.5 52.5q0 47 30 82.5t80 35.5z" />
<glyph unicode="&#x22;" horiz-adv-x="526" d="M569 1632h133l-139 -522h-94zM330 1632h133l-139 -522h-95z" />
<glyph unicode="#" horiz-adv-x="1011" d="M100 602h174l146 402h-176l41 114h176l176 486h113l-177 -486h215l177 486h114l-176 -486h176l-43 -114h-174l-145 -402h176l-41 -115h-176l-176 -487h-113l174 487h-215l-176 -487h-113l176 487h-176zM532 1004l-145 -402h215l146 402h-216z" />
<glyph unicode="$" horiz-adv-x="778" d="M623 1645h61l-47 -205q96 -7 144 -58t48 -131q0 -37 -32 -166h-129q24 94 24 121q0 101 -117 101q-87 0 -138.5 -52.5t-51.5 -142.5q0 -69 39 -127q23 -34 103.5 -123t107.5 -137q41 -68 41 -166q0 -77 -20.5 -145t-60.5 -123.5t-105.5 -90.5t-149.5 -42l-45 -199h-62 l46 199q-102 6 -156.5 58.5t-54.5 141.5q0 33 47 232l121 -35q-31 -136 -31 -158q0 -104 131 -104q58 0 99.5 20.5t63 56t31 73.5t9.5 83q0 71 -39 129q-31 53 -109 138t-100 122q-45 77 -45 175q0 151 90.5 246t236.5 104z" />
<glyph unicode="%" horiz-adv-x="1183" d="M1118 1604h107l-1039 -1604h-108zM1114 721l-129 -559q-20 -81 -82 -129.5t-139 -48.5q-78 0 -117.5 48t-21.5 130l127 559q18 81 81 128.5t142 47.5q77 0 117 -47.5t22 -128.5zM846 719l-129 -557q-11 -47 7.5 -69.5t59.5 -22.5q37 0 67.5 25.5t39.5 66.5l129 557 q19 90 -66 90q-38 0 -68.5 -25t-39.5 -65zM680 1442l-129 -559q-20 -81 -82 -129.5t-139 -48.5q-78 0 -118 48.5t-22 129.5l127 559q18 81 81.5 128.5t142.5 47.5q77 0 117 -47.5t22 -128.5zM412 1440l-129 -557q-11 -47 7.5 -69.5t59.5 -22.5q37 0 67.5 25.5t39.5 66.5 l129 557q19 90 -66 90q-38 0 -68.5 -25t-39.5 -65z" />
<glyph unicode="&#x26;" horiz-adv-x="843" d="M430 1354l-63 -279q-13 -54 -13 -82q0 -50 28 -69t91 -19h387l-29 -123h-147l-123 -534q-10 -45 -10 -66q0 -63 57 -63q40 0 80 35l-4 -123q-58 -47 -137 -47q-96 0 -129 77q-91 -84 -203 -84q-94 0 -145.5 59t-51.5 157q0 49 11 94l71 307q25 110 72 170t119 84 q-76 31 -76 129q0 47 14 104l66 279q34 148 131 237t223 89q101 0 160 -58t59 -160q0 -44 -12 -94l-12 -53h-127l10 47q8 33 8 68q0 108 -108 108q-75 0 -126.5 -51.5t-70.5 -138.5zM406 170q4 40 10 63l127 549h-107q-84 0 -129 -43t-67 -141l-70 -305q-8 -46 -8 -62 q0 -53 26 -83.5t78 -30.5q87 0 140 53z" />
<glyph unicode="'" horiz-adv-x="286" d="M330 1632h133l-139 -522h-95z" />
<glyph unicode="(" horiz-adv-x="581" d="M860 1964l-26 -119q-82 -14 -137 -47.5t-99 -106.5t-72 -192l-338 -1464q-20 -87 -20 -154q0 -91 41 -134.5t127 -57.5l-27 -119q-260 33 -260 297q0 72 21 166l340 1468q96 416 450 463z" />
<glyph unicode=")" horiz-adv-x="581" d="M-170 -430l27 119q61 11 105.5 31.5t83.5 59.5t68 102t50 153l338 1464q20 87 20 154q0 91 -41 134.5t-127 57.5l27 119q260 -33 260 -297q0 -76 -20 -166l-340 -1468q-96 -416 -451 -463z" />
<glyph unicode="*" horiz-adv-x="866" d="M342 1436l221 -189l68 357h94l-94 -355l311 191l29 -84l-318 -164l242 -164l-66 -84l-221 191l-69 -357h-95l97 355l-312 -193l-28 84l317 164l-242 164z" />
<glyph unicode="+" horiz-adv-x="1034" d="M618 1227h117l-90 -389h348l-26 -119h-351l-88 -391h-118l90 391h-346l26 119h348z" />
<glyph unicode="," horiz-adv-x="325" d="M113 18l-187 -294h-53l102 366q11 43 38 68.5t67 25.5q36 0 54 -19.5t18 -53.5q0 -12 -2 -22t-7 -20.5t-8.5 -16.5t-11 -17.5t-10.5 -16.5z" />
<glyph unicode="-" horiz-adv-x="616" d="M145 836h465l-28 -119h-465z" />
<glyph unicode="." horiz-adv-x="325" d="M80 184q35 0 52.5 -19.5t17.5 -51.5q0 -48 -30 -83.5t-83 -35.5q-32 0 -49 20t-17 52q0 47 29.5 82.5t79.5 35.5z" />
<glyph unicode="/" horiz-adv-x="704" d="M836 1780h118l-979 -2026h-118z" />
<glyph unicode="0" d="M877 1311l-236 -1018q-34 -147 -139.5 -234.5t-233.5 -87.5q-106 0 -170.5 61.5t-64.5 168.5q0 43 12 92l234 1018q33 147 138.5 234t233.5 87q107 0 171.5 -61.5t64.5 -173.5q0 -45 -10 -86zM424 1309l-236 -1016q-8 -31 -8 -62q0 -59 31.5 -88.5t85.5 -29.5 q72 0 127 50t74 130l235 1016q8 31 8 61q0 60 -32 90.5t-86 30.5q-69 0 -123.5 -47t-75.5 -135z" />
<glyph unicode="1" horiz-adv-x="473" d="M266 1458h82q83 0 115 146h147l-370 -1604h-148l307 1333h-161z" />
<glyph unicode="2" horiz-adv-x="722" d="M623 1632q221 0 221 -254q0 -114 -34.5 -195t-115.5 -182q-56 -72 -193 -218.5t-182 -200.5q-58 -70 -84 -124t-47 -143l-38 -174h415l-33 -141h-563l74 315q40 172 150 314q60 73 190 214t188 206q41 51 62.5 82.5t42 91.5t20.5 129q0 74 -26.5 106.5t-83.5 32.5 q-73 0 -122.5 -46.5t-68.5 -133.5l-12 -49h-135l12 53q34 148 130 232.5t233 84.5z" />
<glyph unicode="3" horiz-adv-x="761" d="M621 1632q114 0 170.5 -61.5t56.5 -169.5q0 -43 -14 -115l-50 -217q-23 -103 -64.5 -159.5t-107.5 -78.5q88 -40 88 -149q0 -49 -14 -109l-65 -286q-33 -143 -138.5 -229.5t-234.5 -86.5q-106 0 -168 60.5t-62 165.5q0 47 11 92l18 82l129 -35l-10 -45q-8 -40 -8 -60 q0 -58 31.5 -88t89.5 -30q70 0 125 48t73 130l66 284q12 53 12 89q0 55 -29.5 77.5t-95.5 22.5h-102l28 127h95q81 0 124 38t66 136l49 223q12 50 12 86q0 117 -114 117q-71 0 -119.5 -49t-67.5 -135l-10 -45h-137l12 53q34 147 129.5 232t225.5 85z" />
<glyph unicode="4" horiz-adv-x="772" d="M721 1604h137l-215 -924h98l-32 -143h-99l-123 -537h-135l123 537h-407l30 133l361 651h131l-354 -641h272z" />
<glyph unicode="5" horiz-adv-x="755" d="M375 1604h520l-33 -142h-397l-103 -329q106 88 230 88q172 0 172 -172q0 -55 -14 -115l-150 -645q-33 -145 -134 -231.5t-224 -86.5q-103 0 -165.5 61t-62.5 167q0 45 11 90l18 82l129 -35l-10 -45q-8 -40 -8 -58q0 -56 31 -88t83 -32q65 0 118 48.5t71 129.5l149 645 q8 39 8 70q0 50 -24 69t-70 19q-116 0 -217 -129l-106 41z" />
<glyph unicode="6" horiz-adv-x="778" d="M424 1311l-70 -297q107 102 228 102q80 0 127 -47.5t47 -138.5q0 -42 -13 -105l-122 -536q-33 -144 -136.5 -231t-228.5 -87q-101 0 -162 61.5t-61 166.5q0 49 10 90l238 1026q33 146 135 231.5t233 85.5q105 0 163 -57t58 -160q0 -47 -12 -100l-12 -53h-135l10 49 q8 31 8 63q0 57 -29.5 87t-83.5 30q-69 0 -120.5 -47.5t-71.5 -132.5zM512 981q-98 0 -188 -104l-136 -586q-8 -46 -8 -60q0 -57 30.5 -87.5t84.5 -30.5q66 0 118 47t72 131l117 508q10 52 10 80q0 102 -100 102z" />
<glyph unicode="7" horiz-adv-x="655" d="M313 1604h525l-29 -125l-639 -1479h-154l652 1462h-387z" />
<glyph unicode="8" horiz-adv-x="768" d="M219 1090l45 196q36 154 134 250t235 96q109 0 165 -61.5t56 -167.5q0 -60 -14 -117l-45 -196q-26 -109 -71.5 -170.5t-115.5 -88.5q97 -37 97 -155q0 -48 -15 -113l-63 -276q-33 -144 -139.5 -230t-239.5 -86q-110 0 -176 62t-66 168q0 34 10 86l64 276q50 218 205 268 q-82 39 -82 144q0 43 16 115zM219 578l-63 -277q-9 -37 -9 -65q0 -64 36 -95.5t98 -31.5q72 0 133.5 53t81.5 139l63 277q10 41 10 84q0 56 -32 80t-105 24q-85 0 -137 -43.5t-76 -144.5zM399 1292l-53 -231q-10 -41 -10 -82q0 -51 28.5 -71.5t96.5 -20.5q77 0 124.5 39.5 t69.5 134.5l54 231q10 52 10 82q0 121 -119 121q-74 0 -127 -56t-74 -147z" />
<glyph unicode="9" horiz-adv-x="778" d="M283 113q71 0 122.5 47t71.5 131l80 348q-106 -98 -223 -98q-82 0 -130 47.5t-48 140.5q0 47 12 102l113 484q33 142 136 229.5t228 87.5q101 0 161 -60t60 -165q0 -51 -10 -92l-235 -1026q-33 -146 -135.5 -232t-233.5 -86q-105 0 -163 57t-58 160q0 48 12 101l18 82 l129 -35l-10 -45q-8 -33 -8 -68q0 -110 111 -110zM416 1311l-105 -453q-10 -41 -10 -82q0 -51 23.5 -75.5t74.5 -24.5q99 0 191 102l123 533q8 33 8 65q0 58 -29.5 86.5t-81.5 28.5q-69 0 -122 -49t-72 -131z" />
<glyph unicode=":" horiz-adv-x="411" d="M279 868q69 0 69 -71q0 -48 -30 -83.5t-82 -35.5q-32 0 -49 20t-17 52q0 47 29.5 82.5t79.5 35.5zM145 287q35 0 52.5 -19.5t17.5 -52.5q0 -48 -30 -83.5t-83 -35.5q-32 0 -48.5 20t-16.5 52q0 48 29 83.5t79 35.5z" />
<glyph unicode=";" horiz-adv-x="411" d="M178 121l-186 -295h-53l102 367q11 43 37.5 68.5t66.5 25.5q35 0 53.5 -20t18.5 -54q0 -14 -4.5 -28.5t-7.5 -21t-14 -23zM279 868q69 0 69 -71q0 -48 -30 -83.5t-82 -35.5q-32 0 -49 20t-17 52q0 47 29.5 82.5t79.5 35.5z" />
<glyph unicode="&#x3c;" horiz-adv-x="1034" d="M180 836l893 344l-29 -127l-761 -279l632 -280l-28 -121l-735 344z" />
<glyph unicode="=" horiz-adv-x="1034" d="M227 1038h813l-26 -118h-815zM133 633h813l-26 -119h-814z" />
<glyph unicode="&#x3e;" horiz-adv-x="1034" d="M967 717l-893 -344l28 127l760 278l-631 281l29 121l735 -344z" />
<glyph unicode="?" horiz-adv-x="710" d="M614 1645q102 0 161 -58t59 -180q0 -30 -2 -56.5t-11 -55t-13.5 -47t-22.5 -50.5t-24.5 -45t-34 -51.5t-35.5 -50t-44 -59.5t-47 -62q-104 -140 -145 -203t-71.5 -136.5t-57.5 -187.5h-84q12 94 28 159t49.5 134t69.5 124t109 157q124 172 158 240t34 159q0 69 -25 98 t-79 29q-71 0 -126 -44.5t-73 -125.5l-16 -71h-129l18 79q33 146 130 225t224 79zM233 184q35 0 52.5 -19.5t17.5 -51.5q0 -46 -30 -82.5t-80 -36.5q-35 0 -52.5 20.5t-17.5 51.5q0 47 30 82.5t80 35.5z" />
<glyph unicode="@" horiz-adv-x="1320" d="M874 954l95 27l-166 -719q-6 -24 -6 -43q0 -28 14 -40.5t47 -12.5q74 0 137.5 61t104 153.5t69.5 205.5t41.5 214t12.5 181q0 191 -82 281t-244 90q-136 0 -258 -60.5t-213 -165t-158 -240.5t-101 -292t-34 -315q0 -214 59 -357.5t156 -218.5l-65 -90q-246 186 -246 637 q0 174 36 345t110 325t176 271.5t244.5 187t305.5 69.5q212 0 311 -118.5t99 -352.5q0 -85 -12 -180.5t-36 -198t-64.5 -195.5t-91.5 -167t-123 -118t-154 -44q-112 0 -131 88q-85 -88 -177 -88q-54 0 -86 33.5t-32 95.5q0 28 10 76l108 471q22 97 78.5 150.5t122.5 53.5 q79 0 125 -73zM618 739l-104 -452q-8 -39 -8 -62q0 -59 65 -59q72 0 138 76l125 538q-37 82 -109 82q-79 0 -107 -123z" />
<glyph unicode="A" horiz-adv-x="780" d="M561 1604h146l-107 -1604h-141l20 256h-305l-96 -256h-144zM221 379h268l70 895z" />
<glyph unicode="B" horiz-adv-x="794" d="M358 1604h295q107 0 166.5 -57.5t59.5 -160.5q0 -43 -13 -100l-49 -217q-44 -193 -172 -238q88 -37 88 -149q0 -49 -14 -109l-57 -243q-36 -157 -133 -243.5t-232 -86.5h-309zM307 764l-143 -625h153q77 0 129.5 53t73.5 146l53 237q13 57 13 91q0 53 -29.5 75.5 t-93.5 22.5h-156zM469 1464l-133 -573h147q80 0 123 38t66 136l47 205q10 48 10 80q0 114 -119 114h-141z" />
<glyph unicode="C" horiz-adv-x="751" d="M424 1311l-236 -1020q-8 -33 -8 -62q0 -58 29.5 -87t81.5 -29q67 0 120.5 46.5t73.5 131.5l11 45l143 35l-18 -82q-33 -144 -136.5 -231t-228.5 -87q-102 0 -162.5 61t-60.5 171q0 45 10 86l238 1026q33 146 135 231.5t233 85.5q105 0 163 -57t58 -160q0 -47 -24 -153 h-137q22 93 22 120q0 54 -30 81.5t-83 27.5q-68 0 -120.5 -45.5t-73.5 -134.5z" />
<glyph unicode="D" horiz-adv-x="800" d="M358 1604h299q108 0 166 -57.5t58 -172.5q0 -55 -19 -139l-200 -866q-42 -183 -139.5 -276t-233.5 -93h-301zM471 1462l-305 -1321h143q76 0 128 56t77 163l205 883q14 65 14 98q0 121 -119 121h-143z" />
<glyph unicode="E" horiz-adv-x="669" d="M358 1604h480l-33 -142h-334l-129 -565h242l-33 -141h-244l-141 -615h334l-33 -141h-479z" />
<glyph unicode="F" horiz-adv-x="673" d="M358 1604h500l-33 -142h-354l-141 -618h266l-33 -142h-268l-162 -702h-145z" />
<glyph unicode="G" horiz-adv-x="778" d="M422 1311l-236 -1020q-8 -33 -8 -64q0 -114 109 -114q67 0 123 46t77 132l103 446h-164l31 135h293l-201 -872h-92l10 80q-109 -109 -238 -109q-92 0 -145 57t-53 158q0 48 12 103l238 1026q33 145 134.5 231t231.5 86q104 0 163.5 -58t59.5 -161q0 -45 -24 -151h-135 q18 83 18 114q0 57 -29.5 86t-83.5 29q-70 0 -122 -48t-72 -132z" />
<glyph unicode="H" horiz-adv-x="819" d="M358 1604h146l-166 -717h307l164 717h147l-370 -1604h-148l172 745h-305l-172 -745h-145z" />
<glyph unicode="I" horiz-adv-x="368" d="M358 1604h146l-371 -1604h-145z" />
<glyph unicode="J" horiz-adv-x="745" d="M741 1604h144l-303 -1315q-34 -148 -135 -233t-228 -85q-105 0 -165 59t-60 163q0 44 31 178l129 -35q-19 -83 -19 -111q0 -56 29.5 -84t81.5 -28q67 0 119 46t73 132z" />
<glyph unicode="K" horiz-adv-x="757" d="M780 1604h154l-459 -668l111 -936h-152l-100 872l-201 -872h-145l370 1604h146l-142 -615z" />
<glyph unicode="L" horiz-adv-x="616" d="M358 1604h146l-338 -1463h297l-33 -141h-442z" />
<glyph unicode="M" horiz-adv-x="1042" d="M358 1604h158l-53 -1332l567 1332h150l-371 -1604h-131l262 1141l-473 -1141h-135l51 1143l-264 -1143h-131z" />
<glyph unicode="N" horiz-adv-x="800" d="M358 1604h160l14 -1211l279 1211h127l-371 -1604h-131l-30 1264l-289 -1264h-129z" />
<glyph unicode="O" d="M877 1311l-236 -1018q-34 -147 -139.5 -234.5t-233.5 -87.5q-106 0 -170.5 61.5t-64.5 168.5q0 43 12 92l234 1018q33 147 138.5 234t233.5 87q107 0 171.5 -61.5t64.5 -173.5q0 -45 -10 -86zM424 1309l-236 -1016q-8 -31 -8 -62q0 -59 31.5 -88.5t85.5 -29.5 q72 0 127 50t74 130l235 1016q8 31 8 61q0 60 -32 90.5t-86 30.5q-69 0 -123.5 -47t-75.5 -135z" />
<glyph unicode="P" horiz-adv-x="782" d="M358 1604h299q108 0 166 -57.5t58 -172.5q0 -55 -19 -139l-53 -234q-42 -183 -140.5 -275.5t-234.5 -92.5h-155l-146 -633h-145zM471 1462l-158 -688h142q156 0 207 219l57 250q14 68 14 100q0 119 -119 119h-143z" />
<glyph unicode="Q" horiz-adv-x="798" d="M877 1311l-232 -1002q-29 -125 -115 -211l86 -196l-122 -78l-84 192q-67 -28 -138 -28q-106 0 -170.5 61t-64.5 168q0 43 12 92l232 1002q34 147 138 234t232 87q107 0 171.5 -61.5t64.5 -173.5q0 -45 -10 -86zM311 248l123 78l39 -95q18 30 27 70l233 1008q8 32 8 65 q0 56 -32.5 86.5t-87.5 30.5q-68 0 -122.5 -49t-74.5 -133l-234 -1008q-8 -31 -8 -61q0 -59 32 -89t85 -30q31 0 61 10z" />
<glyph unicode="R" horiz-adv-x="798" d="M358 1604h295q107 0 166.5 -57.5t59.5 -160.5q0 -43 -13 -100l-49 -217q-42 -186 -164 -233q78 -37 78 -136q0 -42 -12 -98l-139 -602h-146l141 608q11 53 11 74q0 47 -29.5 65.5t-99.5 18.5h-150l-176 -766h-143zM469 1464l-133 -571h141q84 0 128.5 38.5t66.5 131.5 l47 207q10 48 10 80q0 114 -119 114h-141z" />
<glyph unicode="S" horiz-adv-x="745" d="M629 1632q108 0 164.5 -58.5t56.5 -160.5q0 -38 -23 -153h-137q19 90 19 116q0 119 -109 119q-93 0 -154 -78.5t-61 -193.5q0 -87 35 -168q16 -38 91.5 -183t98.5 -204q37 -88 37 -201q0 -75 -15.5 -146t-48 -134.5t-78 -111.5t-111 -76t-142.5 -28q-121 0 -185.5 63.5 t-64.5 164.5q0 40 31 170l129 -35q-21 -89 -21 -111q0 -55 33.5 -86t93.5 -31q73 0 126.5 47.5t78.5 119t25 155.5q0 87 -33 174q-18 45 -86 173.5t-88 176.5q-47 117 -47 240q0 187 111 313.5t274 126.5z" />
<glyph unicode="T" horiz-adv-x="620" d="M309 1604h496l-33 -142h-174l-338 -1462h-147l338 1462h-175z" />
<glyph unicode="U" horiz-adv-x="811" d="M354 1604h148l-303 -1311q-9 -37 -9 -62q0 -59 31 -88.5t84 -29.5q73 0 127 51t72 129l303 1311h143l-303 -1311q-35 -148 -139.5 -235t-235.5 -87q-106 0 -169.5 61.5t-63.5 168.5q0 43 12 92z" />
<glyph unicode="V" horiz-adv-x="782" d="M305 1604h144l-105 -1272l483 1272h144l-629 -1604h-147z" />
<glyph unicode="W" horiz-adv-x="1118" d="M313 1604h140l-181 -1217l463 1217h139l-114 -1213l399 1213h141l-542 -1604h-148l117 1278l-489 -1278h-144z" />
<glyph unicode="X" horiz-adv-x="804" d="M836 1604h145l-438 -779l90 -825h-150l-65 633l-348 -633h-144l469 850l-80 754h146l57 -564z" />
<glyph unicode="Y" horiz-adv-x="813" d="M295 1604h147l58 -664l368 664h144l-484 -854l-172 -750h-145l172 750z" />
<glyph unicode="Z" horiz-adv-x="716" d="M330 1604h557l-27 -113l-723 -1350h412l-31 -141h-565l31 135l716 1327h-401z" />
<glyph unicode="[" horiz-adv-x="581" d="M516 1964h346l-28 -119h-228l-497 -2156h227l-27 -119h-346z" />
<glyph unicode="\" horiz-adv-x="692" d="M324 1780h118l45 -2026h-118z" />
<glyph unicode="]" horiz-adv-x="581" d="M182 -430h-346l29 119h227l498 2156h-228l27 119h346z" />
<glyph unicode="^" horiz-adv-x="888" d="M633 1604h117l98 -899h-119l-70 753l-415 -753h-125z" />
<glyph unicode="_" horiz-adv-x="827" d="M-135 -145h792l-22 -99h-795z" />
<glyph unicode="`" horiz-adv-x="552" d="M440 1673h156l88 -323h-125z" />
<glyph unicode="a" horiz-adv-x="761" d="M317 1030l-57 98q55 65 135 102.5t162 37.5q101 0 152 -58t51 -161q0 -57 -15 -121l-215 -928h-90l-8 78q-115 -94 -239 -94q-187 0 -187 243q0 91 27.5 166.5t107.5 163.5t219 180q71 47 240 148q23 92 23 127q0 123 -115 123q-110 0 -191 -105zM262 119q88 0 182 88 l125 536q-79 -44 -159 -100q-140 -97 -197 -185.5t-57 -195.5q0 -79 26 -111t80 -32z" />
<glyph unicode="b" horiz-adv-x="782" d="M365 1634l149 35l-115 -495q115 94 224 94q80 0 130 -51.5t50 -149.5q0 -47 -12 -102l-158 -678q-34 -146 -120.5 -224.5t-188.5 -78.5q-125 0 -191 110l-47 -94h-98zM553 1126q-91 0 -186 -98l-189 -809q52 -96 137 -96q69 0 117 52t68 138l143 623q10 52 10 82 q0 108 -100 108z" />
<glyph unicode="c" horiz-adv-x="735" d="M336 956l-152 -663q-6 -30 -6 -57q0 -55 28.5 -84t78.5 -29q62 0 112 45t68 125l18 88l142 35l-31 -129q-33 -138 -131 -220.5t-217 -82.5q-97 0 -155 58t-58 159q0 34 10 86l158 678q31 138 128 220.5t214 82.5q98 0 157.5 -58t59.5 -159q0 -33 -23 -140h-129 q17 80 17 101q0 55 -28.5 84.5t-80.5 29.5q-63 0 -111.5 -45t-68.5 -125z" />
<glyph unicode="d" horiz-adv-x="790" d="M793 1634l149 35l-385 -1669h-98l-2 96q-118 -112 -244 -112q-81 0 -131.5 52t-50.5 148q0 44 12 103l158 678q33 142 118.5 222.5t186.5 80.5q111 0 180 -92zM334 936l-144 -623q-10 -39 -10 -80q0 -110 99 -110q90 0 190 100l184 809q-50 94 -135 94q-68 0 -116 -50 t-68 -140z" />
<glyph unicode="e" horiz-adv-x="745" d="M477 569q-118 -88 -272 -176q-29 -134 -29 -160q0 -56 28 -84t79 -28q63 0 113.5 46t68.5 124l20 90l140 35l-31 -129q-33 -138 -131 -220.5t-217 -82.5q-97 0 -155 58t-58 159q0 34 10 86l158 678q32 138 128 220.5t216 82.5q93 0 155 -57t62 -179q0 -134 -61.5 -239 t-223.5 -224zM336 958l-98 -428q104 64 188 132q103 80 149 156t46 188q0 131 -107 131q-63 0 -110.5 -48t-67.5 -131z" />
<glyph unicode="f" horiz-adv-x="622" d="M213 1251h135l29 121q34 143 117 228.5t206 85.5q85 0 144 -41l-68 -125q-35 32 -90 32q-65 0 -109.5 -49.5t-64.5 -132.5l-29 -119h201l-29 -123h-200l-260 -1128h-136l260 1128h-135z" />
<glyph unicode="g" horiz-adv-x="790" d="M748 1251h100l-305 -1323q-31 -137 -129 -220t-215 -83q-98 0 -157.5 58t-59.5 159q0 43 34 191l123 -33q-24 -108 -24 -127q0 -55 29.5 -83t80.5 -28q61 0 112 46t69 124l63 275q-113 -96 -227 -96q-81 0 -131 50.5t-50 147.5q0 42 13 105l127 551q33 146 120 224.5 t187 78.5q125 0 194 -115zM336 936l-115 -498q-10 -39 -10 -82q0 -108 102 -108q90 0 189 102l155 676q-53 100 -141 100q-66 0 -112 -49t-68 -141z" />
<glyph unicode="h" d="M365 1634l149 35l-113 -483q104 82 215 82q85 0 136 -51.5t51 -149.5q0 -47 -12 -102l-224 -965h-141l217 936q10 52 10 82q0 108 -106 108q-89 0 -178 -86l-240 -1040h-141z" />
<glyph unicode="i" horiz-adv-x="360" d="M276 1251h142l-289 -1251h-141zM434 1636q34 0 51 -19t17 -50q0 -48 -30.5 -84.5t-82.5 -36.5q-32 0 -49.5 20.5t-17.5 51.5q0 48 30 83t82 35z" />
<glyph unicode="j" horiz-adv-x="387" d="M305 1251h139l-303 -1314q-31 -135 -115 -223.5t-208 -88.5q-90 0 -137 47l65 125q37 -37 84 -37q60 0 107 49.5t65 127.5zM465 1636q34 0 50.5 -19t16.5 -50q0 -48 -30 -84.5t-82 -36.5q-32 0 -50 20.5t-18 51.5q0 48 30.5 83t82.5 35z" />
<glyph unicode="k" horiz-adv-x="737" d="M680 1251h151l-413 -520l147 -731h-147l-131 682l-158 -682h-141l377 1634l149 35l-207 -897z" />
<glyph unicode="l" horiz-adv-x="360" d="M365 1634l149 35l-385 -1669h-141z" />
<glyph unicode="m" horiz-adv-x="1191" d="M276 1251h99l4 -82q108 99 225 99q62 0 106.5 -31.5t61.5 -91.5q56 60 121 91.5t127 31.5q80 0 129 -51.5t49 -147.5q0 -45 -12 -104l-223 -965h-142l217 936q13 57 13 88q0 102 -99 102q-87 0 -174 -90q-4 -43 -10 -71l-223 -965h-142l218 936q12 53 12 88 q0 102 -96 102q-83 0 -168 -82l-240 -1044h-141z" />
<glyph unicode="n" d="M276 1251h99l4 -84q113 101 237 101q85 0 136 -51.5t51 -149.5q0 -47 -12 -102l-224 -965h-141l217 936q10 41 10 80q0 54 -23 82t-81 28q-91 0 -180 -86l-240 -1040h-141z" />
<glyph unicode="o" horiz-adv-x="765" d="M764 965l-156 -678q-31 -137 -131 -220t-221 -83q-101 0 -162 58t-61 161q0 45 10 84l158 678q32 138 131 220.5t221 82.5q100 0 160.5 -59t60.5 -160q0 -32 -10 -84zM336 956l-152 -663q-8 -31 -8 -57q0 -55 30 -84t79 -29q66 0 116.5 46.5t69.5 123.5l154 663 q6 30 6 58q0 56 -29 84t-80 28q-65 0 -116 -46t-70 -124z" />
<glyph unicode="p" horiz-adv-x="790" d="M276 1251h99l2 -98q121 115 246 115q80 0 130 -51.5t50 -149.5q0 -47 -12 -102l-158 -678q-34 -146 -119.5 -224.5t-187.5 -78.5q-114 0 -181 92l-98 -426h-141zM553 1126q-91 0 -188 -100l-187 -807q49 -96 139 -96q66 0 112.5 49t68.5 141l145 623q10 41 10 80 q0 57 -25 83.5t-75 26.5z" />
<glyph unicode="q" horiz-adv-x="790" d="M748 1251h98l-369 -1601h-141l98 426q-112 -92 -221 -92q-81 0 -131.5 52t-50.5 148q0 44 12 103l158 678q33 142 118.5 222.5t186.5 80.5q61 0 111 -30t83 -83zM334 936l-144 -623q-10 -39 -10 -77q0 -113 101 -113q92 0 186 100l188 809q-50 94 -139 94 q-67 0 -114.5 -50t-67.5 -140z" />
<glyph unicode="r" horiz-adv-x="628" d="M739 1214l-67 -124q-38 36 -99 36q-110 0 -217 -137l-227 -989h-141l288 1251h99l-4 -133q113 150 241 150q82 0 127 -54z" />
<glyph unicode="s" horiz-adv-x="727" d="M539 1268q111 0 167 -50.5t56 -136.5q0 -36 -31 -170h-129q23 104 23 123q0 99 -115 99q-86 0 -139.5 -52t-53.5 -139q0 -71 41 -131q23 -36 104.5 -125t106.5 -135q39 -68 39 -172q0 -78 -22.5 -147.5t-65.5 -125.5t-114 -89t-162 -33q-117 0 -179.5 52.5t-62.5 145.5 q0 34 45 234l123 -35q-31 -127 -31 -154q0 -52 33 -80t98 -28q56 0 97.5 21t63 56t31 72.5t9.5 79.5q0 72 -37 133q-32 54 -111 141t-100 121q-45 74 -45 177q0 154 102 251t259 97z" />
<glyph unicode="t" horiz-adv-x="620" d="M213 1251h129l55 240l152 55l-70 -295h205l-29 -123h-204l-191 -831q-10 -52 -10 -78q0 -100 100 -100q50 0 101 35l10 -123q-67 -47 -162 -47q-97 0 -143.5 54.5t-46.5 147.5q0 43 14 111l190 831h-129z" />
<glyph unicode="u" horiz-adv-x="788" d="M705 1251h141l-289 -1251h-98l-4 84q-109 -100 -234 -100q-83 0 -133.5 51t-50.5 147q0 46 12 105l223 964h142l-217 -938q-13 -54 -13 -82q0 -108 105 -108q85 0 176 88z" />
<glyph unicode="v" horiz-adv-x="751" d="M227 1251h135l-53 -991l412 991h137l-539 -1251h-139z" />
<glyph unicode="w" horiz-adv-x="1052" d="M231 1251h134l-125 -942l385 942h131l-64 -946l328 946h133l-448 -1251h-138l64 999l-414 -999h-135z" />
<glyph unicode="x" horiz-adv-x="823" d="M770 1251h148l-410 -604l143 -647h-157l-101 494l-323 -494h-144l432 662l-122 589h149l88 -440z" />
<glyph unicode="y" horiz-adv-x="788" d="M705 1251h139l-369 -1601h-141l100 434q-99 -80 -207 -80q-85 0 -135.5 51t-50.5 148q0 46 12 104l217 944h142l-211 -917q-11 -43 -11 -78q0 -113 103 -113q86 0 174 88z" />
<glyph unicode="z" horiz-adv-x="696" d="M250 1251h536l-22 -98l-633 -1032h393l-26 -121h-545l27 117l626 1011h-385z" />
<glyph unicode="{" horiz-adv-x="581" d="M862 1964l-28 -119q-93 0 -131.5 -35t-63.5 -141l-168 -729q-16 -67 -64 -116t-90 -56q30 -5 53 -43t23 -92q0 -24 -6 -51l-166 -719q-14 -60 -14 -96q0 -49 27 -63.5t102 -14.5l-27 -119q-119 0 -171 35t-52 123q0 56 18 135l162 704q8 33 8 62q0 41 -19.5 59.5 t-61.5 18.5h-68l27 116h67q108 0 137 131l164 715q38 168 113 231.5t229 63.5z" />
<glyph unicode="|" horiz-adv-x="489" d="M494 1862h116l-506 -2190h-116z" />
<glyph unicode="}" horiz-adv-x="581" d="M-174 -430l29 119q93 0 131 35t63 141l168 729q16 67 64 116t90 56q-30 5 -53 43t-23 92q0 24 6 51l166 719q14 60 14 96q0 49 -27 63.5t-102 14.5l27 119q119 0 171 -35t52 -123q0 -56 -18 -135l-162 -704q-8 -33 -8 -62q0 -78 82 -78h67l-26 -116h-68q-108 0 -137 -131 l-164 -715q-38 -168 -113 -231.5t-229 -63.5z" />
<glyph unicode="~" horiz-adv-x="1034" d="M129 614l35 148q50 58 109 88.5t143 30.5q36 0 71.5 -8.5t56.5 -17t58 -26.5q84 -41 158 -41q134 0 258 152l-33 -147q-55 -62 -113.5 -92.5t-138.5 -30.5q-85 0 -188 49q-91 43 -158 43q-73 0 -134.5 -36.5t-123.5 -111.5z" />
<glyph unicode="&#xa1;" horiz-adv-x="362" d="M74 -279h-174l329 1229h82zM322 1169q-34 0 -52 20t-18 52q0 47 31 83t82 36q34 0 50.5 -19.5t16.5 -52.5q0 -47 -30 -83t-80 -36z" />
<glyph unicode="&#xa2;" horiz-adv-x="778" d="M389 1130l-151 -663q-7 -35 -7 -57q0 -54 27.5 -83.5t77.5 -29.5q61 0 112.5 44t69.5 126l19 88l141 35l-31 -129q-30 -127 -117.5 -208t-195.5 -93l-45 -201h-62l45 199q-86 8 -136 64t-50 153q0 45 10 86l158 678q30 130 118 211t197 90l47 205h62l-49 -205 q81 -9 132.5 -66.5t51.5 -148.5q0 -37 -22 -140h-129q16 75 16 101q0 55 -29.5 84.5t-79.5 29.5q-62 0 -112 -45t-68 -125z" />
<glyph unicode="&#xa3;" horiz-adv-x="860" d="M178 948h101l83 367q33 145 135.5 231t233.5 86q104 0 161.5 -57t57.5 -160q0 -45 -24 -153h-135q20 80 20 110q0 58 -29.5 88.5t-83.5 30.5q-69 0 -120.5 -47.5t-71.5 -132.5l-84 -363h371l-29 -119h-371l-157 -688h413l-33 -141h-641l33 141h84l158 688h-98z" />
<glyph unicode="&#xa4;" horiz-adv-x="1345" d="M457 872l-47 -190q-13 -57 -13 -98q0 -108 64.5 -169t167.5 -61q129 0 235.5 91t141.5 237l45 190q12 52 12 99q0 111 -64.5 171t-169.5 60q-132 0 -234 -92t-138 -238zM371 1425l153 -231q147 131 332 131q182 0 268 -131l262 233l66 -86l-287 -251q6 -41 6 -84 q0 -65 -12 -117l-51 -223q-27 -116 -88 -203l168 -252l-101 -84l-155 233q-146 -127 -330 -127t-268 129l-262 -233l-66 84l287 254q-8 33 -8 92q0 45 14 107l51 223q24 110 86 203l-166 251z" />
<glyph unicode="&#xa5;" horiz-adv-x="964" d="M39 371h332l43 188h-334l24 98h332l23 93l-88 854h147l57 -664l369 664h141l-481 -854l-22 -93h336l-23 -98h-336l-43 -188h336l-25 -99h-333l-62 -272h-147l63 272h-334z" />
<glyph unicode="&#xa6;" horiz-adv-x="489" d="M494 1862h116l-221 -961h-117zM209 633h119l-224 -961h-116z" />
<glyph unicode="&#xa7;" horiz-adv-x="765" d="M680 1632q94 0 143 -50.5t49 -139.5q0 -35 -20 -135h-119q17 83 17 102q0 102 -95 102q-81 0 -134.5 -68t-53.5 -167q0 -67 31 -148q13 -30 79 -156.5t87 -178.5q32 -78 32 -177q0 -139 -61.5 -254.5t-173.5 -156.5q45 -106 45 -205q0 -82 -22 -157.5t-63.5 -137 t-108.5 -98.5t-150 -37q-105 0 -161 55t-56 142q0 38 26 149l113 -31q-18 -76 -18 -96q0 -48 29 -75t81 -27q93 0 146 83t53 197q0 76 -29 152q-15 39 -74.5 151t-76.5 154q-41 102 -41 209q0 135 69 236.5t178 134.5q-57 114 -57 245q0 162 97.5 272.5t238.5 110.5z M307 512q9 -21 24.5 -52t41 -80t37.5 -71q73 19 114 97.5t41 177.5q0 78 -28 151q-21 50 -80 160q-77 -3 -129 -71.5t-52 -164.5q0 -66 31 -147z" />
<glyph unicode="&#xa8;" horiz-adv-x="624" d="M717 1636q34 0 50.5 -19t16.5 -50q0 -48 -30 -84.5t-82 -36.5q-32 0 -49 20.5t-17 51.5q0 48 30.5 83t80.5 35zM418 1636q34 0 50.5 -19t16.5 -50q0 -48 -30 -84.5t-82 -36.5q-32 0 -50 20.5t-18 51.5q0 48 30.5 83t82.5 35z" />
<glyph unicode="&#xa9;" horiz-adv-x="1441" d="M129 629l78 340q45 198 161 350.5t273 232.5t330 80q220 0 354.5 -129t134.5 -350q0 -80 -22 -184l-80 -340q-35 -149 -112 -273.5t-179.5 -208t-225.5 -130t-251 -46.5q-219 0 -351.5 127.5t-132.5 345.5q0 77 23 185zM272 969l-77 -340q-21 -89 -21 -168 q0 -198 117 -311t309 -113q155 0 298 73.5t248.5 209.5t145.5 309l78 340q21 89 21 170q0 200 -119 313t-311 113q-154 0 -295.5 -72t-247 -209t-146.5 -315zM756 1169l-166 -714q-4 -16 -4 -35q0 -90 73 -90q48 0 88.5 32.5t51.5 92.5l6 32l100 25l-12 -57 q-23 -102 -95 -163t-161 -61q-70 0 -113 42.5t-43 117.5q0 31 8 64l166 716q25 103 95 163.5t163 60.5q74 0 114 -40.5t40 -115.5q0 -34 -16 -104h-97q17 60 17 88q0 36 -21.5 54.5t-58.5 18.5q-47 0 -84 -32.5t-51 -94.5z" />
<glyph unicode="&#xaa;" horiz-adv-x="614" d="M410 1475l-43 67q35 43 85.5 66.5t104.5 23.5q64 0 96.5 -36t32.5 -101q0 -34 -10 -82l-137 -596h-70l-4 43q-69 -53 -143 -53q-53 0 -86 35t-33 106q0 91 43 169.5t166 166.5q57 43 161 100l7 27q8 46 8 59q0 64 -66 64q-58 0 -112 -59zM375 905q49 0 98 43l76 330 q-61 -33 -94 -61q-75 -52 -109.5 -102t-34.5 -134q0 -76 64 -76z" />
<glyph unicode="&#xab;" horiz-adv-x="704" d="M682 1251h129l-340 -630l49 -621h-127l-47 625zM416 1251h129l-340 -630l49 -621h-127l-47 625z" />
<glyph unicode="&#xac;" horiz-adv-x="1034" d="M188 874h813l-202 -874h-119l176 756h-694z" />
<glyph unicode="&#xad;" horiz-adv-x="616" d="M145 836h465l-28 -119h-465z" />
<glyph unicode="&#xae;" horiz-adv-x="1441" d="M129 629l78 340q45 198 161 350.5t273 232.5t330 80q220 0 354.5 -129t134.5 -350q0 -80 -22 -184l-80 -340q-35 -149 -112 -273.5t-179.5 -208t-225.5 -130t-251 -46.5q-219 0 -351.5 127.5t-132.5 345.5q0 77 23 185zM272 969l-77 -340q-21 -89 -21 -168 q0 -198 117 -311t309 -113q155 0 298 73.5t248.5 209.5t145.5 309l78 340q21 89 21 170q0 200 -119 313t-311 113q-154 0 -295.5 -72t-247 -209t-146.5 -315zM717 1374h207q75 0 116 -39t41 -114q0 -37 -8 -68l-35 -154q-29 -132 -114 -161q55 -25 55 -93q0 -21 -8 -71 l-99 -422h-102l100 426q7 35 7 51q0 33 -20.5 46t-70.5 13h-104l-123 -536h-100zM795 1276l-93 -399h99q58 0 90 27t47 91l33 146q6 30 6 53q0 82 -82 82h-100z" />
<glyph unicode="&#xaf;" horiz-adv-x="753" d="M319 1581h601l-27 -111h-600z" />
<glyph unicode="&#xb0;" horiz-adv-x="675" d="M276 1210l43 189q24 106 101 169.5t170 63.5q78 0 125 -45t47 -123q0 -34 -8 -65l-45 -189q-24 -105 -101 -168t-170 -63q-76 0 -123 45.5t-47 122.5q0 32 8 63zM422 1399l-43 -189q-12 -58 11 -93.5t73 -35.5q51 0 91.5 35.5t53.5 93.5l43 189q13 60 -10 95.5t-74 35.5 t-91.5 -36t-53.5 -95z" />
<glyph unicode="&#xb1;" horiz-adv-x="1034" d="M618 1227h117l-90 -389h348l-26 -119h-351l-88 -391h-118l90 391h-346l26 119h348zM25 160h813l-27 -119h-813z" />
<glyph unicode="&#xb2;" horiz-adv-x="526" d="M293 1415l6 29q17 82 74.5 128t142.5 46q137 0 137 -139q0 -69 -18.5 -112t-63.5 -101q-29 -35 -113 -119t-110 -113q-35 -40 -48.5 -65t-25.5 -74l-20 -88h250l-21 -86h-344l41 174q20 96 86 172q22 24 110.5 108t117.5 121q1 1 11 13t11 14t9 13t10 15.5t7.5 16t7 20 t4.5 21.5t4 27t1 30q0 36 -13.5 50t-51.5 14q-87 0 -107 -88l-6 -27h-88z" />
<glyph unicode="&#xb3;" horiz-adv-x="550" d="M301 1415l6 29q17 79 74 126.5t135 47.5q69 0 105 -35t36 -96q0 -20 -8 -60l-26 -118q-22 -102 -97 -131q68 -29 43 -142l-34 -157q-20 -81 -82.5 -127.5t-141.5 -46.5q-77 0 -115 46.5t-20 127.5l10 47l84 -23l-6 -22q-10 -49 7 -69.5t61 -20.5q42 0 71 23t39 67l35 155 q13 62 0.5 81.5t-65.5 19.5h-64l21 80h57q47 0 68.5 18.5t33.5 69.5l29 122q12 58 -1 80.5t-60 22.5q-84 0 -103 -90l-6 -25h-86z" />
<glyph unicode="&#xb4;" horiz-adv-x="552" d="M483 1673h158l-268 -323h-127z" />
<glyph unicode="&#xb6;" horiz-adv-x="886" d="M606 1604h441l-50 -109h-65l-402 -1741h-104l401 1741h-215l-403 -1741h-105l322 1391q-77 4 -119.5 56.5t-42.5 123.5q0 115 87.5 197t254.5 82z" />
<glyph unicode="&#xb7;" horiz-adv-x="325" d="M238 872q69 0 69 -71q0 -48 -30 -83.5t-82 -35.5q-32 0 -49 20t-17 52q0 47 29.5 82.5t79.5 35.5z" />
<glyph unicode="&#xb8;" horiz-adv-x="405" d="M23 -41h141l-174 -389h-111z" />
<glyph unicode="&#xb9;" horiz-adv-x="411" d="M301 1503h41q42 0 61.5 20t34.5 81h94l-204 -883h-95l162 704h-112z" />
<glyph unicode="&#xba;" horiz-adv-x="606" d="M688 1438l-100 -434q-21 -90 -84 -142.5t-142 -52.5t-117.5 52.5t-17.5 142.5l101 434q21 90 83.5 142t141.5 52q78 0 117 -52t18 -142zM424 1427l-96 -415q-10 -49 5.5 -76t51.5 -27q38 0 67.5 27.5t41.5 75.5l94 415q10 49 -6.5 76t-53.5 27t-64.5 -27t-39.5 -76z" />
<glyph unicode="&#xbb;" horiz-adv-x="704" d="M492 1251h124l50 -626l-336 -625h-129l340 627zM225 1251h125l49 -626l-336 -625h-129l340 627z" />
<glyph unicode="&#xbc;" horiz-adv-x="1183" d="M1087 1604h107l-1038 -1604h-109zM383 1503h41q42 0 61.5 20t34.5 81h94l-204 -883h-95l162 704h-112zM963 883h90l-121 -523h67l-20 -88h-68l-61 -272h-90l61 272h-229l18 80l201 369h82l-193 -361h142z" />
<glyph unicode="&#xbd;" horiz-adv-x="1183" d="M1085 1604h107l-1038 -1604h-109zM379 1503h41q42 0 61.5 20t34.5 81h94l-204 -883h-95l162 704h-113zM729 694l6 29q17 82 74.5 128t142.5 46q138 0 138 -139q0 -69 -18.5 -112t-63.5 -101q-29 -35 -113 -119t-111 -113q-35 -39 -48 -64t-25 -75l-21 -88h250l-20 -86 h-345l41 174q20 96 86 172q22 24 110.5 108t117.5 121q1 1 11 13t11 14t9 13t10 15.5t7.5 16t7 20t4.5 21.5t4 27t1 30q0 36 -13.5 50t-51.5 14q-87 0 -107 -88l-6 -27h-88z" />
<glyph unicode="&#xbe;" horiz-adv-x="1183" d="M1120 1604h107l-1039 -1604h-108zM995 883h90l-120 -523h67l-20 -88h-68l-61 -272h-90l61 272h-229l18 80l201 369h82l-193 -361h141zM315 1415l7 29q17 80 73.5 127t134.5 47q69 0 105.5 -35t36.5 -96q0 -20 -8 -60l-27 -118q-22 -103 -96 -131q68 -29 43 -142l-35 -157 q-20 -81 -82 -127.5t-141 -46.5q-77 0 -115.5 46.5t-20.5 127.5l11 47l84 -23l-6 -22q-10 -49 6.5 -69.5t60.5 -20.5q42 0 71.5 23t39.5 67l35 155q13 61 0 81t-66 20h-64l21 80h57q47 0 69 18.5t34 69.5l28 122q12 58 -1 80.5t-60 22.5q-83 0 -102 -90l-7 -25h-86z" />
<glyph unicode="&#xbf;" horiz-adv-x="712" d="M164 -291q-102 0 -160.5 58t-58.5 180q0 27 3 53t6 46.5t13.5 46.5t15.5 41.5t23 44.5t25 41.5t31.5 47t33 46.5t40 53.5t42.5 56.5q105 142 145.5 203t71.5 135t58 188h84q-9 -75 -23 -133.5t-30.5 -105t-49 -103t-63.5 -103t-90 -128.5q-124 -173 -158.5 -241 t-34.5 -159q0 -69 25.5 -98t79.5 -29q71 0 125.5 44.5t72.5 125.5l17 72h129l-19 -80q-33 -146 -130 -224.5t-224 -78.5zM545 1169q-35 0 -52.5 19.5t-17.5 52.5q0 46 30.5 82.5t80.5 36.5q35 0 52 -20t17 -52q0 -47 -30 -83t-80 -36z" />
<glyph unicode="&#xc0;" horiz-adv-x="780" d="M561 1604h146l-107 -1604h-141l20 256h-305l-96 -256h-144zM221 379h268l70 895zM551 2025h156l88 -323h-125z" />
<glyph unicode="&#xc1;" horiz-adv-x="780" d="M561 1604h146l-107 -1604h-141l20 256h-305l-96 -256h-144zM221 379h268l70 895zM760 2025h158l-269 -323h-127z" />
<glyph unicode="&#xc2;" horiz-adv-x="780" d="M561 1604h146l-107 -1604h-141l20 256h-305l-96 -256h-144zM221 379h268l70 895zM655 2025h154l115 -323h-119l-90 246l-201 -246h-119z" />
<glyph unicode="&#xc3;" horiz-adv-x="780" d="M561 1604h146l-107 -1604h-141l20 256h-305l-96 -256h-144zM221 379h268l70 895zM422 1782l-49 53q52 77 105 114.5t116 37.5q41 0 74.5 -16.5t53.5 -36t48.5 -36t60.5 -16.5q85 0 150 105l49 -54q-53 -78 -105.5 -114.5t-113.5 -36.5q-37 0 -70 16t-53.5 36t-51.5 36 t-65 16q-86 0 -149 -104z" />
<glyph unicode="&#xc4;" horiz-adv-x="780" d="M561 1604h146l-107 -1604h-141l20 256h-305l-96 -256h-144zM221 379h268l70 895zM874 1989q34 0 51 -19.5t17 -50.5q0 -48 -30.5 -84.5t-82.5 -36.5q-32 0 -48.5 20.5t-16.5 51.5q0 48 30 83.5t80 35.5zM575 1989q34 0 51 -19.5t17 -50.5q0 -48 -30.5 -84.5t-82.5 -36.5 q-32 0 -49.5 20.5t-17.5 51.5q0 49 30 84t82 35z" />
<glyph unicode="&#xc5;" horiz-adv-x="780" d="M561 1604h146l-107 -1604h-141l20 256h-305l-96 -256h-144zM221 379h268l70 895zM707 2025h51q61 0 94 -39t33 -100q0 -91 -61 -159t-150 -68h-53q-59 0 -92 39t-33 100q0 92 61 159.5t150 67.5zM737 1942h-51q-42 0 -74 -39.5t-32 -90.5q0 -32 16 -50.5t45 -18.5h51 q45 0 77 38t32 91q0 33 -17 51.5t-47 18.5z" />
<glyph unicode="&#xc6;" horiz-adv-x="1044" d="M522 1604h690l-32 -142h-334l-129 -565h244l-33 -141h-244l-141 -615h334l-33 -141h-482l60 256h-254l-90 -256h-144zM700 1462h-102l-385 -1083h238z" />
<glyph unicode="&#xc7;" horiz-adv-x="751" d="M424 1311l-236 -1020q-8 -33 -8 -62q0 -58 29.5 -87t81.5 -29q67 0 120.5 46.5t73.5 131.5l11 45l143 35l-18 -82q-33 -144 -136.5 -231t-228.5 -87q-102 0 -162.5 61t-60.5 171q0 45 10 86l238 1026q33 146 135 231.5t233 85.5q105 0 163 -57t58 -160q0 -47 -24 -153 h-137q22 93 22 120q0 54 -30 81.5t-83 27.5q-68 0 -120.5 -45.5t-73.5 -134.5zM172 -41h141l-174 -389h-110z" />
<glyph unicode="&#xc8;" horiz-adv-x="669" d="M358 1604h480l-33 -142h-334l-129 -565h242l-33 -141h-244l-141 -615h334l-33 -141h-479zM516 2025h156l88 -323h-125z" />
<glyph unicode="&#xc9;" horiz-adv-x="669" d="M358 1604h480l-33 -142h-334l-129 -565h242l-33 -141h-244l-141 -615h334l-33 -141h-479zM727 2025h158l-269 -323h-127z" />
<glyph unicode="&#xca;" horiz-adv-x="669" d="M358 1604h480l-33 -142h-334l-129 -565h242l-33 -141h-244l-141 -615h334l-33 -141h-479zM621 2025h153l115 -323h-119l-90 246l-201 -246h-119z" />
<glyph unicode="&#xcb;" horiz-adv-x="669" d="M358 1604h480l-33 -142h-334l-129 -565h242l-33 -141h-244l-141 -615h334l-33 -141h-479zM834 1989q34 0 50.5 -19.5t16.5 -50.5q0 -48 -30.5 -84.5t-82.5 -36.5q-32 0 -48.5 20.5t-16.5 51.5q0 48 30.5 83.5t80.5 35.5zM535 1989q34 0 50.5 -19.5t16.5 -50.5 q0 -48 -30.5 -84.5t-82.5 -36.5q-32 0 -49.5 20.5t-17.5 51.5q0 48 30.5 83.5t82.5 35.5z" />
<glyph unicode="&#xcc;" horiz-adv-x="405" d="M397 1604h146l-371 -1604h-145zM385 2025h156l88 -323h-125z" />
<glyph unicode="&#xcd;" horiz-adv-x="413" d="M358 1604h146l-371 -1604h-145zM567 2025h158l-268 -323h-127z" />
<glyph unicode="&#xce;" horiz-adv-x="499" d="M424 1604h145l-370 -1604h-146zM516 2025h154l114 -323h-118l-91 246l-200 -246h-119z" />
<glyph unicode="&#xcf;" horiz-adv-x="452" d="M401 1604h146l-371 -1604h-145zM713 1989q34 0 50.5 -19.5t16.5 -50.5q0 -48 -30 -84.5t-82 -36.5q-32 0 -49 20.5t-17 51.5q0 48 30.5 83.5t80.5 35.5zM414 1989q34 0 50.5 -19.5t16.5 -50.5q0 -48 -30 -84.5t-82 -36.5q-32 0 -50 20.5t-18 51.5q0 48 30.5 83.5 t82.5 35.5z" />
<glyph unicode="&#xd0;" horiz-adv-x="823" d="M381 1604h299q108 0 165.5 -57.5t57.5 -172.5q0 -60 -18 -139l-201 -866q-42 -183 -139.5 -276t-233.5 -93h-301l174 756h-90l33 141h90zM494 1462l-132 -565h179l-35 -141h-176l-142 -615h144q76 0 128 56t77 163l204 883q15 69 15 98q0 121 -119 121h-143z" />
<glyph unicode="&#xd1;" horiz-adv-x="800" d="M358 1604h160l14 -1211l279 1211h127l-371 -1604h-131l-30 1264l-289 -1264h-129zM432 1782l-49 53q52 77 105 114.5t116 37.5q41 0 75 -16.5t53.5 -36t48.5 -36t61 -16.5q84 0 149 105l49 -54q-53 -78 -105.5 -114.5t-113.5 -36.5q-31 0 -57.5 10.5t-46 26t-38.5 31 t-44 26t-53 10.5q-87 0 -150 -104z" />
<glyph unicode="&#xd2;" d="M877 1311l-236 -1018q-34 -147 -139.5 -234.5t-233.5 -87.5q-106 0 -170.5 61.5t-64.5 168.5q0 43 12 92l234 1018q33 147 138.5 234t233.5 87q107 0 171.5 -61.5t64.5 -173.5q0 -45 -10 -86zM424 1309l-236 -1016q-8 -31 -8 -62q0 -59 31.5 -88.5t85.5 -29.5 q72 0 127 50t74 130l235 1016q8 31 8 61q0 60 -32 90.5t-86 30.5q-69 0 -123.5 -47t-75.5 -135zM563 2025h156l88 -323h-125z" />
<glyph unicode="&#xd3;" d="M877 1311l-236 -1018q-34 -147 -139.5 -234.5t-233.5 -87.5q-106 0 -170.5 61.5t-64.5 168.5q0 43 12 92l234 1018q33 147 138.5 234t233.5 87q107 0 171.5 -61.5t64.5 -173.5q0 -45 -10 -86zM424 1309l-236 -1016q-8 -31 -8 -62q0 -59 31.5 -88.5t85.5 -29.5 q72 0 127 50t74 130l235 1016q8 31 8 61q0 60 -32 90.5t-86 30.5q-69 0 -123.5 -47t-75.5 -135zM770 2025h158l-269 -323h-127z" />
<glyph unicode="&#xd4;" d="M877 1311l-236 -1018q-34 -147 -139.5 -234.5t-233.5 -87.5q-106 0 -170.5 61.5t-64.5 168.5q0 43 12 92l234 1018q33 147 138.5 234t233.5 87q107 0 171.5 -61.5t64.5 -173.5q0 -45 -10 -86zM424 1309l-236 -1016q-8 -31 -8 -62q0 -59 31.5 -88.5t85.5 -29.5 q72 0 127 50t74 130l235 1016q8 31 8 61q0 60 -32 90.5t-86 30.5q-69 0 -123.5 -47t-75.5 -135zM664 2025h153l115 -323h-119l-90 246l-201 -246h-119z" />
<glyph unicode="&#xd5;" d="M877 1311l-236 -1018q-34 -147 -139.5 -234.5t-233.5 -87.5q-106 0 -170.5 61.5t-64.5 168.5q0 43 12 92l234 1018q33 147 138.5 234t233.5 87q107 0 171.5 -61.5t64.5 -173.5q0 -45 -10 -86zM424 1309l-236 -1016q-8 -31 -8 -62q0 -59 31.5 -88.5t85.5 -29.5 q72 0 127 50t74 130l235 1016q8 31 8 61q0 60 -32 90.5t-86 30.5q-69 0 -123.5 -47t-75.5 -135zM432 1782l-49 53q52 77 105 114.5t116 37.5q41 0 75 -16.5t53.5 -36t48.5 -36t61 -16.5q84 0 149 105l49 -54q-53 -78 -105.5 -114.5t-113.5 -36.5q-31 0 -57.5 10.5t-46 26 t-38.5 31t-44 26t-53 10.5q-87 0 -150 -104z" />
<glyph unicode="&#xd6;" d="M877 1311l-236 -1018q-34 -147 -139.5 -234.5t-233.5 -87.5q-106 0 -170.5 61.5t-64.5 168.5q0 43 12 92l234 1018q33 147 138.5 234t233.5 87q107 0 171.5 -61.5t64.5 -173.5q0 -45 -10 -86zM424 1309l-236 -1016q-8 -31 -8 -62q0 -59 31.5 -88.5t85.5 -29.5 q72 0 127 50t74 130l235 1016q8 31 8 61q0 60 -32 90.5t-86 30.5q-69 0 -123.5 -47t-75.5 -135zM887 1989q34 0 50.5 -19.5t16.5 -50.5q0 -48 -30 -84.5t-82 -36.5q-32 0 -49 20.5t-17 51.5q0 48 30.5 83.5t80.5 35.5zM588 1989q34 0 50.5 -19.5t16.5 -50.5q0 -48 -30 -84.5 t-82 -36.5q-32 0 -50 20.5t-18 51.5q0 48 30.5 83.5t82.5 35.5z" />
<glyph unicode="&#xd7;" horiz-adv-x="1034" d="M387 1174l205 -312l350 312l64 -84l-351 -312l209 -313l-104 -84l-207 313l-350 -313l-64 84l350 313l-204 312z" />
<glyph unicode="&#xd8;" d="M911 1726h86l-127 -235q17 -49 17 -94t-10 -86l-236 -1018q-34 -147 -139.5 -234.5t-233.5 -87.5q-107 0 -176 66l-84 -160h-88l127 236q-14 38 -14 88q0 43 12 92l234 1018q33 147 138.5 234t233.5 87q112 0 174 -65zM297 113q72 0 127 50t74 130l204 881l-520 -971 q7 -44 38 -67t77 -23zM424 1309l-201 -869l514 963q-18 88 -114 88q-69 0 -123.5 -47t-75.5 -135z" />
<glyph unicode="&#xd9;" horiz-adv-x="811" d="M354 1604h148l-303 -1311q-9 -37 -9 -62q0 -59 31 -88.5t84 -29.5q73 0 127 51t72 129l303 1311h143l-303 -1311q-35 -148 -139.5 -235t-235.5 -87q-106 0 -169.5 61.5t-63.5 168.5q0 43 12 92zM569 2025h156l88 -323h-125z" />
<glyph unicode="&#xda;" horiz-adv-x="811" d="M354 1604h148l-303 -1311q-9 -37 -9 -62q0 -59 31 -88.5t84 -29.5q73 0 127 51t72 129l303 1311h143l-303 -1311q-35 -148 -139.5 -235t-235.5 -87q-106 0 -169.5 61.5t-63.5 168.5q0 43 12 92zM770 2025h158l-269 -323h-127z" />
<glyph unicode="&#xdb;" horiz-adv-x="811" d="M354 1604h148l-303 -1311q-9 -37 -9 -62q0 -59 31 -88.5t84 -29.5q73 0 127 51t72 129l303 1311h143l-303 -1311q-35 -148 -139.5 -235t-235.5 -87q-106 0 -169.5 61.5t-63.5 168.5q0 43 12 92zM670 2025h153l115 -323h-119l-90 246l-201 -246h-118z" />
<glyph unicode="&#xdc;" horiz-adv-x="811" d="M354 1604h148l-303 -1311q-9 -37 -9 -62q0 -59 31 -88.5t84 -29.5q73 0 127 51t72 129l303 1311h143l-303 -1311q-35 -148 -139.5 -235t-235.5 -87q-106 0 -169.5 61.5t-63.5 168.5q0 43 12 92zM887 1989q34 0 50.5 -19.5t16.5 -50.5q0 -48 -30 -84.5t-82 -36.5 q-32 0 -49 20.5t-17 51.5q0 48 30.5 83.5t80.5 35.5zM588 1989q34 0 50.5 -19.5t16.5 -50.5q0 -48 -30 -84.5t-82 -36.5q-32 0 -50 20.5t-18 51.5q0 48 30.5 83.5t82.5 35.5z" />
<glyph unicode="&#xdd;" horiz-adv-x="813" d="M295 1604h147l58 -664l368 664h144l-484 -854l-172 -750h-145l172 750zM776 2025h158l-268 -323h-127z" />
<glyph unicode="&#xde;" d="M358 1604h146l-64 -277h154q108 0 165.5 -56.5t57.5 -170.5q0 -62 -18 -142l-70 -294q-42 -183 -139.5 -276t-233.5 -93h-155l-68 -295h-145zM408 1186l-175 -750h144q76 0 129 56.5t78 162.5l71 312q15 73 15 100q0 62 -29.5 90.5t-89.5 28.5h-143z" />
<glyph unicode="&#xdf;" horiz-adv-x="874" d="M434 1354l-313 -1354h-133l311 1346q36 157 126.5 248.5t236.5 91.5q208 0 208 -193q0 -58 -14 -115l-63 -278q-40 -166 -105 -223q60 -18 90.5 -58t30.5 -110q0 -43 -12 -105l-66 -285q-35 -149 -124.5 -242t-231.5 -93q-137 0 -191 122l72 115q9 -47 41.5 -74.5 t85.5 -27.5q79 0 134 56.5t75 143.5l65 279q13 57 13 88q0 66 -40.5 89.5t-133.5 23.5h-54l27 114h16q80 0 115.5 39.5t58.5 137.5l64 280q10 45 10 72q0 102 -108 102q-72 0 -122 -51.5t-69 -138.5z" />
<glyph unicode="&#xe0;" horiz-adv-x="761" d="M317 1030l-57 98q55 65 135 102.5t162 37.5q101 0 152 -58t51 -161q0 -57 -15 -121l-215 -928h-90l-8 78q-115 -94 -239 -94q-187 0 -187 243q0 91 27.5 166.5t107.5 163.5t219 180q71 47 240 148q23 92 23 127q0 123 -115 123q-110 0 -191 -105zM262 119q88 0 182 88 l125 536q-79 -44 -159 -100q-140 -97 -197 -185.5t-57 -195.5q0 -79 26 -111t80 -32zM463 1673h155l89 -323h-125z" />
<glyph unicode="&#xe1;" horiz-adv-x="761" d="M317 1030l-57 98q55 65 135 102.5t162 37.5q101 0 152 -58t51 -161q0 -57 -15 -121l-215 -928h-90l-8 78q-115 -94 -239 -94q-187 0 -187 243q0 91 27.5 166.5t107.5 163.5t219 180q71 47 240 148q23 92 23 127q0 123 -115 123q-110 0 -191 -105zM262 119q88 0 182 88 l125 536q-79 -44 -159 -100q-140 -97 -197 -185.5t-57 -195.5q0 -79 26 -111t80 -32zM670 1673h157l-268 -323h-127z" />
<glyph unicode="&#xe2;" horiz-adv-x="761" d="M317 1030l-57 98q55 65 135 102.5t162 37.5q101 0 152 -58t51 -161q0 -57 -15 -121l-215 -928h-90l-8 78q-115 -94 -239 -94q-187 0 -187 243q0 91 27.5 166.5t107.5 163.5t219 180q71 47 240 148q23 92 23 127q0 123 -115 123q-110 0 -191 -105zM262 119q88 0 182 88 l125 536q-79 -44 -159 -100q-140 -97 -197 -185.5t-57 -195.5q0 -79 26 -111t80 -32zM563 1673h154l114 -323h-118l-90 245l-201 -245h-119z" />
<glyph unicode="&#xe3;" horiz-adv-x="761" d="M317 1030l-57 98q55 65 135 102.5t162 37.5q101 0 152 -58t51 -161q0 -57 -15 -121l-215 -928h-90l-8 78q-115 -94 -239 -94q-187 0 -187 243q0 91 27.5 166.5t107.5 163.5t219 180q71 47 240 148q23 92 23 127q0 123 -115 123q-110 0 -191 -105zM262 119q88 0 182 88 l125 536q-79 -44 -159 -100q-140 -97 -197 -185.5t-57 -195.5q0 -79 26 -111t80 -32zM332 1430l-49 53q52 77 105 114t116 37q41 0 74.5 -16t53.5 -36t48.5 -36t60.5 -16q86 0 150 104l49 -53q-53 -78 -105.5 -114.5t-113.5 -36.5q-37 0 -70 16t-53.5 36t-51.5 36t-65 16 q-86 0 -149 -104z" />
<glyph unicode="&#xe4;" horiz-adv-x="761" d="M317 1030l-57 98q55 65 135 102.5t162 37.5q101 0 152 -58t51 -161q0 -57 -15 -121l-215 -928h-90l-8 78q-115 -94 -239 -94q-187 0 -187 243q0 91 27.5 166.5t107.5 163.5t219 180q71 47 240 148q23 92 23 127q0 123 -115 123q-110 0 -191 -105zM262 119q88 0 182 88 l125 536q-79 -44 -159 -100q-140 -97 -197 -185.5t-57 -195.5q0 -79 26 -111t80 -32zM786 1636q34 0 51 -19t17 -50q0 -48 -30.5 -84.5t-82.5 -36.5q-32 0 -48.5 20.5t-16.5 51.5q0 48 30 83t80 35zM487 1636q34 0 51 -19t17 -50q0 -48 -30.5 -84.5t-82.5 -36.5 q-32 0 -49.5 20.5t-17.5 51.5q0 48 30 83t82 35z" />
<glyph unicode="&#xe5;" horiz-adv-x="761" d="M317 1030l-57 98q55 65 135 102.5t162 37.5q101 0 152 -58t51 -161q0 -57 -15 -121l-215 -928h-90l-8 78q-115 -94 -239 -94q-187 0 -187 243q0 91 27.5 166.5t107.5 163.5t219 180q71 47 240 148q23 92 23 127q0 123 -115 123q-110 0 -191 -105zM262 119q88 0 182 88 l125 536q-79 -44 -159 -100q-140 -97 -197 -185.5t-57 -195.5q0 -79 26 -111t80 -32zM616 1673h52q61 0 94 -39t33 -100q0 -91 -61 -159t-150 -68h-54q-59 0 -91.5 39t-32.5 100q0 92 60.5 159.5t149.5 67.5zM647 1589h-51q-43 0 -75 -39t-32 -90q0 -32 16.5 -50.5 t45.5 -18.5h51q45 0 77 38t32 91q0 32 -16.5 50.5t-47.5 18.5z" />
<glyph unicode="&#xe6;" horiz-adv-x="1161" d="M893 569q-1 -1 -51.5 -36t-70.5 -48.5t-65 -41.5t-85 -50q-29 -134 -29 -160q0 -56 27.5 -84t76.5 -28q64 0 115.5 46t69.5 124l20 90l139 35l-30 -129q-33 -138 -131 -220.5t-217 -82.5q-68 0 -118 28t-75 82q-136 -110 -272 -110q-89 0 -140 54t-51 189 q0 91 27.5 166.5t107.5 163.5t219 180q71 47 240 148q23 92 23 127q0 123 -115 123q-110 0 -191 -105l-57 98q55 65 135 102.5t162 37.5q129 0 178 -97q97 97 226 97q44 0 81 -12t68.5 -39t49.5 -77t18 -120q0 -126 -65.5 -232.5t-219.5 -218.5zM260 119q89 0 189 86 q0 34 10 82l110 456q-233 -130 -323 -239.5t-90 -241.5q0 -77 26 -110t78 -33zM752 963l-99 -433q99 61 162 106.5t117.5 102t79 118.5t24.5 136q0 144 -104 144q-66 0 -113.5 -46t-66.5 -128z" />
<glyph unicode="&#xe7;" horiz-adv-x="735" d="M336 956l-152 -663q-6 -30 -6 -57q0 -55 28.5 -84t78.5 -29q62 0 112 45t68 125l18 88l142 35l-31 -129q-33 -138 -131 -220.5t-217 -82.5q-97 0 -155 58t-58 159q0 34 10 86l158 678q31 138 128 220.5t214 82.5q98 0 157.5 -58t59.5 -159q0 -33 -23 -140h-129 q17 80 17 101q0 55 -28.5 84.5t-80.5 29.5q-63 0 -111.5 -45t-68.5 -125zM166 -41h141l-174 -389h-110z" />
<glyph unicode="&#xe8;" horiz-adv-x="745" d="M477 569q-118 -88 -272 -176q-29 -134 -29 -160q0 -56 28 -84t79 -28q63 0 113.5 46t68.5 124l20 90l140 35l-31 -129q-33 -138 -131 -220.5t-217 -82.5q-97 0 -155 58t-58 159q0 34 10 86l158 678q32 138 128 220.5t216 82.5q93 0 155 -57t62 -179q0 -134 -61.5 -239 t-223.5 -224zM336 958l-98 -428q104 64 188 132q103 80 149 156t46 188q0 131 -107 131q-63 0 -110.5 -48t-67.5 -131zM455 1673h155l88 -323h-125z" />
<glyph unicode="&#xe9;" horiz-adv-x="745" d="M477 569q-118 -88 -272 -176q-29 -134 -29 -160q0 -56 28 -84t79 -28q63 0 113.5 46t68.5 124l20 90l140 35l-31 -129q-33 -138 -131 -220.5t-217 -82.5q-97 0 -155 58t-58 159q0 34 10 86l158 678q32 138 128 220.5t216 82.5q93 0 155 -57t62 -179q0 -134 -61.5 -239 t-223.5 -224zM336 958l-98 -428q104 64 188 132q103 80 149 156t46 188q0 131 -107 131q-63 0 -110.5 -48t-67.5 -131zM664 1673h157l-268 -323h-127z" />
<glyph unicode="&#xea;" horiz-adv-x="745" d="M477 569q-118 -88 -272 -176q-29 -134 -29 -160q0 -56 28 -84t79 -28q63 0 113.5 46t68.5 124l20 90l140 35l-31 -129q-33 -138 -131 -220.5t-217 -82.5q-97 0 -155 58t-58 159q0 34 10 86l158 678q32 138 128 220.5t216 82.5q93 0 155 -57t62 -179q0 -134 -61.5 -239 t-223.5 -224zM336 958l-98 -428q104 64 188 132q103 80 149 156t46 188q0 131 -107 131q-63 0 -110.5 -48t-67.5 -131zM557 1673h154l114 -323h-118l-91 245l-200 -245h-119z" />
<glyph unicode="&#xeb;" horiz-adv-x="745" d="M477 569q-118 -88 -272 -176q-29 -134 -29 -160q0 -56 28 -84t79 -28q63 0 113.5 46t68.5 124l20 90l140 35l-31 -129q-33 -138 -131 -220.5t-217 -82.5q-97 0 -155 58t-58 159q0 34 10 86l158 678q32 138 128 220.5t216 82.5q93 0 155 -57t62 -179q0 -134 -61.5 -239 t-223.5 -224zM336 958l-98 -428q104 64 188 132q103 80 149 156t46 188q0 131 -107 131q-63 0 -110.5 -48t-67.5 -131zM778 1636q34 0 51 -19t17 -50q0 -48 -30.5 -84.5t-82.5 -36.5q-32 0 -48.5 20.5t-16.5 51.5q0 48 30 83t80 35zM479 1636q34 0 51 -19t17 -50 q0 -48 -30.5 -84.5t-82.5 -36.5q-32 0 -49.5 20.5t-17.5 51.5q0 48 30 83t82 35z" />
<glyph unicode="&#xec;" horiz-adv-x="397" d="M299 1673h156l88 -323h-125zM311 1251h142l-289 -1251h-141z" />
<glyph unicode="&#xed;" horiz-adv-x="405" d="M483 1673h158l-268 -323h-127zM276 1251h142l-289 -1251h-141z" />
<glyph unicode="&#xee;" horiz-adv-x="524" d="M358 1251h142l-289 -1251h-141zM446 1673h154l115 -323h-119l-90 245l-201 -245h-119z" />
<glyph unicode="&#xef;" horiz-adv-x="505" d="M655 1636q34 0 51 -19t17 -50q0 -48 -30.5 -84.5t-82.5 -36.5q-32 0 -48.5 20.5t-16.5 51.5q0 48 30 83t80 35zM356 1636q34 0 51 -19t17 -50q0 -48 -30.5 -84.5t-82.5 -36.5q-32 0 -49.5 20.5t-17.5 51.5q0 48 30 83t82 35zM348 1251h141l-288 -1251h-142z" />
<glyph unicode="&#xf0;" horiz-adv-x="747" d="M424 1448l-57 98q55 66 134 103t161 37q95 0 151 -56l111 111l39 -47l-117 -117q20 -44 20 -111q0 -60 -14 -120l-244 -1051q-33 -142 -131.5 -226.5t-218.5 -84.5q-101 0 -161 60t-60 163q0 36 10 88l107 463q32 138 114.5 211t180.5 73q119 0 172 -120l98 421 q16 73 10 117l-305 -307l-39 47l322 324q-30 35 -91 35q-114 0 -192 -111zM285 123q67 0 121 49t73 127l111 487q-38 123 -137 123q-63 0 -107.5 -46t-64.5 -132l-101 -432q-8 -31 -8 -59q0 -57 32 -87t81 -30z" />
<glyph unicode="&#xf1;" d="M276 1251h99l4 -84q113 101 237 101q85 0 136 -51.5t51 -149.5q0 -47 -12 -102l-224 -965h-141l217 936q10 41 10 80q0 54 -23 82t-81 28q-91 0 -180 -86l-240 -1040h-141zM344 1430l-49 53q52 77 105 114t116 37q33 0 61 -10.5t48 -26t38 -31t41.5 -26t49.5 -10.5 q85 0 149 104l49 -53q-53 -78 -105.5 -114.5t-113.5 -36.5q-31 0 -57.5 10.5t-46 26t-38.5 31t-44 26t-53 10.5q-87 0 -150 -104z" />
<glyph unicode="&#xf2;" horiz-adv-x="765" d="M764 965l-156 -678q-31 -137 -131 -220t-221 -83q-101 0 -162 58t-61 161q0 45 10 84l158 678q32 138 131 220.5t221 82.5q100 0 160.5 -59t60.5 -160q0 -32 -10 -84zM336 956l-152 -663q-8 -31 -8 -57q0 -55 30 -84t79 -29q66 0 116.5 46.5t69.5 123.5l154 663 q6 30 6 58q0 56 -29 84t-80 28q-65 0 -116 -46t-70 -124zM463 1673h155l89 -323h-125z" />
<glyph unicode="&#xf3;" horiz-adv-x="765" d="M764 965l-156 -678q-31 -137 -131 -220t-221 -83q-101 0 -162 58t-61 161q0 45 10 84l158 678q32 138 131 220.5t221 82.5q100 0 160.5 -59t60.5 -160q0 -32 -10 -84zM336 956l-152 -663q-8 -31 -8 -57q0 -55 30 -84t79 -29q66 0 116.5 46.5t69.5 123.5l154 663 q6 30 6 58q0 56 -29 84t-80 28q-65 0 -116 -46t-70 -124zM668 1673h157l-268 -323h-127z" />
<glyph unicode="&#xf4;" horiz-adv-x="765" d="M764 965l-156 -678q-31 -137 -131 -220t-221 -83q-101 0 -162 58t-61 161q0 45 10 84l158 678q32 138 131 220.5t221 82.5q100 0 160.5 -59t60.5 -160q0 -32 -10 -84zM336 956l-152 -663q-8 -31 -8 -57q0 -55 30 -84t79 -29q66 0 116.5 46.5t69.5 123.5l154 663 q6 30 6 58q0 56 -29 84t-80 28q-65 0 -116 -46t-70 -124zM565 1673h154l115 -323h-119l-90 245l-201 -245h-119z" />
<glyph unicode="&#xf5;" horiz-adv-x="765" d="M764 965l-156 -678q-31 -137 -131 -220t-221 -83q-101 0 -162 58t-61 161q0 45 10 84l158 678q32 138 131 220.5t221 82.5q100 0 160.5 -59t60.5 -160q0 -32 -10 -84zM336 956l-152 -663q-8 -31 -8 -57q0 -55 30 -84t79 -29q66 0 116.5 46.5t69.5 123.5l154 663 q6 30 6 58q0 56 -29 84t-80 28q-65 0 -116 -46t-70 -124zM334 1430l-49 53q52 77 105 114t116 37q41 0 74.5 -16t53.5 -36t48.5 -36t60.5 -16q86 0 150 104l49 -53q-53 -78 -105.5 -114.5t-113.5 -36.5q-37 0 -70 16t-53.5 36t-51.5 36t-65 16q-86 0 -149 -104z" />
<glyph unicode="&#xf6;" horiz-adv-x="765" d="M764 965l-156 -678q-31 -137 -131 -220t-221 -83q-101 0 -162 58t-61 161q0 45 10 84l158 678q32 138 131 220.5t221 82.5q100 0 160.5 -59t60.5 -160q0 -32 -10 -84zM336 956l-152 -663q-8 -31 -8 -57q0 -55 30 -84t79 -29q66 0 116.5 46.5t69.5 123.5l154 663 q6 30 6 58q0 56 -29 84t-80 28q-65 0 -116 -46t-70 -124zM786 1636q34 0 51 -19t17 -50q0 -48 -30.5 -84.5t-82.5 -36.5q-32 0 -48.5 20.5t-16.5 51.5q0 48 30 83t80 35zM487 1636q34 0 51 -19t17 -50q0 -48 -30.5 -84.5t-82.5 -36.5q-32 0 -49.5 20.5t-17.5 51.5 q0 48 30 83t82 35z" />
<glyph unicode="&#xf7;" horiz-adv-x="1034" d="M180 838h813l-26 -119h-813zM500 473q69 0 69 -72q0 -48 -29.5 -83t-82.5 -35q-33 0 -49.5 19.5t-16.5 51.5q0 47 29.5 83t79.5 36zM686 1274q35 0 52.5 -19.5t17.5 -52.5q0 -48 -30 -83.5t-83 -35.5q-32 0 -48.5 20t-16.5 52q0 48 29 83.5t79 35.5z" />
<glyph unicode="&#xf8;" horiz-adv-x="765" d="M754 1374h80l-101 -190q41 -53 41 -135q0 -32 -10 -84l-156 -678q-31 -137 -131 -220t-221 -83q-72 0 -131 32l-72 -139h-82l99 191q-37 52 -37 135q0 45 10 84l158 678q32 138 131 220.5t221 82.5q69 0 127 -33zM625 956l4 25l-430 -823q28 -35 86 -35q66 0 116.5 46.5 t69.5 123.5zM336 956l-152 -663q-4 -12 -4 -17l426 816q-30 34 -84 34q-65 0 -116 -46t-70 -124z" />
<glyph unicode="&#xf9;" horiz-adv-x="788" d="M705 1251h141l-289 -1251h-98l-4 84q-109 -100 -234 -100q-83 0 -133.5 51t-50.5 147q0 46 12 105l223 964h142l-217 -938q-13 -54 -13 -82q0 -108 105 -108q85 0 176 88zM475 1673h156l88 -323h-125z" />
<glyph unicode="&#xfa;" horiz-adv-x="788" d="M705 1251h141l-289 -1251h-98l-4 84q-109 -100 -234 -100q-83 0 -133.5 51t-50.5 147q0 46 12 105l223 964h142l-217 -938q-13 -54 -13 -82q0 -108 105 -108q85 0 176 88zM684 1673h158l-269 -323h-127z" />
<glyph unicode="&#xfb;" horiz-adv-x="788" d="M705 1251h141l-289 -1251h-98l-4 84q-109 -100 -234 -100q-83 0 -133.5 51t-50.5 147q0 46 12 105l223 964h142l-217 -938q-13 -54 -13 -82q0 -108 105 -108q85 0 176 88zM578 1673h153l115 -323h-119l-90 245l-201 -245h-119z" />
<glyph unicode="&#xfc;" horiz-adv-x="788" d="M705 1251h141l-289 -1251h-98l-4 84q-109 -100 -234 -100q-83 0 -133.5 51t-50.5 147q0 46 12 105l223 964h142l-217 -938q-13 -54 -13 -82q0 -108 105 -108q85 0 176 88zM795 1636q34 0 50.5 -19t16.5 -50q0 -48 -30 -84.5t-82 -36.5q-32 0 -49 20.5t-17 51.5 q0 48 30.5 83t80.5 35zM496 1636q34 0 50.5 -19t16.5 -50q0 -48 -30 -84.5t-82 -36.5q-32 0 -50 20.5t-18 51.5q0 48 30.5 83t82.5 35z" />
<glyph unicode="&#xfd;" horiz-adv-x="788" d="M705 1251h139l-369 -1601h-141l100 434q-99 -80 -207 -80q-85 0 -135.5 51t-50.5 148q0 46 12 104l217 944h142l-211 -917q-11 -43 -11 -78q0 -113 103 -113q86 0 174 88zM684 1673h158l-269 -323h-127z" />
<glyph unicode="&#xfe;" horiz-adv-x="782" d="M365 1634l149 35l-115 -495q112 94 224 94q80 0 130 -51.5t50 -149.5q0 -47 -12 -102l-158 -678q-34 -146 -119.5 -224.5t-187.5 -78.5q-114 0 -181 92l-98 -426h-141zM549 1126q-86 0 -184 -98l-187 -809q49 -96 141 -96q65 0 112 50t67 140l145 623q10 41 10 84 q0 56 -26 81t-78 25z" />
<glyph unicode="&#xff;" horiz-adv-x="788" d="M705 1251h139l-369 -1601h-141l100 434q-99 -80 -207 -80q-85 0 -135.5 51t-50.5 148q0 46 12 104l217 944h142l-211 -917q-11 -43 -11 -78q0 -113 103 -113q86 0 174 88zM799 1636q34 0 50.5 -19t16.5 -50q0 -48 -30 -84.5t-82 -36.5q-32 0 -49 20.5t-17 51.5 q0 48 30.5 83t80.5 35zM500 1636q34 0 50.5 -19t16.5 -50q0 -48 -30 -84.5t-82 -36.5q-32 0 -50 20.5t-18 51.5q0 48 30.5 83t82.5 35z" />
<glyph unicode="&#x152;" horiz-adv-x="1110" d="M801 1604h479l-33 -142h-334l-129 -565h242l-33 -141h-243l-142 -615h334l-33 -141h-479l2 12q-77 -41 -164 -41q-106 0 -170.5 61.5t-64.5 168.5q0 43 12 92l234 1018q33 147 138.5 234t233.5 87q87 0 146 -41zM424 1309l-236 -1016q-8 -31 -8 -62q0 -59 31.5 -88.5 t85.5 -29.5q72 0 127 50t74 130l235 1016q8 31 8 61q0 60 -32 90.5t-86 30.5q-69 0 -123.5 -47t-75.5 -135z" />
<glyph unicode="&#x153;" horiz-adv-x="1171" d="M903 569q-116 -86 -270 -176l-25 -100q-6 -37 -6 -60q0 -56 28 -84t79 -28q63 0 113.5 46t68.5 124l20 90l140 35l-31 -129q-33 -138 -131 -220.5t-217 -82.5q-129 0 -183 94q-102 -94 -233 -94q-101 0 -162 58t-61 161q0 45 10 84l158 678q32 138 131 220.5t221 82.5 q129 0 188 -94q100 94 230 94q93 0 155 -57t62 -179q0 -134 -61.5 -239t-223.5 -224zM762 958l-98 -428q104 64 188 132q103 80 149 156t46 188q0 131 -107 131q-63 0 -110.5 -48t-67.5 -131zM336 956l-152 -663q-8 -31 -8 -57q0 -55 30 -84t79 -29q66 0 116.5 46.5 t69.5 123.5l154 663q6 30 6 58q0 56 -29 84t-80 28q-65 0 -116 -46t-70 -124z" />
<glyph unicode="&#x178;" horiz-adv-x="813" d="M295 1604h147l58 -664l368 664h144l-484 -854l-172 -750h-145l172 750zM893 1989q34 0 51 -19.5t17 -50.5q0 -48 -30.5 -84.5t-82.5 -36.5q-32 0 -49 20.5t-17 51.5q0 48 30.5 83.5t80.5 35.5zM594 1989q34 0 51 -19.5t17 -50.5q0 -48 -30.5 -84.5t-82.5 -36.5 q-32 0 -50 20.5t-18 51.5q0 48 30.5 83.5t82.5 35.5z" />
<glyph unicode="&#x2c6;" horiz-adv-x="729" d="M549 1673h153l115 -323h-119l-90 245l-200 -245h-119z" />
<glyph unicode="&#x2dc;" horiz-adv-x="786" d="M344 1430l-49 53q52 77 105 114t116 37q33 0 61 -10.5t48 -26t38 -31t41.5 -26t49.5 -10.5q85 0 149 104l49 -53q-53 -78 -105.5 -114.5t-113.5 -36.5q-31 0 -57.5 10.5t-46 26t-38.5 31t-44 26t-53 10.5q-87 0 -150 -104z" />
<glyph unicode="&#x2000;" horiz-adv-x="1012" />
<glyph unicode="&#x2001;" horiz-adv-x="2025" />
<glyph unicode="&#x2002;" horiz-adv-x="1012" />
<glyph unicode="&#x2003;" horiz-adv-x="2025" />
<glyph unicode="&#x2004;" horiz-adv-x="675" />
<glyph unicode="&#x2005;" horiz-adv-x="506" />
<glyph unicode="&#x2006;" horiz-adv-x="337" />
<glyph unicode="&#x2007;" horiz-adv-x="337" />
<glyph unicode="&#x2008;" horiz-adv-x="253" />
<glyph unicode="&#x2009;" horiz-adv-x="405" />
<glyph unicode="&#x200a;" horiz-adv-x="112" />
<glyph unicode="&#x2010;" horiz-adv-x="616" d="M145 836h465l-28 -119h-465z" />
<glyph unicode="&#x2011;" horiz-adv-x="616" d="M145 836h465l-28 -119h-465z" />
<glyph unicode="&#x2012;" horiz-adv-x="616" d="M145 836h465l-28 -119h-465z" />
<glyph unicode="&#x2013;" horiz-adv-x="862" d="M145 836h711l-27 -119h-712z" />
<glyph unicode="&#x2014;" horiz-adv-x="1265" d="M145 836h1115l-27 -119h-1116z" />
<glyph unicode="&#x2018;" horiz-adv-x="327" d="M461 1632h51l-100 -366q-11 -44 -38.5 -69.5t-66.5 -25.5q-35 0 -53 19.5t-18 50.5q0 13 1.5 23.5t6.5 21t7.5 15.5t11 17.5t11.5 16.5z" />
<glyph unicode="&#x2019;" horiz-adv-x="325" d="M449 1479l-187 -295h-53l102 366q11 43 38 69t67 26q35 0 53 -20t18 -54q0 -12 -2 -22t-6.5 -20.5t-8 -16t-11 -17.5t-10.5 -16z" />
<glyph unicode="&#x201a;" horiz-adv-x="325" d="M113 18l-187 -294h-53l102 366q11 43 38 68.5t67 25.5q36 0 54 -19.5t18 -53.5q0 -12 -2 -22t-7 -20.5t-8.5 -16.5t-11 -17.5t-10.5 -16.5z" />
<glyph unicode="&#x201c;" horiz-adv-x="571" d="M702 1632h52l-101 -366q-11 -44 -38 -69.5t-66 -25.5q-35 0 -53.5 19.5t-18.5 50.5q0 16 4.5 31t6.5 20t14.5 23t13.5 20zM461 1632h51l-100 -366q-11 -44 -38.5 -69.5t-66.5 -25.5q-35 0 -53 19.5t-18 50.5q0 13 1.5 23.5t6.5 21t7.5 15.5t11 17.5t11.5 16.5z" />
<glyph unicode="&#x201d;" horiz-adv-x="569" d="M692 1479l-186 -295h-53l102 366q11 43 37.5 69t66.5 26q35 0 53.5 -20t18.5 -54q0 -14 -4.5 -28.5t-7.5 -21t-14 -23zM449 1479l-187 -295h-53l102 366q11 43 38 69t67 26q35 0 53 -20t18 -54q0 -12 -2 -22t-6.5 -20.5t-8 -16t-11 -17.5t-10.5 -16z" />
<glyph unicode="&#x201e;" horiz-adv-x="569" d="M354 18l-186 -294h-53l102 366q11 43 38 68.5t67 25.5q35 0 53 -19.5t18 -53.5q0 -12 -2 -22t-7 -20.5t-8.5 -16.5t-11 -17.5t-10.5 -16.5zM113 18l-187 -294h-53l102 366q11 43 38 68.5t67 25.5q36 0 54 -19.5t18 -53.5q0 -12 -2 -22t-7 -20.5t-8.5 -16.5t-11 -17.5 t-10.5 -16.5z" />
<glyph unicode="&#x2022;" horiz-adv-x="569" d="M395 995q67 0 109.5 -48t42.5 -118q0 -97 -77 -171t-171 -74q-68 0 -110 47t-42 117q0 97 76 172t172 75z" />
<glyph unicode="&#x2026;" horiz-adv-x="1138" d="M487 184q35 0 52.5 -19.5t17.5 -51.5q0 -48 -30 -83.5t-83 -35.5q-32 0 -48.5 20t-16.5 52q0 47 29 82.5t79 35.5zM850 184q35 0 52.5 -19.5t17.5 -51.5q0 -48 -30 -83.5t-83 -35.5q-32 0 -49 20t-17 52q0 47 29.5 82.5t79.5 35.5zM127 184q35 0 52.5 -19.5t17.5 -51.5 q0 -48 -30 -83.5t-83 -35.5q-32 0 -49 20t-17 52q0 47 29.5 82.5t79.5 35.5z" />
<glyph unicode="&#x202f;" horiz-adv-x="405" />
<glyph unicode="&#x2039;" horiz-adv-x="438" d="M416 1251h129l-340 -630l49 -621h-127l-47 625z" />
<glyph unicode="&#x203a;" horiz-adv-x="438" d="M225 1251h125l49 -626l-336 -625h-129l340 627z" />
<glyph unicode="&#x205f;" horiz-adv-x="506" />
<glyph unicode="&#x20ac;" horiz-adv-x="831" d="M131 705h76l51 225h-102l47 88h76l69 297q33 146 135 231.5t234 85.5q105 0 163 -57t58 -160q0 -43 -25 -153h-137q23 97 23 120q0 55 -29.5 82t-81.5 27q-73 0 -125 -48.5t-71 -131.5l-68 -293h418l-51 -88h-388l-53 -225h330l-51 -89h-299l-74 -325q-8 -33 -8 -66 q0 -57 29 -84.5t79 -27.5q70 0 124.5 48t72.5 130l10 45l144 35l-19 -82q-33 -144 -136 -231t-228 -87q-102 0 -163 61t-61 169q0 43 11 88l75 327h-102z" />
<glyph unicode="&#x2122;" horiz-adv-x="1048" d="M731 1604h94l-30 -799l340 799h90l-224 -963h-77l155 684l-282 -684h-82l30 686l-157 -686h-80zM358 1604h297l-20 -86h-105l-202 -877h-88l202 877h-104z" />
<glyph unicode="&#x25fc;" horiz-adv-x="1249" d="M0 1249h1249v-1249h-1249v1249z" />
</font>
</defs>
</svg>
