<?xml version="1.0" standalone="no"?>
<!DOCTYPE svg PUBLIC "-//W3C//DTD SVG 1.1//EN" "http://www.w3.org/Graphics/SVG/1.1/DTD/svg11.dtd" >
<svg xmlns="http://www.w3.org/2000/svg">
<metadata></metadata>
<defs>
<font id="libel_suitbold" horiz-adv-x="784" >
<font-face units-per-em="2048" ascent="1616" descent="-432" />
<missing-glyph horiz-adv-x="380" />
<glyph horiz-adv-x="0" />
<glyph horiz-adv-x="682" />
<glyph horiz-adv-x="380" />
<glyph unicode=" "  horiz-adv-x="380" />
<glyph unicode="&#x09;" horiz-adv-x="380" />
<glyph unicode="&#xa0;" horiz-adv-x="380" />
<glyph unicode="!" horiz-adv-x="415" d="M66 1632h284l-76 -1167h-133zM207 272q66 0 100.5 -38.5t34.5 -100.5t-34.5 -101.5t-100.5 -39.5q-63 0 -97 39.5t-34 101.5q0 61 34 100t97 39z" />
<glyph unicode="&#x22;" horiz-adv-x="618" d="M354 1632h219l-30 -522h-156zM45 1632h219l-31 -522h-155z" />
<glyph unicode="#" horiz-adv-x="1038" d="M57 637h160l49 330h-162l27 186h162l65 451h187l-66 -451h178l66 451h186l-65 -451h164l-27 -186h-164l-49 -330h166l-27 -186h-166l-63 -451h-186l63 451h-178l-64 -451h-186l63 451h-159zM453 967l-50 -330h179l49 330h-178z" />
<glyph unicode="$" horiz-adv-x="780" d="M356 1645h88v-205q130 -13 193 -91.5t63 -193.5v-70h-219v33q0 96 -86 96q-80 0 -80 -71q0 -47 66 -131q17 -22 117.5 -135.5t134.5 -167.5q74 -114 74 -242q0 -127 -66.5 -210t-196.5 -97v-201h-88v199q-135 9 -209.5 88.5t-74.5 222.5v121l219 -58v-45q0 -98 96 -98 q94 0 94 86q0 26 -11 50t-44 69q-45 61 -133.5 162t-118.5 143q-92 128 -92 256q0 127 73 200.5t201 84.5v205z" />
<glyph unicode="%" horiz-adv-x="1228" d="M899 1604h170l-739 -1604h-174zM1145 721v-559q0 -81 -56.5 -129.5t-142.5 -48.5q-87 0 -144 48.5t-57 129.5v559q0 81 57 128.5t144 47.5q86 0 142.5 -47.5t56.5 -128.5zM897 719v-557q0 -45 49 -45t49 45v557q0 45 -49 45t-49 -45zM481 1442v-559q0 -81 -56 -129.5 t-142 -48.5q-87 0 -144 48.5t-57 129.5v559q0 81 57 128.5t144 47.5q86 0 142 -47.5t56 -128.5zM233 1440v-557q0 -45 50 -45q49 0 49 45v557q0 45 -49 45q-50 0 -50 -45z" />
<glyph unicode="&#x26;" horiz-adv-x="851" d="M309 1368v-319q0 -55 19 -80t67 -25h420v-203h-131v-434q0 -94 64 -94q32 0 55 29l41 -207q-60 -51 -152 -51q-104 0 -172 71q-80 -71 -196 -71q-117 0 -193 82.5t-76 220.5v342q0 167 115 221q-50 25 -73 75t-23 136v321q0 138 86 221t215 83q131 0 218 -83t87 -221v-53 h-219v39q0 78 -76 78t-76 -78zM444 233q-2 14 -2 46v462h-61q-50 0 -70 -25t-20 -79v-336q0 -78 76 -78q44 0 77 10z" />
<glyph unicode="'" horiz-adv-x="309" d="M45 1632h219l-31 -522h-155z" />
<glyph unicode="(" horiz-adv-x="563" d="M547 1964v-197q-75 -17 -112 -40.5t-55 -76t-18 -151.5v-1464q0 -99 18 -151.5t55 -76t112 -40.5v-197q-381 47 -381 463v1468q0 416 381 463z" />
<glyph unicode=")" horiz-adv-x="563" d="M16 -430v197q75 17 112 40.5t55 76t18 151.5v1464q0 99 -18 151.5t-55 76t-112 40.5v197q381 -47 381 -463v-1468q0 -416 -381 -463z" />
<glyph unicode="*" horiz-adv-x="878" d="M121 1460l260 -170l-19 314h150l-18 -310l262 170l75 -129l-278 -141l278 -139l-73 -129l-260 174l18 -314h-149l18 310l-260 -174l-76 129l279 141l-281 139z" />
<glyph unicode="+" horiz-adv-x="1062" d="M432 1227h197v-353h352v-196h-352v-350h-197v350h-350v196h350v353z" />
<glyph unicode="," horiz-adv-x="356" d="M283 31l-174 -381h-82l18 483q2 62 35 100.5t96 38.5q66 0 100.5 -39t34.5 -98q0 -44 -28 -104z" />
<glyph unicode="-" horiz-adv-x="602" d="M43 874h514v-196h-514v196z" />
<glyph unicode="." horiz-adv-x="356" d="M176 272q66 0 100.5 -38.5t34.5 -100.5t-34.5 -101.5t-100.5 -39.5q-63 0 -97 39.5t-34 101.5q0 61 34 100t97 39z" />
<glyph unicode="/" horiz-adv-x="698" d="M502 1780h196l-501 -2026h-197z" />
<glyph unicode="0" horiz-adv-x="802" d="M731 1311v-1018q0 -147 -94.5 -234.5t-235.5 -87.5q-142 0 -235.5 87.5t-93.5 234.5v1018q0 147 93.5 234t235.5 87q141 0 235.5 -87t94.5 -234zM319 1309v-1014q0 -82 82 -82t82 82v1014q0 82 -82 82t-82 -82z" />
<glyph unicode="1" horiz-adv-x="505" d="M18 1489h50q51 0 77.5 30.5t26.5 84.5h252v-1604h-252v1280h-154v209z" />
<glyph unicode="2" horiz-adv-x="718" d="M367 1632q149 0 233 -86.5t84 -267.5q0 -75 -15.5 -134t-50.5 -130q-31 -63 -126 -234t-115 -209q-40 -76 -52 -122t-12 -134v-73h371v-242h-623v315q0 165 72 320q28 60 126 225t124 219q53 106 53 209q0 58 -17 80.5t-59 22.5q-41 0 -61 -19.5t-20 -62.5v-47h-232v53 q0 149 84.5 233t235.5 84z" />
<glyph unicode="3" horiz-adv-x="763" d="M367 1632q155 0 239 -95.5t84 -250.5v-231q0 -168 -100 -221q119 -58 119 -232v-315q0 -143 -94.5 -229.5t-237.5 -86.5q-142 0 -232 86.5t-90 231.5v82l232 -60v-16q0 -82 88 -82q86 0 86 82v313q0 58 -20.5 84.5t-71.5 26.5h-107v213h90q51 0 71.5 26.5t20.5 83.5v248 q0 53 -17.5 77t-61.5 24t-61 -23t-17 -70v-36h-232v53q0 147 84.5 232t227.5 85z" />
<glyph unicode="4" horiz-adv-x="774" d="M403 1604h232v-865h106v-243h-106v-496h-232v496h-370v229l117 528h217l-111 -514h147v865z" />
<glyph unicode="5" horiz-adv-x="753" d="M100 1604h576v-242h-365l-18 -186q78 45 166 45q99 0 163 -66t64 -221v-645q0 -144 -90 -231t-225 -87q-137 0 -229.5 87t-92.5 231v82l232 -60v-16q0 -82 77 -82q80 0 80 82v641q0 38 -14 55t-45 17q-37 0 -71 -20t-52 -50l-201 68z" />
<glyph unicode="6" horiz-adv-x="780" d="M319 1309v-236q75 43 154 43q101 0 168.5 -75t67.5 -216v-536q0 -144 -92.5 -231t-229.5 -87q-135 0 -225 87t-90 231v1026q0 146 90 231.5t235 85.5q143 0 227.5 -85t84.5 -232v-53h-232v47q0 82 -78 82q-80 0 -80 -82zM403 887q-41 0 -84 -31v-561q0 -82 80 -82 q78 0 78 82v477q0 23 -1 38t-5.5 31t-12 25t-21.5 15t-34 6z" />
<glyph unicode="7" horiz-adv-x="645" d="M33 1604h579v-218l-262 -1386h-264l293 1362h-346v242z" />
<glyph unicode="8" horiz-adv-x="770" d="M74 1094v192q0 155 81 250.5t230 95.5t230 -95.5t81 -250.5v-192q0 -194 -116 -258q135 -61 135 -254v-295q0 -145 -90.5 -230.5t-239.5 -85.5t-239.5 85.5t-90.5 230.5v295q0 194 133 254q-114 64 -114 258zM285 614v-299q0 -110 100 -110t100 110v299q0 111 -100 111 t-100 -111zM301 1298v-262q0 -59 17.5 -84.5t66.5 -25.5t66.5 25.5t17.5 84.5v262q0 52 -20 76.5t-64 24.5t-64 -24.5t-20 -76.5z" />
<glyph unicode="9" horiz-adv-x="780" d="M381 213q80 0 80 82v287q-71 -41 -154 -41q-101 0 -168 74.5t-67 215.5v484q0 144 92 230.5t229 86.5q136 0 226 -86.5t90 -230.5v-1026q0 -146 -90.5 -232t-235.5 -86q-143 0 -227 85.5t-84 232.5v82l231 -60v-16q0 -82 78 -82zM303 1309v-424q0 -23 1 -38t5.5 -31 t12 -25t21.5 -15t34 -6q44 0 84 29v510q0 82 -80 82q-78 0 -78 -82z" />
<glyph unicode=":" horiz-adv-x="450" d="M223 956q66 0 100.5 -38.5t34.5 -100.5t-34.5 -101.5t-100.5 -39.5q-63 0 -97 39.5t-34 101.5q0 61 34 100t97 39zM223 375q66 0 100.5 -38.5t34.5 -100.5t-34.5 -102t-100.5 -40q-63 0 -97 40t-34 102q0 61 34 100t97 39z" />
<glyph unicode=";" horiz-adv-x="450" d="M330 133l-174 -381h-82l18 484q2 62 35 100.5t96 38.5q66 0 100.5 -39t34.5 -98q0 -45 -28 -105zM223 956q66 0 100.5 -38.5t34.5 -100.5t-34.5 -101.5t-100.5 -39.5q-63 0 -97 39.5t-34 101.5q0 61 34 100t97 39z" />
<glyph unicode="&#x3c;" horiz-adv-x="1062" d="M82 870l899 310v-203l-651 -201l651 -201v-202l-899 309v188z" />
<glyph unicode="=" horiz-adv-x="1062" d="M82 1079h899v-196h-899v196zM82 670h899v-197h-899v197z" />
<glyph unicode="&#x3e;" horiz-adv-x="1062" d="M981 682l-899 -309v202l649 201l-649 201v203l899 -310v-188z" />
<glyph unicode="?" horiz-adv-x="706" d="M367 1645q136 0 217.5 -81.5t81.5 -238.5q0 -87 -30.5 -167t-109.5 -218q-44 -77 -59.5 -104.5t-40 -76t-30.5 -68.5t-16 -60.5t-12.5 -75.5t-5.5 -90h-133q-18 102 -18 172q0 90 26.5 163.5t98.5 209.5q53 103 73.5 158.5t20.5 125.5q0 62 -18.5 86.5t-61.5 24.5 q-41 0 -65.5 -20t-24.5 -58v-65h-219v79q0 138 92.5 221t233.5 83zM295 272q65 0 99 -38.5t34 -100.5t-34 -101.5t-99 -39.5t-99 39.5t-34 101.5t34 100.5t99 38.5z" />
<glyph unicode="@" horiz-adv-x="1380" d="M803 938l137 43v-711q0 -27 13 -40t46 -13q95 0 143 112t48 322q0 647 -445 647q-259 0 -404.5 -205.5t-145.5 -555.5q0 -562 385 -783l-72 -141q-457 265 -457 928q0 161 26.5 298t82.5 250t138.5 192.5t198 123t257.5 43.5q298 0 435.5 -190t137.5 -566 q0 -295 -82 -456.5t-244 -161.5q-120 0 -172 80q-83 -80 -170 -80q-72 0 -119.5 53.5t-47.5 151.5v471q0 98 47.5 151t119.5 53q78 0 144 -53v37zM635 731v-434q0 -21 1.5 -33.5t7 -24.5t17.5 -17t31 -5q61 0 111 59v474q-54 61 -113 61q-35 0 -45 -19t-10 -61z" />
<glyph unicode="A" d="M264 1604h248l248 -1604h-242l-26 195h-201l-25 -195h-241zM465 401l-76 570l-72 -570h148z" />
<glyph unicode="B" horiz-adv-x="798" d="M82 1604h326q148 0 232.5 -84.5t84.5 -233.5v-231q0 -168 -100 -221q118 -57 118 -232v-272q0 -157 -85 -243.5t-234 -86.5h-342v1604zM328 719v-481h75q51 0 72 26.5t21 83.5v260q0 57 -21 84t-72 27h-75zM328 1366v-434h59q51 0 71.5 26.5t20.5 83.5v213 q0 58 -20.5 84.5t-71.5 26.5h-59z" />
<glyph unicode="C" horiz-adv-x="751" d="M319 1309v-1014q0 -82 80 -82q78 0 78 82v16l232 60v-82q0 -144 -92.5 -231t-229.5 -87q-135 0 -225 87t-90 231v1026q0 146 90 231.5t235 85.5q143 0 227.5 -85t84.5 -232v-53h-232v47q0 82 -78 82q-80 0 -80 -82z" />
<glyph unicode="D" horiz-adv-x="804" d="M82 1604h332q151 0 235 -93t84 -276v-866q0 -183 -84 -276t-235 -93h-332v1604zM334 1362v-1120h59q51 0 71.5 26.5t20.5 83.5v899q0 58 -20.5 84.5t-71.5 26.5h-59z" />
<glyph unicode="E" horiz-adv-x="659" d="M82 1604h530v-242h-278v-416h178v-241h-178v-463h278v-242h-530v1604z" />
<glyph unicode="F" horiz-adv-x="663" d="M82 1604h553v-242h-301v-469h205v-242h-205v-651h-252v1604z" />
<glyph unicode="G" horiz-adv-x="780" d="M315 1309v-1014q0 -41 23 -61.5t63 -20.5q39 0 61.5 20.5t22.5 61.5v393h-106v227h323v-915h-151l-8 49q-78 -78 -193 -78q-121 0 -199.5 86.5t-78.5 231.5v1026q0 146 90 231.5t233 85.5q142 0 228 -85.5t86 -231.5v-53h-232v47q0 82 -80 82q-82 0 -82 -82z" />
<glyph unicode="H" horiz-adv-x="825" d="M82 1604h252v-670h158v670h251v-1604h-251v692h-158v-692h-252v1604z" />
<glyph unicode="I" horiz-adv-x="415" d="M82 1604h252v-1604h-252v1604z" />
<glyph unicode="J" horiz-adv-x="743" d="M418 1604h248v-1315q0 -145 -89.5 -231.5t-230.5 -86.5t-229 86t-88 232v82l231 -60v-16q0 -82 78 -82q80 0 80 82v1309z" />
<glyph unicode="K" horiz-adv-x="792" d="M500 1604h254l-207 -643l231 -961h-260l-184 807v-807h-252v1604h252v-533z" />
<glyph unicode="L" horiz-adv-x="600" d="M82 1604h252v-1362h237v-242h-489v1604z" />
<glyph unicode="M" horiz-adv-x="1071" d="M82 1604h270l187 -1106l200 1106h250v-1604h-221v733l-117 -733h-227l-119 739v-739h-223v1604z" />
<glyph unicode="N" horiz-adv-x="804" d="M82 1604h270l156 -799v799h215v-1604h-221l-203 928v-928h-217v1604z" />
<glyph unicode="O" horiz-adv-x="802" d="M731 1311v-1018q0 -147 -94.5 -234.5t-235.5 -87.5q-142 0 -235.5 87.5t-93.5 234.5v1018q0 147 93.5 234t235.5 87q141 0 235.5 -87t94.5 -234zM319 1309v-1014q0 -82 82 -82t82 82v1014q0 82 -82 82t-82 -82z" />
<glyph unicode="P" d="M82 1604h332q151 0 235 -93t84 -276v-234q0 -183 -84 -275.5t-235 -92.5h-80v-633h-252v1604zM334 1362v-488h59q51 0 71.5 26.5t20.5 84.5v266q0 58 -20.5 84.5t-71.5 26.5h-59z" />
<glyph unicode="Q" horiz-adv-x="802" d="M731 1311v-1002q0 -113 -59 -194l131 -174l-176 -131l-142 188q-45 -10 -84 -10q-142 0 -235.5 87t-93.5 234v1002q0 147 93.5 234t235.5 87q141 0 235.5 -87t94.5 -234zM319 1309v-1014q0 -82 82 -82t82 82v1014q0 82 -82 82t-82 -82z" />
<glyph unicode="R" horiz-adv-x="802" d="M82 1604h326q148 0 232.5 -84.5t84.5 -233.5v-231q0 -168 -100 -221q112 -58 112 -232v-602h-248v608q0 59 -18 85t-68 26h-75v-719h-246v1604zM328 1366v-434h59q51 0 71.5 26.5t20.5 83.5v213q0 58 -20.5 84.5t-71.5 26.5h-59z" />
<glyph unicode="S" horiz-adv-x="745" d="M379 1632q143 0 226 -86t83 -227v-57h-231v38q0 46 -21.5 72.5t-62.5 26.5q-88 0 -88 -117q0 -89 69 -207q24 -42 129.5 -205.5t143.5 -234.5q40 -75 55.5 -138.5t15.5 -138.5q0 -185 -80 -286t-241 -101q-154 0 -246 89.5t-92 222.5v88l231 -60v-24q0 -34 24 -60t66 -26 q47 0 73 30t26 88q0 92 -64 207q-21 39 -104.5 172t-118.5 197q-119 219 -119 391q0 160 88.5 253t237.5 93z" />
<glyph unicode="T" horiz-adv-x="606" d="M29 1604h549v-242h-150v-1362h-252v1362h-147v242z" />
<glyph unicode="U" horiz-adv-x="815" d="M78 1604h252v-1309q0 -40 21 -61t59 -21q82 0 82 82v1309h245v-1311q0 -147 -94 -234.5t-237 -87.5q-142 0 -235 87.5t-93 234.5v1311z" />
<glyph unicode="V" d="M25 1604h245l119 -967l129 967h242l-248 -1604h-248z" />
<glyph unicode="W" horiz-adv-x="1157" d="M33 1604h239l68 -897l117 897h237l113 -902l76 902h241l-166 -1604h-247l-138 1028l-141 -1028h-239z" />
<glyph unicode="X" horiz-adv-x="811" d="M530 1604h242l-248 -770l273 -834h-265l-145 477l-137 -477h-236l256 858l-233 746h252l117 -394z" />
<glyph unicode="Y" horiz-adv-x="819" d="M14 1604h252l146 -504l153 504h240l-268 -854v-750h-252v750z" />
<glyph unicode="Z" horiz-adv-x="712" d="M53 1604h615v-197l-367 -1165h367v-242h-623v233l365 1129h-357v242z" />
<glyph unicode="[" horiz-adv-x="563" d="M166 1964h381v-197h-185v-2000h185v-197h-381v2394z" />
<glyph unicode="\" horiz-adv-x="684" d="M0 1780h197l501 -2026h-196z" />
<glyph unicode="]" horiz-adv-x="563" d="M397 -430h-381v197h185v2000h-185v197h381v-2394z" />
<glyph unicode="^" horiz-adv-x="903" d="M356 1604h189l309 -899h-203l-200 649l-201 -649h-203z" />
<glyph unicode="_" horiz-adv-x="870" d="M0 -119h877v-155h-877v155z" />
<glyph unicode="`" horiz-adv-x="530" d="M106 1673h261l180 -323h-213z" />
<glyph unicode="a" horiz-adv-x="761" d="M229 965l-133 163q44 65 122.5 102.5t168.5 37.5q145 0 221 -92.5t76 -247.5v-928h-147l-41 55q-90 -71 -203 -71q-109 0 -179.5 79.5t-70.5 247.5q0 139 56 237t188 204q50 42 168 122v50q0 120 -99 120q-41 0 -75.5 -21.5t-51.5 -57.5zM369 213q41 0 86 33v393 q-19 -12 -49 -39q-70 -62 -95.5 -120.5t-25.5 -129.5q0 -72 20 -104.5t64 -32.5z" />
<glyph unicode="b" d="M82 1610l242 59v-442q77 41 153 41q106 0 176 -78t70 -225v-678q0 -147 -70 -225t-176 -78q-109 0 -198 67l-37 -51h-160v1610zM406 1028q-40 0 -82 -27v-751q38 -27 82 -27q48 0 61.5 28.5t13.5 90.5v567q0 62 -13.5 90.5t-61.5 28.5z" />
<glyph unicode="c" horiz-adv-x="733" d="M307 950v-649q0 -78 76 -78t76 78v57l219 58v-129q0 -138 -87 -220.5t-218 -82.5q-129 0 -215 82.5t-86 220.5v678q0 138 86 220.5t215 82.5q131 0 218 -82.5t87 -220.5v-54h-219v39q0 78 -76 78t-76 -78z" />
<glyph unicode="d" horiz-adv-x="794" d="M471 1610l242 59v-1669h-160l-39 51q-89 -67 -197 -67q-106 0 -175.5 78t-69.5 225v678q0 147 69.5 225t175.5 78q83 0 154 -41v383zM313 909v-567q0 -62 14 -90.5t62 -28.5q45 0 82 27v751q-42 27 -82 27q-48 0 -62 -28.5t-14 -90.5z" />
<glyph unicode="e" horiz-adv-x="743" d="M489 547q-75 -66 -182 -139v-113q0 -78 76 -78t76 78v63l219 58v-129q0 -138 -87 -220.5t-218 -82.5q-129 0 -215 82.5t-86 220.5v678q0 138 86 220.5t215 82.5q47 0 90 -10.5t83.5 -35t70 -62t47.5 -96t18 -132.5q0 -115 -45.5 -205t-147.5 -180zM307 954v-309 q42 33 60 53q82 89 82 215q0 134 -76 134q-66 0 -66 -93z" />
<glyph unicode="f" horiz-adv-x="608" d="M12 1251h117v95q0 155 76.5 247.5t222.5 92.5q100 0 180 -44l-65 -210q-42 30 -86 30q-49 0 -74 -31.5t-25 -89.5v-90h174v-202h-174v-1049h-229v1049h-117v202z" />
<glyph unicode="g" horiz-adv-x="778" d="M74 614v351q0 138 88.5 220.5t222.5 82.5q96 0 172 -45l221 10l-102 -154q20 -58 20 -114v-351q0 -137 -89 -220t-222 -83q-37 0 -53 2q-23 -30 -23 -65q0 -29 22.5 -47.5t63.5 -18.5h346l-94 -207h-342q-30 0 -46.5 -18t-16.5 -43t16.5 -43t46.5 -18h287l-94 -203h-244 q-122 0 -191 75.5t-69 178.5q0 73 36.5 137t104.5 98q-18 35 -18 84q0 90 71 148q-114 83 -114 243zM303 963v-347q0 -84 82 -84t82 84v347q0 84 -82 84t-82 -84z" />
<glyph unicode="h" horiz-adv-x="800" d="M82 1610l242 59v-442q77 41 153 41q106 0 176 -78t70 -225v-965h-242v909q0 62 -13.5 90.5t-61.5 28.5q-40 0 -82 -27v-1001h-242v1610z" />
<glyph unicode="i" horiz-adv-x="405" d="M82 1251h242v-1251h-242v1251zM201 1673q66 0 100.5 -38.5t34.5 -100.5t-34.5 -101.5t-100.5 -39.5q-63 0 -97 39.5t-34 101.5q0 61 34 100t97 39z" />
<glyph unicode="j" horiz-adv-x="432" d="M115 1251h235v-1290q0 -95 -29.5 -168.5t-97 -120.5t-166.5 -47q-108 0 -176 51l64 207q31 -28 73 -28q40 0 68.5 27t28.5 79v1290zM233 1673q66 0 101 -38.5t35 -100.5t-35 -101.5t-101 -39.5q-63 0 -97 39.5t-34 101.5q0 61 34 100t97 39z" />
<glyph unicode="k" horiz-adv-x="765" d="M483 1251h244l-199 -501l224 -750h-250l-178 633v-633h-242v1610l242 59v-835z" />
<glyph unicode="l" horiz-adv-x="405" d="M82 1610l242 59v-1669h-242v1610z" />
<glyph unicode="m" horiz-adv-x="1200" d="M82 1251h160l37 -53q93 70 198 70q112 0 180 -86q44 40 103 63t117 23q106 0 175.5 -78t69.5 -225v-965h-241v909q0 62 -14 90.5t-62 28.5q-44 0 -84 -29q2 -10 2 -34v-965h-242v909q0 62 -13.5 90.5t-61.5 28.5q-40 0 -82 -27v-1001h-242v1251z" />
<glyph unicode="n" horiz-adv-x="800" d="M82 1251h160l37 -53q93 70 198 70q106 0 176 -78t70 -225v-965h-242v909q0 62 -13.5 90.5t-61.5 28.5q-40 0 -82 -27v-1001h-242v1251z" />
<glyph unicode="o" horiz-adv-x="765" d="M694 965v-678q0 -137 -89 -220t-222 -83q-134 0 -222.5 82.5t-88.5 220.5v678q0 138 88.5 220.5t222.5 82.5q133 0 222 -83t89 -220zM307 950v-649q0 -78 76 -78t76 78v649q0 78 -76 78t-76 -78z" />
<glyph unicode="p" horiz-adv-x="794" d="M82 1251h160l37 -53q93 70 198 70q106 0 176 -78t70 -225v-678q0 -147 -70 -225t-176 -78q-76 0 -153 41v-375h-242v1601zM406 1028q-40 0 -82 -27v-751q38 -27 82 -27q48 0 61.5 28.5t13.5 90.5v567q0 62 -13.5 90.5t-61.5 28.5z" />
<glyph unicode="q" horiz-adv-x="794" d="M553 1251h160v-1601h-242v373q-73 -39 -154 -39q-106 0 -175.5 78t-69.5 225v678q0 147 69.5 225t175.5 78q104 0 197 -70zM313 909v-567q0 -62 14 -90.5t62 -28.5q45 0 82 27v751q-42 27 -82 27q-48 0 -62 -28.5t-14 -90.5z" />
<glyph unicode="r" horiz-adv-x="614" d="M604 1214l-67 -215q-48 29 -97 29q-63 0 -116 -53v-975h-242v1251h160l47 -67q72 84 174 84q84 0 141 -54z" />
<glyph unicode="s" horiz-adv-x="722" d="M371 1268q154 0 227.5 -80.5t73.5 -206.5v-70h-219v33q0 96 -86 96q-80 0 -80 -71q0 -48 65 -131q17 -22 117.5 -135.5t134.5 -167.5q74 -114 74 -242q0 -139 -80 -224t-238 -85q-150 0 -233.5 80.5t-83.5 230.5v121l219 -58v-45q0 -98 96 -98q95 0 95 86q0 26 -11.5 50 t-44.5 69q-45 61 -133.5 162t-118.5 143q-92 128 -92 256q0 137 86.5 212t231.5 75z" />
<glyph unicode="t" horiz-adv-x="606" d="M12 1251h117v191l236 98v-289h167v-202h-167v-730q0 -52 28 -79t68 -27q42 0 74 29l63 -207q-68 -51 -176 -51q-99 0 -166.5 46.5t-97 120t-29.5 168.5v730h-117v202z" />
<glyph unicode="u" horiz-adv-x="792" d="M469 1251h242v-1251h-160l-37 51q-86 -67 -190 -67q-106 0 -176 78t-70 225v964h241v-909q0 -61 16.5 -90t57.5 -29q37 0 76 25v1003z" />
<glyph unicode="v" horiz-adv-x="749" d="M27 1251h233l115 -749l121 749h229l-236 -1251h-235z" />
<glyph unicode="w" horiz-adv-x="1085" d="M33 1251h225l61 -702l111 702h219l107 -704l69 704h228l-154 -1251h-233l-127 803l-133 -803h-226z" />
<glyph unicode="x" horiz-adv-x="829" d="M543 1251h248l-256 -600l280 -651h-270l-148 373l-141 -373h-242l262 668l-239 583h258l121 -307z" />
<glyph unicode="y" horiz-adv-x="792" d="M469 1251h242v-1601h-242v391q-67 -37 -145 -37q-106 0 -176 78t-70 225v944h241v-889q0 -61 16.5 -89.5t57.5 -28.5q39 0 76 24v983z" />
<glyph unicode="z" horiz-adv-x="688" d="M51 1251h594v-168l-346 -880h346v-203h-602v197l350 852h-342v202z" />
<glyph unicode="{" horiz-adv-x="563" d="M547 1964v-197q-88 0 -116 -27t-28 -122v-672q0 -68 -39.5 -116.5t-84.5 -55.5q44 -6 84 -61.5t40 -124.5v-672q0 -95 28 -122t116 -27v-197q-88 0 -148 15t-105 53t-66 106.5t-21 171.5v657q0 53 -18.5 75t-61.5 22h-74v194h74q43 0 61.5 22t18.5 75v657q0 103 21 171.5 t66 106.5t105 53t148 15z" />
<glyph unicode="|" horiz-adv-x="528" d="M166 1862h196v-2190h-196v2190z" />
<glyph unicode="}" horiz-adv-x="563" d="M16 -430v197q88 0 116 27t28 122v672q0 67 40 116t85 56q-44 6 -84.5 62t-40.5 124v672q0 95 -28 122t-116 27v197q88 0 148 -15t105 -53t66 -106.5t21 -171.5v-657q0 -53 18.5 -75t61.5 -22h74v-194h-74q-43 0 -61.5 -22t-18.5 -75v-657q0 -103 -21 -171.5t-66 -106.5 t-105 -53t-148 -15z" />
<glyph unicode="~" horiz-adv-x="1062" d="M82 569v226q86 123 246 123q90 0 221 -48q119 -45 188 -45q147 0 244 152v-225q-42 -59 -99.5 -91t-146.5 -32t-221 47q-119 45 -188 45q-147 0 -244 -152z" />
<glyph unicode="&#xa1;" horiz-adv-x="415" d="M334 -279h-285l76 1168h133zM193 1081q-66 0 -101 39t-35 101t35 101.5t101 39.5q63 0 97 -39.5t34 -101.5t-34 -101t-97 -39z" />
<glyph unicode="&#xa2;" horiz-adv-x="780" d="M322 1124v-649q0 -78 75 -78q76 0 76 78v57l219 58v-129q0 -126 -73.5 -207.5t-188.5 -93.5v-201h-88v201q-113 14 -184.5 94.5t-71.5 206.5v678q0 125 71.5 205t184.5 94v207h88v-205q116 -14 189 -94.5t73 -206.5v-54h-219v39q0 78 -76 78q-75 0 -75 -78z" />
<glyph unicode="&#xa3;" horiz-adv-x="870" d="M51 987h111v328q0 146 90 231.5t235 85.5q143 0 227.5 -85t84.5 -232v-53h-232v47q0 82 -78 82q-79 0 -79 -82v-322h319v-196h-319v-549h368v-242h-708v242h92v549h-111v196z" />
<glyph unicode="&#xa4;" horiz-adv-x="1406" d="M166 1452l231 -233q121 106 305 106q179 0 304 -106l235 235l139 -139l-260 -260q31 -84 31 -166v-223q0 -84 -31 -168l260 -260l-139 -140l-237 238q-125 -103 -302 -103q-176 0 -301 103l-235 -236l-139 140l260 260q-29 79 -29 166v223q0 91 27 164l-258 260zM434 858 v-160q0 -119 76 -191.5t192 -72.5q118 0 196.5 72.5t78.5 191.5v160q0 120 -78 192t-197 72q-117 0 -192.5 -71.5t-75.5 -192.5z" />
<glyph unicode="&#xa5;" horiz-adv-x="987" d="M43 397h324v131h-324v156h324v66l-271 854h252l146 -504l153 504h240l-269 -854v-66h324v-156h-324v-131h324v-155h-324v-242h-251v242h-324v155z" />
<glyph unicode="&#xa6;" horiz-adv-x="528" d="M166 1862h196v-961h-196v961zM166 633h196v-961h-196v961z" />
<glyph unicode="&#xa7;" horiz-adv-x="776" d="M432 1632q125 0 196.5 -74.5t71.5 -197.5v-51h-200v34q0 41 -19 64t-55 23q-41 0 -58.5 -30t-17.5 -73q0 -78 60 -180q17 -28 110.5 -175.5t126.5 -207.5q64 -120 64 -242q0 -253 -168 -317q58 -107 77 -169t19 -130q0 -160 -70.5 -248t-210.5 -88q-134 0 -213 77 t-79 193v78l200 -53v-21q0 -30 21 -52.5t59 -22.5q39 0 61.5 27.5t22.5 78.5q0 78 -55 178q-19 34 -92 149.5t-103 170.5q-102 187 -102 344q0 103 45 176t125 102q-98 184 -98 334q0 140 76 221.5t206 81.5zM358 813q-40 -1 -59.5 -31.5t-19.5 -74.5q0 -74 59 -177 q20 -37 90 -145q34 5 54 32t20 72q0 83 -144 324z" />
<glyph unicode="&#xa8;" horiz-adv-x="724" d="M545 1673q66 0 100.5 -38.5t34.5 -100.5t-34.5 -101.5t-100.5 -39.5q-63 0 -97 39.5t-34 101.5q0 61 34 100t97 39zM176 1673q66 0 100.5 -38.5t34.5 -100.5t-34.5 -101.5t-100.5 -39.5q-63 0 -97 39.5t-34 101.5q0 61 34 100t97 39z" />
<glyph unicode="&#xa9;" horiz-adv-x="1513" d="M78 629v340q0 151 52.5 277t143.5 210t214.5 130t265.5 46q190 0 344 -78.5t246 -231t92 -353.5v-340q0 -149 -53.5 -273.5t-145.5 -208t-216.5 -130t-266.5 -46.5t-265.5 46.5t-214.5 130t-143.5 208t-52.5 273.5zM180 969v-340q0 -167 76.5 -294.5t206.5 -194 t291 -66.5q162 0 292.5 66.5t208.5 194t78 294.5v340q0 170 -78 299t-208.5 195.5t-292.5 66.5q-121 0 -225.5 -39t-182 -110.5t-122 -177.5t-44.5 -234zM705 1120v-608q0 -49 47 -49t47 49v10l139 37v-49q0 -87 -55.5 -139t-139.5 -52q-80 0 -134 52t-54 139v614 q0 88 54.5 139.5t140.5 51.5q87 0 137.5 -51t50.5 -140v-30h-139v26q0 49 -47 49t-47 -49z" />
<glyph unicode="&#xaa;" horiz-adv-x="600" d="M203 1434l-94 108q28 42 77.5 66t108.5 24q92 0 140 -59t48 -158v-594h-104l-21 29q-61 -41 -125 -41q-69 0 -114 51.5t-45 159.5q0 81 29 145t94 123q43 39 131 98v25q0 36 -12 52t-42 16q-23 0 -38 -10t-33 -35zM293 967q20 0 35 10v237l-31 -28q-57 -57 -57 -139 q0 -80 53 -80z" />
<glyph unicode="&#xab;" horiz-adv-x="835" d="M594 1251h215l-215 -626l215 -625h-215l-213 625zM238 1251h215l-215 -626l215 -625h-215l-213 625z" />
<glyph unicode="&#xac;" horiz-adv-x="1062" d="M82 874h897v-874h-197v678h-700v196z" />
<glyph unicode="&#xad;" horiz-adv-x="602" d="M43 874h514v-196h-514v196z" />
<glyph unicode="&#xae;" horiz-adv-x="1513" d="M78 629v340q0 151 52.5 277t143.5 210t214.5 130t265.5 46q190 0 344 -78.5t246 -231t92 -353.5v-340q0 -149 -53.5 -273.5t-145.5 -208t-216.5 -130t-266.5 -46.5t-265.5 46.5t-214.5 130t-143.5 208t-52.5 273.5zM180 969v-340q0 -167 76.5 -294.5t206.5 -194 t291 -66.5q162 0 292.5 66.5t208.5 194t78 294.5v340q0 170 -78 299t-208.5 195.5t-292.5 66.5q-121 0 -225.5 -39t-182 -110.5t-122 -177.5t-44.5 -234zM565 1298h195q89 0 139.5 -50.5t50.5 -139.5v-139q0 -103 -59 -133q67 -31 67 -140v-360h-149v364q0 36 -10 52t-41 16 h-45v-432h-148v962zM713 1155v-260h35q31 0 43 16t12 50v129q0 34 -12 49.5t-43 15.5h-35z" />
<glyph unicode="&#xaf;" horiz-adv-x="753" d="M45 1616h664v-178h-664v178z" />
<glyph unicode="&#xb0;" horiz-adv-x="667" d="M94 1210v189q0 106 68 169.5t170 63.5q103 0 171 -63.5t68 -169.5v-189q0 -105 -68.5 -168t-170.5 -63t-170 63t-68 168zM260 1399v-187q0 -30 20 -49.5t54 -19.5t53 19.5t19 49.5v187q0 30 -19 49.5t-53 19.5t-54 -19.5t-20 -49.5z" />
<glyph unicode="&#xb1;" horiz-adv-x="1062" d="M432 1227h197v-353h352v-196h-352v-350h-197v350h-350v196h350v353zM82 197h899v-197h-899v197z" />
<glyph unicode="&#xb2;" horiz-adv-x="501" d="M63 1415v29q0 82 50 128t141 46q93 0 144 -47.5t51 -147.5q0 -71 -41 -145q-16 -30 -71 -119t-75 -125q-25 -40 -32 -65t-7 -74v-41h226v-133h-379v174q0 91 45 174q18 34 76.5 125.5t74.5 120.5q31 58 31 115q0 32 -9.5 43.5t-35.5 11.5q-49 0 -49 -45v-25h-140z" />
<glyph unicode="&#xb3;" horiz-adv-x="528" d="M68 1415v29q0 81 49.5 127.5t136.5 46.5q95 0 146 -52.5t51 -138.5v-127q0 -93 -62 -120q74 -31 74 -127v-174q0 -78 -57.5 -126t-143.5 -48t-140 47.5t-54 128.5v45l139 -33v-10q0 -45 55 -45q51 0 51 45v172q0 32 -13 46.5t-44 14.5h-63v117h55q30 0 41.5 14.5 t11.5 46.5v136q0 30 -10 42.5t-37 12.5t-37 -11.5t-10 -37.5v-21h-139z" />
<glyph unicode="&#xb4;" horiz-adv-x="530" d="M164 1673h260l-227 -323h-213z" />
<glyph unicode="&#xb6;" horiz-adv-x="960" d="M356 1604h549l-37 -177h-61v-1673h-172v1673h-186v-1673h-175v1391q-102 6 -164.5 72.5t-62.5 150.5q0 106 77 171t232 65z" />
<glyph unicode="&#xb7;" horiz-adv-x="356" d="M176 961q66 0 100.5 -39t34.5 -101t-34.5 -101.5t-100.5 -39.5q-63 0 -97 39.5t-34 101.5t34 101t97 39z" />
<glyph unicode="&#xb8;" horiz-adv-x="366" d="M82 -41h240l-84 -389h-193z" />
<glyph unicode="&#xb9;" horiz-adv-x="374" d="M45 1540h29q63 0 63 64h154v-883h-154v704h-92v115z" />
<glyph unicode="&#xba;" horiz-adv-x="591" d="M492 1438v-434q0 -90 -57 -142.5t-144 -52.5t-143 52.5t-56 142.5v434q0 90 56 142t143 52t144 -52t57 -142zM252 1419v-397q0 -51 39 -51q41 0 41 51v397q0 49 -41 49q-39 0 -39 -49z" />
<glyph unicode="&#xbb;" horiz-adv-x="835" d="M381 1251h215l213 -626l-213 -625h-215l215 625zM25 1251h215l213 -626l-213 -625h-215l215 625z" />
<glyph unicode="&#xbc;" horiz-adv-x="1228" d="M864 1604h170l-739 -1604h-174zM135 1540h29q63 0 63 64h154v-883h-154v704h-92v115zM903 883h141v-475h64v-136h-64v-272h-141v272h-223v127l72 291h129l-66 -282h88v475z" />
<glyph unicode="&#xbd;" horiz-adv-x="1228" d="M860 1604h170l-739 -1604h-174zM131 1540h29q63 0 63 64h154v-883h-154v704h-92v115zM727 694v29q0 82 50 128t141 46q194 0 194 -195q0 -71 -41 -145q-16 -31 -70.5 -120t-74.5 -124q-25 -40 -32 -65t-7 -74v-41h225v-133h-379v174q0 91 45 174q18 34 77 125.5t75 120.5 q31 58 31 115q0 32 -10 43.5t-36 11.5q-49 0 -49 -45v-25h-139z" />
<glyph unicode="&#xbe;" horiz-adv-x="1228" d="M901 1604h170l-739 -1604h-174zM940 883h141v-475h64v-136h-64v-272h-141v272h-223v127l71 291h130l-66 -282h88v475zM82 1415v29q0 81 49.5 127.5t136.5 46.5q95 0 146 -52.5t51 -138.5v-127q0 -93 -62 -120q74 -31 74 -127v-174q0 -78 -57.5 -126t-143.5 -48t-140 47.5 t-54 128.5v45l139 -33v-10q0 -45 55 -45q52 0 52 45v172q0 32 -13.5 46.5t-44.5 14.5h-63v117h55q30 0 41.5 14.5t11.5 46.5v136q0 30 -10 42.5t-37 12.5t-37 -11.5t-10 -37.5v-21h-139z" />
<glyph unicode="&#xbf;" horiz-adv-x="706" d="M340 -291q-136 0 -217.5 81.5t-81.5 238.5q0 87 30 167.5t109 217.5q44 77 59.5 104.5t40 76t30.5 68.5t16 60.5t12.5 75.5t5.5 90h133q19 -108 19 -172q0 -90 -26.5 -163.5t-98.5 -209.5q-37 -72 -53 -106.5t-29 -82t-13 -96.5q0 -62 18 -86t62 -24q41 0 65.5 20 t24.5 58v65h220v-80q0 -138 -92.5 -220.5t-233.5 -82.5zM412 1081q-65 0 -99 39t-34 101t34 101.5t99 39.5t99 -39.5t34 -101.5t-34 -101t-99 -39z" />
<glyph unicode="&#xc0;" d="M264 1604h248l248 -1604h-242l-26 195h-201l-25 -195h-241zM465 401l-76 570l-72 -570h148zM172 2025h260l180 -323h-213z" />
<glyph unicode="&#xc1;" d="M264 1604h248l248 -1604h-242l-26 195h-201l-25 -195h-241zM465 401l-76 570l-72 -570h148zM352 2025h260l-227 -323h-213z" />
<glyph unicode="&#xc2;" d="M264 1604h248l248 -1604h-242l-26 195h-201l-25 -195h-241zM465 401l-76 570l-72 -570h148zM262 2025h258l191 -323h-201l-119 209l-119 -209h-198z" />
<glyph unicode="&#xc3;" d="M264 1604h248l248 -1604h-242l-26 195h-201l-25 -195h-241zM465 401l-76 570l-72 -570h148zM133 1763l-90 84q41 84 91.5 125t129.5 41q55 0 100.5 -22t85 -44t80.5 -22t68 21t55 71l90 -84q-41 -84 -92 -125t-121 -41q-50 0 -95 22t-89 44t-90 22q-42 0 -68.5 -20 t-54.5 -72z" />
<glyph unicode="&#xc4;" d="M264 1604h248l248 -1604h-242l-26 195h-201l-25 -195h-241zM465 401l-76 570l-72 -570h148zM573 2025q66 0 101 -38.5t35 -100.5t-35 -101.5t-101 -39.5q-63 0 -97 39.5t-34 101.5q0 61 34 100t97 39zM205 2025q66 0 100.5 -38.5t34.5 -100.5t-34.5 -101.5t-100.5 -39.5 q-63 0 -97 39.5t-34 101.5q0 61 34 100t97 39z" />
<glyph unicode="&#xc5;" d="M264 1604h248l248 -1604h-242l-26 195h-201l-25 -195h-241zM465 401l-76 570l-72 -570h148zM362 2025h58q83 0 131.5 -51.5t48.5 -130.5t-49 -131.5t-131 -52.5h-58q-81 0 -129.5 52.5t-48.5 131.5t48.5 130.5t129.5 51.5zM420 1898h-58q-23 0 -38 -15t-15 -42t15 -41 t38 -14h58q24 0 38.5 14t14.5 41t-14.5 42t-38.5 15z" />
<glyph unicode="&#xc6;" horiz-adv-x="1075" d="M264 1604h764v-242h-278v-416h178v-241h-178v-463h278v-242h-530v195h-207l-25 -195h-241zM498 1362h-58l-123 -961h181v961z" />
<glyph unicode="&#xc7;" horiz-adv-x="751" d="M319 1309v-1014q0 -82 80 -82q78 0 78 82v16l232 60v-82q0 -144 -92.5 -231t-229.5 -87q-135 0 -225 87t-90 231v1026q0 146 90 231.5t235 85.5q143 0 227.5 -85t84.5 -232v-53h-232v47q0 82 -78 82q-80 0 -80 -82zM264 -41h240l-84 -389h-193z" />
<glyph unicode="&#xc8;" horiz-adv-x="659" d="M82 1604h530v-242h-278v-416h178v-241h-178v-463h278v-242h-530v1604zM129 2025h260l180 -323h-213z" />
<glyph unicode="&#xc9;" horiz-adv-x="659" d="M82 1604h530v-242h-278v-416h178v-241h-178v-463h278v-242h-530v1604zM309 2025h260l-227 -323h-213z" />
<glyph unicode="&#xca;" horiz-adv-x="659" d="M82 1604h530v-242h-278v-416h178v-241h-178v-463h278v-242h-530v1604zM221 2025h258l191 -323h-201l-119 209l-119 -209h-198z" />
<glyph unicode="&#xcb;" horiz-adv-x="659" d="M82 1604h530v-242h-278v-416h178v-241h-178v-463h278v-242h-530v1604zM532 2025q66 0 101 -38.5t35 -100.5t-35 -101.5t-101 -39.5q-63 0 -97 39.5t-34 101.5q0 61 34 100t97 39zM164 2025q66 0 100.5 -38.5t34.5 -100.5t-34.5 -101.5t-100.5 -39.5q-63 0 -97 39.5 t-34 101.5q0 61 34 100t97 39z" />
<glyph unicode="&#xcc;" horiz-adv-x="458" d="M125 1604h252v-1604h-252v1604zM31 2025h260l180 -323h-213z" />
<glyph unicode="&#xcd;" horiz-adv-x="466" d="M82 1604h252v-1604h-252v1604zM168 2025h260l-227 -323h-213z" />
<glyph unicode="&#xce;" horiz-adv-x="579" d="M164 1604h252v-1604h-252v1604zM160 2025h258l190 -323h-200l-119 209l-119 -209h-199z" />
<glyph unicode="&#xcf;" horiz-adv-x="532" d="M139 1604h252v-1604h-252v1604zM449 2025q66 0 100.5 -38.5t34.5 -100.5t-34.5 -101.5t-100.5 -39.5q-63 0 -97.5 39.5t-34.5 101.5q0 61 34 100t98 39zM80 2025q66 0 100.5 -38.5t34.5 -100.5t-34.5 -101.5t-100.5 -39.5q-63 0 -97 39.5t-34 101.5q0 61 34 100t97 39z " />
<glyph unicode="&#xd0;" horiz-adv-x="829" d="M106 1604h332q151 0 235.5 -93t84.5 -276v-866q0 -183 -84.5 -276t-235.5 -93h-332v705h-100v241h100v658zM358 1362v-416h105v-241h-105v-463h60q51 0 71.5 26.5t20.5 83.5v899q0 58 -20.5 84.5t-71.5 26.5h-60z" />
<glyph unicode="&#xd1;" horiz-adv-x="804" d="M82 1604h270l156 -799v799h215v-1604h-221l-203 928v-928h-217v1604zM141 1763l-90 84q41 84 91.5 125t129.5 41q44 0 83 -13.5t62.5 -30.5t56 -30.5t65.5 -13.5q41 0 68 21t55 71l90 -84q-41 -84 -92 -125t-121 -41q-50 0 -95.5 22t-89.5 44t-90 22q-42 0 -68.5 -20 t-54.5 -72z" />
<glyph unicode="&#xd2;" horiz-adv-x="802" d="M731 1311v-1018q0 -147 -94.5 -234.5t-235.5 -87.5q-142 0 -235.5 87.5t-93.5 234.5v1018q0 147 93.5 234t235.5 87q141 0 235.5 -87t94.5 -234zM319 1309v-1014q0 -82 82 -82t82 82v1014q0 82 -82 82t-82 -82zM180 2025h260l181 -323h-213z" />
<glyph unicode="&#xd3;" horiz-adv-x="802" d="M731 1311v-1018q0 -147 -94.5 -234.5t-235.5 -87.5q-142 0 -235.5 87.5t-93.5 234.5v1018q0 147 93.5 234t235.5 87q141 0 235.5 -87t94.5 -234zM319 1309v-1014q0 -82 82 -82t82 82v1014q0 82 -82 82t-82 -82zM360 2025h261l-228 -323h-213z" />
<glyph unicode="&#xd4;" horiz-adv-x="802" d="M731 1311v-1018q0 -147 -94.5 -234.5t-235.5 -87.5q-142 0 -235.5 87.5t-93.5 234.5v1018q0 147 93.5 234t235.5 87q141 0 235.5 -87t94.5 -234zM319 1309v-1014q0 -82 82 -82t82 82v1014q0 82 -82 82t-82 -82zM270 2025h258l191 -323h-201l-119 209l-118 -209h-199z" />
<glyph unicode="&#xd5;" horiz-adv-x="802" d="M731 1311v-1018q0 -147 -94.5 -234.5t-235.5 -87.5q-142 0 -235.5 87.5t-93.5 234.5v1018q0 147 93.5 234t235.5 87q141 0 235.5 -87t94.5 -234zM319 1309v-1014q0 -82 82 -82t82 82v1014q0 82 -82 82t-82 -82zM141 1763l-90 84q41 84 91.5 125t129.5 41q44 0 83 -13.5 t62.5 -30.5t56 -30.5t65.5 -13.5q41 0 68 21t55 71l90 -84q-41 -84 -92 -125t-121 -41q-50 0 -95.5 22t-89.5 44t-90 22q-42 0 -68.5 -20t-54.5 -72z" />
<glyph unicode="&#xd6;" horiz-adv-x="802" d="M731 1311v-1018q0 -147 -94.5 -234.5t-235.5 -87.5q-142 0 -235.5 87.5t-93.5 234.5v1018q0 147 93.5 234t235.5 87q141 0 235.5 -87t94.5 -234zM319 1309v-1014q0 -82 82 -82t82 82v1014q0 82 -82 82t-82 -82zM584 2025q66 0 100.5 -38.5t34.5 -100.5t-34.5 -101.5 t-100.5 -39.5q-63 0 -97 39.5t-34 101.5q0 61 34 100t97 39zM215 2025q66 0 100.5 -38.5t34.5 -100.5t-34.5 -101.5t-100.5 -39.5q-63 0 -97 39.5t-34 101.5q0 61 34 100t97 39z" />
<glyph unicode="&#xd7;" horiz-adv-x="1062" d="M254 1192l276 -277l279 279l139 -139l-278 -279l278 -278l-139 -140l-279 279l-276 -277l-139 140l276 276l-276 277z" />
<glyph unicode="&#xd8;" horiz-adv-x="802" d="M625 1726h135l-76 -239q47 -79 47 -176v-1018q0 -147 -94.5 -234.5t-235.5 -87.5q-103 0 -182 45l-43 -139h-135l76 242q-45 73 -45 174v1018q0 147 93.5 234t235.5 87q102 0 179 -47zM401 213q82 0 82 82v555l-164 -518v-37q0 -82 82 -82zM319 1309v-549l164 518v31 q0 82 -82 82t-82 -82z" />
<glyph unicode="&#xd9;" horiz-adv-x="815" d="M78 1604h252v-1309q0 -40 21 -61t59 -21q82 0 82 82v1309h245v-1311q0 -147 -94 -234.5t-237 -87.5q-142 0 -235 87.5t-93 234.5v1311zM186 2025h260l181 -323h-213z" />
<glyph unicode="&#xda;" horiz-adv-x="815" d="M78 1604h252v-1309q0 -40 21 -61t59 -21q82 0 82 82v1309h245v-1311q0 -147 -94 -234.5t-237 -87.5q-142 0 -235 87.5t-93 234.5v1311zM367 2025h260l-228 -323h-213z" />
<glyph unicode="&#xdb;" horiz-adv-x="815" d="M78 1604h252v-1309q0 -40 21 -61t59 -21q82 0 82 82v1309h245v-1311q0 -147 -94 -234.5t-237 -87.5q-142 0 -235 87.5t-93 234.5v1311zM276 2025h259l190 -323h-201l-118 209l-119 -209h-199z" />
<glyph unicode="&#xdc;" horiz-adv-x="815" d="M78 1604h252v-1309q0 -40 21 -61t59 -21q82 0 82 82v1309h245v-1311q0 -147 -94 -234.5t-237 -87.5q-142 0 -235 87.5t-93 234.5v1311zM590 2025q66 0 100.5 -38.5t34.5 -100.5t-34.5 -101.5t-100.5 -39.5q-63 0 -97 39.5t-34 101.5q0 61 34 100t97 39zM221 2025 q66 0 100.5 -38.5t34.5 -100.5t-34.5 -101.5t-100.5 -39.5q-63 0 -97 39.5t-34 101.5q0 61 34 100t97 39z" />
<glyph unicode="&#xdd;" horiz-adv-x="819" d="M14 1604h252l146 -504l153 504h240l-268 -854v-750h-252v750zM369 2025h260l-228 -323h-213z" />
<glyph unicode="&#xde;" horiz-adv-x="800" d="M82 1604h252v-267h80q151 0 235 -92.5t84 -275.5v-316q0 -183 -84 -275.5t-235 -92.5h-80v-285h-252v1604zM334 1096v-570h59q51 0 71.5 26.5t20.5 84.5v348q0 58 -20.5 84.5t-71.5 26.5h-59z" />
<glyph unicode="&#xdf;" horiz-adv-x="888" d="M311 1362v-1362h-229v1346q0 158 76.5 249t238.5 91q81 0 140 -24t91.5 -68t47 -97t14.5 -119v-307q0 -111 -24 -170q79 -26 117 -86.5t38 -175.5v-320q0 -95 -29.5 -168.5t-97 -120t-166.5 -46.5q-108 0 -176 51l64 207q32 -29 73 -29q40 0 68.5 27t28.5 79v310 q0 84 -28 109.5t-118 25.5h-59v188h18q43 0 56.5 22.5t13.5 76.5v311q0 84 -80 84q-78 0 -78 -84z" />
<glyph unicode="&#xe0;" horiz-adv-x="761" d="M229 965l-133 163q44 65 122.5 102.5t168.5 37.5q145 0 221 -92.5t76 -247.5v-928h-147l-41 55q-90 -71 -203 -71q-109 0 -179.5 79.5t-70.5 247.5q0 139 56 237t188 204q50 42 168 122v50q0 120 -99 120q-41 0 -75.5 -21.5t-51.5 -57.5zM369 213q41 0 86 33v393 q-19 -12 -49 -39q-70 -62 -95.5 -120.5t-25.5 -129.5q0 -72 20 -104.5t64 -32.5zM160 1673h260l180 -323h-213z" />
<glyph unicode="&#xe1;" horiz-adv-x="761" d="M229 965l-133 163q44 65 122.5 102.5t168.5 37.5q145 0 221 -92.5t76 -247.5v-928h-147l-41 55q-90 -71 -203 -71q-109 0 -179.5 79.5t-70.5 247.5q0 139 56 237t188 204q50 42 168 122v50q0 120 -99 120q-41 0 -75.5 -21.5t-51.5 -57.5zM369 213q41 0 86 33v393 q-19 -12 -49 -39q-70 -62 -95.5 -120.5t-25.5 -129.5q0 -72 20 -104.5t64 -32.5zM340 1673h260l-227 -323h-213z" />
<glyph unicode="&#xe2;" horiz-adv-x="761" d="M229 965l-133 163q44 65 122.5 102.5t168.5 37.5q145 0 221 -92.5t76 -247.5v-928h-147l-41 55q-90 -71 -203 -71q-109 0 -179.5 79.5t-70.5 247.5q0 139 56 237t188 204q50 42 168 122v50q0 120 -99 120q-41 0 -75.5 -21.5t-51.5 -57.5zM369 213q41 0 86 33v393 q-19 -12 -49 -39q-70 -62 -95.5 -120.5t-25.5 -129.5q0 -72 20 -104.5t64 -32.5zM250 1673h258l190 -323h-200l-119 209l-119 -209h-199z" />
<glyph unicode="&#xe3;" horiz-adv-x="761" d="M229 965l-133 163q44 65 122.5 102.5t168.5 37.5q145 0 221 -92.5t76 -247.5v-928h-147l-41 55q-90 -71 -203 -71q-109 0 -179.5 79.5t-70.5 247.5q0 139 56 237t188 204q50 42 168 122v50q0 120 -99 120q-41 0 -75.5 -21.5t-51.5 -57.5zM369 213q41 0 86 33v393 q-19 -12 -49 -39q-70 -62 -95.5 -120.5t-25.5 -129.5q0 -72 20 -104.5t64 -32.5zM121 1411l-90 84q41 84 91.5 125t129.5 41q55 0 100.5 -22t85 -44t80.5 -22t68 21t55 71l90 -84q-41 -84 -92 -125t-121 -41q-50 0 -95 22t-89 44t-90 22q-42 0 -68.5 -20t-54.5 -72z" />
<glyph unicode="&#xe4;" horiz-adv-x="761" d="M229 965l-133 163q44 65 122.5 102.5t168.5 37.5q145 0 221 -92.5t76 -247.5v-928h-147l-41 55q-90 -71 -203 -71q-109 0 -179.5 79.5t-70.5 247.5q0 139 56 237t188 204q50 42 168 122v50q0 120 -99 120q-41 0 -75.5 -21.5t-51.5 -57.5zM369 213q41 0 86 33v393 q-19 -12 -49 -39q-70 -62 -95.5 -120.5t-25.5 -129.5q0 -72 20 -104.5t64 -32.5zM563 1673q66 0 100.5 -38.5t34.5 -100.5t-34.5 -101.5t-100.5 -39.5q-63 0 -97 39.5t-34 101.5q0 61 34 100t97 39zM195 1673q66 0 100.5 -38.5t34.5 -100.5t-34.5 -101.5t-100.5 -39.5 q-63 0 -97.5 39.5t-34.5 101.5q0 61 34 100t98 39z" />
<glyph unicode="&#xe5;" horiz-adv-x="761" d="M229 965l-133 163q44 65 122.5 102.5t168.5 37.5q145 0 221 -92.5t76 -247.5v-928h-147l-41 55q-90 -71 -203 -71q-109 0 -179.5 79.5t-70.5 247.5q0 139 56 237t188 204q50 42 168 122v50q0 120 -99 120q-41 0 -75.5 -21.5t-51.5 -57.5zM369 213q41 0 86 33v393 q-19 -12 -49 -39q-70 -62 -95.5 -120.5t-25.5 -129.5q0 -72 20 -104.5t64 -32.5zM350 1673h58q83 0 131.5 -51.5t48.5 -130.5t-49 -131.5t-131 -52.5h-58q-81 0 -129.5 52.5t-48.5 131.5t48.5 130.5t129.5 51.5zM408 1546h-58q-23 0 -38 -15t-15 -42t15 -41t38 -14h58 q24 0 38.5 14t14.5 41t-14.5 42t-38.5 15z" />
<glyph unicode="&#xe6;" horiz-adv-x="1120" d="M229 965l-133 163q44 65 122.5 102.5t168.5 37.5q108 0 182 -58q77 58 183 58q59 0 110.5 -17.5t97.5 -55t72.5 -105.5t26.5 -160q0 -116 -46.5 -205t-146.5 -178q-73 -65 -182 -139v-113q0 -78 76 -78t76 78v63l219 58v-129q0 -138 -87 -220.5t-218 -82.5 q-145 0 -226 96q-44 -44 -106 -70t-125 -26q-107 0 -178.5 79t-71.5 238q0 47 7.5 90.5t18 79t33 73t40 63.5t51.5 59.5t56 53.5t65.5 53t67 49.5t73.5 51.5v50q0 120 -99 120q-41 0 -75.5 -21.5t-51.5 -57.5zM369 213q46 0 86 37v389q-85 -61 -127.5 -131.5t-42.5 -165.5 q0 -129 84 -129zM684 954v-309q141 93 141 275q0 127 -75 127q-66 0 -66 -93z" />
<glyph unicode="&#xe7;" horiz-adv-x="733" d="M307 950v-649q0 -78 76 -78t76 78v57l219 58v-129q0 -138 -87 -220.5t-218 -82.5q-129 0 -215 82.5t-86 220.5v678q0 138 86 220.5t215 82.5q131 0 218 -82.5t87 -220.5v-54h-219v39q0 78 -76 78t-76 -78zM250 -41h239l-83 -389h-193z" />
<glyph unicode="&#xe8;" horiz-adv-x="743" d="M489 547q-75 -66 -182 -139v-113q0 -78 76 -78t76 78v63l219 58v-129q0 -138 -87 -220.5t-218 -82.5q-129 0 -215 82.5t-86 220.5v678q0 138 86 220.5t215 82.5q47 0 90 -10.5t83.5 -35t70 -62t47.5 -96t18 -132.5q0 -115 -45.5 -205t-147.5 -180zM307 954v-309 q42 33 60 53q82 89 82 215q0 134 -76 134q-66 0 -66 -93zM152 1673h260l180 -323h-213z" />
<glyph unicode="&#xe9;" horiz-adv-x="743" d="M489 547q-75 -66 -182 -139v-113q0 -78 76 -78t76 78v63l219 58v-129q0 -138 -87 -220.5t-218 -82.5q-129 0 -215 82.5t-86 220.5v678q0 138 86 220.5t215 82.5q47 0 90 -10.5t83.5 -35t70 -62t47.5 -96t18 -132.5q0 -115 -45.5 -205t-147.5 -180zM307 954v-309 q42 33 60 53q82 89 82 215q0 134 -76 134q-66 0 -66 -93zM332 1673h260l-227 -323h-213z" />
<glyph unicode="&#xea;" horiz-adv-x="743" d="M489 547q-75 -66 -182 -139v-113q0 -78 76 -78t76 78v63l219 58v-129q0 -138 -87 -220.5t-218 -82.5q-129 0 -215 82.5t-86 220.5v678q0 138 86 220.5t215 82.5q47 0 90 -10.5t83.5 -35t70 -62t47.5 -96t18 -132.5q0 -115 -45.5 -205t-147.5 -180zM307 954v-309 q42 33 60 53q82 89 82 215q0 134 -76 134q-66 0 -66 -93zM242 1673h258l190 -323h-201l-118 209l-119 -209h-199z" />
<glyph unicode="&#xeb;" horiz-adv-x="743" d="M489 547q-75 -66 -182 -139v-113q0 -78 76 -78t76 78v63l219 58v-129q0 -138 -87 -220.5t-218 -82.5q-129 0 -215 82.5t-86 220.5v678q0 138 86 220.5t215 82.5q47 0 90 -10.5t83.5 -35t70 -62t47.5 -96t18 -132.5q0 -115 -45.5 -205t-147.5 -180zM307 954v-309 q42 33 60 53q82 89 82 215q0 134 -76 134q-66 0 -66 -93zM553 1673q66 0 100.5 -38.5t34.5 -100.5t-34.5 -101.5t-100.5 -39.5q-63 0 -97 39.5t-34 101.5q0 61 34 100t97 39zM184 1673q66 0 100.5 -38.5t34.5 -100.5t-34.5 -101.5t-100.5 -39.5q-63 0 -97 39.5t-34 101.5 q0 61 34 100t97 39z" />
<glyph unicode="&#xec;" horiz-adv-x="444" d="M23 1673h260l180 -323h-213zM121 1251h241v-1251h-241v1251z" />
<glyph unicode="&#xed;" horiz-adv-x="454" d="M164 1673h260l-227 -323h-213zM82 1251h242v-1251h-242v1251z" />
<glyph unicode="&#xee;" horiz-adv-x="595" d="M176 1251h242v-1251h-242v1251zM168 1673h258l190 -323h-200l-119 209l-119 -209h-198z" />
<glyph unicode="&#xef;" horiz-adv-x="600" d="M483 1673q66 0 100.5 -38.5t34.5 -100.5t-34.5 -101.5t-100.5 -39.5q-63 0 -97 39.5t-34 101.5q0 61 34 100t97 39zM115 1673q66 0 100.5 -38.5t34.5 -100.5t-34.5 -101.5t-100.5 -39.5q-63 0 -97 39.5t-34 101.5q0 61 34 100t97 39zM180 1251h242v-1251h-242v1251z" />
<glyph unicode="&#xf0;" horiz-adv-x="747" d="M240 1382l-134 164q44 65 122.5 102.5t168.5 37.5q100 0 170 -48l88 103l74 -66l-92 -108q57 -91 57 -221v-1051q0 -141 -87.5 -226t-219.5 -85q-134 0 -223.5 85t-89.5 226v434q0 138 65.5 211.5t163.5 73.5q86 0 168 -53v380q0 19 -2 27l-199 -233l-71 65l219 260 q-23 13 -47 13q-43 0 -77.5 -26t-53.5 -65zM383 223q38 0 63 20.5t25 59.5v440q-48 45 -100 45q-45 0 -58.5 -27t-13.5 -85v-373q0 -39 23.5 -59.5t60.5 -20.5z" />
<glyph unicode="&#xf1;" horiz-adv-x="800" d="M82 1251h160l37 -53q93 70 198 70q106 0 176 -78t70 -225v-965h-242v909q0 62 -13.5 90.5t-61.5 28.5q-40 0 -82 -27v-1001h-242v1251zM139 1411l-90 84q41 84 91.5 125t129.5 41q44 0 83 -13.5t62.5 -30.5t56 -30.5t65.5 -13.5q40 0 67 20.5t55 71.5l91 -84 q-41 -84 -92 -125t-121 -41q-61 0 -140.5 44t-134.5 44q-42 0 -68.5 -20t-54.5 -72z" />
<glyph unicode="&#xf2;" horiz-adv-x="765" d="M694 965v-678q0 -137 -89 -220t-222 -83q-134 0 -222.5 82.5t-88.5 220.5v678q0 138 88.5 220.5t222.5 82.5q133 0 222 -83t89 -220zM307 950v-649q0 -78 76 -78t76 78v649q0 78 -76 78t-76 -78zM162 1673h260l180 -323h-213z" />
<glyph unicode="&#xf3;" horiz-adv-x="765" d="M694 965v-678q0 -137 -89 -220t-222 -83q-134 0 -222.5 82.5t-88.5 220.5v678q0 138 88.5 220.5t222.5 82.5q133 0 222 -83t89 -220zM307 950v-649q0 -78 76 -78t76 78v649q0 78 -76 78t-76 -78zM342 1673h260l-227 -323h-213z" />
<glyph unicode="&#xf4;" horiz-adv-x="765" d="M694 965v-678q0 -137 -89 -220t-222 -83q-134 0 -222.5 82.5t-88.5 220.5v678q0 138 88.5 220.5t222.5 82.5q133 0 222 -83t89 -220zM307 950v-649q0 -78 76 -78t76 78v649q0 78 -76 78t-76 -78zM252 1673h258l190 -323h-200l-119 209l-119 -209h-199z" />
<glyph unicode="&#xf5;" horiz-adv-x="765" d="M694 965v-678q0 -137 -89 -220t-222 -83q-134 0 -222.5 82.5t-88.5 220.5v678q0 138 88.5 220.5t222.5 82.5q133 0 222 -83t89 -220zM307 950v-649q0 -78 76 -78t76 78v649q0 78 -76 78t-76 -78zM123 1411l-90 84q41 84 91.5 125t129.5 41q55 0 100.5 -22t85 -44 t80.5 -22t68 21t55 71l90 -84q-41 -84 -92 -125t-121 -41q-50 0 -95 22t-89 44t-90 22q-42 0 -68.5 -20t-54.5 -72z" />
<glyph unicode="&#xf6;" horiz-adv-x="765" d="M694 965v-678q0 -137 -89 -220t-222 -83q-134 0 -222.5 82.5t-88.5 220.5v678q0 138 88.5 220.5t222.5 82.5q133 0 222 -83t89 -220zM307 950v-649q0 -78 76 -78t76 78v649q0 78 -76 78t-76 -78zM565 1673q66 0 100.5 -38.5t34.5 -100.5t-34.5 -101.5t-100.5 -39.5 q-63 0 -97 39.5t-34 101.5q0 61 34 100t97 39zM197 1673q66 0 100.5 -38.5t34.5 -100.5t-34.5 -101.5t-100.5 -39.5q-63 0 -97 39.5t-34 101.5q0 61 34 100t97 39z" />
<glyph unicode="&#xf7;" horiz-adv-x="1062" d="M82 874h899v-196h-899v196zM528 473q66 0 101 -38.5t35 -100.5t-35 -101.5t-101 -39.5q-63 0 -97 39.5t-34 101.5q0 61 34 100t97 39zM528 1360q66 0 101 -38.5t35 -100.5t-35 -102t-101 -40q-63 0 -97 40t-34 102q0 61 34 100t97 39z" />
<glyph unicode="&#xf8;" horiz-adv-x="765" d="M545 1374h123l-64 -188q90 -87 90 -221v-678q0 -137 -89 -220t-222 -83q-63 0 -125 20l-39 -127h-123l58 195q-82 85 -82 215v678q0 138 88.5 220.5t222.5 82.5q68 0 129 -25zM383 223q76 0 76 78v412l-140 -463q21 -27 64 -27zM307 950v-401l135 455q-18 24 -59 24 q-76 0 -76 -78z" />
<glyph unicode="&#xf9;" horiz-adv-x="792" d="M469 1251h242v-1251h-160l-37 51q-86 -67 -190 -67q-106 0 -176 78t-70 225v964h241v-909q0 -61 16.5 -90t57.5 -29q37 0 76 25v1003zM176 1673h260l180 -323h-213z" />
<glyph unicode="&#xfa;" horiz-adv-x="792" d="M469 1251h242v-1251h-160l-37 51q-86 -67 -190 -67q-106 0 -176 78t-70 225v964h241v-909q0 -61 16.5 -90t57.5 -29q37 0 76 25v1003zM356 1673h260l-227 -323h-213z" />
<glyph unicode="&#xfb;" horiz-adv-x="792" d="M469 1251h242v-1251h-160l-37 51q-86 -67 -190 -67q-106 0 -176 78t-70 225v964h241v-909q0 -61 16.5 -90t57.5 -29q37 0 76 25v1003zM266 1673h258l191 -323h-201l-119 209l-119 -209h-198z" />
<glyph unicode="&#xfc;" horiz-adv-x="792" d="M469 1251h242v-1251h-160l-37 51q-86 -67 -190 -67q-106 0 -176 78t-70 225v964h241v-909q0 -61 16.5 -90t57.5 -29q37 0 76 25v1003zM578 1673q66 0 100.5 -38.5t34.5 -100.5t-34.5 -101.5t-100.5 -39.5q-63 0 -97.5 39.5t-34.5 101.5q0 61 34 100t98 39zM209 1673 q66 0 100.5 -38.5t34.5 -100.5t-34.5 -101.5t-100.5 -39.5q-63 0 -97 39.5t-34 101.5q0 61 34 100t97 39z" />
<glyph unicode="&#xfd;" horiz-adv-x="792" d="M469 1251h242v-1601h-242v391q-67 -37 -145 -37q-106 0 -176 78t-70 225v944h241v-889q0 -61 16.5 -89.5t57.5 -28.5q39 0 76 24v983zM356 1673h260l-227 -323h-213z" />
<glyph unicode="&#xfe;" d="M82 1610l242 59v-442q77 41 153 41q106 0 176 -78t70 -225v-678q0 -147 -70 -225t-176 -78q-76 0 -153 41v-375h-242v1960zM406 1028q-40 0 -82 -27v-751q38 -27 82 -27q48 0 61.5 28.5t13.5 90.5v567q0 62 -13.5 90.5t-61.5 28.5z" />
<glyph unicode="&#xff;" horiz-adv-x="792" d="M469 1251h242v-1601h-242v391q-67 -37 -145 -37q-106 0 -176 78t-70 225v944h241v-889q0 -61 16.5 -89.5t57.5 -28.5q39 0 76 24v983zM578 1673q66 0 100.5 -38.5t34.5 -100.5t-34.5 -101.5t-100.5 -39.5q-63 0 -97.5 39.5t-34.5 101.5q0 61 34 100t98 39zM209 1673 q66 0 100.5 -38.5t34.5 -100.5t-34.5 -101.5t-100.5 -39.5q-63 0 -97 39.5t-34 101.5q0 61 34 100t97 39z" />
<glyph unicode="&#x152;" horiz-adv-x="1060" d="M1014 0h-469q-69 -29 -144 -29q-142 0 -235.5 87.5t-93.5 234.5v1018q0 147 93.5 234t235.5 87q77 0 144 -28h469v-242h-279v-416h178v-241h-178v-463h279v-242zM319 1309v-1014q0 -82 82 -82t82 82v1014q0 82 -82 82t-82 -82z" />
<glyph unicode="&#x153;" horiz-adv-x="1130" d="M877 547q-69 -62 -183 -139v-125q0 -33 20.5 -49.5t55.5 -16.5q76 0 76 78v63l219 58v-129q0 -138 -87 -220.5t-218 -82.5q-108 0 -187 57q-82 -57 -190 -57q-134 0 -222.5 82.5t-88.5 220.5v678q0 138 88.5 220.5t222.5 82.5q107 0 190 -58q80 58 189 58 q59 0 110.5 -17.5t97.5 -55t72.5 -105.5t26.5 -160q0 -117 -46 -205.5t-146 -177.5zM307 950v-649q0 -78 76 -78t76 78v660q-6 67 -76 67q-76 0 -76 -78zM694 645q80 65 111 124.5t31 143.5q0 134 -76 134q-63 0 -66 -80v-322z" />
<glyph unicode="&#x178;" horiz-adv-x="819" d="M14 1604h252l146 -504l153 504h240l-268 -854v-750h-252v750zM592 2025q66 0 100.5 -38.5t34.5 -100.5t-34.5 -101.5t-100.5 -39.5q-63 0 -97 39.5t-34 101.5q0 61 34 100t97 39zM223 2025q66 0 100.5 -38.5t34.5 -100.5t-34.5 -101.5t-100.5 -39.5q-63 0 -97 39.5 t-34 101.5q0 61 34 100t97 39z" />
<glyph unicode="&#x2c6;" horiz-adv-x="727" d="M233 1673h259l190 -323h-201l-119 209l-118 -209h-199z" />
<glyph unicode="&#x2dc;" horiz-adv-x="790" d="M135 1411l-90 84q41 84 91.5 125t129.5 41q55 0 100.5 -22t85 -44t80.5 -22t68 21t55 71l90 -84q-41 -84 -92 -125t-121 -41q-50 0 -95 22t-89 44t-90 22q-42 0 -68.5 -20t-54.5 -72z" />
<glyph unicode="&#x2000;" horiz-adv-x="1012" />
<glyph unicode="&#x2001;" horiz-adv-x="2025" />
<glyph unicode="&#x2002;" horiz-adv-x="1012" />
<glyph unicode="&#x2003;" horiz-adv-x="2025" />
<glyph unicode="&#x2004;" horiz-adv-x="675" />
<glyph unicode="&#x2005;" horiz-adv-x="506" />
<glyph unicode="&#x2006;" horiz-adv-x="337" />
<glyph unicode="&#x2007;" horiz-adv-x="337" />
<glyph unicode="&#x2008;" horiz-adv-x="253" />
<glyph unicode="&#x2009;" horiz-adv-x="405" />
<glyph unicode="&#x200a;" horiz-adv-x="112" />
<glyph unicode="&#x2010;" horiz-adv-x="602" d="M43 874h514v-196h-514v196z" />
<glyph unicode="&#x2011;" horiz-adv-x="602" d="M43 874h514v-196h-514v196z" />
<glyph unicode="&#x2012;" horiz-adv-x="602" d="M43 874h514v-196h-514v196z" />
<glyph unicode="&#x2013;" horiz-adv-x="874" d="M43 874h786v-196h-786v196z" />
<glyph unicode="&#x2014;" horiz-adv-x="1320" d="M43 874h1233v-196h-1233v196z" />
<glyph unicode="&#x2018;" horiz-adv-x="356" d="M248 1632h82l-19 -483q-2 -62 -35 -100.5t-96 -38.5q-66 0 -100.5 39t-34.5 98q0 42 29 104z" />
<glyph unicode="&#x2019;" horiz-adv-x="356" d="M283 1399l-174 -381h-82l18 483q2 62 35 100.5t96 38.5q66 0 100.5 -39t34.5 -98q0 -44 -28 -104z" />
<glyph unicode="&#x201a;" horiz-adv-x="356" d="M283 31l-174 -381h-82l18 483q2 62 35 100.5t96 38.5q66 0 100.5 -39t34.5 -98q0 -44 -28 -104z" />
<glyph unicode="&#x201c;" horiz-adv-x="712" d="M604 1632h82l-18 -483q-2 -62 -35 -100.5t-96 -38.5q-66 0 -101 39t-35 98q0 42 29 104zM248 1632h82l-19 -483q-2 -62 -35 -100.5t-96 -38.5q-66 0 -100.5 39t-34.5 98q0 42 29 104z" />
<glyph unicode="&#x201d;" horiz-adv-x="712" d="M639 1399l-174 -381h-82l18 483q2 62 35 100.5t96 38.5q66 0 101 -39t35 -98q0 -42 -29 -104zM283 1399l-174 -381h-82l18 483q2 62 35 100.5t96 38.5q66 0 100.5 -39t34.5 -98q0 -44 -28 -104z" />
<glyph unicode="&#x201e;" horiz-adv-x="712" d="M639 31l-174 -381h-82l18 483q2 62 35 100.5t96 38.5q66 0 101 -39t35 -98q0 -42 -29 -104zM283 31l-174 -381h-82l18 483q2 62 35 100.5t96 38.5q66 0 100.5 -39t34.5 -98q0 -44 -28 -104z" />
<glyph unicode="&#x2022;" horiz-adv-x="651" d="M330 1055q109 0 186.5 -78.5t77.5 -188.5q0 -109 -77.5 -186.5t-186.5 -77.5q-112 0 -188 77t-76 187q0 111 76 189t188 78z" />
<glyph unicode="&#x2026;" horiz-adv-x="1406" d="M700 272q66 0 101 -38.5t35 -100.5t-35 -101.5t-101 -39.5q-63 0 -97 39.5t-34 101.5q0 61 34 100t97 39zM1188 272q66 0 100.5 -38.5t34.5 -100.5t-34.5 -101.5t-100.5 -39.5q-63 0 -97 39.5t-34 101.5q0 61 34 100t97 39zM213 272q66 0 100.5 -38.5t34.5 -100.5 t-34.5 -101.5t-100.5 -39.5q-63 0 -97 39.5t-34 101.5q0 61 34 100t97 39z" />
<glyph unicode="&#x202f;" horiz-adv-x="405" />
<glyph unicode="&#x2039;" horiz-adv-x="479" d="M238 1251h215l-215 -626l215 -625h-215l-213 625z" />
<glyph unicode="&#x203a;" horiz-adv-x="479" d="M25 1251h215l213 -626l-213 -625h-215l215 625z" />
<glyph unicode="&#x205f;" horiz-adv-x="506" />
<glyph unicode="&#x20ac;" horiz-adv-x="837" d="M76 752h69v131h-114l45 135h69v297q0 146 90.5 231.5t235.5 85.5q143 0 227 -85t84 -232v-53h-231v47q0 82 -78 82q-80 0 -80 -82v-291h373l-49 -135h-324v-131h275l-50 -136h-225v-321q0 -82 80 -82q78 0 78 82v16l231 60v-82q0 -144 -92 -231t-229 -87q-136 0 -226 87 t-90 231v327h-114z" />
<glyph unicode="&#x2122;" horiz-adv-x="1079" d="M457 1604h161l113 -668l121 668h149v-963h-133v438l-69 -438h-137l-72 446v-446h-133v963zM43 1604h330v-146h-90v-817h-150v817h-90v146z" />
<glyph unicode="&#x25fc;" horiz-adv-x="1249" d="M0 1249h1249v-1249h-1249v1249z" />
</font>
</defs>
</svg>
