<?xml version="1.0" standalone="no"?>
<!DOCTYPE svg PUBLIC "-//W3C//DTD SVG 1.1//EN" "http://www.w3.org/Graphics/SVG/1.1/DTD/svg11.dtd" >
<svg xmlns="http://www.w3.org/2000/svg">
<metadata></metadata>
<defs>
<font id="questa_grandeitalic" horiz-adv-x="1024" >
<font-face units-per-em="2048" ascent="1536" descent="-512" />
<missing-glyph horiz-adv-x="477" />
<glyph unicode="&#xfb01;" horiz-adv-x="1095" d="M-135 -180l-4 -17q-33 2 -57 -10.5t-35 -35t-16 -45t-5 -46.5q0 -57 36 -89t95 -32q95 0 145.5 102.5t84.5 350.5q41 289 86 893h-142l2 31h142q1 25 8 92q23 226 127.5 354.5t292.5 128.5q127 0 205.5 -48t78.5 -130q0 -72 -75 -110t-195 -23l4 16q44 -3 70.5 21 t34.5 54t8 66q0 59 -34.5 93t-98.5 34q-107 0 -165 -110.5t-79 -370.5l-6 -67h553q0 -83 -56.5 -424.5t-56.5 -395.5q0 -59 39 -59q53 0 107 83.5t65 178.5l31 -6q-11 -76 -43 -144t-90 -115.5t-129 -47.5q-65 0 -107.5 37.5t-42.5 109.5q0 58 51 366t51 386h-374 q-40 -584 -92 -889q-15 -85 -34 -151.5t-51 -131t-73.5 -106.5t-103 -68t-138.5 -26q-114 0 -186 45.5t-72 126.5q0 67 67 104.5t177 24.5z" />
<glyph unicode="&#xfb02;" horiz-adv-x="1114" d="M-133 -180l-4 -17q-33 2 -57 -10.5t-35 -35t-16 -45t-5 -46.5q0 -57 36 -89t95 -32q95 0 145.5 102.5t84.5 350.5q41 289 86 893h-140l2 31h140q1 25 8 92q23 226 152.5 354.5t367.5 128.5q43 0 84.5 -6.5t61.5 -13.5l20 -7h129q0 -140 -94 -714.5t-94 -659.5 q0 -53 38 -53q53 0 107 83.5t65 178.5l31 -6q-16 -121 -87.5 -214t-170.5 -93q-69 0 -111 36.5t-42 114.5q0 82 86 613t88 674q-29 36 -111 36q-160 0 -237.5 -106t-108.5 -371l-8 -67h231l-2 -31h-231q-3 -35 -15.5 -194t-20.5 -248.5t-23 -222.5t-31 -224 q-15 -85 -34 -151.5t-51 -131t-73.5 -106.5t-103 -68t-138.5 -26q-114 0 -186 45.5t-72 126.5q0 67 67 104.5t177 24.5z" />
<glyph unicode="&#xfb03;" horiz-adv-x="1708" d="M-133 -180l-4 -17q-33 2 -57 -10.5t-35 -35t-16 -45t-5 -46.5q0 -57 35.5 -89t93.5 -32q95 0 145.5 99t84.5 340q43 290 86 907h-138l2 31h138l4 47q19 237 113 362t249 125q101 0 152 -50t51 -122q0 -25 -6 -49.5t-12 -36.5l-5 -12l-28 6q20 41 20 92q0 57 -42 98 t-115 41q-63 0 -101 -40t-63 -143t-39 -292l-2 -26h436l8 92q21 226 126 354.5t294 128.5q127 0 206 -48t79 -130q0 -71 -75.5 -109.5t-195.5 -23.5l4 16q44 -3 70.5 21t34.5 54t8 66q0 59 -34.5 93t-98.5 34q-107 0 -165 -110.5t-79 -370.5l-6 -67h553q0 -83 -56.5 -424.5 t-56.5 -395.5q0 -59 39 -59q53 0 107 83.5t65 178.5l31 -6q-11 -76 -43 -144t-90 -115.5t-129 -47.5q-65 0 -107.5 37.5t-42.5 109.5q0 58 51.5 366t51.5 386h-375l-8 -103q-8 -103 -10.5 -130.5t-10 -122.5t-13 -143.5t-14 -125.5t-17 -137t-17.5 -113 q-43 -244 -131.5 -363.5t-233.5 -119.5q-95 0 -139.5 46t-44.5 114q0 31 10 58.5t20 39.5l9 12l29 -14q-4 -4 -10 -11t-16.5 -32t-10.5 -53q0 -59 38 -93t101 -34q86 0 130.5 96.5t78.5 349.5q34 260 82 879h-434q-48 -665 -92 -903q-15 -83 -34 -147.5t-51 -127.5 t-73.5 -103.5t-103 -65.5t-138.5 -25q-114 0 -185 45.5t-71 126.5q0 67 67 104.5t177 24.5z" />
<glyph unicode="&#xfb04;" horiz-adv-x="1726" d="M-133 -180l-4 -17q-33 2 -57 -10.5t-35 -35t-16 -45t-5 -46.5q0 -57 35.5 -89t93.5 -32q95 0 145.5 99t84.5 340q43 290 86 907h-138l2 31h138l4 51q19 237 113 360t249 123q101 0 152 -50t51 -122q0 -25 -6 -49.5t-12 -36.5l-5 -12l-28 6q20 41 20 92q0 57 -42 98 t-115 41q-63 0 -101 -40t-63 -143t-39 -292l-2 -26h438l8 92q21 225 151.5 354t368.5 129q43 0 84.5 -6.5t61.5 -13.5l20 -7h129q0 -140 -94 -714.5t-94 -659.5q0 -53 39 -53q53 0 107 83.5t65 178.5l31 -6q-16 -121 -87.5 -214t-170.5 -93q-69 0 -111.5 37t-42.5 114 q0 82 86 613t88 674q-29 36 -111 36q-160 0 -237.5 -106t-108.5 -371l-8 -67h229l-2 -31h-229q-4 -50 -15.5 -193.5t-19.5 -240.5t-22.5 -225t-30.5 -216q-42 -243 -132 -363t-235 -120q-95 0 -139.5 46t-44.5 114q0 31 10 58.5t20 39.5l9 12l29 -14q-4 -4 -10 -11 t-16.5 -32t-10.5 -53q0 -59 38 -93t101 -34q86 0 130.5 96.5t80.5 349.5q40 283 84 879h-438q-48 -665 -92 -903q-15 -83 -34 -147.5t-51 -127.5t-73.5 -103.5t-103 -65.5t-138.5 -25q-114 0 -185 45.5t-71 126.5q0 67 67 104.5t177 24.5z" />
<glyph horiz-adv-x="0" />
<glyph horiz-adv-x="682" />
<glyph unicode=" "  horiz-adv-x="477" />
<glyph unicode="&#x09;" horiz-adv-x="477" />
<glyph unicode="&#xa0;" horiz-adv-x="477" />
<glyph unicode="!" horiz-adv-x="501" d="M242 395l-31 2q27 208 27 418q0 107 -7.5 244t-7.5 162q0 83 36 121t95 38q48 0 81.5 -30.5t33.5 -85.5q0 -43 -27.5 -128.5t-63 -180.5t-75.5 -249.5t-61 -310.5zM70 113q0 51 34.5 85.5t85.5 34.5t86 -34.5t35 -85.5t-35 -86t-86 -35t-85.5 35t-34.5 86z" />
<glyph unicode="&#x22;" horiz-adv-x="700" d="M242 922h-31q-6 238 2.5 359.5t31.5 165.5t70 44q41 0 57.5 -19t16.5 -55q0 -28 -9.5 -73t-29.5 -108t-34.5 -106.5t-41 -117t-32.5 -90.5zM567 922h-30q-6 238 2.5 359.5t31.5 165.5t70 44q41 0 57.5 -19t16.5 -55q0 -28 -10 -73.5t-29.5 -107t-35 -107t-41 -116.5 t-32.5 -91z" />
<glyph unicode="#" horiz-adv-x="1257" d="M250 -123l104 488h-301l6 30h301l76 355h-315l4 30h317l107 490h29l-105 -490h397l107 490h29l-105 -490h303l-6 -30h-303l-76 -355h320l-6 -30h-320l-104 -488h-31l104 488h-397l-104 -488h-31zM391 395h397l76 355h-397z" />
<glyph unicode="$" horiz-adv-x="993" d="M76 0h-27q31 92 43.5 155.5t30.5 213.5h31q-15 -99 -15 -142q0 -64 50.5 -113.5t144.5 -70.5l65 451q-53 24 -92.5 50t-74.5 62t-53.5 84.5t-18.5 106.5q0 148 88.5 234t238.5 97l25 162h31l-23 -160h10q57 0 109 -10l25 170h30l-26 -176q81 -22 147 -84q46 14 88 86h31 q-57 -84 -90 -342h-31q12 73 12 113q0 151 -161 196l-66 -462q57 -25 97 -49t78.5 -58.5t58.5 -80t20 -101.5q0 -144 -93.5 -231t-246.5 -99l-25 -174h-30l24 172h-24q-53 0 -97 6l-24 -178h-31l25 184q-111 23 -174 90q-26 -13 -41.5 -34t-38.5 -68zM426 692l57 406 q-104 -10 -172.5 -61.5t-68.5 -149.5q0 -65 48 -109.5t136 -85.5zM571 422l-55 -389q114 12 182 65.5t68 139.5q0 61 -50 102.5t-145 81.5zM457 680l112 -47l66 457q-52 10 -105 10h-14zM457 31h28l58 403q-6 3 -49.5 20.5t-65.5 26.5l-63 -444q43 -6 92 -6z" />
<glyph unicode="%" horiz-adv-x="1689" d="M426 0l848 1354h39l-850 -1354h-37zM950 297q0 132 93 223.5t225 91.5q134 0 226.5 -91.5t92.5 -223.5q0 -133 -92.5 -225t-226.5 -92q-132 0 -225 92t-93 225zM1268 10q120 0 203 83.5t83 203.5q0 119 -83 202t-203 83q-118 0 -201.5 -83t-83.5 -202q0 -120 83 -203.5 t202 -83.5zM133 1057q0 132 93 223.5t225 91.5q134 0 226.5 -91.5t92.5 -223.5q0 -133 -92.5 -225.5t-226.5 -92.5q-132 0 -225 92.5t-93 225.5zM451 770q120 0 203 83.5t83 203.5q0 119 -83 201.5t-203 82.5q-119 0 -202 -83t-83 -201q0 -120 83 -203.5t202 -83.5z" />
<glyph unicode="&#x26;" horiz-adv-x="1372" d="M1251 270l31 4q8 -54 8 -69q0 -107 -62 -163t-181 -56q-77 2 -133 25.5t-109 80.5q-150 -106 -330 -106q-177 0 -291 94t-114 242q0 126 94 236.5t272 193.5q-55 158 -55 268q0 151 108 249.5t275 98.5q128 0 212.5 -60t84.5 -151q0 -75 -60.5 -126.5t-150.5 -51.5 q-67 0 -108 33t-44 90l31 4q1 -42 26.5 -66t61.5 -24q47 0 76 43t29 115q0 78 -43.5 122.5t-118.5 44.5q-96 0 -148.5 -62t-52.5 -175q0 -182 154 -514q103 -221 205 -363q96 91 139 170.5t43 165.5q0 92 -50 149.5t-130 57.5q-54 0 -103 -22l-14 26q52 27 117 27 q95 0 152.5 -66t57.5 -172q0 -91 -46.5 -176.5t-149.5 -185.5q61 -89 106.5 -126.5t89.5 -37.5q56 0 93 47.5t37 120.5q0 13 -9 65zM784 115q-119 140 -241 391q-60 120 -99 221q-194 -110 -194 -362q0 -158 71.5 -249t196.5 -91q61 0 135 25t131 65z" />
<glyph unicode="'" horiz-adv-x="374" d="M242 922h-31q-6 238 2.5 359.5t31.5 165.5t70 44q41 0 57.5 -19t16.5 -55q0 -28 -9.5 -73t-29.5 -108t-34.5 -106.5t-41 -117t-32.5 -90.5z" />
<glyph unicode="(" horiz-adv-x="595" d="M455 -449l-25 -20q-62 66 -121.5 157.5t-112.5 205t-85.5 251t-32.5 271.5q0 290 151.5 566.5t403.5 483.5l20 -22q-136 -123 -232.5 -298t-121.5 -378l-45 -389q-12 -108 -12 -219q0 -129 39.5 -262t85 -216t88.5 -131z" />
<glyph unicode=")" horiz-adv-x="595" d="M-55 -469l-21 23q136 123 233 298t122 377l45 389q12 108 12 220q0 129 -39.5 262t-85 215.5t-88.5 130.5l24 20q62 -66 121.5 -157t113 -205t86 -251t32.5 -271q0 -290 -151.5 -567t-403.5 -484z" />
<glyph unicode="*" horiz-adv-x="1146" d="M651 938l27 18q44 -62 99.5 -110t92 -70t62.5 -51.5t26 -65.5q0 -32 -28 -55.5t-60 -23.5q-47 0 -67 36q-13 21 -30.5 74.5t-47 120t-74.5 127.5zM582 961l26 -19q-45 -62 -73.5 -128t-45 -119.5t-28.5 -73.5q-21 -41 -70 -41q-31 0 -58.5 25t-27.5 57q0 34 26 64 t62.5 53.5t91 72.5t97.5 109zM651 1057h-30q0 80 -17.5 148.5t-35 117t-17.5 78.5q0 46 24 68t60 22t59 -22t23 -68q0 -30 -16.5 -78.5t-33 -117t-16.5 -148.5zM360 1036h-61q-139 0 -139 86q0 34 21.5 60t56.5 26q31 0 65.5 -19t65.5 -44t88.5 -57.5t124.5 -53.5l-9 -30 q-97 32 -213 32zM694 997l-8 31q56 18 104.5 43.5t78.5 48t56.5 42.5t51.5 32t51 12q38 0 58 -26t20 -62q0 -57 -62 -76q-20 -6 -48 -8t-56 -1t-66 -1q-90 -4 -180 -35z" />
<glyph unicode="+" horiz-adv-x="1105" d="M528 0v481h-444v31h444v473h31v-473h442v-31h-442v-481h-31z" />
<glyph unicode="," horiz-adv-x="501" d="M-14 -295l4 31q92 0 173 66.5t81 162.5q0 56 -49 96t-150 48q8 58 43.5 93.5t95.5 35.5q71 0 107.5 -45.5t36.5 -114.5q0 -141 -101 -257t-241 -116z" />
<glyph unicode="-" horiz-adv-x="784" d="M113 408l18 149h516l-18 -149h-516z" />
<glyph unicode="." horiz-adv-x="462" d="M51 113q0 51 35 85.5t86 34.5t86 -34.5t35 -85.5t-35 -86t-86 -35t-86 35t-35 86z" />
<glyph unicode="/" horiz-adv-x="817" d="M-76 -463l920 1929l28 -12l-919 -1929z" />
<glyph unicode="0" horiz-adv-x="1032" d="M463 -14q-182 0 -277.5 111t-95.5 296q0 57 8 109q30 217 161 357t321 140q168 0 255 -103t87 -282q0 -171 -51.5 -311.5t-158 -228.5t-249.5 -88zM496 25q78 0 144 36.5t111 96.5t77 138t46.5 159.5t14.5 162.5q0 146 -68.5 242t-193.5 96q-63 0 -115.5 -24t-90 -65 t-65.5 -99.5t-45.5 -123t-27.5 -140.5q-11 -70 -11 -150q0 -148 53 -238.5t171 -90.5z" />
<glyph unicode="1" horiz-adv-x="790" d="M10 0l4 31h250l123 870q-133 -27 -262 -27l4 31q96 0 207.5 19.5t175.5 39.5l63 19l-133 -952h244l-4 -31h-672z" />
<glyph unicode="2" horiz-adv-x="1005" d="M-16 0l4 31q194 110 336 209q191 135 270.5 230t79.5 189q0 82 -51.5 136.5t-165.5 54.5q-125 0 -192.5 -50t-67.5 -130q0 -42 20 -107l-31 -10q-24 71 -24 133q0 133 96.5 223t253.5 90q140 0 229.5 -71.5t89.5 -186.5q0 -33 -9 -65.5t-21.5 -60.5t-39.5 -61t-48 -57 t-63 -59t-69 -56t-81.5 -59.5t-84.5 -58.5l-94.5 -63t-95.5 -64h553q16 42 36 88t32 71l12 26l33 -5q-80 -161 -119 -317h-788z" />
<glyph unicode="3" horiz-adv-x="950" d="M213 33l-2 -17q-55 5 -84 -43.5t-29 -107.5q0 -73 61 -120.5t158 -47.5q76 0 134.5 31.5t91.5 82.5t49 107t16 113q0 119 -68.5 189t-230.5 97v33q93 19 193 70q37 18 57 29t47.5 33t42 45t25 59.5t10.5 81.5q0 83 -49.5 132.5t-175.5 49.5q-116 0 -184 -50.5t-68 -127.5 q0 -44 20 -109l-30 -10q-25 73 -25 133q0 133 96.5 223t255.5 90q140 0 229 -71.5t89 -188.5q0 -50 -19.5 -95.5t-49 -79.5t-77.5 -68.5t-90.5 -58t-103.5 -52.5q55 -9 101 -30.5t84.5 -57.5t60.5 -94t22 -133q0 -182 -129 -291t-334 -109q-153 0 -248.5 58.5t-95.5 142.5 q0 73 68 124.5t182 37.5z" />
<glyph unicode="4" horiz-adv-x="1054" d="M-23 80l5 33l796 880h31q-68 -449 -125 -882h117q27 3 57 76q16 40 66 188h32q-68 -197 -82 -295h-194q-33 -252 -47 -397h-170q15 159 47 397h-533zM20 111h494q31 223 109 665z" />
<glyph unicode="5" horiz-adv-x="944" d="M250 33l-2 -17q-55 5 -84 -43.5t-29 -107.5q0 -73 55.5 -120.5t143.5 -47.5q74 0 133.5 31t95 81.5t54 110t18.5 121.5q0 323 -506 344l133 600h428q30 0 43 0.5t30 4t23 9t14 19t11.5 30.5t7.5 46h31q-11 -80 -21.5 -124t-30.5 -79.5t-51 -48.5t-81 -13h-406l-65 -286 q87 -2 166 -16t157 -46.5t134 -81.5t91 -125.5t35 -173.5q0 -193 -127.5 -311.5t-326.5 -118.5q-144 0 -234 58.5t-90 142.5q0 73 68 124.5t182 37.5z" />
<glyph unicode="6" horiz-adv-x="1112" d="M455 545l-31 4q17 119 89 183.5t177 64.5q141 0 218 -95.5t77 -244.5q0 -196 -134.5 -333.5t-338.5 -137.5q-87 0 -158 28.5t-125.5 87.5t-85 157.5t-30.5 229.5q0 78 11.5 161t37 169t62.5 165.5t91 149.5t119 122t150.5 82t181.5 30q130 0 214.5 -51t84.5 -141 q0 -83 -69.5 -131.5t-178.5 -28.5l4 16q35 -1 59 16t34.5 46t14 51t3.5 43q0 77 -44.5 115t-119.5 38q-109 0 -201 -79t-150 -208t-90 -288t-32 -326q0 -223 53 -325.5t172 -102.5q101 0 173 57.5t105 147.5t33 201q0 134 -57 200t-151 66q-72 0 -114.5 -31t-53.5 -108z" />
<glyph unicode="7" horiz-adv-x="876" d="M367 -289v-16q-53 -25 -121 -25q-53 0 -88 33t-35 86q0 56 67 163t322 472q166 236 272 389q-17 0 -129.5 -2t-160.5 -2q-246 0 -344 6q-9 -49 -21 -101.5t-19 -79.5l-8 -28l-32 2q61 221 69 377q294 -12 426 -12q171 0 350 12v-33l-92 -139q-222 -331 -326.5 -507 t-143 -282.5t-38.5 -211.5q0 -87 52 -101z" />
<glyph unicode="8" horiz-adv-x="1011" d="M412 682q-97 74 -150 151.5t-53 182.5q0 104 57 185.5t150.5 124t204.5 42.5q145 0 224 -79t79 -189q0 -64 -27.5 -122.5t-73.5 -101.5t-89 -72t-91 -52q52 -40 88.5 -74t72.5 -79.5t54.5 -99.5t18.5 -114q0 -82 -37.5 -156.5t-100.5 -127.5t-147.5 -84t-175.5 -31 q-89 0 -165 33t-125.5 102t-49.5 160q0 137 95 238.5t241 162.5zM436 664q-35 -14 -70 -32t-84 -53t-85 -74.5t-62 -98.5t-26 -123q0 -119 88 -193t211 -74q147 0 241 76.5t94 216.5q0 39 -14.5 76t-31 62.5t-55.5 60.5t-60 51t-75 54.5t-71 50.5zM618 770q30 14 60.5 31 t70.5 48t70 65.5t51 83t21 100.5q0 105 -74 172t-188 67q-142 0 -214.5 -67t-72.5 -180q0 -20 4.5 -40t10.5 -36.5t19 -35t23 -31.5t30 -32t32 -29.5t37.5 -29.5t37.5 -28t41.5 -29.5t40.5 -28.5z" />
<glyph unicode="9" horiz-adv-x="1093" d="M268 23l-4 -17q-35 1 -59 -16t-34 -46t-13.5 -51t-3.5 -43q0 -78 43.5 -115.5t119.5 -37.5q88 0 165 49.5t133 134t96 196t60 236.5t20 254q0 213 -53 309.5t-173 96.5q-99 0 -168.5 -55.5t-101 -142.5t-31.5 -195q0 -133 54.5 -200t144.5 -67q73 0 114.5 33t53.5 107 l31 -4q-17 -119 -89.5 -183.5t-177.5 -64.5q-141 0 -218 95.5t-77 244.5q0 192 134.5 325t338.5 133q87 0 158 -27.5t126 -83.5t85.5 -150.5t30.5 -219.5q0 -107 -23 -220.5t-74.5 -226.5t-125.5 -201.5t-186 -144t-245 -55.5q-130 0 -214.5 51.5t-84.5 141.5 q0 83 69.5 131.5t178.5 28.5z" />
<glyph unicode=":" horiz-adv-x="532" d="M94 113q0 51 35 85.5t86 34.5t86 -34.5t35 -85.5t-35 -86t-86 -35t-86 35t-35 86zM168 815q0 51 35 86t86 35t86 -35t35 -86t-35 -86t-86 -35t-86 35t-35 86z" />
<glyph unicode=";" horiz-adv-x="555" d="M12 -295l4 31q92 0 173 66.5t81 162.5q0 56 -48.5 96t-149.5 48q8 58 43 93.5t96 35.5q71 0 107 -45.5t36 -114.5q0 -141 -101 -257t-241 -116zM186 815q0 51 35 86t86 35t86 -35t35 -86t-35 -86t-86 -35t-86 35t-35 86z" />
<glyph unicode="&#x3c;" horiz-adv-x="1105" d="M66 477v31l884 473l15 -29l-861 -460l859 -461l-13 -29z" />
<glyph unicode="=" horiz-adv-x="1105" d="M82 664v30h917v-30h-917zM82 297v31h917v-31h-917z" />
<glyph unicode="&#x3e;" horiz-adv-x="1105" d="M133 2l-12 29l856 461l-858 460l14 29l885 -473v-31z" />
<glyph unicode="?" horiz-adv-x="940" d="M588 526l30 -2q-12 -62 -52 -95.5t-99 -33.5q-71 0 -112.5 38t-41.5 102q0 42 23.5 79.5t60.5 68.5t82 63t90 69.5t82 81.5t60.5 107t23.5 137q0 215 -207 215q-116 0 -179.5 -58t-63.5 -161q0 -117 84 -117q37 0 66.5 25.5t35.5 66.5l31 -2q-10 -56 -50.5 -87.5 t-99.5 -31.5q-93 0 -149 45.5t-56 120.5q0 103 102.5 164t278.5 61q187 0 300.5 -78.5t113.5 -207.5q0 -70 -33 -127t-85 -94t-115.5 -69t-127 -59t-115.5 -55.5t-85 -68.5t-33 -88q0 -53 30.5 -81t88.5 -28q48 0 81 26.5t40 73.5zM268 113q0 51 35 85.5t86 34.5t86 -34.5 t35 -85.5t-35 -86t-86 -35t-86 35t-35 86z" />
<glyph unicode="@" horiz-adv-x="1687" d="M926 -289l4 -30q-97 -9 -131 -9q-211 0 -374 87.5t-253 245t-90 360.5q0 138 42.5 269t120 237t180 186t229.5 124t261 44q292 0 475 -177t183 -458q0 -161 -59.5 -297.5t-159.5 -214.5t-215 -78q-86 0 -134.5 42t-48.5 120q0 6 5 51h-9q-37 -90 -102 -151.5t-162 -61.5 q-53 0 -100 19t-87 57.5t-63.5 105.5t-23.5 154q0 109 26.5 203.5t70.5 161.5t101 115t119 71.5t123 23.5q84 0 127 -35t70 -102q44 21 91.5 59t71.5 78h31q-35 -148 -47 -235l-70 -498q-10 -75 3.5 -105t54.5 -30q65 0 129.5 44.5t114.5 118t81 175.5t31 209 q0 268 -174.5 436t-452.5 168q-162 0 -310.5 -66t-256 -177t-171.5 -264t-64 -320q0 -297 189.5 -480.5t500.5 -183.5q37 0 123 8zM705 31q68 0 123.5 48.5t89 121t57 162.5t32.5 166.5t9 138.5q0 213 -142 213q-98 0 -164.5 -111.5t-101.5 -366.5q-16 -122 -16 -188 q0 -98 27.5 -141t85.5 -43z" />
<glyph unicode="A" horiz-adv-x="1191" d="M-117 0l4 31h41q47 0 83 27.5t69 93.5l602 1210h31l325 -1331h115l-4 -31h-481l4 31h166l-111 463h-444l-170 -342q-28 -56 -3 -88.5t95 -32.5h63l-4 -31h-381zM297 524h424l-137 574z" />
<glyph unicode="B" horiz-adv-x="1236" d="M-2 0l4 31h176l180 1292h-176l4 31h525q115 0 201.5 -26.5t135 -72.5t72 -100.5t23.5 -118.5q0 -118 -104.5 -213.5t-278.5 -128.5v-4q173 -29 263.5 -108t88.5 -189q-3 -184 -145 -288.5t-416 -104.5h-553zM371 31h188q174 0 260 104.5t86 296.5q0 123 -62 184.5 t-196 61.5h-186zM465 709h184q148 0 220.5 100t72.5 266q0 125 -59 186.5t-181 61.5h-151z" />
<glyph unicode="C" horiz-adv-x="1245" d="M1090 389l30 -2q-6 -48 -25 -99.5t-57.5 -106t-90 -97.5t-129 -70.5t-167.5 -27.5q-245 0 -388.5 162t-143.5 423q0 176 52.5 325.5t144.5 252.5t220.5 161t278.5 58q210 0 318 -139q41 1 66 32t48 93h27q-64 -188 -80 -301l-18 -121h-31q14 88 14 117q0 128 -96 208 t-248 80q-92 0 -167 -37.5t-125 -98t-88 -148t-59 -175t-36 -192.5q-18 -120 -18 -233q0 -437 333 -437q91 0 170 32t132.5 85.5t88 119.5t44.5 136z" />
<glyph unicode="D" horiz-adv-x="1417" d="M-4 0l4 31h176l180 1292h-174l4 31h555q151 0 265.5 -40t184.5 -112.5t105 -168.5t35 -214q0 -132 -25.5 -249.5t-83.5 -223t-144 -181.5t-215 -120.5t-288 -44.5h-579zM369 31h217q174 0 295 104t180 291.5t59 445.5q0 451 -387 451h-184z" />
<glyph unicode="E" horiz-adv-x="1193" d="M-4 0l4 31h176l182 1292h-176l4 31h1014q-68 -162 -115 -383h-30l30 221q5 33 6.5 54t-1 36t-6.5 23t-15.5 12t-22.5 5t-32 1h-465l-90 -639h327l25 180h33l-58 -409h-32l28 198h-327l-88 -622h452q70 0 111 65q32 52 86 229q4 13 11 39q9 28 13 42h31q-55 -187 -86 -406 h-989z" />
<glyph unicode="F" horiz-adv-x="1120" d="M-2 0l4 31h174l182 1292h-176l4 31h988q-68 -162 -115 -383h-31l31 221q6 39 6 62.5t-2.5 38t-14.5 21t-24 8t-37 1.5h-438l-90 -639h338l24 180h33l-57 -409h-33l29 198h-338l-88 -622h196l-4 -31h-561z" />
<glyph unicode="G" horiz-adv-x="1345" d="M965 289l34 239h-206l4 31h512l-4 -31h-117l-35 -227q-21 -139 -153 -227t-349 -88q-245 0 -388.5 162t-143.5 423q0 176 52.5 325.5t144.5 252.5t220.5 161t278.5 58q210 0 318 -139q41 1 66 32t48 93h27q-64 -184 -80 -301l-18 -121h-31q14 88 14 117q0 128 -96 208 t-248 80q-92 0 -167 -37.5t-125 -98t-88 -148t-59 -175t-36 -192.5q-18 -120 -18 -233q0 -437 333 -437q132 0 210.5 64t99.5 209z" />
<glyph unicode="H" horiz-adv-x="1591" d="M-4 0l4 31h178l180 1292h-176l4 31h545l-4 -31h-176l-88 -631h700l90 631h-176l4 31h545l-4 -31h-176l-182 -1292h176l-4 -31h-545l4 31h176l90 631h-702l-88 -631h174l-4 -31h-545z" />
<glyph unicode="I" horiz-adv-x="698" d="M-4 0l4 31h178l180 1292h-176l4 31h545l-4 -31h-176l-180 -1292h174l-4 -31h-545z" />
<glyph unicode="J" horiz-adv-x="669" d="M-195 -270l5 30q63 -3 113.5 7.5t86.5 29t64.5 51t46 65t32 81.5t22 90t15.5 100l160 1139h-176l4 31h543l-4 -31h-176l-135 -979q-13 -89 -38 -171.5t-73 -167t-112.5 -145.5t-162 -97.5t-215.5 -32.5z" />
<glyph unicode="K" horiz-adv-x="1298" d="M-2 0l4 31h176l180 1292h-176l4 31h545l-4 -31h-176l-84 -598h74l526 498q26 23 35 45.5t-8 38.5t-62 16h-71l4 31h378l-4 -31h-32q-78 0 -162 -72l-469 -446l469 -774h104l-4 -31h-475l6 31h137l-391 663h-59l-92 -663h176l-4 -31h-545z" />
<glyph unicode="L" horiz-adv-x="1124" d="M-4 0l4 31h176l182 1292h-176l4 31h543l-4 -31h-176l-182 -1292h438q70 0 111 65q32 52 86 229q4 13 11 39q9 28 13 42h31q-55 -187 -86 -406h-975z" />
<glyph unicode="M" horiz-adv-x="1687" d="M-8 0l4 31h61q124 0 140 119l165 1173h-176l4 31h383l238 -1080l526 1080h385l-4 -31h-176l-182 -1292h176l-4 -31h-545l4 31h176l179 1265l-631 -1296h-31l-295 1303l-162 -1153q-17 -119 105 -119h63l-4 -31h-399z" />
<glyph unicode="N" horiz-adv-x="1445" d="M0 0l4 31h59q126 0 142 123l151 1075q-18 29 -26 40t-26 27t-42.5 21.5t-60.5 5.5h-29l4 31h326l626 -1067l129 913q8 61 -15.5 92t-88.5 31h-61l4 31h399l-4 -31h-64q-65 0 -98 -31t-41 -92l-170 -1210h-31l-706 1198l-145 -1034q-8 -62 14.5 -92.5t87.5 -30.5h63 l-4 -31h-397z" />
<glyph unicode="O" horiz-adv-x="1419" d="M653 -14q-144 0 -249 39.5t-167 113t-91 169.5t-29 218q0 97 14 189q15 108 47.5 202.5t88 178t129 143.5t174.5 94.5t221 34.5q276 0 409 -142.5t133 -394.5q0 -137 -26.5 -261t-81.5 -231t-134.5 -185.5t-191.5 -123t-246 -44.5zM637 12q94 0 167.5 34t122.5 90 t85.5 142t57 174.5t36.5 204.5q22 157 22 281q0 191 -72 297t-239 106q-70 0 -128.5 -17.5t-102.5 -47.5t-80 -77t-61.5 -99.5t-46 -122.5t-33.5 -138t-25 -153q-23 -164 -23 -276q0 -91 16 -160.5t52 -124.5t99.5 -84t152.5 -29z" />
<glyph unicode="P" horiz-adv-x="1165" d="M-4 0l4 31h176l180 1292h-174l4 31h490q127 0 221.5 -29t148 -79t78.5 -109.5t25 -128.5q0 -66 -17 -128.5t-56.5 -122t-97 -104t-145.5 -71.5t-196 -27q-18 0 -35 1.5t-25 3.5l-8 1l4 29q31 -4 62 -4q143 0 225 130.5t82 340.5q0 266 -272 266h-121l-180 -1292h192 l-4 -31h-561z" />
<glyph unicode="Q" horiz-adv-x="1415" d="M293 -332h-31q4 35 22.5 67t42 55t66 50t73.5 44t87 45q11 5 16 8q50 25 79 40t75 41.5t74 47.5t67 53.5t64.5 64t55 74.5t49.5 90t38.5 106t30.5 126q26 153 26 329q0 215 -77 323.5t-258 108.5q-89 0 -161 -34t-120.5 -90.5t-83.5 -136.5t-53 -164.5t-27 -182.5 q-1 -16 -6.5 -75t-8.5 -103.5t-3 -85.5q0 -62 5.5 -111t22 -98.5t44 -82t74 -53t110.5 -20.5l-4 -30q-70 0 -135.5 18t-124.5 58t-102.5 99t-69 145.5t-25.5 191.5q0 164 42 304t123 247.5t211 169t294 61.5q139 0 244 -41t169 -115.5t95.5 -172.5t31.5 -218 q0 -92 -16 -174.5t-43 -149t-70 -128t-88.5 -109.5t-108.5 -96.5t-119.5 -85.5t-131.5 -80q-35 -20 -74.5 -40t-89.5 -44t-72 -35q69 15 111 15q75 0 160.5 -23.5t147 -51.5t126 -51.5t102.5 -23.5q62 0 88.5 33.5t32.5 105.5h31q-27 -276 -264 -276q-82 0 -171 32.5 t-152 71t-134 71t-121 32.5q-68 0 -122 -39t-64 -107z" />
<glyph unicode="R" horiz-adv-x="1269" d="M-4 0l4 31h176l180 1292h-174l4 31h523q211 0 319.5 -81t108.5 -231q0 -142 -106 -243t-304 -129v-8q246 -74 262 -318q3 -38 3.5 -92.5t2 -86.5t6 -64t18 -47t36.5 -15q35 0 70 45t57 154l32 -7q-27 -129 -77.5 -184t-135.5 -55q-41 0 -73.5 10t-54 26t-36.5 41 t-23.5 51.5t-13.5 61.5t-7 65.5t-4 69.5q-1 18 -1 27q-2 42 -4.5 70t-8 64t-14 59.5t-23 48.5t-34 39.5t-48 24t-64.5 9.5h-135l-88 -628h176l-4 -31h-545zM461 690h180q77 0 135 29t93.5 82t53 123.5t17.5 158.5q0 117 -49.5 178.5t-167.5 61.5h-174z" />
<glyph unicode="S" horiz-adv-x="1107" d="M92 0h-26q44 220 49 254l28 201h33q-20 -127 -20 -181q0 -116 99 -187t261 -71q155 0 251.5 67t96.5 187q0 37 -9.5 65t-30.5 52.5t-58 50.5t-87.5 55.5t-123.5 69.5q-5 3 -8 4q-78 40 -129.5 71t-99 69t-73.5 76.5t-41.5 87.5t-15.5 108q0 177 117 283t309 106 q113 0 193.5 -36t122.5 -89q66 14 98 111h27q-62 -180 -78 -287l-21 -131h-30q16 117 16 145q0 118 -87.5 187t-236.5 69q-147 0 -236 -66.5t-89 -183.5q0 -97 58 -148.5t245 -149.5q25 -14 39 -21q48 -24 77.5 -40t69 -40.5t63.5 -45t50.5 -49.5t40.5 -59t23.5 -68.5 t9.5 -82.5q0 -179 -124.5 -288t-330.5 -109q-121 0 -212 38.5t-136 90.5q-51 -26 -74 -115z" />
<glyph unicode="T" horiz-adv-x="1239" d="M272 0l4 31h177l182 1292h-285q-21 0 -37 -3.5t-28 -8t-23 -18.5t-18.5 -23.5t-17.5 -36t-16.5 -43.5t-19.5 -57l-55 -162h-31q56 184 74 383h1114q-17 -88 -31 -184t-19 -148l-5 -51h-31l8 162q6 112 -17 151t-95 39h-275l-182 -1292h176l-4 -31h-545z" />
<glyph unicode="U" horiz-adv-x="1472" d="M244 655l92 668h-176l4 31h547l-4 -31h-177l-94 -666q-30 -209 -30 -286q0 -58 7 -105.5t27.5 -95.5t54.5 -80.5t92 -53t136 -20.5q207 0 328.5 129.5t152.5 348.5l99 706q8 61 -16 92t-89 31h-61l4 31h397l-4 -31h-64q-65 0 -97 -31t-40 -92l-96 -694 q-15 -111 -50.5 -200t-96.5 -163.5t-159 -115.5t-226 -41q-237 0 -363.5 119.5t-126.5 314.5q0 34 3 62.5t12 83.5t14 89z" />
<glyph unicode="V" horiz-adv-x="1290" d="M563 -8l-348 1331h-164l4 31h539l-4 -31h-176l280 -1073q25 44 100.5 175t103.5 181t83.5 154.5t80.5 164t51.5 136t37.5 139.5q22 123 -104 123h-62l4 31h381l-4 -31h-43q-65 0 -96.5 -30.5t-42.5 -92.5q-16 -85 -49 -176.5t-93.5 -211.5t-115 -219.5t-157 -282.5 t-175.5 -318h-31z" />
<glyph unicode="W" horiz-adv-x="1992" d="M563 -8l-348 1331h-164l4 31h541l-4 -31h-178l280 -1069l332 635l-113 434h-163l4 31h538l-4 -31h-176l281 -1073q22 39 100 174.5t104 182t82.5 153.5t80.5 164.5t51 135t38 140.5q22 123 -104 123h-62l5 31h380l-4 -31h-43q-65 0 -96.5 -30.5t-42.5 -92.5 q-16 -85 -49 -176.5t-93.5 -211.5t-115 -219.5t-157 -282.5t-175.5 -318h-30l-224 848l-444 -848h-31z" />
<glyph unicode="X" horiz-adv-x="1263" d="M-41 0l4 31h66q45 0 77 25t87 96l372 493l-313 678h-158l4 31h535l-4 -31h-166l250 -541l323 430q38 47 21 79t-86 32h-51l4 31h379l-5 -31h-67q-45 0 -77 -25t-87 -96l-340 -450l336 -721h154l-5 -31h-528l4 31h162l-270 581l-357 -471q-38 -47 -20.5 -78.5t86.5 -31.5 h51l-4 -31h-377z" />
<glyph unicode="Y" horiz-adv-x="1230" d="M276 0l5 31h176l45 309q24 166 -7 333t-101.5 318.5t-188.5 331.5h-142l5 31h536l-4 -31h-178q123 -164 194.5 -363t85.5 -413q46 168 151 344t226 317q23 26 28 52t-14.5 44.5t-64.5 18.5h-82l4 31h379l-4 -31h-41q-18 0 -36.5 -7t-30 -13t-33.5 -27.5t-30 -31 t-38 -42.5q-93 -104 -172 -219.5t-149.5 -273t-92.5 -306.5l-53 -372h178l-4 -31h-547z" />
<glyph unicode="Z" horiz-adv-x="1220" d="M-14 0l4 33l1009 1290h-593q-25 0 -43 -5.5t-33.5 -22t-26 -31.5t-23.5 -51.5t-21 -62.5t-25 -83.5t-29 -97.5h-31q39 178 68 385h991l-4 -33l-1018 -1290h645q70 0 111 65q32 52 86 229q4 13 11 39q9 28 13 42h31q-55 -187 -86 -406h-1036z" />
<glyph unicode="[" horiz-adv-x="602" d="M57 -467l240 1937h375l-4 -30h-217l-232 -1876h217l-4 -31h-375z" />
<glyph unicode="\" horiz-adv-x="845" d="M618 -471l-442 1935l31 6l442 -1935z" />
<glyph unicode="]" horiz-adv-x="602" d="M-88 -467l4 31h217l232 1876h-218l5 30h374l-239 -1937h-375z" />
<glyph unicode="^" horiz-adv-x="1028" d="M63 420l429 934h30l422 -934h-35l-403 889l-408 -889h-35z" />
<glyph unicode="_" horiz-adv-x="1208" d="M16 -31v31h1024v-31h-1024z" />
<glyph unicode="`" d="M618 1075l-26 -14q-37 70 -86 134.5t-84.5 100t-60.5 73t-25 69.5q0 30 23 52.5t55 22.5q43 0 66.5 -36t33.5 -88.5t36.5 -143.5t67.5 -170z" />
<glyph unicode="a" horiz-adv-x="1083" d="M637 236h-8q-137 -250 -299 -250q-127 0 -198 97t-71 263q1 164 63 300t169 213t235 77q176 0 250 -145q105 74 146 145h30q-58 -175 -102.5 -428.5t-44.5 -401.5q0 -36 8 -49.5t29 -13.5q53 0 107 80.5t69 181.5l31 -6q-22 -136 -96.5 -221.5t-170.5 -85.5 q-72 0 -114.5 39.5t-42.5 113.5q0 43 10 91zM358 23q42 0 90 34t93 95q74 100 125 248.5t51 279.5q0 109 -44.5 167t-127.5 58q-87 0 -155.5 -88t-107 -245t-38.5 -353q0 -107 26 -151.5t88 -44.5z" />
<glyph unicode="b" horiz-adv-x="1062" d="M84 -14h-31q11 46 78 428q43 251 76.5 493.5t45.5 356t17 176.5h-137l2 30h318q-19 -237 -52.5 -465.5t-58.5 -318.5h8q31 55 62.5 96t71.5 78t88.5 56.5t103.5 19.5q138 0 217.5 -89.5t79.5 -264.5q0 -166 -62.5 -302t-175 -215t-252.5 -79q-177 0 -262 147 q-93 -64 -137 -147zM385 684q-50 -99 -76 -214t-26 -206q0 -248 196 -248q67 0 121.5 41t89 106.5t58 151t33.5 170t10 168.5q0 129 -28.5 188.5t-103.5 59.5q-76 0 -146 -59t-128 -158z" />
<glyph unicode="c" horiz-adv-x="858" d="M711 250l30 -4q-19 -110 -102.5 -185t-218.5 -75q-158 0 -256 98t-98 287q0 80 16 158t51.5 152t87 130.5t128.5 90.5t169 34q127 0 213 -57t86 -142q0 -54 -36.5 -99.5t-108.5 -45.5q-48 0 -92 16l4 17q12 -4 22 -4q35 0 59.5 44.5t24.5 98.5q0 63 -42.5 104t-117.5 41 q-52 0 -95.5 -26t-72.5 -67.5t-51 -99.5t-34.5 -115.5t-20 -122t-10 -112.5t-2.5 -94q0 -138 46 -196t148 -58q92 0 172.5 60t100.5 172z" />
<glyph unicode="d" horiz-adv-x="1101" d="M668 254h-9q-31 -57 -61 -99.5t-71 -83.5t-93.5 -63t-111.5 -22q-120 0 -192.5 89.5t-72.5 248.5q0 112 39 223t103.5 197t156 139t189.5 53q87 0 135 -41t65 -104q12 100 34.5 248.5t36 250t13.5 150.5h-137l2 30h318q0 -132 -91.5 -689.5t-91.5 -657.5q0 -46 8 -63 t29 -17q54 0 107 82.5t65 179.5l31 -6q-17 -122 -86 -214.5t-176 -92.5q-150 0 -150 155q0 35 11 107zM350 20q68 0 136.5 56.5t125.5 154.5q61 106 90 226.5t29 210.5q0 110 -42.5 171.5t-123.5 61.5q-69 0 -125.5 -46.5t-92 -118.5t-60.5 -163.5t-35 -177t-10 -164.5 q0 -106 24.5 -158.5t83.5 -52.5z" />
<glyph unicode="e" horiz-adv-x="864" d="M709 250l30 -4q-19 -110 -102.5 -185t-218.5 -75q-158 0 -256.5 98t-98.5 287q0 84 18 164t57 153t94.5 128t136 87.5t176.5 32.5q117 0 189.5 -47.5t72.5 -138.5q0 -43 -18.5 -78.5t-45.5 -58.5t-69.5 -44t-76.5 -32.5t-82.5 -27t-72.5 -24.5q-139 -55 -196 -110 q-4 -70 -4 -103q0 -138 46 -196t148 -58q92 0 172.5 60t100.5 172zM250 418q61 48 174 94q48 19 82.5 40t66.5 53.5t49 80t17 109.5q0 61 -23.5 87.5t-72.5 26.5q-58 0 -109 -42t-87 -113t-60.5 -156.5t-36.5 -179.5z" />
<glyph unicode="f" horiz-adv-x="573" d="M-133 -180l-4 -17q-33 2 -57 -10.5t-35 -35t-16 -45t-5 -46.5q0 -57 36 -89t95 -32q95 0 145.5 102.5t84.5 350.5q41 289 86 893h-140l2 31h140l8 92q48 483 399 483q113 0 188.5 -48.5t75.5 -129.5q0 -72 -69 -110t-180 -23l4 16q44 -3 70.5 21t34 54t7.5 66 q0 58 -36.5 92.5t-94.5 34.5q-104 0 -154.5 -108t-70.5 -373l-6 -67h229l-2 -31h-229q-40 -584 -92 -889q-15 -85 -34 -151.5t-51 -131t-73.5 -106.5t-103 -68t-138.5 -26q-114 0 -186 45.5t-72 126.5q0 67 67 104.5t177 24.5z" />
<glyph unicode="g" horiz-adv-x="956" d="M207 -125l-2 -16q-45 0 -75 -41.5t-30 -102.5q0 -46 23 -80t64.5 -52t89.5 -26t106 -8q165 0 281 57.5t116 147.5q0 78 -104 114q-62 21 -252 46q-20 2 -33 4q-45 6 -75.5 11t-74.5 14.5t-73 19.5t-62 27t-52.5 37.5t-32.5 49t-13 62.5q0 135 201 254q-74 71 -74 199 q0 154 105 249t286 95q165 0 252 -84q86 27 86 129q0 98 -82 98l-4 17q111 7 158 -27.5t47 -85.5q0 -101 -184 -154q57 -69 57 -180q0 -158 -111 -246t-288 -88q-142 0 -221 58q-152 -88 -152 -160q0 -51 69 -72t277 -49q57 -7 93.5 -13t84 -17t78 -23t63 -32t51 -44.5 t30.5 -59t12 -77.5q0 -65 -25.5 -117.5t-69.5 -87t-104 -58t-126 -34t-140 -10.5q-182 0 -292 60t-110 151q0 76 65 116.5t167 28.5zM453 344q108 0 167.5 92.5t59.5 245.5q0 124 -32 174.5t-113 50.5q-103 0 -163.5 -93.5t-60.5 -248.5q0 -120 30.5 -170.5t111.5 -50.5z " />
<glyph unicode="h" horiz-adv-x="1124" d="M244 0h-176q32 236 86.5 578t85 554t30.5 308h-137l2 30h320q-2 -202 -148 -1017h8q60 168 123 268q136 215 303 215q203 0 203 -201q0 -102 -52 -324.5t-52 -314.5q0 -28 11.5 -40.5t27.5 -12.5q54 0 108.5 84t63.5 178l30 -6q-16 -121 -87.5 -214t-170.5 -93 q-69 0 -111 36.5t-42 114.5q0 67 54 302t54 333q0 113 -76 113q-121 0 -237 -186q-82 -131 -140.5 -325.5t-80.5 -379.5z" />
<glyph unicode="i" horiz-adv-x="563" d="M492 305l30 -6q-11 -76 -43 -144t-90 -115.5t-129 -47.5q-64 0 -106.5 37t-42.5 110q0 58 51 366t51 386h-137l2 31h315q0 -83 -56 -424.5t-56 -395.5q0 -59 38 -59q53 0 107.5 83.5t65.5 178.5zM236 1264q0 46 33 79t79 33t79.5 -33t33.5 -79t-33.5 -79.5t-79.5 -33.5 t-79 33.5t-33 79.5z" />
<glyph unicode="j" horiz-adv-x="497" d="M-242 -467l4 31q42 -10 78 -10q113 0 168 112t98 420l113 805h-137l2 31h313l-118 -848q-15 -109 -46 -203.5t-80 -174.5t-122.5 -126.5t-163.5 -46.5q-60 0 -109 10zM238 1264q0 46 33 79t79 33t79.5 -33t33.5 -79t-33.5 -79.5t-79.5 -33.5t-79 33.5t-33 79.5z" />
<glyph unicode="k" horiz-adv-x="1001" d="M242 0h-174q32 228 87.5 583t85 565.5t29.5 291.5h-137l2 30h318q0 -51 -12 -156t-27 -204.5t-41 -274t-41 -278.5h63q66 121 158 229q68 80 124.5 115t117.5 35q66 0 107.5 -34t41.5 -93q0 -30 -11.5 -58t-36.5 -54t-74 -37.5t-115 -2.5l4 17q54 -1 79 36.5t25 94.5 q0 40 -17.5 62t-49.5 22q-63 0 -158.5 -106.5t-159.5 -225.5q39 -2 71 -9t56 -17t43 -27.5t32 -33t23.5 -41.5t16 -45t11 -52t7.5 -53.5t6 -58t6 -58.5q7 -66 16 -92.5t32 -26.5q38 0 77 47t62 107.5t26 107.5l31 -6q-17 -122 -86 -214.5t-174 -92.5q-39 0 -68.5 15.5 t-46.5 38.5t-29 62t-17.5 73t-10.5 85q-3 31 -4 45t-4.5 42t-7 41t-9.5 35.5t-13 33.5t-18 25.5t-23.5 21t-30 11.5t-37.5 5h-39q-77 -461 -86 -526z" />
<glyph unicode="l" horiz-adv-x="542" d="M473 305l31 -6q-16 -121 -87.5 -214t-170.5 -93q-69 0 -111.5 37t-42.5 114q0 82 87 620.5t87 676.5h-137l2 30h320q0 -140 -94.5 -714.5t-94.5 -659.5q0 -28 11.5 -40.5t27.5 -12.5q53 0 107 83.5t65 178.5z" />
<glyph unicode="m" horiz-adv-x="1734" d="M268 0h-176q18 117 43.5 280.5t35.5 226.5t21.5 149.5t15 135.5t3.5 99h-137l2 31h319q0 -29 -3 -66t-5.5 -63.5t-11 -80.5t-12 -75.5t-16 -93t-15.5 -90.5h8q52 155 123 268q132 215 313 215q88 0 138.5 -47t50.5 -148q0 -37 -6.5 -79.5t-20.5 -108t-20 -100.5h8 q53 158 121 268q134 215 317 215q89 0 139.5 -50t50.5 -159q0 -90 -52 -316.5t-52 -299.5q0 -39 9 -53.5t28 -14.5q54 0 108 81t66 181l31 -6q-11 -76 -42.5 -143.5t-90.5 -115.5t-132 -48q-64 0 -105.5 37.5t-41.5 115.5q0 64 54.5 299.5t54.5 331.5q0 62 -18 88.5 t-60 26.5q-123 0 -238 -186q-82 -133 -140.5 -328.5t-78.5 -376.5h-176q29 184 62.5 375t46 272.5t12.5 130.5q0 60 -19.5 86.5t-60.5 26.5q-118 0 -230 -186q-81 -133 -140.5 -327t-80.5 -378z" />
<glyph unicode="n" horiz-adv-x="1148" d="M268 0h-176q18 117 43.5 280.5t35.5 226.5t21.5 149.5t15 135.5t3.5 99h-137l2 31h319q0 -29 -3 -66t-5.5 -63.5t-11 -80.5t-12 -75.5t-16 -93t-15.5 -90.5h8q60 168 123 268q136 215 303 215q203 0 203 -201q0 -102 -52.5 -324.5t-52.5 -314.5q0 -28 11.5 -40.5 t27.5 -12.5q53 0 107 83.5t65 178.5l31 -6q-16 -121 -87.5 -214t-170.5 -93q-69 0 -111.5 37t-42.5 114q0 67 54.5 302t54.5 333q0 113 -76 113q-122 0 -238 -186q-82 -131 -140.5 -325.5t-80.5 -379.5z" />
<glyph unicode="o" d="M66 362q0 58 8 107q30 222 146.5 344.5t320.5 122.5q198 0 293.5 -96t95.5 -273q0 -272 -133.5 -426.5t-345.5 -154.5q-190 0 -287.5 100.5t-97.5 275.5zM434 12q133 0 199.5 102.5t99.5 344.5q17 133 17 200q0 128 -44.5 189t-144.5 61q-132 0 -199.5 -101t-99.5 -345 q-16 -122 -16 -197q0 -130 44 -192t144 -62z" />
<glyph unicode="p" horiz-adv-x="1060" d="M-113 -467l2 31h138q18 140 67 452.5t85 557t36 317.5h-137l2 31h315q0 -97 -30 -254h8q31 57 60.5 99t70.5 83.5t93.5 63.5t113.5 22q120 0 192 -89.5t72 -248.5q0 -112 -39 -223t-103.5 -197t-156 -139t-189.5 -53q-88 0 -136.5 40.5t-65.5 104.5q-67 -428 -78 -567 h137l-2 -31h-455zM467 20q69 0 125.5 46.5t92.5 118.5t60.5 163.5t35 177t10.5 164.5q0 106 -24 158.5t-81 52.5q-81 0 -155.5 -67.5t-123 -167t-77.5 -210.5t-29 -202q0 -110 42.5 -172t123.5 -62z" />
<glyph unicode="q" horiz-adv-x="1060" d="M772 -436h137l-2 -31h-317q20 228 49.5 430.5t52.5 272.5h-8q-31 -55 -62.5 -96t-71.5 -78t-88.5 -56.5t-103.5 -19.5q-138 0 -217.5 89.5t-79.5 264.5q0 166 62.5 302t175 215t252.5 79q176 0 260 -150q99 73 139 150h31q-11 -46 -78 -428q-100 -525 -131 -944zM649 238 q51 99 77 214t26 205q0 248 -197 248q-83 0 -146 -61t-97.5 -159t-51 -204t-16.5 -213q0 -130 28 -189t103 -59t145.5 59.5t128.5 158.5z" />
<glyph unicode="r" horiz-adv-x="829" d="M266 0h-176q82 514 103.5 665.5t21.5 225.5h-137l2 31h313q0 -59 -9 -121.5t-48 -282.5h8q91 236 166.5 327t181.5 91q72 0 114 -37t42 -100q0 -86 -67 -129t-181 -31l4 16q48 -2 77.5 39t29.5 109q0 38 -19.5 64t-48.5 26q-49 0 -108.5 -73t-112.5 -197 q-67 -152 -109 -363q-43 -192 -47 -260z" />
<glyph unicode="s" horiz-adv-x="858" d="M217 279l-4 -17q-26 -3 -40.5 -28.5t-14.5 -65.5q0 -73 54 -112.5t150 -39.5q115 0 190 47t75 121q0 38 -16 67t-55 54.5t-65.5 38t-86.5 37.5q-13 5 -19 8q-60 26 -97 45.5t-80 53t-64 78t-21 100.5q0 123 94.5 196.5t253.5 73.5q133 0 225 -48.5t92 -119.5 q0 -66 -57 -100t-145 -23l4 17q31 0 49 28.5t18 77.5q0 137 -192 137q-108 0 -176 -42.5t-68 -112.5q0 -43 35.5 -79t66.5 -51t109 -47q15 -7 23 -10q47 -19 79.5 -34.5t71.5 -41.5t62.5 -54.5t40 -70t16.5 -90.5q0 -132 -101 -209t-270 -77q-148 0 -241 48.5t-93 125.5 q0 63 54 95.5t143 23.5z" />
<glyph unicode="t" horiz-adv-x="634" d="M535 299l30 -6q-16 -121 -92 -214t-184 -93q-79 0 -126.5 36.5t-47.5 114.5q0 46 10 121.5t39.5 265.5t54.5 367h-137l6 31q74 3 122 19.5t85.5 58t63.5 96t59 151.5h31q-40 -200 -52 -325h250l-6 -31h-248q-10 -72 -24.5 -172t-23 -159t-19.5 -133.5t-17 -119.5 t-11.5 -90.5t-8 -73t-2.5 -43.5q0 -63 57 -63q60 0 120 83.5t71 178.5z" />
<glyph unicode="u" horiz-adv-x="1148" d="M78 891l4 31h315q-2 -81 -56 -383t-54 -398q0 -60 18.5 -85t61.5 -25q49 0 96.5 32t84 79.5t70 111t55 116.5t38.5 105q55 171 100 447h176q-18 -115 -43.5 -272.5t-39.5 -244t-25 -170t-11 -122.5q0 -70 39 -70q53 0 106.5 82t65.5 180l31 -6q-19 -126 -89.5 -216.5 t-172.5 -90.5q-67 0 -108.5 37.5t-41.5 117.5q0 47 23.5 166t28.5 156h-9q-19 -55 -36 -97.5t-46 -104t-61.5 -106.5t-73.5 -87.5t-92 -65t-108 -22.5q-95 0 -154 47t-59 147q0 65 50 338t54 373h-137z" />
<glyph unicode="v" horiz-adv-x="1001" d="M49 623l-31 6q20 131 90 219t177 88q153 0 153 -209q0 -70 -30.5 -259.5t-30.5 -289.5q0 -79 16.5 -113t57.5 -34q70 0 161 80.5t172 228.5q105 193 105 322q0 69 -38 109t-103 40q-40 0 -65.5 -17.5t-35.5 -66.5l-16 4q-2 96 35 150.5t112 54.5q83 0 122.5 -60.5 t39.5 -142.5q0 -79 -35.5 -192t-91.5 -217q-83 -154 -189.5 -246t-232.5 -92q-190 0 -190 223q0 74 31.5 289.5t31.5 296.5q0 51 -9.5 70.5t-31.5 19.5q-56 0 -109 -82t-65 -180z" />
<glyph unicode="w" horiz-adv-x="1513" d="M47 623l-31 6q20 131 90 219t177 88q153 0 153 -209q0 -70 -30.5 -260t-30.5 -289q0 -77 14.5 -112t46.5 -35q67 0 150 116q61 85 99 182t69 226q28 209 69 367h174q-40 -166 -72 -371.5t-32 -357.5q0 -90 16 -126t58 -36q69 0 157.5 80t169.5 229q105 193 105 319 q0 69 -39 110.5t-103 41.5q-40 0 -65 -17.5t-35 -66.5l-16 4q-2 98 35 151.5t112 53.5q83 0 122.5 -60.5t39.5 -142.5q0 -80 -35 -192.5t-92 -218.5q-84 -157 -190 -246.5t-230 -89.5q-184 0 -184 204q0 38 6 85t12 75l6 27h-8q-47 -142 -125 -250q-51 -68 -104.5 -104.5 t-120.5 -36.5q-80 0 -133 56t-53 171q0 67 31.5 284t31.5 298q0 51 -9.5 70.5t-31.5 19.5q-56 0 -109 -82t-65 -180z" />
<glyph unicode="x" horiz-adv-x="1050" d="M201 272l-4 -16q-41 -4 -69 -43.5t-28 -89.5q0 -39 17 -61.5t43 -22.5q103 0 268 403q-29 216 -68.5 316t-95.5 100q-53 0 -90.5 -69t-52.5 -166l-31 6q25 149 92 228t170 79q35 0 63.5 -10t49 -27t36.5 -44t26.5 -56.5t19.5 -69.5t15 -77t13 -85q3 -23 5 -35 q84 197 153 295q39 55 79 82t93 27q63 0 104.5 -34.5t41.5 -92.5q0 -29 -12 -55.5t-37 -50t-70.5 -36.5t-106.5 -12l4 17q40 4 66.5 43t26.5 88q0 40 -17 63t-43 23q-33 0 -69.5 -36t-74 -103.5t-66.5 -130t-64 -146.5q35 -226 67 -318t90 -92t102 76.5t56 165.5l31 -6 q-8 -55 -28 -107t-51.5 -98t-80.5 -74t-108 -28q-33 0 -61 8.5t-49 26.5t-37 37.5t-28 50.5t-20 55t-14.5 62.5t-9.5 61.5t-8 62q-2 17 -3 25q-97 -211 -147 -281q-39 -55 -79 -81.5t-93 -26.5q-62 0 -104 34t-42 91q0 66 57 112t173 43z" />
<glyph unicode="y" horiz-adv-x="1003" d="M139 -193l-4 -16q-43 1 -64.5 -33.5t-21.5 -85.5q0 -60 33.5 -94.5t99.5 -34.5q80 0 135 50.5t79 130.5t24 182q0 153 -42 372.5t-99 409.5q-29 103 -52 136.5t-49 33.5q-48 0 -87 -70.5t-54 -164.5l-31 6q23 146 91.5 226.5t160.5 80.5q51 0 88 -29t66 -92 q59 -132 104 -343.5t49 -375.5q115 106 207 252q119 193 119 311q0 68 -37.5 110t-101.5 42q-42 0 -69 -17t-34 -67l-16 4q-3 96 34.5 150.5t112.5 54.5q57 0 95 -32.5t52.5 -78t14.5 -100.5q0 -169 -143 -393q-107 -166 -234 -277q-2 -151 -46 -271t-133.5 -193.5 t-211.5 -73.5q-102 0 -178 46.5t-76 117.5q0 24 9.5 45.5t32 43t68 32t109.5 5.5z" />
<glyph unicode="z" horiz-adv-x="919" d="M-8 -12l-29 14q39 64 88.5 125t117 125.5t111.5 104t128 110.5q6 5 30.5 26.5t31 27t28.5 24.5t30.5 26.5t27.5 24.5t28.5 26t26 24t27.5 26l24.5 24.5t25.5 26.5q-67 2 -213.5 28.5t-222.5 26.5q-29 0 -46 -2.5t-32.5 -11t-20.5 -25.5t-4 -46t11 -72l-35 -7 q-12 52 -15 96.5t7.5 87t36 72.5t73 48t115.5 18q73 0 233 -29t240 -30q39 61 49 79l31 -12q-34 -61 -79 -121t-79.5 -99.5t-100.5 -100.5t-95 -86.5t-111 -94.5q-189 -158 -266 -237q67 -4 224 -45t241 -41q76 0 111.5 34t80.5 154l31 -6q-21 -58 -37.5 -96.5t-38 -77.5 t-45 -62.5t-55 -43t-71 -27.5t-89.5 -8q-91 0 -253.5 34t-225.5 37q-24 -35 -45 -69z" />
<glyph unicode="{" horiz-adv-x="671" d="M471 -332l31 -6q-12 -62 -57.5 -100.5t-112.5 -38.5q-95 0 -147 61.5t-52 177.5q0 91 50 266t50 265q0 103 -42 157t-121 54h-64l2 31h64q105 0 170 85.5t65 229.5q0 32 -7 104t-7 117q0 179 75.5 291.5t194.5 112.5q66 0 104 -40t38 -108h-31q0 56 -28 86.5t-79 30.5 q-66 0 -102.5 -55.5t-36.5 -145.5q0 -65 32 -159t32 -160q0 -152 -96.5 -265t-243.5 -141q113 -25 180 -112.5t67 -219.5q0 -61 -15.5 -114.5t-37.5 -94t-44.5 -80.5t-38 -91.5t-15.5 -108.5q0 -70 27 -104.5t73 -34.5q44 0 77.5 29.5t45.5 80.5z" />
<glyph unicode="|" horiz-adv-x="456" d="M205 -467v1937h28v-1937h-28z" />
<glyph unicode="}" horiz-adv-x="669" d="M-51 -330h31q0 -56 28 -86t76 -30q68 0 104.5 58t36.5 148q0 67 -31.5 172t-31.5 174q0 155 96.5 270.5t243.5 143.5q-119 25 -183.5 101.5t-64.5 197.5q0 58 15.5 110t38 92t45 79t38 89.5t15.5 106.5q0 144 -99 144q-45 0 -79 -29.5t-46 -81.5l-30 6q13 62 57 101 t119 39q90 0 141 -59.5t51 -174.5q0 -89 -50 -253.5t-50 -252.5q0 -99 42.5 -149.5t121.5 -50.5h63l-2 -31h-63q-105 0 -170.5 -89t-65.5 -235q0 -37 7 -114t7 -121q0 -182 -76 -302t-194 -120q-66 0 -103.5 39.5t-37.5 107.5z" />
<glyph unicode="~" horiz-adv-x="1218" d="M143 422l-20 22q133 115 270 115q86 0 199 -67q2 -1 19 -10.5t20.5 -11.5t19 -10.5t21 -10.5t19.5 -8.5t21 -8.5t20 -6t22.5 -5.5t21.5 -3t23 -1.5q66 0 131.5 30t116.5 74l20 -22q-130 -113 -274 -113q-36 0 -75 11.5t-62.5 23.5t-63.5 35q-40 24 -65.5 36.5t-64.5 24.5 t-75 12q-122 0 -244 -106z" />
<glyph unicode="&#xa1;" horiz-adv-x="473" d="M215 524l31 -2q-27 -208 -27 -418q0 -107 7 -243.5t7 -161.5q0 -83 -36 -121.5t-95 -38.5q-48 0 -81 31t-33 86q0 43 27.5 128.5t63 180t75.5 249t61 310.5zM387 807q0 -51 -35 -86t-86 -35t-86 35t-35 86t35 86t86 35t86 -35t35 -86z" />
<glyph unicode="&#xa2;" horiz-adv-x="985" d="M420 -172l22 160q-164 8 -259 103.5t-95 283.5q0 59 8 114q33 239 160.5 361t323.5 127l22 160h31l-23 -160q138 -4 225 -60.5t87 -138.5q0 -58 -43.5 -107.5t-116.5 -49.5q-23 0 -44 4.5t-30 8.5l-10 5v16q12 -4 18 -4q36 0 62 46t26 104q0 66 -47 107.5t-125 41.5h-6 l-131 -936h12q37 0 82 12t95 37t87 75t46 116h32q-16 -113 -113.5 -190.5t-240.5 -77.5h-4l-20 -158h-31zM446 16l129 932q-73 -8 -127.5 -54t-96.5 -148t-64 -261q-15 -102 -15 -176q0 -265 174 -293z" />
<glyph unicode="&#xa3;" horiz-adv-x="1202" d="M176 530l4 31h211l70 279q15 59 43.5 110t75 96.5t118 72t160.5 26.5q122 0 193 -50.5t71 -129.5q0 -67 -51 -114.5t-123 -47.5q-53 0 -80 12l2 16q57 -3 85 43t28 113q0 56 -31.5 93.5t-93.5 37.5q-81 0 -129.5 -68.5t-85.5 -215.5l-72 -273h271l-4 -31h-275l-24 -100 q-22 -83 -57.5 -161t-59.5 -115l-25 -37q21 -12 55.5 -29t119.5 -45.5t143 -28.5q88 0 131 55t43 144q0 98 -62 98l-18 -2l2 17q27 10 68 10q59 0 106 -32.5t47 -102.5t-47 -120t-118 -72.5t-156 -22.5q-65 0 -136.5 21t-197.5 83q-58 -51 -127 -77.5t-129 -26.5 q-50 0 -87.5 20.5t-37.5 65.5q0 53 49.5 78.5t122.5 25.5q53 0 115 -16q58 199 100 370h-207zM274 129q-69 16 -108 16q-58 0 -97.5 -17.5t-39.5 -55.5q0 -58 86 -58q109 0 159 115z" />
<glyph unicode="&#xa5;" horiz-adv-x="1165" d="M291 0l4 31h135l31 217h-293l4 31h293l20 147h-292l4 31h292l13 80l-232 563h-123l5 30h432l-4 -30h-125l211 -520l268 405q34 47 25 81t-56 34h-84l4 30h332l-4 -30h-31q-46 0 -74.5 -23t-78.5 -98l-293 -442l-10 -80h301l-4 -31h-302l-20 -147h301l-4 -31h-301 l-31 -217h133l-4 -31h-442z" />
<glyph unicode="&#xa6;" horiz-adv-x="468" d="M201 535v874h30v-874h-30zM201 -553v875h30v-875h-30z" />
<glyph unicode="&#xa7;" horiz-adv-x="923" d="M221 -137l-4 -17q-31 0 -52.5 -14.5t-31.5 -38t-14 -44.5t-4 -42q0 -156 190 -156q156 0 256.5 102t100.5 290q0 97 -36 278.5t-72 375.5t-36 321q0 97 43 212l29 -2q-43 -133 -43 -229q0 -111 36.5 -299t72.5 -372t36 -287q0 -195 -106 -307.5t-283 -112.5 q-135 0 -228 53.5t-93 138.5q0 72 65 117.5t174 32.5zM678 1026l4 16q31 0 52.5 14.5t31.5 38.5t14 45t4 42q0 78 -49.5 116.5t-122.5 38.5q-124 0 -187 -118.5t-63 -341.5q0 -116 21.5 -254t47.5 -243t47.5 -225.5t21.5 -205.5q0 -121 -36.5 -175.5t-94.5 -54.5 q-25 0 -58 11q15 62 15 135q0 118 -36.5 304.5t-73 379t-36.5 323.5q0 227 102.5 361.5t311.5 134.5q136 0 230 -53.5t94 -138.5q0 -72 -65.5 -117.5t-174.5 -32.5z" />
<glyph unicode="&#xa8;" d="M729 1145q-40 0 -69 30t-29 70t29.5 70.5t68.5 30.5q41 0 70.5 -30.5t29.5 -70.5t-29.5 -70t-70.5 -30zM362 1145q-41 0 -70.5 30t-29.5 70t29.5 70.5t70.5 30.5q40 0 69.5 -30.5t29.5 -70.5t-29.5 -70t-69.5 -30z" />
<glyph unicode="&#xa9;" horiz-adv-x="1855" d="M109 584q0 167 65 319t175 262t262 175t319 65t319 -65t262 -175t175 -262t65 -319t-65 -319t-175 -262.5t-262 -175.5t-319 -65t-319 65t-262 175.5t-175 262.5t-65 319zM930 -209q161 0 307 63t252 169.5t168.5 253t62.5 307.5q0 214 -106 396.5t-288 289t-396 106.5 t-396.5 -106.5t-288.5 -289t-106 -396.5q0 -161 63 -307.5t168.5 -253t252 -169.5t307.5 -63zM1241 391h33q0 -122 -88 -201q-89 -79 -246 -79q-88 0 -163 27.5t-135 82.5t-94 146.5t-34 210.5q0 231 124.5 357t322.5 126q138 0 229.5 -56t91.5 -143q0 -20 -7 -41 t-22.5 -42.5t-45 -35.5t-68.5 -14q-41 0 -82 12v17q46 -10 68 25.5t22 93.5q0 67 -50 112t-136 45q-130 0 -193 -104t-63 -346q0 -238 63 -340.5t193 -102.5q124 0 202 70q78 71 78 180z" />
<glyph unicode="&#xaa;" horiz-adv-x="923" d="M584 907h-4q-44 -97 -109 -154t-131 -57q-88 0 -138 66t-50 180q0 113 49 215.5t130 163.5t169 61q63 0 102 -32.5t55 -77.5q29 15 61.5 47t49.5 63h31q-33 -139 -63.5 -325.5t-30.5 -243.5q0 -36 7.5 -48.5t30.5 -12.5q29 0 71 54.5t65 123.5l30 -6q-37 -104 -94.5 -163 t-120.5 -59q-121 0 -121 125q0 35 11 80zM362 731q59 0 118.5 68t97.5 175.5t38 215.5q0 88 -25 124t-79 36q-60 0 -110 -64t-78.5 -173.5t-28.5 -238.5q0 -78 15 -110.5t52 -32.5z" />
<glyph unicode="&#xab;" horiz-adv-x="909" d="M387 39l-20 -23q-131 118 -207 238.5t-76 210.5q0 95 102.5 217.5t270.5 228.5l18 -24q-41 -30 -65.5 -50t-45.5 -47.5t-31.5 -50t-20.5 -64.5t-15 -82.5t-12 -113.5q-13 -124 -13 -184q0 -85 22 -137t93 -119zM752 39l-21 -23q-131 118 -206.5 238.5t-75.5 210.5 q0 96 102 218.5t270 227.5l19 -24q-49 -36 -76.5 -61.5t-48.5 -53.5t-32 -70.5t-18.5 -89t-15.5 -133.5q-12 -114 -12 -184q0 -85 22 -137t93 -119z" />
<glyph unicode="&#xac;" horiz-adv-x="1105" d="M51 897v31h967v-572h-31v541h-936z" />
<glyph unicode="&#xad;" horiz-adv-x="784" d="M113 408l18 149h516l-18 -149h-516z" />
<glyph unicode="&#xae;" horiz-adv-x="1007" d="M358 834v30h66v387h-66v29h222q168 0 168 -117q0 -94 -121 -110v-6q53 -12 77.5 -43.5t24.5 -62.5t7 -55t30 -24h8v-22q-14 -9 -45 -9q-41 0 -65.5 15.5t-32.5 38.5t-13 49.5t-8 49.5t-17.5 38.5t-41.5 15.5h-29v-174h70v-30h-234zM522 1069h60q30 0 49.5 25.5t19.5 64.5 q0 42 -23 66t-57 24h-49v-180zM164 1055q0 167 119 286t286 119t286.5 -119t119.5 -286t-119.5 -286.5t-286.5 -119.5t-286 119.5t-119 286.5zM569 678q155 0 265 111t110 266t-110 266t-265 111t-264.5 -110.5t-109.5 -266.5t109.5 -266.5t264.5 -110.5z" />
<glyph unicode="&#xaf;" d="M279 1176l16 118h508l-17 -118h-507z" />
<glyph unicode="&#xb0;" horiz-adv-x="751" d="M170 1178q0 120 85 204t204 84t204 -84t85 -204t-85 -204.5t-204 -84.5t-204 84.5t-85 204.5zM201 1178q0 -106 76 -182t182 -76t182 76t76 182t-76 182t-182 76t-182 -76t-76 -182z" />
<glyph unicode="&#xb1;" horiz-adv-x="1105" d="M520 236v452h-448v31h448v424h31v-424h438v-31h-438v-452h-31zM72 0v31h917v-31h-917z" />
<glyph unicode="&#xb2;" horiz-adv-x="817" d="M125 772l4 31q283 181 393.5 308t110.5 237q0 81 -43 119t-115 38q-83 0 -134.5 -28t-51.5 -88q0 -24 6 -48l-31 -8q-10 42 -10 72q0 99 77.5 158t200.5 59q111 0 186 -50t75 -147q0 -41 -13.5 -82t-33.5 -75.5t-54.5 -73t-65.5 -67t-77.5 -64.5t-79.5 -59.5t-82.5 -58.5 t-75.5 -54h410l22 102h31l-45 -221h-604z" />
<glyph unicode="&#xb3;" horiz-adv-x="780" d="M332 1026l-2 -16q-43 0 -62.5 -32.5t-19.5 -76.5q0 -115 151 -115q96 0 146.5 57t50.5 152q0 91 -54.5 140t-162.5 49l4 30q98 0 164.5 49.5t66.5 131.5q0 110 -180 110q-81 0 -122.5 -29.5t-41.5 -80.5q0 -21 11 -58l-29 -4q-12 32 -12 72q0 104 80.5 160.5t201.5 56.5 q108 0 180 -46.5t72 -135.5q0 -46 -18.5 -81t-54.5 -60t-71.5 -40.5t-86.5 -31.5q91 -17 150 -69t59 -142q0 -117 -102.5 -188.5t-254.5 -71.5q-109 0 -182.5 42.5t-73.5 116.5q0 59 49 92t144 19z" />
<glyph unicode="&#xb4;" d="M455 1063l-23 20q60 70 107 143t70.5 121t45 88t43 59t52.5 19t54 -21t23 -54q0 -31 -17.5 -55.5t-53.5 -51t-78 -56.5t-104 -86.5t-119 -125.5z" />
<glyph unicode="&#xb5;" horiz-adv-x="1271" d="M147 -481h-86q47 360 97 676.5t75.5 469t28.5 226.5h-137l4 31h315q-2 -81 -56 -383t-54 -398q0 -60 18.5 -85t61.5 -25q49 0 96.5 32t84 79.5t70 111t55 116.5t38.5 105q55 171 100 447h176q-18 -115 -43.5 -272.5t-39.5 -244t-25 -170t-11 -122.5q0 -70 39 -70 q53 0 106.5 82t65.5 180l31 -6q-19 -126 -89.5 -216.5t-172.5 -90.5q-67 0 -108.5 37.5t-41.5 117.5q0 47 23.5 166t28.5 156h-9q-19 -55 -36 -97.5t-46 -104t-61.5 -106.5t-73.5 -87.5t-92 -65t-108 -22.5q-74 0 -125 26q-6 -35 -6 -112q0 -51 17 -135.5t17 -110.5 q0 -79 -31 -107t-96 -28z" />
<glyph unicode="&#xb6;" horiz-adv-x="1234" d="M559 -184l76 553h-123q-82 0 -156 30t-130.5 84.5t-90 137.5t-33.5 182q0 115 45.5 218.5t121 175.5t176.5 114.5t210 42.5h631l-4 -31h-483l-209 -1507h-31zM461 -170l-4 -16q-40 3 -64.5 -21.5t-31.5 -54.5t-7 -66q0 -58 42.5 -92.5t109.5 -34.5q103 0 157.5 106 t92.5 361l157 1151h170l-157 -1147q-68 -497 -420 -497q-123 0 -204 48.5t-81 129.5q0 70 67.5 109t172.5 24z" />
<glyph unicode="&#xb7;" horiz-adv-x="493" d="M111 463q0 51 34.5 86t85.5 35t86 -35t35 -86t-35 -86t-86 -35t-85.5 35t-34.5 86z" />
<glyph unicode="&#xb8;" d="M301 -326l29 -4q-4 -10 -4 -26q0 -42 33.5 -66t78.5 -24q55 0 89 36t34 95q0 56 -34 80.5t-113 33.5l84 211h32l-47 -125q34 -4 66 -15t63 -30.5t49.5 -53t18.5 -77.5q0 -84 -64.5 -136t-158.5 -52q-71 0 -116.5 32.5t-45.5 90.5q0 10 1.5 17.5t3.5 10.5z" />
<glyph unicode="&#xb9;" horiz-adv-x="669" d="M123 772l4 31h180l109 772h-178l4 31h333l-112 -803h176l-4 -31h-512z" />
<glyph unicode="&#xba;" horiz-adv-x="813" d="M424 696q-131 0 -198.5 72t-67.5 197q0 196 91 306.5t253 110.5q284 0 284 -262q0 -212 -99 -318t-263 -106zM428 723q89 0 135.5 76.5t67.5 238.5q10 82 10 133q0 185 -125 185q-88 0 -135 -77.5t-68 -238.5q-10 -82 -10 -133q0 -90 29.5 -137t95.5 -47z" />
<glyph unicode="&#xbb;" horiz-adv-x="909" d="M422 16l-19 25q49 36 76.5 61.5t48.5 53.5t32 70.5t18.5 89t15.5 133.5q12 114 12 184q0 86 -21.5 138t-92.5 118l20 22q132 -118 207.5 -238t75.5 -210q0 -96 -102.5 -219t-270.5 -228zM57 16l-18 25q41 30 65.5 50t45.5 47.5t31.5 50t20.5 64.5t15 82.5t12 113.5 q13 123 13 184q0 85 -22 137t-93 119l20 22q132 -118 207.5 -238t75.5 -210q0 -96 -102.5 -219t-270.5 -228z" />
<glyph unicode="&#xbc;" horiz-adv-x="1679" d="M334 0l1061 1354l26 -19l-1063 -1353zM866 242l4 30l596 600h35l-84 -600h162l-4 -30h-162l-33 -242h-151l33 242h-396zM915 272h351l57 410zM78 520l4 31h180l109 772h-178l4 31h333l-112 -803h176l-4 -31h-512z" />
<glyph unicode="&#xbd;" horiz-adv-x="1794" d="M330 0l1061 1354l26 -19l-1063 -1353zM72 520l4 31h180l109 772h-179l4 31h334l-112 -803h176l-4 -31h-512zM1020 0l4 31q146 94 246.5 173.5t156 145t78.5 119t23 106.5q0 81 -43 119.5t-115 38.5q-82 0 -134 -28t-52 -89q0 -23 6 -47l-31 -8q-10 42 -10 72 q0 99 77.5 158t200.5 59q111 0 186 -50t75 -147q0 -41 -13.5 -82t-33.5 -75.5t-54.5 -73t-65.5 -67t-77.5 -64.5t-79.5 -59.5t-82.5 -58.5t-75.5 -54h410l22 102h31l-45 -221h-604z" />
<glyph unicode="&#xbe;" horiz-adv-x="1693" d="M348 0l1061 1354l27 -19l-1063 -1353zM881 242l4 30l596 600h35l-84 -600h161l-4 -30h-162l-32 -242h-152l33 242h-395zM930 272h350l57 410zM291 786l-2 -16q-43 0 -62.5 -32t-19.5 -76q0 -115 151 -115q96 0 146.5 57t50.5 152q0 91 -54.5 139.5t-162.5 48.5l4 31 q99 0 165 49t66 131q0 111 -180 111q-81 0 -122.5 -30t-41.5 -81q0 -20 11 -57l-29 -4q-12 32 -12 71q0 104 80.5 160.5t201.5 56.5q108 0 180 -46.5t72 -135.5q0 -46 -18.5 -81t-54.5 -60t-71.5 -40.5t-86.5 -31.5q91 -17 150 -69t59 -142q0 -117 -102.5 -188.5 t-254.5 -71.5q-109 0 -182.5 43t-73.5 117q0 59 49 91.5t144 18.5z" />
<glyph unicode="&#xbf;" horiz-adv-x="927" d="M315 395l-30 2q12 62 52 95.5t99 33.5q71 0 112.5 -37.5t41.5 -101.5q0 -42 -23.5 -79.5t-60.5 -68.5t-82 -63t-90 -69.5t-82 -81.5t-60.5 -107t-23.5 -137q0 -215 207 -215q116 0 179.5 58t63.5 161q0 117 -83 117q-38 0 -67.5 -26t-35.5 -66l-31 2q10 56 50.5 87 t99.5 31q93 0 149 -45.5t56 -120.5q0 -103 -102.5 -164t-278.5 -61q-187 0 -300.5 79t-113.5 208q0 70 33 127t85 94t115.5 69t127 59t115.5 55.5t85 68.5t33 88q0 53 -30.5 81t-88.5 28q-48 0 -81 -27t-40 -74zM635 809q0 -51 -35 -86t-86 -35t-86 35t-35 86t35 86t86 35 t86 -35t35 -86z" />
<glyph unicode="&#xc0;" horiz-adv-x="1191" d="M-117 0l4 31h41q47 0 83 27.5t69 93.5l602 1210h31l325 -1331h115l-4 -31h-481l4 31h166l-111 463h-444l-170 -342q-28 -56 -3 -88.5t95 -32.5h63l-4 -31h-381zM297 524h424l-137 574zM829 1454l-20 -24q-60 50 -132 88.5t-116 55.5t-75 43.5t-31 63.5q0 29 22 53.5 t53 24.5q34 0 64 -28t54.5 -68t73.5 -100.5t107 -108.5z" />
<glyph unicode="&#xc1;" horiz-adv-x="1191" d="M-117 0l4 31h41q47 0 83 27.5t69 93.5l602 1210h31l325 -1331h115l-4 -31h-481l4 31h166l-111 463h-444l-170 -342q-28 -56 -3 -88.5t95 -32.5h63l-4 -31h-381zM297 524h424l-137 574zM614 1430l-18 24q71 50 129.5 109.5t87 98t60 65t63.5 26.5q31 0 54.5 -21.5 t23.5 -54.5q0 -39 -31.5 -63.5t-79 -39t-131 -52.5t-158.5 -92z" />
<glyph unicode="&#xc2;" horiz-adv-x="1191" d="M-117 0l4 31h41q47 0 83 27.5t69 93.5l602 1210h31l325 -1331h115l-4 -31h-481l4 31h166l-111 463h-444l-170 -342q-28 -56 -3 -88.5t95 -32.5h63l-4 -31h-381zM297 524h424l-137 574zM444 1450l287 303h37l219 -303h-160l-149 199l-193 -199h-41z" />
<glyph unicode="&#xc3;" horiz-adv-x="1191" d="M-117 0l4 31h41q47 0 83 27.5t69 93.5l602 1210h31l325 -1331h115l-4 -31h-481l4 31h166l-111 463h-444l-170 -342q-28 -56 -3 -88.5t95 -32.5h63l-4 -31h-381zM297 524h424l-137 574zM418 1466h-33q34 126 78.5 186t116.5 60q39 0 70 -14.5t53 -35t43.5 -40.5 t52.5 -34.5t69 -14.5q49 0 80 30t53 109h33q-34 -129 -79 -187.5t-126 -58.5q-44 0 -77.5 14.5t-54.5 35t-40.5 41t-47 35t-62.5 14.5q-47 0 -76.5 -31t-52.5 -109z" />
<glyph unicode="&#xc4;" horiz-adv-x="1191" d="M-117 0l4 31h41q47 0 83 27.5t69 93.5l602 1210h31l325 -1331h115l-4 -31h-481l4 31h166l-111 463h-444l-170 -342q-28 -56 -3 -88.5t95 -32.5h63l-4 -31h-381zM297 524h424l-137 574zM920 1473q-40 0 -69.5 30t-29.5 70t29.5 70t69.5 30q41 0 70.5 -30t29.5 -70 t-29.5 -70t-70.5 -30zM532 1473q-41 0 -70.5 30t-29.5 70t29.5 70t70.5 30q40 0 69.5 -30t29.5 -70t-29.5 -70t-69.5 -30z" />
<glyph unicode="&#xc5;" horiz-adv-x="1191" d="M-117 0l4 31h41q47 0 83 27.5t69 93.5l602 1210h31l325 -1331h115l-4 -31h-481l4 31h166l-111 463h-444l-170 -342q-28 -56 -3 -88.5t95 -32.5h63l-4 -31h-381zM297 524h424l-137 574zM727 1444q-77 0 -117.5 50t-40.5 116q0 64 39 109.5t117 45.5t119 -46t41 -109 q0 -65 -41 -115.5t-117 -50.5zM727 1475q59 0 91 40t32 91q0 52 -30 90.5t-95 38.5q-63 0 -92 -37.5t-29 -87.5q0 -55 31.5 -95t91.5 -40z" />
<glyph unicode="&#xc6;" horiz-adv-x="1753" d="M-123 0l4 31h39q44 0 74.5 25.5t73.5 93.5l763 1173h-176l4 31h1098q-65 -162 -112 -383h-33l30 221q5 33 6.5 54t-1 36t-6.5 23t-15.5 12t-22.5 5t-32 1h-465l-90 -639h327l25 180h33l-58 -409h-32l28 198h-327l-88 -622h452q70 0 111 65q32 52 86 229q4 13 11 39 q9 27 13 42h33q-57 -187 -88 -406h-989l4 31h176l68 485h-459l-238 -366q-35 -57 -12 -88t94 -31h60l-4 -31h-365zM362 547h443l110 776h-47z" />
<glyph unicode="&#xc7;" horiz-adv-x="1245" d="M399 -326l29 -4q-4 -10 -4 -26q0 -42 34 -66t79 -24q55 0 88.5 36t33.5 95q0 56 -34 80.5t-113 33.5l76 191q-218 20 -343.5 179t-125.5 402q0 176 52.5 325.5t144.5 252.5t220.5 161t278.5 58q210 0 318 -139q41 1 66 32t48 93h27q-64 -188 -80 -301l-18 -121h-31 q14 88 14 117q0 128 -96 208t-248 80q-92 0 -167 -37.5t-125 -98t-88 -148t-59 -175t-36 -192.5q-18 -120 -18 -233q0 -437 333 -437q91 0 170 32t132.5 85.5t88 119.5t44.5 136l30 -2q-6 -48 -25 -99.5t-57.5 -106t-90 -97.5t-129 -70.5t-167.5 -27.5h-33l-36 -101 q34 -4 65.5 -15t62.5 -30.5t49.5 -53t18.5 -77.5q0 -84 -64.5 -136t-158.5 -52q-71 0 -116.5 32.5t-45.5 90.5q0 10 1.5 17.5t3.5 10.5z" />
<glyph unicode="&#xc8;" horiz-adv-x="1193" d="M-4 0l4 31h176l182 1292h-176l4 31h1014q-68 -162 -115 -383h-30l30 221q5 33 6.5 54t-1 36t-6.5 23t-15.5 12t-22.5 5t-32 1h-465l-90 -639h327l25 180h33l-58 -409h-32l28 198h-327l-88 -622h452q70 0 111 65q32 52 86 229q4 13 11 39q9 28 13 42h31q-55 -187 -86 -406 h-989zM866 1454l-20 -24q-60 50 -132 88.5t-116 55.5t-75 43.5t-31 63.5q0 29 22 53.5t53 24.5q34 0 64 -28t54.5 -68t73.5 -100.5t107 -108.5z" />
<glyph unicode="&#xc9;" horiz-adv-x="1193" d="M-4 0l4 31h176l182 1292h-176l4 31h1014q-68 -162 -115 -383h-30l30 221q5 33 6.5 54t-1 36t-6.5 23t-15.5 12t-22.5 5t-32 1h-465l-90 -639h327l25 180h33l-58 -409h-32l28 198h-327l-88 -622h452q70 0 111 65q32 52 86 229q4 13 11 39q9 28 13 42h31q-55 -187 -86 -406 h-989zM651 1430l-18 24q71 50 129.5 109.5t87 98t60 65t63.5 26.5q31 0 54.5 -21.5t23.5 -54.5q0 -39 -31.5 -63.5t-79 -39t-131 -52.5t-158.5 -92z" />
<glyph unicode="&#xca;" horiz-adv-x="1193" d="M-4 0l4 31h176l182 1292h-176l4 31h1014q-68 -162 -115 -383h-30l30 221q5 33 6.5 54t-1 36t-6.5 23t-15.5 12t-22.5 5t-32 1h-465l-90 -639h327l25 180h33l-58 -409h-32l28 198h-327l-88 -622h452q70 0 111 65q32 52 86 229q4 13 11 39q9 28 13 42h31q-55 -187 -86 -406 h-989zM481 1450l287 303h37l219 -303h-160l-149 199l-193 -199h-41z" />
<glyph unicode="&#xcb;" horiz-adv-x="1193" d="M-4 0l4 31h176l182 1292h-176l4 31h1014q-68 -162 -115 -383h-30l30 221q5 33 6.5 54t-1 36t-6.5 23t-15.5 12t-22.5 5t-32 1h-465l-90 -639h327l25 180h33l-58 -409h-32l28 198h-327l-88 -622h452q70 0 111 65q32 52 86 229q4 13 11 39q9 28 13 42h31q-55 -187 -86 -406 h-989zM956 1473q-40 0 -69 30t-29 70t29 70t69 30q41 0 71 -30t30 -70t-30 -70t-71 -30zM569 1473q-41 0 -70.5 30t-29.5 70t29.5 70t70.5 30q40 0 69.5 -30t29.5 -70t-29.5 -70t-69.5 -30z" />
<glyph unicode="&#xcc;" horiz-adv-x="698" d="M-4 0l4 31h178l180 1292h-176l4 31h545l-4 -31h-176l-180 -1292h174l-4 -31h-545zM598 1454l-20 -24q-60 50 -132.5 88.5t-116.5 55.5t-75 43.5t-31 63.5q0 29 22.5 53.5t53.5 24.5q34 0 64 -28t54.5 -68t73.5 -100.5t107 -108.5z" />
<glyph unicode="&#xcd;" horiz-adv-x="698" d="M-4 0l4 31h178l180 1292h-176l4 31h545l-4 -31h-176l-180 -1292h174l-4 -31h-545zM383 1430l-18 24q71 50 129.5 109.5t87 98t60 65t63.5 26.5q30 0 53.5 -21.5t23.5 -54.5q0 -39 -31.5 -63.5t-78.5 -39t-130.5 -52.5t-158.5 -92z" />
<glyph unicode="&#xce;" horiz-adv-x="698" d="M-4 0l4 31h178l180 1292h-176l4 31h545l-4 -31h-176l-180 -1292h174l-4 -31h-545zM213 1450l287 303h37l219 -303h-160l-150 199l-192 -199h-41z" />
<glyph unicode="&#xcf;" horiz-adv-x="698" d="M-4 0l4 31h178l180 1292h-176l4 31h545l-4 -31h-176l-180 -1292h174l-4 -31h-545zM688 1473q-40 0 -69 30t-29 70t29 70t69 30q41 0 70.5 -30t29.5 -70t-29.5 -70t-70.5 -30zM301 1473q-41 0 -70.5 30t-29.5 70t29.5 70t70.5 30q40 0 69 -30t29 -70t-29 -70t-69 -30z" />
<glyph unicode="&#xd0;" horiz-adv-x="1429" d="M8 0l4 31h176l91 647h-224v31h228l86 614h-174l4 31h555q151 0 265.5 -39.5t184.5 -112.5t104.5 -169t34.5 -214q0 -132 -25.5 -249.5t-83.5 -223t-143.5 -181.5t-214.5 -120.5t-288 -44.5h-580zM381 31h217q260 0 397.5 224.5t137.5 616.5q0 451 -388 451h-184l-86 -614 h305v-31h-309z" />
<glyph unicode="&#xd1;" horiz-adv-x="1445" d="M0 0l4 31h59q126 0 142 123l151 1075q-18 29 -26 40t-26 27t-42.5 21.5t-60.5 5.5h-29l4 31h326l626 -1067l129 913q8 61 -15.5 92t-88.5 31h-61l4 31h399l-4 -31h-64q-65 0 -98 -31t-41 -92l-170 -1210h-31l-706 1198l-145 -1034q-8 -62 14.5 -92.5t87.5 -30.5h63 l-4 -31h-397zM567 1466h-32q34 127 78 186.5t116 59.5q39 0 70 -14.5t53 -35t44 -40.5t53 -34.5t69 -14.5q49 0 80 30t53 109h33q-34 -129 -79 -187.5t-126 -58.5q-44 0 -77.5 14.5t-54.5 35t-41 41t-47.5 35t-62.5 14.5q-47 0 -76.5 -31t-52.5 -109z" />
<glyph unicode="&#xd2;" horiz-adv-x="1419" d="M653 -14q-144 0 -249 39.5t-167 113t-91 169.5t-29 218q0 97 14 189q15 108 47.5 202.5t88 178t129 143.5t174.5 94.5t221 34.5q276 0 409 -142.5t133 -394.5q0 -137 -26.5 -261t-81.5 -231t-134.5 -185.5t-191.5 -123t-246 -44.5zM637 12q94 0 167.5 34t122.5 90 t85.5 142t57 174.5t36.5 204.5q22 157 22 281q0 191 -72 297t-239 106q-70 0 -128.5 -17.5t-102.5 -47.5t-80 -77t-61.5 -99.5t-46 -122.5t-33.5 -138t-25 -153q-23 -164 -23 -276q0 -91 16 -160.5t52 -124.5t99.5 -84t152.5 -29zM952 1454l-20 -24q-60 50 -132 88.5 t-116 55.5t-75 43.5t-31 63.5q0 29 22 53.5t53 24.5q34 0 64 -28t54.5 -68t73.5 -100.5t107 -108.5z" />
<glyph unicode="&#xd3;" horiz-adv-x="1419" d="M653 -14q-144 0 -249 39.5t-167 113t-91 169.5t-29 218q0 97 14 189q15 108 47.5 202.5t88 178t129 143.5t174.5 94.5t221 34.5q276 0 409 -142.5t133 -394.5q0 -137 -26.5 -261t-81.5 -231t-134.5 -185.5t-191.5 -123t-246 -44.5zM637 12q94 0 167.5 34t122.5 90 t85.5 142t57 174.5t36.5 204.5q22 157 22 281q0 191 -72 297t-239 106q-70 0 -128.5 -17.5t-102.5 -47.5t-80 -77t-61.5 -99.5t-46 -122.5t-33.5 -138t-25 -153q-23 -164 -23 -276q0 -91 16 -160.5t52 -124.5t99.5 -84t152.5 -29zM737 1430l-18 24q71 50 129.5 109.5t87 98 t60 65t63.5 26.5q31 0 54.5 -21.5t23.5 -54.5q0 -39 -31.5 -63.5t-79 -39t-131 -52.5t-158.5 -92z" />
<glyph unicode="&#xd4;" horiz-adv-x="1419" d="M653 -14q-144 0 -249 39.5t-167 113t-91 169.5t-29 218q0 97 14 189q15 108 47.5 202.5t88 178t129 143.5t174.5 94.5t221 34.5q276 0 409 -142.5t133 -394.5q0 -137 -26.5 -261t-81.5 -231t-134.5 -185.5t-191.5 -123t-246 -44.5zM637 12q94 0 167.5 34t122.5 90 t85.5 142t57 174.5t36.5 204.5q22 157 22 281q0 191 -72 297t-239 106q-70 0 -128.5 -17.5t-102.5 -47.5t-80 -77t-61.5 -99.5t-46 -122.5t-33.5 -138t-25 -153q-23 -164 -23 -276q0 -91 16 -160.5t52 -124.5t99.5 -84t152.5 -29zM567 1450l287 303h37l219 -303h-160 l-149 199l-193 -199h-41z" />
<glyph unicode="&#xd5;" horiz-adv-x="1419" d="M653 -14q-144 0 -249 39.5t-167 113t-91 169.5t-29 218q0 97 14 189q15 108 47.5 202.5t88 178t129 143.5t174.5 94.5t221 34.5q276 0 409 -142.5t133 -394.5q0 -137 -26.5 -261t-81.5 -231t-134.5 -185.5t-191.5 -123t-246 -44.5zM637 12q94 0 167.5 34t122.5 90 t85.5 142t57 174.5t36.5 204.5q22 157 22 281q0 191 -72 297t-239 106q-70 0 -128.5 -17.5t-102.5 -47.5t-80 -77t-61.5 -99.5t-46 -122.5t-33.5 -138t-25 -153q-23 -164 -23 -276q0 -91 16 -160.5t52 -124.5t99.5 -84t152.5 -29zM541 1466h-33q34 127 78 186.5t116 59.5 q39 0 70 -14.5t53 -35t44 -40.5t53 -34.5t69 -14.5q49 0 80 30t53 109h33q-34 -129 -79 -187.5t-126 -58.5q-44 0 -77.5 14.5t-54.5 35t-40.5 41t-47 35t-62.5 14.5q-47 0 -76.5 -31t-52.5 -109z" />
<glyph unicode="&#xd6;" horiz-adv-x="1419" d="M653 -14q-144 0 -249 39.5t-167 113t-91 169.5t-29 218q0 97 14 189q15 108 47.5 202.5t88 178t129 143.5t174.5 94.5t221 34.5q276 0 409 -142.5t133 -394.5q0 -137 -26.5 -261t-81.5 -231t-134.5 -185.5t-191.5 -123t-246 -44.5zM637 12q94 0 167.5 34t122.5 90 t85.5 142t57 174.5t36.5 204.5q22 157 22 281q0 191 -72 297t-239 106q-70 0 -128.5 -17.5t-102.5 -47.5t-80 -77t-61.5 -99.5t-46 -122.5t-33.5 -138t-25 -153q-23 -164 -23 -276q0 -91 16 -160.5t52 -124.5t99.5 -84t152.5 -29zM1042 1473q-40 0 -69 30t-29 70t29 70 t69 30q41 0 71 -30t30 -70t-30 -70t-71 -30zM655 1473q-41 0 -70.5 30t-29.5 70t29.5 70t70.5 30q40 0 69.5 -30t29.5 -70t-29.5 -70t-69.5 -30z" />
<glyph unicode="&#xd7;" horiz-adv-x="1105" d="M55 25l463 462l-463 463l23 21l461 -463l465 465l20 -23l-463 -463l463 -462l-20 -23l-465 463l-461 -461z" />
<glyph unicode="&#xd8;" horiz-adv-x="1419" d="M227 -84l95 150q-205 130 -205 460q0 97 14 189q15 108 47.5 202.5t88 178t129 143.5t174.5 94.5t221 34.5q188 0 317 -74l109 170l24 -16l-108 -168q200 -134 200 -449q0 -137 -26.5 -261t-81.5 -231t-134.5 -185.5t-191.5 -123t-246 -44.5q-185 0 -305 63l-96 -149z M373 143l690 1082q-78 118 -246 118q-97 0 -172 -34t-124.5 -89.5t-86 -144t-57 -178.5t-37.5 -211q-23 -164 -23 -276q0 -171 56 -267zM1079 1196l-688 -1079q78 -105 246 -105q94 0 167.5 34t122.5 90t85.5 142t57 174.5t36.5 204.5q22 157 22 281q0 160 -49 258z" />
<glyph unicode="&#xd9;" horiz-adv-x="1472" d="M244 655l92 668h-176l4 31h547l-4 -31h-177l-94 -666q-30 -209 -30 -286q0 -58 7 -105.5t27.5 -95.5t54.5 -80.5t92 -53t136 -20.5q207 0 328.5 129.5t152.5 348.5l99 706q8 61 -16 92t-89 31h-61l4 31h397l-4 -31h-64q-65 0 -97 -31t-40 -92l-96 -694 q-15 -111 -50.5 -200t-96.5 -163.5t-159 -115.5t-226 -41q-237 0 -363.5 119.5t-126.5 314.5q0 34 3 62.5t12 83.5t14 89zM1034 1454l-20 -24q-60 50 -132.5 88.5t-116.5 55.5t-75 43.5t-31 63.5q0 29 22.5 53.5t53.5 24.5q34 0 64 -28t54.5 -68t73.5 -100.5t107 -108.5z " />
<glyph unicode="&#xda;" horiz-adv-x="1472" d="M244 655l92 668h-176l4 31h547l-4 -31h-177l-94 -666q-30 -209 -30 -286q0 -58 7 -105.5t27.5 -95.5t54.5 -80.5t92 -53t136 -20.5q207 0 328.5 129.5t152.5 348.5l99 706q8 61 -16 92t-89 31h-61l4 31h397l-4 -31h-64q-65 0 -97 -31t-40 -92l-96 -694 q-15 -111 -50.5 -200t-96.5 -163.5t-159 -115.5t-226 -41q-237 0 -363.5 119.5t-126.5 314.5q0 34 3 62.5t12 83.5t14 89zM819 1430l-18 24q71 50 129.5 109.5t87 98t60 65t63.5 26.5q31 0 54.5 -21.5t23.5 -54.5q0 -39 -31.5 -63.5t-79 -39t-131 -52.5t-158.5 -92z" />
<glyph unicode="&#xdb;" horiz-adv-x="1472" d="M244 655l92 668h-176l4 31h547l-4 -31h-177l-94 -666q-30 -209 -30 -286q0 -58 7 -105.5t27.5 -95.5t54.5 -80.5t92 -53t136 -20.5q207 0 328.5 129.5t152.5 348.5l99 706q8 61 -16 92t-89 31h-61l4 31h397l-4 -31h-64q-65 0 -97 -31t-40 -92l-96 -694 q-15 -111 -50.5 -200t-96.5 -163.5t-159 -115.5t-226 -41q-237 0 -363.5 119.5t-126.5 314.5q0 34 3 62.5t12 83.5t14 89zM649 1450l287 303h37l219 -303h-160l-149 199l-193 -199h-41z" />
<glyph unicode="&#xdc;" horiz-adv-x="1472" d="M244 655l92 668h-176l4 31h547l-4 -31h-177l-94 -666q-30 -209 -30 -286q0 -58 7 -105.5t27.5 -95.5t54.5 -80.5t92 -53t136 -20.5q207 0 328.5 129.5t152.5 348.5l99 706q8 61 -16 92t-89 31h-61l4 31h397l-4 -31h-64q-65 0 -97 -31t-40 -92l-96 -694 q-15 -111 -50.5 -200t-96.5 -163.5t-159 -115.5t-226 -41q-237 0 -363.5 119.5t-126.5 314.5q0 34 3 62.5t12 83.5t14 89zM1124 1473q-40 0 -69 30t-29 70t29 70t69 30q41 0 71 -30t30 -70t-30 -70t-71 -30zM737 1473q-41 0 -70.5 30t-29.5 70t29.5 70t70.5 30 q40 0 69.5 -30t29.5 -70t-29.5 -70t-69.5 -30z" />
<glyph unicode="&#xdd;" horiz-adv-x="1230" d="M276 0l5 31h176l45 309q24 166 -7 333t-101.5 318.5t-188.5 331.5h-142l5 31h536l-4 -31h-178q123 -164 194.5 -363t85.5 -413q46 168 151 344t226 317q23 26 28 52t-14.5 44.5t-64.5 18.5h-82l4 31h379l-4 -31h-41q-18 0 -36.5 -7t-30 -13t-33.5 -27.5t-30 -31 t-38 -42.5q-93 -104 -172 -219.5t-149.5 -273t-92.5 -306.5l-53 -372h178l-4 -31h-547zM662 1430l-19 24q71 50 129.5 109.5t87 98t60 65t63.5 26.5q31 0 54.5 -21.5t23.5 -54.5q0 -39 -31.5 -63.5t-78.5 -39t-130.5 -52.5t-158.5 -92z" />
<glyph unicode="&#xde;" horiz-adv-x="1179" d="M-4 0l4 31h178l180 1292h-176l4 31h545l-4 -31h-176l-39 -268h147q102 0 183 -19.5t133 -51.5t86.5 -77t48.5 -92t14 -100q0 -78 -28 -149.5t-86 -132.5t-160 -97.5t-236 -36.5q-18 0 -35 1.5t-25 3.5l-7 1l4 29q30 -4 61 -4q145 0 225.5 112t80.5 306q0 38 -5.5 72 t-23 73t-46 66.5t-79.5 46t-119 18.5h-137l-137 -993h174l-4 -31h-545z" />
<glyph unicode="&#xdf;" horiz-adv-x="1040" d="M-154 -180l-4 -17q-59 3 -85.5 -35t-26.5 -102q0 -57 36 -89t95 -32q95 0 144.5 102t84.5 351q22 152 42.5 369.5t36 421.5t17.5 225q20 213 152.5 348t325.5 135q135 0 202.5 -70.5t67.5 -179.5q0 -58 -21 -105.5t-52 -77.5t-67.5 -61t-67.5 -57t-52 -64t-21 -83 q0 -46 16.5 -86t42.5 -71t57 -60.5t62.5 -60t57.5 -63.5t42.5 -78t16.5 -97q0 -133 -89.5 -215t-227.5 -82q-100 0 -160 50t-72 142l31 4q9 -76 59.5 -120t122.5 -44q91 0 141 46t50 124q0 47 -16.5 88t-43 72t-59 61t-65 61t-59 65t-43.5 79.5t-17 98.5q0 60 22 107.5 t58 79t79 59t85.5 54.5t78.5 57.5t58 75.5t22 101q0 98 -61.5 158.5t-177.5 60.5q-141 0 -207.5 -109t-94.5 -368q-7 -65 -23 -263.5t-36 -394t-43 -329.5q-15 -85 -34 -151.5t-51 -131t-73 -106.5t-102.5 -68t-138.5 -26q-114 0 -186 45.5t-72 126.5q0 42 25.5 72 t62.5 41.5t79 17t76 -1.5z" />
<glyph unicode="&#xe0;" horiz-adv-x="1083" d="M637 236h-8q-137 -250 -299 -250q-127 0 -198 97t-71 263q1 164 63 300t169 213t235 77q176 0 250 -145q105 74 146 145h30q-58 -175 -102.5 -428.5t-44.5 -401.5q0 -36 8 -49.5t29 -13.5q53 0 107 80.5t69 181.5l31 -6q-22 -136 -96.5 -221.5t-170.5 -85.5 q-72 0 -114.5 39.5t-42.5 113.5q0 43 10 91zM358 23q42 0 90 34t93 95q74 100 125 248.5t51 279.5q0 109 -44.5 167t-127.5 58q-87 0 -155.5 -88t-107 -245t-38.5 -353q0 -107 26 -151.5t88 -44.5zM672 1075l-27 -14q-37 70 -86 134.5t-84.5 100t-60.5 73t-25 69.5 q0 30 23 52.5t55 22.5q43 0 67 -36t33.5 -88.5t36.5 -143.5t68 -170z" />
<glyph unicode="&#xe1;" horiz-adv-x="1083" d="M637 236h-8q-137 -250 -299 -250q-127 0 -198 97t-71 263q1 164 63 300t169 213t235 77q176 0 250 -145q105 74 146 145h30q-58 -175 -102.5 -428.5t-44.5 -401.5q0 -36 8 -49.5t29 -13.5q53 0 107 80.5t69 181.5l31 -6q-22 -136 -96.5 -221.5t-170.5 -85.5 q-72 0 -114.5 39.5t-42.5 113.5q0 43 10 91zM358 23q42 0 90 34t93 95q74 100 125 248.5t51 279.5q0 109 -44.5 167t-127.5 58q-87 0 -155.5 -88t-107 -245t-38.5 -353q0 -107 26 -151.5t88 -44.5zM508 1063l-23 20q60 70 107 143t70.5 121t45 88t43 59t52.5 19t54.5 -21.5 t23.5 -53.5q0 -31 -17.5 -55.5t-53.5 -51t-78.5 -56.5t-104.5 -86.5t-119 -125.5z" />
<glyph unicode="&#xe2;" horiz-adv-x="1083" d="M637 236h-8q-137 -250 -299 -250q-127 0 -198 97t-71 263q1 164 63 300t169 213t235 77q176 0 250 -145q105 74 146 145h30q-58 -175 -102.5 -428.5t-44.5 -401.5q0 -36 8 -49.5t29 -13.5q53 0 107 80.5t69 181.5l31 -6q-22 -136 -96.5 -221.5t-170.5 -85.5 q-72 0 -114.5 39.5t-42.5 113.5q0 43 10 91zM358 23q42 0 90 34t93 95q74 100 125 248.5t51 279.5q0 109 -44.5 167t-127.5 58q-87 0 -155.5 -88t-107 -245t-38.5 -353q0 -107 26 -151.5t88 -44.5zM334 1079l278 418h37l180 -418h-139l-127 289l-192 -289h-37z" />
<glyph unicode="&#xe3;" horiz-adv-x="1083" d="M637 236h-8q-137 -250 -299 -250q-127 0 -198 97t-71 263q1 164 63 300t169 213t235 77q176 0 250 -145q105 74 146 145h30q-58 -175 -102.5 -428.5t-44.5 -401.5q0 -36 8 -49.5t29 -13.5q53 0 107 80.5t69 181.5l31 -6q-22 -136 -96.5 -221.5t-170.5 -85.5 q-72 0 -114.5 39.5t-42.5 113.5q0 43 10 91zM358 23q42 0 90 34t93 95q74 100 125 248.5t51 279.5q0 109 -44.5 167t-127.5 58q-87 0 -155.5 -88t-107 -245t-38.5 -353q0 -107 26 -151.5t88 -44.5zM305 1112h-33q34 126 78.5 186t116.5 60q39 0 70 -14.5t53 -35t44 -40.5 t53 -34.5t69 -14.5q49 0 80 30t53 109h33q-34 -129 -79 -187.5t-126 -58.5q-44 0 -77.5 14.5t-54.5 35t-41 40.5t-47.5 34.5t-62.5 14.5q-47 0 -76.5 -30.5t-52.5 -108.5z" />
<glyph unicode="&#xe4;" horiz-adv-x="1083" d="M637 236h-8q-137 -250 -299 -250q-127 0 -198 97t-71 263q1 164 63 300t169 213t235 77q176 0 250 -145q105 74 146 145h30q-58 -175 -102.5 -428.5t-44.5 -401.5q0 -36 8 -49.5t29 -13.5q53 0 107 80.5t69 181.5l31 -6q-22 -136 -96.5 -221.5t-170.5 -85.5 q-72 0 -114.5 39.5t-42.5 113.5q0 43 10 91zM358 23q42 0 90 34t93 95q74 100 125 248.5t51 279.5q0 109 -44.5 167t-127.5 58q-87 0 -155.5 -88t-107 -245t-38.5 -353q0 -107 26 -151.5t88 -44.5zM782 1145q-40 0 -69 30t-29 70t29.5 70.5t68.5 30.5q41 0 71 -30.5 t30 -70.5t-30 -70t-71 -30zM416 1145q-41 0 -71 30t-30 70t30 70.5t71 30.5q39 0 68.5 -30.5t29.5 -70.5t-29 -70t-69 -30z" />
<glyph unicode="&#xe5;" horiz-adv-x="1083" d="M637 236h-8q-137 -250 -299 -250q-127 0 -198 97t-71 263q1 164 63 300t169 213t235 77q176 0 250 -145q105 74 146 145h30q-58 -175 -102.5 -428.5t-44.5 -401.5q0 -36 8 -49.5t29 -13.5q53 0 107 80.5t69 181.5l31 -6q-22 -136 -96.5 -221.5t-170.5 -85.5 q-72 0 -114.5 39.5t-42.5 113.5q0 43 10 91zM358 23q42 0 90 34t93 95q74 100 125 248.5t51 279.5q0 109 -44.5 167t-127.5 58q-87 0 -155.5 -88t-107 -245t-38.5 -353q0 -107 26 -151.5t88 -44.5zM600 1106q-77 0 -117.5 50t-40.5 116q0 64 39 109.5t117 45.5t119 -46 t41 -109q0 -65 -41 -115.5t-117 -50.5zM600 1137q59 0 91 40t32 91q0 52 -30 90.5t-95 38.5q-63 0 -92 -37.5t-29 -87.5q0 -55 31.5 -95t91.5 -40z" />
<glyph unicode="&#xe6;" horiz-adv-x="1388" d="M354 643l-2 -16q-39 -13 -82 -13q-65 0 -102 30.5t-37 84.5q0 94 94 150.5t260 56.5q202 0 263 -129q129 129 321 129q117 0 189.5 -47.5t72.5 -138.5q0 -85 -77 -149.5t-182.5 -94t-213.5 -29.5h-76q-16 -93 -16 -205q0 -138 46.5 -197t148.5 -59q59 0 114.5 24t100 79 t55.5 131l33 -4q-19 -109 -103 -184.5t-219 -75.5q-113 0 -197 50t-124 150q-42 -88 -127 -144t-211 -56q-47 0 -91 12.5t-82 36.5t-60.5 66t-22.5 96q0 145 145 228t393 83h33l41 215q34 186 -152 186q-103 0 -159 -46t-56 -140q0 -82 62 -82q12 0 20 2zM594 477h-31 q-352 0 -352 -321q0 -136 115 -136q93 0 171 62t107 149q-16 66 -16 140q0 53 6 106zM788 508h74q152 0 222.5 65t70.5 191q0 77 -20 111t-68 34q-67 0 -125 -58t-95.5 -146t-58.5 -197z" />
<glyph unicode="&#xe7;" horiz-adv-x="858" d="M188 -326l29 -4q-4 -10 -4 -26q0 -42 34 -66t79 -24q55 0 89 36t34 95q0 56 -34.5 80t-113.5 34l74 189q-140 13 -224.5 110t-84.5 273q0 80 16 158t51.5 152t87 130.5t128.5 90.5t169 34q127 0 213 -57t86 -142q0 -54 -36.5 -99.5t-108.5 -45.5q-48 0 -92 16l4 17 q12 -4 22 -4q35 0 59.5 44.5t24.5 98.5q0 63 -42.5 104t-117.5 41q-52 0 -95.5 -26t-72.5 -67.5t-51 -99.5t-34.5 -115.5t-20 -122t-10 -112.5t-2.5 -94q0 -138 46 -196t148 -58q92 0 172.5 60t100.5 172l30 -4q-19 -110 -102.5 -185t-218.5 -75h-12l-37 -101 q34 -4 65.5 -15t62.5 -30.5t49.5 -53t18.5 -77.5q0 -84 -64.5 -136t-158.5 -52q-71 0 -116.5 32.5t-45.5 90.5q0 10 1.5 17.5t2.5 10.5z" />
<glyph unicode="&#xe8;" horiz-adv-x="864" d="M709 250l30 -4q-19 -110 -102.5 -185t-218.5 -75q-158 0 -256.5 98t-98.5 287q0 84 18 164t57 153t94.5 128t136 87.5t176.5 32.5q117 0 189.5 -47.5t72.5 -138.5q0 -43 -18.5 -78.5t-45.5 -58.5t-69.5 -44t-76.5 -32.5t-82.5 -27t-72.5 -24.5q-139 -55 -196 -110 q-4 -70 -4 -103q0 -138 46 -196t148 -58q92 0 172.5 60t100.5 172zM250 418q61 48 174 94q48 19 82.5 40t66.5 53.5t49 80t17 109.5q0 61 -23.5 87.5t-72.5 26.5q-58 0 -109 -42t-87 -113t-60.5 -156.5t-36.5 -179.5zM643 1075l-27 -14q-37 70 -86 134.5t-84.5 100t-60.5 73 t-25 69.5q0 30 23 52.5t55 22.5q43 0 67 -36t33.5 -88.5t36.5 -143.5t68 -170z" />
<glyph unicode="&#xe9;" horiz-adv-x="864" d="M709 250l30 -4q-19 -110 -102.5 -185t-218.5 -75q-158 0 -256.5 98t-98.5 287q0 84 18 164t57 153t94.5 128t136 87.5t176.5 32.5q117 0 189.5 -47.5t72.5 -138.5q0 -43 -18.5 -78.5t-45.5 -58.5t-69.5 -44t-76.5 -32.5t-82.5 -27t-72.5 -24.5q-139 -55 -196 -110 q-4 -70 -4 -103q0 -138 46 -196t148 -58q92 0 172.5 60t100.5 172zM250 418q61 48 174 94q48 19 82.5 40t66.5 53.5t49 80t17 109.5q0 61 -23.5 87.5t-72.5 26.5q-58 0 -109 -42t-87 -113t-60.5 -156.5t-36.5 -179.5zM479 1063l-22 20q73 84 127 174t75.5 140t49.5 83t65 33 q31 0 54.5 -21.5t23.5 -53.5q0 -31 -17.5 -55.5t-53.5 -51t-78.5 -56.5t-104.5 -86.5t-119 -125.5z" />
<glyph unicode="&#xea;" horiz-adv-x="864" d="M709 250l30 -4q-19 -110 -102.5 -185t-218.5 -75q-158 0 -256.5 98t-98.5 287q0 84 18 164t57 153t94.5 128t136 87.5t176.5 32.5q117 0 189.5 -47.5t72.5 -138.5q0 -43 -18.5 -78.5t-45.5 -58.5t-69.5 -44t-76.5 -32.5t-82.5 -27t-72.5 -24.5q-139 -55 -196 -110 q-4 -70 -4 -103q0 -138 46 -196t148 -58q92 0 172.5 60t100.5 172zM250 418q61 48 174 94q48 19 82.5 40t66.5 53.5t49 80t17 109.5q0 61 -23.5 87.5t-72.5 26.5q-58 0 -109 -42t-87 -113t-60.5 -156.5t-36.5 -179.5zM305 1079l279 418h37l180 -418h-139l-127 289l-193 -289 h-37z" />
<glyph unicode="&#xeb;" horiz-adv-x="864" d="M709 250l30 -4q-19 -110 -102.5 -185t-218.5 -75q-158 0 -256.5 98t-98.5 287q0 84 18 164t57 153t94.5 128t136 87.5t176.5 32.5q117 0 189.5 -47.5t72.5 -138.5q0 -43 -18.5 -78.5t-45.5 -58.5t-69.5 -44t-76.5 -32.5t-82.5 -27t-72.5 -24.5q-139 -55 -196 -110 q-4 -70 -4 -103q0 -138 46 -196t148 -58q92 0 172.5 60t100.5 172zM250 418q61 48 174 94q48 19 82.5 40t66.5 53.5t49 80t17 109.5q0 61 -23.5 87.5t-72.5 26.5q-58 0 -109 -42t-87 -113t-60.5 -156.5t-36.5 -179.5zM754 1145q-40 0 -69.5 30t-29.5 70t29.5 70.5t69.5 30.5 q41 0 70.5 -30.5t29.5 -70.5t-29.5 -70t-70.5 -30zM387 1145q-41 0 -70.5 30t-29.5 70t29.5 70.5t70.5 30.5q39 0 68.5 -30.5t29.5 -70.5t-29 -70t-69 -30z" />
<glyph unicode="&#xec;" horiz-adv-x="561" d="M492 305l30 -6q-16 -121 -87.5 -214t-170.5 -93q-69 0 -111 36.5t-42 114.5q0 53 51 362t51 386h-137l2 31h315q0 -83 -56 -424t-56 -402q0 -53 38 -53q53 0 107.5 83.5t65.5 178.5zM416 1075l-27 -14q-37 70 -86 134.5t-84.5 100t-60.5 73t-25 69.5q0 30 23 52.5 t55 22.5q43 0 67 -36t33.5 -88.5t36.5 -143.5t68 -170z" />
<glyph unicode="&#xed;" horiz-adv-x="561" d="M492 305l30 -6q-16 -121 -87.5 -214t-170.5 -93q-69 0 -111 36.5t-42 114.5q0 53 51 362t51 386h-137l2 31h315q0 -83 -56 -424t-56 -402q0 -53 38 -53q53 0 107.5 83.5t65.5 178.5zM252 1063l-23 20q60 70 107 143t70.5 121t45 88t43 59t52.5 19t54.5 -21.5t23.5 -53.5 q0 -31 -17.5 -55.5t-53.5 -51t-78.5 -56.5t-104.5 -86.5t-119 -125.5z" />
<glyph unicode="&#xee;" horiz-adv-x="561" d="M492 305l30 -6q-16 -121 -87.5 -214t-170.5 -93q-69 0 -111 36.5t-42 114.5q0 53 51 362t51 386h-137l2 31h315q0 -83 -56 -424t-56 -402q0 -53 38 -53q53 0 107.5 83.5t65.5 178.5zM78 1079l278 418h37l180 -418h-139l-127 289l-192 -289h-37z" />
<glyph unicode="&#xef;" horiz-adv-x="561" d="M492 305l30 -6q-16 -121 -87.5 -214t-170.5 -93q-69 0 -111 36.5t-42 114.5q0 53 51 362t51 386h-137l2 31h315q0 -83 -56 -424t-56 -402q0 -53 38 -53q53 0 107.5 83.5t65.5 178.5zM526 1145q-40 0 -69 30t-29 70t29.5 70.5t68.5 30.5q41 0 71 -30.5t30 -70.5t-30 -70 t-71 -30zM160 1145q-41 0 -71 30t-30 70t30 70.5t71 30.5q39 0 68.5 -30.5t29.5 -70.5t-29 -70t-69 -30z" />
<glyph unicode="&#xf0;" horiz-adv-x="1036" d="M285 1034l-11 27l361 184q-107 195 -305 209l4 29q223 -15 381 -197l227 117l12 -25l-221 -114q94 -116 145.5 -275t51.5 -338q0 -316 -121.5 -490.5t-341.5 -174.5q-197 0 -298 108.5t-101 296.5q0 77 15.5 150.5t50 143t84.5 122t125.5 84t166.5 31.5q175 0 240 -103 q-22 237 -103 402zM430 12q132 0 199 101.5t98 337.5q16 122 16 196q0 124 -44 180t-144 56q-131 0 -197.5 -96t-97.5 -332q-16 -122 -16 -195q0 -127 43.5 -187.5t142.5 -60.5z" />
<glyph unicode="&#xf1;" horiz-adv-x="1148" d="M268 0h-176q18 117 43.5 280.5t35.5 226.5t21.5 149.5t15 135.5t3.5 99h-137l2 31h319q0 -29 -3 -66t-5.5 -63.5t-11 -80.5t-12 -75.5t-16 -93t-15.5 -90.5h8q60 168 123 268q136 215 303 215q203 0 203 -201q0 -102 -52.5 -324.5t-52.5 -314.5q0 -28 11.5 -40.5 t27.5 -12.5q53 0 107 83.5t65 178.5l31 -6q-16 -121 -87.5 -214t-170.5 -93q-69 0 -111.5 37t-42.5 114q0 67 54.5 302t54.5 333q0 113 -76 113q-122 0 -238 -186q-82 -131 -140.5 -325.5t-80.5 -379.5zM377 1112h-33q34 126 78.5 186t116.5 60q39 0 70 -14.5t53 -35 t43.5 -40.5t52.5 -34.5t69 -14.5q49 0 80.5 30t53.5 109h32q-34 -129 -79 -187.5t-126 -58.5q-44 0 -77.5 14.5t-54.5 35t-40.5 40.5t-47 34.5t-62.5 14.5q-47 0 -76.5 -30.5t-52.5 -108.5z" />
<glyph unicode="&#xf2;" d="M66 362q0 58 8 107q30 222 146.5 344.5t320.5 122.5q198 0 293.5 -96t95.5 -273q0 -272 -133.5 -426.5t-345.5 -154.5q-190 0 -287.5 100.5t-97.5 275.5zM434 12q133 0 199.5 102.5t99.5 344.5q17 133 17 200q0 128 -44.5 189t-144.5 61q-132 0 -199.5 -101t-99.5 -345 q-16 -122 -16 -197q0 -130 44 -192t144 -62zM684 1075l-27 -14q-37 70 -86 134.5t-84.5 100t-60.5 73t-25 69.5q0 30 23 52.5t55 22.5q43 0 67 -36t33.5 -88.5t36.5 -143.5t68 -170z" />
<glyph unicode="&#xf3;" d="M66 362q0 58 8 107q30 222 146.5 344.5t320.5 122.5q198 0 293.5 -96t95.5 -273q0 -272 -133.5 -426.5t-345.5 -154.5q-190 0 -287.5 100.5t-97.5 275.5zM434 12q133 0 199.5 102.5t99.5 344.5q17 133 17 200q0 128 -44.5 189t-144.5 61q-132 0 -199.5 -101t-99.5 -345 q-16 -122 -16 -197q0 -130 44 -192t144 -62zM520 1063l-22 20q73 84 127 174t75.5 140t49.5 83t65 33q31 0 54.5 -21.5t23.5 -53.5q0 -31 -17.5 -55.5t-53.5 -51t-78.5 -56.5t-104.5 -86.5t-119 -125.5z" />
<glyph unicode="&#xf4;" d="M66 362q0 58 8 107q30 222 146.5 344.5t320.5 122.5q198 0 293.5 -96t95.5 -273q0 -272 -133.5 -426.5t-345.5 -154.5q-190 0 -287.5 100.5t-97.5 275.5zM434 12q133 0 199.5 102.5t99.5 344.5q17 133 17 200q0 128 -44.5 189t-144.5 61q-132 0 -199.5 -101t-99.5 -345 q-16 -122 -16 -197q0 -130 44 -192t144 -62zM346 1079l279 418h37l180 -418h-140l-127 289l-192 -289h-37z" />
<glyph unicode="&#xf5;" d="M66 362q0 58 8 107q30 222 146.5 344.5t320.5 122.5q198 0 293.5 -96t95.5 -273q0 -272 -133.5 -426.5t-345.5 -154.5q-190 0 -287.5 100.5t-97.5 275.5zM434 12q133 0 199.5 102.5t99.5 344.5q17 133 17 200q0 128 -44.5 189t-144.5 61q-132 0 -199.5 -101t-99.5 -345 q-16 -122 -16 -197q0 -130 44 -192t144 -62zM317 1112h-32q34 127 78 186.5t116 59.5q39 0 70 -14.5t53 -35t44 -40.5t53 -34.5t69 -14.5q49 0 80 30t53 109h33q-34 -129 -79 -187.5t-126 -58.5q-44 0 -77.5 14.5t-54.5 35t-41 40.5t-47.5 34.5t-62.5 14.5 q-47 0 -76.5 -30.5t-52.5 -108.5z" />
<glyph unicode="&#xf6;" d="M66 362q0 58 8 107q30 222 146.5 344.5t320.5 122.5q198 0 293.5 -96t95.5 -273q0 -272 -133.5 -426.5t-345.5 -154.5q-190 0 -287.5 100.5t-97.5 275.5zM434 12q133 0 199.5 102.5t99.5 344.5q17 133 17 200q0 128 -44.5 189t-144.5 61q-132 0 -199.5 -101t-99.5 -345 q-16 -122 -16 -197q0 -130 44 -192t144 -62zM795 1145q-40 0 -69.5 30t-29.5 70t29.5 70.5t69.5 30.5q41 0 70.5 -30.5t29.5 -70.5t-29.5 -70t-70.5 -30zM428 1145q-41 0 -70.5 30t-29.5 70t29.5 70.5t70.5 30.5q39 0 68.5 -30.5t29.5 -70.5t-29 -70t-69 -30z" />
<glyph unicode="&#xf7;" horiz-adv-x="1105" d="M543 760q-51 0 -87 36t-36 87t36 87t87 36t87 -36t36 -87t-36 -87t-87 -36zM84 481v31h917v-31h-917zM420 102q0 51 36 87t87 36t87 -36t36 -87t-36 -86.5t-87 -35.5t-87 35.5t-36 86.5z" />
<glyph unicode="&#xf8;" d="M131 -86l86 129q-151 93 -151 319q0 58 8 107q30 222 146.5 344.5t320.5 122.5q148 0 239 -55l107 159l24 -16l-106 -160q125 -89 125 -297q0 -272 -133.5 -426.5t-345.5 -154.5q-125 0 -207 43l-88 -131zM266 117l463 688q-40 104 -168 104q-132 0 -199.5 -101 t-99.5 -345q-16 -122 -16 -197q0 -93 20 -149zM739 768l-456 -682q44 -74 151 -74q133 0 199.5 102.5t99.5 344.5q17 133 17 200q0 52 -11 109z" />
<glyph unicode="&#xf9;" horiz-adv-x="1148" d="M78 891l4 31h315q-2 -81 -56 -383t-54 -398q0 -60 18.5 -85t61.5 -25q49 0 96.5 32t84 79.5t70 111t55 116.5t38.5 105q55 171 100 447h176q-18 -115 -43.5 -272.5t-39.5 -244t-25 -170t-11 -122.5q0 -70 39 -70q53 0 106.5 82t65.5 180l31 -6q-19 -126 -89.5 -216.5 t-172.5 -90.5q-67 0 -108.5 37.5t-41.5 117.5q0 47 23.5 166t28.5 156h-9q-19 -55 -36 -97.5t-46 -104t-61.5 -106.5t-73.5 -87.5t-92 -65t-108 -22.5q-95 0 -154 47t-59 147q0 65 50 338t54 373h-137zM719 1075l-27 -14q-37 70 -86 134.5t-84.5 100t-60.5 73t-25 69.5 q0 30 23 52.5t55 22.5q43 0 67 -36t33.5 -88.5t36.5 -143.5t68 -170z" />
<glyph unicode="&#xfa;" horiz-adv-x="1148" d="M78 891l4 31h315q-2 -81 -56 -383t-54 -398q0 -60 18.5 -85t61.5 -25q49 0 96.5 32t84 79.5t70 111t55 116.5t38.5 105q55 171 100 447h176q-18 -115 -43.5 -272.5t-39.5 -244t-25 -170t-11 -122.5q0 -70 39 -70q53 0 106.5 82t65.5 180l31 -6q-19 -126 -89.5 -216.5 t-172.5 -90.5q-67 0 -108.5 37.5t-41.5 117.5q0 47 23.5 166t28.5 156h-9q-19 -55 -36 -97.5t-46 -104t-61.5 -106.5t-73.5 -87.5t-92 -65t-108 -22.5q-95 0 -154 47t-59 147q0 65 50 338t54 373h-137zM555 1063l-23 20q60 70 107 143t70.5 121t45 88t43 59t52.5 19 t54.5 -21.5t23.5 -53.5q0 -31 -17.5 -55.5t-53.5 -51t-78.5 -56.5t-104.5 -86.5t-119 -125.5z" />
<glyph unicode="&#xfb;" horiz-adv-x="1148" d="M78 891l4 31h315q-2 -81 -56 -383t-54 -398q0 -60 18.5 -85t61.5 -25q49 0 96.5 32t84 79.5t70 111t55 116.5t38.5 105q55 171 100 447h176q-18 -115 -43.5 -272.5t-39.5 -244t-25 -170t-11 -122.5q0 -70 39 -70q53 0 106.5 82t65.5 180l31 -6q-19 -126 -89.5 -216.5 t-172.5 -90.5q-67 0 -108.5 37.5t-41.5 117.5q0 47 23.5 166t28.5 156h-9q-19 -55 -36 -97.5t-46 -104t-61.5 -106.5t-73.5 -87.5t-92 -65t-108 -22.5q-95 0 -154 47t-59 147q0 65 50 338t54 373h-137zM381 1079l278 418h37l181 -418h-140l-127 289l-192 -289h-37z" />
<glyph unicode="&#xfc;" horiz-adv-x="1148" d="M78 891l4 31h315q-2 -81 -56 -383t-54 -398q0 -60 18.5 -85t61.5 -25q49 0 96.5 32t84 79.5t70 111t55 116.5t38.5 105q55 171 100 447h176q-18 -115 -43.5 -272.5t-39.5 -244t-25 -170t-11 -122.5q0 -70 39 -70q53 0 106.5 82t65.5 180l31 -6q-19 -126 -89.5 -216.5 t-172.5 -90.5q-67 0 -108.5 37.5t-41.5 117.5q0 47 23.5 166t28.5 156h-9q-19 -55 -36 -97.5t-46 -104t-61.5 -106.5t-73.5 -87.5t-92 -65t-108 -22.5q-95 0 -154 47t-59 147q0 65 50 338t54 373h-137zM829 1145q-40 0 -69 30t-29 70t29.5 70.5t68.5 30.5q41 0 71 -30.5 t30 -70.5t-30 -70t-71 -30zM463 1145q-41 0 -71 30t-30 70t30 70.5t71 30.5q39 0 68.5 -30.5t29.5 -70.5t-29 -70t-69 -30z" />
<glyph unicode="&#xfd;" horiz-adv-x="1003" d="M139 -193l-4 -16q-43 1 -64.5 -33.5t-21.5 -85.5q0 -60 33.5 -94.5t99.5 -34.5q80 0 135 50.5t79 130.5t24 182q0 153 -42 372.5t-99 409.5q-29 103 -52 136.5t-49 33.5q-48 0 -87 -70.5t-54 -164.5l-31 6q23 146 91.5 226.5t160.5 80.5q51 0 88 -29t66 -92 q59 -132 104 -343.5t49 -375.5q115 106 207 252q119 193 119 311q0 68 -37.5 110t-101.5 42q-42 0 -69 -17t-34 -67l-16 4q-3 96 34.5 150.5t112.5 54.5q57 0 95 -32.5t52.5 -78t14.5 -100.5q0 -169 -143 -393q-107 -166 -234 -277q-2 -151 -46 -271t-133.5 -193.5 t-211.5 -73.5q-102 0 -178 46.5t-76 117.5q0 24 9.5 45.5t32 43t68 32t109.5 5.5zM539 1063l-23 20q60 70 107 143t70.5 121t45 88t43 59t52.5 19t54 -21t23 -54q0 -31 -17.5 -55.5t-53.5 -51t-78 -56.5t-104 -86.5t-119 -125.5z" />
<glyph unicode="&#xfe;" horiz-adv-x="1040" d="M-141 -467l2 31h145q17 134 86 594t122.5 837.5t53.5 444.5h-178l4 30h355q0 -84 -66 -550q-7 -53 -20.5 -140t-16.5 -108h8q30 56 60.5 98.5t71.5 82.5t92.5 61.5t111.5 21.5q120 0 192 -89.5t72 -248.5q0 -151 -64.5 -292t-178 -230.5t-244.5 -89.5q-88 0 -137 41 t-66 104q-67 -428 -78 -567h142l-2 -31h-467zM446 20q69 0 125.5 46.5t92.5 118.5t60.5 163.5t35 177t10.5 164.5q0 106 -24.5 158.5t-83.5 52.5q-68 0 -137 -57t-126 -154q-61 -106 -89.5 -226t-28.5 -210q0 -111 42 -172.5t123 -61.5z" />
<glyph unicode="&#xff;" horiz-adv-x="1003" d="M139 -193l-4 -16q-43 1 -64.5 -33.5t-21.5 -85.5q0 -60 33.5 -94.5t99.5 -34.5q80 0 135 50.5t79 130.5t24 182q0 153 -42 372.5t-99 409.5q-29 103 -52 136.5t-49 33.5q-48 0 -87 -70.5t-54 -164.5l-31 6q23 146 91.5 226.5t160.5 80.5q51 0 88 -29t66 -92 q59 -132 104 -343.5t49 -375.5q115 106 207 252q119 193 119 311q0 68 -37.5 110t-101.5 42q-42 0 -69 -17t-34 -67l-16 4q-3 96 34.5 150.5t112.5 54.5q57 0 95 -32.5t52.5 -78t14.5 -100.5q0 -169 -143 -393q-107 -166 -234 -277q-2 -151 -46 -271t-133.5 -193.5 t-211.5 -73.5q-102 0 -178 46.5t-76 117.5q0 24 9.5 45.5t32 43t68 32t109.5 5.5zM813 1145q-40 0 -69 30t-29 70t29.5 70.5t68.5 30.5q41 0 70.5 -30.5t29.5 -70.5t-29.5 -70t-70.5 -30zM446 1145q-41 0 -70.5 30t-29.5 70t29.5 70.5t70.5 30.5q40 0 69.5 -30.5t29.5 -70.5 t-29.5 -70t-69.5 -30z" />
<glyph unicode="&#x152;" horiz-adv-x="1830" d="M1001 31h453q70 0 111 65q32 52 86 229q3 13 11 39q9 27 13 42h33q-57 -187 -88 -406h-803q-93 -14 -172 -14q-141 0 -244 39.5t-164 113t-89.5 169.5t-28.5 218q0 97 14 189q15 108 48 202.5t89.5 178t132 143.5t179.5 94.5t227 34.5q89 0 182 -14h844 q-66 -162 -113 -383h-32l30 221q5 33 6.5 54t-1 36t-6.5 23t-15.5 12t-22.5 5t-32 1h-465l-90 -639h327l25 180h33l-58 -409h-32l28 198h-327zM809 29l184 1292q-78 16 -174 16q-81 0 -146.5 -22t-113.5 -65.5t-83.5 -98.5t-61 -133t-42 -155t-30.5 -177q-23 -164 -23 -276 q0 -91 16 -160t52 -123t99.5 -82.5t152.5 -28.5q90 0 170 13z" />
<glyph unicode="&#x153;" horiz-adv-x="1527" d="M1370 250l33 -4q-19 -109 -103 -184.5t-219 -75.5q-98 0 -172.5 46t-113.5 136q-61 -89 -149.5 -135.5t-194.5 -46.5q-190 0 -287.5 100.5t-97.5 275.5q0 58 8 107q30 222 146.5 344.5t320.5 122.5q248 0 325 -180q126 180 342 180q117 0 189.5 -47.5t72.5 -138.5 q0 -43 -18.5 -78.5t-45 -58.5t-69.5 -44t-76.5 -32.5t-82 -27t-72.5 -24.5q-141 -56 -197 -110q-4 -70 -4 -103q0 -138 46.5 -197t148.5 -59q59 0 114.5 24t100 79t55.5 131zM434 12q133 0 199.5 102.5t99.5 344.5q17 133 17 200q0 128 -44.5 189t-144.5 61 q-132 0 -199.5 -101t-99.5 -345q-16 -122 -16 -197q0 -130 44 -192t144 -62zM913 418q33 28 67.5 46.5t106.5 47.5q48 19 82.5 40t67 53.5t49.5 80t17 109.5q0 61 -24 87.5t-73 26.5q-58 0 -109 -42t-87 -113t-60.5 -156.5t-36.5 -179.5z" />
<glyph unicode="&#x178;" horiz-adv-x="1230" d="M276 0l5 31h176l45 309q24 166 -7 333t-101.5 318.5t-188.5 331.5h-142l5 31h536l-4 -31h-178q123 -164 194.5 -363t85.5 -413q46 168 151 344t226 317q23 26 28 52t-14.5 44.5t-64.5 18.5h-82l4 31h379l-4 -31h-41q-18 0 -36.5 -7t-30 -13t-33.5 -27.5t-30 -31 t-38 -42.5q-93 -104 -172 -219.5t-149.5 -273t-92.5 -306.5l-53 -372h178l-4 -31h-547zM967 1473q-40 0 -69.5 30t-29.5 70t29.5 70t69.5 30q41 0 70.5 -30t29.5 -70t-29.5 -70t-70.5 -30zM580 1473q-41 0 -71 30t-30 70t30 70t71 30q40 0 69 -30t29 -70t-29 -70t-69 -30z " />
<glyph unicode="&#x2c6;" d="M281 1079l278 418h37l180 -418h-139l-127 289l-193 -289h-36z" />
<glyph unicode="&#x2dc;" d="M252 1112h-33q34 126 78.5 186t116.5 60q39 0 70 -14.5t53 -35t43.5 -40.5t52.5 -34.5t69 -14.5q49 0 80.5 30t53.5 109h32q-34 -130 -78.5 -188t-125.5 -58q-44 0 -77.5 14.5t-54.5 35t-41 40.5t-47.5 34.5t-62.5 14.5q-47 0 -76.5 -30.5t-52.5 -108.5z" />
<glyph unicode="&#x2000;" horiz-adv-x="882" />
<glyph unicode="&#x2001;" horiz-adv-x="1765" />
<glyph unicode="&#x2002;" horiz-adv-x="882" />
<glyph unicode="&#x2003;" horiz-adv-x="1765" />
<glyph unicode="&#x2004;" horiz-adv-x="588" />
<glyph unicode="&#x2005;" horiz-adv-x="441" />
<glyph unicode="&#x2006;" horiz-adv-x="294" />
<glyph unicode="&#x2007;" horiz-adv-x="294" />
<glyph unicode="&#x2008;" horiz-adv-x="220" />
<glyph unicode="&#x2009;" horiz-adv-x="353" />
<glyph unicode="&#x200a;" horiz-adv-x="98" />
<glyph unicode="&#x2010;" horiz-adv-x="784" d="M113 408l18 149h516l-18 -149h-516z" />
<glyph unicode="&#x2011;" horiz-adv-x="784" d="M113 408l18 149h516l-18 -149h-516z" />
<glyph unicode="&#x2012;" horiz-adv-x="784" d="M113 408l18 149h516l-18 -149h-516z" />
<glyph unicode="&#x2013;" horiz-adv-x="1325" d="M135 412v120h1024v-120h-1024z" />
<glyph unicode="&#x2014;" horiz-adv-x="2349" d="M135 412v120h2048v-120h-2048z" />
<glyph unicode="&#x2018;" horiz-adv-x="491" d="M512 1468l-4 -30q-92 0 -173 -67t-81 -163q0 -55 49 -95t150 -48q-8 -58 -43.5 -93.5t-96.5 -35.5q-71 0 -107 45.5t-36 114.5q0 91 44.5 176.5t124.5 140.5t173 55z" />
<glyph unicode="&#x2019;" horiz-adv-x="501" d="M170 936l4 31q92 0 173 66.5t81 162.5q0 55 -49 95t-150 48q8 58 43.5 93.5t96.5 35.5q71 0 107 -45t36 -114q0 -141 -101 -257t-241 -116z" />
<glyph unicode="&#x201a;" horiz-adv-x="501" d="M-14 -295l4 31q92 0 173 66.5t81 162.5q0 56 -49 96t-150 48q8 58 43.5 93.5t95.5 35.5q71 0 107.5 -45.5t36.5 -114.5q0 -141 -101 -257t-241 -116z" />
<glyph unicode="&#x201c;" horiz-adv-x="862" d="M512 1468l-4 -30q-92 0 -173 -67t-81 -163q0 -55 49 -95t150 -48q-8 -58 -43.5 -93.5t-96.5 -35.5q-71 0 -107 45.5t-36 114.5q0 91 44.5 176.5t124.5 140.5t173 55zM883 1468l-4 -30q-92 0 -173 -67t-81 -163q0 -56 48.5 -95.5t149.5 -47.5q-8 -58 -43.5 -93.5 t-95.5 -35.5q-71 0 -107 45.5t-36 114.5q0 91 44.5 176.5t124.5 140.5t173 55z" />
<glyph unicode="&#x201d;" horiz-adv-x="870" d="M541 936l4 31q92 0 173 66.5t81 162.5q0 55 -49 95t-150 48q8 58 43 93.5t96 35.5q71 0 107.5 -45t36.5 -114q0 -141 -101 -257t-241 -116zM170 936l4 31q92 0 173 66.5t81 162.5q0 55 -49 95t-150 48q8 58 43.5 93.5t96.5 35.5q71 0 107 -45t36 -114q0 -141 -101 -257 t-241 -116z" />
<glyph unicode="&#x201e;" horiz-adv-x="870" d="M-14 -295l4 31q92 0 173 66.5t81 162.5q0 56 -49 96t-150 48q8 58 43.5 93.5t95.5 35.5q71 0 107.5 -45.5t36.5 -114.5q0 -141 -101 -257t-241 -116zM356 -295l4 31q92 0 173 66.5t81 162.5q0 56 -48.5 96t-149.5 48q8 58 43 93.5t96 35.5q71 0 107 -45.5t36 -114.5 q0 -141 -101 -257t-241 -116z" />
<glyph unicode="&#x2022;" horiz-adv-x="874" d="M141 481q0 117 83 200t200 83t200 -83t83 -200t-83 -199.5t-200 -82.5t-200 82.5t-83 199.5z" />
<glyph unicode="&#x2026;" horiz-adv-x="1470" d="M51 113q0 51 35 85.5t86 34.5t86 -34.5t35 -85.5t-35 -86t-86 -35t-86 35t-35 86zM553 113q0 51 35 85.5t86 34.5t86 -34.5t35 -85.5t-35 -86t-86 -35t-86 35t-35 86zM1059 113q0 51 35 85.5t86 34.5t85.5 -34.5t34.5 -85.5t-34.5 -86t-85.5 -35t-86 35t-35 86z" />
<glyph unicode="&#x202f;" horiz-adv-x="353" />
<glyph unicode="&#x2039;" horiz-adv-x="544" d="M387 39l-20 -23q-131 118 -207 238.5t-76 210.5q0 95 102.5 217.5t270.5 228.5l18 -24q-41 -30 -65.5 -50t-45.5 -47.5t-31.5 -50t-20.5 -64.5t-15 -82.5t-12 -113.5q-13 -124 -13 -184q0 -85 22 -137t93 -119z" />
<glyph unicode="&#x203a;" horiz-adv-x="544" d="M57 16l-18 25q41 30 65.5 50t45.5 47.5t31.5 50t20.5 64.5t15 82.5t12 113.5q13 123 13 184q0 85 -22 137t-93 119l20 22q132 -118 207.5 -238t75.5 -210q0 -96 -102.5 -219t-270.5 -228z" />
<glyph unicode="&#x205f;" horiz-adv-x="441" />
<glyph unicode="&#x20ac;" horiz-adv-x="1183" d="M59 469l4 31h150q6 75 20 147h-149l4 31h154q56 219 197.5 343t336.5 124q166 0 244 -105q32 5 51 26t41 64h27q-66 -188 -76 -266l-14 -102h-31l6 45q4 40 4 61q0 116 -65 181t-179 65q-139 0 -227.5 -105.5t-130.5 -330.5h360l-4 -31h-360q-9 -40 -21 -147h361l-4 -31 h-359q-6 -67 -6 -123q0 -164 54.5 -247t175.5 -83q75 0 138 24.5t105 65.5t69 90.5t38 104.5h31q-3 -25 -14 -58.5t-39.5 -80.5t-69 -84.5t-110 -64.5t-155.5 -27q-187 0 -295 126.5t-108 348.5v8h-154z" />
<glyph unicode="&#x2122;" horiz-adv-x="1849" d="M920 723v31h28q34 0 49 15.5t15 47.5v506h-97v31h226l196 -467l193 467h231v-31h-96v-569h96v-31h-319v31h88v518l-227 -549h-31l-230 551v-457q0 -32 15 -47.5t49 -15.5h29v-31h-215zM367 723v31h100v569h-107h-6h-28.5t-21 -2.5t-17 -6t-11.5 -13t-9 -19.5t-5.5 -30 t-5.5 -41t-4 -56h-31v199h627v-199h-31q-2 35 -4 56t-5.5 41t-5.5 30t-9 19.5t-11.5 13t-17 6t-21 2.5h-28.5h-6h-107v-569h100v-31h-335z" />
<glyph unicode="&#x25fc;" horiz-adv-x="931" d="M0 932h932v-932h-932v932z" />
</font>
</defs>
</svg>
