<?xml version="1.0" standalone="no"?>
<!DOCTYPE svg PUBLIC "-//W3C//DTD SVG 1.1//EN" "http://www.w3.org/Graphics/SVG/1.1/DTD/svg11.dtd" >
<svg xmlns="http://www.w3.org/2000/svg">
<metadata></metadata>
<defs>
<font id="questa_sanslight" horiz-adv-x="1105" >
<font-face units-per-em="2048" ascent="1536" descent="-512" />
<missing-glyph horiz-adv-x="495" />
<glyph unicode="&#xfb01;" horiz-adv-x="1122" d="M819 0v825h-448v-825h-135v825h-177v113h177v152q0 190 97 298.5t271 108.5q53 0 98 -10.5t74.5 -27t53 -37t36.5 -41t21.5 -37t10.5 -26.5l3 -11l-117 -72q-28 70 -69.5 108.5t-122.5 38.5q-221 0 -221 -317v-127h585v-938h-137z" />
<glyph unicode="&#xfb02;" horiz-adv-x="1134" d="M831 0v1329q-64 55 -190 55q-143 0 -205.5 -81t-62.5 -248v-117h270v-113h-270v-825h-137v825h-177v113h177v137q0 202 99.5 312t309.5 110q110 0 189 -27h135v-1470h-138z" />
<glyph unicode="&#xfb03;" horiz-adv-x="1730" d="M59 825v113h177v117q0 192 93 301.5t263 109.5q48 0 88.5 -9.5t64.5 -22.5t41.5 -26t23.5 -22l7 -10l-82 -94q-54 72 -149 72q-114 0 -163.5 -81t-49.5 -235v-100h471v152q0 190 97 298.5t271 108.5q53 0 98 -10.5t74.5 -27t53 -37t36.5 -41t21.5 -37t10.5 -26.5l3 -11 l-116 -72q-28 70 -70 108.5t-123 38.5q-221 0 -221 -317v-127h586v-938h-138v825h-448v-825h-135v825h-471v-825h-137v825h-177z" />
<glyph unicode="&#xfb04;" horiz-adv-x="1730" d="M1430 0v1337q-63 47 -173 47q-149 0 -213.5 -79.5t-64.5 -249.5v-117h272v-113h-272v-825h-135v825h-471v-825h-137v825h-177v113h177v117q0 192 92.5 301.5t261.5 109.5q48 0 89 -9.5t65.5 -22.5t42 -26t23.5 -22l7 -10l-82 -94q-54 72 -151 72q-112 0 -161.5 -81.5 t-49.5 -234.5v-100h471v137q0 206 100.5 314t317.5 108q101 0 180 -27h123v-1470h-135z" />
<glyph horiz-adv-x="0" />
<glyph horiz-adv-x="682" />
<glyph unicode=" "  horiz-adv-x="495" />
<glyph unicode="&#x09;" horiz-adv-x="495" />
<glyph unicode="&#xa0;" horiz-adv-x="495" />
<glyph unicode="!" horiz-adv-x="546" d="M221 440q-25 798 -31 914h166q-13 -231 -30 -914h-105zM152 104q0 47 36.5 84t83.5 37q51 0 88 -36.5t37 -84.5q0 -50 -37 -86t-88 -36q-48 0 -84 36.5t-36 85.5z" />
<glyph unicode="&#x22;" horiz-adv-x="745" d="M578 922h-95q-24 453 -24 559h141q0 -47 -5.5 -187t-10.5 -256zM262 922h-94q-25 453 -25 559h142q0 -47 -5.5 -187t-11.5 -256z" />
<glyph unicode="#" horiz-adv-x="1337" d="M160 711l20 106h269l98 453h110l-96 -453h316l96 453h112l-96 -453h254l-24 -106h-252l-60 -277h271l-23 -106h-270l-97 -451h-112l96 451h-315l-95 -451h-114l96 451h-252l25 106h250l59 277h-266zM539 711l-60 -277h316l59 277h-315z" />
<glyph unicode="$" d="M154 313l125 19q-14 -124 51.5 -183.5t179.5 -66.5v428q-62 24 -100 41.5t-88 49t-78 63.5t-48 80t-20 106q0 125 89 206t245 91v158h94v-158q147 -11 239.5 -82.5t92.5 -177.5q0 -19 -4 -47l-133 -23q2 10 2 33q0 79 -53 126t-144 58v-422q50 -20 73.5 -30t68 -31.5 t67 -37.5t54 -43t47 -53.5t27 -63t11.5 -77.5q0 -55 -22 -105.5t-64 -92.5t-109.5 -70t-152.5 -35v-157h-94v157q-62 3 -117 16.5t-104 40.5t-82 65t-48 94t-5 124zM819 258q0 76 -55.5 123.5t-159.5 91.5v-389q99 11 157 56.5t58 117.5zM307 868q0 -77 52.5 -127t150.5 -92 v387q-93 -8 -148 -52t-55 -116z" />
<glyph unicode="%" horiz-adv-x="1601" d="M88 1061q0 129 91 219t220 90t220.5 -90t91.5 -219q0 -130 -91 -219.5t-221 -89.5t-220.5 89.5t-90.5 219.5zM317 0l848 1354h127l-850 -1354h-125zM401 850q81 0 138 63.5t57 147.5t-58 145.5t-137 61.5q-81 0 -139.5 -61.5t-58.5 -145.5q0 -85 58 -148t140 -63z M893 293q0 130 89.5 218.5t219.5 88.5q131 0 221 -89t90 -218q0 -131 -90.5 -221t-220.5 -90t-219.5 90t-89.5 221zM1202 84q82 0 140.5 62.5t58.5 146.5q0 83 -58.5 146t-140.5 63q-81 0 -138.5 -62.5t-57.5 -146.5q0 -85 57.5 -147t138.5 -62z" />
<glyph unicode="&#x26;" horiz-adv-x="1452" d="M872 713v106h447v-106h-162q-7 -335 -137 -520l24 -31q32 -39 62.5 -58.5t75.5 -19.5q43 0 78.5 19t49.5 38l15 19l55 -86q-2 -4 -6.5 -11t-22 -25t-40 -31.5t-62.5 -24.5t-88 -11q-148 0 -246 117q-50 -43 -136 -80t-206 -37q-187 0 -309.5 103t-122.5 278q0 125 66 232 t186 174q-100 148 -100 295q0 143 96.5 236t265.5 93q67 0 123.5 -16t102 -48.5t69 -90t19.5 -133.5l-138 -25q9 191 -174 191q-102 0 -161.5 -51.5t-59.5 -135.5q0 -131 176 -358l326 -418q85 151 90 416h-156zM584 100q145 0 256 86l-373 478q-93 -51 -136.5 -116 t-43.5 -161q0 -133 79.5 -210t217.5 -77z" />
<glyph unicode="'" horiz-adv-x="430" d="M262 922h-94q-25 453 -25 559h142q0 -47 -5.5 -187t-11.5 -256z" />
<glyph unicode="(" horiz-adv-x="690" d="M625 -410l-82 -77q-9 7 -24.5 21t-60 62t-85 102.5t-89.5 143t-84.5 182.5t-60 221t-24.5 259t23.5 258.5t61.5 222.5t83.5 181t91 144t83.5 101.5t62 62.5l23 21l82 -78q-7 -6 -20 -17.5t-50 -52.5t-72 -87t-78 -119.5t-75 -151.5q-43 -105 -58.5 -208.5t-15.5 -276.5 t15.5 -277t58.5 -207q33 -80 75.5 -153.5t79.5 -121.5t69.5 -85t51.5 -54z" />
<glyph unicode=")" horiz-adv-x="690" d="M147 -487l-81 77q7 6 19.5 17.5t49.5 52t71.5 86t77.5 120t76 154.5q43 103 58.5 207t15.5 277t-15.5 276.5t-58.5 208.5q-32 78 -74 151t-79.5 121t-70 85t-51.5 54l-19 17l81 78q9 -7 24.5 -21t60 -62t85 -102.5t89.5 -143t84.5 -182.5t60 -221t24.5 -259t-23.5 -258.5 t-61.5 -222.5t-83.5 -181t-91 -144t-83.5 -101.5t-62 -62.5z" />
<glyph unicode="*" horiz-adv-x="1210" d="M643 1081h-80q-31 232 -31 398h142q0 -74 -8 -173.5t-16 -161.5zM535 1061l-25 -78q-231 45 -387 94l43 133q70 -22 162.5 -59t149.5 -63zM518 948l70 -47q-113 -207 -209 -342l-117 84q43 60 107 136t107 123zM623 897l65 53q162 -174 258 -305l-117 -84 q-42 60 -93.5 144t-81.5 138zM702 981l-28 78q214 102 370 151l43 -137q-70 -22 -166.5 -45t-157.5 -35z" />
<glyph unicode="+" d="M94 442v107h404v436h114v-436h400v-107h-400v-442h-114v442h-404z" />
<glyph unicode="," horiz-adv-x="516" d="M184 -319l-59 55q64 64 93.5 109t29.5 98q0 55 -32 95.5t-93 84.5l141 110q48 -17 84.5 -73.5t36.5 -145.5q0 -95 -51.5 -175.5t-149.5 -157.5z" />
<glyph unicode="-" horiz-adv-x="819" d="M152 397v142h516v-142h-516z" />
<glyph unicode="." horiz-adv-x="512" d="M135 104q0 50 35 85.5t86 35.5t86 -35.5t35 -85.5q0 -51 -35 -86.5t-86 -35.5t-86 35.5t-35 86.5z" />
<glyph unicode="/" horiz-adv-x="915" d="M53 -467l682 1937h127l-680 -1937h-129z" />
<glyph unicode="0" horiz-adv-x="1159" d="M571 -29q-199 0 -314.5 143.5t-115.5 393.5q0 246 115 384t317 138q206 0 325.5 -141t119.5 -377q0 -238 -120 -389.5t-327 -151.5zM575 98q146 0 225 113.5t79 292.5q0 180 -78.5 289.5t-222.5 109.5q-78 0 -137 -34t-93 -92.5t-50.5 -128.5t-16.5 -150 q0 -65 10.5 -123.5t33.5 -109.5t57 -88t83.5 -58t109.5 -21z" />
<glyph unicode="1" horiz-adv-x="921" d="M133 0v127h287v743l-277 -32l-10 127l426 49v-887h279v-127h-705z" />
<glyph unicode="2" horiz-adv-x="1071" d="M125 0v82q163 112 266 192.5t180.5 160t110.5 150t33 146.5q0 188 -215 182q-112 -3 -160.5 -59.5t-42.5 -183.5l-133 28q-6 160 88.5 246t263.5 86q158 0 258 -75.5t100 -217.5q0 -56 -18 -113t-45.5 -104t-71.5 -97.5t-83 -87t-95 -80t-92 -68.5t-88 -60h577v-127h-833 z" />
<glyph unicode="3" horiz-adv-x="1030" d="M127 -57l127 30q1 -110 63 -155t179 -45q125 0 184 71.5t59 192.5q0 117 -92.5 190.5t-281.5 73.5h-11v125h11q164 0 252 71t88 208q0 104 -44.5 156t-166.5 52q-107 0 -162 -46.5t-56 -159.5l-135 30q4 143 99 218t262 75q159 0 257.5 -76t98.5 -227q0 -154 -64.5 -234 t-189.5 -120q137 -24 213 -104.5t76 -221.5q0 -186 -114 -288.5t-298 -102.5q-167 0 -260.5 70t-93.5 217z" />
<glyph unicode="4" horiz-adv-x="1130" d="M82 39v104l627 858h102v-835h227v-127h-227v-356h-137v356h-592zM254 166h420v573z" />
<glyph unicode="5" horiz-adv-x="978" d="M119 -57l125 32q0 -102 59.5 -152t159.5 -50q127 0 186.5 75t59.5 199q0 61 -14.5 112t-46 94t-88 67t-134.5 24h-262l24 657h631v-127h-493l-15 -415h107q223 0 333.5 -94.5t110.5 -290.5q0 -208 -113.5 -313t-289.5 -105q-154 0 -250 77t-90 210z" />
<glyph unicode="6" horiz-adv-x="1097" d="M598 1266q-79 0 -137.5 -45.5t-93 -127t-52 -180.5t-20.5 -219q105 152 305 152q75 0 140 -25t117 -75.5t82 -135.5t30 -196q0 -98 -24 -176t-64 -127t-94.5 -81.5t-111.5 -45.5t-120 -13q-199 0 -307.5 160t-108.5 490q0 237 50 405t156 262t263 94q153 0 243 -75.5 t87 -200.5l-129 -33q-1 95 -56 144t-155 49zM600 733q-135 0 -214.5 -69.5t-88.5 -155.5q11 -225 71.5 -322.5t200.5 -97.5q128 0 188 88.5t60 239.5q0 152 -53.5 234.5t-163.5 82.5z" />
<glyph unicode="7" horiz-adv-x="950" d="M94 670v331h776v-104q-156 -296 -252.5 -586t-140.5 -628h-153q111 688 399 1191h-506v-204h-123z" />
<glyph unicode="8" horiz-adv-x="1069" d="M131 322q0 73 20.5 131t63.5 105t86.5 79.5t112.5 73.5q-43 27 -74.5 51t-63.5 56t-51.5 65.5t-32 77.5t-12.5 94q0 144 95 235.5t266 91.5q164 0 259 -85t95 -214q0 -52 -18 -102t-41 -84.5t-61.5 -71t-61 -54t-58.5 -42.5q77 -50 125 -88t86 -82.5t54 -93.5t16 -111 q0 -165 -109.5 -274t-298.5 -109q-77 0 -146 20.5t-126.5 61t-91 110t-33.5 159.5zM793 324q0 35 -9 66.5t-19.5 55t-36 50.5t-41.5 42t-54 40t-55 35.5t-62 37.5q-48 -32 -73.5 -50t-64.5 -52.5t-59 -64t-35.5 -72.5t-15.5 -90q0 -111 71 -172.5t191 -61.5q121 0 192 63 t71 173zM324 1067q0 -46 17 -85t53 -73.5t69.5 -59t89.5 -58.5q47 35 73 56.5t62.5 59.5t54 78.5t17.5 85.5q0 88 -62.5 141.5t-156.5 53.5q-93 0 -155 -55.5t-62 -143.5z" />
<glyph unicode="9" horiz-adv-x="1118" d="M176 -68l127 33q-1 -86 64.5 -139t164.5 -53q81 0 138 38.5t89.5 114t47.5 170t18 223.5q-99 -161 -311 -161q-77 0 -142.5 25t-117 74.5t-80.5 132.5t-29 192q0 98 24 176t64 128t95 83t112.5 47t120.5 14q204 0 309 -158t105 -503q0 -713 -449 -713q-152 0 -252.5 75 t-97.5 201zM528 268q123 0 203.5 77.5t89.5 166.5q-9 211 -68.5 306t-197.5 95q-258 0 -258 -329q0 -316 231 -316z" />
<glyph unicode=":" horiz-adv-x="544" d="M152 104q0 50 34.5 85.5t85.5 35.5t86 -35.5t35 -85.5q0 -51 -35 -86.5t-86 -35.5t-85.5 35.5t-34.5 86.5zM152 838q0 50 34.5 85t85.5 35t86 -35t35 -85q0 -51 -35 -87t-86 -36t-85.5 36t-34.5 87z" />
<glyph unicode=";" horiz-adv-x="567" d="M215 -319l-59 55q64 64 93.5 109t29.5 98q0 55 -32 95.5t-93 84.5l141 110q48 -17 84.5 -73.5t36.5 -145.5q0 -95 -51.5 -175.5t-149.5 -157.5zM158 838q0 50 35 85t86 35t85.5 -35t34.5 -85q0 -51 -34.5 -87t-85.5 -36t-86 36t-35 87z" />
<glyph unicode="&#x3c;" d="M76 453v94l876 461l45 -111l-776 -397l776 -418l-45 -109z" />
<glyph unicode="=" d="M94 618v107h918v-107h-918zM94 266v107h918v-107h-918z" />
<glyph unicode="&#x3e;" d="M154 -27l-45 109l776 418l-776 397l45 111l876 -461v-94z" />
<glyph unicode="?" horiz-adv-x="968" d="M524 440h-129q-12 70 -4.5 128t27.5 99t49.5 77.5t62 64t65 58.5t58.5 60t42 69t16 85q0 34 -9.5 64t-33 60.5t-72 48.5t-117.5 18q-132 0 -197 -74t-46 -248l-134 35q-28 197 75 297t310 100q188 0 287.5 -77.5t99.5 -214.5q0 -63 -22 -114t-56 -86.5t-75 -69t-80 -68.5 t-69 -75.5t-44 -101t-4 -135.5zM356 104q0 48 36.5 84.5t86.5 36.5q49 0 85 -36.5t36 -84.5q0 -49 -36.5 -85.5t-84.5 -36.5q-50 0 -86.5 36.5t-36.5 85.5z" />
<glyph unicode="@" horiz-adv-x="1726" d="M1069 -213v-109q-88 -16 -180 -16q-150 0 -277 43t-215.5 116.5t-150.5 171.5t-91.5 207.5t-29.5 225.5q0 127 35 247.5t103.5 221.5t161 177.5t215 119.5t259.5 43q204 0 362.5 -91.5t244 -249t85.5 -353.5q0 -151 -44 -274.5t-123.5 -195t-178.5 -71.5q-93 0 -141.5 60 t-46.5 163h-8q-39 -96 -110 -160.5t-163 -64.5q-141 0 -219 113.5t-78 316.5q0 68 11.5 133t39 129.5t67.5 112.5t103 78t140 30q41 0 74.5 -8t60 -26t39.5 -29.5t35 -34.5l43 80h86v-666q0 -123 82 -123q33 0 67.5 21.5t67 65t53 124t20.5 185.5q0 285 -149.5 454.5 t-411.5 169.5q-148 0 -273.5 -56.5t-209 -152t-130 -221.5t-46.5 -264q0 -106 27.5 -204t83 -180.5t133.5 -143t184.5 -95t230.5 -34.5q82 0 162 14zM780 100q66 0 129.5 73t101.5 178.5t38 201.5q0 109 -51.5 184.5t-147.5 75.5q-64 0 -111.5 -38t-72.5 -99.5t-36.5 -127 t-11.5 -134.5q0 -145 45 -229.5t117 -84.5z" />
<glyph unicode="A" horiz-adv-x="1265" d="M51 0l529 1354h110l520 -1354h-170l-161 426h-508l-164 -426h-156zM547 879l-127 -328h411l-122 328q-36 92 -80 239q-50 -156 -82 -239z" />
<glyph unicode="B" horiz-adv-x="1230" d="M211 0v1354h405q66 0 125 -9.5t115.5 -34t97 -62t65.5 -97.5t25 -137q0 -125 -56 -201t-132 -104v-9q124 -29 188 -110t64 -203q0 -171 -121.5 -279t-357.5 -108h-418zM362 127h240q342 0 342 254q0 248 -311 248h-271v-502zM362 756h265q252 0 252 235 q0 119 -69.5 177.5t-223.5 58.5h-224v-471z" />
<glyph unicode="C" horiz-adv-x="1320" d="M1079 385l138 -37q-32 -167 -156.5 -272t-339.5 -105q-150 0 -265 55t-185 153t-105 225.5t-35 281.5q0 330 155.5 513t442.5 183q225 0 352.5 -109t116.5 -286l-141 -33q3 148 -82.5 227t-249.5 79q-217 0 -321.5 -143.5t-104.5 -426.5q0 -294 108 -445t316 -151 q50 0 95 8.5t89 29.5t78 53t59 83.5t35 116.5z" />
<glyph unicode="D" horiz-adv-x="1392" d="M211 0v1354h414q159 0 281.5 -48.5t200.5 -136t117.5 -205.5t39.5 -262q0 -112 -23 -213.5t-73 -191.5t-123.5 -155.5t-180.5 -103.5t-237 -38h-416zM360 127h258q107 0 192 30.5t150 95t100.5 174.5t35.5 259t-35 255.5t-101.5 168t-153.5 89.5t-200 28h-246v-1100z" />
<glyph unicode="E" horiz-adv-x="1165" d="M211 0v1354h815v-133h-666v-471h558v-134h-558v-483h678v-133h-827z" />
<glyph unicode="F" horiz-adv-x="1110" d="M211 0v1354h803v-133h-654v-471h568v-134h-568v-616h-149z" />
<glyph unicode="G" horiz-adv-x="1368" d="M1108 0l-31 127q-128 -156 -372 -156q-185 0 -315.5 89.5t-194.5 247t-64 370.5q0 330 154 517t440 187q124 0 221.5 -36.5t152.5 -95t80.5 -128t18.5 -139.5l-141 -31q0 145 -84.5 226.5t-247.5 81.5q-426 0 -426 -574q0 -132 22.5 -237t70 -186t128 -125t189.5 -44 q102 0 185 36.5t135 114.5t52 185v53h-360v133h498v-616h-111z" />
<glyph unicode="H" horiz-adv-x="1499" d="M211 0v1354h149v-604h779v604h149v-1354h-149v616h-779v-616h-149z" />
<glyph unicode="I" horiz-adv-x="571" d="M211 0v1354h149v-1354h-149z" />
<glyph unicode="J" horiz-adv-x="585" d="M-106 -289v127q20 -4 55 -4q146 0 213 109.5t67 343.5v1067h148v-1110q0 -84 -11 -155.5t-41 -143.5t-78 -122.5t-128 -82t-185 -31.5l-41 2h1z" />
<glyph unicode="K" horiz-adv-x="1173" d="M211 0v1354h149v-572h43l498 572h186l-563 -633l602 -721h-198l-522 635h-46v-635h-149z" />
<glyph unicode="L" horiz-adv-x="1058" d="M211 0v1354h149v-1225h644v-129h-793z" />
<glyph unicode="M" horiz-adv-x="1748" d="M211 0v1354h195l413 -1008l53 -137l54 135l401 1010h211v-1354h-139v967q0 46 1 128t1 99l-82 -215l-385 -979h-125l-399 989q-34 81 -64 172q0 -22 1 -87.5t1 -100.5v-973h-137z" />
<glyph unicode="N" horiz-adv-x="1476" d="M211 0v1354h139l674 -926q36 -48 92 -137q-2 78 -2 211v852h152v-1354h-101l-680 934q-51 71 -127 186q4 -132 4 -211v-909h-151z" />
<glyph unicode="O" horiz-adv-x="1447" d="M717 -29q-190 0 -324 92.5t-198 250t-64 366.5q0 323 155 512.5t443 189.5q278 0 433 -180.5t155 -505.5q0 -159 -38.5 -291t-112 -229t-188.5 -151t-261 -54zM717 94q206 0 320 149t114 443q0 291 -111.5 432.5t-312.5 141.5q-204 0 -316 -145.5t-112 -444.5 q0 -153 30.5 -265.5t87 -179.5t131 -99t169.5 -32z" />
<glyph unicode="P" horiz-adv-x="1161" d="M211 0v1354h369q128 0 223 -31t150.5 -88t81.5 -131t26 -166q0 -202 -125.5 -319t-384.5 -117h-191v-502h-149zM567 1227h-207v-598h189q177 0 262.5 72.5t85.5 230.5q0 148 -78.5 221.5t-251.5 73.5z" />
<glyph unicode="Q" horiz-adv-x="1447" d="M1317 696q0 -271 -109 -458t-315 -244q96 -94 196 -153.5t218 -59.5q48 0 92 8l-31 -129q-49 -8 -102 -8q-41 0 -83 8.5t-75.5 19.5t-72.5 32.5t-63.5 36.5t-61 44t-52 42t-48.5 43t-40 36l-65 57q-187 3 -318 96.5t-193.5 250t-62.5 362.5q0 323 155 512.5t443 189.5 q278 0 433 -180.5t155 -505.5zM717 94q206 0 320 149.5t114 442.5q0 291 -111.5 432.5t-312.5 141.5q-204 0 -316 -145t-112 -443q0 -301 111 -439.5t307 -138.5z" />
<glyph unicode="R" horiz-adv-x="1236" d="M211 0v1354h399q221 0 334 -94t113 -267q0 -75 -21 -137t-57.5 -103.5t-75 -68t-84.5 -45.5q115 -51 146 -229q10 -59 15 -85.5t15.5 -69t20.5 -61t26 -40t37 -29.5t49 -8l-28 -129q-33 -3 -62 2t-51 13t-41 26t-32 33t-25.5 43.5t-19.5 47t-15.5 54t-12.5 54.5t-11.5 58 t-10.5 56q-7 38 -15 65t-26.5 59.5t-45 52.5t-70.5 34t-103 14h-199v-600h-149zM590 1227h-230v-500h230q163 0 233 64.5t70 191.5q0 125 -69.5 184.5t-233.5 59.5z" />
<glyph unicode="S" horiz-adv-x="1157" d="M117 371l143 30q3 -159 86 -233t225 -74q137 0 223.5 61.5t86.5 170.5q0 55 -25 98.5t-67 73t-96.5 53.5t-114.5 46t-120.5 45.5t-115 56.5t-96.5 74.5t-67 104.5t-25 142q0 170 110 266t305 96q205 0 330 -101t117 -261l-142 -31q-4 134 -84 202.5t-221 68.5 q-128 0 -195 -54t-67 -155q0 -61 25 -109.5t67 -81t96 -59.5t114.5 -50t120.5 -47t114 -55t96 -69.5t67 -96t25 -129.5q0 -166 -122.5 -274.5t-338.5 -108.5q-118 0 -210 35t-145 93t-78.5 127.5t-20.5 144.5z" />
<glyph unicode="T" horiz-adv-x="1216" d="M53 1221v133h1110v-133h-481v-1221h-147v1221h-482z" />
<glyph unicode="U" horiz-adv-x="1437" d="M197 528v826h147v-826q0 -70 9 -128t34.5 -115t66.5 -96.5t109 -64t158 -24.5q110 0 187.5 34t118 94t58 128t17.5 150v848h139v-848q0 -118 -30.5 -214t-92.5 -169t-164 -112.5t-237 -39.5q-264 0 -392 146t-128 411z" />
<glyph unicode="V" horiz-adv-x="1267" d="M580 0l-527 1354h164l340 -885q6 -15 84 -240q54 170 82 238l342 887h149l-524 -1354h-110z" />
<glyph unicode="W" horiz-adv-x="1931" d="M543 0l-490 1354h160l303 -844q19 -53 49 -142t37 -110q63 186 88 252l207 573l-98 271h157l306 -844q49 -133 84 -260q57 183 84 260l286 844h150l-463 -1354h-111l-323 895q-46 -147 -84 -252l-232 -643h-110z" />
<glyph unicode="X" horiz-adv-x="1171" d="M59 0l437 692l-410 662h174l338 -547l338 547h164l-422 -674l422 -680h-174l-353 565l-350 -565h-164z" />
<glyph unicode="Y" horiz-adv-x="1210" d="M537 0v516l-496 838h172l399 -674l379 674h158l-465 -834v-520h-147z" />
<glyph unicode="Z" horiz-adv-x="1181" d="M102 0v109l766 1112h-747v133h944v-109l-766 -1112h776v-133h-973z" />
<glyph unicode="[" horiz-adv-x="634" d="M201 -467v1937h348v-94h-232v-1749h232v-94h-348z" />
<glyph unicode="\" horiz-adv-x="917" d="M733 -467l-680 1937h129l682 -1937h-131z" />
<glyph unicode="]" horiz-adv-x="636" d="M86 -467v94h231v1749h-231v94h350v-1937h-350z" />
<glyph unicode="^" horiz-adv-x="1173" d="M100 412l420 950h137l420 -948l-149 -2l-342 762l-332 -762h-154z" />
<glyph unicode="_" horiz-adv-x="1327" d="M152 -109v109h1024v-109h-1024z" />
<glyph unicode="`" horiz-adv-x="1024" d="M528 1071l-303 383l117 78l272 -404z" />
<glyph unicode="a" horiz-adv-x="999" d="M702 147v3q-33 -74 -118 -126.5t-193 -52.5q-76 0 -140 26t-107.5 84.5t-43.5 139.5q0 156 157.5 239t432.5 85v59q0 133 -44.5 188.5t-160.5 55.5q-110 0 -168 -48t-51 -151l-133 23q-19 140 75.5 217.5t280.5 77.5q179 0 257.5 -79t78.5 -257v-398v-14q-1 -13 0 -25 t1.5 -23.5t4 -21.5t8.5 -18t14 -14t21 -9t29 -3t39 4l-27 -123q-209 -30 -213 161zM690 328v106q-233 -1 -337.5 -53t-104.5 -148q0 -66 44 -105.5t120 -39.5q105 0 188.5 72t89.5 168z" />
<glyph unicode="b" horiz-adv-x="1095" d="M166 0v1470h137v-661q119 158 307 158q126 0 212.5 -65t125.5 -171t39 -244q0 -106 -24 -197.5t-72 -163.5t-128 -113.5t-183 -41.5q-206 0 -289 154l-8 -125h-117zM588 88q67 0 117 31t79 87t42.5 125t13.5 152q0 188 -64.5 277.5t-179.5 89.5q-134 0 -212.5 -109.5 t-78.5 -277.5q0 -169 78 -272t205 -103z" />
<glyph unicode="c" horiz-adv-x="962" d="M748 258l118 -25q-33 -124 -123 -193t-233 -69q-196 0 -298.5 131t-102.5 369q0 109 22 194.5t59.5 141.5t91 92.5t113.5 52t129 15.5q157 0 254.5 -75.5t81.5 -213.5l-135 -23q4 56 -10.5 96t-44.5 60.5t-64 29.5t-76 9q-272 0 -272 -379q0 -199 68 -291t184 -92 q92 0 157 49t81 121z" />
<glyph unicode="d" horiz-adv-x="1103" d="M821 0l-12 158q-43 -88 -129 -137.5t-201 -49.5q-84 0 -149.5 28t-106 74t-67 110t-37 130t-10.5 140q0 233 104 373.5t307 140.5q182 0 283 -113v616h135v-1470h-117zM506 88q73 0 131.5 34t93.5 91.5t53.5 128.5t18.5 150q0 45 -5.5 87.5t-23.5 93.5t-47 88.5t-81.5 63 t-121.5 25.5q-266 0 -266 -385q0 -41 3 -77.5t11.5 -82.5t26.5 -82t44 -68t68 -49.5t95 -17.5z" />
<glyph unicode="e" horiz-adv-x="1011" d="M901 453h-643q4 -365 272 -365q105 0 166.5 51.5t85.5 126.5l119 -24q-76 -271 -373 -271q-198 0 -308.5 121t-110.5 363q0 83 13 155.5t44.5 139t79 114t121.5 75.5t168 28q366 0 366 -414v-100zM530 850q-108 0 -177 -71t-89 -210h498v43q0 105 -61 171.5t-171 66.5z " />
<glyph unicode="f" horiz-adv-x="694" d="M59 825v113h177v154q0 190 93.5 297.5t266.5 107.5q55 0 100 -11t71 -27t44 -32t25 -27l6 -11l-92 -101q-27 44 -62 67t-98 23q-115 0 -166 -78t-51 -227v-135h270v-113h-270v-825h-137v825h-177z" />
<glyph unicode="g" horiz-adv-x="1042" d="M170 604q0 166 94.5 264.5t270.5 98.5q180 0 272 -103q63 55 63 150v61l121 -16q8 -31 8 -62q0 -148 -139 -213q35 -75 35 -172q0 -170 -98 -261t-271 -91q-129 0 -211 49q-69 -50 -69 -110q0 -37 19.5 -60.5t69 -35t80 -14.5t105.5 -7q23 -1 35 -2q56 -3 93.5 -6.5 t86.5 -11.5t81.5 -19t67.5 -31t55 -46.5t33 -65t13 -86.5q0 -156 -119 -233t-321 -77q-52 0 -101.5 4.5t-111 20t-106.5 40.5t-76 70t-31 105q0 136 145 236q-69 26 -107 67t-38 119q0 125 121 207q-70 85 -70 231zM528 371q113 0 165 60.5t52 180.5q0 244 -213 244 q-215 0 -215 -248q0 -118 50 -177.5t161 -59.5zM532 -51q-136 5 -143 6q-145 -79 -145 -184q0 -48 30 -80.5t80 -47.5t95 -20.5t94 -5.5q140 0 226.5 41.5t86.5 128.5q0 38 -18.5 66.5t-47 45t-73.5 27.5t-86.5 15.5t-98.5 7.5z" />
<glyph unicode="h" horiz-adv-x="1079" d="M786 0v649q0 106 -38.5 152.5t-118.5 46.5q-65 0 -120 -27.5t-88.5 -64.5t-60 -88t-38 -85.5t-19.5 -68.5v-514h-137v1470h137v-716q16 33 38 63t61.5 67.5t101 60t135.5 22.5q128 0 205.5 -72t77.5 -205v-690h-136z" />
<glyph unicode="i" horiz-adv-x="468" d="M133 1262q0 42 28 70t70 28q41 0 70 -28.5t29 -69.5q0 -42 -28.5 -70.5t-70.5 -28.5q-43 0 -70.5 28t-27.5 71zM166 0v938h137v-938h-137z" />
<glyph unicode="j" horiz-adv-x="468" d="M133 1262q0 42 28 70t70 28q41 0 70 -28.5t29 -69.5q0 -42 -28.5 -70.5t-70.5 -28.5q-43 0 -70.5 28t-27.5 71zM-115 -496v115q83 0 136.5 24.5t86 85t45.5 152t13 234.5v823h137v-895q0 -96 -9 -169.5t-36 -146t-72 -119t-121 -75.5t-180 -29z" />
<glyph unicode="k" horiz-adv-x="962" d="M727 0l-379 455h-45v-455h-137v1470h137v-905h37l397 373h176l-440 -420l434 -518h-180z" />
<glyph unicode="l" horiz-adv-x="468" d="M166 0v1470h137v-1470h-137z" />
<glyph unicode="m" horiz-adv-x="1699" d="M166 0v938h133v-193q10 24 24.5 48.5t43.5 57.5t65 57.5t91.5 41.5t119.5 17q229 0 268 -240q6 16 15 33.5t27.5 47.5t45.5 55.5t62.5 50t86.5 39t109 14.5q130 0 207.5 -72t77.5 -205v-690h-137v649q0 107 -38.5 153t-117.5 46q-65 0 -120 -27.5t-88.5 -64.5t-60.5 -88 t-38.5 -85.5t-19.5 -68.5v-514h-136v649q0 106 -38.5 152.5t-118.5 46.5q-65 0 -120 -27.5t-88.5 -64.5t-60 -88t-38 -85.5t-19.5 -68.5v-514h-137z" />
<glyph unicode="n" horiz-adv-x="1079" d="M166 0v938h133v-193q15 32 36 62.5t61 70.5t103 64.5t140 24.5q128 0 205.5 -72t77.5 -205v-690h-136v649q0 106 -38.5 152.5t-118.5 46.5q-65 0 -120 -27.5t-88.5 -64.5t-60 -88t-38 -85.5t-19.5 -68.5v-514h-137z" />
<glyph unicode="o" horiz-adv-x="1067" d="M528 -29q-106 0 -187 37t-131.5 104.5t-75.5 157.5t-25 201q0 233 110.5 364.5t321.5 131.5q201 0 309 -123.5t108 -356.5q0 -112 -25.5 -204t-76.5 -162.5t-134.5 -110t-193.5 -39.5zM530 88q135 0 208 99t73 282q0 185 -72.5 283t-201.5 98q-131 0 -205 -99t-74 -288 t72 -282t200 -93z" />
<glyph unicode="p" d="M166 -467v1405h133v-143q113 172 332 172q82 0 146 -26t104.5 -69.5t67 -104t37.5 -125.5t11 -138q0 -150 -44.5 -269t-137 -191.5t-219.5 -72.5q-94 0 -172.5 38.5t-120.5 103.5v-580h-137zM586 88q264 0 264 399q0 83 -11 145t-38 113.5t-77 78t-122 26.5 q-70 0 -124.5 -26t-86.5 -66t-52.5 -94t-28 -103t-7.5 -100q0 -52 7.5 -101t28 -99.5t51.5 -88t81.5 -61t114.5 -23.5z" />
<glyph unicode="q" horiz-adv-x="1097" d="M797 -467v606q-105 -168 -316 -168q-84 0 -149.5 29t-106.5 76t-68 111.5t-37.5 130.5t-10.5 139q0 228 105.5 369t303.5 141q96 0 172 -37t117 -103l8 111h117v-1405h-135zM498 88q75 0 134.5 36.5t94 95.5t52.5 127.5t18 139.5q0 96 -30.5 176.5t-98 133.5t-160.5 53 q-125 0 -187.5 -101t-62.5 -290q0 -45 4 -87.5t19.5 -96.5t40 -93t70 -66.5t106.5 -27.5z" />
<glyph unicode="r" horiz-adv-x="747" d="M166 0v938h133v-188q14 36 36.5 71.5t56 69.5t81 55t100.5 21q45 0 82 -20t51 -40l15 -20l-74 -107q-4 6 -11.5 15t-32.5 24t-52 15q-56 0 -102.5 -36t-75.5 -93.5t-46 -117.5t-24 -120v-467h-137z" />
<glyph unicode="s" horiz-adv-x="925" d="M98 264l131 21q-7 -85 50 -141t188 -56q100 0 157.5 35.5t57.5 105.5q0 50 -30.5 85t-79.5 55.5t-107.5 37.5t-117.5 38t-108 49.5t-79.5 79.5t-30.5 120q0 121 87 197t251 76q102 0 180.5 -29.5t121 -93t26.5 -150.5l-136 -22q2 21 2.5 44.5t-13 47.5t-34 43t-61 31 t-94.5 12q-87 0 -138 -32t-51 -99q0 -50 30.5 -85t79.5 -55t108.5 -36t118.5 -36t108 -48.5t79.5 -80t30.5 -122.5q0 -134 -98.5 -209.5t-257.5 -75.5q-59 0 -114 10.5t-104.5 34t-85.5 57t-54.5 83t-12.5 108.5z" />
<glyph unicode="t" horiz-adv-x="712" d="M55 825v113h172l11 281h122v-281h267v-113h-267v-542q0 -101 21 -145t74 -44q77 0 112 101l103 -48q-78 -167 -234 -167q-213 0 -213 290v555h-168z" />
<glyph unicode="u" horiz-adv-x="1079" d="M158 246v692h137v-651q0 -108 35.5 -152.5t115.5 -44.5q61 0 113.5 22.5t86.5 54.5t62.5 76t43.5 78.5t26 71.5v545h135v-938h-125l-8 174q-17 -33 -41 -62.5t-64.5 -64t-102.5 -55.5t-136 -21q-131 0 -204.5 70.5t-73.5 204.5z" />
<glyph unicode="v" horiz-adv-x="962" d="M432 0l-381 938h148l239 -612l49 -144l54 144l237 612h127l-370 -938h-103z" />
<glyph unicode="w" horiz-adv-x="1505" d="M395 0l-336 938h148l213 -610l37 -117q24 85 37 117l221 610h100l209 -610l41 -119l39 119l209 610h131l-330 -938h-102l-205 563q-19 51 -49 150q-27 -87 -49 -146l-211 -567h-103z" />
<glyph unicode="x" horiz-adv-x="931" d="M53 0l336 477l-317 461h159l244 -356l240 356h149l-317 -461l332 -477h-160l-260 377l-256 -377h-150z" />
<glyph unicode="y" horiz-adv-x="987" d="M45 -432l70 100q56 -51 118 -51q70 0 122 65.5t69 190.5l18 150l-387 915h146l256 -616l53 -132l51 132l242 616h129l-367 -922l-24 -170q-6 -43 -15 -80.5t-31.5 -88.5t-53.5 -86.5t-84.5 -61t-120.5 -25.5q-115 0 -191 64z" />
<glyph unicode="z" horiz-adv-x="913" d="M102 819v119h707v-80l-533 -739h541v-119h-723v80l531 739h-523z" />
<glyph unicode="{" horiz-adv-x="696" d="M57 465v92h64q52 0 90 21t59 57.5t31 80.5t10 97q0 64 -24.5 184t-24.5 168q0 53 5.5 94t21.5 82t43.5 68t74 44t109.5 17h92v-92h-96q-123 0 -123 -176q0 -53 21 -168.5t22 -181.5q1 -81 -15 -150.5t-54.5 -122.5t-94.5 -69q83 -22 124.5 -111t39.5 -206 q-1 -71 -20 -193.5t-19 -169.5q0 -106 25 -155.5t94 -49.5h96v-92h-92q-62 0 -108 16.5t-73.5 43t-44 66.5t-22.5 81t-6 92q0 54 24.5 185t24.5 200q0 64 -17 117.5t-61 92t-110 38.5h-66z" />
<glyph unicode="|" horiz-adv-x="526" d="M201 -467v1937h125v-1937h-125z" />
<glyph unicode="}" horiz-adv-x="696" d="M88 -467v92h111q63 0 90.5 51.5t27.5 153.5q0 47 -26 169.5t-27 193.5q-2 117 39.5 206t124.5 111q-56 16 -94.5 69t-54.5 122.5t-15 150.5q1 66 29.5 181.5t28.5 168.5q0 176 -123 176h-111v92h105q64 0 110.5 -17t73.5 -44t43 -68.5t21 -82t5 -93.5q0 -48 -30.5 -168 t-30.5 -184q0 -52 10 -96.5t31.5 -81t59.5 -57.5t89 -21h64v-92h-66q-65 0 -109 -38.5t-61.5 -92t-17.5 -117.5q0 -69 30.5 -200t30.5 -185q0 -66 -10 -114.5t-35.5 -93t-78 -68t-129.5 -23.5h-105z" />
<glyph unicode="~" horiz-adv-x="1325" d="M240 356l-80 111q53 61 136 98t171 37q59 0 117 -19t96 -42.5t87.5 -42.5t94.5 -19q59 0 119.5 28.5t103.5 76.5l80 -109q-52 -58 -138 -96.5t-175 -38.5q-57 0 -113 19.5t-94.5 43t-88.5 43t-97 19.5q-125 0 -219 -109z" />
<glyph unicode="&#xa1;" horiz-adv-x="518" d="M311 498q25 -798 31 -914h-166q14 266 31 914h104zM381 834q0 -47 -37 -84t-84 -37q-51 0 -88 36.5t-37 84.5q0 50 37 86t88 36q48 0 84.5 -36.5t36.5 -85.5z" />
<glyph unicode="&#xa2;" d="M844 258l119 -25q-36 -116 -121 -183.5t-217 -76.5v-155h-95v155q-185 19 -280.5 153.5t-95.5 367.5q0 128 28 224.5t80.5 156t118.5 91.5t149 42v161h95v-159q154 -5 249.5 -80t81.5 -207l-135 -23q4 52 -11 90.5t-44.5 60t-64 32t-76.5 12.5v-805q89 9 147 55.5 t72 112.5zM303 494q0 -364 227 -402v795q-65 -13 -110.5 -48t-70 -88.5t-35.5 -116t-11 -140.5z" />
<glyph unicode="&#xa3;" d="M113 489v101h202l17 143q9 84 22.5 143.5t39 114.5t62.5 88t94 52.5t134 19.5q149 0 220 -73.5t50 -196.5l-135 -25q14 78 -20.5 128t-120.5 50q-41 0 -73.5 -14t-60.5 -47t-47 -93t-28 -147l-14 -143h272v-101h-281l-8 -86q-17 -168 -80 -249q76 -4 200 -36t173 -32 q70 0 107.5 42.5t21.5 131.5l127 -24q20 -129 -52.5 -197t-215.5 -68q-74 0 -155.5 19.5t-136 36t-139.5 11t-182 -47.5l-18 112q46 21 90 33q96 75 113 232l12 122h-190z" />
<glyph unicode="&#xa5;" d="M172 516v96h262l-362 516h170l323 -469l293 469h170l-348 -516h258v-96h-315v-172h315v-96h-315v-248h-131v248h-320v96h320v172h-320z" />
<glyph unicode="&#xa6;" horiz-adv-x="536" d="M199 596v874h139v-874h-139zM199 -467v850h139v-850h-139z" />
<glyph unicode="&#xa7;" horiz-adv-x="921" d="M518 -205h-115q-2 45 -14 109.5t-23.5 111.5t-41.5 162l-123 463q-54 205 -54 373q0 173 92.5 270.5t288.5 97.5q245 0 301 -174l-104 -63q-34 70 -81.5 98.5t-119.5 28.5q-239 0 -239 -268q0 -155 49 -338l125 -465q35 -135 49 -208.5t14 -135.5q0 -39 -4 -62zM102 -322 l113 72q30 -77 79.5 -111t123.5 -34q108 0 176 66.5t68 209.5q0 106 -41 258l-146 547q-67 238 -67 348q0 31 8 70h102q-5 -18 -6 -43t3 -55.5t9 -58t14 -64.5t15.5 -61t16.5 -60t14 -51l143 -545q43 -162 43 -279q0 -178 -96 -280.5t-275 -102.5q-235 0 -297 174z" />
<glyph unicode="&#xa8;" horiz-adv-x="1024" d="M674 1161q-40 0 -69.5 30.5t-29.5 70.5t29.5 69t69.5 29t70 -29t30 -69t-30 -70.5t-70 -30.5zM299 1161q-40 0 -70 30.5t-30 70.5t30 69t70 29t69 -29t29 -69t-29.5 -70.5t-68.5 -30.5z" />
<glyph unicode="&#xa9;" horiz-adv-x="1900" d="M125 584q0 173 65 327.5t175 264.5t262 174.5t321 64.5t322 -64t264.5 -174t177.5 -265t66 -328t-65 -327.5t-176 -264.5t-263.5 -174t-321.5 -64q-168 0 -320.5 64t-264 174t-177 264.5t-65.5 327.5zM240 584q0 -152 55.5 -286t151 -228.5t226.5 -149.5t277 -55 q147 0 278.5 55t227 150t151.5 229.5t56 286.5t-56 286.5t-152 229.5t-227.5 150t-277.5 55t-277 -55t-226.5 -150t-151 -230t-55.5 -288zM563 592q0 132 33 229t91.5 151.5t130 79.5t157.5 25q161 0 250.5 -71t93.5 -211l-150 -25q-1 116 -51 162.5t-143 46.5 q-75 0 -127.5 -31.5t-79.5 -89t-38 -122.5t-11 -148q0 -193 58.5 -293t187.5 -100q63 0 110.5 21.5t70.5 52t37 61t17 52.5l2 21l117 -26q0 -6 -1 -16t-9 -39.5t-20.5 -56.5t-39.5 -59.5t-63 -56t-94 -39.5t-129 -16q-197 0 -298.5 129.5t-101.5 368.5z" />
<glyph unicode="&#xaa;" horiz-adv-x="831" d="M698 707q-153 -18 -168 88q-35 -42 -88 -70.5t-116 -28.5q-81 0 -140 45.5t-59 130.5q0 107 100 168.5t283 65.5v31q0 100 -22 131.5t-99 31.5q-65 0 -91.5 -29t-27.5 -106l-123 19q0 96 62.5 147t185.5 51q125 0 182.5 -56t57.5 -183v-271q0 -48 9 -60q15 -20 73 -11z M342 801q51 0 98 30.5t70 77.5v99q-252 -5 -252 -129q0 -34 20.5 -56t63.5 -22z" />
<glyph unicode="&#xab;" horiz-adv-x="999" d="M111 467q0 108 95.5 239t223.5 228l80 -90q-143 -128 -191.5 -207.5t-48.5 -167.5q0 -89 50.5 -173t189.5 -202l-80 -92q-127 95 -223 226.5t-96 238.5zM494 467q0 108 95.5 239t223.5 228l80 -90q-143 -128 -191.5 -207.5t-48.5 -167.5q0 -89 50.5 -173t189.5 -202 l-80 -92q-127 95 -223 226.5t-96 238.5z" />
<glyph unicode="&#xac;" horiz-adv-x="1267" d="M121 799v139h977v-588h-150v449h-827z" />
<glyph unicode="&#xad;" horiz-adv-x="819" d="M152 397v142h516v-142h-516z" />
<glyph unicode="&#xae;" horiz-adv-x="1058" d="M123 1057q0 176 117 293.5t288 117.5q170 0 289 -118t119 -293t-118.5 -291.5t-289.5 -116.5q-172 0 -288.5 116t-116.5 292zM197 1057q0 -142 95.5 -238t235.5 -96t237 96t97 238t-97 239t-237 97t-235.5 -97t-95.5 -239zM367 834v446h172q85 0 123 -33.5t38 -85.5 q0 -39 -19.5 -67.5t-53.5 -40.5q28 -12 38.5 -33.5t20.5 -73.5q5 -26 18.5 -37.5t45.5 -11.5l-21 -66l-16 -2h-2q-41 0 -72 27t-41 84q-2 15 -4 23t-8.5 20.5t-20 18.5t-33.5 6h-77v-174h-88zM455 1083h59q54 0 73 18t19 52q0 36 -20 51t-66 15h-65v-136z" />
<glyph unicode="&#xaf;" horiz-adv-x="1024" d="M285 1169v117h483v-117h-483z" />
<glyph unicode="&#xb0;" horiz-adv-x="856" d="M111 1178q0 129 92 220t225 91t225 -91t92 -220t-94 -220.5t-227 -91.5t-223 91t-90 221zM428 979q83 0 142 58t59 141t-59 141.5t-142 58.5t-141 -58.5t-58 -141.5t58 -141t141 -58z" />
<glyph unicode="&#xb1;" d="M94 649v107h404v387h114v-387h400v-107h-400v-422h-114v422h-404zM94 0v106h918v-106h-918z" />
<glyph unicode="&#xb2;" horiz-adv-x="876" d="M131 772v53q232 208 303 289q137 155 137 279q0 133 -141 133q-165 0 -162 -176l-118 18q-4 116 75 184t209 68q125 0 194.5 -63t69.5 -173q0 -70 -32.5 -135t-108.5 -149q-71 -77 -250 -236h443v-92h-619z" />
<glyph unicode="&#xb3;" horiz-adv-x="815" d="M121 969l112 18q-9 -56 39.5 -97.5t124.5 -41.5q82 0 130 46.5t48 109.5q0 71 -56.5 112t-170.5 41h-18v90h18q91 0 142 47.5t51 120.5q0 47 -34.5 79t-117.5 32q-72 0 -109 -33t-30 -94l-113 18q-5 89 64.5 146t195.5 57q117 0 194 -54t77 -145q0 -93 -47.5 -144.5 t-145.5 -68.5q105 -10 165 -63.5t60 -130.5q0 -108 -84.5 -185t-218.5 -77q-125 0 -202.5 58.5t-73.5 158.5z" />
<glyph unicode="&#xb4;" horiz-adv-x="1024" d="M449 1128l272 404l117 -78l-306 -383z" />
<glyph unicode="&#xb5;" horiz-adv-x="1161" d="M205 -496v1434h133v-657q0 -105 37 -150t117 -45q59 0 109.5 21.5t85 53t63 75.5t44.5 80.5t29 76.5v545h133v-938h-120l-9 180q-17 -31 -40.5 -60.5t-63.5 -66.5t-99.5 -59.5t-127.5 -22.5q-103 0 -179 58q0 -318 39 -525h-151z" />
<glyph unicode="&#xb6;" horiz-adv-x="1243" d="M887 -467v1729h-148v-1729h-116v866h-64q-208 0 -345.5 130.5t-137.5 340.5q0 213 145 348.5t367 135.5h436v-1821h-137z" />
<glyph unicode="&#xb7;" horiz-adv-x="540" d="M150 463q0 50 34.5 85.5t85.5 35.5t86 -35.5t35 -85.5q0 -51 -35 -87t-86 -36t-85.5 36t-34.5 87z" />
<glyph unicode="&#xb8;" horiz-adv-x="1024" d="M362 -446l41 86q64 -39 140 -39q53 0 84.5 25t31.5 71q0 52 -46 77t-148 31l51 205h109l-35 -133q188 -26 188 -176q0 -88 -63 -142.5t-172 -54.5q-117 0 -181 50z" />
<glyph unicode="&#xb9;" horiz-adv-x="737" d="M143 772v92h193v637l-195 -18l-10 90l318 29v-738h182v-92h-488z" />
<glyph unicode="&#xba;" horiz-adv-x="872" d="M440 696q-171 0 -245 92.5t-74 266.5q0 148 77.5 237.5t241.5 89.5q156 0 234 -84t78 -243q0 -78 -16.5 -140.5t-52 -113t-97.5 -78t-146 -27.5zM440 795q49 0 84.5 20t54.5 55t28 76t9 90q0 250 -176 250q-182 0 -182 -250q0 -241 182 -241z" />
<glyph unicode="&#xbb;" horiz-adv-x="999" d="M106 94q139 118 189.5 202t50.5 173q0 88 -48.5 167.5t-191.5 207.5l80 90q128 -97 224 -228t96 -239q0 -107 -96.5 -238.5t-223.5 -226.5zM489 94q139 118 189.5 202t50.5 173q0 88 -48.5 167.5t-191.5 207.5l80 90q128 -97 224 -228t96 -239q0 -107 -96.5 -238.5 t-223.5 -226.5z" />
<glyph unicode="&#xbc;" horiz-adv-x="1714" d="M958 225v78l445 569h88v-555h131v-92h-131v-225h-109v225h-424zM385 0l846 1354h121l-846 -1354h-121zM1100 317h282v363zM133 520v92h193v637l-195 -18l-10 90l317 29v-738h183v-92h-488z" />
<glyph unicode="&#xbd;" horiz-adv-x="1826" d="M385 0l846 1354h119l-846 -1354h-119zM1112 0v53q232 208 303 289q137 155 137 279q0 133 -141 133q-165 0 -162 -176l-119 18q-4 116 75.5 184t209.5 68q125 0 194.5 -63t69.5 -173q0 -70 -32.5 -135t-108.5 -149q-71 -77 -250 -236h443v-92h-619zM133 520v92h193v637 l-195 -18l-10 90l317 29v-738h183v-92h-488z" />
<glyph unicode="&#xbe;" horiz-adv-x="1708" d="M952 225v78l445 569h88v-555h131v-92h-131v-225h-109v225h-424zM393 0l846 1354h121l-846 -1354h-121zM1094 317h282v363zM113 748l112 18q-9 -56 39.5 -97.5t124.5 -41.5q82 0 130 46t48 109q0 71 -56.5 112.5t-170.5 41.5h-18v90h18q91 0 141.5 47.5t50.5 120.5 q0 47 -34 79t-117 32q-72 0 -109 -33t-30 -94l-113 18q-5 89 64.5 146t195.5 57q117 0 193.5 -54t76.5 -145q0 -93 -47 -144.5t-145 -68.5q105 -10 165 -63.5t60 -130.5q0 -108 -84.5 -185.5t-218.5 -77.5q-125 0 -202.5 59t-73.5 159z" />
<glyph unicode="&#xbf;" horiz-adv-x="952" d="M436 498h129q12 -85 2 -143.5t-37 -107.5t-62.5 -82.5t-74 -69t-70 -67t-52.5 -76t-21 -95.5q0 -27 5 -51t20.5 -50.5t40 -45.5t67 -31.5t98.5 -12.5q132 0 197.5 74t46.5 248l133 -35q28 -197 -75 -297t-310 -100q-188 0 -287.5 77.5t-99.5 214.5q0 63 22 114t56 86.5 t75 69t80 68.5t69 75.5t44 101t4 135.5zM604 834q0 -48 -36.5 -84.5t-86.5 -36.5q-49 0 -85 36.5t-36 84.5q0 49 36.5 85.5t84.5 36.5q50 0 86.5 -36.5t36.5 -85.5z" />
<glyph unicode="&#xc0;" horiz-adv-x="1265" d="M51 0l529 1354h110l520 -1354h-170l-161 426h-508l-164 -426h-156zM547 879l-127 -328h411l-122 328q-36 92 -80 239q-50 -156 -82 -239zM328 1716l100 119l348 -295l-65 -80z" />
<glyph unicode="&#xc1;" horiz-adv-x="1265" d="M51 0l529 1354h110l520 -1354h-170l-161 426h-508l-164 -426h-156zM547 879l-127 -328h411l-122 328q-36 92 -80 239q-50 -156 -82 -239zM461 1540l348 295l100 -119l-383 -256z" />
<glyph unicode="&#xc2;" horiz-adv-x="1265" d="M51 0l529 1354h110l520 -1354h-170l-161 426h-508l-164 -426h-156zM547 879l-127 -328h411l-122 328q-36 92 -80 239q-50 -156 -82 -239zM315 1511l267 308h94l266 -308l-78 -57l-239 225l-230 -225z" />
<glyph unicode="&#xc3;" horiz-adv-x="1265" d="M51 0l529 1354h110l520 -1354h-170l-161 426h-508l-164 -426h-156zM547 879l-127 -328h411l-122 328q-36 92 -80 239q-50 -156 -82 -239zM385 1536h-109q1 4 2.5 12t9.5 30.5t18 42.5t29.5 45t42.5 43t58 30t76 12q34 0 69.5 -17t60.5 -37.5t54.5 -37.5t53.5 -17 q47 0 77.5 30t36.5 71h109q0 -5 -1 -12.5t-7.5 -30t-16 -43t-29 -45.5t-44.5 -43t-65 -30.5t-89 -12.5q-39 0 -74.5 16t-56 36t-46 36t-48.5 16q-81 0 -111 -94z" />
<glyph unicode="&#xc4;" horiz-adv-x="1265" d="M51 0l529 1354h110l520 -1354h-170l-161 426h-508l-164 -426h-156zM547 879l-127 -328h411l-122 328q-36 92 -80 239q-50 -156 -82 -239zM836 1538q-40 0 -69.5 29t-29.5 69t29.5 70.5t69.5 30.5t70 -30.5t30 -70.5t-30 -69t-70 -29zM424 1538q-41 0 -70.5 29t-29.5 69 t29.5 70.5t70.5 30.5q38 0 68 -30.5t30 -70.5q0 -39 -29.5 -68.5t-68.5 -29.5z" />
<glyph unicode="&#xc5;" horiz-adv-x="1265" d="M51 0l529 1354h110l520 -1354h-170l-161 426h-508l-164 -426h-156zM547 879l-127 -328h411l-122 328q-36 92 -80 239q-50 -156 -82 -239zM428 1640q0 71 51 124t150 53q98 0 149 -53t51 -124q0 -74 -51 -129t-149 -55q-100 0 -150.5 55t-50.5 129zM528 1638 q0 -38 25.5 -66t75.5 -28q48 0 74 28.5t26 65.5q0 32 -25.5 61.5t-74.5 29.5q-51 0 -76 -29t-25 -62z" />
<glyph unicode="&#xc6;" horiz-adv-x="1767" d="M8 0l709 1354h911v-133h-665v-471h557v-134h-557v-483h677v-133h-827v422h-426l-219 -422h-160zM451 547h362v696z" />
<glyph unicode="&#xc7;" horiz-adv-x="1320" d="M514 -446l41 86q64 -39 139 -39q53 0 85 25t32 71q0 52 -46 77t-149 31l41 168q-108 9 -195.5 49t-148.5 104.5t-102.5 152.5t-60.5 189.5t-19 217.5q0 330 155.5 513t442.5 183q225 0 352.5 -109t116.5 -286l-141 -33q3 148 -82.5 227t-249.5 79q-217 0 -321.5 -143.5 t-104.5 -426.5q0 -294 108 -445t316 -151q50 0 95 8.5t89 29.5t78 53t59 83.5t35 116.5l138 -37q-30 -158 -143.5 -261t-307.5 -114l-25 -96q189 -26 189 -176q0 -88 -63.5 -142.5t-172.5 -54.5q-116 0 -180 50z" />
<glyph unicode="&#xc8;" horiz-adv-x="1165" d="M311 1716l101 119l348 -295l-66 -80zM211 0v1354h815v-133h-666v-471h558v-134h-558v-483h678v-133h-827z" />
<glyph unicode="&#xc9;" horiz-adv-x="1165" d="M211 0v1354h815v-133h-666v-471h558v-134h-558v-483h678v-133h-827zM446 1540l349 295l100 -119l-383 -256z" />
<glyph unicode="&#xca;" horiz-adv-x="1165" d="M301 1511l266 308h95l266 -308l-78 -57l-240 225l-229 -225zM211 0v1354h815v-133h-666v-471h558v-134h-558v-483h678v-133h-827z" />
<glyph unicode="&#xcb;" horiz-adv-x="1165" d="M211 0v1354h815v-133h-666v-471h558v-134h-558v-483h678v-133h-827zM819 1538q-40 0 -69 29t-29 69t29.5 70.5t68.5 30.5q40 0 70.5 -30.5t30.5 -70.5q0 -39 -30.5 -68.5t-70.5 -29.5zM408 1538q-41 0 -71 29t-30 69t30 70.5t71 30.5q38 0 68 -30.5t30 -70.5 q0 -39 -29.5 -68.5t-68.5 -29.5z" />
<glyph unicode="&#xcc;" horiz-adv-x="571" d="M211 0v1354h149v-1354h-149zM-16 1716l100 119l348 -295l-65 -80z" />
<glyph unicode="&#xcd;" horiz-adv-x="571" d="M211 0v1354h149v-1354h-149zM119 1540l348 295l100 -119l-383 -256z" />
<glyph unicode="&#xce;" horiz-adv-x="571" d="M211 0v1354h149v-1354h-149zM-27 1511l267 308h94l266 -308l-78 -57l-239 225l-230 -225z" />
<glyph unicode="&#xcf;" horiz-adv-x="571" d="M211 0v1354h149v-1354h-149zM492 1538q-40 0 -69.5 29t-29.5 69t29.5 70.5t69.5 30.5t70 -30.5t30 -70.5t-30 -69t-70 -29zM80 1538q-41 0 -70.5 29t-29.5 69t29.5 70.5t70.5 30.5q38 0 68 -30.5t30 -70.5q0 -39 -29.5 -68.5t-68.5 -29.5z" />
<glyph unicode="&#xd0;" horiz-adv-x="1406" d="M117 618v121h108v615h414q159 0 281.5 -48.5t200.5 -136t117.5 -205.5t39.5 -262q0 -112 -23 -213.5t-73 -191.5t-123.5 -155.5t-180.5 -103.5t-237 -38h-416v618h-108zM375 127h258q107 0 191.5 30.5t150 95t100.5 174.5t35 259t-35 255.5t-101.5 168t-153 89.5 t-199.5 28h-246v-488h301v-121h-301v-491z" />
<glyph unicode="&#xd1;" horiz-adv-x="1476" d="M494 1536h-109q1 4 2.5 12t9.5 30.5t18 42.5t29.5 45t42.5 43t58 30t76 12q42 0 86.5 -27.5t83 -54.5t67.5 -27q47 0 78 30t37 71h108q0 -5 -1 -12.5t-7.5 -30t-16 -43t-29 -45.5t-44.5 -43t-65 -30.5t-89 -12.5q-39 0 -74.5 16t-56 36t-46 36t-48.5 16q-80 0 -110 -94z M211 0v1354h139l674 -926q36 -48 92 -137q-2 78 -2 211v852h152v-1354h-101l-680 934q-51 71 -127 186q4 -132 4 -211v-909h-151z" />
<glyph unicode="&#xd2;" horiz-adv-x="1447" d="M424 1716l100 119l348 -295l-65 -80zM717 -29q-190 0 -324 92.5t-198 250t-64 366.5q0 323 155 512.5t443 189.5q278 0 433 -180.5t155 -505.5q0 -159 -38.5 -291t-112 -229t-188.5 -151t-261 -54zM717 94q206 0 320 149t114 443q0 291 -111.5 432.5t-312.5 141.5 q-204 0 -316 -145.5t-112 -444.5q0 -153 30.5 -265.5t87 -179.5t131 -99t169.5 -32z" />
<glyph unicode="&#xd3;" horiz-adv-x="1447" d="M557 1540l348 295l101 -119l-383 -256zM717 -29q-190 0 -324 92.5t-198 250t-64 366.5q0 323 155 512.5t443 189.5q278 0 433 -180.5t155 -505.5q0 -159 -38.5 -291t-112 -229t-188.5 -151t-261 -54zM717 94q206 0 320 149t114 443q0 291 -111.5 432.5t-312.5 141.5 q-204 0 -316 -145.5t-112 -444.5q0 -153 30.5 -265.5t87 -179.5t131 -99t169.5 -32z" />
<glyph unicode="&#xd4;" horiz-adv-x="1447" d="M414 1511l266 308h94l266 -308l-77 -57l-240 225l-229 -225zM717 -29q-190 0 -324 92.5t-198 250t-64 366.5q0 323 155 512.5t443 189.5q278 0 433 -180.5t155 -505.5q0 -159 -38.5 -291t-112 -229t-188.5 -151t-261 -54zM717 94q206 0 320 149t114 443 q0 291 -111.5 432.5t-312.5 141.5q-204 0 -316 -145.5t-112 -444.5q0 -153 30.5 -265.5t87 -179.5t131 -99t169.5 -32z" />
<glyph unicode="&#xd5;" horiz-adv-x="1447" d="M717 -29q-190 0 -324 92.5t-198 250t-64 366.5q0 323 155 512.5t443 189.5q278 0 433 -180.5t155 -505.5q0 -159 -38.5 -291t-112 -229t-188.5 -151t-261 -54zM717 94q206 0 320 149t114 443q0 291 -111.5 432.5t-312.5 141.5q-204 0 -316 -145.5t-112 -444.5 q0 -153 30.5 -265.5t87 -179.5t131 -99t169.5 -32zM481 1536h-108q1 9 5 23.5t21 51.5t40.5 65.5t68 51.5t100.5 23q34 0 69.5 -17t60.5 -37.5t54.5 -37.5t53.5 -17q47 0 78 30t37 71h108q0 -5 -1 -12.5t-7.5 -30t-16 -43t-29 -45.5t-44.5 -43t-65 -30.5t-89 -12.5 q-39 0 -74.5 16t-56 36t-46 36t-48.5 16q-81 0 -111 -94z" />
<glyph unicode="&#xd6;" horiz-adv-x="1447" d="M717 -29q-190 0 -324 92.5t-198 250t-64 366.5q0 323 155 512.5t443 189.5q278 0 433 -180.5t155 -505.5q0 -159 -38.5 -291t-112 -229t-188.5 -151t-261 -54zM717 94q206 0 320 149t114 443q0 291 -111.5 432.5t-312.5 141.5q-204 0 -316 -145.5t-112 -444.5 q0 -153 30.5 -265.5t87 -179.5t131 -99t169.5 -32zM932 1538q-40 0 -69 29t-29 69t29.5 70.5t68.5 30.5q40 0 70 -30.5t30 -70.5t-30 -69t-70 -29zM520 1538q-41 0 -70.5 29t-29.5 69t29.5 70.5t70.5 30.5q38 0 68 -30.5t30 -70.5q0 -39 -29.5 -68.5t-68.5 -29.5z" />
<glyph unicode="&#xd7;" d="M37 924l82 75l432 -434l436 434l80 -77l-436 -437l434 -434l-82 -76l-432 433l-432 -433l-82 78l434 434z" />
<glyph unicode="&#xd8;" horiz-adv-x="1447" d="M717 -29q-184 0 -318 86l-120 -190l-101 65l129 203q-176 191 -176 545q0 323 155 512.5t443 189.5q182 0 318 -82l118 187l105 -66l-127 -198q174 -183 174 -527q0 -159 -38.5 -291t-112 -229t-188.5 -151t-261 -54zM717 94q206 0 320 149t114 443q0 261 -92 404 l-588 -920q98 -76 246 -76zM299 670q0 -263 90 -408l584 922q-98 76 -246 76q-204 0 -316 -145.5t-112 -444.5z" />
<glyph unicode="&#xd9;" horiz-adv-x="1437" d="M416 1716l100 119l348 -295l-65 -80zM197 528v826h147v-826q0 -70 9 -128t34.5 -115t66.5 -96.5t109 -64t158 -24.5q110 0 187.5 34t118 94t58 128t17.5 150v848h139v-848q0 -118 -30.5 -214t-92.5 -169t-164 -112.5t-237 -39.5q-264 0 -392 146t-128 411z" />
<glyph unicode="&#xda;" horiz-adv-x="1437" d="M197 528v826h147v-826q0 -70 9 -128t34.5 -115t66.5 -96.5t109 -64t158 -24.5q110 0 187.5 34t118 94t58 128t17.5 150v848h139v-848q0 -118 -30.5 -214t-92.5 -169t-164 -112.5t-237 -39.5q-264 0 -392 146t-128 411zM551 1540l348 295l100 -119l-383 -256z" />
<glyph unicode="&#xdb;" horiz-adv-x="1437" d="M406 1511l266 308h94l266 -308l-78 -57l-239 225l-230 -225zM197 528v826h147v-826q0 -70 9 -128t34.5 -115t66.5 -96.5t109 -64t158 -24.5q110 0 187.5 34t118 94t58 128t17.5 150v848h139v-848q0 -118 -30.5 -214t-92.5 -169t-164 -112.5t-237 -39.5q-264 0 -392 146 t-128 411z" />
<glyph unicode="&#xdc;" horiz-adv-x="1437" d="M197 528v826h147v-826q0 -70 9 -128t34.5 -115t66.5 -96.5t109 -64t158 -24.5q110 0 187.5 34t118 94t58 128t17.5 150v848h139v-848q0 -118 -30.5 -214t-92.5 -169t-164 -112.5t-237 -39.5q-264 0 -392 146t-128 411zM926 1538q-40 0 -69.5 29t-29.5 69t29.5 70.5 t69.5 30.5t70 -30.5t30 -70.5t-30 -69t-70 -29zM514 1538q-41 0 -70.5 29t-29.5 69t29.5 70.5t70.5 30.5q38 0 68 -30.5t30 -70.5q0 -39 -29.5 -68.5t-68.5 -29.5z" />
<glyph unicode="&#xdd;" horiz-adv-x="1210" d="M537 0v516l-496 838h172l399 -674l379 674h158l-465 -834v-520h-147zM428 1540l348 295l101 -119l-383 -256z" />
<glyph unicode="&#xde;" horiz-adv-x="1165" d="M211 0v1354h149v-238h220q128 0 223 -31.5t150 -88.5t81.5 -130.5t26.5 -165.5q0 -202 -126 -319t-384 -117h-191v-264h-149zM567 989h-207v-598h189q177 0 262.5 71.5t85.5 229.5q0 149 -78.5 223t-251.5 74z" />
<glyph unicode="&#xdf;" horiz-adv-x="1134" d="M236 0v825h-177v113h177v137q0 202 97 312t298 110q168 0 257 -76.5t89 -218.5q0 -63 -18.5 -116t-46 -87t-59.5 -67t-59.5 -58t-46 -59.5t-18.5 -71.5q0 -38 18 -72.5t47.5 -63t64.5 -57.5t70 -60.5t64.5 -66.5t47.5 -81.5t18 -99.5q0 -112 -78 -191.5t-225 -79.5 q-165 0 -267 105l80 100q51 -43 93.5 -65.5t99.5 -22.5q75 0 114 40t39 103q0 42 -19 79t-48.5 66t-66 57t-73 58t-66 62t-48.5 76t-19 94q0 61 28 114.5t67.5 93.5t79.5 79t68 88t28 104q0 33 -10 62.5t-33 58t-67 45t-105 16.5q-260 0 -260 -327v-1057h-135z" />
<glyph unicode="&#xe0;" horiz-adv-x="999" d="M702 147v3q-33 -74 -118 -126.5t-193 -52.5q-76 0 -140 26t-107.5 84.5t-43.5 139.5q0 156 157.5 239t432.5 85v59q0 133 -44.5 188.5t-160.5 55.5q-110 0 -168 -48t-51 -151l-133 23q-19 140 75.5 217.5t280.5 77.5q179 0 257.5 -79t78.5 -257v-398v-14q-1 -13 0 -25 t1.5 -23.5t4 -21.5t8.5 -18t14 -14t21 -9t29 -3t39 4l-27 -123q-209 -30 -213 161zM690 328v106q-233 -1 -337.5 -53t-104.5 -148q0 -66 44 -105.5t120 -39.5q105 0 188.5 72t89.5 168zM475 1071l-303 383l117 78l272 -404z" />
<glyph unicode="&#xe1;" horiz-adv-x="999" d="M702 147v3q-33 -74 -118 -126.5t-193 -52.5q-76 0 -140 26t-107.5 84.5t-43.5 139.5q0 156 157.5 239t432.5 85v59q0 133 -44.5 188.5t-160.5 55.5q-110 0 -168 -48t-51 -151l-133 23q-19 140 75.5 217.5t280.5 77.5q179 0 257.5 -79t78.5 -257v-398v-14q-1 -13 0 -25 t1.5 -23.5t4 -21.5t8.5 -18t14 -14t21 -9t29 -3t39 4l-27 -123q-209 -30 -213 161zM690 328v106q-233 -1 -337.5 -53t-104.5 -148q0 -66 44 -105.5t120 -39.5q105 0 188.5 72t89.5 168zM391 1128l273 404l116 -78l-305 -383z" />
<glyph unicode="&#xe2;" horiz-adv-x="999" d="M702 147v3q-33 -74 -118 -126.5t-193 -52.5q-76 0 -140 26t-107.5 84.5t-43.5 139.5q0 156 157.5 239t432.5 85v59q0 133 -44.5 188.5t-160.5 55.5q-110 0 -168 -48t-51 -151l-133 23q-19 140 75.5 217.5t280.5 77.5q179 0 257.5 -79t78.5 -257v-398v-14q-1 -13 0 -25 t1.5 -23.5t4 -21.5t8.5 -18t14 -14t21 -9t29 -3t39 4l-27 -123q-209 -30 -213 161zM690 328v106q-233 -1 -337.5 -53t-104.5 -148q0 -66 44 -105.5t120 -39.5q105 0 188.5 72t89.5 168zM195 1118l237 400h96l240 -400l-88 -47l-203 293l-194 -293z" />
<glyph unicode="&#xe3;" horiz-adv-x="999" d="M702 147v3q-33 -74 -118 -126.5t-193 -52.5q-76 0 -140 26t-107.5 84.5t-43.5 139.5q0 156 157.5 239t432.5 85v59q0 133 -44.5 188.5t-160.5 55.5q-110 0 -168 -48t-51 -151l-133 23q-19 140 75.5 217.5t280.5 77.5q179 0 257.5 -79t78.5 -257v-398v-14q-1 -13 0 -25 t1.5 -23.5t4 -21.5t8.5 -18t14 -14t21 -9t29 -3t39 4l-27 -123q-209 -30 -213 161zM690 328v106q-233 -1 -337.5 -53t-104.5 -148q0 -66 44 -105.5t120 -39.5q105 0 188.5 72t89.5 168zM262 1112h-110q1 5 3 13t9 32t16.5 45.5t25.5 48t35 45.5t46.5 32t58.5 13 q44 0 90.5 -27t87.5 -54t72 -27q39 0 62 34t28 79h111q-1 -5 -2 -13t-7.5 -32t-15 -46t-25 -48.5t-37.5 -45.5t-52.5 -32t-69.5 -13q-42 0 -80 16.5t-60.5 36t-50 36t-51.5 16.5q-62 0 -84 -109z" />
<glyph unicode="&#xe4;" horiz-adv-x="999" d="M702 147v3q-33 -74 -118 -126.5t-193 -52.5q-76 0 -140 26t-107.5 84.5t-43.5 139.5q0 156 157.5 239t432.5 85v59q0 133 -44.5 188.5t-160.5 55.5q-110 0 -168 -48t-51 -151l-133 23q-19 140 75.5 217.5t280.5 77.5q179 0 257.5 -79t78.5 -257v-398v-14q-1 -13 0 -25 t1.5 -23.5t4 -21.5t8.5 -18t14 -14t21 -9t29 -3t39 4l-27 -123q-209 -30 -213 161zM690 328v106q-233 -1 -337.5 -53t-104.5 -148q0 -66 44 -105.5t120 -39.5q105 0 188.5 72t89.5 168zM662 1161q-40 0 -69.5 30.5t-29.5 70.5t29.5 69t69.5 29t70 -29t30 -69t-30 -70.5 t-70 -30.5zM287 1161q-40 0 -70.5 30.5t-30.5 70.5q0 39 30.5 68.5t70.5 29.5t69 -29t29 -69t-29.5 -70.5t-68.5 -30.5z" />
<glyph unicode="&#xe5;" horiz-adv-x="999" d="M702 147v3q-33 -74 -118 -126.5t-193 -52.5q-76 0 -140 26t-107.5 84.5t-43.5 139.5q0 156 157.5 239t432.5 85v59q0 133 -44.5 188.5t-160.5 55.5q-110 0 -168 -48t-51 -151l-133 23q-19 140 75.5 217.5t280.5 77.5q179 0 257.5 -79t78.5 -257v-398v-14q-1 -13 0 -25 t1.5 -23.5t4 -21.5t8.5 -18t14 -14t21 -9t29 -3t39 4l-27 -123q-209 -30 -213 161zM690 328v106q-233 -1 -337.5 -53t-104.5 -148q0 -66 44 -105.5t120 -39.5q105 0 188.5 72t89.5 168zM276 1270q0 75 50.5 129.5t150.5 54.5q99 0 150 -54.5t51 -129.5t-51.5 -134 t-149.5 -59q-99 0 -150 58.5t-51 134.5zM477 1165q47 0 74 32.5t27 70.5q0 36 -25.5 67t-75.5 31q-51 0 -75.5 -31t-24.5 -67q0 -39 26 -71t74 -32z" />
<glyph unicode="&#xe6;" horiz-adv-x="1566" d="M100 223q0 160 156.5 247t433.5 89v45q0 133 -44.5 188.5t-160.5 55.5q-110 0 -168 -48t-51 -151l-133 23q-18 139 74.5 217t284.5 78q216 0 290 -111q111 111 305 111q182 0 276.5 -105t94.5 -317v-94h-645q0 -74 13.5 -136t43 -114.5t84.5 -82.5t131 -30 q105 0 168 51.5t86 126.5l119 -24q-78 -271 -373 -271q-249 0 -354 181q-143 -181 -338 -181q-77 0 -141.5 25.5t-108 84.5t-43.5 142zM248 236q0 -69 44 -108.5t122 -39.5q110 0 190 74.5t86 173.5v110q-233 -1 -337.5 -55.5t-104.5 -154.5zM819 563h496v49q0 106 -59 172 t-169 66q-111 0 -179.5 -71.5t-88.5 -215.5z" />
<glyph unicode="&#xe7;" horiz-adv-x="962" d="M299 -446l41 86q64 -39 139 -39q53 0 85 25t32 71q0 52 -46 77t-149 31l41 170q-164 22 -248.5 150t-84.5 346q0 109 22 194.5t59.5 141.5t91 92.5t113.5 52t129 15.5q157 0 254.5 -75.5t81.5 -213.5l-135 -23q4 56 -10.5 96t-44.5 60.5t-64 29.5t-76 9q-272 0 -272 -379 q0 -199 68 -291t184 -92q92 0 157 49t81 121l118 -25q-31 -115 -110.5 -182.5t-204.5 -77.5l-25 -96q189 -26 189 -176q0 -88 -63.5 -142.5t-172.5 -54.5q-116 0 -180 50z" />
<glyph unicode="&#xe8;" horiz-adv-x="1011" d="M901 453h-643q4 -365 272 -365q105 0 166.5 51.5t85.5 126.5l119 -24q-76 -271 -373 -271q-198 0 -308.5 121t-110.5 363q0 83 13 155.5t44.5 139t79 114t121.5 75.5t168 28q366 0 366 -414v-100zM530 850q-108 0 -177 -71t-89 -210h498v43q0 105 -61 171.5t-171 66.5z M526 1071l-303 383l117 78l272 -404z" />
<glyph unicode="&#xe9;" horiz-adv-x="1011" d="M442 1128l273 404l116 -78l-305 -383zM901 453h-643q4 -365 272 -365q105 0 166.5 51.5t85.5 126.5l119 -24q-76 -271 -373 -271q-198 0 -308.5 121t-110.5 363q0 83 13 155.5t44.5 139t79 114t121.5 75.5t168 28q366 0 366 -414v-100zM530 850q-108 0 -177 -71t-89 -210 h498v43q0 105 -61 171.5t-171 66.5z" />
<glyph unicode="&#xea;" horiz-adv-x="1011" d="M242 1118l237 400h96l240 -400l-88 -47l-203 293l-194 -293zM901 453h-643q4 -365 272 -365q105 0 166.5 51.5t85.5 126.5l119 -24q-76 -271 -373 -271q-198 0 -308.5 121t-110.5 363q0 83 13 155.5t44.5 139t79 114t121.5 75.5t168 28q366 0 366 -414v-100zM530 850 q-108 0 -177 -71t-89 -210h498v43q0 105 -61 171.5t-171 66.5z" />
<glyph unicode="&#xeb;" horiz-adv-x="1011" d="M711 1161q-40 0 -69.5 30.5t-29.5 70.5t29.5 69t69.5 29t70 -29t30 -69t-30 -70.5t-70 -30.5zM336 1161q-40 0 -70 30.5t-30 70.5t30 69t70 29t69 -29t29 -69t-29.5 -70.5t-68.5 -30.5zM901 453h-643q4 -365 272 -365q105 0 166.5 51.5t85.5 126.5l119 -24 q-76 -271 -373 -271q-198 0 -308.5 121t-110.5 363q0 83 13 155.5t44.5 139t79 114t121.5 75.5t168 28q366 0 366 -414v-100zM530 850q-108 0 -177 -71t-89 -210h498v43q0 105 -61 171.5t-171 66.5z" />
<glyph unicode="&#xec;" horiz-adv-x="468" d="M166 0v938h137v-938h-137zM227 1071l-303 383l117 78l272 -404z" />
<glyph unicode="&#xed;" horiz-adv-x="468" d="M143 1128l273 404l116 -78l-305 -383zM166 0v938h137v-938h-137z" />
<glyph unicode="&#xee;" horiz-adv-x="468" d="M-55 1118l237 400h97l239 -400l-88 -47l-203 293l-194 -293zM166 0v938h137v-938h-137z" />
<glyph unicode="&#xef;" horiz-adv-x="468" d="M414 1161q-40 0 -69.5 30.5t-29.5 70.5t29.5 69t69.5 29t70 -29t30 -69t-30 -70.5t-70 -30.5zM39 1161q-40 0 -70 30.5t-30 70.5t30 69t70 29t69 -29t29 -69t-29.5 -70.5t-68.5 -30.5zM166 0v938h137v-938h-137z" />
<glyph unicode="&#xf0;" horiz-adv-x="1075" d="M186 1380l39 113q242 -76 369 -178l248 149l57 -98l-219 -133q266 -284 266 -727q0 -263 -104 -399t-314 -136q-110 0 -192 35.5t-131 101.5t-72.5 153t-23.5 196q0 217 118.5 347t290.5 130q151 0 236 -74l4 2q-64 172 -189 303l-284 -172l-60 99l254 153 q-119 85 -293 135zM528 84q151 0 216 96.5t65 274.5q0 195 -59 273.5t-222 78.5q-132 0 -200 -92.5t-68 -257.5q0 -72 6.5 -125.5t24 -102.5t47 -79.5t77 -48t113.5 -17.5z" />
<glyph unicode="&#xf1;" horiz-adv-x="1079" d="M166 0v938h133v-193q15 32 36 62.5t61 70.5t103 64.5t140 24.5q128 0 205.5 -72t77.5 -205v-690h-136v649q0 106 -38.5 152.5t-118.5 46.5q-65 0 -120 -27.5t-88.5 -64.5t-60 -88t-38 -85.5t-19.5 -68.5v-514h-137zM346 1112h-110q1 5 3 13t9 32t16.5 45.5t25.5 48 t35 45.5t46.5 32t58.5 13q44 0 90.5 -27t87.5 -54t72 -27q39 0 62 34t28 79h111q-1 -5 -2 -13t-7.5 -32t-15 -46t-25 -48.5t-37.5 -45.5t-52.5 -32t-69.5 -13q-42 0 -80 16.5t-60.5 36t-50 36t-51.5 16.5q-62 0 -84 -109z" />
<glyph unicode="&#xf2;" horiz-adv-x="1067" d="M528 -29q-106 0 -187 37t-131.5 104.5t-75.5 157.5t-25 201q0 233 110.5 364.5t321.5 131.5q201 0 309 -123.5t108 -356.5q0 -112 -25.5 -204t-76.5 -162.5t-134.5 -110t-193.5 -39.5zM530 88q135 0 208 99t73 282q0 185 -72.5 283t-201.5 98q-131 0 -205 -99t-74 -288 t72 -282t200 -93zM524 1071l-303 383l117 78l272 -404z" />
<glyph unicode="&#xf3;" horiz-adv-x="1067" d="M440 1128l273 404l116 -78l-305 -383zM528 -29q-106 0 -187 37t-131.5 104.5t-75.5 157.5t-25 201q0 233 110.5 364.5t321.5 131.5q201 0 309 -123.5t108 -356.5q0 -112 -25.5 -204t-76.5 -162.5t-134.5 -110t-193.5 -39.5zM530 88q135 0 208 99t73 282q0 185 -72.5 283 t-201.5 98q-131 0 -205 -99t-74 -288t72 -282t200 -93z" />
<glyph unicode="&#xf4;" horiz-adv-x="1067" d="M242 1118l237 400h96l240 -400l-88 -47l-203 293l-194 -293zM528 -29q-106 0 -187 37t-131.5 104.5t-75.5 157.5t-25 201q0 233 110.5 364.5t321.5 131.5q201 0 309 -123.5t108 -356.5q0 -112 -25.5 -204t-76.5 -162.5t-134.5 -110t-193.5 -39.5zM530 88q135 0 208 99 t73 282q0 185 -72.5 283t-201.5 98q-131 0 -205 -99t-74 -288t72 -282t200 -93z" />
<glyph unicode="&#xf5;" horiz-adv-x="1067" d="M528 -29q-106 0 -187 37t-131.5 104.5t-75.5 157.5t-25 201q0 233 110.5 364.5t321.5 131.5q201 0 309 -123.5t108 -356.5q0 -112 -25.5 -204t-76.5 -162.5t-134.5 -110t-193.5 -39.5zM530 88q135 0 208 99t73 282q0 185 -72.5 283t-201.5 98q-131 0 -205 -99t-74 -288 t72 -282t200 -93zM311 1112h-110q1 5 3 13t9 32t16.5 45.5t25.5 48t35 45.5t46.5 32t58.5 13q44 0 90.5 -27t87.5 -54t72 -27q39 0 62 34t28 79h111q-1 -5 -2 -13t-7.5 -32t-15 -46t-25 -48.5t-37.5 -45.5t-52.5 -32t-69.5 -13q-42 0 -80 16.5t-60.5 36t-50 36t-51.5 16.5 q-62 0 -84 -109z" />
<glyph unicode="&#xf6;" horiz-adv-x="1067" d="M709 1161q-40 0 -69.5 30.5t-29.5 70.5t29.5 69t69.5 29t70 -29t30 -69t-30 -70.5t-70 -30.5zM334 1161q-40 0 -70.5 30.5t-30.5 70.5q0 39 30.5 68.5t70.5 29.5t69 -29t29 -69t-29.5 -70.5t-68.5 -30.5zM528 -29q-106 0 -187 37t-131.5 104.5t-75.5 157.5t-25 201 q0 233 110.5 364.5t321.5 131.5q201 0 309 -123.5t108 -356.5q0 -112 -25.5 -204t-76.5 -162.5t-134.5 -110t-193.5 -39.5zM530 88q135 0 208 99t73 282q0 185 -72.5 283t-201.5 98q-131 0 -205 -99t-74 -288t72 -282t200 -93z" />
<glyph unicode="&#xf7;" d="M553 774q-47 0 -81 34t-34 81t34 81t81 34t81 -34t34 -81t-34 -81t-81 -34zM94 442v107h918v-107h-918zM438 96q0 47 34 81t81 34t81 -34t34 -81t-34 -80.5t-81 -33.5t-81 33.5t-34 80.5z" />
<glyph unicode="&#xf8;" horiz-adv-x="1064" d="M528 -29q-129 0 -225 58l-100 -152l-86 57l106 160q-114 132 -114 377q0 233 110.5 364.5t321.5 131.5q133 0 229 -58l96 142l86 -56l-102 -151q108 -123 108 -357q0 -112 -25.5 -204t-76.5 -162.5t-134.5 -110t-193.5 -39.5zM260 463q0 -155 47 -244l387 578 q-62 53 -157 53q-130 0 -203.5 -99t-73.5 -288zM530 88q133 0 205 99t72 282q0 148 -47 240l-385 -574q61 -47 155 -47z" />
<glyph unicode="&#xf9;" horiz-adv-x="1079" d="M158 246v692h137v-651q0 -108 35.5 -152.5t115.5 -44.5q61 0 113.5 22.5t86.5 54.5t62.5 76t43.5 78.5t26 71.5v545h135v-938h-125l-8 174q-17 -33 -41 -62.5t-64.5 -64t-102.5 -55.5t-136 -21q-131 0 -204.5 70.5t-73.5 204.5zM537 1071l-304 383l117 78l273 -404z" />
<glyph unicode="&#xfa;" horiz-adv-x="1079" d="M453 1128l272 404l117 -78l-305 -383zM158 246v692h137v-651q0 -108 35.5 -152.5t115.5 -44.5q61 0 113.5 22.5t86.5 54.5t62.5 76t43.5 78.5t26 71.5v545h135v-938h-125l-8 174q-17 -33 -41 -62.5t-64.5 -64t-102.5 -55.5t-136 -21q-131 0 -204.5 70.5t-73.5 204.5z" />
<glyph unicode="&#xfb;" horiz-adv-x="1079" d="M254 1118l238 400h96l239 -400l-88 -47l-202 293l-195 -293zM158 246v692h137v-651q0 -108 35.5 -152.5t115.5 -44.5q61 0 113.5 22.5t86.5 54.5t62.5 76t43.5 78.5t26 71.5v545h135v-938h-125l-8 174q-17 -33 -41 -62.5t-64.5 -64t-102.5 -55.5t-136 -21 q-131 0 -204.5 70.5t-73.5 204.5z" />
<glyph unicode="&#xfc;" horiz-adv-x="1079" d="M723 1161q-39 0 -68.5 30.5t-29.5 70.5t29 69t69 29t70 -29t30 -69t-30 -70.5t-70 -30.5zM348 1161q-40 0 -70 30.5t-30 70.5t30 69t70 29t69 -29t29 -69t-29.5 -70.5t-68.5 -30.5zM158 246v692h137v-651q0 -108 35.5 -152.5t115.5 -44.5q61 0 113.5 22.5t86.5 54.5 t62.5 76t43.5 78.5t26 71.5v545h135v-938h-125l-8 174q-17 -33 -41 -62.5t-64.5 -64t-102.5 -55.5t-136 -21q-131 0 -204.5 70.5t-73.5 204.5z" />
<glyph unicode="&#xfd;" horiz-adv-x="987" d="M45 -432l70 100q56 -51 118 -51q70 0 122 65.5t69 190.5l18 150l-387 915h146l256 -616l53 -132l51 132l242 616h129l-367 -922l-24 -170q-6 -43 -15 -80.5t-31.5 -88.5t-53.5 -86.5t-84.5 -61t-120.5 -25.5q-115 0 -191 64zM397 1128l273 404l116 -78l-305 -383z" />
<glyph unicode="&#xfe;" d="M166 -467v1937h137v-679q47 81 130.5 128.5t197.5 47.5q82 0 146 -26.5t104.5 -70.5t67 -105t37.5 -125.5t11 -137.5q0 -150 -45 -268.5t-137.5 -190.5t-218.5 -72q-97 0 -173 39.5t-120 106.5v-584h-137zM586 82q264 0 264 403q0 86 -11.5 149.5t-38.5 115.5t-76.5 79 t-121.5 27q-70 0 -124.5 -26.5t-86.5 -67.5t-52.5 -95.5t-28 -105t-7.5 -102.5t7.5 -101.5t28 -100.5t51.5 -89t81.5 -62t114.5 -24z" />
<glyph unicode="&#xff;" horiz-adv-x="987" d="M45 -432l70 100q56 -51 118 -51q70 0 122 65.5t69 190.5l18 150l-387 915h146l256 -616l53 -132l51 132l242 616h129l-367 -922l-24 -170q-6 -43 -15 -80.5t-31.5 -88.5t-53.5 -86.5t-84.5 -61t-120.5 -25.5q-115 0 -191 64zM694 1161q-39 0 -68.5 30.5t-29.5 70.5t29 69 t69 29t70.5 -29.5t30.5 -68.5q0 -40 -30.5 -70.5t-70.5 -30.5zM319 1161q-40 0 -70 30.5t-30 70.5t30 69t70 29t69.5 -29t29.5 -69t-29.5 -70.5t-69.5 -30.5z" />
<glyph unicode="&#x152;" horiz-adv-x="1882" d="M944 0q-102 -29 -211 -29q-127 0 -227 33t-170 95t-116 153t-67.5 203.5t-21.5 249.5q0 145 36 266t108 214t188.5 145t267.5 52q120 0 223 -28h787v-133h-666v-471h557v-134h-557v-483h678v-133h-809zM737 84q105 0 189 41v1108q-79 37 -193 37q-106 0 -185 -35 t-125.5 -90t-75.5 -135.5t-38.5 -159t-9.5 -172.5q0 -84 7 -152.5t24 -139t49 -123t79 -94t118 -63.5t161 -22z" />
<glyph unicode="&#x153;" horiz-adv-x="1697" d="M1217 -29q-244 0 -351 166q-109 -166 -331 -166q-213 0 -319.5 134t-106.5 364q0 235 110 366.5t322 131.5q232 0 336 -162q111 162 342 162q370 0 370 -422v-88h-643q0 -72 11.5 -131.5t40 -116t85 -89t136.5 -32.5q104 0 165.5 51.5t85.5 126.5l119 -24 q-76 -271 -372 -271zM530 88q135 0 208 99t73 282q0 185 -72.5 283t-201.5 98q-131 0 -205 -99t-74 -288t72 -282t200 -93zM1219 850q-108 0 -177.5 -71t-89.5 -210h496v43q0 106 -59.5 172t-169.5 66z" />
<glyph unicode="&#x178;" horiz-adv-x="1210" d="M537 0v516l-496 838h172l399 -674l379 674h158l-465 -834v-520h-147zM803 1538q-40 0 -69 29t-29 69t29.5 70.5t68.5 30.5q40 0 70 -30.5t30 -70.5t-30 -69t-70 -29zM391 1538q-41 0 -70.5 29t-29.5 69t29.5 70.5t70.5 30.5q38 0 68 -30.5t30 -70.5q0 -39 -29.5 -68.5 t-68.5 -29.5z" />
<glyph unicode="&#x2c6;" horiz-adv-x="1024" d="M236 1118l237 400h96l240 -400l-88 -47l-203 293l-194 -293z" />
<glyph unicode="&#x2dc;" horiz-adv-x="1030" d="M313 1112h-110q1 5 3 13t9 32t16.5 45.5t25.5 48t35 45.5t46.5 32t58.5 13q44 0 90.5 -27t87.5 -54t72 -27q39 0 62 34t28 79h111q-1 -5 -2 -13t-7.5 -32t-15 -46t-25 -48.5t-37.5 -45.5t-52.5 -32t-69.5 -13q-42 0 -80 16.5t-60.5 36t-50 36t-51.5 16.5q-62 0 -84 -109z " />
<glyph unicode="&#x2000;" horiz-adv-x="917" />
<glyph unicode="&#x2001;" horiz-adv-x="1835" />
<glyph unicode="&#x2002;" horiz-adv-x="917" />
<glyph unicode="&#x2003;" horiz-adv-x="1835" />
<glyph unicode="&#x2004;" horiz-adv-x="611" />
<glyph unicode="&#x2005;" horiz-adv-x="458" />
<glyph unicode="&#x2006;" horiz-adv-x="305" />
<glyph unicode="&#x2007;" horiz-adv-x="305" />
<glyph unicode="&#x2008;" horiz-adv-x="229" />
<glyph unicode="&#x2009;" horiz-adv-x="367" />
<glyph unicode="&#x200a;" horiz-adv-x="101" />
<glyph unicode="&#x2010;" horiz-adv-x="819" d="M152 397v142h516v-142h-516z" />
<glyph unicode="&#x2011;" horiz-adv-x="819" d="M152 397v142h516v-142h-516z" />
<glyph unicode="&#x2012;" horiz-adv-x="819" d="M152 397v142h516v-142h-516z" />
<glyph unicode="&#x2013;" horiz-adv-x="1339" d="M158 408v120h1024v-120h-1024z" />
<glyph unicode="&#x2014;" horiz-adv-x="2363" d="M158 408v120h2048v-120h-2048z" />
<glyph unicode="&#x2018;" horiz-adv-x="501" d="M119 1159q0 181 200 334l62 -53q-64 -64 -93.5 -109t-29.5 -98q0 -55 32 -96t93 -86l-143 -109q-47 16 -84 72.5t-37 144.5z" />
<glyph unicode="&#x2019;" horiz-adv-x="501" d="M188 963l-59 55q64 64 93.5 109t29.5 98q0 55 -32 95.5t-93 84.5l141 111q48 -17 84.5 -74t36.5 -146q0 -95 -51.5 -175.5t-149.5 -157.5z" />
<glyph unicode="&#x201a;" horiz-adv-x="516" d="M184 -319l-59 55q64 64 93.5 109t29.5 98q0 55 -32 95.5t-93 84.5l141 110q48 -17 84.5 -73.5t36.5 -145.5q0 -95 -51.5 -175.5t-149.5 -157.5z" />
<glyph unicode="&#x201c;" horiz-adv-x="837" d="M119 1159q0 181 200 334l62 -53q-64 -64 -93.5 -109t-29.5 -98q0 -55 32 -96t93 -86l-143 -109q-47 16 -84 72.5t-37 144.5zM455 1159q0 181 200 334l62 -53q-64 -64 -93.5 -109t-29.5 -98q0 -55 32 -96t93 -86l-144 -109q-47 15 -83.5 72t-36.5 145z" />
<glyph unicode="&#x201d;" horiz-adv-x="837" d="M188 961l-59 55q64 64 93.5 109t29.5 98q0 55 -32 95.5t-93 84.5l141 110q48 -17 84.5 -73.5t36.5 -145.5q0 -95 -51.5 -175.5t-149.5 -157.5zM524 961l-59 55q64 64 93.5 109t29.5 98q0 55 -32 95.5t-93 84.5l141 110q48 -17 84.5 -73.5t36.5 -145.5q0 -95 -51.5 -175.5 t-149.5 -157.5z" />
<glyph unicode="&#x201e;" horiz-adv-x="851" d="M184 -319l-59 55q64 64 93.5 109t29.5 98q0 55 -32 95.5t-93 84.5l141 110q48 -17 84.5 -73.5t36.5 -145.5q0 -95 -51.5 -175.5t-149.5 -157.5zM520 -319l-59 55q64 64 93.5 109t29.5 98q0 55 -32 95.5t-93 84.5l141 110q48 -17 84.5 -73.5t36.5 -145.5 q0 -95 -51.5 -175.5t-149.5 -157.5z" />
<glyph unicode="&#x2022;" horiz-adv-x="890" d="M180 465q0 114 75.5 190t188.5 76q114 0 190.5 -76t76.5 -190q0 -113 -76.5 -188.5t-190.5 -75.5q-112 0 -188 75.5t-76 188.5z" />
<glyph unicode="&#x2026;" horiz-adv-x="1525" d="M135 104q0 50 35 85.5t86 35.5t86 -35.5t35 -85.5q0 -51 -35 -86.5t-86 -35.5t-86 35.5t-35 86.5zM641 104q0 50 35 85.5t86 35.5t86 -35.5t35 -85.5q0 -51 -35 -86.5t-86 -35.5t-86 35.5t-35 86.5zM1149 104q0 50 35 85.5t86 35.5t86 -35.5t35 -85.5q0 -51 -35 -86.5 t-86 -35.5t-86 35.5t-35 86.5z" />
<glyph unicode="&#x202f;" horiz-adv-x="367" />
<glyph unicode="&#x2039;" horiz-adv-x="616" d="M111 467q0 108 95.5 239t223.5 228l80 -90q-143 -128 -191.5 -207.5t-48.5 -167.5q0 -89 50.5 -173t189.5 -202l-80 -92q-127 95 -223 226.5t-96 238.5z" />
<glyph unicode="&#x203a;" horiz-adv-x="616" d="M106 94q139 118 189.5 202t50.5 173q0 88 -48.5 167.5t-191.5 207.5l80 90q128 -97 224 -228t96 -239q0 -107 -96.5 -238.5t-223.5 -226.5z" />
<glyph unicode="&#x205f;" horiz-adv-x="458" />
<glyph unicode="&#x20ac;" d="M53 657v97h158q73 403 461 403q165 0 261.5 -73t96.5 -214l-143 -24q0 194 -213 194q-247 0 -309 -286h399v-97h-414q-4 -39 -4 -118q0 -47 2 -70h416v-96h-408q24 -150 96 -217.5t199 -67.5q71 0 124 20t79 48t42 56.5t19 48.5l3 20l116 -25q-1 -6 -2.5 -16t-12 -40 t-26 -57t-46 -59.5t-69.5 -56.5t-100.5 -40t-134.5 -16q-371 0 -436 402h-154v96h144q-2 27 -2 84q0 71 4 104h-146z" />
<glyph unicode="&#x2122;" horiz-adv-x="1593" d="M764 717v637h174l158 -449l147 449h172v-637h-104v557l-187 -557h-65l-191 549v-549h-104zM143 1260v94h523v-94h-213v-543h-105v543h-205z" />
<glyph unicode="&#x25fc;" horiz-adv-x="942" d="M0 942h942v-942h-942v942z" />
</font>
</defs>
</svg>
