<?xml version="1.0" standalone="no"?>
<!DOCTYPE svg PUBLIC "-//W3C//DTD SVG 1.1//EN" "http://www.w3.org/Graphics/SVG/1.1/DTD/svg11.dtd" >
<svg xmlns="http://www.w3.org/2000/svg">
<metadata></metadata>
<defs>
<font id="libel_suitextralight_italic" horiz-adv-x="798" >
<font-face units-per-em="2048" ascent="1616" descent="-432" />
<missing-glyph horiz-adv-x="337" />
<glyph horiz-adv-x="0" />
<glyph horiz-adv-x="682" />
<glyph horiz-adv-x="337" />
<glyph unicode=" "  horiz-adv-x="337" />
<glyph unicode="&#x09;" horiz-adv-x="337" />
<glyph unicode="&#xa0;" horiz-adv-x="337" />
<glyph unicode="!" horiz-adv-x="299" d="M365 1632h79l-317 -1282h-37zM51 109q39 0 39 -41q0 -28 -17.5 -50t-45.5 -22q-37 0 -37 41q0 29 16.5 50.5t44.5 21.5z" />
<glyph unicode="&#x22;" horiz-adv-x="440" d="M539 1632h61l-131 -522h-41zM346 1632h62l-132 -522h-40z" />
<glyph unicode="#" horiz-adv-x="1021" d="M104 573h201l166 463h-201l19 54h203l184 514h51l-184 -514h268l184 514h56l-187 -514h199l-21 -54h-196l-166 -463h199l-19 -53h-201l-186 -520h-51l186 520h-270l-186 -520h-52l187 520h-201zM522 1036l-166 -463h271l166 463h-271z" />
<glyph unicode="$" horiz-adv-x="794" d="M639 1645h41l-47 -205q98 -4 149.5 -52t51.5 -126q0 -36 -35 -177h-54q35 135 35 166q0 66 -46.5 100.5t-129.5 34.5q-129 0 -208 -76t-79 -202q0 -88 48 -145q27 -31 125 -105t133 -119q55 -68 55 -176q0 -171 -85.5 -285t-256.5 -120l-45 -199h-41l45 199 q-104 4 -159.5 56t-55.5 134q0 30 49 242l51 -15q-45 -193 -45 -217q0 -69 50 -107t147 -38q72 0 126.5 22t85 55.5t49 81t24.5 89.5t6 90q0 97 -50 156q-37 45 -132.5 116.5t-125.5 108.5q-53 62 -53 166q0 148 92 242t236 102z" />
<glyph unicode="%" horiz-adv-x="1189" d="M1143 1604h53l-1022 -1604h-55zM1108 721l-129 -559q-20 -81 -81.5 -129.5t-135.5 -48.5q-77 0 -115 48t-20 130l127 559q18 81 80 128.5t139 47.5q75 0 114 -47.5t21 -128.5zM801 721l-129 -559q-16 -67 12 -99t88 -32q55 0 100.5 37.5t57.5 93.5l129 559q16 67 -11 98 t-87 31q-55 0 -101.5 -38t-58.5 -91zM688 1442l-129 -559q-20 -81 -81.5 -129.5t-135.5 -48.5q-77 0 -115 48t-20 130l127 559q18 81 80 128.5t139 47.5q75 0 114 -47.5t21 -128.5zM381 1442l-129 -559q-16 -67 12 -99t88 -32q55 0 100.5 37.5t57.5 93.5l129 559 q16 67 -11 98t-87 31q-55 0 -101.5 -38t-58.5 -91z" />
<glyph unicode="&#x26;" horiz-adv-x="858" d="M358 1341l-55 -241q-14 -60 -14 -107q0 -72 40.5 -96.5t135.5 -24.5h387l-14 -53h-174l-144 -622q-12 -66 -12 -84q0 -37 17 -55.5t57 -18.5q47 0 100 41v-51q-51 -45 -121 -45q-101 0 -108 108q-82 -121 -220 -121q-98 0 -149 61t-51 158q0 48 12 97l64 278 q31 134 87 198.5t142 84.5q-105 25 -105 141q0 45 15 109l57 245q36 154 132.5 248.5t230.5 94.5q101 0 157 -57t56 -159q0 -40 -13 -100l-12 -53h-53l12 51q12 56 12 98q0 83 -43 123.5t-122 40.5q-117 0 -196 -80t-108 -209zM459 168l6 27l143 624h-157q-124 0 -190 -59 t-97 -195l-64 -276q-10 -52 -10 -86q0 -79 39 -126.5t117 -47.5q140 0 213 139z" />
<glyph unicode="'" horiz-adv-x="245" d="M346 1632h62l-132 -522h-40z" />
<glyph unicode="(" horiz-adv-x="602" d="M866 1964l-12 -53q-292 -34 -379 -412l-338 -1464q-22 -99 -22 -166q0 -219 211 -246l-11 -53q-254 33 -254 293q0 67 23 170l340 1468q96 417 442 463z" />
<glyph unicode=")" horiz-adv-x="602" d="M-156 -430l13 53q292 34 379 412l337 1464q23 103 23 166q0 219 -211 246l10 53q254 -33 254 -293q0 -71 -22 -170l-340 -1468q-96 -416 -443 -463z" />
<glyph unicode="*" horiz-adv-x="882" d="M338 1417l244 -207l80 394h49l-101 -392l340 209l15 -47l-344 -184l260 -184l-35 -45l-244 204l-80 -391h-47l100 389l-339 -207l-17 45l346 185l-260 184z" />
<glyph unicode="+" horiz-adv-x="1044" d="M657 1229h50l-97 -422h373l-12 -53h-373l-98 -424h-49l96 424h-371l12 53h371z" />
<glyph unicode="," horiz-adv-x="280" d="M59 10l-127 -223h-28l78 266q17 56 59 56q39 0 39 -43q0 -9 -2.5 -17.5t-4 -12t-7.5 -14t-7 -12.5z" />
<glyph unicode="-" horiz-adv-x="634" d="M154 805h452l-10 -53h-455z" />
<glyph unicode="." horiz-adv-x="280" d="M41 109q39 0 39 -41q0 -29 -17 -50.5t-47 -21.5q-36 0 -36 41q0 29 17 50.5t44 21.5z" />
<glyph unicode="/" horiz-adv-x="720" d="M901 1780h55l-1030 -2026h-53z" />
<glyph unicode="0" horiz-adv-x="815" d="M879 1311l-236 -1018q-34 -147 -138 -234.5t-229 -87.5q-103 0 -165 61t-62 167q0 41 12 94l234 1018q32 144 133.5 232.5t230.5 88.5q105 0 167.5 -60.5t62.5 -172.5q0 -47 -10 -88zM350 1311l-235 -1018q-11 -43 -11 -82q0 -90 49.5 -137t131.5 -47q105 0 189 73.5 t112 192.5l235 1018q10 52 10 86q0 87 -49.5 133.5t-130.5 46.5q-103 0 -187.5 -72.5t-113.5 -193.5z" />
<glyph unicode="1" horiz-adv-x="436" d="M276 1432h119q38 0 62.5 43t44.5 129h55l-369 -1604h-57l318 1378h-183z" />
<glyph unicode="2" horiz-adv-x="741" d="M631 1632q108 0 162.5 -62.5t54.5 -197.5q0 -95 -34 -183.5t-128 -195.5q-74 -84 -226 -217.5t-200 -183.5q-63 -67 -93.5 -127t-51.5 -150l-60 -260h492l-10 -55h-551l73 315q24 105 59 170.5t103 137.5q57 63 179.5 167t244.5 232q32 35 51.5 60t43.5 67.5t36 95.5 t12 117q0 114 -42.5 164.5t-129.5 50.5q-107 0 -181.5 -69.5t-102.5 -192.5l-13 -53h-55l12 53q34 148 128 232.5t227 84.5z" />
<glyph unicode="3" horiz-adv-x="780" d="M629 1632q110 0 165.5 -61t55.5 -168q0 -60 -14 -117l-45 -203q-27 -119 -77.5 -176.5t-131.5 -75.5q116 -28 116 -159q0 -45 -16 -123l-59 -262q-33 -143 -136.5 -229.5t-230.5 -86.5q-103 0 -163 60t-60 164q0 41 12 94l18 82l52 -15l-15 -67q-10 -48 -10 -80 q0 -86 47 -134t131 -48q102 0 186.5 72.5t110.5 187.5l62 260q16 72 16 115q0 78 -44 109.5t-142 31.5h-111l12 53h109q117 0 176.5 48t89.5 179l45 203q15 62 15 111q0 87 -44 133.5t-131 46.5q-103 0 -177.5 -70.5t-102.5 -193.5l-12 -51h-56l13 53q34 147 127.5 232 t218.5 85z" />
<glyph unicode="4" horiz-adv-x="790" d="M807 1604h55l-225 -975h94l-14 -56h-92l-133 -573h-54l131 573h-477l12 50l490 755h59l-487 -749h416z" />
<glyph unicode="5" horiz-adv-x="772" d="M389 1604h510l-14 -56h-457l-149 -477q134 150 303 150q184 0 184 -172q0 -52 -14 -115l-148 -645q-33 -144 -132.5 -231t-219.5 -87q-99 0 -160 61.5t-61 166.5q0 49 10 90l18 82l52 -15l-15 -67q-8 -36 -8 -74q0 -85 48.5 -136.5t125.5 -51.5q93 0 175.5 73t109.5 189 l149 647q15 73 15 100q0 74 -40 102.5t-114 28.5q-91 0 -162 -46.5t-141 -131.5l-41 17z" />
<glyph unicode="6" horiz-adv-x="794" d="M352 1315l-92 -395q135 196 309 196q90 0 139.5 -47.5t49.5 -140.5q0 -40 -13 -103l-122 -536q-33 -144 -135 -231t-224 -87q-98 0 -157.5 60t-59.5 164q0 45 12 94l238 1026q33 146 132.5 231.5t227.5 85.5q102 0 158.5 -57.5t56.5 -159.5q0 -45 -12 -100l-12 -53h-55 l12 53q10 52 10 86q0 84 -44.5 130t-125.5 46q-103 0 -184.5 -70.5t-108.5 -191.5zM547 1061q-87 0 -158 -52t-147 -167l-127 -553q-11 -53 -11 -78q0 -86 48 -135t127 -49q98 0 179.5 71t108.5 191l123 532q12 49 12 90q0 74 -40 112t-115 38z" />
<glyph unicode="7" horiz-adv-x="675" d="M330 1604h514l-13 -45l-712 -1559h-62l713 1548h-453z" />
<glyph unicode="8" horiz-adv-x="786" d="M221 1085l47 201q36 154 133.5 250t233.5 96q110 0 166.5 -62t56.5 -169q0 -58 -14 -115l-47 -201q-28 -119 -79.5 -177.5t-133.5 -76.5q60 -14 90.5 -52.5t30.5 -110.5q0 -41 -17 -121l-59 -260q-33 -142 -141 -229t-236 -87q-108 0 -175 62.5t-67 169.5q0 36 10 84 l60 260q31 134 88.5 199t146.5 85q-55 12 -81.5 46.5t-26.5 97.5q0 50 14 110zM135 549l-59 -260q-10 -48 -10 -78q0 -90 54.5 -137t143.5 -47q102 0 193 76.5t116 185.5l62 260q14 63 14 115q0 77 -47.5 108t-159.5 31q-125 0 -200 -57t-107 -197zM322 1286l-48 -203 q-14 -57 -14 -104q0 -70 44.5 -96.5t150.5 -26.5q115 0 186 49.5t100 177.5l47 203q15 62 15 113q0 178 -180 178q-111 0 -191.5 -82.5t-109.5 -208.5z" />
<glyph unicode="9" horiz-adv-x="794" d="M272 27q105 0 185 71t108 191l101 438q-132 -186 -304 -186q-90 0 -140 47.5t-50 140.5q0 47 12 102l113 484q32 140 132 228.5t222 88.5q100 0 159.5 -59.5t59.5 -163.5q0 -45 -12 -94l-235 -1026q-33 -146 -133.5 -232t-229.5 -86q-102 0 -157.5 56.5t-55.5 158.5 q0 48 12 103l19 82l51 -15l-14 -67q-13 -57 -13 -92q0 -84 45.5 -127t124.5 -43zM352 1315l-112 -479q-13 -60 -13 -97q0 -143 154 -143q86 0 156.5 49t146.5 158l119 512q12 53 12 90q0 86 -46.5 129t-121.5 43q-104 0 -186.5 -73.5t-108.5 -188.5z" />
<glyph unicode=":" horiz-adv-x="362" d="M240 793q39 0 39 -41q0 -29 -17 -50.5t-47 -21.5q-37 0 -37 41q0 29 17.5 50.5t44.5 21.5zM106 211q39 0 39 -41q0 -29 -16.5 -50.5t-46.5 -21.5q-37 0 -37 41q0 29 17 50.5t44 21.5z" />
<glyph unicode=";" horiz-adv-x="362" d="M125 113l-127 -224h-29l78 267q17 55 59 55q39 0 39 -43q0 -19 -20 -55zM240 793q39 0 39 -41q0 -29 -17 -50.5t-47 -21.5q-37 0 -37 41q0 29 17.5 50.5t44.5 21.5z" />
<glyph unicode="&#x3c;" horiz-adv-x="1044" d="M188 807l881 373l-14 -64l-826 -344l668 -348l-14 -51l-709 372z" />
<glyph unicode="=" horiz-adv-x="1044" d="M233 1004h795l-10 -54h-797zM141 602h795l-12 -53h-795z" />
<glyph unicode="&#x3e;" horiz-adv-x="1044" d="M969 745l-881 -372l14 63l826 342l-668 350l14 52l709 -373z" />
<glyph unicode="?" horiz-adv-x="727" d="M631 1645q98 0 152.5 -56t54.5 -172q0 -119 -42.5 -202t-179.5 -269q-10 -15 -16 -22q-105 -143 -151 -215.5t-78 -155t-56 -203.5h-45q21 125 57 218.5t83.5 168.5t148.5 211q137 182 179 266.5t42 198.5q0 94 -40.5 135t-116.5 41q-104 0 -186 -66.5t-109 -183.5 l-19 -77h-51l18 79q31 139 131.5 221.5t223.5 82.5zM240 109q39 0 39 -41q0 -27 -17 -49.5t-45 -22.5q-39 0 -39 41q0 29 17.5 50.5t44.5 21.5z" />
<glyph unicode="@" horiz-adv-x="1325" d="M893 969l49 12l-168 -725q-8 -46 -8 -61q0 -72 82 -72q79 0 148.5 62.5t116.5 159.5t81 215.5t50 230.5t16 204q0 202 -87 303t-266 101q-148 0 -278 -66.5t-224.5 -179.5t-163.5 -259.5t-103 -309.5t-34 -326q0 -221 61 -372t159 -226l-35 -47q-236 185 -236 631 q0 174 35.5 346t108 326.5t172.5 273t240 188.5t300 70q208 0 304 -116.5t96 -344.5q0 -101 -16 -217.5t-53.5 -241.5t-90.5 -225t-134.5 -164.5t-178.5 -64.5q-61 0 -89 25t-28 77q-83 -102 -182 -102q-55 0 -87 33t-32 96q0 28 10 76l109 471q22 97 77.5 150.5t120.5 53.5 q47 0 81 -27t50 -71zM584 748l-109 -467q-8 -40 -8 -66q0 -92 90 -92q91 0 166 100l131 580q-17 53 -52.5 77.5t-74.5 24.5q-50 0 -87 -40.5t-56 -116.5z" />
<glyph unicode="A" d="M612 1604h62l-72 -1604h-57l14 307h-424l-125 -307h-57zM158 362h405l53 1115z" />
<glyph unicode="B" horiz-adv-x="811" d="M373 1604h286q106 0 163 -56t57 -159q0 -43 -13 -103l-45 -203q-27 -119 -77.5 -176.5t-131.5 -75.5q58 -14 87.5 -51t29.5 -106q0 -60 -16 -125l-51 -219q-36 -157 -131.5 -243.5t-227.5 -86.5h-301zM244 803l-172 -748h241q106 0 187 77t108 200l47 215q17 80 17 121 q0 76 -44 105.5t-141 29.5h-243zM416 1548l-160 -692h242q113 0 174.5 48.5t91.5 178.5l45 201q12 52 12 96q0 168 -176 168h-229z" />
<glyph unicode="C" horiz-adv-x="768" d="M352 1315l-237 -1026q-11 -45 -11 -84q0 -89 46 -133.5t122 -44.5q101 0 185 72t110 190l15 67l59 15l-18 -82q-33 -144 -135 -231t-224 -87q-98 0 -157.5 60.5t-59.5 163.5q0 45 12 94l238 1026q33 146 132.5 231.5t227.5 85.5q103 0 159 -57t56 -160q0 -45 -24 -153 h-55q22 97 22 141q0 174 -168 174q-108 0 -187.5 -70.5t-107.5 -191.5z" />
<glyph unicode="D" horiz-adv-x="817" d="M373 1604h291q104 0 160.5 -57t56.5 -169q0 -59 -19 -143l-200 -866q-42 -183 -137.5 -276t-229.5 -93h-293zM416 1548l-344 -1493h233q107 0 185.5 81.5t113.5 230.5l203 870q16 68 16 129q0 95 -43.5 138.5t-130.5 43.5h-233z" />
<glyph unicode="E" horiz-adv-x="688" d="M373 1604h469l-15 -56h-411l-160 -690h324l-13 -57h-323l-172 -746h411l-12 -55h-469z" />
<glyph unicode="F" horiz-adv-x="690" d="M373 1604h487l-12 -56h-432l-172 -745h346l-12 -58h-347l-172 -745h-57z" />
<glyph unicode="G" horiz-adv-x="794" d="M352 1315l-237 -1026q-13 -57 -13 -96q0 -82 42.5 -124t117.5 -42q99 0 186 69.5t115 190.5l115 493h-236l15 56h286l-192 -836h-43l22 127q-53 -74 -127 -115t-155 -41q-95 0 -148 57t-53 158q0 44 12 103l238 1026q33 146 132 231.5t226 85.5q102 0 159.5 -57.5 t57.5 -159.5q0 -47 -24 -153h-55q24 106 24 145q0 84 -45.5 127t-124.5 43q-104 0 -186 -71t-109 -191z" />
<glyph unicode="H" horiz-adv-x="835" d="M373 1604h57l-176 -758h471l174 758h57l-370 -1604h-58l183 791h-469l-183 -791h-57z" />
<glyph unicode="I" horiz-adv-x="307" d="M373 1604h57l-371 -1604h-57z" />
<glyph unicode="J" horiz-adv-x="763" d="M831 1604h58l-303 -1315q-33 -145 -132.5 -231.5t-224.5 -86.5q-102 0 -160.5 58.5t-58.5 160.5q0 47 31 181l51 -15q-26 -118 -26 -153q0 -88 46 -132t124 -44q102 0 182.5 70.5t109.5 191.5z" />
<glyph unicode="K" horiz-adv-x="739" d="M831 1604h70l-582 -686l234 -918h-59l-228 897l-207 -897h-57l371 1604h57l-154 -660z" />
<glyph unicode="L" horiz-adv-x="634" d="M373 1604h57l-358 -1549h374l-12 -55h-432z" />
<glyph unicode="M" horiz-adv-x="1052" d="M373 1604h61l-6 -1498l682 1498h64l-371 -1604h-53l327 1419l-643 -1419h-61l10 1421l-328 -1421h-53z" />
<glyph unicode="N" horiz-adv-x="817" d="M373 1604h69l107 -1457l338 1457h51l-371 -1604h-55l-115 1495l-342 -1495h-53z" />
<glyph unicode="O" horiz-adv-x="815" d="M879 1311l-236 -1018q-34 -147 -138 -234.5t-229 -87.5q-103 0 -165 61t-62 167q0 41 12 94l234 1018q32 144 133.5 232.5t230.5 88.5q105 0 167.5 -60.5t62.5 -172.5q0 -47 -10 -88zM350 1311l-235 -1018q-11 -43 -11 -82q0 -90 49.5 -137t131.5 -47q105 0 189 73.5 t112 192.5l235 1018q10 52 10 86q0 87 -49.5 133.5t-130.5 46.5q-103 0 -187.5 -72.5t-113.5 -193.5z" />
<glyph unicode="P" d="M373 1604h291q104 0 160.5 -57t56.5 -169q0 -59 -19 -143l-53 -234q-42 -183 -138.5 -275.5t-230.5 -92.5h-235l-146 -633h-57zM416 1548l-199 -860h234q108 0 187 80.5t114 230.5l55 238q18 79 18 137q0 174 -176 174h-233z" />
<glyph unicode="Q" horiz-adv-x="817" d="M879 1311l-232 -1002q-33 -136 -129 -225l92 -213l-51 -33l-90 207q-83 -57 -188 -57q-103 0 -165.5 60.5t-62.5 166.5q0 37 13 94l231 1002q35 151 138 236t227 85q104 0 165.5 -60.5t61.5 -172.5q0 -47 -10 -88zM344 336l51 33l101 -236q72 75 94 174l231 1004 q10 41 10 84q0 90 -49 136t-129 46q-105 0 -190.5 -73.5t-112.5 -192.5l-231 -1004q-13 -54 -13 -88q0 -85 52 -130.5t131 -45.5q84 0 160 51z" />
<glyph unicode="R" horiz-adv-x="815" d="M373 1604h286q106 0 163 -56t57 -159q0 -43 -13 -103l-45 -203q-24 -107 -68.5 -164.5t-113.5 -80.5q92 -28 92 -138q0 -42 -12 -98l-139 -602h-58l142 608q12 56 12 90q0 64 -45.5 86.5t-155.5 22.5h-231l-187 -807h-55zM416 1548l-160 -686h229q122 0 187 48t92 171 l45 203q10 44 10 90q0 174 -174 174h-229z" />
<glyph unicode="S" horiz-adv-x="763" d="M639 1632q104 0 158.5 -57t54.5 -160q0 -49 -23 -155h-55q23 101 23 145q0 85 -44 128.5t-122 43.5q-134 0 -223 -107t-89 -253q0 -91 48 -179q27 -51 115 -171.5t114 -168.5q53 -98 53 -227q0 -94 -24.5 -181.5t-71 -159.5t-122.5 -115.5t-171 -43.5q-117 0 -178.5 62 t-61.5 166q0 41 29 170l51 -15q-24 -115 -24 -147q0 -87 49 -133.5t139 -46.5q82 0 147 39t103.5 103t58 139.5t19.5 156.5q0 118 -45 201q-25 48 -109 162t-119 176q-59 104 -59 206q0 173 110.5 297.5t268.5 124.5z" />
<glyph unicode="T" horiz-adv-x="641" d="M326 1604h485l-14 -56h-215l-357 -1548h-57l358 1548h-215z" />
<glyph unicode="U" horiz-adv-x="827" d="M371 1604h55l-303 -1311q-10 -41 -10 -88q0 -88 48.5 -133t133.5 -45q100 0 184.5 75t112.5 191l303 1311h57l-303 -1311q-34 -148 -137 -235t-231 -87q-102 0 -164 60.5t-62 165.5q0 39 13 96z" />
<glyph unicode="V" d="M322 1604h55l-72 -1489l608 1489h58l-660 -1604h-63z" />
<glyph unicode="W" horiz-adv-x="1126" d="M330 1604h55l-197 -1446l592 1446h60l-109 -1446l506 1446h57l-563 -1604h-61l108 1473l-604 -1473h-59z" />
<glyph unicode="X" horiz-adv-x="821" d="M920 1604h61l-475 -781l127 -823h-58l-114 760l-455 -760h-63l506 838l-117 766h55l109 -703z" />
<glyph unicode="Y" horiz-adv-x="831" d="M313 1604h56l110 -785l469 785h64l-520 -854l-173 -750h-57l174 750z" />
<glyph unicode="Z" horiz-adv-x="733" d="M346 1604h543l-10 -41l-836 -1508h489l-12 -55h-551l11 53l831 1495h-477z" />
<glyph unicode="[" horiz-adv-x="604" d="M530 1964h338l-14 -53h-285l-528 -2288h285l-11 -53h-338z" />
<glyph unicode="\" horiz-adv-x="710" d="M342 1780h53l97 -2026h-56z" />
<glyph unicode="]" horiz-adv-x="602" d="M182 -430h-338l15 53h284l529 2288h-285l10 53h338z" />
<glyph unicode="^" horiz-adv-x="905" d="M670 1604h57l121 -899h-51l-111 839l-493 -839h-58z" />
<glyph unicode="_" horiz-adv-x="808" d="M-141 -168h774l-10 -49h-777z" />
<glyph unicode="`" horiz-adv-x="573" d="M500 1673h67l86 -323h-53z" />
<glyph unicode="a" horiz-adv-x="780" d="M301 1087l-27 41q55 65 132.5 102.5t156.5 37.5q100 0 149.5 -58t49.5 -161q0 -58 -14 -121l-216 -928h-45l21 111q-134 -127 -289 -127q-95 0 -145.5 57t-50.5 188q0 140 77 250t287 246q109 71 297 170q25 103 25 149q0 168 -164 168q-140 0 -244 -125zM240 39 q143 0 280 137l152 658q-135 -73 -266 -152q-126 -77 -201 -158t-100 -148.5t-25 -144.5q0 -106 42 -149t118 -43z" />
<glyph unicode="b" d="M383 1655l59 14l-135 -579q145 178 305 178q84 0 137.5 -53t53.5 -152q0 -43 -12 -98l-156 -678q-17 -74 -51.5 -133.5t-78 -95.5t-92.5 -55t-98 -19q-159 0 -223 182l-43 -166h-47zM590 1212q-71 0 -140.5 -45t-158.5 -153l-182 -783q38 -106 87.5 -149t114.5 -43 q92 0 167 68.5t102 183.5l153 670q12 53 12 94q0 81 -42 119t-113 38z" />
<glyph unicode="c" horiz-adv-x="751" d="M270 963l-155 -674q-9 -41 -9 -74q0 -84 44.5 -130t119.5 -46q93 0 168.5 67.5t102.5 182.5l26 112l60 15l-31 -129q-33 -138 -129 -220.5t-213 -82.5q-94 0 -149.5 56.5t-55.5 160.5q0 45 10 86l158 678q31 138 126 220.5t208 82.5q96 0 153.5 -58t57.5 -157 q0 -35 -23 -142h-53q21 91 21 123q0 84 -45 131t-121 47q-93 0 -169 -67.5t-102 -181.5z" />
<glyph unicode="d" horiz-adv-x="806" d="M885 1655l59 14l-385 -1669h-47l31 164q-145 -180 -303 -180q-86 0 -139.5 52t-53.5 152q0 44 12 99l158 678q23 98 74.5 168.5t114 102.5t129.5 32q155 0 219 -176zM270 961l-153 -670q-13 -60 -13 -94q0 -82 42 -120t114 -38q68 0 137.5 43t159.5 154l182 788 q-38 104 -87.5 146t-114.5 42q-92 0 -166 -67t-101 -184z" />
<glyph unicode="e" horiz-adv-x="761" d="M479 588q-160 -113 -342 -205l-22 -96q-11 -57 -11 -82q0 -80 44.5 -123t117.5 -43q93 0 170.5 67t104.5 181l26 114l60 15l-31 -129q-33 -138 -129 -220.5t-213 -82.5q-94 0 -149.5 56.5t-55.5 160.5q0 45 10 86l158 678q32 139 126.5 221t213.5 82q90 0 149.5 -56.5 t59.5 -187.5q0 -123 -65 -224.5t-222 -211.5zM270 965l-120 -527q158 83 307 193q138 101 195 187.5t57 195.5q0 198 -164 198q-99 0 -174 -66t-101 -181z" />
<glyph unicode="f" horiz-adv-x="641" d="M229 1251h164l35 146q31 131 104.5 210t186.5 79q77 0 129 -37l-29 -54q-43 35 -108 35q-88 0 -145.5 -64t-82.5 -169l-34 -146h241l-14 -53h-240l-276 -1198h-56l277 1198h-164z" />
<glyph unicode="g" horiz-adv-x="808" d="M801 1251h49l-305 -1323q-32 -138 -127 -220.5t-211 -82.5q-95 0 -153 56.5t-58 156.5q0 40 12 90l25 105l51 -15l-23 -90q-10 -39 -10 -82q0 -82 45 -123.5t119 -41.5q96 0 172 67.5t102 179.5l84 363q-147 -180 -305 -180q-83 0 -136.5 52.5t-53.5 149.5q0 46 12 101 l127 551q17 74 51.5 133.5t78 95.5t92.5 55t98 19q153 0 221 -181zM272 961l-127 -543q-12 -52 -12 -105q0 -72 44 -109.5t114 -37.5t140.5 45t158.5 154l151 657q-35 102 -85 146t-119 44q-89 0 -162.5 -63.5t-102.5 -187.5z" />
<glyph unicode="h" horiz-adv-x="813" d="M383 1655l59 14l-127 -551q129 150 287 150q91 0 146 -52t55 -151q0 -45 -12 -100l-224 -965h-55l221 961q12 53 12 94q0 81 -44 119t-119 38q-69 0 -138 -37.5t-147 -132.5l-240 -1042h-55z" />
<glyph unicode="i" horiz-adv-x="305" d="M291 1251h55l-289 -1251h-55zM401 1608q35 0 35 -43q0 -29 -16.5 -50.5t-46.5 -21.5q-37 0 -37 43q0 29 18 50.5t47 21.5z" />
<glyph unicode="j" horiz-adv-x="333" d="M322 1251h55l-309 -1333q-28 -127 -105 -210t-190 -83q-83 0 -125 45l26 54q55 -43 107 -43q88 0 148 67t83 170zM430 1608q35 0 35 -43q0 -29 -17 -50.5t-47 -21.5q-36 0 -36 43q0 29 18 50.5t47 21.5z" />
<glyph unicode="k" horiz-adv-x="722" d="M729 1251h74l-531 -536l265 -715h-60l-258 700l-162 -700h-55l381 1655l59 14l-217 -938z" />
<glyph unicode="l" horiz-adv-x="305" d="M383 1655l59 14l-385 -1669h-55z" />
<glyph unicode="m" horiz-adv-x="1232" d="M291 1251h47l-25 -131q120 148 262 148q78 0 127.5 -45t55.5 -133q127 178 282 178q83 0 134 -51.5t51 -149.5q0 -42 -13 -102l-223 -965h-57l223 961q12 59 12 102q0 149 -145 149q-137 0 -266 -176q-3 -35 -11 -71l-223 -965h-55l221 961q12 59 12 102q0 149 -143 149 q-132 0 -258 -163l-242 -1049h-55z" />
<glyph unicode="n" horiz-adv-x="813" d="M291 1251h47l-25 -137q130 154 289 154q90 0 145.5 -52t55.5 -151q0 -45 -12 -100l-224 -965h-55l221 961q12 58 12 100q0 151 -161 151q-70 0 -138 -36t-147 -132l-242 -1044h-55z" />
<glyph unicode="o" horiz-adv-x="782" d="M766 965l-156 -678q-31 -138 -129 -220.5t-217 -82.5q-98 0 -156.5 57.5t-58.5 159.5q0 47 10 86l158 678q32 138 129 220.5t215 82.5q98 0 156.5 -57.5t58.5 -159.5q0 -34 -10 -86zM270 963l-155 -674q-11 -53 -11 -80q0 -83 46.5 -126.5t121.5 -43.5q97 0 177 70.5 t106 179.5l156 674q10 48 10 79q0 83 -46.5 126.5t-121.5 43.5q-98 0 -177.5 -68.5t-105.5 -180.5z" />
<glyph unicode="p" horiz-adv-x="808" d="M293 1251h45l-33 -166q150 183 307 183q84 0 138.5 -53.5t54.5 -153.5q0 -43 -12 -96l-158 -678q-17 -74 -51 -133t-77.5 -95.5t-92.5 -55.5t-99 -19q-78 0 -134 45.5t-87 132.5l-117 -512h-55zM592 1212q-71 0 -141.5 -44t-157.5 -150l-182 -791q36 -103 87 -145.5 t117 -42.5q91 0 164.5 68t100.5 184l155 670q13 60 13 98q0 80 -43 116.5t-113 36.5z" />
<glyph unicode="q" horiz-adv-x="806" d="M801 1251h47l-369 -1601h-55l117 510q-146 -176 -303 -176q-84 0 -137.5 52.5t-53.5 149.5q0 46 12 101l158 678q23 98 74.5 168.5t114 102.5t129.5 32q78 0 134 -45.5t87 -132.5zM270 961l-153 -670q-13 -60 -13 -94q0 -81 42.5 -119.5t113.5 -38.5q70 0 140 45t157 152 l180 790q-36 102 -85.5 144t-114.5 42q-92 0 -166 -67t-101 -184z" />
<glyph unicode="r" horiz-adv-x="647" d="M743 1214l-28 -49q-44 47 -117 47q-87 0 -161 -61.5t-163 -214.5l-217 -936h-55l289 1251h47l-43 -221q145 238 311 238q86 0 137 -54z" />
<glyph unicode="s" horiz-adv-x="743" d="M547 1268q105 0 162 -48.5t57 -138.5q0 -37 -33 -170h-53q35 120 35 160q0 71 -46 106t-128 35q-127 0 -208 -75.5t-81 -200.5q0 -90 47 -145q25 -30 124 -104.5t134 -119.5q55 -70 55 -188q0 -77 -20.5 -146t-61.5 -125.5t-111.5 -90t-162.5 -33.5q-118 0 -180 52 t-62 138q0 30 49 242l52 -15q-45 -193 -45 -219q0 -68 49.5 -105.5t144.5 -37.5q71 0 125 22t85 56t50.5 80t26 87t6.5 85q0 102 -49 166q-34 43 -131.5 115.5t-126.5 109.5q-53 64 -53 168q0 150 98.5 245t251.5 95z" />
<glyph unicode="t" horiz-adv-x="641" d="M229 1251h150l65 281l62 20l-70 -301h254l-14 -53h-252l-213 -917q-12 -52 -12 -97q0 -145 135 -145q62 0 125 39l6 -49q-65 -45 -148 -45q-90 0 -133 51t-43 139q0 38 15 107l211 917h-152z" />
<glyph unicode="u" horiz-adv-x="806" d="M793 1251h55l-289 -1251h-47l25 135q-125 -151 -285 -151q-91 0 -145 51t-54 151q0 41 13 101l223 964h55l-221 -960q-12 -55 -12 -98q0 -154 159 -154q31 0 59.5 6.5t64.5 24t76.5 53.5t82.5 90z" />
<glyph unicode="v" horiz-adv-x="768" d="M244 1251h55l-18 -1149l520 1149h59l-571 -1251h-60z" />
<glyph unicode="w" horiz-adv-x="1062" d="M248 1251h53l-129 -1114l496 1114h59l-49 -1116l418 1116h53l-469 -1251h-57l49 1143l-510 -1143h-60z" />
<glyph unicode="x" horiz-adv-x="839" d="M854 1251h64l-445 -612l176 -639h-61l-158 592l-426 -592h-61l471 655l-162 596h59l146 -549z" />
<glyph unicode="y" horiz-adv-x="804" d="M793 1251h53l-369 -1601h-57l117 502q-128 -148 -283 -148q-90 0 -143.5 52t-53.5 151q0 40 13 100l217 944h55l-215 -940q-14 -65 -14 -100q0 -78 44.5 -115t116.5 -37q144 0 281 170z" />
<glyph unicode="z" horiz-adv-x="714" d="M266 1251h525l-9 -39l-739 -1159h469l-10 -53h-533l11 51l731 1147h-459z" />
<glyph unicode="{" horiz-adv-x="604" d="M868 1964l-14 -53q-108 0 -152 -41t-71 -156l-178 -778q-16 -68 -63 -116.5t-89 -55.5q30 -5 52 -42.5t22 -90.5q0 -26 -6 -53l-176 -758q-17 -80 -17 -111q0 -53 32.5 -69.5t117.5 -16.5l-11 -53q-106 0 -149 28t-43 93q0 44 20 129l170 743q11 53 11 74q0 100 -111 100 h-66l13 54h65q70 0 116 45t62 114l177 764q22 98 49.5 148t83.5 76t155 26z" />
<glyph unicode="|" horiz-adv-x="450" d="M506 1862h51l-506 -2190h-51z" />
<glyph unicode="}" horiz-adv-x="602" d="M-158 -430l15 53q108 0 152 41t71 156l178 778q16 68 63 116.5t89 55.5q-30 5 -52 42.5t-22 90.5q0 26 6 53l176 758q17 80 17 111q0 53 -32.5 69.5t-117.5 16.5l10 53q106 0 149.5 -28t43.5 -93q0 -40 -21 -129l-170 -743q-10 -48 -10 -74q0 -100 111 -100h65l-12 -54 h-66q-70 0 -116 -45t-62 -114l-176 -764q-16 -73 -34.5 -116.5t-50.5 -76t-80.5 -45t-123.5 -12.5z" />
<glyph unicode="~" horiz-adv-x="1046" d="M154 655l18 78q48 57 106.5 87t141.5 30q36 0 69.5 -8t53.5 -17.5t55 -27.5q80 -39 152 -39q75 0 135.5 37.5t122.5 113.5l-19 -80q-56 -64 -112.5 -94t-137.5 -30q-35 0 -68.5 8t-54.5 17.5t-57 27.5q-76 39 -151 39q-77 0 -135.5 -33.5t-118.5 -108.5z" />
<glyph unicode="&#xa1;" horiz-adv-x="299" d="M2 -279h-80l318 1283h36zM315 1245q-39 0 -39 41q0 28 18 50t46 22q37 0 37 -41q0 -29 -17 -50.5t-45 -21.5z" />
<glyph unicode="&#xa2;" horiz-adv-x="794" d="M324 1137l-156 -674q-8 -36 -8 -74q0 -84 44.5 -130t119.5 -46q93 0 168 67.5t102 182.5l27 112l59 15l-31 -129q-29 -124 -116 -207t-195 -94l-45 -201h-41l45 199q-89 3 -143 59.5t-54 151.5q0 38 13 92l157 678q32 134 121.5 216t200.5 87l49 203h41l-49 -205 q84 -9 133 -66t49 -149q0 -37 -22 -140h-54q21 91 21 123q0 84 -45 131t-121 47q-93 0 -168.5 -67.5t-101.5 -181.5z" />
<glyph unicode="&#xa3;" horiz-adv-x="876" d="M186 918h99l92 397q33 146 132.5 231.5t227.5 85.5q101 0 157 -57t56 -158q0 -47 -24 -155h-54q23 107 23 139q0 85 -44.5 130.5t-127.5 45.5q-105 0 -185 -72t-106 -190l-92 -397h446l-14 -54h-444l-187 -809h490l-15 -55h-624l12 55h82l186 809h-98z" />
<glyph unicode="&#xa4;" horiz-adv-x="1349" d="M414 887l-54 -219q-14 -60 -14 -115q0 -128 73 -197t191 -69q155 0 281 110t162 271l49 219q16 72 16 125q0 125 -74.5 192.5t-193.5 67.5q-152 0 -273.5 -107t-162.5 -278zM358 1405l152 -236q70 75 160.5 115.5t187.5 40.5q95 0 166.5 -40.5t108.5 -115.5l262 236 l30 -39l-272 -246q14 -58 14 -110q0 -61 -14 -121l-51 -223q-28 -128 -111 -236l158 -242l-43 -34l-152 235q-72 -75 -162.5 -115.5t-185.5 -40.5q-96 0 -167.5 40t-108.5 114l-262 -233l-31 39l274 245q-14 46 -14 107t14 121l51 223q29 132 111 239l-158 244z" />
<glyph unicode="&#xa5;" horiz-adv-x="976" d="M49 348h369l53 238h-369l13 49h368l27 115l-125 854h59l109 -789l473 789h57l-518 -854l-26 -115h370l-10 -49h-373l-53 -238h371l-13 -49h-370l-68 -299h-55l68 299h-369z" />
<glyph unicode="&#xa6;" horiz-adv-x="450" d="M506 1862h51l-221 -961h-51zM221 633h53l-223 -961h-51z" />
<glyph unicode="&#xa7;" horiz-adv-x="774" d="M680 1632q90 0 137 -50t47 -142q0 -42 -20 -133h-47q18 88 18 125q0 75 -37.5 113t-107.5 38q-116 0 -192.5 -93t-76.5 -222q0 -79 41 -154q26 -48 101 -150.5t98 -144.5q47 -86 47 -198q0 -138 -58.5 -254t-166.5 -160q51 -88 51 -203q0 -81 -21.5 -157t-62 -138.5 t-107 -100.5t-149.5 -38q-101 0 -154 53.5t-53 147.5q0 41 25 145l45 -12q-23 -107 -23 -133q0 -73 44 -113.5t122 -40.5q71 0 127.5 34t89 90.5t49.5 122.5t17 136q0 103 -39 174q-21 39 -95 142t-102 153q-53 95 -53 180q0 131 77.5 234.5t194.5 126.5q-50 76 -74 133.5 t-24 128.5q0 145 97 252.5t235 107.5zM268 498q25 -48 91 -139t79 -111q66 22 112.5 82t66.5 132.5t20 153.5q0 104 -39 175q-14 25 -121 174q-109 -7 -179.5 -98t-70.5 -216q0 -77 41 -153z" />
<glyph unicode="&#xa8;" horiz-adv-x="538" d="M643 1608q39 0 39 -43q0 -28 -18 -50t-46 -22q-36 0 -36 43q0 29 17 50.5t44 21.5zM389 1608q35 0 35 -43q0 -29 -17 -50.5t-47 -21.5q-36 0 -36 43q0 29 18 50.5t47 21.5z" />
<glyph unicode="&#xa9;" horiz-adv-x="1443" d="M145 629l78 340q34 151 109.5 277t175 210t219.5 130t246 46q214 0 343.5 -126.5t129.5 -350.5q0 -88 -23 -186l-80 -340q-35 -150 -111 -274.5t-176.5 -208t-221 -129.5t-246.5 -46q-212 0 -338.5 125.5t-126.5 347.5q0 92 22 185zM256 969l-78 -340q-22 -99 -22 -180 q0 -203 120 -322t316 -119q160 0 309.5 79t259 221.5t150.5 320.5l78 340q20 94 20 178q0 212 -121.5 330t-318.5 118q-158 0 -305 -76.5t-256.5 -220.5t-151.5 -329zM684 1212l-186 -804q-9 -41 -9 -68q0 -69 37 -104t97 -35q82 0 145 58t84 149l12 53l47 10l-14 -63 q-25 -113 -106 -181.5t-175 -68.5q-78 0 -125 46.5t-47 127.5q0 26 11 76l186 804q26 114 104.5 182t178.5 68q81 0 124.5 -45t43.5 -129q0 -34 -19 -117h-43q17 74 17 103q0 143 -132 143q-85 0 -147 -55t-84 -150z" />
<glyph unicode="&#xaa;" horiz-adv-x="634" d="M406 1509l-23 33q34 43 82.5 66.5t101.5 23.5q125 0 125 -133q0 -47 -10 -86l-137 -598h-41l10 59q-79 -69 -170 -69q-55 0 -90 35.5t-35 107.5q0 97 48.5 172.5t183.5 161.5q78 51 178 102l6 27q12 62 12 80q0 92 -96 92q-80 0 -145 -74zM360 854q84 0 164 74l92 405 q-79 -43 -155 -90q-52 -34 -83 -59t-58.5 -58.5t-39.5 -74.5t-12 -95q0 -102 92 -102z" />
<glyph unicode="&#xab;" horiz-adv-x="593" d="M631 1251h53l-336 -633l45 -618h-51l-43 625zM428 1251h53l-336 -633l45 -618h-51l-43 625z" />
<glyph unicode="&#xac;" horiz-adv-x="1044" d="M205 874h790l-202 -874h-50l189 821h-742z" />
<glyph unicode="&#xad;" horiz-adv-x="634" d="M154 805h452l-10 -53h-455z" />
<glyph unicode="&#xae;" horiz-adv-x="1443" d="M145 629l78 340q34 151 109.5 277t175 210t219.5 130t246 46q214 0 343.5 -126.5t129.5 -350.5q0 -88 -23 -186l-80 -340q-35 -150 -111 -274.5t-176.5 -208t-221 -129.5t-246.5 -46q-212 0 -338.5 125.5t-126.5 347.5q0 92 22 185zM256 969l-78 -340q-22 -99 -22 -180 q0 -203 120 -322t316 -119q160 0 309.5 79t259 221.5t150.5 320.5l78 340q20 94 20 178q0 212 -121.5 330t-318.5 118q-158 0 -305 -76.5t-256.5 -220.5t-151.5 -329zM713 1440h225q82 0 127 -44t45 -126q0 -32 -10 -80l-35 -160q-34 -155 -143 -192q71 -21 71 -113 q0 -33 -8 -72l-111 -473h-45l111 477q10 48 10 72q0 49 -35 66.5t-122 17.5h-183l-145 -633h-43zM745 1395l-124 -539h180q95 0 146.5 38t72.5 134l35 160q8 39 8 72q0 135 -137 135h-181z" />
<glyph unicode="&#xaf;" horiz-adv-x="772" d="M328 1552h585l-12 -51h-586z" />
<glyph unicode="&#xb0;" horiz-adv-x="694" d="M293 1210l43 189q24 106 99 169.5t165 63.5q75 0 121.5 -45t46.5 -123q0 -34 -8 -65l-45 -189q-24 -105 -100 -168t-166 -63q-74 0 -119 44.5t-45 121.5q0 32 8 65zM383 1399l-43 -189q-18 -83 16 -131.5t105 -48.5t129 48.5t76 131.5l43 189q20 84 -15 133t-106 49 t-127.5 -48.5t-77.5 -133.5z" />
<glyph unicode="&#xb1;" horiz-adv-x="1044" d="M657 1229h50l-97 -422h373l-12 -53h-373l-98 -424h-49l96 424h-371l12 53h371zM33 129h794l-12 -53h-795z" />
<glyph unicode="&#xb2;" horiz-adv-x="548" d="M307 1415l6 29q17 82 74 128t143 46q132 0 132 -139q0 -58 -13.5 -103.5t-27.5 -67t-41 -51.5q-32 -36 -127.5 -110t-133.5 -111q-37 -35 -51 -61t-26 -80l-29 -127h291l-12 -47h-338l41 174q24 102 92 170q22 20 123 98.5t137 118.5q2 2 15.5 17.5t17 20.5t13 22.5 t13 33t7 41.5t3.5 58q0 54 -20.5 75t-79.5 21q-67 0 -104.5 -31t-51.5 -96l-6 -29h-47z" />
<glyph unicode="&#xb3;" horiz-adv-x="571" d="M315 1415l7 29q17 80 72.5 127t133.5 47q66 0 101 -34t35 -95q0 -10 -9 -62l-24 -112q-25 -113 -111 -135q62 -22 62 -97q0 -5 -9 -61l-32 -143q-19 -83 -80.5 -128.5t-138.5 -45.5q-76 0 -113 45t-19 129l11 47l43 -13l-8 -34q-15 -70 9.5 -98.5t88.5 -28.5q61 0 104 33 t56 94l34 143q11 53 11 70q0 38 -23.5 50.5t-83.5 12.5h-65l10 47h65q67 0 98 23.5t44 89.5l24 112q10 45 10 66q0 42 -24.5 60t-77.5 18q-122 0 -151 -127l-7 -29h-43z" />
<glyph unicode="&#xb4;" horiz-adv-x="575" d="M537 1673h67l-250 -323h-53z" />
<glyph unicode="&#xb6;" horiz-adv-x="841" d="M614 1604h373l-24 -52h-74l-416 -1798h-49l416 1798h-260l-416 -1798h-49l321 1391q-74 4 -114.5 56.5t-40.5 123.5q0 115 85.5 197t247.5 82z" />
<glyph unicode="&#xb7;" horiz-adv-x="280" d="M199 797q39 0 39 -41q0 -29 -17 -50.5t-47 -21.5q-37 0 -37 41q0 29 17.5 50.5t44.5 21.5z" />
<glyph unicode="&#xb8;" horiz-adv-x="432" d="M86 -41h57l-182 -389h-41z" />
<glyph unicode="&#xb9;" horiz-adv-x="436" d="M309 1473h60q54 0 73.5 21.5t40.5 109.5h45l-202 -883h-47l161 704h-141z" />
<glyph unicode="&#xba;" horiz-adv-x="626" d="M694 1438l-100 -434q-21 -90 -82.5 -142.5t-138.5 -52.5q-62 0 -99.5 35.5t-37.5 99.5q0 20 8 60l100 434q21 90 82 142t137 52t114 -52t17 -142zM391 1436l-100 -430q-15 -68 11.5 -108t82.5 -40q57 0 103 40.5t61 107.5l98 430q15 68 -12 106.5t-84 38.5t-101 -38.5 t-59 -106.5z" />
<glyph unicode="&#xbb;" horiz-adv-x="593" d="M444 1251h52l43 -626l-330 -625h-53l333 631zM242 1251h51l43 -626l-330 -625h-53l334 631z" />
<glyph unicode="&#xbc;" horiz-adv-x="1189" d="M1112 1604h53l-1022 -1604h-55zM389 1473h60q54 0 73.5 21.5t40.5 109.5h45l-202 -883h-48l162 704h-141zM989 883h47l-129 -564h76l-12 -47h-76l-61 -272h-48l62 272h-254l8 39l268 437h45l-258 -429h203z" />
<glyph unicode="&#xbd;" horiz-adv-x="1189" d="M1110 1604h53l-1022 -1604h-55zM385 1473h59q54 0 74 22t41 109h45l-203 -883h-47l162 704h-141zM727 694l6 29q17 82 74 128t143 46q131 0 131 -139q0 -58 -13.5 -103.5t-27.5 -66t-41 -51.5q-32 -36 -127 -110.5t-133 -111.5q-37 -35 -51 -61t-26 -80l-29 -127h291 l-13 -47h-338l41 174q24 101 93 170q22 20 123 98.5t137 118.5q2 2 15.5 17.5t17 20.5t13 22.5t13 33t7 41.5t3.5 58q0 54 -20.5 75t-79.5 21q-67 0 -104.5 -31t-51.5 -96l-6 -29h-47z" />
<glyph unicode="&#xbe;" horiz-adv-x="1189" d="M1145 1604h53l-1022 -1604h-55zM1022 883h47l-129 -564h76l-12 -47h-76l-62 -272h-47l62 272h-254l8 39l268 437h45l-258 -429h203zM330 1415l6 29q17 80 73 127t134 47q66 0 100.5 -34t34.5 -95q0 -16 -8 -62l-25 -112q-25 -113 -110 -135q61 -22 61 -97q0 -11 -8 -61 l-33 -143q-19 -83 -80.5 -128.5t-138.5 -45.5q-76 0 -112.5 45t-18.5 129l10 47l43 -13l-8 -34q-15 -70 9.5 -98.5t88.5 -28.5q61 0 104 33t56 94l35 143q10 48 10 70q0 38 -23.5 50.5t-83.5 12.5h-65l10 47h66q67 0 97.5 23.5t43.5 89.5l25 112q10 45 10 66q0 42 -24.5 60 t-78.5 18q-122 0 -151 -127l-6 -29h-43z" />
<glyph unicode="&#xbf;" horiz-adv-x="731" d="M164 -291q-98 0 -152.5 56t-54.5 172q0 119 42.5 202t179.5 269q11 15 16 22q105 142 151 215.5t77.5 155t55.5 203.5h45q-21 -126 -56.5 -219t-83 -168.5t-148.5 -210.5q-73 -97 -108 -147.5t-65.5 -108t-39.5 -103.5t-9 -106q0 -177 158 -177q104 0 186 66.5t109 183.5 l18 78h52l-19 -80q-31 -139 -131 -221t-223 -82zM555 1245q-39 0 -39 41q0 27 17 49.5t45 22.5q38 0 38 -41q0 -29 -17 -50.5t-44 -21.5z" />
<glyph unicode="&#xc0;" d="M612 1604h62l-72 -1604h-57l14 307h-424l-125 -307h-57zM158 362h405l53 1115zM580 2025h67l86 -323h-53z" />
<glyph unicode="&#xc1;" d="M612 1604h62l-72 -1604h-57l14 307h-424l-125 -307h-57zM158 362h405l53 1115zM834 2025h67l-250 -323h-53z" />
<glyph unicode="&#xc2;" d="M612 1604h62l-72 -1604h-57l14 307h-424l-125 -307h-57zM158 362h405l53 1115zM709 2025h65l127 -323h-51l-119 276l-246 -276h-49z" />
<glyph unicode="&#xc3;" d="M612 1604h62l-72 -1604h-57l14 307h-424l-125 -307h-57zM158 362h405l53 1115zM418 1800l-31 27q87 137 201 137q39 0 73.5 -18.5t56 -41t53 -41t65.5 -18.5q22 0 45.5 7t57.5 34.5t58 73.5l33 -27q-90 -137 -201 -137q-37 0 -71 18.5t-56 41t-54 41t-66 18.5 q-98 0 -164 -115z" />
<glyph unicode="&#xc4;" d="M612 1604h62l-72 -1604h-57l14 307h-424l-125 -307h-57zM158 362h405l53 1115zM852 1960q39 0 39 -43q0 -28 -18 -50t-46 -22q-36 0 -36 43q0 29 17 50.5t44 21.5zM598 1960q35 0 35 -43q0 -29 -17 -50.5t-47 -21.5q-37 0 -37 43q0 29 18 50.5t48 21.5z" />
<glyph unicode="&#xc5;" d="M612 1604h62l-72 -1604h-57l14 307h-424l-125 -307h-57zM158 362h405l53 1115zM713 2025h51q58 0 90.5 -38t32.5 -99q0 -91 -60 -160t-147 -69h-51q-58 0 -89.5 39t-31.5 100q0 92 59.5 159.5t145.5 67.5zM752 1978h-50q-62 0 -105.5 -54.5t-43.5 -123.5q0 -44 22.5 -69 t65.5 -25h49q63 0 107.5 55t44.5 123q0 45 -23 69.5t-67 24.5z" />
<glyph unicode="&#xc6;" horiz-adv-x="1056" d="M535 1604h673l-12 -56h-414l-157 -690h323l-14 -57h-324l-170 -746h412l-14 -55h-469l71 307h-319l-111 -307h-57zM727 1548h-156l-430 -1186h314z" />
<glyph unicode="&#xc7;" horiz-adv-x="768" d="M352 1315l-237 -1026q-11 -45 -11 -84q0 -89 46 -133.5t122 -44.5q101 0 185 72t110 190l15 67l59 15l-18 -82q-33 -144 -135 -231t-224 -87q-98 0 -157.5 60.5t-59.5 163.5q0 45 12 94l238 1026q33 146 132.5 231.5t227.5 85.5q103 0 159 -57t56 -160q0 -45 -24 -153 h-55q22 97 22 141q0 174 -168 174q-108 0 -187.5 -70.5t-107.5 -191.5zM217 -41h57l-182 -389h-41z" />
<glyph unicode="&#xc8;" horiz-adv-x="688" d="M373 1604h469l-15 -56h-411l-160 -690h324l-13 -57h-323l-172 -746h411l-12 -55h-469zM549 2025h67l86 -323h-53z" />
<glyph unicode="&#xc9;" horiz-adv-x="688" d="M373 1604h469l-15 -56h-411l-160 -690h324l-13 -57h-323l-172 -746h411l-12 -55h-469zM809 2025h68l-250 -323h-54z" />
<glyph unicode="&#xca;" horiz-adv-x="688" d="M373 1604h469l-15 -56h-411l-160 -690h324l-13 -57h-323l-172 -746h411l-12 -55h-469zM674 2025h65l127 -323h-51l-119 276l-245 -276h-50z" />
<glyph unicode="&#xcb;" horiz-adv-x="688" d="M373 1604h469l-15 -56h-411l-160 -690h324l-13 -57h-323l-172 -746h411l-12 -55h-469zM809 1960q39 0 39 -43q0 -28 -18 -50t-46 -22q-36 0 -36 43q0 29 17 50.5t44 21.5zM555 1960q35 0 35 -43q0 -29 -17 -50.5t-47 -21.5q-37 0 -37 43q0 29 18 50.5t48 21.5z" />
<glyph unicode="&#xcc;" horiz-adv-x="344" d="M412 1604h57l-371 -1604h-57zM377 2025h67l86 -323h-53z" />
<glyph unicode="&#xcd;" horiz-adv-x="352" d="M373 1604h57l-371 -1604h-57zM621 2025h67l-250 -323h-53z" />
<glyph unicode="&#xce;" horiz-adv-x="419" d="M430 1604h57l-370 -1604h-58zM520 2025h66l127 -323h-51l-119 276l-246 -276h-49z" />
<glyph unicode="&#xcf;" horiz-adv-x="370" d="M408 1604h57l-371 -1604h-57zM643 1960q39 0 39 -43q0 -28 -18 -50t-46 -22q-36 0 -36 43q0 29 17 50.5t44 21.5zM389 1960q35 0 35 -43q0 -29 -17 -50.5t-47 -21.5q-36 0 -36 43q0 29 18 50.5t47 21.5z" />
<glyph unicode="&#xd0;" horiz-adv-x="839" d="M395 1604h291q104 0 160.5 -57t56.5 -169q0 -64 -18 -143l-201 -866q-42 -183 -137.5 -276t-229.5 -93h-292l184 801h-88l12 57h90zM438 1548l-159 -690h258l-13 -57h-258l-172 -746h234q107 0 185.5 81.5t113.5 230.5l202 870q17 72 17 131q0 180 -174 180h-234z" />
<glyph unicode="&#xd1;" horiz-adv-x="817" d="M373 1604h69l107 -1457l338 1457h51l-371 -1604h-55l-115 1495l-342 -1495h-53zM428 1800l-31 27q87 137 201 137q39 0 73.5 -18.5t56 -41t53 -41t65.5 -18.5q22 0 45.5 7t58 34.5t58.5 73.5l32 -27q-90 -137 -200 -137q-37 0 -71 18.5t-56.5 41t-54.5 41t-66 18.5 q-98 0 -164 -115z" />
<glyph unicode="&#xd2;" horiz-adv-x="815" d="M879 1311l-236 -1018q-34 -147 -138 -234.5t-229 -87.5q-103 0 -165 61t-62 167q0 41 12 94l234 1018q32 144 133.5 232.5t230.5 88.5q105 0 167.5 -60.5t62.5 -172.5q0 -47 -10 -88zM350 1311l-235 -1018q-11 -43 -11 -82q0 -90 49.5 -137t131.5 -47q105 0 189 73.5 t112 192.5l235 1018q10 52 10 86q0 87 -49.5 133.5t-130.5 46.5q-103 0 -187.5 -72.5t-113.5 -193.5zM598 2025h68l86 -323h-54z" />
<glyph unicode="&#xd3;" horiz-adv-x="815" d="M879 1311l-236 -1018q-34 -147 -138 -234.5t-229 -87.5q-103 0 -165 61t-62 167q0 41 12 94l234 1018q32 144 133.5 232.5t230.5 88.5q105 0 167.5 -60.5t62.5 -172.5q0 -47 -10 -88zM350 1311l-235 -1018q-11 -43 -11 -82q0 -90 49.5 -137t131.5 -47q105 0 189 73.5 t112 192.5l235 1018q10 52 10 86q0 87 -49.5 133.5t-130.5 46.5q-103 0 -187.5 -72.5t-113.5 -193.5zM848 2025h67l-249 -323h-54z" />
<glyph unicode="&#xd4;" horiz-adv-x="815" d="M879 1311l-236 -1018q-34 -147 -138 -234.5t-229 -87.5q-103 0 -165 61t-62 167q0 41 12 94l234 1018q32 144 133.5 232.5t230.5 88.5q105 0 167.5 -60.5t62.5 -172.5q0 -47 -10 -88zM350 1311l-235 -1018q-11 -43 -11 -82q0 -90 49.5 -137t131.5 -47q105 0 189 73.5 t112 192.5l235 1018q10 52 10 86q0 87 -49.5 133.5t-130.5 46.5q-103 0 -187.5 -72.5t-113.5 -193.5zM717 2025h65l127 -323h-51l-119 276l-245 -276h-50z" />
<glyph unicode="&#xd5;" horiz-adv-x="815" d="M879 1311l-236 -1018q-34 -147 -138 -234.5t-229 -87.5q-103 0 -165 61t-62 167q0 41 12 94l234 1018q32 144 133.5 232.5t230.5 88.5q105 0 167.5 -60.5t62.5 -172.5q0 -47 -10 -88zM350 1311l-235 -1018q-11 -43 -11 -82q0 -90 49.5 -137t131.5 -47q105 0 189 73.5 t112 192.5l235 1018q10 52 10 86q0 87 -49.5 133.5t-130.5 46.5q-103 0 -187.5 -72.5t-113.5 -193.5zM428 1800l-31 27q87 137 201 137q39 0 73.5 -18.5t56 -41t53 -41t65.5 -18.5q22 0 45.5 7t58 34.5t58.5 73.5l32 -27q-90 -137 -200 -137q-37 0 -71 18.5t-56.5 41 t-54.5 41t-66 18.5q-98 0 -164 -115z" />
<glyph unicode="&#xd6;" horiz-adv-x="815" d="M879 1311l-236 -1018q-34 -147 -138 -234.5t-229 -87.5q-103 0 -165 61t-62 167q0 41 12 94l234 1018q32 144 133.5 232.5t230.5 88.5q105 0 167.5 -60.5t62.5 -172.5q0 -47 -10 -88zM350 1311l-235 -1018q-11 -43 -11 -82q0 -90 49.5 -137t131.5 -47q105 0 189 73.5 t112 192.5l235 1018q10 52 10 86q0 87 -49.5 133.5t-130.5 46.5q-103 0 -187.5 -72.5t-113.5 -193.5zM868 1960q39 0 39 -43q0 -28 -17.5 -50t-45.5 -22q-37 0 -37 43q0 29 17 50.5t44 21.5zM614 1960q35 0 35 -43q0 -29 -16.5 -50.5t-46.5 -21.5q-37 0 -37 43q0 29 18 50.5 t47 21.5z" />
<glyph unicode="&#xd7;" horiz-adv-x="1044" d="M369 1157l219 -340l379 340l26 -37l-377 -340l222 -344l-47 -37l-220 344l-381 -344l-26 37l379 344l-219 340z" />
<glyph unicode="&#xd8;" horiz-adv-x="815" d="M952 1726h47l-127 -231q17 -49 17 -96t-10 -88l-236 -1018q-34 -147 -138 -234.5t-229 -87.5q-131 0 -190 90l-100 -184h-47l124 229q-14 38 -14 93q0 41 12 94l234 1018q32 144 133.5 232.5t230.5 88.5q132 0 191 -90zM350 1311l-235 -1018q-11 -43 -11 -82v-31 l711 1299q-20 47 -63.5 72.5t-100.5 25.5q-103 0 -187.5 -72.5t-113.5 -193.5zM831 1397q0 14 -2 20l-708 -1294q39 -96 164 -96q105 0 189 73.5t112 192.5l235 1018q10 52 10 86z" />
<glyph unicode="&#xd9;" horiz-adv-x="827" d="M371 1604h55l-303 -1311q-10 -41 -10 -88q0 -88 48.5 -133t133.5 -45q100 0 184.5 75t112.5 191l303 1311h57l-303 -1311q-34 -148 -137 -235t-231 -87q-102 0 -164 60.5t-62 165.5q0 39 13 96zM604 2025h68l86 -323h-53z" />
<glyph unicode="&#xda;" horiz-adv-x="827" d="M371 1604h55l-303 -1311q-10 -41 -10 -88q0 -88 48.5 -133t133.5 -45q100 0 184.5 75t112.5 191l303 1311h57l-303 -1311q-34 -148 -137 -235t-231 -87q-102 0 -164 60.5t-62 165.5q0 39 13 96zM844 2025h67l-249 -323h-54z" />
<glyph unicode="&#xdb;" horiz-adv-x="827" d="M371 1604h55l-303 -1311q-10 -41 -10 -88q0 -88 48.5 -133t133.5 -45q100 0 184.5 75t112.5 191l303 1311h57l-303 -1311q-34 -148 -137 -235t-231 -87q-102 0 -164 60.5t-62 165.5q0 39 13 96zM723 2025h65l127 -323h-51l-119 276l-245 -276h-49z" />
<glyph unicode="&#xdc;" horiz-adv-x="827" d="M371 1604h55l-303 -1311q-10 -41 -10 -88q0 -88 48.5 -133t133.5 -45q100 0 184.5 75t112.5 191l303 1311h57l-303 -1311q-34 -148 -137 -235t-231 -87q-102 0 -164 60.5t-62 165.5q0 39 13 96zM864 1960q39 0 39 -43q0 -28 -17.5 -50t-45.5 -22q-37 0 -37 43 q0 29 17 50.5t44 21.5zM610 1960q35 0 35 -43q0 -29 -16.5 -50.5t-46.5 -21.5q-37 0 -37 43q0 29 18 50.5t47 21.5z" />
<glyph unicode="&#xdd;" horiz-adv-x="831" d="M313 1604h56l110 -785l469 785h64l-520 -854l-173 -750h-57l174 750zM854 2025h68l-250 -323h-54z" />
<glyph unicode="&#xde;" horiz-adv-x="813" d="M373 1604h57l-68 -285h238q104 0 159.5 -56t55.5 -169q0 -64 -18 -144l-64 -278q-42 -183 -138 -276t-230 -93h-238l-68 -303h-57zM350 1262l-209 -902h234q108 0 187 81.5t114 230.5l65 278q17 75 17 135q0 93 -44 135t-130 42h-234z" />
<glyph unicode="&#xdf;" horiz-adv-x="888" d="M367 1348l-312 -1348h-53l311 1346q36 157 125 248.5t232 91.5q202 0 202 -193q0 -58 -14 -115l-59 -252q-26 -116 -66 -177.5t-104 -84.5q87 -12 130.5 -55t43.5 -127q0 -46 -15 -107l-59 -256q-34 -149 -123.5 -242t-238.5 -93q-199 0 -236 186l41 35q9 -75 60 -120.5 t139 -45.5q121 0 198 81.5t105 198.5l59 254q15 73 15 103q0 89 -57.5 121t-180.5 32h-51l10 54h16q121 0 174.5 53t85.5 188l58 252q14 68 14 105q0 149 -162 149q-112 0 -186 -78.5t-102 -203.5z" />
<glyph unicode="&#xe0;" horiz-adv-x="780" d="M301 1087l-27 41q55 65 132.5 102.5t156.5 37.5q100 0 149.5 -58t49.5 -161q0 -58 -14 -121l-216 -928h-45l21 111q-134 -127 -289 -127q-95 0 -145.5 57t-50.5 188q0 140 77 250t287 246q109 71 297 170q25 103 25 149q0 168 -164 168q-140 0 -244 -125zM240 39 q143 0 280 137l152 658q-135 -73 -266 -152q-126 -77 -201 -158t-100 -148.5t-25 -144.5q0 -106 42 -149t118 -43zM496 1673h67l86 -323h-53z" />
<glyph unicode="&#xe1;" horiz-adv-x="780" d="M301 1087l-27 41q55 65 132.5 102.5t156.5 37.5q100 0 149.5 -58t49.5 -161q0 -58 -14 -121l-216 -928h-45l21 111q-134 -127 -289 -127q-95 0 -145.5 57t-50.5 188q0 140 77 250t287 246q109 71 297 170q25 103 25 149q0 168 -164 168q-140 0 -244 -125zM240 39 q143 0 280 137l152 658q-135 -73 -266 -152q-126 -77 -201 -158t-100 -148.5t-25 -144.5q0 -106 42 -149t118 -43zM750 1673h67l-250 -323h-53z" />
<glyph unicode="&#xe2;" horiz-adv-x="780" d="M301 1087l-27 41q55 65 132.5 102.5t156.5 37.5q100 0 149.5 -58t49.5 -161q0 -58 -14 -121l-216 -928h-45l21 111q-134 -127 -289 -127q-95 0 -145.5 57t-50.5 188q0 140 77 250t287 246q109 71 297 170q25 103 25 149q0 168 -164 168q-140 0 -244 -125zM240 39 q143 0 280 137l152 658q-135 -73 -266 -152q-126 -77 -201 -158t-100 -148.5t-25 -144.5q0 -106 42 -149t118 -43zM616 1673h66l127 -323h-51l-119 276l-246 -276h-49z" />
<glyph unicode="&#xe3;" horiz-adv-x="780" d="M301 1087l-27 41q55 65 132.5 102.5t156.5 37.5q100 0 149.5 -58t49.5 -161q0 -58 -14 -121l-216 -928h-45l21 111q-134 -127 -289 -127q-95 0 -145.5 57t-50.5 188q0 140 77 250t287 246q109 71 297 170q25 103 25 149q0 168 -164 168q-140 0 -244 -125zM240 39 q143 0 280 137l152 658q-135 -73 -266 -152q-126 -77 -201 -158t-100 -148.5t-25 -144.5q0 -106 42 -149t118 -43zM328 1448l-31 27q87 137 201 137q32 0 60 -12.5t48.5 -30t40.5 -34.5t45 -29.5t53 -12.5q22 0 45.5 7t58 34.5t58.5 73.5l33 -27q-90 -137 -201 -137 q-37 0 -71 18.5t-56 41t-54 41t-66 18.5q-98 0 -164 -115z" />
<glyph unicode="&#xe4;" horiz-adv-x="780" d="M301 1087l-27 41q55 65 132.5 102.5t156.5 37.5q100 0 149.5 -58t49.5 -161q0 -58 -14 -121l-216 -928h-45l21 111q-134 -127 -289 -127q-95 0 -145.5 57t-50.5 188q0 140 77 250t287 246q109 71 297 170q25 103 25 149q0 168 -164 168q-140 0 -244 -125zM240 39 q143 0 280 137l152 658q-135 -73 -266 -152q-126 -77 -201 -158t-100 -148.5t-25 -144.5q0 -106 42 -149t118 -43zM766 1608q39 0 39 -43q0 -28 -18 -50t-46 -22q-36 0 -36 43q0 29 17 50.5t44 21.5zM512 1608q35 0 35 -43q0 -29 -17 -50.5t-47 -21.5q-37 0 -37 43 q0 29 18 50.5t48 21.5z" />
<glyph unicode="&#xe5;" horiz-adv-x="780" d="M301 1087l-27 41q55 65 132.5 102.5t156.5 37.5q100 0 149.5 -58t49.5 -161q0 -58 -14 -121l-216 -928h-45l21 111q-134 -127 -289 -127q-95 0 -145.5 57t-50.5 188q0 140 77 250t287 246q109 71 297 170q25 103 25 149q0 168 -164 168q-140 0 -244 -125zM240 39 q143 0 280 137l152 658q-135 -73 -266 -152q-126 -77 -201 -158t-100 -148.5t-25 -144.5q0 -106 42 -149t118 -43zM625 1673h51q58 0 90.5 -38t32.5 -99q0 -91 -60 -160t-147 -69h-51q-58 0 -89.5 39t-31.5 100q0 92 59.5 159.5t145.5 67.5zM664 1626h-50 q-62 0 -105.5 -54.5t-43.5 -123.5q0 -44 22.5 -69t65.5 -25h49q63 0 107.5 55t44.5 123q0 45 -23 69.5t-67 24.5z" />
<glyph unicode="&#xe6;" horiz-adv-x="1249" d="M967 588q-161 -112 -342 -205l-23 -96q-10 -39 -10 -78q0 -84 44 -127t116 -43q94 0 171.5 66.5t104.5 181.5l27 114l59 15l-31 -129q-33 -138 -129 -220.5t-213 -82.5q-80 0 -132.5 40t-67.5 117q-57 -71 -140.5 -114t-175.5 -43q-99 0 -150.5 56.5t-51.5 188.5 q0 90 27 160t100 149t201.5 163.5t332.5 193.5q25 103 25 149q0 168 -164 168q-140 0 -244 -125l-27 41q55 65 132.5 102.5t156.5 37.5q87 0 135.5 -44.5t59.5 -125.5q49 81 124 125.5t162 44.5q90 0 149.5 -56.5t59.5 -187.5q0 -123 -65 -224.5t-221 -211.5zM240 39 q147 0 292 145q0 38 15 105l125 545q-135 -73 -266 -152q-126 -77 -201 -158t-100 -148.5t-25 -144.5q0 -106 42 -149t118 -43zM758 965l-121 -527q158 83 307 193q138 101 195 187.5t57 195.5q0 198 -164 198q-98 0 -173 -66t-101 -181z" />
<glyph unicode="&#xe7;" horiz-adv-x="751" d="M270 963l-155 -674q-9 -41 -9 -74q0 -84 44.5 -130t119.5 -46q93 0 168.5 67.5t102.5 182.5l26 112l60 15l-31 -129q-33 -138 -129 -220.5t-213 -82.5q-94 0 -149.5 56.5t-55.5 160.5q0 45 10 86l158 678q31 138 126 220.5t208 82.5q96 0 153.5 -58t57.5 -157 q0 -35 -23 -142h-53q21 91 21 123q0 84 -45 131t-121 47q-93 0 -169 -67.5t-102 -181.5zM217 -41h57l-182 -389h-41z" />
<glyph unicode="&#xe8;" horiz-adv-x="761" d="M479 588q-160 -113 -342 -205l-22 -96q-11 -57 -11 -82q0 -80 44.5 -123t117.5 -43q93 0 170.5 67t104.5 181l26 114l60 15l-31 -129q-33 -138 -129 -220.5t-213 -82.5q-94 0 -149.5 56.5t-55.5 160.5q0 45 10 86l158 678q32 139 126.5 221t213.5 82q90 0 149.5 -56.5 t59.5 -187.5q0 -123 -65 -224.5t-222 -211.5zM270 965l-120 -527q158 83 307 193q138 101 195 187.5t57 195.5q0 198 -164 198q-99 0 -174 -66t-101 -181zM485 1673h68l86 -323h-53z" />
<glyph unicode="&#xe9;" horiz-adv-x="761" d="M479 588q-160 -113 -342 -205l-22 -96q-11 -57 -11 -82q0 -80 44.5 -123t117.5 -43q93 0 170.5 67t104.5 181l26 114l60 15l-31 -129q-33 -138 -129 -220.5t-213 -82.5q-94 0 -149.5 56.5t-55.5 160.5q0 45 10 86l158 678q32 139 126.5 221t213.5 82q90 0 149.5 -56.5 t59.5 -187.5q0 -123 -65 -224.5t-222 -211.5zM270 965l-120 -527q158 83 307 193q138 101 195 187.5t57 195.5q0 198 -164 198q-99 0 -174 -66t-101 -181zM743 1673h68l-250 -323h-53z" />
<glyph unicode="&#xea;" horiz-adv-x="761" d="M479 588q-160 -113 -342 -205l-22 -96q-11 -57 -11 -82q0 -80 44.5 -123t117.5 -43q93 0 170.5 67t104.5 181l26 114l60 15l-31 -129q-33 -138 -129 -220.5t-213 -82.5q-94 0 -149.5 56.5t-55.5 160.5q0 45 10 86l158 678q32 139 126.5 221t213.5 82q90 0 149.5 -56.5 t59.5 -187.5q0 -123 -65 -224.5t-222 -211.5zM270 965l-120 -527q158 83 307 193q138 101 195 187.5t57 195.5q0 198 -164 198q-99 0 -174 -66t-101 -181zM610 1673h66l127 -323h-51l-119 276l-246 -276h-49z" />
<glyph unicode="&#xeb;" horiz-adv-x="761" d="M479 588q-160 -113 -342 -205l-22 -96q-11 -57 -11 -82q0 -80 44.5 -123t117.5 -43q93 0 170.5 67t104.5 181l26 114l60 15l-31 -129q-33 -138 -129 -220.5t-213 -82.5q-94 0 -149.5 56.5t-55.5 160.5q0 45 10 86l158 678q32 139 126.5 221t213.5 82q90 0 149.5 -56.5 t59.5 -187.5q0 -123 -65 -224.5t-222 -211.5zM270 965l-120 -527q158 83 307 193q138 101 195 187.5t57 195.5q0 198 -164 198q-99 0 -174 -66t-101 -181zM756 1608q39 0 39 -43q0 -28 -18 -50t-46 -22q-37 0 -37 43q0 29 17.5 50.5t44.5 21.5zM502 1608q35 0 35 -43 q0 -29 -17 -50.5t-47 -21.5q-37 0 -37 43q0 29 18 50.5t48 21.5z" />
<glyph unicode="&#xec;" horiz-adv-x="339" d="M295 1673h67l87 -323h-54zM326 1251h55l-289 -1251h-55z" />
<glyph unicode="&#xed;" horiz-adv-x="348" d="M537 1673h67l-250 -323h-53zM291 1251h55l-289 -1251h-55z" />
<glyph unicode="&#xee;" horiz-adv-x="454" d="M367 1251h55l-289 -1251h-55zM457 1673h65l127 -323h-51l-119 276l-246 -276h-49z" />
<glyph unicode="&#xef;" horiz-adv-x="411" d="M580 1608q38 0 38 -43q0 -28 -17.5 -50t-45.5 -22q-37 0 -37 43q0 29 17.5 50.5t44.5 21.5zM326 1608q34 0 34 -43q0 -29 -16.5 -50.5t-46.5 -21.5q-37 0 -37 43q0 29 18 50.5t48 21.5zM346 1251h55l-288 -1251h-56z" />
<glyph unicode="&#xf0;" horiz-adv-x="765" d="M408 1505l-27 41q54 65 131.5 102.5t157.5 37.5q102 0 155 -66l117 121l27 -31l-123 -125q22 -45 22 -119q0 -60 -14 -120l-244 -1051q-33 -142 -130 -226.5t-216 -84.5q-98 0 -154.5 60t-56.5 161q0 49 10 90l111 487q32 138 119.5 211.5t191.5 73.5q167 0 201 -211 l113 490q16 72 16 118q0 44 -12 78l-365 -373l-22 31l368 379q-44 53 -133 53q-145 0 -243 -127zM272 39q100 0 180 73.5t105 182.5l111 485q-29 232 -189 232q-84 0 -153.5 -60.5t-96.5 -173.5l-112 -483q-11 -43 -11 -84q0 -84 46.5 -128t119.5 -44z" />
<glyph unicode="&#xf1;" horiz-adv-x="813" d="M291 1251h47l-25 -137q130 154 289 154q90 0 145.5 -52t55.5 -151q0 -45 -12 -100l-224 -965h-55l221 961q12 58 12 100q0 151 -161 151q-70 0 -138 -36t-147 -132l-242 -1044h-55zM340 1448l-31 27q87 137 201 137q39 0 73.5 -18.5t56 -41t53 -41t65.5 -18.5 q22 0 45.5 7t58 34.5t58.5 73.5l32 -27q-90 -137 -200 -137q-37 0 -71 18.5t-56.5 41t-54.5 41t-66 18.5q-98 0 -164 -115z" />
<glyph unicode="&#xf2;" horiz-adv-x="782" d="M766 965l-156 -678q-31 -138 -129 -220.5t-217 -82.5q-98 0 -156.5 57.5t-58.5 159.5q0 47 10 86l158 678q32 138 129 220.5t215 82.5q98 0 156.5 -57.5t58.5 -159.5q0 -34 -10 -86zM270 963l-155 -674q-11 -53 -11 -80q0 -83 46.5 -126.5t121.5 -43.5q97 0 177 70.5 t106 179.5l156 674q10 48 10 79q0 83 -46.5 126.5t-121.5 43.5q-98 0 -177.5 -68.5t-105.5 -180.5zM496 1673h67l86 -323h-53z" />
<glyph unicode="&#xf3;" horiz-adv-x="782" d="M766 965l-156 -678q-31 -138 -129 -220.5t-217 -82.5q-98 0 -156.5 57.5t-58.5 159.5q0 47 10 86l158 678q32 138 129 220.5t215 82.5q98 0 156.5 -57.5t58.5 -159.5q0 -34 -10 -86zM270 963l-155 -674q-11 -53 -11 -80q0 -83 46.5 -126.5t121.5 -43.5q97 0 177 70.5 t106 179.5l156 674q10 48 10 79q0 83 -46.5 126.5t-121.5 43.5q-98 0 -177.5 -68.5t-105.5 -180.5zM741 1673h68l-250 -323h-53z" />
<glyph unicode="&#xf4;" horiz-adv-x="782" d="M766 965l-156 -678q-31 -138 -129 -220.5t-217 -82.5q-98 0 -156.5 57.5t-58.5 159.5q0 47 10 86l158 678q32 138 129 220.5t215 82.5q98 0 156.5 -57.5t58.5 -159.5q0 -34 -10 -86zM270 963l-155 -674q-11 -53 -11 -80q0 -83 46.5 -126.5t121.5 -43.5q97 0 177 70.5 t106 179.5l156 674q10 48 10 79q0 83 -46.5 126.5t-121.5 43.5q-98 0 -177.5 -68.5t-105.5 -180.5zM618 1673h66l127 -323h-51l-119 276l-246 -276h-49z" />
<glyph unicode="&#xf5;" horiz-adv-x="782" d="M766 965l-156 -678q-31 -138 -129 -220.5t-217 -82.5q-98 0 -156.5 57.5t-58.5 159.5q0 47 10 86l158 678q32 138 129 220.5t215 82.5q98 0 156.5 -57.5t58.5 -159.5q0 -34 -10 -86zM270 963l-155 -674q-11 -53 -11 -80q0 -83 46.5 -126.5t121.5 -43.5q97 0 177 70.5 t106 179.5l156 674q10 48 10 79q0 83 -46.5 126.5t-121.5 43.5q-98 0 -177.5 -68.5t-105.5 -180.5zM330 1448l-31 27q87 137 201 137q39 0 73.5 -18.5t56 -41t53 -41t65.5 -18.5q22 0 45.5 7t57.5 34.5t58 73.5l33 -27q-90 -137 -201 -137q-37 0 -71 18.5t-56 41t-54 41 t-66 18.5q-98 0 -164 -115z" />
<glyph unicode="&#xf6;" horiz-adv-x="782" d="M766 965l-156 -678q-31 -138 -129 -220.5t-217 -82.5q-98 0 -156.5 57.5t-58.5 159.5q0 47 10 86l158 678q32 138 129 220.5t215 82.5q98 0 156.5 -57.5t58.5 -159.5q0 -34 -10 -86zM270 963l-155 -674q-11 -53 -11 -80q0 -83 46.5 -126.5t121.5 -43.5q97 0 177 70.5 t106 179.5l156 674q10 48 10 79q0 83 -46.5 126.5t-121.5 43.5q-98 0 -177.5 -68.5t-105.5 -180.5zM764 1608q39 0 39 -43q0 -28 -18 -50t-46 -22q-37 0 -37 43q0 29 17.5 50.5t44.5 21.5zM510 1608q35 0 35 -43q0 -29 -17 -50.5t-47 -21.5q-37 0 -37 43q0 29 18 50.5 t48 21.5z" />
<glyph unicode="&#xf7;" horiz-adv-x="1044" d="M188 807h795l-12 -53h-795zM508 473q39 0 39 -41q0 -29 -17 -50.5t-47 -21.5q-37 0 -37 41q0 29 17.5 50.5t44.5 21.5zM676 1200q39 0 39 -41q0 -29 -17 -50.5t-47 -21.5q-37 0 -37 41q0 29 17.5 50.5t44.5 21.5z" />
<glyph unicode="&#xf8;" horiz-adv-x="782" d="M791 1374h47l-101 -188q39 -55 39 -135q0 -34 -10 -86l-156 -678q-31 -138 -129 -220.5t-217 -82.5q-91 0 -147 47l-82 -154h-47l100 186q-39 55 -39 138q0 47 10 86l158 678q32 138 129 220.5t215 82.5q91 0 146 -49zM270 963l-155 -674q-11 -53 -11 -80q0 -41 17 -84 l557 1040q-44 47 -125 47q-98 0 -177.5 -68.5t-105.5 -180.5zM721 1042q0 45 -16 82l-560 -1038q44 -47 127 -47q97 0 177 70.5t106 179.5l156 674q10 48 10 79z" />
<glyph unicode="&#xf9;" horiz-adv-x="804" d="M793 1251h55l-289 -1251h-47l25 135q-125 -151 -285 -151q-91 0 -145 51t-54 151q0 41 13 101l223 964h55l-221 -960q-12 -55 -12 -98q0 -154 159 -154q31 0 59.5 6.5t64.5 24t76.5 53.5t82.5 90zM506 1673h67l86 -323h-53z" />
<glyph unicode="&#xfa;" horiz-adv-x="806" d="M793 1251h55l-289 -1251h-47l25 135q-125 -151 -285 -151q-91 0 -145 51t-54 151q0 41 13 101l223 964h55l-221 -960q-12 -55 -12 -98q0 -154 159 -154q31 0 59.5 6.5t64.5 24t76.5 53.5t82.5 90zM760 1673h67l-249 -323h-54z" />
<glyph unicode="&#xfb;" horiz-adv-x="806" d="M793 1251h55l-289 -1251h-47l25 135q-125 -151 -285 -151q-91 0 -145 51t-54 151q0 41 13 101l223 964h55l-221 -960q-12 -55 -12 -98q0 -154 159 -154q31 0 59.5 6.5t64.5 24t76.5 53.5t82.5 90zM631 1673h65l127 -323h-51l-119 276l-245 -276h-50z" />
<glyph unicode="&#xfc;" horiz-adv-x="806" d="M793 1251h55l-289 -1251h-47l25 135q-125 -151 -285 -151q-91 0 -145 51t-54 151q0 41 13 101l223 964h55l-221 -960q-12 -55 -12 -98q0 -154 159 -154q31 0 59.5 6.5t64.5 24t76.5 53.5t82.5 90zM772 1608q39 0 39 -43q0 -28 -17.5 -50t-45.5 -22q-37 0 -37 43 q0 29 17 50.5t44 21.5zM518 1608q35 0 35 -43q0 -29 -17 -50.5t-47 -21.5q-36 0 -36 43q0 29 18 50.5t47 21.5z" />
<glyph unicode="&#xfd;" horiz-adv-x="804" d="M793 1251h53l-369 -1601h-57l117 502q-128 -148 -283 -148q-90 0 -143.5 52t-53.5 151q0 40 13 100l217 944h55l-215 -940q-14 -65 -14 -100q0 -78 44.5 -115t116.5 -37q144 0 281 170zM760 1673h67l-249 -323h-54z" />
<glyph unicode="&#xfe;" d="M383 1655l61 14l-133 -577q146 176 301 176q84 0 138.5 -53.5t54.5 -153.5q0 -43 -12 -96l-158 -678q-17 -74 -51 -133t-77.5 -95.5t-92.5 -55.5t-99 -19q-156 0 -219 178l-119 -512h-55zM588 1212q-67 0 -137 -44t-156 -148l-184 -795q36 -103 86.5 -144.5t119.5 -41.5 q89 0 162.5 67.5t100.5 184.5l155 670q13 60 13 98q0 153 -160 153z" />
<glyph unicode="&#xff;" horiz-adv-x="804" d="M793 1251h53l-369 -1601h-57l117 502q-128 -148 -283 -148q-90 0 -143.5 52t-53.5 151q0 40 13 100l217 944h55l-215 -940q-14 -65 -14 -100q0 -78 44.5 -115t116.5 -37q144 0 281 170zM780 1608q39 0 39 -43q0 -28 -17.5 -50t-45.5 -22q-37 0 -37 43q0 29 17 50.5 t44 21.5zM526 1608q35 0 35 -43q0 -29 -16.5 -50.5t-46.5 -21.5q-37 0 -37 43q0 29 18 50.5t47 21.5z" />
<glyph unicode="&#x152;" horiz-adv-x="1204" d="M891 1604h469l-14 -56h-412l-160 -690h324l-13 -57h-323l-172 -746h411l-12 -55h-469l21 94q-54 -58 -123.5 -90.5t-141.5 -32.5q-103 0 -165 61t-62 167q0 41 12 94l234 1018q32 144 133.5 232.5t230.5 88.5q74 0 128.5 -32t80.5 -93zM350 1311l-235 -1018 q-11 -43 -11 -82q0 -90 49.5 -137t131.5 -47q105 0 189 73.5t112 192.5l235 1018q10 52 10 86q0 87 -49.5 133.5t-130.5 46.5q-103 0 -187.5 -72.5t-113.5 -193.5z" />
<glyph unicode="&#x153;" horiz-adv-x="1257" d="M977 588q-160 -113 -342 -205l-23 -96q-10 -52 -10 -82q0 -80 44.5 -123t117.5 -43q93 0 170 67t104 181l27 114l59 15l-30 -129q-33 -138 -129 -220.5t-213 -82.5q-81 0 -134.5 41.5t-66.5 119.5q-52 -76 -128 -118.5t-159 -42.5q-98 0 -156.5 57.5t-58.5 159.5 q0 47 10 86l158 678q32 138 129 220.5t215 82.5q84 0 140 -43.5t69 -120.5q49 78 124.5 121t160.5 43q90 0 149.5 -56.5t59.5 -187.5q0 -123 -65 -224.5t-222 -211.5zM768 965l-121 -527q158 83 307 193q138 101 195 187.5t57 195.5q0 198 -164 198q-98 0 -173 -66 t-101 -181zM270 963l-155 -674q-11 -53 -11 -80q0 -83 46.5 -126.5t121.5 -43.5q97 0 177 70.5t106 179.5l156 674q10 48 10 79q0 83 -46.5 126.5t-121.5 43.5q-98 0 -177.5 -68.5t-105.5 -180.5z" />
<glyph unicode="&#x178;" horiz-adv-x="831" d="M313 1604h56l110 -785l469 785h64l-520 -854l-173 -750h-57l174 750zM872 1960q39 0 39 -43q0 -28 -17.5 -50t-45.5 -22q-37 0 -37 43q0 29 17 50.5t44 21.5zM618 1960q35 0 35 -43q0 -29 -16.5 -50.5t-46.5 -21.5q-37 0 -37 43q0 29 18 50.5t47 21.5z" />
<glyph unicode="&#x2c6;" horiz-adv-x="745" d="M602 1673h66l127 -323h-52l-118 276l-246 -276h-49z" />
<glyph unicode="&#x2dc;" horiz-adv-x="802" d="M340 1448l-31 27q87 137 201 137q39 0 73.5 -18.5t56 -41t53 -41t65.5 -18.5q22 0 45.5 7t58 34.5t58.5 73.5l32 -27q-90 -137 -200 -137q-37 0 -71 18.5t-56.5 41t-54.5 41t-66 18.5q-98 0 -164 -115z" />
<glyph unicode="&#x2000;" horiz-adv-x="1012" />
<glyph unicode="&#x2001;" horiz-adv-x="2025" />
<glyph unicode="&#x2002;" horiz-adv-x="1012" />
<glyph unicode="&#x2003;" horiz-adv-x="2025" />
<glyph unicode="&#x2004;" horiz-adv-x="675" />
<glyph unicode="&#x2005;" horiz-adv-x="506" />
<glyph unicode="&#x2006;" horiz-adv-x="337" />
<glyph unicode="&#x2007;" horiz-adv-x="337" />
<glyph unicode="&#x2008;" horiz-adv-x="253" />
<glyph unicode="&#x2009;" horiz-adv-x="405" />
<glyph unicode="&#x200a;" horiz-adv-x="112" />
<glyph unicode="&#x2010;" horiz-adv-x="634" d="M154 805h452l-10 -53h-455z" />
<glyph unicode="&#x2011;" horiz-adv-x="634" d="M154 805h452l-10 -53h-455z" />
<glyph unicode="&#x2012;" horiz-adv-x="634" d="M154 805h452l-10 -53h-455z" />
<glyph unicode="&#x2013;" horiz-adv-x="878" d="M154 805h696l-14 -53h-695z" />
<glyph unicode="&#x2014;" horiz-adv-x="1271" d="M154 805h1089l-12 -53h-1090z" />
<glyph unicode="&#x2018;" horiz-adv-x="280" d="M416 1632h28l-77 -268q-15 -55 -58 -55q-41 0 -41 43q0 7 1 13t4 12.5t4.5 10t6.5 11l7 10.5z" />
<glyph unicode="&#x2019;" horiz-adv-x="280" d="M414 1548l-127 -223h-29l78 266q17 56 59 56q39 0 39 -43q0 -20 -20 -56z" />
<glyph unicode="&#x201a;" horiz-adv-x="280" d="M59 10l-127 -223h-28l78 266q17 56 59 56q39 0 39 -43q0 -9 -2.5 -17.5t-4 -12t-7.5 -14t-7 -12.5z" />
<glyph unicode="&#x201c;" horiz-adv-x="436" d="M569 1632h29l-78 -268q-15 -55 -57 -55q-41 0 -41 43q0 6 1 11.5t2 9.5t3.5 9.5t4 8t5.5 9t6 9.5zM416 1632h28l-77 -268q-15 -55 -58 -55q-41 0 -41 43q0 7 1 13t4 12.5t4.5 10t6.5 11l7 10.5z" />
<glyph unicode="&#x201d;" horiz-adv-x="434" d="M567 1548l-127 -223h-28l77 266q17 56 60 56q39 0 39 -43q0 -9 -2.5 -17.5t-4 -12t-7.5 -14t-7 -12.5zM414 1548l-127 -223h-29l78 266q17 56 59 56q39 0 39 -43q0 -20 -20 -56z" />
<glyph unicode="&#x201e;" horiz-adv-x="436" d="M213 10l-127 -223h-29l78 266q17 56 60 56q38 0 38 -43q0 -20 -20 -56zM59 10l-127 -223h-28l78 266q17 56 59 56q39 0 39 -43q0 -9 -2.5 -17.5t-4 -12t-7.5 -14t-7 -12.5z" />
<glyph unicode="&#x2022;" horiz-adv-x="495" d="M346 944q47 0 78 -35t31 -88q0 -74 -57 -130t-126 -56q-48 0 -77 34.5t-29 86.5q0 74 55 131t125 57z" />
<glyph unicode="&#x2026;" horiz-adv-x="927" d="M371 109q39 0 39 -41q0 -29 -17 -50.5t-47 -21.5q-37 0 -37 41q0 29 17.5 50.5t44.5 21.5zM641 109q39 0 39 -41q0 -29 -17 -50.5t-47 -21.5q-36 0 -36 41q0 29 17 50.5t44 21.5zM100 109q39 0 39 -41q0 -29 -16.5 -50.5t-46.5 -21.5q-37 0 -37 41q0 29 17 50.5t44 21.5z " />
<glyph unicode="&#x202f;" horiz-adv-x="405" />
<glyph unicode="&#x2039;" horiz-adv-x="391" d="M428 1251h53l-336 -633l45 -618h-51l-43 625z" />
<glyph unicode="&#x203a;" horiz-adv-x="391" d="M242 1251h51l43 -626l-330 -625h-53l334 631z" />
<glyph unicode="&#x205f;" horiz-adv-x="506" />
<glyph unicode="&#x20ac;" horiz-adv-x="847" d="M123 664h88l72 307h-103l25 47h88l69 297q34 145 132.5 231t228.5 86q103 0 159 -57t56 -160q0 -41 -25 -153h-55q25 112 25 151q0 83 -43.5 123.5t-120.5 40.5q-111 0 -192.5 -73t-108.5 -189l-70 -297h494l-27 -47h-477l-70 -307h406l-27 -48h-391l-74 -327 q-12 -53 -12 -94q0 -85 46.5 -126.5t121.5 -41.5q105 0 186 73t109 189l16 67l58 15l-19 -82q-33 -144 -134.5 -231t-223.5 -87q-98 0 -157.5 60.5t-59.5 163.5q0 45 12 94l76 327h-101z" />
<glyph unicode="&#x2122;" horiz-adv-x="1058" d="M733 1604h37l-4 -899l410 899h38l-223 -963h-30l196 852l-387 -852h-37l6 852l-196 -852h-31zM367 1604h292l-10 -33h-129l-213 -930h-35l215 930h-129z" />
<glyph unicode="&#x25fc;" horiz-adv-x="1249" d="M0 1249h1249v-1249h-1249v1249z" />
</font>
</defs>
</svg>
