<?xml version="1.0" standalone="no"?>
<!DOCTYPE svg PUBLIC "-//W3C//DTD SVG 1.1//EN" "http://www.w3.org/Graphics/SVG/1.1/DTD/svg11.dtd" >
<svg xmlns="http://www.w3.org/2000/svg">
<metadata></metadata>
<defs>
<font id="questa_grandebold" horiz-adv-x="1105" >
<font-face units-per-em="2048" ascent="1536" descent="-512" />
<missing-glyph horiz-adv-x="432" />
<glyph unicode="&#xfb01;" horiz-adv-x="1228" d="M35 0v31h127v860h-127v31h127v133q0 225 121 333.5t374 108.5q175 0 276 -54.5t101 -148.5q0 -78 -54.5 -123t-148.5 -45q-73 0 -110 15v16q57 -9 86 29t29 121q0 77 -51 120t-142 43q-106 0 -148 -68t-42 -237v-243h628v-891h127v-31h-544v31h127v860h-338v-860h147v-31 h-565z" />
<glyph unicode="&#xfb02;" horiz-adv-x="1228" d="M35 0v31h127v860h-127v31h127v135q0 211 121 325.5t313 114.5q91 0 164 -27h321v-1439h127v-31h-544v31h127v1310q-3 47 -52.5 86t-107.5 39q-65 0 -102.5 -26.5t-56.5 -94.5t-19 -190v-233h221v-31h-221v-860h147v-31h-565z" />
<glyph unicode="&#xfb03;" horiz-adv-x="1904" d="M35 0v31h127v860h-127v31h127v133q0 189 116 295t328 106q119 0 200 -39.5t99 -111.5q113 192 428 192q169 0 268 -54.5t99 -146.5q0 -79 -54.5 -124.5t-148.5 -45.5q-73 0 -111 15v16q56 -9 85.5 29t29.5 121q0 77 -48 120t-134 43q-106 0 -148.5 -89t-42.5 -318v-141 h629v-891h127v-31h-545v31h127v860h-338v-860h148v-31h-565v31h127v860h-385v-860h147v-31h-565zM453 922h385v82q0 70 8 122q-40 -24 -107 -24q-89 0 -121 14v17q59 -9 97.5 28.5t38.5 114.5q0 71 -41 112.5t-101 41.5q-93 0 -126 -68t-33 -227v-213z" />
<glyph unicode="&#xfb04;" horiz-adv-x="1904" d="M35 0v31h127v860h-127v31h127v133q0 189 116 295t328 106q114 0 194 -37.5t103 -105.5q56 91 152 137.5t217 46.5q91 0 164 -27h321v-1439h127v-31h-545v31h127v1310q-3 48 -52 86.5t-107 38.5q-65 0 -102.5 -26.5t-57 -94.5t-19.5 -190v-233h222v-31h-222v-860h148v-31 h-565v31h127v860h-385v-860h147v-31h-565zM453 922h385v135q0 50 4 73q-51 -28 -123 -28q-57 0 -101 14v17q62 -8 88.5 30.5t26.5 112.5t-32 114t-89 40q-93 0 -126 -68.5t-33 -226.5v-213z" />
<glyph horiz-adv-x="0" />
<glyph horiz-adv-x="682" />
<glyph unicode=" "  horiz-adv-x="432" />
<glyph unicode="&#x09;" horiz-adv-x="432" />
<glyph unicode="&#xa0;" horiz-adv-x="432" />
<glyph unicode="!" horiz-adv-x="514" d="M270 426h-30q0 132 -24.5 259t-53.5 206.5t-53.5 163t-24.5 137.5q0 89 49.5 139.5t124.5 50.5t123.5 -50t48.5 -138q0 -56 -25 -139.5t-55 -163t-55 -206.5t-25 -259zM100 145q0 64 46.5 110t111.5 46q64 0 110 -45.5t46 -110.5t-45 -111t-111 -46q-65 0 -111.5 46.5 t-46.5 110.5z" />
<glyph unicode="&#x22;" horiz-adv-x="747" d="M217 881h-33q-108 344 -108 467q0 153 125 153q127 0 127 -153q0 -113 -111 -467zM563 881h-33q-108 344 -108 467q0 153 125 153q127 0 127 -153q0 -113 -111 -467z" />
<glyph unicode="#" horiz-adv-x="1267" d="M254 -123l104 488h-301l6 30h302l75 355h-315l4 30h317l107 490h29l-105 -490h397l107 490h29l-105 -490h303l-6 -30h-303l-76 -355h320l-6 -30h-320l-104 -488h-31l104 488h-397l-104 -488h-31zM395 395h398l75 355h-397z" />
<glyph unicode="$" d="M209 0h-31q21 94 21 293v90h30v-94q0 -86 62.5 -154t173.5 -94v405q-64 27 -110.5 55t-90.5 71t-67 103.5t-23 137.5q0 78 25 137.5t68.5 94.5t92 54.5t105.5 26.5v164h31v-162q14 2 41 2q39 0 79 -6v166h31v-172q93 -18 154 -76q55 11 80 78h30q-28 -74 -28 -241v-95 h-31v74q0 75 -52.5 140.5t-152.5 88.5v-401q53 -21 92.5 -40.5t81.5 -50.5t69 -66t44.5 -85.5t17.5 -111.5q0 -142 -84.5 -225t-220.5 -103v-176h-31v174q-14 -2 -43 -2q-52 0 -77 4v-176h-31v182q-102 23 -170 82q-58 -15 -86 -92zM575 31h41v358q-58 21 -120 45v-399 q25 -4 79 -4zM616 698v396q-69 6 -71 6q-35 0 -49 -2v-355q21 -9 63 -24t57 -21zM647 377v-342q87 13 132.5 56.5t45.5 105.5t-45.5 102.5t-132.5 77.5zM465 756v336q-79 -13 -121.5 -55t-42.5 -103t42.5 -102t121.5 -76z" />
<glyph unicode="%" horiz-adv-x="1566" d="M348 0l848 1354h39l-850 -1354h-37zM872 297q0 132 93 223.5t225 91.5q134 0 226.5 -91.5t92.5 -223.5q0 -133 -92.5 -225t-226.5 -92q-132 0 -225 92t-93 225zM1190 10q120 0 203.5 83.5t83.5 203.5q0 119 -83.5 202t-203.5 83q-118 0 -201.5 -83t-83.5 -202 q0 -120 83 -203.5t202 -83.5zM55 1057q0 132 93 223.5t225 91.5q134 0 226.5 -91.5t92.5 -223.5q0 -133 -92.5 -225.5t-226.5 -92.5q-132 0 -225 92.5t-93 225.5zM373 770q120 0 203 83.5t83 203.5q0 119 -83 201.5t-203 82.5q-119 0 -202 -83t-83 -201q0 -120 83 -203.5 t202 -83.5z" />
<glyph unicode="&#x26;" horiz-adv-x="1468" d="M1079 309l88 -108q59 -75 84.5 -97t59.5 -22q40 0 63 37q27 43 27 143h29q0 -44 -4.5 -78t-20 -73t-41.5 -65t-73.5 -43t-112.5 -17q-90 0 -157 31.5t-130 97.5q-152 -129 -373 -129q-191 0 -313.5 98.5t-122.5 263.5q0 61 20 116t47.5 93.5t73 77.5t80 61.5t84.5 51.5 q-108 151 -108 301q0 147 121.5 233t324.5 86q170 0 259 -57.5t89 -151.5q0 -87 -67.5 -133.5t-161.5 -46.5q-60 0 -94.5 33.5t-34.5 91.5h30q0 -37 17.5 -57.5t48.5 -20.5q42 0 65 30.5t23 82.5q0 82 -43 142t-133 60q-101 0 -150 -60.5t-49 -145.5q0 -70 41.5 -148.5 t124.5 -183.5l371 -469q92 171 92 323q0 25 -3.5 42t-15 35t-38 27t-66.5 9h-61v31h399v-31h-63q-40 0 -65 -8t-36.5 -24t-15 -31t-4.5 -39q-10 -201 -105 -359zM809 211l-356 451q-27 30 -47 59q-70 -84 -70 -232q0 -68 20 -139.5t57.5 -137t103 -107.5t147.5 -42 q123 0 206 72q-42 48 -61 76z" />
<glyph unicode="'" horiz-adv-x="401" d="M217 881h-33q-108 344 -108 467q0 153 125 153q127 0 127 -153q0 -113 -111 -467z" />
<glyph unicode="(" horiz-adv-x="581" d="M567 -451l-24 -20q-207 194 -342 451t-135 522q0 150 45 302.5t118.5 276.5t153 221t162.5 166l22 -22q-122 -137 -177.5 -294.5t-55.5 -365.5v-475q0 -290 53.5 -457t179.5 -305z" />
<glyph unicode=")" horiz-adv-x="581" d="M39 -471l-25 20q85 93 134 189.5t74.5 235.5t25.5 337v475q0 207 -55.5 364.5t-178.5 295.5l23 22q83 -69 162.5 -166t153 -221t118.5 -276.5t45 -302.5q0 -265 -135 -522t-342 -451z" />
<glyph unicode="*" horiz-adv-x="1103" d="M569 1059h-32q0 58 -15.5 111.5t-34 85.5t-34 67t-15.5 59q0 57 32 83t83 26q50 0 81.5 -25t31.5 -77q0 -26 -15 -61t-33 -67.5t-33 -87t-16 -114.5zM500 1036l-8 -28q-60 18 -127 18q-42 0 -101 -9t-78 -9q-55 0 -84.5 32t-29.5 68q0 52 31 88.5t75 36.5q37 0 71 -22.5 t60 -52t77 -65.5t114 -57zM500 963l24 -23q-42 -59 -59.5 -125t-25 -118.5t-25.5 -78.5q-33 -45 -80 -45q-42 0 -84.5 35t-42.5 84q0 37 17 60t48.5 39t66.5 33t80 52.5t81 86.5zM569 940l27 18q37 -50 82 -85.5t80.5 -53t67 -34t48.5 -40.5t17 -61q0 -43 -40.5 -76 t-86.5 -33q-48 0 -80 48q-14 20 -22 56t-12.5 72t-25 88t-55.5 101zM614 999l-12 31q57 19 101 47.5t69.5 54.5t48 49.5t48 37.5t57.5 14q50 0 77 -38t27 -93q0 -39 -27 -68.5t-83 -29.5q-20 0 -78 9t-97 9q-63 0 -131 -23z" />
<glyph unicode="+" d="M539 0v481h-445v31h445v473h30v-473h443v-31h-443v-481h-30z" />
<glyph unicode="," horiz-adv-x="528" d="M90 -305v31q92 0 168 60t76 157q0 85 -64 130.5t-188 45.5q0 85 46 133.5t122 48.5q92 0 141 -57t49 -160q0 -162 -102.5 -275.5t-247.5 -113.5z" />
<glyph unicode="-" horiz-adv-x="733" d="M109 393v201h516v-201h-516z" />
<glyph unicode="." horiz-adv-x="485" d="M86 145q0 64 46.5 110t111.5 46q64 0 109.5 -45.5t45.5 -110.5t-45.5 -111t-109.5 -46q-65 0 -111.5 46.5t-46.5 110.5z" />
<glyph unicode="/" horiz-adv-x="804" d="M47 -463l682 1938l29 -9l-682 -1937z" />
<glyph unicode="0" horiz-adv-x="1044" d="M553 -14q-212 0 -340.5 137t-128.5 364q0 240 127 376t354 136q188 0 293 -131t105 -366q0 -243 -109 -379.5t-301 -136.5zM631 31q71 0 141 52.5t107 139.5q51 114 51 279q0 167 -53 276q-36 77 -105.5 125.5t-138.5 48.5q-122 0 -184 -118.5t-62 -337.5q0 -225 61 -345 t183 -120z" />
<glyph unicode="1" horiz-adv-x="843" d="M63 0v31h240v862q-138 -19 -242 -19v31q115 0 248 19.5t209 39.5l76 19v-952h235v-31h-766z" />
<glyph unicode="2" horiz-adv-x="1077" d="M41 0v31q35 21 102 60t104.5 61.5t95.5 62.5t91.5 71.5t73.5 79.5t61.5 96t36.5 112t15 135q0 264 -175 264q-87 0 -132.5 -49t-45.5 -140q0 -87 27 -127t78 -28v-17q-36 -10 -99 -10q-87 0 -139.5 46.5t-52.5 123.5q0 109 99.5 168t287.5 59q212 0 333.5 -74t121.5 -202 q0 -37 -10 -72.5t-32 -69t-45.5 -62.5t-63.5 -61t-70.5 -56t-82 -56.5t-84.5 -52t-90.5 -53.5t-87.5 -52h506q40 0 64.5 40.5t52.5 152.5h33q-24 -85 -44 -193.5t-26 -187.5h-903z" />
<glyph unicode="3" horiz-adv-x="1007" d="M354 20v-16q-49 6 -76.5 -26t-27.5 -97q0 -184 174 -184q106 0 153.5 71t47.5 236q0 177 -56 258.5t-178 81.5h-98v31h98q201 0 201 330q0 142 -39.5 205t-128.5 63q-164 0 -164 -172q0 -82 28 -123t77 -29v-16q-34 -10 -84 -10q-97 0 -152 41t-55 114q0 104 95.5 162.5 t270.5 58.5q222 0 338.5 -80.5t116.5 -232.5q0 -136 -94.5 -209t-296.5 -108v-4q216 -22 321 -100.5t105 -225.5q0 -172 -135.5 -270.5t-374.5 -98.5q-173 0 -265 53.5t-92 157.5q0 64 54.5 107t140.5 43q39 0 96 -11z" />
<glyph unicode="4" horiz-adv-x="1095" d="M399 -317v30h146v367h-529v33l693 876h106v-878h76q11 1 20 6.5t16.5 19t13 27.5t12.5 39t12 47t13.5 58.5t16.5 66.5h33q-25 -162 -29 -264v-31h-184v-367h127v-30h-543zM53 111h492v620z" />
<glyph unicode="5" horiz-adv-x="983" d="M360 20v-16q-49 6 -76.5 -26t-27.5 -97q0 -184 158 -184q73 0 117.5 45t61.5 118.5t17 182.5q0 191 -67.5 284t-227.5 93h-161l14 565h639l27 111l30 -2q-45 -186 -53 -340h-618l-9 -303h170q86 0 163.5 -12.5t149.5 -41.5t124 -72t83 -109.5t31 -149.5 q0 -169 -129 -282.5t-364 -113.5q-158 0 -250 55t-92 154q0 68 53.5 110t140.5 42q17 0 41 -2.5t39 -5.5z" />
<glyph unicode="6" horiz-adv-x="1112" d="M385 580q1 -84 3.5 -140.5t7.5 -121.5t13 -107t22 -83t33 -64.5t46.5 -37.5t62.5 -14q92 0 127 92.5t35 298.5q0 69 -3 120t-12.5 100t-25.5 80.5t-42 50t-62 18.5q-69 0 -130.5 -57t-74.5 -135zM702 1018v16q50 -12 75.5 33.5t25.5 106.5q0 80 -45.5 123.5t-122.5 43.5 q-56 0 -98 -23t-69.5 -70.5t-45 -104t-26 -139t-11.5 -159.5t-2 -181q87 155 285 155q71 0 132.5 -22t112 -67t80 -122.5t29.5 -179.5q0 -115 -37 -202.5t-101.5 -138.5t-143.5 -76t-171 -25q-105 0 -187.5 33.5t-136.5 91t-88.5 141.5t-49.5 179.5t-15 209.5t14.5 212.5 t52.5 195.5t97.5 165.5t157 111t223.5 42.5q158 0 255 -58.5t97 -148.5q0 -62 -48 -108.5t-153 -46.5q-25 0 -46.5 3t-30.5 6z" />
<glyph unicode="7" horiz-adv-x="935" d="M147 -317v30h129q4 86 29.5 173.5t80.5 194t103 187t141 229.5t150 246h-555q-40 0 -61 -13.5t-40 -58.5t-44 -145h-31q31 197 31 361v98h829v-78q-79 -132 -127.5 -217t-96 -176t-71.5 -158.5t-44.5 -141.5t-26 -150t-5 -159.5t8.5 -191.5h135v-30h-535z" />
<glyph unicode="8" horiz-adv-x="1024" d="M324 645q-98 67 -151.5 148t-53.5 198q0 169 114.5 273t298.5 104q162 0 257.5 -83.5t95.5 -211.5q0 -182 -195 -295q56 -36 97 -70t78 -80t56 -103.5t19 -125.5q0 -181 -127.5 -297t-327.5 -116q-177 0 -286 91.5t-109 233.5q0 61 21.5 116t58.5 96t74 70t80 52z M352 627q-40 -21 -76 -47.5t-73 -65.5t-58.5 -91.5t-21.5 -111.5q0 -131 101.5 -213t256.5 -82q122 0 201.5 60t79.5 172q0 31 -8 59t-18 49t-31.5 44t-37.5 37.5t-47.5 34.5t-49 30t-54.5 31t-53 30q-62 32 -111 64zM604 831l55 -34q33 18 63 40.5t61.5 56.5t50 80t18.5 97 q0 112 -85 189t-228 77q-103 0 -172.5 -50t-69.5 -146q0 -29 7.5 -55t18 -46.5t31.5 -42t38 -36t48 -34.5t50.5 -31t57 -32.5t56.5 -32.5z" />
<glyph unicode="9" horiz-adv-x="1091" d="M717 430q-2 93 -5 157t-10.5 130.5t-21 109t-33.5 77.5t-50.5 51t-70.5 16q-92 0 -125.5 -93t-33.5 -305q0 -74 5.5 -129.5t20 -106t44 -77.5t73.5 -27q71 0 132.5 58t74.5 139zM399 18v-16q-50 12 -75 -33t-25 -102q0 -80 44.5 -126t125.5 -46q61 0 105.5 28.5t72 79.5 t44 134t22.5 178.5t6 226.5q-91 -156 -293 -156q-68 0 -128 21.5t-110 66t-79 121.5t-29 178q0 108 37 191.5t101 133t143.5 74.5t170.5 25q105 0 187.5 -32.5t136.5 -89t89 -138.5t50 -175t15 -204q0 -104 -14 -196t-52 -185t-97.5 -159.5t-157 -108t-224.5 -41.5 q-158 0 -255 57.5t-97 149.5q0 63 47.5 109.5t156.5 46.5q23 0 43.5 -3.5t29.5 -6.5z" />
<glyph unicode=":" horiz-adv-x="534" d="M268 623q-64 0 -110.5 46.5t-46.5 110.5t46 110t111 46q64 0 110 -46t46 -110q0 -65 -46 -111t-110 -46zM111 145q0 64 46 110t111 46q64 0 110 -45.5t46 -110.5t-46 -111t-110 -46t-110.5 46t-46.5 111z" />
<glyph unicode=";" horiz-adv-x="559" d="M293 623q-65 0 -111.5 46.5t-46.5 110.5t46.5 110t111.5 46t110.5 -46t45.5 -110q0 -65 -46 -111t-110 -46zM96 -305v31q57 0 112 25t93.5 76t38.5 116q0 85 -64 130.5t-188 45.5q0 85 46 133.5t122 48.5q92 0 141 -57t49 -162q0 -161 -102.5 -274t-247.5 -113z" />
<glyph unicode="&#x3c;" d="M94 477v31l885 473l14 -29l-860 -460l858 -461l-12 -29z" />
<glyph unicode="=" d="M94 664v30h918v-30h-918zM94 297v31h918v-31h-918z" />
<glyph unicode="&#x3e;" d="M127 2l-12 29l856 461l-858 460l14 29l885 -473v-31z" />
<glyph unicode="?" horiz-adv-x="1026" d="M334 145q0 64 46.5 110t111.5 46q64 0 109.5 -45.5t45.5 -110.5t-45.5 -111t-109.5 -46q-65 0 -111.5 46.5t-46.5 110.5zM635 567h31q0 -55 -41 -97t-111 -42q-68 0 -112 40t-44 107q0 39 16.5 70.5t43 55.5t58.5 48t63.5 55.5t58 71t43 102t16.5 140.5q0 114 -42 176 t-152 62q-219 0 -219 -217q0 -84 24.5 -131t69.5 -47q33 0 64.5 26t31.5 76h31q0 -57 -38.5 -98t-133.5 -41q-102 0 -169 52t-67 154q0 115 112.5 183.5t309.5 68.5q223 0 356.5 -75.5t133.5 -214.5q0 -59 -26.5 -108.5t-67 -82t-96.5 -62t-105.5 -48t-104.5 -41t-84 -39.5 q-92 -54 -92 -133q0 -51 33.5 -85t87.5 -34q49 0 85 27t36 81z" />
<glyph unicode="@" horiz-adv-x="1636" d="M1020 -279l4 -30q-116 -17 -195 -17q-147 0 -271.5 42.5t-211.5 115.5t-148.5 169.5t-90.5 204.5t-29 222q0 125 35 243.5t103.5 218.5t161.5 176t216.5 118.5t261.5 42.5q204 0 362 -90t244 -248.5t86 -358.5q0 -80 -14 -156t-44 -144t-72.5 -119t-103.5 -81t-134 -30 q-226 0 -226 213h-8q-26 -104 -76 -158.5t-149 -54.5q-73 0 -136.5 25.5t-114 77.5t-79.5 139t-29 200t33.5 204.5t89.5 148t126.5 86.5t148.5 30q186 0 258 -145q105 57 168 145h31q-9 -81 -9 -235v-524q0 -99 64 -99q21 0 51 17t64 55t63 91t48.5 134t19.5 174 q0 189 -78 341t-229 241.5t-351 89.5q-167 0 -309.5 -63.5t-238 -169.5t-149.5 -244.5t-54 -288.5q0 -110 28 -214.5t87.5 -197t143 -162.5t202.5 -110.5t259 -40.5q82 0 191 16zM778 49q64 0 109 88q33 71 50 188t17 222q0 78 -6 134t-21.5 102.5t-45 70t-72.5 23.5 q-152 0 -152 -469q0 -139 14 -219t39.5 -110t67.5 -30z" />
<glyph unicode="A" horiz-adv-x="1298" d="M-41 0v31h41q47 0 77 27t56 94l463 1206h86l543 -1327h100v-31h-567v31h143l-172 422h-448l-115 -301q-22 -55 8.5 -88t101.5 -33h62v-31h-379zM293 483h424l-219 533z" />
<glyph unicode="B" horiz-adv-x="1318" d="M51 0v31h172v1292h-172v31h635q249 0 376.5 -83.5t127.5 -242.5q0 -133 -92.5 -216t-304.5 -112v-4q452 -40 452 -329q0 -181 -140 -274t-417 -93h-637zM535 709h83q133 0 192.5 66.5t59.5 228.5q0 166 -55 242.5t-176 76.5h-104v-614zM535 31h120q143 0 206 75t63 252 q0 173 -68 246.5t-221 73.5h-100v-647z" />
<glyph unicode="C" horiz-adv-x="1255" d="M1157 403h33q0 -49 -13 -102t-46 -110.5t-82 -102t-129 -73.5t-179 -29q-309 0 -486 189.5t-177 508.5q0 307 184 495.5t496 188.5q171 0 286 -92q51 -7 87 16t49 62h26q-39 -191 -39 -287v-135h-30v78q0 146 -106.5 236.5t-272.5 90.5q-62 0 -113 -20t-86.5 -54 t-62.5 -84.5t-43.5 -105.5t-27 -124.5t-14 -134t-3.5 -140.5q0 -115 8.5 -206t31.5 -178t60.5 -144.5t99.5 -92.5t144 -35q137 0 235 64q82 54 126 141t44 180z" />
<glyph unicode="D" horiz-adv-x="1503" d="M51 0v31h172v1292h-172v31h641q191 0 333 -46t228.5 -133.5t128 -206t41.5 -270.5q0 -119 -24.5 -221.5t-79.5 -191.5t-138.5 -151.5t-207.5 -98t-281 -35.5h-641zM535 31h161q398 0 398 645q0 330 -97.5 488.5t-300.5 158.5h-161v-1292z" />
<glyph unicode="E" horiz-adv-x="1204" d="M51 0v31h172v1292h-172v31h1075q-43 -162 -59 -383h-31v180q0 85 -33.5 128.5t-109.5 43.5h-358v-639h307v180h30v-409h-30v198h-307v-622h368q47 0 80.5 25.5t55.5 79t35.5 115.5t25.5 155h33q-31 -187 -31 -406h-1051z" />
<glyph unicode="F" horiz-adv-x="1146" d="M51 0v31h172v1292h-172v31h1067q-43 -162 -59 -383h-31v180q0 85 -33.5 128.5t-109.5 43.5h-350v-639h319v180h31v-409h-31v198h-319v-622h172v-31h-656z" />
<glyph unicode="G" horiz-adv-x="1390" d="M977 256v272h-193v31h592v-31h-121v-528h-30q-30 81 -90 104q-135 -118 -396 -118q-307 0 -484 185.5t-177 506.5q0 314 186 502t514 188q176 0 299 -90q54 -10 92 14t52 62h26q-15 -66 -27 -156.5t-12 -146.5v-119h-30v78q0 145 -111.5 236t-288.5 91 q-189 0 -279.5 -165.5t-90.5 -507.5q0 -336 76.5 -494t250.5 -158q120 0 181 66t61 178z" />
<glyph unicode="H" horiz-adv-x="1679" d="M51 0v31h172v1292h-172v31h656v-31h-172v-627h610v627h-172v31h655v-31h-172v-1292h172v-31h-655v31h172v635h-610v-635h172v-31h-656z" />
<glyph unicode="I" horiz-adv-x="757" d="M51 0v31h172v1292h-172v31h656v-31h-172v-1292h172v-31h-656z" />
<glyph unicode="J" horiz-adv-x="733" d="M-100 -270v30q44 -2 81.5 2t66.5 15t52.5 24t40 35t29 42t20 50.5t12.5 56t7.5 63t3 66t0.5 70.5v1139h-172v31h655v-31h-172v-979q0 -99 -15.5 -185t-58.5 -171t-111 -143.5t-180.5 -91t-258.5 -23.5z" />
<glyph unicode="K" horiz-adv-x="1425" d="M51 0v31h172v1292h-172v31h656v-31h-172v-606h75l520 506q23 23 27.5 45.5t-15.5 38.5t-65 16h-71v31h378v-31h-32q-49 0 -81.5 -20t-96.5 -82l-336 -328l551 -862h75v-31h-616v31h166l-418 655h-61v-655h172v-31h-656z" />
<glyph unicode="L" horiz-adv-x="1157" d="M51 0v31h172v1292h-172v31h656v-31h-172v-1292h364q40 0 70.5 18t51.5 48.5t37.5 80.5t27 102t20.5 126h33q-31 -187 -31 -406h-1057z" />
<glyph unicode="M" horiz-adv-x="1787" d="M43 0v31h61q65 0 94 31t29 92v1169h-172v31h488l368 -985l355 985h471v-31h-172v-1292h172v-31h-666v31h182v1198l-442 -1229h-86l-467 1227v-1073q0 -61 28 -92t93 -31h63v-31h-399z" />
<glyph unicode="N" horiz-adv-x="1447" d="M55 0v31h62q65 0 94 31t29 92v1046l-21 29q-35 48 -67.5 71t-79.5 23h-37v31h465l700 -928v774q0 61 -29 92t-94 31h-61v31h399v-31h-63q-65 0 -93 -31t-28 -92v-1204h-86l-875 1163v-1005q0 -61 28 -92t93 -31h64v-31h-400z" />
<glyph unicode="O" horiz-adv-x="1505" d="M752 -14q-149 0 -263 33t-190.5 92t-125.5 148.5t-70 195.5t-21 239q0 117 22.5 216t73.5 184.5t127.5 145.5t190 94t256.5 34q343 0 507 -174t164 -500q0 -126 -22 -231t-72 -195t-127 -151.5t-191 -96t-259 -34.5zM754 12q61 0 110 18.5t84 51t61 81t42 103t26 124 t13.5 136t3.5 146.5q0 88 -3.5 157.5t-12.5 141t-25 125t-41.5 101.5t-61 78.5t-85 48t-111.5 17.5q-72 0 -128 -23.5t-93 -70.5t-61.5 -104t-37 -137.5t-17.5 -157.5t-5 -176q0 -103 5 -181t17.5 -157t37 -134t61.5 -99.5t92.5 -66.5t128.5 -22z" />
<glyph unicode="P" horiz-adv-x="1290" d="M51 0v31h172v1292h-172v31h635q157 0 270.5 -29.5t177 -84t92.5 -121.5t29 -152q0 -186 -141.5 -298t-374.5 -112l-75 4v31q28 -4 61 -4q105 0 155 100t50 273q0 183 -54 272.5t-192 89.5h-149v-1292h190v-31h-674z" />
<glyph unicode="Q" horiz-adv-x="1511" d="M424 -332h-31q0 70 62.5 126t238.5 151q139 76 174 100q127 93 182.5 246t55.5 416q0 349 -79 491.5t-267 142.5q-187 0 -268.5 -139.5t-81.5 -468.5q0 -16 -0.5 -71t-0.5 -82t2 -81t6 -86t12 -78t19.5 -76t29 -61t40.5 -51q49 -43 148 -43v-30q-258 0 -422 176.5 t-164 454.5q0 317 179 490t499 173t499 -165t179 -478q0 -98 -22 -181t-75 -168t-148.5 -167.5t-236.5 -163.5q-47 -26 -141 -73.5t-135 -69.5q95 13 173.5 5t161.5 -31t146 -47.5t126.5 -43t103.5 -18.5q48 0 70 32t22 103h30q0 -151 -72.5 -229.5t-213.5 -78.5 q-71 0 -148 21.5t-141.5 52t-125 61.5t-118.5 52.5t-102 21.5q-68 0 -117 -38t-49 -97z" />
<glyph unicode="R" horiz-adv-x="1372" d="M51 0v31h172v1292h-172v31h613q153 0 261.5 -24.5t170 -72t89 -108t27.5 -139.5q0 -289 -448 -332v-4q335 -28 397 -299q8 -33 13.5 -84.5t10 -91t12.5 -77t25 -58.5t44 -21q39 0 63.5 41.5t24.5 105.5h30q0 -98 -48 -149t-156 -51q-320 0 -351 383q-10 127 -25 176 q-34 110 -122 110h-147v-628h172v-31h-656zM535 690h143q116 0 162.5 73.5t46.5 233.5q0 165 -50 245.5t-169 80.5h-133v-633z" />
<glyph unicode="S" horiz-adv-x="1124" d="M131 0h-27q15 141 15 268v187h31v-86q0 -148 116.5 -250.5t317.5 -102.5q139 0 226 56t87 164q0 72 -43.5 124.5t-112.5 85t-153 61t-168 63.5t-153 80.5t-112.5 123t-43.5 180.5q0 187 116.5 300.5t329.5 113.5q189 0 297 -88q76 6 115 74h26q-41 -199 -41 -287v-131 h-30v65q0 152 -91 244t-278 92q-145 0 -225 -57t-80 -158q0 -55 27 -98.5t72.5 -72t104.5 -53t124.5 -46.5t131 -46.5t124.5 -60t104.5 -80.5t72.5 -113t27 -153q0 -87 -28 -161t-83 -131t-143.5 -89t-201.5 -32q-211 0 -344 104q-77 -9 -107 -90z" />
<glyph unicode="T" horiz-adv-x="1263" d="M305 0v31h172v1292h-209q-86 0 -134 -54.5t-60 -166.5l-15 -131h-30q12 184 12 254v129h1184v-129l8 -254h-31l-12 137q-20 215 -182 215h-220v-1292h173v-31h-656z" />
<glyph unicode="U" horiz-adv-x="1484" d="M197 569v754h-172v31h657v-31h-172v-754q0 -300 69 -426.5t246 -126.5q216 0 324 130t108 376v678q0 61 -28.5 92t-93.5 31h-62v31h400v-31h-64q-65 0 -93 -31t-28 -92v-682q0 -91 -15.5 -169.5t-51 -146t-88.5 -115t-131.5 -74.5t-176.5 -27q-144 0 -251.5 25.5t-179 73 t-116 120.5t-63 161t-18.5 203z" />
<glyph unicode="V" horiz-adv-x="1294" d="M627 -4l-551 1327h-123v31h608v-31h-158l402 -973l301 852q20 55 -10 88t-101 33h-61v31h379v-31h-41q-48 0 -79 -27.5t-54 -93.5l-426 -1206h-86z" />
<glyph unicode="W" horiz-adv-x="1986" d="M580 -4l-490 1327h-121v31h609v-31h-168l356 -965l219 590l-139 375h-150v31h639v-31h-170l355 -961l290 840q20 55 -9.5 88t-100.5 33h-62v31h379v-31h-41q-48 0 -79 -27.5t-54 -93.5l-418 -1206h-88l-336 907l-335 -907h-86z" />
<glyph unicode="X" horiz-adv-x="1333" d="M35 0v31h67q44 0 71.5 24.5t76.5 96.5l303 438l-444 733h-150v31h657v-31h-161l305 -496l266 385q33 46 10 78.5t-92 32.5h-51v31h379v-31h-68q-44 0 -70.5 -24t-76.5 -97l-279 -403l473 -768h131v-31h-649v31h162l-324 530l-290 -420q-33 -46 -10.5 -78t91.5 -32h52v-31 h-379z" />
<glyph unicode="Y" horiz-adv-x="1318" d="M344 0v31h172v536l-426 756h-129v31h604v-31h-139l381 -682l301 567q28 50 7 82.5t-89 32.5h-92v31h379v-31h-27q-47 0 -78.5 -26t-68.5 -95l-312 -590v-581h172v-31h-655z" />
<glyph unicode="Z" horiz-adv-x="1218" d="M35 0v33l778 1290h-477q-27 0 -49 -5.5t-39.5 -19.5t-30.5 -28t-24 -42t-18.5 -49.5t-15.5 -62t-13 -68t-13 -79.5h-31q15 178 15 385h1046v-33l-784 -1290h520q40 0 70.5 18t51.5 48t38 80.5t27.5 102.5t21.5 126h31q-31 -187 -31 -406h-1073z" />
<glyph unicode="[" horiz-adv-x="643" d="M166 -467v1937h457v-30h-217v-1876h217v-31h-457z" />
<glyph unicode="\" horiz-adv-x="804" d="M729 -471l-682 1937l29 9l682 -1938z" />
<glyph unicode="]" horiz-adv-x="641" d="M20 -467v31h218v1876h-218v30h455v-1937h-455z" />
<glyph unicode="^" horiz-adv-x="999" d="M59 420l428 934h31l422 -934h-35l-403 889l-408 -889h-35z" />
<glyph unicode="_" horiz-adv-x="1208" d="M92 -31v31h1024v-31h-1024z" />
<glyph unicode="`" horiz-adv-x="1024" d="M606 1079l-24 -18q-44 62 -98.5 112t-97.5 78t-81 54t-59 56t-21 69q0 46 35 79t80 33q49 0 77 -24t43.5 -71t28 -100.5t42.5 -128.5t75 -139z" />
<glyph unicode="a" horiz-adv-x="1056" d="M618 154h-4q-35 -70 -108.5 -119t-175.5 -49q-53 0 -100.5 12.5t-88.5 38t-65.5 71.5t-24.5 107q0 79 47 138.5t125.5 91.5t168 47.5t188.5 15.5h20v215q0 92 -35 139t-116 47q-79 0 -114.5 -39.5t-35.5 -115.5q0 -59 22 -91t74 -24v-16q-55 -17 -110 -17q-81 0 -133 34 t-52 99q0 89 93.5 143t265.5 54q230 0 331 -71t101 -210v-524q0 -43 11.5 -62.5t39.5 -19.5q39 0 59.5 44t20.5 97h31q0 -102 -56 -153t-153 -51q-93 0 -156.5 44.5t-69.5 123.5zM600 215v262h-16q-117 0 -174 -53q-64 -59 -64 -205q0 -164 96 -164q32 0 68 23 q34 23 62 64.5t28 72.5z" />
<glyph unicode="b" horiz-adv-x="1157" d="M131 -14v1454h-127v30h418v-696h4q83 162 295 162q177 0 273 -117t96 -332q0 -256 -124.5 -378.5t-347.5 -122.5q-102 0 -183.5 47t-127.5 131q-111 -53 -145 -178h-31zM422 633v-338q0 -279 196 -279q59 0 93.5 35t54.5 138t20 288q0 160 -17 250t-50 124t-90 34 q-81 0 -144 -75.5t-63 -176.5z" />
<glyph unicode="c" horiz-adv-x="940" d="M856 276h31q0 -107 -82 -192q-95 -98 -275 -98q-82 0 -150.5 15.5t-127 51t-99 89t-63 133.5t-22.5 182q0 239 124 359t357 120q159 0 255.5 -53t96.5 -148q0 -75 -48 -118.5t-134 -43.5q-19 0 -39 3.5t-30 7.5l-11 4v16q45 -8 64.5 31t19.5 113q0 78 -46 119.5 t-126 41.5q-98 0 -140 -100t-42 -332q0 -258 43 -359.5t153 -101.5q56 0 112.5 20.5t94.5 55.5q84 74 84 184z" />
<glyph unicode="d" horiz-adv-x="1183" d="M750 0v197h-5q-74 -211 -301 -211q-192 0 -284 119.5t-92 340.5q0 232 107 361t300 129q105 0 171.5 -41t94.5 -102h4v647h-127v30h418v-1439h127v-31h-413zM745 358v289q0 95 -53.5 166.5t-140.5 71.5q-95 0 -137.5 -106t-42.5 -337q0 -220 35 -312.5t122 -92.5 t152 95.5t65 225.5z" />
<glyph unicode="e" horiz-adv-x="1005" d="M371 485v-30q0 -170 22.5 -265t70.5 -134.5t132 -39.5q121 0 207 70.5t86 187.5h33q-1 -85 -44 -148.5t-114 -100.5q-79 -39 -195 -39q-503 0 -503 479q0 235 126.5 353t344.5 118q192 0 298.5 -95t106.5 -274v-82h-571zM373 516h280v113q0 149 -29 214.5t-100 65.5 q-55 0 -85.5 -32.5t-46.5 -117t-19 -243.5z" />
<glyph unicode="f" horiz-adv-x="696" d="M35 0v31h127v860h-127v31h127v174q0 189 110.5 295t313.5 106q145 0 235 -51t90 -141q0 -75 -51 -118.5t-141 -43.5q-24 0 -49.5 3.5t-38.5 7.5l-13 3v17q62 -8 88.5 30.5t26.5 112.5t-34.5 113.5t-96.5 39.5q-81 0 -115 -70.5t-34 -223.5v-254h221v-31h-221v-860h147 v-31h-565z" />
<glyph unicode="g" horiz-adv-x="1040" d="M348 -154v-16q-55 9 -79.5 -19.5t-24.5 -91.5q0 -92 70 -131t218 -39q112 0 202 22t147 69.5t57 113.5q0 25 -12.5 44.5t-40 34t-59 24.5t-81.5 17.5t-95.5 12.5t-112.5 11q-175 14 -253 35q-231 61 -231 243q0 82 45 138t117 102q-104 79 -104 211q0 133 107.5 221 t311.5 88q191 0 304 -80q34 28 47.5 58t13.5 77q0 57 -27.5 83.5t-89.5 23.5v16q33 14 88 14q97 0 142 -33.5t45 -80.5q0 -56 -50.5 -95t-146.5 -79q94 -79 94 -203q0 -137 -112.5 -219t-317.5 -82q-170 0 -276 61q-28 -21 -37.5 -29t-26 -25t-22.5 -32.5t-6 -34.5 q0 -17 7.5 -31t23.5 -24t34.5 -17.5t46.5 -13t54 -9t61.5 -6.5t64.5 -5t68.5 -4.5t67.5 -5.5q229 -20 337.5 -88.5t108.5 -218.5q0 -90 -40.5 -156.5t-111.5 -104t-156 -55.5t-186 -18q-215 0 -339.5 53.5t-124.5 142.5q0 50 35 83.5t79.5 46t93.5 12.5q21 0 39 -2.5 t25 -5.5zM522 365q76 0 105.5 59.5t29.5 210.5q0 149 -29 210.5t-104 61.5t-103 -61.5t-28 -214.5q0 -149 27 -207.5t102 -58.5z" />
<glyph unicode="h" horiz-adv-x="1206" d="M20 0v31h127v1409h-127v30h418v-757h4q3 9 8.5 24t31 53.5t58.5 68t94 53.5t134 24q153 0 224 -67.5t71 -213.5v-624h127v-31h-531v31h113v712q0 71 -22.5 101t-77.5 30q-56 0 -102.5 -34.5t-74 -85.5t-42.5 -104t-15 -97v-522h113v-31h-531z" />
<glyph unicode="i" horiz-adv-x="600" d="M35 0v31h127v860h-127v31h418v-891h127v-31h-545zM152 1251q0 63 44.5 107.5t108.5 44.5q63 0 107.5 -44.5t44.5 -107.5q0 -64 -44.5 -108.5t-107.5 -44.5q-65 0 -109 44t-44 109z" />
<glyph unicode="j" horiz-adv-x="567" d="M-109 -475v37q56 0 96.5 10.5t68.5 36t45.5 59t27 88t13 112.5t3.5 144v879h-127v31h418v-852q0 -119 -30 -215.5t-93 -171.5t-170 -116.5t-252 -41.5zM135 1251q0 63 45 107.5t109 44.5q63 0 107 -44.5t44 -107.5q0 -64 -44 -108.5t-107 -44.5q-65 0 -109.5 44.5 t-44.5 108.5z" />
<glyph unicode="k" horiz-adv-x="1126" d="M20 0v31h127v1409h-127v30h418v-950h43l316 285q37 32 29.5 59t-58.5 27h-27v31h334v-31h-41q-95 0 -196 -90l-146 -131l404 -639h73v-31h-483v31h84l-289 458h-43v-458h111v-31h-529z" />
<glyph unicode="l" horiz-adv-x="585" d="M20 0v31h127v1409h-127v30h418v-1439h127v-31h-545z" />
<glyph unicode="m" horiz-adv-x="1845" d="M35 0v31h127v860h-127v31h414v-220h4q2 10 7.5 25.5t31 56t59.5 71t99 56t145 25.5q255 0 278 -234h4q2 10 7.5 25.5t31 56t59.5 71t99 56t145 25.5q283 0 283 -281v-624h127v-31h-531v31h113v688q0 79 -24.5 115t-79.5 36t-100.5 -33t-72.5 -83t-42 -103t-15 -98v-522 h127v-31h-530v31h112v688q0 79 -24.5 115t-79.5 36q-72 0 -126.5 -56.5t-78.5 -127t-24 -133.5v-522h112v-31h-530z" />
<glyph unicode="n" horiz-adv-x="1220" d="M35 0v31h127v860h-127v31h414v-220h4q3 10 8.5 25.5t30.5 56t58 71t95 56t137 25.5q153 0 224 -67.5t71 -213.5v-624h127v-31h-530v31h112v688q0 79 -24.5 115t-79.5 36q-94 0 -156 -90q-36 -52 -54.5 -115.5t-18.5 -111.5v-522h112v-31h-530z" />
<glyph unicode="o" horiz-adv-x="1116" d="M66 455q0 226 123.5 353.5t369.5 127.5q248 0 370 -123t122 -346q0 -231 -130.5 -356t-361.5 -125q-242 0 -367.5 124t-125.5 345zM559 12q107 0 145.5 98t38.5 357q0 250 -38.5 346t-145.5 96q-105 0 -145.5 -100t-40.5 -354q0 -251 39.5 -347t146.5 -96z" />
<glyph unicode="p" horiz-adv-x="1185" d="M438 584v-310q0 -95 54 -167t141 -72q95 0 137.5 106.5t42.5 337.5q0 220 -35.5 313t-122.5 93q-89 0 -153 -92t-64 -209zM20 -467v31h127v1327h-127v31h414v-185h4q82 199 301 199q192 0 284.5 -120t92.5 -341q0 -232 -107 -360.5t-300 -128.5q-194 0 -267 143h-4v-565 h127v-31h-545z" />
<glyph unicode="q" horiz-adv-x="1159" d="M592 -467v31h145v606h-4q-68 -184 -295 -184q-368 0 -368 446q0 133 34.5 232.5t96 157.5t139 86t170.5 28q230 0 338 -180q105 47 149 180h31v-1372h143v-31h-579zM737 358v269q0 147 -50.5 212.5t-145.5 65.5q-66 0 -100.5 -36.5t-51 -135.5t-16.5 -289 q0 -160 17 -249.5t50 -123.5t90 -34q93 0 150 93t57 228z" />
<glyph unicode="r" horiz-adv-x="946" d="M35 0v31h127v860h-127v31h414v-217h4q82 231 268 231q95 0 158 -51t63 -140q0 -91 -57 -139.5t-140 -48.5q-52 0 -79 12v17q32 -5 50.5 18.5t23.5 56t5 80.5q0 142 -90 142q-72 0 -133 -99q-32 -53 -50.5 -117t-18.5 -114v-522h147v-31h-565z" />
<glyph unicode="s" horiz-adv-x="909" d="M104 -14h-26q22 80 22 190v152h31v-33q0 -123 87.5 -201t244.5 -78q69 0 122 12t90.5 45.5t37.5 86.5q0 33 -21.5 57.5t-58 39.5t-83.5 27.5t-99.5 25t-104.5 28.5t-99 41t-83.5 59t-58 87.5t-21.5 121.5q0 74 29.5 131t80 90.5t113.5 50.5t135 17q148 0 240 -66 q76 9 100 66h27q-23 -65 -23 -191v-104h-30v33q0 40 -17.5 78.5t-52.5 74t-98.5 57t-145.5 21.5q-107 0 -172 -33.5t-65 -103.5q0 -35 21.5 -60t58.5 -41t84.5 -28.5t99.5 -24.5t104.5 -27t100 -39t84.5 -56t58.5 -82t21.5 -115q0 -139 -97.5 -224t-277.5 -85 q-159 0 -252 73q-83 -12 -107 -73z" />
<glyph unicode="t" horiz-adv-x="694" d="M141 301v590h-127v31h56q59 0 112.5 25t91 64.5t66 87.5t43.5 93.5t18 83.5h31v-354h230v-31h-230v-651q0 -95 23 -145t82 -50q20 0 40 7.5t40.5 25t33.5 52t13 81.5h30q0 -30 -5 -57.5t-21 -59.5t-42.5 -54.5t-73.5 -38t-110 -15.5q-68 0 -120.5 17.5t-86 47t-55.5 71 t-30.5 85.5t-8.5 94z" />
<glyph unicode="u" horiz-adv-x="1206" d="M143 266v625h-127v31h418v-719q0 -78 25.5 -115t79.5 -37q55 0 100.5 33t72.5 83t41.5 103t14.5 99v522h-127v31h418v-891h127v-31h-414v219h-4q-88 -233 -342 -233q-283 0 -283 280z" />
<glyph unicode="v" horiz-adv-x="1046" d="M489 -4l-399 895h-98v31h528v-31h-123l265 -600l194 477q50 123 -82 123h-41v31h326v-31h-10q-110 0 -148 -94l-326 -801h-86z" />
<glyph unicode="w" horiz-adv-x="1595" d="M471 -4l-379 895h-98v31h528v-31h-123l240 -590l235 621h87l266 -623l178 467q50 125 -82 125h-41v31h326v-31h-11q-109 0 -147 -94l-305 -801h-86l-262 639l-240 -639h-86z" />
<glyph unicode="x" horiz-adv-x="1032" d="M8 0v31h27q36 0 65.5 15.5t46 32.5t43.5 52l209 264l-323 496h-90v31h536v-31h-116l204 -316l160 205q42 51 32.5 81t-75.5 30h-47v31h319v-31h-26q-36 0 -66 -15.5t-46.5 -32.5t-43.5 -52l-190 -242l340 -518h92v-31h-545v31h123l-221 338l-178 -228q-86 -110 43 -110 h47v-31h-320z" />
<glyph unicode="y" horiz-adv-x="1058" d="M297 -195v-16q-64 -6 -64 -115q0 -61 24 -89.5t77 -28.5q172 0 207 262l18 137l-467 936h-98v31h555v-31h-141l282 -569l180 450q23 62 1.5 90.5t-87.5 28.5h-41v31h326v-31h-31q-40 0 -75 -26.5t-50 -67.5l-315 -797l-25 -172q-6 -38 -11 -63.5t-15.5 -61t-23.5 -59 t-34 -49.5t-47.5 -41t-65 -25t-85.5 -10q-103 0 -168.5 42t-65.5 111q0 64 62 98.5t178 34.5z" />
<glyph unicode="z" horiz-adv-x="915" d="M47 0v33l518 858h-307q-66 0 -97.5 -52.5t-39.5 -148.5l-8 -88h-33q10 135 10 180v140h772v-33l-526 -858h340q63 0 91 51t36 149l8 88h33q-10 -135 -10 -180v-139h-787z" />
<glyph unicode="{" horiz-adv-x="667" d="M555 -436h80v-31h-111q-90 0 -154.5 27.5t-100.5 76.5t-52 107t-16 129q0 77 27.5 192t27.5 179q0 113 -51.5 186.5t-153.5 73.5h-55v31h53q103 0 155 74t52 179q0 56 -27.5 154.5t-27.5 179.5q0 70 16 129t51 110t100.5 80t155.5 29h111v-30h-80q-77 0 -116.5 -42 t-39.5 -118q0 -48 16 -98.5t35.5 -88t36 -91t17.5 -105.5q3 -134 -87.5 -240t-260.5 -137q99 -18 170.5 -57t108.5 -92t53.5 -108t15.5 -116q-1 -56 -17 -111t-34.5 -93.5t-34 -93.5t-15.5 -111q0 -174 152 -174z" />
<glyph unicode="|" horiz-adv-x="360" d="M166 -467v1937h29v-1937h-29z" />
<glyph unicode="}" horiz-adv-x="667" d="M33 -467v31h80q151 0 151 174q0 70 -24.5 137t-49.5 134.5t-26 137.5q-1 61 15.5 116t53.5 108t108.5 92t170.5 57q-170 31 -260.5 137t-87.5 240q1 52 17 105.5t35.5 91t35.5 88t16 98.5q0 76 -39 118t-116 42h-80v30h110q90 0 155.5 -29t101 -80t51.5 -110t16 -129 q0 -81 -27.5 -179.5t-27.5 -154.5q0 -67 20 -122.5t68 -93t118 -37.5h54v-31h-56q-102 0 -153 -73t-51 -187q0 -64 27.5 -179t27.5 -192q0 -71 -16.5 -129t-52 -107t-100.5 -76.5t-155 -27.5h-110z" />
<glyph unicode="~" horiz-adv-x="1181" d="M139 422l-20 22q133 115 270 115q86 0 199 -67q2 -1 19 -10.5t20.5 -11.5t19 -10.5t21 -10.5t19.5 -8.5t21 -8.5t20 -6t22.5 -5.5t21.5 -3t23 -1.5q127 0 247 104l21 -22q-130 -113 -275 -113q-36 0 -74.5 11.5t-61.5 23.5t-64 35q-40 24 -65.5 36.5t-64.5 24.5t-75 12 q-122 0 -244 -106z" />
<glyph unicode="&#xa1;" horiz-adv-x="493" d="M233 496h31q0 -132 24.5 -259t53.5 -206.5t53.5 -163t24.5 -137.5q0 -89 -49.5 -140t-124.5 -51t-123.5 50.5t-48.5 138.5q0 56 25 139.5t54.5 163t54.5 206.5t25 259zM403 776q0 -64 -46 -109.5t-111 -45.5t-110.5 45.5t-45.5 109.5q0 65 45.5 111.5t110.5 46.5 q64 0 110.5 -46.5t46.5 -111.5z" />
<glyph unicode="&#xa2;" d="M612 -172v158h-10q-103 0 -185 26.5t-145.5 82.5t-98 153t-34.5 229q0 245 121.5 371t351.5 129v160h31v-160q150 -5 240 -58t90 -143q0 -75 -48 -118.5t-134 -43.5q-19 0 -39 4t-30 8l-11 3v16q45 -8 64.5 31t19.5 112q0 72 -41 113.5t-111 46.5v-932q55 2 109.5 21.5 t91.5 54.5q82 75 82 184h32q0 -108 -81 -192q-85 -88 -234 -96v-160h-31zM612 16v934q-92 -6 -132 -111t-40 -341q0 -256 38 -364t134 -118z" />
<glyph unicode="&#xa3;" d="M109 530v31h210q0 11 3 23l26 237q17 156 122.5 240t285.5 84q141 0 220 -52t79 -143q0 -65 -45 -106t-123 -41q-52 0 -80 12v16q36 -5 58.5 16.5t29 49.5t6.5 64q0 65 -31.5 111t-87.5 46q-60 0 -94 -67.5t-49 -216.5l-33 -273h256v-31h-260l-10 -100 q-13 -116 -57 -201.5t-103 -130.5q18 -9 48.5 -23t108.5 -37.5t138 -23.5q76 0 119 41t43 127q0 70 -22.5 105t-55.5 35l-18 -3v17q24 10 63 10q205 0 205 -160q0 -101 -88 -150.5t-246 -49.5q-66 0 -134.5 18.5t-178.5 69.5q-46 -40 -121.5 -64t-153.5 -24q-147 0 -147 86 q0 47 43.5 75.5t116.5 28.5q49 0 114 -16q31 198 49 370h-206zM260 129q-61 16 -106 16q-61 0 -95 -19t-34 -52q0 -28 25.5 -44t66.5 -16q110 -3 143 115z" />
<glyph unicode="&#xa5;" d="M276 0v31h140v217h-301v31h301v147h-301v31h301v80l-320 563h-102v30h541v-30h-127l290 -518l217 403q27 47 12.5 81t-63.5 34h-69v30h315v-30h-23q-47 0 -74 -23t-67 -98l-235 -438v-84h299v-31h-299v-147h299v-31h-299v-217h137v-31h-572z" />
<glyph unicode="&#xa6;" horiz-adv-x="358" d="M164 535v874h31v-874h-31zM164 -553v875h31v-875h-31z" />
<glyph unicode="&#xa7;" horiz-adv-x="997" d="M682 1018v16q32 -4 47.5 36.5t15.5 98.5q0 76 -41 124t-114 48q-96 0 -154.5 -84.5t-58.5 -240.5q0 -114 30 -244.5t72.5 -245.5t85.5 -224.5t73 -216t30 -185.5q0 -112 -61.5 -153t-168.5 -21q11 86 -16.5 210t-75 254.5t-96 263t-84 272t-35.5 245.5q0 181 118 289 t351 108q152 0 243 -58.5t91 -146.5q0 -25 -9.5 -50.5t-29.5 -50.5t-59 -40.5t-91 -15.5q-36 0 -63 12zM328 -131v-16q-3 0 -8.5 -0.5t-19.5 -7t-24.5 -18t-19 -38t-8.5 -63.5q0 -89 61.5 -133t173.5 -44q159 0 249.5 91t90.5 247q0 92 -46 247.5t-100.5 297t-100.5 300.5 t-46 257q0 69 19 144h29q-17 -90 -17 -146q0 -97 46 -254t101.5 -297.5t101.5 -296.5t46 -252q0 -175 -104 -271.5t-273 -96.5q-109 0 -201 23t-152 72t-60 116q0 65 53 108t141 43q18 0 35 -3t25 -6z" />
<glyph unicode="&#xa8;" horiz-adv-x="1024" d="M600 1235q0 57 41.5 98t99.5 41q56 0 98 -41t42 -98q0 -58 -42 -98.5t-98 -40.5q-59 0 -100 40.5t-41 98.5zM285 1096q-56 0 -98 40.5t-42 98.5q0 57 42 98t98 41q58 0 99.5 -41t41.5 -98q0 -58 -41 -98.5t-100 -40.5z" />
<glyph unicode="&#xa9;" horiz-adv-x="1794" d="M76 584q0 167 65 319t175 262t262 175t319 65t319 -65t262 -175t175 -262t65 -319t-65 -319t-175 -262.5t-262 -175.5t-319 -65t-319 65t-262 175.5t-175 262.5t-65 319zM897 -209q161 0 307.5 63t252 169.5t168.5 253t63 307.5q0 214 -106 396.5t-288.5 289 t-396.5 106.5t-396.5 -106.5t-288.5 -289t-106 -396.5q0 -161 63 -307.5t168.5 -253t252 -169.5t307.5 -63zM1249 401h33q0 -107 -82 -192q-95 -98 -274 -98q-103 0 -185 25.5t-145.5 79.5t-98 147t-34.5 219q0 239 124 359t357 120q159 0 255.5 -53t96.5 -148 q0 -75 -48 -118.5t-134 -43.5q-19 0 -39 4t-31 8l-10 3v16q45 -8 64.5 31t19.5 112q0 78 -46 120t-126 42q-98 0 -140 -100t-42 -332q0 -255 46.5 -355t158.5 -100q122 0 198 70q82 75 82 184z" />
<glyph unicode="&#xaa;" horiz-adv-x="874" d="M506 807h-8q-10 -19 -20.5 -33t-32.5 -34.5t-59.5 -32t-86.5 -11.5q-104 0 -161.5 48.5t-57.5 119.5q0 57 35 98.5t95 64.5t128.5 33.5t146.5 10.5v143q0 142 -92 142q-37 0 -61 -21t-33 -53.5t-7.5 -71t13.5 -75.5q-94 0 -146.5 30.5t-52.5 81.5q0 62 78.5 98.5 t218.5 36.5q150 0 215.5 -48.5t65.5 -159.5v-375q0 -54 43 -54q30 0 47 28t17 75h30q0 -146 -155 -146q-66 0 -111.5 25.5t-48.5 79.5zM485 885v155q-97 0 -145.5 -39t-48.5 -133q0 -123 80 -123q48 0 81 45.5t33 94.5z" />
<glyph unicode="&#xab;" horiz-adv-x="937" d="M457 39l-19 -25q-75 54 -131.5 102.5t-112.5 107.5t-86 120t-30 119t31.5 122t85.5 122.5t114.5 109.5t128.5 96l19 -24q-57 -45 -81 -86t-34 -115t-10 -225q0 -146 11.5 -222t35.5 -116t78 -86zM858 39l-18 -25q-75 55 -131.5 103t-112.5 107t-86.5 120t-30.5 119 t31.5 122t86 122.5t115 109t128.5 96.5l18 -24q-57 -45 -81 -86t-34 -115t-10 -225q0 -146 11.5 -222t35.5 -116t78 -86z" />
<glyph unicode="&#xac;" horiz-adv-x="1155" d="M63 897v31h967v-572h-31v541h-936z" />
<glyph unicode="&#xad;" horiz-adv-x="733" d="M109 393v201h516v-201h-516z" />
<glyph unicode="&#xae;" horiz-adv-x="954" d="M254 834v30h65v387h-65v29h244q168 0 168 -117q0 -94 -131 -110v-6q49 -7 75.5 -29t33 -48t8 -50.5t9 -41t27.5 -16.5h19v-22q-17 -9 -60 -9t-69 15.5t-35 38.5t-14.5 49.5t-8 49.5t-15 38.5t-36.5 15.5h-31v-174h72v-30h-256zM438 1069h39q30 0 50 25.5t20 64.5 q0 42 -23 66t-57 24h-29v-180zM72 1055q0 167 119 286t286 119t286.5 -119t119.5 -286t-119.5 -286.5t-286.5 -119.5t-286 119.5t-119 286.5zM477 678q155 0 265 111t110 266t-110 266t-265 111t-265 -111t-110 -266t110 -266t265 -111z" />
<glyph unicode="&#xaf;" horiz-adv-x="1024" d="M258 1165v181h590v-181h-590z" />
<glyph unicode="&#xb0;" horiz-adv-x="704" d="M63 1178q0 120 85 204t204 84t204 -84t85 -204t-85 -204.5t-204 -84.5t-204 84.5t-85 204.5zM94 1178q0 -106 76 -182t182 -76t182 76t76 182t-76 182t-182 76t-182 -76t-76 -182z" />
<glyph unicode="&#xb1;" d="M543 236v452h-449v31h449v424h30v-424h439v-31h-439v-452h-30zM94 0v31h918v-31h-918z" />
<glyph unicode="&#xb2;" horiz-adv-x="864" d="M82 772v31q1 0 131 92q134 95 190 160q93 103 93 317q0 223 -111 223q-66 0 -88.5 -42t-22.5 -126q0 -48 18 -79.5t58 -26.5v-16q-114 -25 -184 20t-70 119q0 81 84 129.5t213 48.5q158 0 259.5 -56.5t101.5 -174.5q0 -35 -10 -68t-24 -60t-43 -58t-52.5 -52.5t-67.5 -54 t-73 -52t-84.5 -56.5t-86.5 -58h336q27 0 42 10t30 48.5t31 119.5h30q-32 -155 -32 -276v-62h-668z" />
<glyph unicode="&#xb3;" horiz-adv-x="845" d="M319 1042v-16q-32 3 -48.5 -18t-16.5 -78q0 -148 115 -148q131 0 131 205q0 105 -38 153t-134 48h-45v31h45q84 0 111.5 46.5t27.5 157.5q0 85 -21.5 128.5t-80.5 43.5q-56 0 -80.5 -35t-24.5 -106q0 -60 17 -83.5t49 -18.5v-17q-109 -13 -178.5 22.5t-69.5 102.5 q0 70 82 116t237 46q162 0 256.5 -53t94.5 -148q0 -81 -76.5 -138.5t-206.5 -74.5v-4q153 -9 233 -66t80 -141q0 -119 -109.5 -180t-287.5 -61q-137 0 -217 42t-80 113q0 70 69 107.5t166 23.5z" />
<glyph unicode="&#xb4;" horiz-adv-x="1024" d="M442 1061l-24 18q45 64 75 139t42.5 128.5t28 100.5t43.5 71t77 24q45 0 80 -33t35 -79q0 -39 -21 -69t-59 -56t-81 -54t-97.5 -78t-98.5 -112z" />
<glyph unicode="&#xb5;" horiz-adv-x="1314" d="M199 -481v1372h-127v31h417v-719q0 -78 25.5 -115t79.5 -37q55 0 100.5 33t72.5 83t41.5 103t14.5 99v522h-127v31h418v-891h127v-31h-414v219h-4q-88 -233 -342 -233q-80 0 -141 22q2 -76 27 -144.5t49 -124t24 -101.5q0 -56 -28 -87.5t-97 -31.5h-116z" />
<glyph unicode="&#xb6;" horiz-adv-x="1341" d="M684 -467v836h-141q-207 0 -347.5 135t-140.5 350q0 220 147.5 360t368.5 140h707v-31h-563v-1790h-31zM858 -467v1630h242v-1630h-242z" />
<glyph unicode="&#xb7;" horiz-adv-x="503" d="M252 305q-64 0 -111 46.5t-47 111.5q0 64 46.5 109.5t111.5 45.5t110.5 -45.5t45.5 -109.5q0 -65 -46 -111.5t-110 -46.5z" />
<glyph unicode="&#xb8;" horiz-adv-x="1024" d="M303 -340h33q0 -50 31.5 -80.5t85.5 -30.5q47 0 74.5 32.5t27.5 86.5q0 61 -34.5 87.5t-119.5 29.5l58 225h33l-27 -108q115 -3 180.5 -52.5t65.5 -134.5q0 -91 -65.5 -143.5t-178.5 -52.5q-78 0 -121 37.5t-43 103.5z" />
<glyph unicode="&#xb9;" horiz-adv-x="696" d="M76 772v31h160v772h-158v31h414v-803h155v-31h-571z" />
<glyph unicode="&#xba;" horiz-adv-x="847" d="M74 1034q0 168 87.5 258t262.5 90q182 0 266 -86t84 -252q0 -169 -92.5 -258.5t-257.5 -89.5q-172 0 -261 89t-89 249zM424 723q76 0 107.5 80t31.5 241q0 157 -31.5 234.5t-107.5 77.5q-75 0 -107 -80.5t-32 -241.5q0 -155 31.5 -233t107.5 -78z" />
<glyph unicode="&#xbb;" horiz-adv-x="937" d="M500 14l-19 25q54 46 78 86t35.5 116t11.5 222q0 151 -10 225t-34 115t-81 86l19 24q68 -45 128.5 -96t114.5 -109.5t85.5 -122.5t31.5 -122t-30 -119t-86 -120t-112.5 -107.5t-131.5 -102.5zM98 14l-18 25q54 46 78 86t35.5 116t11.5 222q0 151 -10 225t-34 115t-81 86 l18 24q68 -46 128.5 -96.5t115 -109t86 -122.5t31.5 -122t-30.5 -119t-86.5 -120t-112.5 -107t-131.5 -103z" />
<glyph unicode="&#xbc;" horiz-adv-x="1665" d="M408 8l845 1354l25 -16l-846 -1354zM801 242v30l512 600h137v-600h162v-30h-162v-242h-258v242h-391zM842 272h350v410zM76 520v31h160v772h-158v31h414v-803h155v-31h-571z" />
<glyph unicode="&#xbd;" horiz-adv-x="1726" d="M401 8l846 1354l25 -16l-846 -1354zM965 0v31q1 0 131 92q134 95 190 160q92 102 92 317q0 223 -110 223q-66 0 -88.5 -42t-22.5 -126q0 -48 18 -79.5t58 -26.5v-17q-114 -25 -184 20.5t-70 119.5q0 81 84 129.5t213 48.5q102 0 180 -22t129 -76t51 -134q0 -35 -10 -68 t-24 -60t-43 -58t-52 -52.5t-67 -53.5t-73 -51.5t-84 -56t-87 -58.5h336q27 0 41.5 10t29.5 48.5t31 119.5h31q-33 -156 -33 -277v-61h-667zM63 520v31h160v772h-157v31h413v-803h156v-31h-572z" />
<glyph unicode="&#xbe;" horiz-adv-x="1726" d="M471 8l846 1354l24 -16l-845 -1354zM864 242v30l512 600h135v-600h162v-30h-162v-242h-256v242h-391zM905 272h350v410zM319 791v-17q-32 3 -48.5 -18t-16.5 -78q0 -148 115 -148q131 0 131 205q0 105 -38 153t-134 48h-45v31h45q84 0 111.5 46.5t27.5 157.5 q0 85 -21.5 128.5t-80.5 43.5q-56 0 -80.5 -35t-24.5 -106q0 -60 17 -83.5t49 -18.5v-17q-109 -13 -178.5 22.5t-69.5 102.5q0 70 82 116t237 46q162 0 256.5 -53t94.5 -148q0 -81 -76.5 -138.5t-206.5 -74.5v-4q153 -9 233 -66t80 -141q0 -119 -109.5 -180t-287.5 -61 q-137 0 -217 42t-80 113q0 70 69.5 108t165.5 24z" />
<glyph unicode="&#xbf;" horiz-adv-x="1009" d="M684 776q0 -64 -46.5 -109.5t-111.5 -45.5q-64 0 -109.5 45.5t-45.5 109.5q0 65 45.5 111.5t109.5 46.5t111 -47t47 -111zM383 354h-31q0 55 41 97.5t111 42.5q68 0 111.5 -40t43.5 -108q0 -53 -31 -93t-74.5 -73t-87.5 -74.5t-75 -118.5t-31 -184q0 -113 42.5 -175 t152.5 -62q219 0 219 217q0 84 -24.5 131t-69.5 47q-33 0 -64.5 -26t-31.5 -76h-31q0 57 38.5 98t133.5 41q102 0 169 -52.5t67 -154.5q0 -115 -112.5 -183.5t-309.5 -68.5q-222 0 -356 76t-134 215q0 59 26.5 108.5t66.5 82t96 62t105.5 48t104.5 41t84 39.5q93 55 93 133 q0 51 -33.5 85t-87.5 34q-49 0 -85 -27.5t-36 -81.5z" />
<glyph unicode="&#xc0;" horiz-adv-x="1298" d="M-41 0v31h41q47 0 77 27t56 94l463 1206h86l543 -1327h100v-31h-567v31h143l-172 422h-448l-115 -301q-22 -55 8.5 -88t101.5 -33h62v-31h-379zM293 483h424l-219 533zM823 1475l-16 -25q-65 45 -140.5 76t-128.5 45t-99 30t-69.5 42.5t-23.5 70.5q0 42 32.5 73.5 t72.5 31.5q35 0 64 -20t56.5 -56.5t57.5 -78t81 -94.5t113 -95z" />
<glyph unicode="&#xc1;" horiz-adv-x="1298" d="M-41 0v31h41q47 0 77 27t56 94l463 1206h86l543 -1327h100v-31h-567v31h143l-172 422h-448l-115 -301q-22 -55 8.5 -88t101.5 -33h62v-31h-379zM293 483h424l-219 533zM489 1450l-16 25q62 42 113 95t81 94.5t58 78t57 56.5t64 20q40 0 72 -31.5t32 -73.5 q0 -44 -23.5 -70.5t-69.5 -42.5t-99 -30t-128.5 -45t-140.5 -76z" />
<glyph unicode="&#xc2;" horiz-adv-x="1298" d="M-41 0v31h41q47 0 77 27t56 94l463 1206h86l543 -1327h100v-31h-567v31h143l-172 422h-448l-115 -301q-22 -55 8.5 -88t101.5 -33h62v-31h-379zM293 483h424l-219 533zM330 1448l264 344h86l264 -344h-219l-172 235l-182 -235h-41z" />
<glyph unicode="&#xc3;" horiz-adv-x="1298" d="M-41 0v31h41q47 0 77 27t56 94l463 1206h86l543 -1327h100v-31h-567v31h143l-172 422h-448l-115 -301q-22 -55 8.5 -88t101.5 -33h62v-31h-379zM293 483h424l-219 533zM303 1487h-33q0 135 52.5 211t136.5 76q58 0 111.5 -20t88 -44.5t83 -44.5t98.5 -20q57 0 87.5 28.5 t30.5 100.5h33q0 -137 -52.5 -212t-143.5 -75q-52 0 -97.5 13.5t-78 32.5t-63 37.5t-66 32t-72.5 13.5q-55 0 -85 -28.5t-30 -100.5z" />
<glyph unicode="&#xc4;" horiz-adv-x="1298" d="M-41 0v31h41q47 0 77 27t56 94l463 1206h86l543 -1327h100v-31h-567v31h143l-172 422h-448l-115 -301q-22 -55 8.5 -88t101.5 -33h62v-31h-379zM293 483h424l-219 533zM739 1630q0 57 42 98t100 41q56 0 97.5 -41t41.5 -98q0 -58 -41.5 -98.5t-97.5 -40.5 q-59 0 -100.5 40.5t-41.5 98.5zM383 1491q-56 0 -97.5 40.5t-41.5 98.5q0 57 41.5 98t97.5 41q58 0 99.5 -41t41.5 -98q0 -58 -41 -98.5t-100 -40.5z" />
<glyph unicode="&#xc5;" horiz-adv-x="1298" d="M-41 0v31h41q47 0 77 27t56 94l463 1206h86l543 -1327h100v-31h-567v31h143l-172 422h-448l-115 -301q-22 -55 8.5 -88t101.5 -33h62v-31h-379zM293 483h424l-219 533zM631 1464q-77 0 -117.5 50t-40.5 116q0 64 39.5 110t116.5 46q78 0 118.5 -46.5t40.5 -109.5 q0 -66 -40.5 -116t-116.5 -50zM631 1495q59 0 91 40t32 91q0 52 -30 90.5t-95 38.5q-63 0 -92 -37.5t-29 -87.5q0 -55 31.5 -95t91.5 -40z" />
<glyph unicode="&#xc6;" horiz-adv-x="1814" d="M-47 0v31h41q45 0 73.5 25.5t63.5 93.5l614 1173h-182v31h1174q-44 -162 -60 -383l-30 -2v184q0 83 -36 126.5t-118 43.5h-348v-639h307v180h31v-409h-31v198h-307v-622h358q40 0 70.5 18t51.5 48.5t37.5 80.5t27 102t20.5 126h33q-31 -187 -31 -406h-1061v31h183v485 h-476l-192 -366q-29 -56 1 -87.5t103 -31.5h62v-31h-379zM375 547h459v776h-54z" />
<glyph unicode="&#xc7;" horiz-adv-x="1255" d="M524 -340h33q0 -50 31.5 -80.5t85.5 -30.5q47 0 74.5 32.5t27.5 86.5q0 62 -34 88t-119 29l51 205q-279 20 -437.5 206.5t-158.5 487.5q0 307 184 495.5t496 188.5q171 0 286 -92q51 -7 87 16t49 62h26q-39 -191 -39 -287v-135h-30v78q0 146 -106.5 236.5t-272.5 90.5 q-62 0 -113 -20t-86.5 -54t-62.5 -84.5t-43.5 -105.5t-27 -124.5t-14 -134t-3.5 -140.5q0 -115 8.5 -206t31.5 -178t60.5 -144.5t99.5 -92.5t144 -35q137 0 235 64q82 54 126 141t44 180h33q0 -49 -13 -102t-46 -110.5t-82 -102t-129 -73.5t-179 -29q-6 0 -17.5 1t-16.5 1 l-21 -86q115 -3 180.5 -52.5t65.5 -134.5q0 -91 -65.5 -143.5t-178.5 -52.5q-78 0 -121 37.5t-43 103.5z" />
<glyph unicode="&#xc8;" horiz-adv-x="1204" d="M51 0v31h172v1292h-172v31h1075q-43 -162 -59 -383h-31v180q0 85 -33.5 128.5t-109.5 43.5h-358v-639h307v180h30v-409h-30v198h-307v-622h368q47 0 80.5 25.5t55.5 79t35.5 115.5t25.5 155h33q-31 -187 -31 -406h-1051zM834 1475l-17 -25q-65 45 -140.5 76t-128.5 45 t-99 30t-69.5 42.5t-23.5 70.5q0 42 32.5 73.5t72.5 31.5q35 0 64 -20t57 -56.5t58 -78t81 -94.5t113 -95z" />
<glyph unicode="&#xc9;" horiz-adv-x="1204" d="M51 0v31h172v1292h-172v31h1075q-43 -162 -59 -383h-31v180q0 85 -33.5 128.5t-109.5 43.5h-358v-639h307v180h30v-409h-30v198h-307v-622h368q47 0 80.5 25.5t55.5 79t35.5 115.5t25.5 155h33q-31 -187 -31 -406h-1051zM500 1450l-17 25q62 42 113 95t81 94.5t58 78 t57 56.5t64 20q40 0 72.5 -31.5t32.5 -73.5q0 -44 -23.5 -70.5t-69.5 -42.5t-99 -30t-128.5 -45t-140.5 -76z" />
<glyph unicode="&#xca;" horiz-adv-x="1204" d="M51 0v31h172v1292h-172v31h1075q-43 -162 -59 -383h-31v180q0 85 -33.5 128.5t-109.5 43.5h-358v-639h307v180h30v-409h-30v198h-307v-622h368q47 0 80.5 25.5t55.5 79t35.5 115.5t25.5 155h33q-31 -187 -31 -406h-1051zM340 1450l264 344h86l264 -344h-219l-172 236 l-182 -236h-41z" />
<glyph unicode="&#xcb;" horiz-adv-x="1204" d="M51 0v31h172v1292h-172v31h1075q-43 -162 -59 -383h-31v180q0 85 -33.5 128.5t-109.5 43.5h-358v-639h307v180h30v-409h-30v198h-307v-622h368q47 0 80.5 25.5t55.5 79t35.5 115.5t25.5 155h33q-31 -187 -31 -406h-1051zM750 1630q0 57 41.5 98t99.5 41q56 0 97.5 -41 t41.5 -98q0 -58 -41.5 -98.5t-97.5 -40.5q-59 0 -100 40.5t-41 98.5zM393 1491q-56 0 -97.5 40.5t-41.5 98.5q0 57 41.5 98t97.5 41q58 0 100 -41t42 -98q0 -58 -41.5 -98.5t-100.5 -40.5z" />
<glyph unicode="&#xcc;" horiz-adv-x="757" d="M51 0v31h172v1292h-172v31h656v-31h-172v-1292h172v-31h-656zM569 1475l-16 -25q-65 45 -140.5 76t-128.5 45t-99 30t-69.5 42.5t-23.5 70.5q0 42 32.5 73.5t72.5 31.5q35 0 64 -20t56.5 -56.5t57.5 -78t81 -94.5t113 -95z" />
<glyph unicode="&#xcd;" horiz-adv-x="757" d="M51 0v31h172v1292h-172v31h656v-31h-172v-1292h172v-31h-656zM236 1450l-17 25q62 42 113 95t81 94.5t58 78t57 56.5t64 20q40 0 72 -31.5t32 -73.5q0 -44 -23.5 -70.5t-69.5 -42.5t-98.5 -30t-128 -45t-140.5 -76z" />
<glyph unicode="&#xce;" horiz-adv-x="757" d="M51 0v31h172v1292h-172v31h656v-31h-172v-1292h172v-31h-656zM76 1450l264 344h86l264 -344h-219l-172 236l-182 -236h-41z" />
<glyph unicode="&#xcf;" horiz-adv-x="757" d="M51 0v31h172v1292h-172v31h656v-31h-172v-1292h172v-31h-656zM485 1630q0 57 42 98t100 41q56 0 97.5 -41t41.5 -98q0 -58 -41.5 -98.5t-97.5 -40.5q-59 0 -100.5 40.5t-41.5 98.5zM129 1491q-56 0 -97.5 40.5t-41.5 98.5q0 57 41.5 98t97.5 41q58 0 99.5 -41t41.5 -98 q0 -58 -41 -98.5t-100 -40.5z" />
<glyph unicode="&#xd0;" horiz-adv-x="1505" d="M53 0v31h172v647h-184v31h184v614h-172v31h641q191 0 333 -46t228.5 -133.5t128 -206t41.5 -270.5q0 -119 -24.5 -221.5t-79.5 -191.5t-138.5 -151.5t-207.5 -98t-281 -35.5h-641zM537 31h161q398 0 398 645q0 330 -97.5 488.5t-300.5 158.5h-161v-614h282v-31h-282v-647 z" />
<glyph unicode="&#xd1;" horiz-adv-x="1447" d="M55 0v31h62q65 0 94 31t29 92v1046l-21 29q-35 48 -67.5 71t-79.5 23h-37v31h465l700 -928v774q0 61 -29 92t-94 31h-61v31h399v-31h-63q-65 0 -93 -31t-28 -92v-1204h-86l-875 1163v-1005q0 -61 28 -92t93 -31h64v-31h-400zM399 1487h-32q0 135 52 211t136 76 q58 0 111.5 -20t88 -44.5t83 -44.5t98.5 -20q57 0 88 28.5t31 100.5h32q0 -137 -52.5 -212t-143.5 -75q-52 0 -97.5 13.5t-78 32.5t-63 37.5t-66 32t-72.5 13.5q-55 0 -85 -28.5t-30 -100.5z" />
<glyph unicode="&#xd2;" horiz-adv-x="1505" d="M752 -14q-149 0 -263 33t-190.5 92t-125.5 148.5t-70 195.5t-21 239q0 117 22.5 216t73.5 184.5t127.5 145.5t190 94t256.5 34q343 0 507 -174t164 -500q0 -126 -22 -231t-72 -195t-127 -151.5t-191 -96t-259 -34.5zM754 12q61 0 110 18.5t84 51t61 81t42 103t26 124 t13.5 136t3.5 146.5q0 88 -3.5 157.5t-12.5 141t-25 125t-41.5 101.5t-61 78.5t-85 48t-111.5 17.5q-72 0 -128 -23.5t-93 -70.5t-61.5 -104t-37 -137.5t-17.5 -157.5t-5 -176q0 -103 5 -181t17.5 -157t37 -134t61.5 -99.5t92.5 -66.5t128.5 -22zM942 1475l-16 -25 q-65 45 -140.5 76t-128.5 45t-99 30t-69.5 42.5t-23.5 70.5q0 42 32 73.5t72 31.5q35 0 64 -20t57 -56.5t58 -78t81 -94.5t113 -95z" />
<glyph unicode="&#xd3;" horiz-adv-x="1505" d="M752 -14q-149 0 -263 33t-190.5 92t-125.5 148.5t-70 195.5t-21 239q0 117 22.5 216t73.5 184.5t127.5 145.5t190 94t256.5 34q343 0 507 -174t164 -500q0 -126 -22 -231t-72 -195t-127 -151.5t-191 -96t-259 -34.5zM754 12q61 0 110 18.5t84 51t61 81t42 103t26 124 t13.5 136t3.5 146.5q0 88 -3.5 157.5t-12.5 141t-25 125t-41.5 101.5t-61 78.5t-85 48t-111.5 17.5q-72 0 -128 -23.5t-93 -70.5t-61.5 -104t-37 -137.5t-17.5 -157.5t-5 -176q0 -103 5 -181t17.5 -157t37 -134t61.5 -99.5t92.5 -66.5t128.5 -22zM608 1450l-16 25 q62 42 113 95t81 94.5t58 78t57 56.5t64 20q40 0 72 -31.5t32 -73.5q0 -44 -23.5 -70.5t-69.5 -42.5t-99 -30t-128.5 -45t-140.5 -76z" />
<glyph unicode="&#xd4;" horiz-adv-x="1505" d="M752 -14q-149 0 -263 33t-190.5 92t-125.5 148.5t-70 195.5t-21 239q0 117 22.5 216t73.5 184.5t127.5 145.5t190 94t256.5 34q343 0 507 -174t164 -500q0 -126 -22 -231t-72 -195t-127 -151.5t-191 -96t-259 -34.5zM754 12q61 0 110 18.5t84 51t61 81t42 103t26 124 t13.5 136t3.5 146.5q0 88 -3.5 157.5t-12.5 141t-25 125t-41.5 101.5t-61 78.5t-85 48t-111.5 17.5q-72 0 -128 -23.5t-93 -70.5t-61.5 -104t-37 -137.5t-17.5 -157.5t-5 -176q0 -103 5 -181t17.5 -157t37 -134t61.5 -99.5t92.5 -66.5t128.5 -22zM449 1450l264 344h86 l264 -344h-219l-172 236l-183 -236h-40z" />
<glyph unicode="&#xd5;" horiz-adv-x="1505" d="M752 -14q-149 0 -263 33t-190.5 92t-125.5 148.5t-70 195.5t-21 239q0 117 22.5 216t73.5 184.5t127.5 145.5t190 94t256.5 34q343 0 507 -174t164 -500q0 -126 -22 -231t-72 -195t-127 -151.5t-191 -96t-259 -34.5zM754 12q61 0 110 18.5t84 51t61 81t42 103t26 124 t13.5 136t3.5 146.5q0 88 -3.5 157.5t-12.5 141t-25 125t-41.5 101.5t-61 78.5t-85 48t-111.5 17.5q-72 0 -128 -23.5t-93 -70.5t-61.5 -104t-37 -137.5t-17.5 -157.5t-5 -176q0 -103 5 -181t17.5 -157t37 -134t61.5 -99.5t92.5 -66.5t128.5 -22zM422 1487h-33 q0 135 52.5 211t136.5 76q48 0 91 -13.5t75.5 -32t64 -37.5t70 -32.5t79.5 -13.5q57 0 88 28.5t31 100.5h33q0 -137 -53 -212t-144 -75q-52 0 -97.5 13.5t-78 32.5t-62.5 37.5t-65.5 32t-72.5 13.5q-55 0 -85 -28.5t-30 -100.5z" />
<glyph unicode="&#xd6;" horiz-adv-x="1505" d="M752 -14q-149 0 -263 33t-190.5 92t-125.5 148.5t-70 195.5t-21 239q0 117 22.5 216t73.5 184.5t127.5 145.5t190 94t256.5 34q343 0 507 -174t164 -500q0 -126 -22 -231t-72 -195t-127 -151.5t-191 -96t-259 -34.5zM754 12q61 0 110 18.5t84 51t61 81t42 103t26 124 t13.5 136t3.5 146.5q0 88 -3.5 157.5t-12.5 141t-25 125t-41.5 101.5t-61 78.5t-85 48t-111.5 17.5q-72 0 -128 -23.5t-93 -70.5t-61.5 -104t-37 -137.5t-17.5 -157.5t-5 -176q0 -103 5 -181t17.5 -157t37 -134t61.5 -99.5t92.5 -66.5t128.5 -22zM858 1630q0 57 41.5 98 t99.5 41q56 0 98 -41t42 -98q0 -58 -42 -98.5t-98 -40.5q-59 0 -100 40.5t-41 98.5zM502 1491q-56 0 -98 40.5t-42 98.5q0 57 42 98t98 41q58 0 99.5 -41t41.5 -98q0 -58 -41 -98.5t-100 -40.5z" />
<glyph unicode="&#xd7;" d="M68 25l462 462l-462 463l22 21l461 -463l465 465l20 -23l-463 -463l463 -462l-20 -23l-465 463l-461 -461z" />
<glyph unicode="&#xd8;" horiz-adv-x="1505" d="M399 -109l58 138q-197 66 -285 234.5t-88 430.5q0 117 22.5 216t73.5 184.5t127.5 145.5t190 94t256.5 34q146 0 262 -35l65 152l27 -12l-64 -148q381 -128 381 -631q0 -126 -22 -231t-72 -195t-127 -151.5t-191 -96t-259 -34.5q-147 0 -269 32l-59 -139zM999 1221 l-475 -1110q80 -99 232 -99q61 0 110 18.5t84 51t61 81t42 103t26 124t13.5 136t3.5 146.5q0 195 -20.5 330t-76.5 219zM504 139l475 1108q-77 96 -223 96q-72 0 -128 -23.5t-93 -70.5t-61.5 -105t-37 -138t-17.5 -157.5t-5 -176.5q0 -192 18.5 -322t71.5 -211z" />
<glyph unicode="&#xd9;" horiz-adv-x="1484" d="M197 569v754h-172v31h657v-31h-172v-754q0 -300 69 -426.5t246 -126.5q216 0 324 130t108 376v678q0 61 -28.5 92t-93.5 31h-62v31h400v-31h-64q-65 0 -93 -31t-28 -92v-682q0 -91 -15.5 -169.5t-51 -146t-88.5 -115t-131.5 -74.5t-176.5 -27q-144 0 -251.5 25.5t-179 73 t-116 120.5t-63 161t-18.5 203zM1028 1475l-16 -25q-65 45 -140.5 76t-128.5 45t-99 30t-69.5 42.5t-23.5 70.5q0 42 32 73.5t72 31.5q35 0 64 -20t57 -56.5t58 -78t81 -94.5t113 -95z" />
<glyph unicode="&#xda;" horiz-adv-x="1484" d="M197 569v754h-172v31h657v-31h-172v-754q0 -300 69 -426.5t246 -126.5q216 0 324 130t108 376v678q0 61 -28.5 92t-93.5 31h-62v31h400v-31h-64q-65 0 -93 -31t-28 -92v-682q0 -91 -15.5 -169.5t-51 -146t-88.5 -115t-131.5 -74.5t-176.5 -27q-144 0 -251.5 25.5t-179 73 t-116 120.5t-63 161t-18.5 203zM694 1450l-16 25q62 42 113 95t81 94.5t58 78t57 56.5t64 20q40 0 72 -31.5t32 -73.5q0 -44 -23.5 -70.5t-69.5 -42.5t-99 -30t-128.5 -45t-140.5 -76z" />
<glyph unicode="&#xdb;" horiz-adv-x="1484" d="M197 569v754h-172v31h657v-31h-172v-754q0 -300 69 -426.5t246 -126.5q216 0 324 130t108 376v678q0 61 -28.5 92t-93.5 31h-62v31h400v-31h-64q-65 0 -93 -31t-28 -92v-682q0 -91 -15.5 -169.5t-51 -146t-88.5 -115t-131.5 -74.5t-176.5 -27q-144 0 -251.5 25.5t-179 73 t-116 120.5t-63 161t-18.5 203zM535 1450l264 344h86l264 -344h-219l-172 236l-183 -236h-40z" />
<glyph unicode="&#xdc;" horiz-adv-x="1484" d="M197 569v754h-172v31h657v-31h-172v-754q0 -300 69 -426.5t246 -126.5q216 0 324 130t108 376v678q0 61 -28.5 92t-93.5 31h-62v31h400v-31h-64q-65 0 -93 -31t-28 -92v-682q0 -91 -15.5 -169.5t-51 -146t-88.5 -115t-131.5 -74.5t-176.5 -27q-144 0 -251.5 25.5t-179 73 t-116 120.5t-63 161t-18.5 203zM944 1630q0 57 41.5 98t99.5 41q56 0 98 -41t42 -98q0 -58 -42 -98.5t-98 -40.5q-59 0 -100 40.5t-41 98.5zM588 1491q-56 0 -97.5 40.5t-41.5 98.5q0 57 41.5 98t97.5 41q58 0 99.5 -41t41.5 -98q0 -58 -41 -98.5t-100 -40.5z" />
<glyph unicode="&#xdd;" horiz-adv-x="1318" d="M344 0v31h172v536l-426 756h-129v31h604v-31h-139l381 -682l301 567q28 50 7 82.5t-89 32.5h-92v31h379v-31h-27q-47 0 -78.5 -26t-68.5 -95l-312 -590v-581h172v-31h-655zM561 1450l-16 25q62 42 113 95t81 94.5t58 78t57 56.5t64 20q40 0 72 -31.5t32 -73.5 q0 -44 -23.5 -70.5t-69.5 -42.5t-99 -30t-128.5 -45t-140.5 -76z" />
<glyph unicode="&#xde;" horiz-adv-x="1302" d="M45 0v31h182v1292h-182v31h676v-31h-182v-268h186q148 0 255 -28t166.5 -80t86.5 -115.5t27 -143.5q0 -178 -139.5 -283.5t-377.5 -105.5l-75 4v31q28 -4 61 -4q205 0 205 352q0 70 -6 119.5t-23 94t-47 71t-79 42t-117 15.5h-123v-993h182v-31h-676z" />
<glyph unicode="&#xdf;" horiz-adv-x="1212" d="M35 0v31h127v860h-127v31h127v129q0 197 139.5 321.5t360.5 124.5q167 0 254.5 -73t87.5 -199q0 -52 -16 -95t-39 -73t-46 -58t-39 -65t-16 -80q0 -46 17 -86.5t44 -72.5t59.5 -63t65.5 -65t60 -71.5t44 -89t17 -111.5q0 -145 -95 -227t-253 -82q-240 0 -240 194h31 q0 -81 46 -118t108 -37q67 0 103 43t36 114q0 63 -30 117t-72.5 95.5t-84.5 84.5t-72 104.5t-30 135.5q0 59 20.5 107.5t53 81.5t72.5 61.5t79.5 55t72 54.5t53 67t20.5 87q0 101 -82 169t-207 68q-127 0 -179 -82t-52 -258v-1130h-418z" />
<glyph unicode="&#xe0;" horiz-adv-x="1056" d="M618 154h-4q-35 -70 -108.5 -119t-175.5 -49q-53 0 -100.5 12.5t-88.5 38t-65.5 71.5t-24.5 107q0 79 47 138.5t125.5 91.5t168 47.5t188.5 15.5h20v215q0 92 -35 139t-116 47q-79 0 -114.5 -39.5t-35.5 -115.5q0 -59 22 -91t74 -24v-16q-55 -17 -110 -17q-81 0 -133 34 t-52 99q0 89 93.5 143t265.5 54q230 0 331 -71t101 -210v-524q0 -43 11.5 -62.5t39.5 -19.5q39 0 59.5 44t20.5 97h31q0 -102 -56 -153t-153 -51q-93 0 -156.5 44.5t-69.5 123.5zM600 215v262h-16q-117 0 -174 -53q-64 -59 -64 -205q0 -164 96 -164q32 0 68 23 q34 23 62 64.5t28 72.5zM592 1079l-25 -18q-44 62 -98.5 112t-97.5 78t-80.5 54t-58.5 56t-21 69q0 46 35 79t80 33q49 0 77 -24t43.5 -71t28 -100.5t42.5 -128.5t75 -139z" />
<glyph unicode="&#xe1;" horiz-adv-x="1056" d="M618 154h-4q-35 -70 -108.5 -119t-175.5 -49q-53 0 -100.5 12.5t-88.5 38t-65.5 71.5t-24.5 107q0 79 47 138.5t125.5 91.5t168 47.5t188.5 15.5h20v215q0 92 -35 139t-116 47q-79 0 -114.5 -39.5t-35.5 -115.5q0 -59 22 -91t74 -24v-16q-55 -17 -110 -17q-81 0 -133 34 t-52 99q0 89 93.5 143t265.5 54q230 0 331 -71t101 -210v-524q0 -43 11.5 -62.5t39.5 -19.5q39 0 59.5 44t20.5 97h31q0 -102 -56 -153t-153 -51q-93 0 -156.5 44.5t-69.5 123.5zM600 215v262h-16q-117 0 -174 -53q-64 -59 -64 -205q0 -164 96 -164q32 0 68 23 q34 23 62 64.5t28 72.5zM428 1061l-25 18q45 64 75 139t43 128.5t28.5 100.5t43.5 71t77 24q45 0 79.5 -33t34.5 -79q0 -39 -21 -69t-58.5 -56t-80.5 -54t-97.5 -78t-98.5 -112z" />
<glyph unicode="&#xe2;" horiz-adv-x="1056" d="M618 154h-4q-35 -70 -108.5 -119t-175.5 -49q-53 0 -100.5 12.5t-88.5 38t-65.5 71.5t-24.5 107q0 79 47 138.5t125.5 91.5t168 47.5t188.5 15.5h20v215q0 92 -35 139t-116 47q-79 0 -114.5 -39.5t-35.5 -115.5q0 -59 22 -91t74 -24v-16q-55 -17 -110 -17q-81 0 -133 34 t-52 99q0 89 93.5 143t265.5 54q230 0 331 -71t101 -210v-524q0 -43 11.5 -62.5t39.5 -19.5q39 0 59.5 44t20.5 97h31q0 -102 -56 -153t-153 -51q-93 0 -156.5 44.5t-69.5 123.5zM600 215v262h-16q-117 0 -174 -53q-64 -59 -64 -205q0 -164 96 -164q32 0 68 23 q34 23 62 64.5t28 72.5zM225 1079l230 439h88l250 -439h-234l-156 275l-143 -275h-35z" />
<glyph unicode="&#xe3;" horiz-adv-x="1056" d="M618 154h-4q-35 -70 -108.5 -119t-175.5 -49q-53 0 -100.5 12.5t-88.5 38t-65.5 71.5t-24.5 107q0 79 47 138.5t125.5 91.5t168 47.5t188.5 15.5h20v215q0 92 -35 139t-116 47q-79 0 -114.5 -39.5t-35.5 -115.5q0 -59 22 -91t74 -24v-16q-55 -17 -110 -17q-81 0 -133 34 t-52 99q0 89 93.5 143t265.5 54q230 0 331 -71t101 -210v-524q0 -43 11.5 -62.5t39.5 -19.5q39 0 59.5 44t20.5 97h31q0 -102 -56 -153t-153 -51q-93 0 -156.5 44.5t-69.5 123.5zM600 215v262h-16q-117 0 -174 -53q-64 -59 -64 -205q0 -164 96 -164q32 0 68 23 q34 23 62 64.5t28 72.5zM195 1112h-33q0 135 58 211t153 76q47 0 89.5 -20t70 -44.5t67 -44.5t80.5 -20q52 0 86.5 30.5t34.5 98.5h33q0 -137 -58.5 -212t-152.5 -75q-38 0 -72.5 13.5t-61.5 32t-53.5 37.5t-58.5 32.5t-66 13.5q-50 0 -83 -30.5t-33 -98.5z" />
<glyph unicode="&#xe4;" horiz-adv-x="1056" d="M618 154h-4q-35 -70 -108.5 -119t-175.5 -49q-53 0 -100.5 12.5t-88.5 38t-65.5 71.5t-24.5 107q0 79 47 138.5t125.5 91.5t168 47.5t188.5 15.5h20v215q0 92 -35 139t-116 47q-79 0 -114.5 -39.5t-35.5 -115.5q0 -59 22 -91t74 -24v-16q-55 -17 -110 -17q-81 0 -133 34 t-52 99q0 89 93.5 143t265.5 54q230 0 331 -71t101 -210v-524q0 -43 11.5 -62.5t39.5 -19.5q39 0 59.5 44t20.5 97h31q0 -102 -56 -153t-153 -51q-93 0 -156.5 44.5t-69.5 123.5zM600 215v262h-16q-117 0 -174 -53q-64 -59 -64 -205q0 -164 96 -164q32 0 68 23 q34 23 62 64.5t28 72.5zM586 1235q0 57 41.5 98t99.5 41q56 0 97.5 -41t41.5 -98q0 -58 -41.5 -98.5t-97.5 -40.5q-59 0 -100 40.5t-41 98.5zM270 1096q-56 0 -97.5 40.5t-41.5 98.5q0 57 41.5 98t97.5 41q58 0 100 -41t42 -98q0 -58 -41.5 -98.5t-100.5 -40.5z" />
<glyph unicode="&#xe5;" horiz-adv-x="1056" d="M618 154h-4q-35 -70 -108.5 -119t-175.5 -49q-53 0 -100.5 12.5t-88.5 38t-65.5 71.5t-24.5 107q0 79 47 138.5t125.5 91.5t168 47.5t188.5 15.5h20v215q0 92 -35 139t-116 47q-79 0 -114.5 -39.5t-35.5 -115.5q0 -59 22 -91t74 -24v-16q-55 -17 -110 -17q-81 0 -133 34 t-52 99q0 89 93.5 143t265.5 54q230 0 331 -71t101 -210v-524q0 -43 11.5 -62.5t39.5 -19.5q39 0 59.5 44t20.5 97h31q0 -102 -56 -153t-153 -51q-93 0 -156.5 44.5t-69.5 123.5zM600 215v262h-16q-117 0 -174 -53q-64 -59 -64 -205q0 -164 96 -164q32 0 68 23 q34 23 62 64.5t28 72.5zM498 1106q-77 0 -117.5 50t-40.5 116q0 64 39 109.5t117 45.5t118.5 -46t40.5 -109q0 -66 -40.5 -116t-116.5 -50zM498 1137q59 0 91 40t32 91q0 52 -30 90.5t-95 38.5q-63 0 -92 -37.5t-29 -87.5q0 -55 31.5 -95t91.5 -40z" />
<glyph unicode="&#xe6;" horiz-adv-x="1550" d="M395 639v-16q-36 -17 -110 -17q-81 0 -133 34t-52 99q0 88 91 142.5t245 54.5q219 0 303 -117q120 117 342 117q192 0 299 -95t107 -274v-82h-572v-30q0 -170 23 -265t71 -134.5t132 -39.5q121 0 207 70.5t86 187.5h32q-3 -168 -157 -249q-79 -39 -195 -39 q-319 0 -434 188q-39 -81 -122 -134.5t-216 -53.5q-57 0 -107 12.5t-92.5 38t-67 71.5t-24.5 107q0 64 32 115t84.5 83.5t124 54.5t145.5 31t153 9h20v215q0 95 -38.5 140.5t-133.5 45.5q-139 0 -139 -159q0 -56 24 -88.5t72 -22.5zM610 465v12h-16q-74 0 -113.5 -12.5 t-70.5 -40.5q-64 -61 -64 -205q0 -99 31.5 -136.5t87.5 -37.5q65 0 118.5 50t78.5 112q-52 107 -52 258zM918 516h280v113q0 149 -29 214.5t-100 65.5q-55 0 -85.5 -32.5t-46.5 -117t-19 -243.5z" />
<glyph unicode="&#xe7;" horiz-adv-x="940" d="M311 -340h33q0 -50 31.5 -80.5t85.5 -30.5q47 0 74.5 32.5t27.5 86.5q0 62 -34 88t-119 29l51 205q-182 14 -287.5 127.5t-105.5 339.5q0 239 124 359t357 120q159 0 255.5 -53t96.5 -148q0 -75 -48 -118.5t-134 -43.5q-19 0 -39 3.5t-30 7.5l-11 4v16q45 -8 64.5 31 t19.5 113q0 78 -46 119.5t-126 41.5q-98 0 -140 -100t-42 -332q0 -258 43 -359.5t153 -101.5q56 0 112.5 20.5t94.5 55.5q84 74 84 184h31q0 -107 -82 -192q-95 -98 -275 -98q-24 0 -36 2l-21 -86q115 -3 180.5 -52.5t65.5 -134.5q0 -91 -65.5 -143.5t-178.5 -52.5 q-78 0 -121 37.5t-43 103.5z" />
<glyph unicode="&#xe8;" horiz-adv-x="1005" d="M371 485v-30q0 -170 22.5 -265t70.5 -134.5t132 -39.5q121 0 207 70.5t86 187.5h33q-1 -85 -44 -148.5t-114 -100.5q-79 -39 -195 -39q-503 0 -503 479q0 235 126.5 353t344.5 118q192 0 298.5 -95t106.5 -274v-82h-571zM373 516h280v113q0 149 -29 214.5t-100 65.5 q-55 0 -85.5 -32.5t-46.5 -117t-19 -243.5zM612 1079l-24 -18q-44 62 -98.5 112t-97.5 78t-81 54t-59 56t-21 69q0 46 35 79t80 33q49 0 77 -24t43.5 -71t28 -100.5t42.5 -128.5t75 -139z" />
<glyph unicode="&#xe9;" horiz-adv-x="1005" d="M371 485v-30q0 -170 22.5 -265t70.5 -134.5t132 -39.5q121 0 207 70.5t86 187.5h33q-1 -85 -44 -148.5t-114 -100.5q-79 -39 -195 -39q-503 0 -503 479q0 235 126.5 353t344.5 118q192 0 298.5 -95t106.5 -274v-82h-571zM373 516h280v113q0 149 -29 214.5t-100 65.5 q-55 0 -85.5 -32.5t-46.5 -117t-19 -243.5zM449 1061l-25 18q45 64 75 139t42.5 128.5t28 100.5t43.5 71t77 24q45 0 80 -33t35 -79q0 -39 -21 -69t-58.5 -56t-80.5 -54t-97.5 -78t-98.5 -112z" />
<glyph unicode="&#xea;" horiz-adv-x="1005" d="M371 485v-30q0 -170 22.5 -265t70.5 -134.5t132 -39.5q121 0 207 70.5t86 187.5h33q-1 -85 -44 -148.5t-114 -100.5q-79 -39 -195 -39q-503 0 -503 479q0 235 126.5 353t344.5 118q192 0 298.5 -95t106.5 -274v-82h-571zM373 516h280v113q0 149 -29 214.5t-100 65.5 q-55 0 -85.5 -32.5t-46.5 -117t-19 -243.5zM246 1079l229 439h88l250 -439h-233l-156 275l-143 -275h-35z" />
<glyph unicode="&#xeb;" horiz-adv-x="1005" d="M371 485v-30q0 -170 22.5 -265t70.5 -134.5t132 -39.5q121 0 207 70.5t86 187.5h33q-1 -85 -44 -148.5t-114 -100.5q-79 -39 -195 -39q-503 0 -503 479q0 235 126.5 353t344.5 118q192 0 298.5 -95t106.5 -274v-82h-571zM373 516h280v113q0 149 -29 214.5t-100 65.5 q-55 0 -85.5 -32.5t-46.5 -117t-19 -243.5zM606 1235q0 57 42 98t100 41q56 0 97.5 -41t41.5 -98q0 -58 -41.5 -98.5t-97.5 -40.5q-59 0 -100.5 40.5t-41.5 98.5zM291 1096q-56 0 -97.5 40.5t-41.5 98.5q0 57 41.5 98t97.5 41q58 0 99.5 -41t41.5 -98q0 -58 -41 -98.5 t-100 -40.5z" />
<glyph unicode="&#xec;" horiz-adv-x="600" d="M35 0v31h127v860h-127v31h418v-891h127v-31h-545zM401 1079l-24 -18q-44 62 -98.5 112t-97.5 78t-81 54t-59 56t-21 69q0 46 35 79t80 33q49 0 77 -24t43.5 -71t28 -100.5t42.5 -128.5t75 -139z" />
<glyph unicode="&#xed;" horiz-adv-x="600" d="M35 0v31h127v860h-127v31h418v-891h127v-31h-545zM238 1061l-25 18q45 64 75 139t42.5 128.5t28 100.5t43.5 71t77 24q45 0 80 -33t35 -79q0 -39 -21 -69t-58.5 -56t-80.5 -54t-97.5 -78t-98.5 -112z" />
<glyph unicode="&#xee;" horiz-adv-x="600" d="M35 0v31h127v860h-127v31h418v-891h127v-31h-545zM35 1079l229 439h88l250 -439h-233l-156 275l-143 -275h-35z" />
<glyph unicode="&#xef;" horiz-adv-x="600" d="M35 0v31h127v860h-127v31h418v-891h127v-31h-545zM395 1235q0 57 42 98t100 41q56 0 97.5 -41t41.5 -98q0 -58 -41.5 -98.5t-97.5 -40.5q-59 0 -100.5 40.5t-41.5 98.5zM80 1096q-56 0 -97.5 40.5t-41.5 98.5q0 57 41.5 98t97.5 41q58 0 99.5 -41t41.5 -98 q0 -58 -41 -98.5t-100 -40.5z" />
<glyph unicode="&#xf0;" horiz-adv-x="1130" d="M260 1016l-16 24l342 207q-133 187 -373 187v30q265 0 477 -153l191 116l16 -24l-182 -111q150 -135 239.5 -339t89.5 -435q0 -257 -124.5 -394.5t-364.5 -137.5q-236 0 -362.5 128t-126.5 347q0 115 36 204.5t100 146t150 85.5t189 29q102 0 172 -47q-37 217 -111 344z M557 12q101 0 146 113.5t45 331.5q0 93 -5 159t-18.5 121.5t-37 88.5t-59.5 51t-87 18q-96 0 -134 -103t-38 -315q0 -233 44 -349t144 -116z" />
<glyph unicode="&#xf1;" horiz-adv-x="1220" d="M35 0v31h127v860h-127v31h414v-220h4q3 10 8.5 25.5t30.5 56t58 71t95 56t137 25.5q153 0 224 -67.5t71 -213.5v-624h127v-31h-530v31h112v688q0 79 -24.5 115t-79.5 36q-94 0 -156 -90q-36 -52 -54.5 -115.5t-18.5 -111.5v-522h112v-31h-530zM322 1112h-33q0 135 58 211 t153 76q46 0 89 -20t70.5 -44.5t67 -44.5t80.5 -20q52 0 86.5 30.5t34.5 98.5h33q0 -137 -58.5 -212t-152.5 -75q-38 0 -72.5 13.5t-61.5 32t-53.5 37.5t-58.5 32.5t-66 13.5q-50 0 -83 -30.5t-33 -98.5z" />
<glyph unicode="&#xf2;" horiz-adv-x="1116" d="M66 455q0 226 123.5 353.5t369.5 127.5q248 0 370 -123t122 -346q0 -231 -130.5 -356t-361.5 -125q-242 0 -367.5 124t-125.5 345zM559 12q107 0 145.5 98t38.5 357q0 250 -38.5 346t-145.5 96q-105 0 -145.5 -100t-40.5 -354q0 -251 39.5 -347t146.5 -96zM651 1079 l-24 -18q-44 62 -98.5 112t-97.5 78t-81 54t-59 56t-21 69q0 46 35 79t80 33q49 0 77 -24t43.5 -71t28 -100.5t42.5 -128.5t75 -139z" />
<glyph unicode="&#xf3;" horiz-adv-x="1116" d="M66 455q0 226 123.5 353.5t369.5 127.5q248 0 370 -123t122 -346q0 -231 -130.5 -356t-361.5 -125q-242 0 -367.5 124t-125.5 345zM559 12q107 0 145.5 98t38.5 357q0 250 -38.5 346t-145.5 96q-105 0 -145.5 -100t-40.5 -354q0 -251 39.5 -347t146.5 -96zM487 1061 l-24 18q45 64 75 139t42.5 128.5t28 100.5t43.5 71t77 24q45 0 80 -33t35 -79q0 -39 -21 -69t-59 -56t-81 -54t-97.5 -78t-98.5 -112z" />
<glyph unicode="&#xf4;" horiz-adv-x="1116" d="M66 455q0 226 123.5 353.5t369.5 127.5q248 0 370 -123t122 -346q0 -231 -130.5 -356t-361.5 -125q-242 0 -367.5 124t-125.5 345zM559 12q107 0 145.5 98t38.5 357q0 250 -38.5 346t-145.5 96q-105 0 -145.5 -100t-40.5 -354q0 -251 39.5 -347t146.5 -96zM285 1079 l229 439h88l250 -439h-234l-155 275l-144 -275h-34z" />
<glyph unicode="&#xf5;" horiz-adv-x="1116" d="M66 455q0 226 123.5 353.5t369.5 127.5q248 0 370 -123t122 -346q0 -231 -130.5 -356t-361.5 -125q-242 0 -367.5 124t-125.5 345zM559 12q107 0 145.5 98t38.5 357q0 250 -38.5 346t-145.5 96q-105 0 -145.5 -100t-40.5 -354q0 -251 39.5 -347t146.5 -96zM254 1112h-33 q0 135 58 211t153 76q46 0 89 -20t70.5 -44.5t67 -44.5t80.5 -20q52 0 86.5 30.5t34.5 98.5h33q0 -137 -58.5 -212t-152.5 -75q-38 0 -72.5 13.5t-61.5 32t-53 37.5t-58 32.5t-66 13.5q-50 0 -83.5 -30.5t-33.5 -98.5z" />
<glyph unicode="&#xf6;" horiz-adv-x="1116" d="M66 455q0 226 123.5 353.5t369.5 127.5q248 0 370 -123t122 -346q0 -231 -130.5 -356t-361.5 -125q-242 0 -367.5 124t-125.5 345zM559 12q107 0 145.5 98t38.5 357q0 250 -38.5 346t-145.5 96q-105 0 -145.5 -100t-40.5 -354q0 -251 39.5 -347t146.5 -96zM645 1235 q0 57 41.5 98t99.5 41q56 0 98 -41t42 -98q0 -58 -42 -98.5t-98 -40.5q-59 0 -100 40.5t-41 98.5zM330 1096q-56 0 -98 40.5t-42 98.5q0 57 42 98t98 41q58 0 99.5 -41t41.5 -98q0 -58 -41 -98.5t-100 -40.5z" />
<glyph unicode="&#xf7;" d="M553 760q-51 0 -87 36t-36 87t36 87t87 36t87 -36t36 -87t-36 -87t-87 -36zM94 481v31h918v-31h-918zM430 102q0 51 36 87t87 36t87 -36t36 -87t-36 -86.5t-87 -35.5t-87 35.5t-36 86.5z" />
<glyph unicode="&#xf8;" horiz-adv-x="1116" d="M268 -106l62 129q-131 50 -197.5 161t-66.5 271q0 226 123.5 353.5t369.5 127.5q103 0 189 -25l71 152l27 -14l-68 -146q273 -97 273 -436q0 -231 -130.5 -356t-361.5 -125q-108 0 -201 26l-63 -133zM717 776l-309 -657q22 -57 58 -82t93 -25q107 0 145.5 98t38.5 357 q0 218 -26 309zM395 162l307 655q-38 92 -143 92t-145.5 -100t-40.5 -354q0 -197 22 -293z" />
<glyph unicode="&#xf9;" horiz-adv-x="1206" d="M143 266v625h-127v31h418v-719q0 -78 25.5 -115t79.5 -37q55 0 100.5 33t72.5 83t41.5 103t14.5 99v522h-127v31h418v-891h127v-31h-414v219h-4q-88 -233 -342 -233q-283 0 -283 280zM690 1079l-24 -18q-44 62 -98.5 112t-97.5 78t-81 54t-59 56t-21 69q0 46 35 79t80 33 q49 0 77 -24t43.5 -71t28 -100.5t42.5 -128.5t75 -139z" />
<glyph unicode="&#xfa;" horiz-adv-x="1206" d="M143 266v625h-127v31h418v-719q0 -78 25.5 -115t79.5 -37q55 0 100.5 33t72.5 83t41.5 103t14.5 99v522h-127v31h418v-891h127v-31h-414v219h-4q-88 -233 -342 -233q-283 0 -283 280zM526 1061l-24 18q45 64 75 139t42.5 128.5t28 100.5t43.5 71t77 24q45 0 80 -33 t35 -79q0 -39 -21 -69t-59 -56t-81 -54t-97.5 -78t-98.5 -112z" />
<glyph unicode="&#xfb;" horiz-adv-x="1206" d="M143 266v625h-127v31h418v-719q0 -78 25.5 -115t79.5 -37q55 0 100.5 33t72.5 83t41.5 103t14.5 99v522h-127v31h418v-891h127v-31h-414v219h-4q-88 -233 -342 -233q-283 0 -283 280zM324 1079l229 439h88l250 -439h-234l-155 275l-144 -275h-34z" />
<glyph unicode="&#xfc;" horiz-adv-x="1206" d="M143 266v625h-127v31h418v-719q0 -78 25.5 -115t79.5 -37q55 0 100.5 33t72.5 83t41.5 103t14.5 99v522h-127v31h418v-891h127v-31h-414v219h-4q-88 -233 -342 -233q-283 0 -283 280zM684 1235q0 57 41.5 98t99.5 41q56 0 98 -41t42 -98q0 -58 -42 -98.5t-98 -40.5 q-59 0 -100 40.5t-41 98.5zM369 1096q-56 0 -98 40.5t-42 98.5q0 57 42 98t98 41q58 0 99.5 -41t41.5 -98q0 -58 -41 -98.5t-100 -40.5z" />
<glyph unicode="&#xfd;" horiz-adv-x="1058" d="M297 -195v-16q-64 -6 -64 -115q0 -61 24 -89.5t77 -28.5q172 0 207 262l18 137l-467 936h-98v31h555v-31h-141l282 -569l180 450q23 62 1.5 90.5t-87.5 28.5h-41v31h326v-31h-31q-40 0 -75 -26.5t-50 -67.5l-315 -797l-25 -172q-6 -38 -11 -63.5t-15.5 -61t-23.5 -59 t-34 -49.5t-47.5 -41t-65 -25t-85.5 -10q-103 0 -168.5 42t-65.5 111q0 64 62 98.5t178 34.5zM481 1063l-24 18q45 64 75 139t42.5 128.5t28 100.5t43.5 71t77 24q45 0 80 -33t35 -79q0 -39 -21 -69t-59 -56t-81 -54t-97.5 -78t-98.5 -112z" />
<glyph unicode="&#xfe;" horiz-adv-x="1169" d="M422 584v-310q0 -94 53.5 -165.5t140.5 -71.5q95 0 138 105.5t43 336.5q0 220 -35.5 313t-122.5 93q-59 0 -109.5 -44t-79 -113t-28.5 -144zM4 -467v31h127v1876h-127v30h418v-722h4q35 83 108 135.5t189 52.5q192 0 284.5 -117.5t92.5 -333.5q0 -236 -107.5 -367.5 t-300.5 -131.5t-266 143h-4v-565h127v-31h-545z" />
<glyph unicode="&#xff;" horiz-adv-x="1058" d="M297 -195v-16q-64 -6 -64 -115q0 -61 24 -89.5t77 -28.5q172 0 207 262l18 137l-467 936h-98v31h555v-31h-141l282 -569l180 450q23 62 1.5 90.5t-87.5 28.5h-41v31h326v-31h-31q-40 0 -75 -26.5t-50 -67.5l-315 -797l-25 -172q-6 -38 -11 -63.5t-15.5 -61t-23.5 -59 t-34 -49.5t-47.5 -41t-65 -25t-85.5 -10q-103 0 -168.5 42t-65.5 111q0 64 62 98.5t178 34.5zM639 1237q0 57 41.5 98t99.5 41q56 0 98 -41t42 -98q0 -58 -42 -98.5t-98 -40.5q-59 0 -100 40.5t-41 98.5zM324 1098q-56 0 -98 40.5t-42 98.5q0 57 42 98t98 41q58 0 99.5 -41 t41.5 -98q0 -58 -41 -98.5t-100 -40.5z" />
<glyph unicode="&#x152;" horiz-adv-x="1929" d="M1260 31h358q85 0 131.5 84t75.5 291h33q-31 -182 -31 -406h-869q-85 -14 -186 -14q-690 0 -690 690q0 692 690 692q101 0 186 -14h893q-45 -157 -59 -383h-31v184q0 168 -153 168h-348v-639h307v180h30v-409h-30v198h-307v-622zM948 31v1290q-73 18 -155 18 q-142 0 -224.5 -64.5t-119.5 -208t-37 -392.5q0 -360 85.5 -510t295.5 -150q86 0 155 17z" />
<glyph unicode="&#x153;" horiz-adv-x="1675" d="M1040 485v-30q0 -250 50.5 -345.5t175.5 -93.5q122 2 207.5 71.5t85.5 186.5h32q-3 -168 -157 -249q-74 -39 -195 -39q-257 0 -362 151q-108 -151 -318 -151q-240 0 -366.5 125.5t-126.5 343.5q0 227 124 354t369 127q219 0 322 -141q98 141 325 141q192 0 299 -95 t107 -274v-82h-572zM559 12q107 0 145.5 98t38.5 357q0 250 -38.5 346t-145.5 96q-105 0 -145.5 -100t-40.5 -354q0 -251 39.5 -347t146.5 -96zM1042 516h281v113q0 140 -27 210t-94 70q-83 0 -119.5 -87.5t-40.5 -305.5z" />
<glyph unicode="&#x178;" horiz-adv-x="1318" d="M344 0v31h172v536l-426 756h-129v31h604v-31h-139l381 -682l301 567q28 50 7 82.5t-89 32.5h-92v31h379v-31h-27q-47 0 -78.5 -26t-68.5 -95l-312 -590v-581h172v-31h-655zM811 1630q0 57 41.5 98t99.5 41q56 0 98 -41t42 -98q0 -58 -42 -98.5t-98 -40.5q-59 0 -100 40.5 t-41 98.5zM455 1491q-56 0 -98 40.5t-42 98.5q0 57 42 98t98 41q58 0 99.5 -41t41.5 -98q0 -58 -41 -98.5t-100 -40.5z" />
<glyph unicode="&#x2c6;" horiz-adv-x="1024" d="M240 1079l229 439h88l250 -439h-234l-155 275l-144 -275h-34z" />
<glyph unicode="&#x2dc;" horiz-adv-x="1024" d="M209 1112h-33q0 135 58 211t153 76q47 0 89.5 -20t70 -44.5t67 -44.5t80.5 -20q52 0 86.5 30.5t34.5 98.5h33q0 -137 -58.5 -212t-152.5 -75q-38 0 -72.5 13.5t-61.5 32t-53 37.5t-58 32.5t-66 13.5q-50 0 -83.5 -30.5t-33.5 -98.5z" />
<glyph unicode="&#x2000;" horiz-adv-x="909" />
<glyph unicode="&#x2001;" horiz-adv-x="1819" />
<glyph unicode="&#x2002;" horiz-adv-x="909" />
<glyph unicode="&#x2003;" horiz-adv-x="1819" />
<glyph unicode="&#x2004;" horiz-adv-x="606" />
<glyph unicode="&#x2005;" horiz-adv-x="454" />
<glyph unicode="&#x2006;" horiz-adv-x="303" />
<glyph unicode="&#x2007;" horiz-adv-x="303" />
<glyph unicode="&#x2008;" horiz-adv-x="227" />
<glyph unicode="&#x2009;" horiz-adv-x="363" />
<glyph unicode="&#x200a;" horiz-adv-x="101" />
<glyph unicode="&#x2010;" horiz-adv-x="733" d="M109 393v201h516v-201h-516z" />
<glyph unicode="&#x2011;" horiz-adv-x="733" d="M109 393v201h516v-201h-516z" />
<glyph unicode="&#x2012;" horiz-adv-x="733" d="M109 393v201h516v-201h-516z" />
<glyph unicode="&#x2013;" horiz-adv-x="1249" d="M113 401v162h1024v-162h-1024z" />
<glyph unicode="&#x2014;" horiz-adv-x="2273" d="M113 401v162h2048v-162h-2048z" />
<glyph unicode="&#x2018;" horiz-adv-x="507" d="M422 1468v-30q-92 0 -168 -60t-76 -157q0 -85 64 -131t188 -46q0 -85 -46 -133.5t-122 -48.5q-92 0 -141 57t-49 160q0 162 102.5 275.5t247.5 113.5z" />
<glyph unicode="&#x2019;" horiz-adv-x="522" d="M106 862v31q92 0 168 60t76 157q0 85 -64 130.5t-188 45.5q0 85 46 133.5t122 48.5q92 0 141.5 -57t49.5 -160q0 -162 -103 -275.5t-248 -113.5z" />
<glyph unicode="&#x201a;" horiz-adv-x="528" d="M90 -305v31q92 0 168 60t76 157q0 85 -64 130.5t-188 45.5q0 85 46 133.5t122 48.5q92 0 141 -57t49 -160q0 -162 -102.5 -275.5t-247.5 -113.5z" />
<glyph unicode="&#x201c;" horiz-adv-x="942" d="M856 1468v-30q-92 0 -168 -60t-76 -157q0 -85 64 -131t188 -46q0 -85 -46 -133.5t-122 -48.5q-92 0 -141 57t-49 160q0 162 102.5 275.5t247.5 113.5zM422 1468v-30q-92 0 -168 -60t-76 -157q0 -85 64 -131t188 -46q0 -85 -46 -133.5t-122 -48.5q-92 0 -141 57t-49 160 q0 162 102.5 275.5t247.5 113.5z" />
<glyph unicode="&#x201d;" horiz-adv-x="956" d="M106 862v31q92 0 168 60t76 157q0 85 -64 130.5t-188 45.5q0 85 46 133.5t122 48.5q92 0 141.5 -57t49.5 -160q0 -162 -103 -275.5t-248 -113.5zM541 862v31q92 0 167.5 60t75.5 157q0 85 -64 130.5t-188 45.5q0 85 46 133.5t122 48.5q92 0 141.5 -57t49.5 -160 q0 -162 -102.5 -275.5t-247.5 -113.5z" />
<glyph unicode="&#x201e;" horiz-adv-x="962" d="M90 -305v31q92 0 168 60t76 157q0 85 -64 130.5t-188 45.5q0 85 46 133.5t122 48.5q92 0 141 -57t49 -160q0 -162 -102.5 -275.5t-247.5 -113.5zM524 -305v31q92 0 168 60t76 157q0 85 -64 130.5t-188 45.5q0 85 46 133.5t122 48.5q92 0 141 -57t49 -160 q0 -162 -102.5 -275.5t-247.5 -113.5z" />
<glyph unicode="&#x2022;" horiz-adv-x="933" d="M467 147q-141 0 -241.5 100.5t-100.5 241.5t100.5 241.5t241.5 100.5t241.5 -100.5t100.5 -241.5t-100.5 -241.5t-241.5 -100.5z" />
<glyph unicode="&#x2026;" horiz-adv-x="1521" d="M1122 145q0 64 46.5 110t111.5 46q64 0 110 -45.5t46 -110.5t-46 -111t-110 -46q-65 0 -111.5 46.5t-46.5 110.5zM604 145q0 64 46.5 110t111.5 46q64 0 110 -45.5t46 -110.5t-46 -111t-110 -46q-65 0 -111.5 46.5t-46.5 110.5zM86 145q0 64 46.5 110t111.5 46 q64 0 109.5 -45.5t45.5 -110.5t-45.5 -111t-109.5 -46q-65 0 -111.5 46.5t-46.5 110.5z" />
<glyph unicode="&#x202f;" horiz-adv-x="363" />
<glyph unicode="&#x2039;" horiz-adv-x="536" d="M457 39l-19 -25q-75 54 -131.5 102.5t-112.5 107.5t-86 120t-30 119t31.5 122t85.5 122.5t114.5 109.5t128.5 96l19 -24q-57 -45 -81 -86t-34 -115t-10 -225q0 -146 11.5 -222t35.5 -116t78 -86z" />
<glyph unicode="&#x203a;" horiz-adv-x="536" d="M98 14l-18 25q54 46 78 86t35.5 116t11.5 222q0 151 -10 225t-34 115t-81 86l18 24q68 -46 128.5 -96.5t115 -109t86 -122.5t31.5 -122t-30.5 -119t-86.5 -120t-112.5 -107t-131.5 -103z" />
<glyph unicode="&#x205f;" horiz-adv-x="454" />
<glyph unicode="&#x20ac;" d="M16 469v31h150q-2 16 -2 53q0 32 4 94h-152v31h156q31 217 168.5 342t343.5 125q156 0 248 -96q33 6 54 25.5t36 55.5h27q-39 -188 -39 -266v-102h-31v45q0 144 -77 225.5t-206 81.5q-114 0 -168.5 -104t-62.5 -332h360v-31h-360v-147h360v-31h-358q8 -241 60 -346 t171 -105q121 0 199 64q93 76 100 219h33q0 -26 -6 -58.5t-28 -80t-57 -85t-101 -64.5t-152 -27q-214 0 -354.5 129t-163.5 354h-152z" />
<glyph unicode="&#x2122;" horiz-adv-x="1839" d="M825 723v31h29q34 0 49 15.5t15 47.5v506h-97v31h305l156 -373l154 373h293v-31h-97v-569h97v-31h-381v31h88v518l-228 -549h-30l-230 551v-457q0 -32 15 -47.5t49 -15.5h28v-31h-215zM242 723v31h100v569h-76h-6h-28.5t-21 -2.5t-17 -6t-11.5 -13t-9 -19.5t-5.5 -30 t-5.5 -41t-4 -56h-31v199h627v-199h-31q-5 81 -12.5 114t-20.5 43.5t-45 10.5h-106v-569h100v-31h-397z" />
<glyph unicode="&#x25fc;" horiz-adv-x="921" d="M0 922h922v-922h-922v922z" />
</font>
</defs>
</svg>
